<svg width="24" height="24" viewBox="0 0 24 24" fill="none" xmlns="http://www.w3.org/2000/svg">
<rect width="24" height="24" rx="9" fill="#F7F7F7"/>
<path d="M12 6C8.68629 6 6 8.68629 6 12C6 15.3137 8.68629 18 12 18C15.3137 18 18 15.3137 18 12C18 8.68629 15.3137 6 12 6Z" fill="#FF4433"/>
<path fill-rule="evenodd" clip-rule="evenodd" d="M12.6548 9.38135C12.6548 9.01986 12.3617 8.72681 12.0002 8.72681C11.6388 8.72681 11.3457 9.01986 11.3457 9.38135V11.9995C11.3457 12.361 11.6388 12.6541 12.0002 12.6541C12.3617 12.6541 12.6548 12.361 12.6548 11.9995V9.38135ZM12.0002 13.9632C11.6388 13.9632 11.3457 14.2562 11.3457 14.6177C11.3457 14.9792 11.6388 15.2723 12.0002 15.2723H12.0068C12.3683 15.2723 12.6613 14.9792 12.6613 14.6177C12.6613 14.2562 12.3683 13.9632 12.0068 13.9632H12.0002Z" fill="white"/>
</svg>
