<svg width="27" height="30" viewBox="0 0 27 30" fill="none" xmlns="http://www.w3.org/2000/svg">
      <path
        d="M21 12V9C21 4.85786 17.6421 1.5 13.5 1.5C9.35786 1.5 6 4.85786 6 9V12M13.5 18.75V21.75M8.7 28.5H18.3C20.8202 28.5 22.0804 28.5 23.043 28.0095C23.8897 27.5781 24.5781 26.8897 25.0095 26.043C25.5 25.0804 25.5 23.8202 25.5 21.3V19.2C25.5 16.6798 25.5 15.4196 25.0095 14.457C24.5781 13.6103 23.8897 12.9219 23.043 12.4905C22.0804 12 20.8202 12 18.3 12H8.7C6.17976 12 4.91965 12 3.95704 12.4905C3.11031 12.9219 2.4219 13.6103 1.99047 14.457C1.5 15.4196 1.5 16.6798 1.5 19.2V21.3C1.5 23.8202 1.5 25.0804 1.99047 26.043C2.4219 26.8897 3.11031 27.5781 3.95704 28.0095C4.91965 28.5 6.17976 28.5 8.7 28.5Z"
        stroke="#171717" stroke-width="3" stroke-linecap="round" stroke-linejoin="round" />
    </svg>