<svg width="20" height="20" viewBox="0 0 20 20" fill="none" xmlns="http://www.w3.org/2000/svg">
<path d="M1.78613 14.7616V11.2972L1.07812 10.5892C0.921845 10.4329 0.833984 10.221 0.833984 10C0.833984 9.77899 0.921845 9.56709 1.07812 9.41081L1.78613 8.70199V5.23844C1.78613 3.72579 3.01195 2.50013 4.52458 2.5C4.98481 2.5 5.35791 2.8731 5.35791 3.33333C5.35791 3.79357 4.98481 4.16667 4.52458 4.16667C3.93242 4.1668 3.4528 4.64626 3.4528 5.23844V9.04785C3.45271 9.26871 3.36564 9.48085 3.20947 9.63704L2.8457 10L3.20947 10.363C3.36564 10.5191 3.45271 10.7313 3.4528 10.9521V14.7616C3.4528 15.3537 3.93242 15.8332 4.52458 15.8333C4.98481 15.8333 5.35791 16.2064 5.35791 16.6667C5.35791 17.1269 4.98481 17.5 4.52458 17.5C3.01195 17.4999 1.78613 16.2742 1.78613 14.7616ZM16.5477 14.7616V10.9521C16.5478 10.7313 16.6356 10.5192 16.7918 10.363L17.1548 10L16.7918 9.63704C16.6356 9.48085 16.5478 9.26874 16.5477 9.04785V5.23844C16.5477 4.64632 16.0688 4.16689 15.4767 4.16667C15.0165 4.16667 14.6434 3.79357 14.6434 3.33333C14.6434 2.8731 15.0165 2.5 15.4767 2.5C16.9893 2.50022 18.2144 3.72584 18.2144 5.23844V8.70199L18.9232 9.41081C19.2485 9.73622 19.2485 10.2638 18.9232 10.5892L18.2144 11.298V14.7616C18.2144 16.2744 16.9882 17.4998 15.4767 17.5C15.0165 17.5 14.6434 17.1269 14.6434 16.6667C14.6434 16.2064 15.0165 15.8333 15.4767 15.8333C16.0682 15.8331 16.5477 15.3534 16.5477 14.7616Z" fill="#A4A4A4"/>
</svg>
