<svg width="12" height="12" viewBox="0 0 12 12" fill="none" xmlns="http://www.w3.org/2000/svg">
<path d="M6 0C2.68629 0 0 2.68629 0 6C0 9.31371 2.68629 12 6 12C9.31371 12 12 9.31371 12 6C12 2.68629 9.31371 0 6 0Z" fill="#FF4433"/>
<path fill-rule="evenodd" clip-rule="evenodd" d="M6.65479 3.38135C6.65479 3.01986 6.36174 2.72681 6.00025 2.72681C5.63875 2.72681 5.3457 3.01986 5.3457 3.38135V5.99953C5.3457 6.36103 5.63875 6.65408 6.00025 6.65408C6.36174 6.65408 6.65479 6.36103 6.65479 5.99953V3.38135ZM6.00025 7.96317C5.63875 7.96317 5.3457 8.25622 5.3457 8.61772C5.3457 8.97921 5.63875 9.27226 6.00025 9.27226H6.00679C6.36829 9.27226 6.66134 8.97921 6.66134 8.61772C6.66134 8.25622 6.36829 7.96317 6.00679 7.96317H6.00025Z" fill="white"/>
</svg>
