<svg width="17" height="14" viewBox="0 0 19 17" fill="none" xmlns="http://www.w3.org/2000/svg">
  <path d="M0.94713 0.244078C1.27257 -0.0813593 1.80089 -0.0813593 2.12633 0.244078L5.15937 3.27712C5.20528 3.31372 5.24724 3.35617 5.28551 3.40326L13.9533 12.0711C14.0057 12.1116 14.0531 12.1596 14.0957 12.2135L17.1263 15.2441C17.4515 15.5695 17.4515 16.0971 17.1263 16.4225C16.8009 16.7479 16.2726 16.7479 15.9471 16.4225L13.3177 13.7931C12.1138 14.4974 10.6791 14.9999 9.03632 14.9999C6.65184 14.9998 4.70769 13.9462 3.26728 12.7441C1.82874 11.5435 0.842127 10.1546 0.348172 9.3725C0.248157 9.21414 0.10772 9.00536 0.0389272 8.70518C-0.0129374 8.47858 -0.013014 8.18708 0.0389272 7.96055C0.107832 7.66024 0.248725 7.45113 0.348986 7.29242C0.850963 6.49779 1.872 5.06413 3.36738 3.84271L0.94713 1.42246C0.621924 1.09707 0.621924 0.569471 0.94713 0.244078ZM4.55146 5.02679C3.18557 6.10518 2.23141 7.43409 1.75849 8.18272C1.72893 8.22951 1.70827 8.26244 1.69095 8.29095C1.67933 8.31008 1.67161 8.3233 1.66653 8.33246V8.33327C1.67152 8.34228 1.67853 8.35567 1.69013 8.37477C1.70735 8.40313 1.72822 8.43637 1.75768 8.48301C2.20159 9.18586 3.08005 10.4165 4.33499 11.464C5.58819 12.5099 7.16703 13.3332 9.03632 13.3333C10.1637 13.3333 11.1842 13.0342 12.0922 12.5675L10.729 11.2044C10.2329 11.4973 9.654 11.6666 9.03632 11.6666C7.19553 11.6664 5.70299 10.1741 5.70299 8.33327C5.70299 7.71555 5.87226 7.13671 6.16523 6.64056L4.55146 5.02679ZM9.03632 1.6666C11.421 1.6666 13.3657 2.72024 14.8062 3.92246C16.2447 5.12303 17.2305 6.51189 17.7245 7.29405C17.812 7.43256 17.9308 7.60928 18.0052 7.85231L18.0345 7.96136L18.0638 8.14121C18.0833 8.32944 18.0735 8.53603 18.0345 8.70599C17.9656 9.00648 17.8241 9.21598 17.7237 9.37494C17.4584 9.79481 17.0558 10.3819 16.5225 11.0188C16.227 11.3716 15.701 11.4184 15.3482 11.123C14.9953 10.8275 14.9494 10.3015 15.2448 9.94867C15.7208 9.38024 16.0797 8.85567 16.3142 8.48464C16.3438 8.43771 16.3651 8.40422 16.3825 8.37559C16.3944 8.35599 16.4018 8.34247 16.4069 8.33327V8.33246C16.4019 8.32347 16.3947 8.31044 16.3833 8.29177C16.3661 8.26341 16.3452 8.23017 16.3158 8.18353C15.8719 7.4807 14.9934 6.25004 13.7385 5.20257C12.4852 4.15657 10.9058 3.33327 9.03632 3.33327C8.71834 3.33329 8.40998 3.35745 8.11103 3.40163C7.65574 3.46894 7.23189 3.15379 7.16458 2.6985C7.0974 2.24332 7.41171 1.8202 7.86689 1.75287C8.24498 1.69697 8.63498 1.66662 9.03632 1.6666ZM1.66735 8.35362V8.35199L1.66653 8.35036C1.66662 8.35175 1.66727 8.35281 1.66735 8.35362ZM7.36966 8.33327C7.36966 9.25363 8.11601 9.99975 9.03632 9.99994C9.18514 9.99994 9.32888 9.9778 9.46601 9.94134L7.42744 7.90277C7.39084 8.04014 7.36966 8.18417 7.36966 8.33327Z" fill="#FFFFFF"/>
</svg>



