<svg width="12" height="12" viewBox="0 0 12 12" fill="none" xmlns="http://www.w3.org/2000/svg">
<path d="M9.20139 0.466447C9.19607 0.472778 9.18993 0.479718 9.18334 0.487157C9.14139 0.534533 9.08153 0.602129 9.10299 0.661441C9.11868 0.704489 9.1854 0.714012 9.24859 0.723031C9.28533 0.728275 9.32088 0.733349 9.3445 0.744746C9.45437 0.798036 9.49863 0.904944 9.49526 1.01848C9.49249 1.10876 9.49094 1.72892 9.48858 2.66968L9.48858 2.67029L9.48857 2.67315V2.67327L9.48856 2.67648C9.48747 3.11119 9.48621 3.61402 9.48459 4.16442C7.90369 4.15554 6.32301 4.14645 4.74223 4.13735L4.72172 4.13723C4.69083 3.7554 4.68049 3.32723 4.70869 2.86133C4.73464 2.43186 4.79137 2.00423 4.87809 1.58238C4.91606 1.39771 4.95976 1.21414 5.00907 1.03197C5.02737 0.964283 5.0565 0.891403 5.08645 0.816488C5.14513 0.669694 5.20693 0.515082 5.19645 0.376398C5.19442 0.348339 5.18757 0.319516 5.16926 0.297548C5.12657 0.246433 5.0448 0.25481 4.97897 0.271123C4.57468 0.371612 4.18162 0.580418 3.87191 0.850672C3.77677 0.933761 3.52188 1.16802 3.29092 1.56846C2.67971 2.62816 2.63186 4.12886 2.63186 4.12886C2.60096 5.09927 2.56142 7.06556 3.62916 9.10709C3.62916 9.10709 4.37753 10.5382 5.44763 10.8908C5.65904 10.9606 5.71644 10.9144 5.73464 10.8916C5.80217 10.808 5.69792 10.6754 5.62762 10.586C5.61105 10.5649 5.59634 10.5462 5.58625 10.5311C5.48874 10.3851 5.40539 10.2304 5.33361 10.0712C5.1851 9.74178 5.08681 9.39301 5.01345 9.04141C4.78991 7.97115 4.64533 6.88818 4.67623 5.7953L9.48459 5.7953V9.90307C9.48459 10.1754 9.59928 10.4369 9.85877 10.5648C10.015 10.6419 10.1918 10.6692 10.366 10.69C10.6707 10.7267 10.9817 10.7471 11.2831 10.691C11.4595 10.6583 11.6356 10.5965 11.7672 10.4783C11.9792 10.2875 11.9825 10.0295 11.9825 9.76973C11.9825 8.8033 11.9868 7.83684 11.9912 6.87038C11.9962 5.7736 12.0012 4.67683 11.9998 3.58009C11.9991 3.06829 11.9955 2.5566 11.9891 2.04491C11.9804 1.35018 11.7574 0.650351 11.1237 0.260575C10.8499 0.0922229 10.5363 0 10.2296 0C9.84495 0 9.47144 0.144969 9.20139 0.466447Z" fill="url(#paint0_linear_531_16157)"/>
<path d="M0.986619 5.39955C1.01729 4.55094 1.06716 3.69743 1.69904 2.96628C1.73332 2.92658 1.76608 2.88507 1.79886 2.84352C1.93162 2.67526 2.06492 2.50633 2.30239 2.4547C1.9136 3.57411 1.90709 4.85023 2.062 6.01053C2.11333 6.39498 2.19938 6.76551 2.2897 7.14158C2.7041 8.86762 3.46101 10.8573 5.40158 11.4069C5.685 11.4872 5.57941 11.6567 5.41978 11.7672C5.09536 11.9921 4.6577 12.0021 4.58401 11.9997C2.77768 11.9418 1.72151 11.189 1.72151 11.189C0.51313 10.3279 0.00829925 9.05827 9.88491e-05 8.40617C-0.00192317 8.23826 0.0264966 7.92222 0.138943 7.57932C0.173655 7.47328 0.334631 6.98171 0.477071 6.99574C0.561518 7.00412 0.600846 7.18627 0.645027 7.3909C0.652444 7.42525 0.659998 7.46023 0.667925 7.49514C0.863837 8.35984 1.24824 9.00498 1.55671 9.52265C1.67231 9.71667 1.84834 9.98931 2.09862 10.2992C2.27195 10.4876 2.53559 10.7337 2.90506 10.9541C3.30419 11.192 3.6777 11.3111 3.94135 11.3738C3.60884 11.161 3.17534 10.8398 2.74353 10.3776C2.62232 10.2478 2.21207 9.79736 1.83418 9.1133C1.6659 8.80857 0.914837 7.39139 0.986619 5.39955Z" fill="url(#paint1_linear_531_16157)"/>
<defs>
<linearGradient id="paint0_linear_531_16157" x1="0.349342" y1="5.99842" x2="11.9941" y2="5.99842" gradientUnits="userSpaceOnUse">
<stop offset="0.33" stop-color="#9C8937"/>
<stop offset="0.56" stop-color="#F7E69E"/>
<stop offset="0.8" stop-color="#B39F4D"/>
</linearGradient>
<linearGradient id="paint1_linear_531_16157" x1="0.349342" y1="5.99842" x2="11.9941" y2="5.99842" gradientUnits="userSpaceOnUse">
<stop offset="0.33" stop-color="#9C8937"/>
<stop offset="0.56" stop-color="#F7E69E"/>
<stop offset="0.8" stop-color="#B39F4D"/>
</linearGradient>
</defs>
</svg>
