<svg width="36" height="36" viewBox="0 0 36 36" fill="none" xmlns="http://www.w3.org/2000/svg">
<path d="M27.3374 1.86047C27.3219 1.87894 27.3039 1.89918 27.2847 1.92087C27.1624 2.05906 26.9878 2.25621 27.0504 2.4292C27.0962 2.55476 27.2908 2.58253 27.475 2.60884C27.5822 2.62414 27.6859 2.63894 27.7548 2.67218C28.0752 2.8276 28.2043 3.13942 28.1945 3.47058C28.1864 3.73388 28.1819 5.54268 28.175 8.28657L28.175 8.28835L28.175 8.29668V8.29704L28.175 8.3064C28.1718 9.5743 28.1681 11.0409 28.1634 12.6462C23.5524 12.6203 18.9421 12.5938 14.3315 12.5673L14.2717 12.5669C14.1816 11.4532 14.1514 10.2044 14.2337 8.84554C14.3094 7.59292 14.4748 6.34568 14.7278 5.11526C14.8385 4.57665 14.966 4.04123 15.1098 3.50992C15.1632 3.31249 15.2481 3.09992 15.3355 2.88142C15.5066 2.45327 15.6869 2.00232 15.6563 1.59783C15.6504 1.51599 15.6304 1.43192 15.577 1.36785C15.4525 1.21876 15.214 1.24319 15.022 1.29077C13.8428 1.58387 12.6964 2.19288 11.7931 2.98113C11.5156 3.22347 10.7721 3.90673 10.0985 5.07466C8.31581 8.16546 8.17625 12.5425 8.17625 12.5425C8.08614 15.3729 7.97081 21.1079 11.085 27.0624C11.085 27.0624 13.2678 31.2364 16.3889 32.2648C17.0055 32.4684 17.173 32.3336 17.226 32.2673C17.423 32.0232 17.1189 31.6365 16.9139 31.3758C16.8656 31.3143 16.8227 31.2597 16.7932 31.2158C16.5088 30.7898 16.2657 30.3387 16.0564 29.8743C15.6232 28.9135 15.3365 27.8963 15.1226 26.8708C14.4706 23.7492 14.0489 20.5905 14.139 17.403H28.1634V29.3839C28.1634 30.1782 28.4979 30.9411 29.2547 31.3141C29.7105 31.539 30.2262 31.6186 30.7341 31.6792C31.6229 31.7861 32.5299 31.8457 33.4089 31.6821C33.9236 31.5866 34.4371 31.4064 34.8211 31.0616C35.4393 30.5053 35.4488 29.7528 35.4488 28.9951C35.4488 26.1763 35.4616 23.3574 35.4744 20.5386C35.4889 17.3397 35.5035 14.1408 35.4993 10.9419C35.4973 9.44918 35.4868 7.95674 35.4681 6.46431C35.4429 4.43804 34.7926 2.39686 32.944 1.26001C32.1455 0.768983 31.2308 0.5 30.3363 0.5C29.2144 0.5 28.125 0.922826 27.3374 1.86047Z" fill="white"/>
<path d="M3.37764 16.2487C3.46708 13.7736 3.61256 11.2842 5.45554 9.15164C5.55552 9.03587 5.65105 8.9148 5.74667 8.79361C6.1339 8.30284 6.52267 7.81013 7.2153 7.65953C6.08134 10.9245 6.06234 14.6465 6.51416 18.0307C6.66389 19.152 6.91485 20.2327 7.17828 21.3296C8.38695 26.3639 10.5946 32.1671 16.2546 33.7702C17.0812 34.0043 16.7733 34.4988 16.3077 34.8211C15.3615 35.4771 14.085 35.5062 13.87 35.4993C8.60156 35.3302 5.52107 33.1345 5.52107 33.1345C1.99663 30.6229 0.524206 26.9199 0.500288 25.018C0.494391 24.5282 0.577282 23.6065 0.905251 22.6063C1.00649 22.2971 1.47601 20.8633 1.89146 20.9042C2.13776 20.9287 2.25247 21.4599 2.38133 22.0568C2.40296 22.157 2.42499 22.259 2.44812 22.3608C3.01952 24.8829 4.14071 26.7645 5.04042 28.2744C5.37756 28.8403 5.89098 29.6355 6.62096 30.5392C7.12651 31.0889 7.89548 31.8067 8.9731 32.4494C10.1372 33.1434 11.2266 33.4908 11.9956 33.6735C11.0258 33.053 9.76141 32.116 8.50195 30.7679C8.14843 30.3895 6.95188 29.0756 5.84969 27.0804C5.35889 26.1917 3.16827 22.0582 3.37764 16.2487Z" fill="white"/>
</svg>
