<svg width="17" height="17" viewBox="0 0 17 17" fill="none" xmlns="http://www.w3.org/2000/svg">
<path d="M12.4167 7.41667V4.91667C12.4167 2.61548 10.5512 0.75 8.25 0.75C5.94881 0.75 4.08333 2.61548 4.08333 4.91667V7.41667M4.75 15.75H11.75C13.1501 15.75 13.8502 15.75 14.385 15.4775C14.8554 15.2378 15.2378 14.8554 15.4775 14.385C15.75 13.8502 15.75 13.1501 15.75 11.75V11.4167C15.75 10.0165 15.75 9.31647 15.4775 8.78169C15.2378 8.31128 14.8554 7.92883 14.385 7.68915C13.8502 7.41667 13.1501 7.41667 11.75 7.41667H4.75C3.34987 7.41667 2.6498 7.41667 2.11502 7.68915C1.64462 7.92883 1.26217 8.31128 1.02248 8.78169C0.75 9.31647 0.75 10.0165 0.75 11.4167V11.75C0.75 13.1501 0.75 13.8502 1.02248 14.385C1.26217 14.8554 1.64462 15.2378 2.11502 15.4775C2.6498 15.75 3.34987 15.75 4.75 15.75Z" stroke="#A4A4A4" stroke-width="1.5" stroke-linecap="round" stroke-linejoin="round"/>
</svg>
