<svg width="22" height="22" viewBox="0 0 22 22" fill="none" xmlns="http://www.w3.org/2000/svg">
                  <path
                    d="M6.60071 0.913529C7.10688 0.692716 7.69624 0.923979 7.91712 1.43013C8.13795 1.93629 7.90666 2.52565 7.40052 2.74654C6.05318 3.33449 4.87008 4.24334 3.9552 5.394C3.04031 6.54474 2.4216 7.90283 2.15247 9.3481C1.88342 10.7932 1.97197 12.2822 2.41126 13.685C2.85062 15.0879 3.62753 16.3624 4.67298 17.396C5.71826 18.4292 7.00081 19.1904 8.40833 19.6137C9.81618 20.037 11.3071 20.1093 12.7492 19.8237C14.1909 19.5381 15.5408 18.9037 16.6808 17.976C17.821 17.0481 18.7166 15.8545 19.2892 14.5004C19.5043 13.9918 20.0911 13.7542 20.5997 13.9692C21.1084 14.1843 21.3471 14.7711 21.132 15.2797C20.4322 16.9346 19.3371 18.3926 17.9435 19.5268C16.5499 20.661 14.8994 21.4365 13.1368 21.7856C11.3745 22.1346 9.55359 22.047 7.83313 21.5297C6.11249 21.0124 4.54447 20.081 3.26673 18.8178C1.98896 17.5546 1.04005 15.9974 0.503056 14.2827C-0.0338784 12.5681 -0.14318 10.7482 0.185673 8.98189C0.514605 7.21549 1.27162 5.55629 2.38978 4.14986C3.50798 2.7434 4.95388 1.63218 6.60071 0.913529ZM11.046 0.0814979C11.3992 -0.0248661 11.7469 0.0249282 11.88 0.0355995C13.0233 0.127304 14.1471 0.397058 15.2101 0.837357C16.5447 1.39016 17.757 2.20069 18.7784 3.22212C19.7999 4.24356 20.6104 5.45591 21.1632 6.79048C21.6035 7.85346 21.8733 8.97728 21.965 10.1206C21.9772 10.2726 22.04 10.7043 21.8634 11.1049C21.7313 11.4047 21.4924 11.664 21.2042 11.8198C20.9842 11.9386 20.7721 11.9747 20.6163 11.9887C20.4779 12.0012 20.3212 12.0004 20.2003 12.0004H11.8009C11.6774 12.0004 11.5243 12.0006 11.3908 11.9897C11.2455 11.9778 11.0374 11.9474 10.8195 11.8364C10.5373 11.6926 10.308 11.4632 10.1642 11.1811C10.0531 10.9632 10.0227 10.755 10.0109 10.6098C9.99996 10.4763 10.0001 10.3232 10.0001 10.1997V1.80025C10.0001 1.67938 9.99941 1.52268 10.0118 1.38423C10.0259 1.2285 10.0619 1.01638 10.1808 0.796342L10.2443 0.690873C10.4023 0.450267 10.6334 0.25279 10.8956 0.137162L11.046 0.0814979ZM12.0001 10.0004H19.9435C19.8498 9.16185 19.6397 8.33876 19.3156 7.55611C18.8633 6.46418 18.2001 5.47191 17.3644 4.63619C16.5287 3.80046 15.5364 3.13731 14.4445 2.68501C13.6618 2.36084 12.8388 2.14984 12.0001 2.05611V10.0004Z"
                    fill="#00A38D" />
                </svg>