 <svg width="22" height="18" viewBox="0 0 22 18" fill="none" xmlns="http://www.w3.org/2000/svg">
                  <path
                    d="M17 17V13.4141L15.707 14.707C15.3165 15.0976 14.6835 15.0976 14.293 14.707C13.9024 14.3165 13.9024 13.6835 14.293 13.293L17.293 10.293L17.3691 10.2246C17.7619 9.90426 18.3409 9.92686 18.707 10.293L21.707 13.293C22.0976 13.6835 22.0976 14.3165 21.707 14.707C21.3165 15.0976 20.6835 15.0976 20.293 14.707L19 13.4141V17C19 17.5523 18.5523 18 18 18C17.4477 18 17 17.5523 17 17ZM20 4.2002C20 3.62365 19.9987 3.25112 19.9756 2.96778C19.9534 2.69619 19.9158 2.59534 19.8906 2.5459C19.7948 2.35793 19.6421 2.20522 19.4541 2.10938C19.4047 2.08419 19.3038 2.04662 19.0322 2.02442C18.7489 2.00127 18.3764 2 17.7998 2H4.2002C3.62365 2 3.25112 2.00127 2.96778 2.02442C2.69619 2.04662 2.59534 2.08419 2.5459 2.10938C2.35793 2.20522 2.20522 2.35793 2.10938 2.5459C2.08419 2.59534 2.04662 2.69619 2.02442 2.96778C2.00127 3.25112 2 3.62365 2 4.2002V5H20V4.2002ZM22 8C22 8.55229 21.5523 9 21 9C20.4477 9 20 8.55229 20 8V7H2V11.7998L2.00293 12.5264C2.00602 12.7268 2.01285 12.8906 2.02442 13.0322C2.04662 13.3038 2.08419 13.4047 2.10938 13.4541C2.20522 13.6421 2.35793 13.7948 2.5459 13.8906C2.59534 13.9158 2.69619 13.9534 2.96778 13.9756C3.25112 13.9987 3.62365 14 4.2002 14H11C11.5523 14 12 14.4477 12 15C12 15.5523 11.5523 16 11 16H4.2002C3.65665 16 3.18836 16.0011 2.80469 15.9697C2.40943 15.9374 2.016 15.8656 1.6377 15.6729C1.07348 15.3853 0.614728 14.9265 0.327153 14.3623C0.134401 13.984 0.0625889 13.5906 0.0302779 13.1953C0.0146078 13.0035 0.00763555 12.7904 0.00391066 12.5576L4.41417e-06 11.7998V4.2002C4.41417e-06 3.65665 -0.00106936 3.18836 0.0302779 2.80469C0.0625889 2.40943 0.134401 2.016 0.327153 1.6377C0.614727 1.07348 1.07348 0.614727 1.6377 0.327153C2.016 0.134401 2.40943 0.0625888 2.80469 0.0302779C3.18836 -0.00106933 3.65665 4.41684e-06 4.2002 4.41684e-06H17.7998C18.3434 4.41684e-06 18.8116 -0.00106959 19.1953 0.0302779C19.5906 0.0625891 19.984 0.134399 20.3623 0.327153C20.9265 0.614726 21.3853 1.07348 21.6729 1.6377C21.8656 2.016 21.9374 2.40943 21.9697 2.80469C22.0011 3.18836 22 3.65665 22 4.2002V8Z"
                    fill="#00A38D" />
                </svg>