<svg width="20" height="20" viewBox="0 0 20 20"
              fill="none" xmlns="http://www.w3.org/2000/svg">
              <path fill-rule="evenodd" clip-rule="evenodd"
                d="M10 0C4.47715 0 0 4.47715 0 10C0 15.5228 4.47715 20 10 20C15.5228 20 20 15.5228 20 10C20 4.47715 15.5228 0 10 0ZM14.7337 7.91555C15.0888 7.56053 15.0888 6.98493 14.7337 6.6299C14.3787 6.27488 13.8031 6.27488 13.4481 6.6299L8.63636 11.4416L6.55192 9.35718C6.19689 9.00215 5.62129 9.00215 5.26627 9.35718C4.91124 9.7122 4.91124 10.2878 5.26627 10.6428L7.99354 13.3701C8.34856 13.7251 8.92417 13.7251 9.27919 13.3701L14.7337 7.91555Z"
                fill="#1FC16B" />
            </svg>