<svg width="25" height="25" viewBox="0 0 25 25" fill="none" xmlns="http://www.w3.org/2000/svg">
<path d="M16.25 1.25L8.75 1.25M23.75 5L1.25 5M3.75 5L4.62661 18.1491C4.75813 20.1219 4.82389 21.1083 5.24998 21.8563C5.62511 22.5147 6.19094 23.0441 6.87292 23.3746C7.64754 23.75 8.63613 23.75 10.6133 23.75L14.3867 23.75C16.3639 23.75 17.3525 23.75 18.1271 23.3746C18.8091 23.0441 19.3749 22.5147 19.75 21.8563C20.1761 21.1083 20.2419 20.1219 20.3734 18.1491L21.25 5M15 10.625L15 16.875M10 10.625L10 16.875" stroke="#171717" stroke-width="2.5" stroke-linecap="round" stroke-linejoin="round"/>
</svg>
