<svg width="10" height="10" viewBox="0 0 10 10" fill="none" xmlns="http://www.w3.org/2000/svg">
<path fill-rule="evenodd" clip-rule="evenodd" d="M9.39948 5.29858C9.39948 6.68468 9.03459 7.71763 8.30544 8.39067C7.57626 9.06373 6.44959 9.4001 4.93068 9.4001C3.51155 9.4001 2.43491 9.06362 1.70073 8.39067C0.966549 7.71772 0.599523 6.70281 0.599609 5.34593V0.79351C0.599955 0.686868 0.699441 0.600472 0.822294 0.600098H3.39549C3.51839 0.600416 3.61794 0.686831 3.6183 0.79351V5.44543C3.6183 5.99949 3.73637 6.42587 3.97666 6.72669C4.40925 7.22452 5.22486 7.32365 5.79837 6.94816C5.88441 6.8918 5.96206 6.8264 6.02951 6.75343C6.26438 6.47119 6.38143 6.05522 6.38068 5.50559V4.63444H9.39948V5.29858Z" fill="#203E7A"/>
<path fill-rule="evenodd" clip-rule="evenodd" d="M9.39961 4.12561H6.38094V0.802669C6.38128 0.690933 6.48556 0.600416 6.61428 0.600117H7.03117C7.03207 1.73471 8.09192 2.65405 9.39898 2.65405H9.39961V4.12561Z" fill="#203E7A"/>
<path fill-rule="evenodd" clip-rule="evenodd" d="M7.62439 0.600098H9.16629C9.29501 0.600416 9.39929 0.690914 9.39961 0.80265V2.14275C8.4192 2.14275 7.62439 1.45284 7.62439 0.601765V0.600098Z" fill="#F4821F"/>
</svg>
