<svg width="18" height="6" viewBox="0 0 18 6" fill="none" xmlns="http://www.w3.org/2000/svg">
<path fill-rule="evenodd" clip-rule="evenodd" d="M1.65559 1.21675C1.2151 0.991714 0.712463 0.810817 0.150391 0.685462L0.168615 0.584692H2.47946C2.79068 0.595359 3.04226 0.686954 3.12896 0.993629L3.6314 3.21966L3.78097 3.89091L5.184 0.587676H6.70194L4.44577 5.4223L2.92967 5.4239L1.65559 1.21675ZM6.3859 5.42807L7.28185 0.584157H8.71487L7.81832 5.42807H6.3859ZM13.0158 0.703388L12.8215 1.75329L12.6931 1.69735C12.4286 1.59927 12.0891 1.50507 11.6205 1.51175C11.0596 1.51175 10.7999 1.72712 10.7999 1.92849C10.7967 2.15535 11.1034 2.30484 11.6043 2.52894C12.4311 2.87466 12.8129 3.29399 12.8074 3.84505C12.7964 4.85055 11.8184 5.5 10.3121 5.5C9.66943 5.49385 9.05056 5.37676 8.71577 5.24156L8.91692 4.15712L9.10151 4.23415C9.57214 4.41498 9.87689 4.48838 10.4504 4.48838C10.8624 4.48838 11.3043 4.34011 11.3078 4.01544C11.3104 3.80341 11.1229 3.65198 10.5652 3.41452C10.0215 3.18282 9.30153 2.7946 9.30948 2.09856C9.31794 1.15693 10.3154 0.5 11.7314 0.5C12.287 0.5 12.7318 0.605313 13.0158 0.703388ZM16.6905 0.588766L17.8504 5.42965H16.5206C16.5206 5.42965 16.3892 4.87335 16.3463 4.70384C16.1373 4.70384 14.6754 4.70172 14.511 4.70172C14.4554 4.83271 14.2093 5.42965 14.2093 5.42965H12.7045L14.8328 0.990467C14.9834 0.675084 15.2401 0.588766 15.5832 0.588766H16.6905ZM14.9234 3.7109H16.113C16.0556 3.46843 15.7813 2.31217 15.7813 2.31217L15.6844 1.89452C15.612 2.0764 15.4859 2.36971 15.4943 2.35691C15.4943 2.35691 15.0419 3.43189 14.9234 3.7109Z" fill="#0077FF"/>
</svg>
