<svg width="40" height="12" viewBox="0 0 40 12" fill="none" xmlns="http://www.w3.org/2000/svg">
<path fill-rule="evenodd" clip-rule="evenodd" d="M3.40158 1.7202C2.40612 1.18011 1.27022 0.745961 0 0.445108L0.0411861 0.20326H5.26343C5.96676 0.228861 6.53529 0.44869 6.73122 1.18471L7.86669 6.52718L8.2047 8.13818L11.3754 0.210421H14.8058L9.70707 11.8135L6.28085 11.8174L3.40158 1.7202ZM14.0915 11.8274L16.1163 0.201976H19.3548L17.3287 11.8274H14.0915ZM29.0744 0.488132L28.6353 3.0079L28.3452 2.87364C27.7475 2.63826 26.9802 2.41218 25.9212 2.42821C24.6535 2.42821 24.0668 2.9451 24.0668 3.42836C24.0595 3.97283 24.7525 4.33162 25.8846 4.86946C27.7529 5.69917 28.6158 6.70558 28.6035 8.02813C28.5785 10.4413 26.3684 12 22.9643 12C21.512 11.9852 20.1134 11.7042 19.3568 11.3797L19.8114 8.77709L20.2285 8.96196C21.2921 9.39595 21.9808 9.57211 23.277 9.57211C24.2079 9.57211 25.2065 9.21626 25.2145 8.43705C25.2205 7.92818 24.7966 7.56474 23.5362 6.99484C22.3077 6.43877 20.6805 5.50703 20.6985 3.83654C20.7176 1.57664 22.9718 0 26.1718 0C27.4273 0 28.4326 0.252751 29.0744 0.488132ZM37.3788 0.213039L40 11.8312H36.9948C36.9948 11.8312 36.6978 10.4961 36.6008 10.0892C36.1285 10.0892 32.825 10.0841 32.4533 10.0841C32.3277 10.3985 31.7714 11.8312 31.7714 11.8312H28.3709L33.1805 1.17712C33.521 0.420201 34.1011 0.213039 34.8764 0.213039H37.3788ZM33.3853 7.70617H36.0737C35.944 7.12423 35.324 4.34921 35.324 4.34921L35.1051 3.34686C34.9414 3.78336 34.6564 4.48731 34.6756 4.45658C34.6756 4.45658 33.6532 7.03653 33.3853 7.70617Z" fill="white"/>
</svg>

