<svg width="24" height="28" viewBox="0 0 24 28" fill="none" xmlns="http://www.w3.org/2000/svg">
<path fill-rule="evenodd" clip-rule="evenodd" d="M23.9996 14.9497C23.9996 19.36 23.0045 22.6467 21.0159 24.7882C19.0272 26.9297 15.9545 28 11.812 28C7.94165 28 5.00537 26.9294 3.00306 24.7882C1.00075 22.647 -0.000235331 19.4177 4.14997e-08 15.1004V0.615403C0.000941532 0.276088 0.272268 0.00119183 0.607321 0H7.62513C7.9603 0.00101306 8.2318 0.275969 8.2328 0.615403V15.417C8.2328 17.1799 8.55479 18.5365 9.21013 19.4937C10.3899 21.0777 12.6143 21.3931 14.1784 20.1984C14.4131 20.0191 14.6249 19.811 14.8088 19.5788C15.4494 18.6808 15.7686 17.3572 15.7666 15.6084V12.8365H23.9996V14.9497Z" fill="white"/>
<path fill-rule="evenodd" clip-rule="evenodd" d="M24 11.2175H15.7673V0.644544C15.7682 0.28902 16.0526 0.00101348 16.4036 6.00136e-05H17.5406C17.5431 3.61013 20.4336 6.5353 23.9983 6.5353H24V11.2175Z" fill="white"/>
<path fill-rule="evenodd" clip-rule="evenodd" d="M19.1585 9.09297e-07H23.3637C23.7147 0.00101397 23.9991 0.288961 24 0.644485V4.90845C21.3262 4.90845 19.1585 2.71327 19.1585 0.00530439V9.09297e-07Z" fill="white"/>
</svg>
