     <svg width="20" height="20" viewBox="0 0 20 20" fill="none" xmlns="http://www.w3.org/2000/svg">
        <path d="M9.16663 17.4993V7.8444L5.58915 11.4219C5.26371 11.7473 4.7362 11.7473 4.41077 11.4219C4.08533 11.0964 4.08533 10.5689 4.41077 10.2435L9.41077 5.24349L9.4718 5.18815C9.6201 5.06662 9.80655 4.99935 9.99996 4.99935C10.221 4.99935 10.4329 5.08721 10.5892 5.24349L15.5892 10.2435C15.9146 10.5689 15.9146 11.0964 15.5892 11.4219C15.2637 11.7473 14.7362 11.7473 14.4108 11.4219L10.8333 7.8444V17.4993C10.8333 17.9596 10.4602 18.3327 9.99996 18.3327C9.53972 18.3327 9.16663 17.9596 9.16663 17.4993ZM17.5 1.66602C17.9602 1.66602 18.3333 2.03911 18.3333 2.49935C18.3333 2.95959 17.9602 3.33268 17.5 3.33268H2.49996C2.03972 3.33268 1.66663 2.95959 1.66663 2.49935C1.66663 2.03911 2.03972 1.66602 2.49996 1.66602H17.5Z" fill="currentColor"/>
        </svg>