<svg width="12" height="12" viewBox="0 0 12 12" fill="none" xmlns="http://www.w3.org/2000/svg">
<rect width="12" height="12" rx="6" transform="matrix(1 0 0 -1 0 12)" fill="currentColor"/>
<path d="M5.30767 8.40404C5.36862 8.35963 5.42122 8.30697 5.48082 8.2473L8.10586 5.62225L6.37726 3.89365L3.75222 6.51869C3.69254 6.57829 3.63988 6.63089 3.59547 6.69184C3.5564 6.74548 3.523 6.80302 3.49582 6.86356C3.46493 6.93235 3.44539 7.00418 3.42325 7.08556L3.01126 8.59623C2.98111 8.70676 3.0125 8.82498 3.09352 8.90599C3.17453 8.98701 3.29275 9.0184 3.40328 8.98825L4.91395 8.57626C4.99533 8.55412 5.06716 8.53458 5.13595 8.50369C5.19649 8.47651 5.25404 8.44311 5.30767 8.40404Z" fill="white"/>
<path fill-rule="evenodd" clip-rule="evenodd" d="M7.32179 3.02295C7.41797 2.9917 7.52158 2.9917 7.61777 3.02295C7.69204 3.04708 7.74587 3.08717 7.78133 3.11727C7.81193 3.14325 7.84403 3.17538 7.87091 3.20228L8.79723 4.12859C8.82413 4.15548 8.85626 4.18758 8.88224 4.21818C8.91234 4.25364 8.95243 4.30747 8.97656 4.38175C9.00781 4.47793 9.00781 4.58154 8.97656 4.67772C8.95243 4.752 8.91234 4.80583 8.88224 4.84129C8.85626 4.8719 8.82412 4.904 8.79722 4.93089L8.44918 5.27893L6.72058 3.55034L7.06863 3.20229C7.09551 3.17538 7.12762 3.14325 7.15822 3.11727C7.19369 3.08717 7.24751 3.04708 7.32179 3.02295Z" fill="white"/>
</svg>
