<svg width="24" height="24" viewBox="0 0 24 24" fill="none" xmlns="http://www.w3.org/2000/svg">
<path d="M3 17.2002V6.79981C3 5.97632 2.99898 5.29843 3.04395 4.74805C3.08988 4.18599 3.18827 3.6689 3.43555 3.1836C3.81902 2.43109 4.43109 1.81902 5.1836 1.43555C5.6689 1.18827 6.18599 1.08988 6.74805 1.04395C7.29843 0.998979 7.97632 1 8.79981 1H14C14.2652 1 14.5195 1.10543 14.707 1.29297L20.707 7.29297C20.8946 7.48051 21 7.73479 21 8V17.2002C21 18.0237 21.001 18.7016 20.9561 19.252C20.9101 19.814 20.8117 20.3311 20.5645 20.8164C20.181 21.5689 19.5689 22.181 18.8164 22.5645C18.3311 22.8117 17.814 22.9101 17.252 22.9561C16.7016 23.001 16.0237 23 15.2002 23H8.79981C7.97632 23 7.29843 23.001 6.74805 22.9561C6.18599 22.9101 5.6689 22.8117 5.1836 22.5645C4.43109 22.181 3.81902 21.5689 3.43555 20.8164C3.18827 20.3311 3.08988 19.814 3.04395 19.252C2.99898 18.7016 3 18.0237 3 17.2002ZM16 16C16.5523 16 17 16.4477 17 17C17 17.5523 16.5523 18 16 18H8C7.44772 18 7 17.5523 7 17C7 16.4477 7.44772 16 8 16H16ZM16 12C16.5523 12 17 12.4477 17 13C17 13.5523 16.5523 14 16 14H8C7.44772 14 7 13.5523 7 13C7 12.4477 7.44772 12 8 12H16ZM10 8C10.5523 8 11 8.44772 11 9C11 9.55229 10.5523 10 10 10H8C7.44772 10 7 9.55229 7 9C7 8.44772 7.44772 8 8 8H10ZM5 17.2002C5 18.0566 5.00035 18.6388 5.03711 19.0889C5.07293 19.5273 5.13809 19.7518 5.21778 19.9082C5.40951 20.2845 5.71555 20.5905 6.0918 20.7822C6.2482 20.8619 6.47272 20.9271 6.91113 20.9629C7.36117 20.9997 7.94342 21 8.79981 21H15.2002C16.0566 21 16.6388 20.9997 17.0889 20.9629C17.5273 20.9271 17.7518 20.8619 17.9082 20.7822C18.2845 20.5905 18.5905 20.2845 18.7822 19.9082C18.8619 19.7518 18.9271 19.5273 18.9629 19.0889C18.9997 18.6388 19 18.0566 19 17.2002V9H15.5996C15.3362 9 15.0781 9.00111 14.8613 8.9834C14.6328 8.9647 14.3631 8.92044 14.0918 8.78223C13.7155 8.59048 13.4095 8.28447 13.2178 7.90821C13.0795 7.63692 13.0353 7.36719 13.0166 7.13867C12.9989 6.92184 13 6.66381 13 6.40039V3H8.79981C7.94342 3 7.36117 3.00035 6.91113 3.03711C6.47272 3.07293 6.2482 3.13809 6.0918 3.21778C5.71555 3.40951 5.40951 3.71555 5.21778 4.0918C5.13809 4.2482 5.07293 4.47272 5.03711 4.91113C5.00035 5.36117 5 5.94342 5 6.79981V17.2002ZM15 6.40039C15 6.69672 15.0012 6.85904 15.0107 6.97559C15.0111 6.98005 15.0114 6.98428 15.0117 6.98828C15.0157 6.98865 15.0199 6.98987 15.0244 6.99024C15.141 6.99976 15.3033 7 15.5996 7H17.5859L15 4.41406V6.40039Z" fill="currentColor"/>
</svg>
