<svg width="19" height="19" viewBox="0 0 19 19" fill="none" xmlns="http://www.w3.org/2000/svg">
<path d="M16.6667 9.16667C16.6667 5.02453 13.3088 1.66667 9.16667 1.66667C5.02453 1.66667 1.66667 5.02453 1.66667 9.16667C1.66667 13.3088 5.02453 16.6667 9.16667 16.6667C13.3088 16.6667 16.6667 13.3088 16.6667 9.16667ZM8.33333 5.83333C8.33333 5.3731 8.70643 5 9.16667 5C9.6269 5 10 5.3731 10 5.83333V10.4883L11.9108 8.57747C12.2362 8.25204 12.7638 8.25204 13.0892 8.57747C13.4146 8.90291 13.4146 9.43042 13.0892 9.75586L9.75586 13.0892C9.43042 13.4146 8.90291 13.4146 8.57747 13.0892L5.24414 9.75586C4.9187 9.43042 4.9187 8.90291 5.24414 8.57747C5.56958 8.25204 6.09709 8.25204 6.42253 8.57747L8.33333 10.4883V5.83333ZM18.3333 9.16667C18.3333 14.2293 14.2293 18.3333 9.16667 18.3333C4.10406 18.3333 0 14.2293 0 9.16667C0 4.10406 4.10406 0 9.16667 0C14.2293 0 18.3333 4.10406 18.3333 9.16667Z" fill="currentColor"/>
</svg>
