<svg width="40" height="40" viewBox="0 0 40 40" fill="none" xmlns="http://www.w3.org/2000/svg">
  <path
    d="M10 0.75H20.5146C21.907 0.75 23.242 1.30354 24.2266 2.28809L33.7119 11.7734C34.6965 12.758 35.25 14.093 35.25 15.4854V34C35.25 36.8995 32.8995 39.25 30 39.25H10C7.10051 39.25 4.75 36.8995 4.75 34V6C4.75 3.10051 7.10051 0.75 10 0.75Z"
    fill="white" stroke="#D1D1D1" stroke-width="1.5"/>
  <path d="M23 1V9C23 11.2091 24.7909 13 27 13H35" stroke="#D1D1D1" stroke-width="1.5"/>
  <path
    d="M0 22C0 19.7909 1.79086 18 4 18H35C37.2091 18 39 19.7909 39 22V30C39 32.2091 37.2091 34 35 34H4C1.79086 34 0 32.2091 0 30V22Z"
    fill="#FA7319"/>
  <path
    d="M3.78906 30V22H5.23828V25.3867H8.94531V22H10.3984V30H8.94531V26.6016H5.23828V30H3.78906ZM11.843 23.2148V22H18.2259V23.2148H15.7532V30H14.3157V23.2148H11.843ZM19.6763 22H21.4498L23.8248 27.7969H23.9185L26.2935 22H28.067V30H26.6763V24.5039H26.6021L24.3912 29.9766H23.3521L21.1412 24.4922H21.067V30H19.6763V22ZM29.8651 30V22H31.3143V28.7852H34.8377V30H29.8651Z"
    fill="white"/>
</svg>
