<svg xmlns="http://www.w3.org/2000/svg" width="24" height="24" viewBox="0 0 24 24" fill="none">
  <path d="M16.2932 2.29274C17.7883 0.797838 20.2122 0.797856 21.7073 2.29274C23.2023 3.78779 23.2022 6.2117 21.7073 7.7068L8.50122 20.9138C8.23541 21.1796 8.00754 21.4139 7.73364 21.5945C7.50801 21.7433 7.26323 21.8609 7.0061 21.9441C6.69401 22.0451 6.3689 22.0764 5.99536 22.1179L2.6106 22.4939C2.30869 22.5274 2.008 22.4216 1.79321 22.2068C1.57851 21.992 1.47256 21.6913 1.5061 21.3894L1.88208 18.0056C1.9236 17.632 1.95484 17.3061 2.05591 16.9939C2.13916 16.7368 2.25772 16.492 2.40649 16.2664C2.5871 15.9926 2.82143 15.7645 3.08716 15.4988L16.2932 2.29274ZM4.50122 16.9138C4.17882 17.2362 4.11843 17.3027 4.07544 17.3679C4.02595 17.443 3.98694 17.5246 3.95923 17.6101C3.93518 17.6844 3.92073 17.773 3.87036 18.2263L3.63208 20.3679L5.77466 20.1306C6.22744 20.0803 6.31563 20.0648 6.38989 20.0408C6.47562 20.013 6.55784 19.9742 6.63306 19.9246C6.69815 19.8816 6.76518 19.8208 7.08716 19.4988L16.5862 9.99977L14.0002 7.41383L4.50122 16.9138ZM20.2932 3.7068C19.5792 2.99297 18.4213 2.99295 17.7073 3.7068L15.4143 5.99977L18.0002 8.58571L20.2932 6.29274C21.0071 5.57868 21.0072 4.4208 20.2932 3.7068Z" fill="currentColor"/>
</svg>