<svg width="16" height="16" viewBox="0 0 16 16" fill="none" xmlns="http://www.w3.org/2000/svg">
<path d="M10.943 6.00016L14.4716 2.47157C14.7319 2.21122 14.7319 1.78911 14.4716 1.52876C14.2112 1.26841 13.7891 1.26841 13.5288 1.52876L10.0002 5.05735V2.66683C10.0002 2.29864 9.70169 2.00016 9.3335 2.00016C8.96531 2.00016 8.66683 2.29864 8.66683 2.66683V6.66683C8.66683 7.03502 8.96531 7.3335 9.3335 7.3335H13.3335C13.7017 7.3335 14.0002 7.03502 14.0002 6.66683C14.0002 6.29864 13.7017 6.00016 13.3335 6.00016H10.943Z" fill="currentColor"/>
<path d="M6.00016 13.3335V10.943L2.47157 14.4716C2.21122 14.7319 1.78911 14.7319 1.52876 14.4716C1.26841 14.2112 1.26841 13.7891 1.52876 13.5288L5.05735 10.0002H2.66683C2.29864 10.0002 2.00016 9.70169 2.00016 9.3335C2.00016 8.96531 2.29864 8.66683 2.66683 8.66683H6.66683C7.03502 8.66683 7.3335 8.96531 7.3335 9.3335V13.3335C7.3335 13.7017 7.03502 14.0002 6.66683 14.0002C6.29864 14.0002 6.00016 13.7017 6.00016 13.3335Z" fill="currentColor"/>
</svg>
