<svg xmlns="http://www.w3.org/2000/svg" width="15" height="16" viewBox="0 0 15 16" fill="none">
  <path d="M5.76917 14.0114C5.92154 13.9004 6.05304 13.7687 6.20204 13.6195L12.7646 7.0569L8.44316 2.73541L1.88055 9.29801C1.73136 9.44702 1.59969 9.57852 1.48868 9.73089C1.39099 9.86497 1.3075 10.0088 1.23955 10.1602C1.16233 10.3322 1.11348 10.5117 1.05813 10.7152L0.0281431 14.4919C-0.0472216 14.7682 0.0312614 15.0637 0.233798 15.2663C0.436334 15.4688 0.731868 15.5473 1.0082 15.4719L4.78488 14.4419C4.98833 14.3866 5.16789 14.3377 5.33987 14.2605C5.49122 14.1926 5.63509 14.1091 5.76917 14.0114Z" fill="#FFFFFF"/>
  <path fill-rule="evenodd" clip-rule="evenodd" d="M10.8045 0.558659C11.0449 0.480528 11.304 0.480528 11.5444 0.558659C11.7301 0.618991 11.8647 0.719198 11.9533 0.794461C12.0298 0.859407 12.1101 0.939724 12.1773 1.00697L14.4931 3.32277C14.5603 3.38997 14.6406 3.47023 14.7056 3.54674C14.7809 3.63539 14.8811 3.76996 14.9414 3.95565C15.0195 4.19611 15.0195 4.45513 14.9414 4.69559C14.8811 4.88128 14.7809 5.01585 14.7056 5.1045C14.6406 5.18102 14.5603 5.26129 14.493 5.3285L13.6229 6.19861L9.30145 1.87712L10.1716 1.007C10.2388 0.939742 10.319 0.859416 10.3956 0.794461C10.4842 0.719198 10.6188 0.618991 10.8045 0.558659Z" fill="#FFFFFF"/>
</svg>
