<svg width="11" height="11" viewBox="0 0 11 11" fill="none" xmlns="http://www.w3.org/2000/svg">
<path d="M10.3574 0.475951C10.992 1.11055 10.992 2.13945 10.3574 2.77405C9.72278 3.40865 8.69389 3.40865 8.05928 2.77405C7.42468 2.13945 7.42468 1.11055 8.05928 0.475951C8.69389 -0.15865 9.72278 -0.15865 10.3574 0.475951Z" fill="currentColor"/>
<path fill-rule="evenodd" clip-rule="evenodd" d="M10.2917 4.76967C10.2917 4.54821 10.2917 4.43748 10.2557 4.37485C10.2196 4.31196 10.1829 4.28093 10.1149 4.25573C10.0472 4.23064 9.91778 4.25236 9.65889 4.29581C8.82448 4.43584 7.9371 4.18393 7.29325 3.54008C6.6494 2.89623 6.39749 2.00885 6.53752 1.17444C6.58097 0.915554 6.60269 0.786111 6.5776 0.7184C6.55241 0.650396 6.52137 0.613722 6.45848 0.577617C6.39585 0.541667 6.28512 0.541667 6.06366 0.541667H3.1193C2.68328 0.54166 2.32341 0.541655 2.03026 0.565605C1.72579 0.590482 1.44591 0.643871 1.18302 0.77782C0.775337 0.985545 0.443879 1.317 0.236153 1.72469C0.102204 1.98758 0.0488152 2.26746 0.0239391 2.57193C-1.16713e-05 2.86507 -6.29783e-06 3.22493 2.13791e-07 3.66095V7.71404C-6.29783e-06 8.15006 -1.16713e-05 8.50993 0.0239391 8.80307C0.0488152 9.10754 0.102204 9.38742 0.236153 9.65031C0.443879 10.058 0.775337 10.3895 1.18302 10.5972C1.44591 10.7311 1.72579 10.7845 2.03026 10.8094C2.32341 10.8333 2.68326 10.8333 3.11928 10.8333H7.17238C7.6084 10.8333 7.96826 10.8333 8.26141 10.8094C8.56588 10.7845 8.84575 10.7311 9.10865 10.5972C9.51633 10.3895 9.84779 10.058 10.0555 9.65031C10.1895 9.38742 10.2429 9.10754 10.2677 8.80307C10.2917 8.50993 10.2917 8.15007 10.2917 7.71405V4.76967ZM2.16667 5.95833C2.16667 5.65918 2.40918 5.41667 2.70833 5.41667H7.04167C7.34082 5.41667 7.58333 5.65918 7.58333 5.95833C7.58333 6.25749 7.34082 6.5 7.04167 6.5H2.70833C2.40918 6.5 2.16667 6.25749 2.16667 5.95833ZM2.16667 8.125C2.16667 7.82584 2.40918 7.58333 2.70833 7.58333H5.95833C6.25749 7.58333 6.5 7.82584 6.5 8.125C6.5 8.42415 6.25749 8.66667 5.95833 8.66667H2.70833C2.40918 8.66667 2.16667 8.42415 2.16667 8.125Z" fill="currentColor"/>
</svg>
