<svg width="20" height="22" viewBox="0 0 20 22" fill="none" xmlns="http://www.w3.org/2000/svg">
<path d="M16 6H4V16.2002C4 17.0566 4.00035 17.6388 4.03711 18.0889C4.07293 18.5273 4.13808 18.7518 4.21777 18.9082C4.40951 19.2845 4.71554 19.5905 5.0918 19.7822C5.2482 19.8619 5.47272 19.9271 5.91113 19.9629C6.36117 19.9997 6.94341 20 7.7998 20H12.2002C13.0566 20 13.6388 19.9997 14.0889 19.9629C14.5273 19.9271 14.7518 19.8619 14.9082 19.7822C15.2845 19.5905 15.5905 19.2845 15.7822 18.9082C15.8619 18.7518 15.9271 18.5273 15.9629 18.0889C15.9997 17.6388 16 17.0566 16 16.2002V6ZM7 15.5V10.5C7 9.94772 7.44772 9.5 8 9.5C8.55228 9.5 9 9.94772 9 10.5V15.5C9 16.0523 8.55228 16.5 8 16.5C7.44772 16.5 7 16.0523 7 15.5ZM11 15.5V10.5C11 9.94772 11.4477 9.5 12 9.5C12.5523 9.5 13 9.94772 13 10.5V15.5C13 16.0523 12.5523 16.5 12 16.5C11.4477 16.5 11 16.0523 11 15.5ZM9.2002 2C8.62364 2 8.25111 2.00127 7.96777 2.02442C7.69619 2.04662 7.59534 2.08419 7.5459 2.10938C7.35793 2.20522 7.20521 2.35793 7.10938 2.5459C7.08419 2.59534 7.04661 2.69619 7.02441 2.96778C7.00406 3.21692 7.00142 3.5349 7.00098 4H12.999C12.9986 3.5349 12.9959 3.21692 12.9756 2.96778C12.9534 2.69619 12.9158 2.59534 12.8906 2.5459C12.7948 2.35793 12.6421 2.20522 12.4541 2.10938C12.4047 2.08419 12.3038 2.04662 12.0322 2.02442C11.7489 2.00127 11.3764 2 10.7998 2H9.2002ZM18 16.2002C18 17.0237 18.001 17.7016 17.9561 18.252C17.9101 18.814 17.8117 19.3311 17.5645 19.8164C17.181 20.5689 16.5689 21.181 15.8164 21.5645C15.3311 21.8117 14.814 21.9101 14.252 21.9561C13.7016 22.001 13.0237 22 12.2002 22H7.7998C6.97631 22 6.29843 22.001 5.74805 21.9561C5.18599 21.9101 4.6689 21.8117 4.18359 21.5645C3.43109 21.181 2.81902 20.5689 2.43555 19.8164C2.18827 19.3311 2.08987 18.814 2.04395 18.252C1.99898 17.7016 2 17.0237 2 16.2002V6H1C0.447715 6 0 5.55229 0 5C0 4.44772 0.447715 4 1 4H5.00098C5.00126 3.54097 5.00284 3.14047 5.03027 2.80469C5.06258 2.40943 5.1344 2.016 5.32715 1.6377C5.61472 1.07348 6.07347 0.614727 6.6377 0.327153C7.01599 0.134401 7.40943 0.0625888 7.80469 0.0302779C8.18836 -0.00106936 8.65664 4.41417e-06 9.2002 4.41417e-06H10.7998C11.3434 4.41417e-06 11.8116 -0.0010693 12.1953 0.0302779C12.5906 0.0625888 12.984 0.134401 13.3623 0.327153C13.9265 0.614727 14.3853 1.07348 14.6729 1.6377C14.8656 2.016 14.9374 2.40943 14.9697 2.80469C14.9972 3.14047 14.9987 3.54097 14.999 4H19C19.5523 4 20 4.44772 20 5C20 5.55229 19.5523 6 19 6H18V16.2002Z" fill="#FB3748"/>
</svg>
