<svg xmlns="http://www.w3.org/2000/svg" width="24" height="24" viewBox="0 0 24 24" fill="none">
  <path d="M14 2.26959V6.40013C14 6.96019 14 7.24021 14.109 7.45412C14.2049 7.64228 14.3578 7.79527 14.546 7.89114C14.7599 8.00013 15.0399 8.00013 15.6 8.00013H19.7305M14 2.00006H8.8C7.11984 2.00006 6.27976 2.00006 5.63803 2.32704C5.07354 2.61466 4.6146 3.0736 4.32698 3.63809C4 4.27982 4 5.1199 4 6.80006V17.2001C4 18.8802 4 19.7203 4.32698 20.362C4.6146 20.9265 5.07354 21.3855 5.63803 21.6731C6.27976 22.0001 7.11984 22.0001 8.8 22.0001H15.2C16.8802 22.0001 17.7202 22.0001 18.362 21.6731C18.9265 21.3855 19.3854 20.9265 19.673 20.362C20 19.7203 20 18.8802 20 17.2001V8.00006L14 2.00006ZM11.9973 11.8307C11.1975 10.9217 9.8639 10.6771 8.86188 11.5095C7.85986 12.3419 7.71879 13.7336 8.50568 14.718C9.29257 15.7024 11.9973 18.0001 11.9973 18.0001C11.9973 18.0001 14.7019 15.7024 15.4888 14.718C16.2757 13.7336 16.1519 12.3331 15.1326 11.5095C14.1134 10.6859 12.797 10.9217 11.9973 11.8307Z" stroke="currentColor" stroke-width="2" stroke-linecap="round" stroke-linejoin="round"/>
</svg>