<svg width="14" height="14" viewBox="0 0 14 14" fill="none" xmlns="http://www.w3.org/2000/svg">
<path d="M10.0368 3.46569C9.13122 2.55946 7.88157 2 6.50006 2C3.73864 2 1.50006 4.23858 1.50006 7C1.50006 9.76142 3.73864 12 6.50006 12C8.77865 12 10.7027 10.4753 11.3047 8.38922C11.4004 8.05757 11.7468 7.8663 12.0785 7.962C12.4101 8.0577 12.6014 8.40414 12.5057 8.73578C11.7535 11.3425 9.35035 13.25 6.50006 13.25C3.04829 13.25 0.250065 10.4518 0.250065 7C0.250065 3.54822 3.04829 0.75 6.50006 0.75C8.22656 0.75 9.79055 1.45087 10.921 2.58211C11.3186 2.97993 11.7464 3.47357 12.125 3.93396V2C12.125 1.65482 12.4048 1.375 12.75 1.375C13.0952 1.375 13.375 1.65482 13.375 2V5.75C13.375 6.09518 13.0952 6.375 12.75 6.375H9C8.65482 6.375 8.375 6.09518 8.375 5.75C8.375 5.40482 8.65482 5.125 9 5.125H11.4808C11.0532 4.5884 10.5145 3.94367 10.0368 3.46569Z" fill="currentColor"/>
</svg>
