<svg width="20" height="20" viewBox="0 0 20 20" fill="none" xmlns="http://www.w3.org/2000/svg">
<path d="M0 1C0 0.447715 0.447715 0 1 0H19C19.5523 0 20 0.447715 20 1C20 1.55228 19.5523 2 19 2H1C0.447715 2 0 1.55228 0 1Z" fill="currentColor"/>
<path d="M3.29289 11.7071C3.68342 12.0976 4.31658 12.0976 4.70711 11.7071L9 7.41421L9 19C9 19.5523 9.44772 20 10 20C10.5523 20 11 19.5523 11 19L11 7.41421L15.2929 11.7071C15.6834 12.0976 16.3166 12.0976 16.7071 11.7071C17.0976 11.3166 17.0976 10.6834 16.7071 10.2929L10.7071 4.29289C10.3166 3.90237 9.68342 3.90237 9.29289 4.29289L3.29289 10.2929C2.90237 10.6834 2.90237 11.3166 3.29289 11.7071Z" fill="currentColor"/>
</svg>
