<svg width="20" height="20" viewBox="0 0 20 20" fill="none" xmlns="http://www.w3.org/2000/svg">
<path d="M16.667 9.16658H3.33366V14.3334C3.33366 15.0471 3.33395 15.5323 3.36459 15.9073C3.39444 16.2727 3.44873 16.4598 3.51514 16.5901C3.67492 16.9036 3.92995 17.1587 4.24349 17.3184C4.37382 17.3848 4.56093 17.4391 4.92627 17.469C5.3013 17.4996 5.78651 17.4999 6.50016 17.4999H13.5005C14.2142 17.4999 14.6994 17.4996 15.0744 17.469C15.4397 17.4391 15.6268 17.3848 15.7572 17.3184C16.0707 17.1587 16.3257 16.9036 16.4855 16.5901C16.5519 16.4598 16.6062 16.2727 16.6361 15.9073C16.6667 15.5323 16.667 15.0471 16.667 14.3334V9.16658ZM12.5003 4.99992V4.16659H7.50033V4.99992C7.50033 5.46016 7.12723 5.83325 6.66699 5.83325C6.20676 5.83325 5.83366 5.46016 5.83366 4.99992V4.16903C5.46245 4.17163 5.17091 4.17753 4.92627 4.19751C4.56093 4.22736 4.37382 4.28166 4.24349 4.34806C3.92995 4.50784 3.67492 4.76287 3.51514 5.07642C3.44873 5.20675 3.39444 5.39385 3.36459 5.7592C3.33395 6.13423 3.33366 6.61943 3.33366 7.33309V7.49992H16.667V7.33309C16.667 6.61943 16.6667 6.13423 16.6361 5.7592C16.6062 5.39385 16.5519 5.20675 16.4855 5.07642C16.3257 4.76287 16.0707 4.50784 15.7572 4.34806C15.6268 4.28165 15.4397 4.22736 15.0744 4.19751C14.8297 4.17753 14.5382 4.17163 14.167 4.16903V4.99992C14.167 5.46016 13.7939 5.83325 13.3337 5.83325C12.8734 5.83325 12.5003 5.46016 12.5003 4.99992ZM18.3337 14.3334C18.3337 15.0197 18.3345 15.5846 18.297 16.0432C18.2588 16.5116 18.1768 16.9425 17.9707 17.3469C17.6511 17.974 17.1411 18.4841 16.514 18.8036C16.1096 19.0097 15.6787 19.0917 15.2103 19.13C14.7516 19.1674 14.1867 19.1666 13.5005 19.1666H6.50016C5.81392 19.1666 5.24902 19.1674 4.79037 19.13C4.32199 19.0917 3.89108 19.0097 3.48666 18.8036C2.85957 18.4841 2.34951 17.974 2.02995 17.3469C1.82389 16.9425 1.74189 16.5116 1.70361 16.0432C1.66614 15.5846 1.66699 15.0197 1.66699 14.3334V7.33309C1.66699 6.64685 1.66614 6.08194 1.70361 5.62329C1.74189 5.15491 1.82389 4.724 2.02995 4.31958C2.34951 3.69249 2.85957 3.18243 3.48666 2.86287C3.89108 2.65681 4.32199 2.57481 4.79037 2.53654C5.09104 2.51197 5.43744 2.50508 5.83366 2.50236V1.66659C5.83366 1.20635 6.20676 0.833252 6.66699 0.833252C7.12723 0.833252 7.50033 1.20635 7.50033 1.66659V2.49992H12.5003V1.66659C12.5003 1.20635 12.8734 0.833252 13.3337 0.833252C13.7939 0.833252 14.167 1.20635 14.167 1.66659V2.50236C14.5632 2.50508 14.9096 2.51197 15.2103 2.53654C15.6787 2.57481 16.1096 2.65681 16.514 2.86287C17.1411 3.18243 17.6511 3.69249 17.9707 4.31958C18.1768 4.724 18.2588 5.15491 18.297 5.62329C18.3345 6.08194 18.3337 6.64685 18.3337 7.33309V14.3334Z" fill="currentColor"/>
</svg>
