<svg width="16" height="16" viewBox="0 0 16 16" fill="none" xmlns="http://www.w3.org/2000/svg">
<path d="M3.39942 1.25144C3.96698 0.964365 4.6372 0.964365 5.20476 1.25144C5.51411 1.40791 5.78011 1.68486 6.09734 2.00209L6.2269 2.13229C6.4359 2.3413 6.61668 2.51662 6.74057 2.70716C7.17142 3.36999 7.17144 4.22469 6.74057 4.8875C6.61668 5.07805 6.4359 5.25337 6.2269 5.46237C6.18862 5.50065 6.16892 5.52022 6.15528 5.53464L6.15398 5.54245C6.15618 5.54732 6.159 5.55394 6.16309 5.56263C6.16949 5.57623 6.17757 5.59203 6.18783 5.61341C6.6197 6.51281 7.20838 7.35662 7.95541 8.10365C8.70245 8.85068 9.54625 9.43936 10.4456 9.87123C10.467 9.8815 10.4828 9.88957 10.4964 9.89597C10.5047 9.89985 10.5112 9.90227 10.516 9.90443C10.5173 9.9043 10.5189 9.90471 10.5205 9.90443C10.5217 9.90423 10.5228 9.90335 10.5238 9.90313C10.5382 9.88949 10.5584 9.87046 10.5967 9.83216C10.8057 9.62316 10.981 9.44238 11.1716 9.31849C11.8344 8.88762 12.6891 8.88764 13.3519 9.31849C13.5424 9.44238 13.7178 9.62316 13.9268 9.83216L14.2861 10.1915C14.5053 10.4146 14.6903 10.6223 14.8076 10.8543C15.0947 11.4219 15.0947 12.0921 14.8076 12.6596C14.6511 12.969 14.3735 13.2344 14.0563 13.5516L13.9515 13.657C13.6189 13.9897 13.3735 14.242 13.0368 14.4311C12.6702 14.637 12.1435 14.7742 11.723 14.7729C11.342 14.7718 11.0678 14.6901 10.7035 14.5867C8.57465 13.9825 6.56603 12.8419 4.89161 11.1675C3.21719 9.49303 2.07656 7.48442 1.47234 5.3556C1.36894 4.99131 1.28728 4.71708 1.28614 4.33607C1.28489 3.91561 1.42203 3.38889 1.62794 3.02227C1.81711 2.68551 2.06938 2.4402 2.40203 2.10756L2.73666 1.77292C2.95968 1.55374 3.16743 1.36879 3.39942 1.25144ZM4.6032 2.44089C4.41401 2.3452 4.19017 2.3452 4.00099 2.44089C3.92986 2.4769 3.84131 2.55434 3.4502 2.94545L3.34474 3.05026C2.97133 3.42367 2.87052 3.53202 2.79005 3.67526C2.69684 3.84137 2.61891 4.14182 2.61947 4.33216C2.61999 4.50154 2.64478 4.60371 2.75489 4.99167C3.29863 6.90738 4.32477 8.71519 5.83432 10.2247C7.34387 11.7343 9.15168 12.7604 11.0674 13.3042C11.4553 13.4143 11.5575 13.4391 11.7269 13.4396C11.9172 13.4402 12.2177 13.3622 12.3838 13.269C12.527 13.1885 12.6354 13.0877 13.0088 12.7143L13.1136 12.6089C13.5047 12.2178 13.5822 12.1292 13.6182 12.0581C13.7139 11.8689 13.7139 11.6451 13.6182 11.4559C13.5822 11.3847 13.5048 11.2963 13.1136 10.9051L12.9841 10.7749C12.7269 10.5177 12.6692 10.4648 12.6253 10.4363C12.4044 10.2927 12.1191 10.2927 11.8981 10.4363C11.8543 10.4648 11.7965 10.5178 11.5394 10.7749C11.4773 10.8369 11.3962 10.9208 11.2972 10.9917C10.9726 11.2241 10.5314 11.2994 10.1481 11.1876C10.0328 11.154 9.93934 11.1076 9.86882 11.0737C8.83552 10.5776 7.86769 9.90134 7.0127 9.04636C6.15772 8.19137 5.48148 7.22354 4.98536 6.19024C4.9515 6.11971 4.90504 6.02626 4.87143 5.91094C4.7597 5.52763 4.83499 5.08649 5.06739 4.76185C5.1383 4.66282 5.22213 4.58172 5.28419 4.51966C5.54128 4.26257 5.59423 4.20476 5.62273 4.16094C5.76639 3.93998 5.76639 3.65469 5.62273 3.43373C5.59424 3.3899 5.54133 3.33214 5.28419 3.075L5.15398 2.94545C4.76277 2.55424 4.67433 2.47689 4.6032 2.44089Z" fill="currentColor"/>
</svg>
