<svg width="20" height="20" viewBox="0 0 20 20" fill="none" xmlns="http://www.w3.org/2000/svg">
<path d="M12.744 5.24403C13.0694 4.91876 13.597 4.91876 13.9224 5.24403L18.089 9.41069C18.4144 9.73609 18.4143 10.2636 18.089 10.5891L13.9224 14.7557C13.5969 15.0812 13.0694 15.0812 12.744 14.7557C12.4187 14.4303 12.4186 13.9028 12.744 13.5774L15.4881 10.8332H7.49984C7.0396 10.8332 6.6665 10.4601 6.6665 9.99989C6.66664 9.53977 7.03969 9.16655 7.49984 9.16655H15.4881L12.744 6.42241C12.4187 6.09697 12.4186 5.56942 12.744 5.24403ZM9.1665 5.83322C9.1665 5.57076 9.16613 5.491 9.16081 5.42876C9.09737 4.68956 8.55222 4.08093 7.82454 3.93625C7.76329 3.92409 7.68404 3.91476 7.42334 3.88579L6.5721 3.79139C5.92104 3.71905 5.47584 3.67007 5.12923 3.6563C4.78912 3.64281 4.61283 3.66731 4.49203 3.70594C4.04051 3.85043 3.67149 4.18053 3.47803 4.61333C3.42631 4.72913 3.38254 4.90136 3.3584 5.24077C3.33379 5.58683 3.33317 6.03487 3.33317 6.69015V13.3104C3.33317 13.9657 3.33379 14.4138 3.3584 14.7598C3.38256 15.0993 3.42628 15.2715 3.47803 15.3873C3.67149 15.8201 4.04051 16.1502 4.49203 16.2946C4.61282 16.3333 4.7892 16.3578 5.12923 16.3443C5.47585 16.3305 5.92104 16.2815 6.5721 16.2092L7.42334 16.1148C7.68413 16.0858 7.76329 16.0757 7.82454 16.0635C8.5522 15.9188 9.09734 15.311 9.16081 14.5718C9.16615 14.5095 9.1665 14.4295 9.1665 14.1666C9.16664 13.7064 9.53969 13.3332 9.99984 13.3332C10.46 13.3332 10.833 13.7064 10.8332 14.1666C10.8332 14.3962 10.8339 14.5632 10.821 14.7142C10.6941 16.1926 9.60532 17.409 8.15006 17.6985C8.00138 17.728 7.83535 17.7455 7.60726 17.7709L6.75602 17.8661C6.12873 17.9358 5.6148 17.9927 5.19515 18.0093C4.76912 18.0262 4.37129 18.0054 3.98421 17.8816C3.08131 17.5926 2.34401 16.933 1.95703 16.0676C1.79115 15.6965 1.72606 15.3032 1.6958 14.8778C1.666 14.4589 1.6665 13.9417 1.6665 13.3104V6.69015C1.6665 6.05901 1.66602 5.54168 1.6958 5.12277C1.72606 4.69739 1.79115 4.3041 1.95703 3.93299C2.34398 3.06746 3.08122 2.40717 3.98421 2.11821C4.37125 1.99443 4.76917 1.97355 5.19515 1.99045C5.6148 2.00711 6.12871 2.06479 6.75602 2.13449L7.60726 2.22889C7.83547 2.25425 8.00135 2.27256 8.15006 2.30213C9.60529 2.59159 10.6941 3.80802 10.821 5.28635C10.8339 5.4373 10.8332 5.60385 10.8332 5.83322C10.8332 6.29346 10.4601 6.66655 9.99984 6.66655C9.5396 6.66655 9.1665 6.29346 9.1665 5.83322Z" fill="currentColor"/>
</svg>
