<svg width="29" height="29" viewBox="0 0 29 29" fill="none" xmlns="http://www.w3.org/2000/svg">
<path d="M14.5 0C14.8846 0 15.2534 0.152767 15.5253 0.424695C15.7972 0.696623 15.95 1.06544 15.95 1.45V5.8C15.95 6.18456 15.7972 6.55338 15.5253 6.8253C15.2534 7.09723 14.8846 7.25 14.5 7.25C14.1154 7.25 13.7466 7.09723 13.4747 6.8253C13.2028 6.55338 13.05 6.18456 13.05 5.8V1.45C13.05 1.06544 13.2028 0.696623 13.4747 0.424695C13.7466 0.152767 14.1154 0 14.5 0ZM14.5 21.75C14.8846 21.75 15.2534 21.9028 15.5253 22.1747C15.7972 22.4466 15.95 22.8154 15.95 23.2V27.55C15.95 27.9346 15.7972 28.3034 15.5253 28.5753C15.2534 28.8472 14.8846 29 14.5 29C14.1154 29 13.7466 28.8472 13.4747 28.5753C13.2028 28.3034 13.05 27.9346 13.05 27.55V23.2C13.05 22.8154 13.2028 22.4466 13.4747 22.1747C13.7466 21.9028 14.1154 21.75 14.5 21.75ZM29 14.5C29 14.8846 28.8472 15.2534 28.5753 15.5253C28.3034 15.7972 27.9346 15.95 27.55 15.95H23.2C22.8154 15.95 22.4466 15.7972 22.1747 15.5253C21.9028 15.2534 21.75 14.8846 21.75 14.5C21.75 14.1154 21.9028 13.7466 22.1747 13.4747C22.4466 13.2028 22.8154 13.05 23.2 13.05H27.55C27.9346 13.05 28.3034 13.2028 28.5753 13.4747C28.8472 13.7466 29 14.1154 29 14.5ZM7.25 14.5C7.25 14.8846 7.09723 15.2534 6.8253 15.5253C6.55338 15.7972 6.18456 15.95 5.8 15.95H1.45C1.06544 15.95 0.696623 15.7972 0.424695 15.5253C0.152767 15.2534 0 14.8846 0 14.5C0 14.1154 0.152767 13.7466 0.424695 13.4747C0.696623 13.2028 1.06544 13.05 1.45 13.05H5.8C6.18456 13.05 6.55338 13.2028 6.8253 13.4747C7.09723 13.7466 7.25 14.1154 7.25 14.5ZM24.7529 24.7529C24.481 25.0248 24.1123 25.1775 23.7278 25.1775C23.3433 25.1775 22.9746 25.0248 22.7027 24.7529L19.6272 21.6775C19.3631 21.404 19.2169 21.0378 19.2202 20.6576C19.2235 20.2774 19.376 19.9137 19.6449 19.6449C19.9137 19.376 20.2774 19.2235 20.6576 19.2202C21.0378 19.2169 21.404 19.3631 21.6775 19.6272L24.7529 22.7012C24.8878 22.8359 24.9947 22.9958 25.0677 23.1718C25.1407 23.3478 25.1782 23.5365 25.1782 23.7271C25.1782 23.9176 25.1407 24.1063 25.0677 24.2823C24.9947 24.4584 24.8878 24.6183 24.7529 24.7529ZM9.3728 9.3728C9.10088 9.64463 8.73214 9.79734 8.34765 9.79734C7.96316 9.79734 7.59442 9.64463 7.3225 9.3728L4.2485 6.2988C3.97642 6.02691 3.82349 5.65808 3.82336 5.27344C3.82322 4.8888 3.97589 4.51985 4.24778 4.24778C4.51966 3.9757 4.8885 3.82277 5.27314 3.82263C5.65778 3.8225 6.02672 3.97516 6.2988 4.24705L9.3728 7.3225C9.64463 7.59442 9.79734 7.96316 9.79734 8.34765C9.79734 8.73214 9.64463 9.10088 9.3728 9.3728ZM4.2485 24.7529C3.97667 24.481 3.82396 24.1123 3.82396 23.7278C3.82396 23.3433 3.97667 22.9746 4.2485 22.7027L7.32395 19.6272C7.45771 19.4887 7.61771 19.3782 7.79461 19.3023C7.97152 19.2263 8.16179 19.1863 8.35432 19.1846C8.54685 19.1829 8.73778 19.2196 8.91598 19.2925C9.09418 19.3654 9.25608 19.4731 9.39222 19.6092C9.52837 19.7454 9.63603 19.9073 9.70894 20.0855C9.78185 20.2637 9.81854 20.4546 9.81686 20.6471C9.81519 20.8397 9.77519 21.0299 9.6992 21.2068C9.6232 21.3837 9.51274 21.5437 9.37425 21.6775L6.30025 24.7529C6.16558 24.8878 6.00567 24.9947 5.82964 25.0677C5.65361 25.1407 5.46493 25.1782 5.27437 25.1782C5.08382 25.1782 4.89514 25.1407 4.71911 25.0677C4.54308 24.9947 4.38317 24.8878 4.2485 24.7529ZM19.6272 9.3728C19.3554 9.10088 19.2027 8.73214 19.2027 8.34765C19.2027 7.96316 19.3554 7.59442 19.6272 7.3225L22.7012 4.24705C22.9731 3.97497 23.3419 3.82204 23.7266 3.82191C24.1112 3.82177 24.4801 3.97444 24.7522 4.24633C25.0243 4.51821 25.1772 4.88705 25.1774 5.27169C25.1775 5.65633 25.0248 6.02527 24.7529 6.29735L21.6775 9.3728C21.4056 9.64463 21.0368 9.79734 20.6524 9.79734C20.2679 9.79734 19.8991 9.64463 19.6272 9.3728Z" fill="currentColor"/>
</svg>
