<svg width="15" height="16" viewBox="0 0 15 16" fill="none" xmlns="http://www.w3.org/2000/svg">
<path fill-rule="evenodd" clip-rule="evenodd" d="M10.5 0C10.9142 0 11.25 0.325611 11.25 0.727273V1.45573C11.6066 1.45811 11.9183 1.46525 12.1889 1.48669C12.6104 1.52009 12.998 1.59177 13.362 1.77162C13.9265 2.05052 14.3854 2.49556 14.673 3.04294C14.8585 3.39591 14.9324 3.77169 14.9669 4.18049C15 4.57408 15 5.05725 15 5.64267V11.8119C15 12.3973 15 12.8805 14.9669 13.2741C14.9324 13.6829 14.8585 14.0586 14.673 14.4116C14.3854 14.959 13.9265 15.404 13.362 15.6829C12.998 15.8628 12.6104 15.9345 12.1889 15.9679C11.783 16 11.2847 16 10.681 16H4.31901C3.71529 16 3.21702 16 2.81113 15.9679C2.38956 15.9345 2.00203 15.8628 1.63803 15.6829C1.07354 15.404 0.614602 14.959 0.326981 14.4116C0.141513 14.0586 0.0675901 13.6829 0.0331462 13.2741C-1.65626e-05 12.8805 -8.93593e-06 12.3973 3.07255e-07 11.8119V5.64269C-8.93593e-06 5.05726 -1.65654e-05 4.57408 0.0331462 4.18049C0.0675901 3.77169 0.141513 3.39591 0.326981 3.04294C0.614602 2.49556 1.07354 2.05052 1.63803 1.77162C2.00203 1.59177 2.38956 1.52009 2.81113 1.48669C3.08174 1.46525 3.3934 1.45811 3.75 1.45573V0.727273C3.75 0.325611 4.08579 0 4.5 0C4.91421 0 5.25 0.325611 5.25 0.727273V1.45455H9.75V0.727273C9.75 0.325611 10.0858 0 10.5 0ZM3.75 2.91037V3.63636C3.75 4.03803 4.08579 4.36364 4.5 4.36364C4.91421 4.36364 5.25 4.03803 5.25 3.63636V2.90909H9.75V3.63636C9.75 4.03803 10.0858 4.36364 10.5 4.36364C10.9142 4.36364 11.25 4.03803 11.25 3.63636V2.91037C11.5841 2.91265 11.8465 2.91896 12.0667 2.9364C12.3955 2.96245 12.5637 3.00967 12.681 3.06763C12.9632 3.20708 13.1927 3.4296 13.3365 3.70329C13.3963 3.81703 13.445 3.98009 13.4718 4.29894C13.4994 4.62628 13.5 5.04976 13.5 5.67273V5.81818H1.5V5.67273C1.5 5.04976 1.50058 4.62628 1.52816 4.29894C1.55503 3.98009 1.60372 3.81703 1.66349 3.70329C1.8073 3.4296 2.03677 3.20708 2.31902 3.06763C2.43632 3.00967 2.60447 2.96245 2.93328 2.9364C3.15347 2.91896 3.41585 2.91265 3.75 2.91037Z" fill="currentColor"/>
</svg>
