<svg width="16" height="16" viewBox="0 0 16 16" fill="none" xmlns="http://www.w3.org/2000/svg">
<path d="M8.5459 2.5459C8.5459 2.40124 8.48803 2.26212 8.38574 2.15983C8.28347 2.0577 8.14486 2.00033 8.00033 2.00033C7.85579 2.00033 7.71718 2.0577 7.61491 2.15983C7.51262 2.26212 7.45475 2.40124 7.45475 2.5459V2.65137C7.45346 2.97627 7.35739 3.29385 7.17806 3.56478C6.99862 3.83573 6.74367 4.04871 6.44499 4.17676C6.39151 4.19968 6.33497 4.21402 6.27767 4.22233C6.007 4.31658 5.71612 4.34014 5.43262 4.28874C5.10495 4.22932 4.80219 4.07369 4.56413 3.84082L4.55892 3.83561L4.52311 3.79915L4.52246 3.7985C4.47184 3.74788 4.41151 3.70808 4.34538 3.68066C4.27917 3.65323 4.20806 3.639 4.13639 3.639C4.06485 3.63904 3.99416 3.65328 3.92806 3.68066C3.86194 3.70807 3.80159 3.74789 3.75098 3.7985L3.75033 3.79915C3.69962 3.8498 3.65929 3.91004 3.63184 3.97624C3.60439 4.04245 3.59017 4.11354 3.59017 4.18522C3.59018 4.25689 3.60439 4.328 3.63184 4.39421C3.65246 4.44393 3.68045 4.49015 3.71452 4.53158L3.75033 4.57129L3.79199 4.61296C4.0248 4.85096 4.18112 5.15321 4.24056 5.48079C4.29997 5.80847 4.25979 6.14683 4.12533 6.4515L4.12467 6.45085C4.00677 6.74811 3.80713 7.00598 3.54655 7.19238C3.27462 7.38688 2.95044 7.49505 2.61621 7.50293C2.6111 7.50305 2.6057 7.50358 2.60059 7.50358H2.5459C2.40124 7.50358 2.26212 7.56079 2.15983 7.66309C2.05768 7.7653 2.00041 7.904 2.00033 8.0485C2.00033 8.19312 2.0576 8.33229 2.15983 8.43457C2.26212 8.53686 2.40124 8.59408 2.5459 8.59408H2.65137C2.97634 8.59537 3.29382 8.69202 3.56478 8.87142C3.83379 9.04957 4.04517 9.30205 4.1735 9.59798H4.17415C4.30852 9.90257 4.34813 10.2405 4.28874 10.568C4.22932 10.8957 4.07369 11.1985 3.84082 11.4365L3.83561 11.4417L3.79915 11.4775L3.7985 11.4782C3.74788 11.5288 3.70808 11.5891 3.68066 11.6553C3.65323 11.7215 3.639 11.7926 3.639 11.8643C3.63904 11.9358 3.65328 12.0065 3.68066 12.0726C3.70807 12.1387 3.74789 12.1991 3.7985 12.2497L3.79915 12.2503C3.8498 12.301 3.91004 12.3414 3.97624 12.3688C4.04245 12.3963 4.11354 12.4105 4.18522 12.4105C4.25689 12.4105 4.328 12.3963 4.39421 12.3688C4.46037 12.3414 4.52066 12.301 4.57129 12.2503L4.61296 12.2087C4.85096 11.9758 5.15321 11.8195 5.48079 11.7601C5.80846 11.7007 6.14683 11.7409 6.4515 11.8753H6.45085C6.74821 11.9932 7.00593 12.1935 7.19238 12.4541C7.38688 12.726 7.49505 13.0502 7.50293 13.3844C7.50305 13.3895 7.50358 13.395 7.50358 13.4001V13.4548C7.50358 13.5994 7.56079 13.7385 7.66309 13.8408C7.7653 13.943 7.904 14.0002 8.0485 14.0003C8.19312 14.0003 8.33229 13.9431 8.43457 13.8408C8.53686 13.7385 8.59408 13.5994 8.59408 13.4548V13.3493C8.59537 13.0243 8.69202 12.7068 8.87142 12.4359C9.04962 12.1668 9.30195 11.9548 9.59798 11.8265L9.71322 11.7809C9.98657 11.6839 10.2812 11.6599 10.568 11.7119C10.8548 11.7639 11.1222 11.8897 11.3441 12.0765L11.4365 12.1598L11.4417 12.165L11.4775 12.2015L11.4782 12.2021C11.5288 12.2528 11.5891 12.2926 11.6553 12.32C11.7215 12.3474 11.7926 12.3617 11.8643 12.3617C11.9358 12.3616 12.0065 12.3474 12.0726 12.32C12.1387 12.2926 12.1991 12.2528 12.2497 12.2021L12.2503 12.2015C12.301 12.1508 12.3414 12.0906 12.3688 12.0244C12.3963 11.9582 12.4105 11.8871 12.4105 11.8154C12.4105 11.7438 12.3963 11.6726 12.3688 11.6064C12.3482 11.5567 12.3202 11.5105 12.2861 11.4691L12.2503 11.4294L12.2087 11.3877C11.9758 11.1497 11.8195 10.8474 11.7601 10.5199C11.7081 10.2332 11.7322 9.9383 11.8291 9.66504L11.8753 9.54915C12.0037 9.2533 12.2151 9.00071 12.484 8.82259C12.755 8.64321 13.0725 8.54723 13.3975 8.5459H13.4548C13.5994 8.5459 13.7385 8.48803 13.8408 8.38574C13.9429 8.28347 14.0003 8.14486 14.0003 8.00033C14.0003 7.85579 13.9429 7.71718 13.8408 7.61491C13.7385 7.51262 13.5994 7.45475 13.4548 7.45475H13.3493C13.0244 7.45346 12.7068 7.35739 12.4359 7.17806C12.1649 6.99863 11.9519 6.74367 11.8239 6.44499C11.801 6.39148 11.786 6.33501 11.7777 6.27767C11.6835 6.00705 11.6605 5.71604 11.7119 5.43262C11.7713 5.10494 11.927 4.80219 12.1598 4.56413L12.165 4.55892L12.2015 4.52311L12.2021 4.52246C12.2528 4.47184 12.2926 4.41151 12.32 4.34538C12.3474 4.27918 12.3617 4.20806 12.3617 4.13639C12.3616 4.06485 12.3474 3.99416 12.32 3.92806C12.2926 3.86194 12.2528 3.80159 12.2021 3.75098L12.2015 3.75033C12.1508 3.69962 12.0906 3.65928 12.0244 3.63184C11.9582 3.60439 11.8871 3.59017 11.8154 3.59017C11.7438 3.59018 11.6726 3.60439 11.6064 3.63184C11.5567 3.65246 11.5105 3.68045 11.4691 3.71452L11.4294 3.75033L11.3877 3.79199C11.1497 4.0248 10.8474 4.18112 10.5199 4.24056C10.1922 4.29997 9.85382 4.25979 9.54915 4.12533V4.12467C9.2534 3.99632 9.00066 3.78549 8.82259 3.5166C8.64321 3.24568 8.54723 2.92811 8.5459 2.60319V2.5459ZM9.33366 8.00033C9.33366 7.26395 8.7367 6.66699 8.00033 6.66699C7.26395 6.66699 6.66699 7.26395 6.66699 8.00033C6.66699 8.7367 7.26395 9.33366 8.00033 9.33366C8.7367 9.33366 9.33366 8.7367 9.33366 8.00033ZM10.667 8.00033C10.667 9.47308 9.47308 10.667 8.00033 10.667C6.52757 10.667 5.33366 9.47308 5.33366 8.00033C5.33366 6.52757 6.52757 5.33366 8.00033 5.33366C9.47308 5.33366 10.667 6.52757 10.667 8.00033ZM9.87923 2.59798L9.88314 2.64616C9.89036 2.6939 9.9077 2.73969 9.93457 2.78027C9.97045 2.83445 10.0213 2.87706 10.0811 2.90267L10.0876 2.90527C10.1484 2.93214 10.2161 2.94055 10.2816 2.92871C10.3471 2.91683 10.4078 2.88544 10.4554 2.83887L10.4867 2.80762C10.6611 2.63312 10.8681 2.49454 11.096 2.40006C11.3241 2.30554 11.5686 2.25684 11.8154 2.25684C12.0623 2.25684 12.3068 2.30555 12.5348 2.40006C12.7627 2.49454 12.9698 2.63314 13.1442 2.80762L13.2686 2.94434C13.3855 3.0868 13.4809 3.2461 13.5518 3.41699C13.6463 3.64498 13.6949 3.88959 13.695 4.13639C13.695 4.38329 13.6463 4.62836 13.5518 4.85644C13.4809 5.02733 13.3855 5.18665 13.2686 5.3291L13.1442 5.46582L13.1084 5.50228C13.0647 5.54899 13.0352 5.60719 13.0238 5.67025C13.0119 5.73571 13.0197 5.80338 13.0465 5.86426C13.063 5.90156 13.075 5.94068 13.0843 5.98014C13.108 6.01364 13.137 6.04319 13.1715 6.06608C13.2257 6.10197 13.2895 6.12116 13.3545 6.12142H13.4548C13.953 6.12142 14.4312 6.31925 14.7835 6.67155C15.1359 7.02389 15.3337 7.50204 15.3337 8.00033C15.3337 8.49861 15.1359 8.97676 14.7835 9.3291C14.4312 9.68141 13.953 9.87923 13.4548 9.87923H13.4027L13.3545 9.88314C13.3068 9.89036 13.261 9.9077 13.2204 9.93457C13.1662 9.97045 13.1236 10.0213 13.098 10.0811L13.0954 10.0876C13.0685 10.1484 13.0601 10.2161 13.0719 10.2816C13.0838 10.3471 13.1152 10.4078 13.1618 10.4554L13.1924 10.486C13.3671 10.6605 13.506 10.8679 13.6006 11.096C13.6951 11.3241 13.7438 11.5686 13.7438 11.8154C13.7438 12.0623 13.6951 12.3068 13.6006 12.5348C13.5061 12.7627 13.3669 12.9692 13.1924 13.1436L13.193 13.1442C13.0186 13.3188 12.8116 13.4572 12.5837 13.5518C12.3557 13.6463 12.1111 13.6949 11.8643 13.695C11.6174 13.695 11.3723 13.6463 11.1442 13.5518C10.9733 13.4809 10.814 13.3855 10.6715 13.2686L10.5348 13.1442L10.4984 13.1084H10.4977C10.4511 13.0648 10.3933 13.0352 10.3304 13.0238C10.2649 13.0119 10.1973 13.0197 10.1364 13.0465L10.1299 13.0498V13.0492C10.0701 13.0748 10.0186 13.1174 9.98275 13.1715C9.94685 13.2257 9.92767 13.2895 9.92741 13.3545V13.4548C9.92741 13.953 9.72962 14.4312 9.37728 14.7835C9.02495 15.1358 8.54674 15.3337 8.0485 15.3337C7.55038 15.3336 7.07263 15.1357 6.72038 14.7835C6.36804 14.4312 6.17025 13.953 6.17025 13.4548V13.4157L6.16504 13.3662C6.15646 13.3172 6.13756 13.2703 6.1084 13.2295C6.06952 13.1752 6.01484 13.1341 5.95215 13.111C5.93904 13.1062 5.92587 13.101 5.91309 13.0954C5.85221 13.0685 5.78455 13.0601 5.71908 13.0719C5.65354 13.0838 5.59286 13.1152 5.54525 13.1618L5.514 13.193C5.33959 13.3675 5.13253 13.5061 4.90462 13.6006C4.67657 13.6951 4.43209 13.7438 4.18522 13.7438C3.93837 13.7438 3.69387 13.6951 3.46582 13.6006C3.23774 13.506 3.03028 13.3671 2.85579 13.1924V13.1917C2.68169 13.0175 2.54325 12.8112 2.44889 12.5837C2.35438 12.3557 2.3057 12.1111 2.30566 11.8643C2.30566 11.6174 2.35434 11.3723 2.44889 11.1442C2.54343 10.9163 2.68188 10.7092 2.85645 10.5348L2.89225 10.4984C2.93598 10.4517 2.96541 10.3935 2.97689 10.3304C2.98876 10.2649 2.98092 10.1973 2.9541 10.1364L2.95085 10.1299V10.1292C2.92522 10.0697 2.88315 10.0185 2.8291 9.98275C2.7884 9.9558 2.74222 9.93851 2.69434 9.93131L2.64616 9.92741H2.5459C2.04761 9.92741 1.56946 9.72962 1.21712 9.37728C0.864841 9.02495 0.666992 8.54674 0.666992 8.0485C0.667074 7.55038 0.864924 7.07263 1.21712 6.72038C1.56946 6.36804 2.04761 6.17025 2.5459 6.17025H2.58496C2.65175 6.16864 2.71682 6.14726 2.77116 6.1084C2.82549 6.06952 2.86656 6.01484 2.88965 5.95215L2.90527 5.91309C2.93214 5.85221 2.94055 5.78455 2.92871 5.71908C2.91683 5.65354 2.88544 5.59286 2.83887 5.54525L2.80762 5.514V5.51335C2.63327 5.33901 2.49449 5.13239 2.40006 4.90462C2.30554 4.67657 2.25684 4.43209 2.25684 4.18522C2.25684 3.93837 2.30555 3.69386 2.40006 3.46582C2.49461 3.23774 2.63358 3.03028 2.80827 2.85579C2.98253 2.68153 3.18935 2.54331 3.41699 2.44889C3.64498 2.35438 3.88959 2.3057 4.13639 2.30566C4.38329 2.30566 4.62836 2.35434 4.85644 2.44889C5.08437 2.54343 5.29143 2.68188 5.46582 2.85645L5.50098 2.89095C5.54791 2.93538 5.60659 2.9653 5.67025 2.97689C5.73571 2.98876 5.80338 2.98092 5.86426 2.9541L5.92936 2.92936C5.94607 2.92398 5.96308 2.91973 5.98014 2.91569C6.01351 2.89205 6.04326 2.86351 6.06608 2.8291C6.10149 2.77563 6.12066 2.71286 6.12142 2.64876V2.5459C6.12142 2.04764 6.31925 1.56946 6.67155 1.21712C7.02389 0.864781 7.50204 0.666992 8.00033 0.666992C8.49861 0.666992 8.97676 0.864781 9.3291 1.21712C9.68141 1.56946 9.87923 2.04764 9.87923 2.5459V2.59798Z" fill="currentColor"/>
</svg>
