<svg width="15" height="16" viewBox="0 0 15 16" fill="none" xmlns="http://www.w3.org/2000/svg">
<path d="M12.4783 8.87481C12.6289 8.7457 12.7042 8.68114 12.7318 8.60431C12.7561 8.53689 12.7561 8.46313 12.7318 8.3957C12.7042 8.31888 12.6289 8.25432 12.4783 8.1252L7.25136 3.64499C6.99206 3.42273 6.8624 3.31159 6.75263 3.30887C6.65724 3.30651 6.56611 3.34842 6.50583 3.42239C6.43646 3.5075 6.43646 3.67827 6.43646 4.01979V6.67021C5.11924 6.90065 3.91368 7.5681 3.01778 8.57027C2.04105 9.66286 1.50076 11.0768 1.5 12.5423V12.92C2.1475 12.1399 2.95595 11.5091 3.86997 11.0706C4.6758 10.684 5.54692 10.455 6.43646 10.3947V12.9802C6.43646 13.3218 6.43646 13.4925 6.50583 13.5776C6.56611 13.6516 6.65724 13.6935 6.75263 13.6911C6.8624 13.6884 6.99206 13.5773 7.25136 13.355L12.4783 8.87481Z" stroke="currentColor" stroke-width="1.5" stroke-linecap="round" stroke-linejoin="round"/>
</svg>
