<svg width="15" height="19" viewBox="0 0 15 19" fill="none" xmlns="http://www.w3.org/2000/svg">
<path d="M9.08333 0.974609V4.41673C9.08333 4.88344 9.08333 5.11679 9.17416 5.29505C9.25406 5.45185 9.38154 5.57934 9.53834 5.65923C9.7166 5.75006 9.94996 5.75006 10.4167 5.75006H13.8588M10.75 9.91667H4.08333M10.75 13.25H4.08333M5.75 6.58333H4.08333M9.08333 0.75H4.75C3.34987 0.75 2.6498 0.75 2.11502 1.02248C1.64462 1.26217 1.26217 1.64462 1.02248 2.11502C0.75 2.6498 0.75 3.34987 0.75 4.75V13.4167C0.75 14.8168 0.75 15.5169 1.02248 16.0516C1.26217 16.522 1.64462 16.9045 2.11502 17.1442C2.6498 17.4167 3.34987 17.4167 4.75 17.4167H10.0833C11.4835 17.4167 12.1835 17.4167 12.7183 17.1442C13.1887 16.9045 13.5712 16.522 13.8108 16.0516C14.0833 15.5169 14.0833 14.8168 14.0833 13.4167V5.75L9.08333 0.75Z" stroke="currentColor" stroke-width="1.5" stroke-linecap="round" stroke-linejoin="round"/>
</svg>
