<svg width="11" height="11" viewBox="0 0 11 11" fill="none" xmlns="http://www.w3.org/2000/svg">
<path d="M6.1001 2.3925L2.85101 3.04232C2.66951 3.07862 2.57876 3.09677 2.50486 3.1409C2.43953 3.17992 2.38396 3.23334 2.3424 3.29708C2.29538 3.36919 2.27367 3.45915 2.23024 3.63907L0.600098 10.3925M0.600098 10.3925L7.35353 8.76237C7.53345 8.71894 7.62341 8.69722 7.69552 8.65021C7.75926 8.60864 7.81268 8.55307 7.8517 8.48774C7.89583 8.41384 7.91398 8.32309 7.95028 8.14159L8.6001 4.8925M0.600098 10.3925L4.3931 6.5995M10.0344 3.32682L7.66578 0.958188C7.46777 0.76018 7.36877 0.661175 7.2546 0.624081C7.15418 0.591452 7.04601 0.591452 6.94559 0.624081C6.83142 0.661175 6.73242 0.76018 6.53441 0.958188L6.16578 1.32682C5.96777 1.52483 5.86877 1.62383 5.83168 1.73799C5.79905 1.83842 5.79905 1.94659 5.83168 2.04701C5.86877 2.16118 5.96777 2.26018 6.16578 2.45819L8.53441 4.82682C8.73242 5.02483 8.83142 5.12383 8.94559 5.16092C9.04601 5.19355 9.15418 5.19355 9.25461 5.16092C9.36877 5.12383 9.46777 5.02483 9.66578 4.82682L10.0344 4.45819C10.2324 4.26018 10.3314 4.16118 10.3685 4.04701C10.4011 3.94659 10.4011 3.83842 10.3685 3.73799C10.3314 3.62383 10.2324 3.52483 10.0344 3.32682ZM5.1001 4.8925C5.65238 4.8925 6.1001 5.34022 6.1001 5.8925C6.1001 6.44479 5.65238 6.8925 5.1001 6.8925C4.54781 6.8925 4.1001 6.44479 4.1001 5.8925C4.1001 5.34022 4.54781 4.8925 5.1001 4.8925Z" stroke="currentColor" stroke-width="1.2" stroke-linecap="round" stroke-linejoin="round"/>
</svg>
