<svg width="13" height="13" viewBox="0 0 13 13" fill="none" xmlns="http://www.w3.org/2000/svg">
<path d="M11.4414 1.55933C12.076 2.19393 12.076 3.22282 11.4414 3.85742C10.8068 4.49202 9.77787 4.49202 9.14327 3.85742C8.50867 3.22282 8.50867 2.19393 9.14327 1.55933C9.77787 0.924724 10.8068 0.924724 11.4414 1.55933Z" fill="currentColor"/>
<path fill-rule="evenodd" clip-rule="evenodd" d="M11.3757 5.85305C11.3757 5.63158 11.3756 5.52085 11.3397 5.45823C11.3036 5.39533 11.2669 5.3643 11.1989 5.3391C11.1312 5.31401 11.0018 5.33574 10.7429 5.37918C9.90846 5.51922 9.02109 5.26731 8.37724 4.62346C7.73338 3.9796 7.48147 3.09223 7.62151 2.25782C7.66495 1.99893 7.68668 1.86949 7.66159 1.80177C7.63639 1.73377 7.60536 1.6971 7.54246 1.66099C7.47984 1.62504 7.36911 1.62504 7.14765 1.62504H4.20328C3.76726 1.62503 3.40739 1.62503 3.11425 1.64898C2.80978 1.67386 2.5299 1.72724 2.26701 1.86119C1.85932 2.06892 1.52786 2.40038 1.32014 2.80806C1.18619 3.07095 1.1328 3.35083 1.10792 3.6553C1.08397 3.94845 1.08398 4.3083 1.08398 4.74432V8.79741C1.08398 9.23343 1.08397 9.5933 1.10792 9.88645C1.1328 10.1909 1.18619 10.4708 1.32014 10.7337C1.52786 11.1414 1.85932 11.4728 2.26701 11.6806C2.5299 11.8145 2.80978 11.8679 3.11425 11.8928C3.40739 11.9167 3.76725 11.9167 4.20327 11.9167H8.25637C8.69239 11.9167 9.05225 11.9167 9.34539 11.8928C9.64986 11.8679 9.92974 11.8145 10.1926 11.6806C10.6003 11.4728 10.9318 11.1414 11.1395 10.7337C11.2734 10.4708 11.3268 10.1909 11.3517 9.88645C11.3757 9.5933 11.3757 9.23344 11.3757 8.79743V5.85305ZM3.25065 7.04171C3.25065 6.74255 3.49316 6.50004 3.79232 6.50004H8.12565C8.42481 6.50004 8.66732 6.74255 8.66732 7.04171C8.66732 7.34086 8.42481 7.58337 8.12565 7.58337H3.79232C3.49316 7.58337 3.25065 7.34086 3.25065 7.04171ZM3.25065 9.20837C3.25065 8.90922 3.49316 8.66671 3.79232 8.66671H7.04232C7.34147 8.66671 7.58398 8.90922 7.58398 9.20837C7.58398 9.50753 7.34147 9.75004 7.04232 9.75004H3.79232C3.49316 9.75004 3.25065 9.50753 3.25065 9.20837Z" fill="currentColor"/>
</svg>
