<svg width="17" height="17" viewBox="0 0 17 17" fill="none" xmlns="http://www.w3.org/2000/svg">
<path d="M9.16667 0.833333C9.16667 0.373096 8.79357 0 8.33333 0C7.8731 0 7.5 0.373096 7.5 0.833333V8.82149L4.75592 6.07741C4.43049 5.75197 3.90285 5.75197 3.57741 6.07741C3.25197 6.40285 3.25197 6.93049 3.57741 7.25592L7.74408 11.4226C8.06951 11.748 8.59715 11.748 8.92259 11.4226L13.0893 7.25592C13.4147 6.93049 13.4147 6.40285 13.0893 6.07741C12.7638 5.75197 12.2362 5.75197 11.9107 6.07741L9.16667 8.82149V0.833333Z" fill="currentColor"/>
<path d="M0.833334 10C1.29357 10 1.66667 10.3731 1.66667 10.8333V11.8333C1.66667 12.5471 1.66732 13.0324 1.69796 13.4075C1.72781 13.7728 1.78192 13.9597 1.84832 14.09C2.00811 14.4036 2.26308 14.6586 2.57668 14.8183C2.70702 14.8848 2.89385 14.9389 3.2592 14.9687C3.63427 14.9994 4.11952 15 4.83333 15H11.8333C12.5472 15 13.0324 14.9994 13.4075 14.9687C13.7728 14.9389 13.9597 14.8848 14.09 14.8183C14.4036 14.6586 14.6586 14.4036 14.8183 14.09C14.8848 13.9597 14.9389 13.7728 14.9687 13.4075C14.9994 13.0324 15 12.5471 15 11.8333V10.8333C15 10.3731 15.3731 10 15.8333 10C16.2936 10 16.6667 10.3731 16.6667 10.8333V11.8678C16.6667 12.5386 16.6667 13.0922 16.6298 13.5432C16.5916 14.0116 16.5094 14.4422 16.3034 14.8466C15.9838 15.4738 15.4738 15.9838 14.8466 16.3034C14.4422 16.5094 14.0116 16.5916 13.5432 16.6298C13.0922 16.6667 12.5386 16.6667 11.8677 16.6667H4.79892C4.12811 16.6667 3.57448 16.6667 3.12348 16.6298C2.65507 16.5916 2.22448 16.5094 1.82003 16.3034C1.19283 15.9838 0.682891 15.4738 0.363313 14.8466C0.157237 14.4422 0.0751001 14.0116 0.0368291 13.5432C-1.84712e-05 13.0922 -9.96486e-06 12.5386 3.43286e-07 11.8678V10.8333C3.43286e-07 10.3731 0.373097 10 0.833334 10Z" fill="currentColor"/>
</svg>
