<svg width="20" height="20" viewBox="0 0 20 20" fill="none" xmlns="http://www.w3.org/2000/svg">
<path d="M18 7.8H2M18 9.925V6.78C18 5.35187 18 4.6378 17.7094 4.09232C17.4537 3.61251 17.0457 3.22241 16.544 2.97793C15.9735 2.7 15.2268 2.7 13.7333 2.7H6.26667C4.77319 2.7 4.02646 2.7 3.45603 2.97793C2.95426 3.22241 2.54631 3.61251 2.29065 4.09232C2 4.6378 2 5.35187 2 6.78V13.92C2 15.3481 2 16.0622 2.29065 16.6077C2.54631 17.0875 2.95426 17.4776 3.45603 17.7221C4.02646 18 4.77319 18 6.26667 18H10M13.5556 1V4.4M6.44444 1V4.4M12.2222 15.45L14 17.15L18 13.325" stroke="currentColor" stroke-width="1.5" stroke-linecap="round" stroke-linejoin="round"/>
</svg>
