<svg width="12" height="12" viewBox="0 0 12 12" fill="none" xmlns="http://www.w3.org/2000/svg">
<path d="M6 0C2.68629 0 0 2.68629 0 6C0 9.31371 2.68629 12 6 12C9.31371 12 12 9.31371 12 6C12 2.68629 9.31371 0 6 0Z" fill="currentColor"/>
<path fill-rule="evenodd" clip-rule="evenodd" d="M6.65431 3.38111C6.65431 3.01961 6.36126 2.72656 5.99976 2.72656C5.63826 2.72656 5.34521 3.01961 5.34521 3.38111V5.99929C5.34521 6.36079 5.63826 6.65384 5.99976 6.65384C6.36126 6.65384 6.65431 6.36079 6.65431 5.99929V3.38111ZM5.99976 7.96293C5.63826 7.96293 5.34521 8.25598 5.34521 8.61747C5.34521 8.97897 5.63826 9.27202 5.99976 9.27202H6.00631C6.3678 9.27202 6.66085 8.97897 6.66085 8.61747C6.66085 8.25598 6.3678 7.96293 6.00631 7.96293H5.99976Z" fill="white"/>
</svg>
