<svg width="12" height="12" viewBox="0 0 12 12" fill="none" xmlns="http://www.w3.org/2000/svg">
<path fill-rule="evenodd" clip-rule="evenodd" d="M6 0C2.68629 0 0 2.68629 0 6C0 9.31371 2.68629 12 6 12C9.31371 12 12 9.31371 12 6C12 2.68629 9.31371 0 6 0ZM8.84024 4.74933C9.05325 4.53632 9.05325 4.19096 8.84024 3.97794C8.62723 3.76493 8.28186 3.76493 8.06885 3.97794L5.18182 6.86497L3.93115 5.61431C3.71814 5.40129 3.37277 5.40129 3.15976 5.61431C2.94675 5.82732 2.94675 6.17268 3.15976 6.38569L4.79612 8.02206C5.00914 8.23507 5.3545 8.23507 5.56751 8.02206L8.84024 4.74933Z" fill="currentColor"/>
</svg>
