<svg width="50" height="50" viewBox="0 0 50 50" fill="none" xmlns="http://www.w3.org/2000/svg">
<path d="M34 25.9201V24.8C34 23.9436 33.9997 23.3614 33.9629 22.9113C33.9271 22.4729 33.8619 22.2484 33.7822 22.092C33.5905 21.7158 33.2845 21.4097 32.9082 21.218C32.7518 21.1383 32.5273 21.0731 32.0889 21.0373C31.6388 21.0006 31.0566 21.0002 30.2002 21.0002H16V29.2004C16 30.0568 16.0004 30.639 16.0371 31.0891C16.0729 31.5275 16.1381 31.752 16.2178 31.9084C16.4095 32.2847 16.7155 32.5907 17.0918 32.7824C17.2482 32.8621 17.4727 32.9273 17.9111 32.9631C18.3612 32.9999 18.9434 33.0002 19.7998 33.0002H25.583C26.1352 33.0003 26.583 33.448 26.583 34.0002C26.583 34.5524 26.1352 35.0001 25.583 35.0002H19.7998C18.9763 35.0002 18.2984 35.0012 17.7481 34.9563C17.186 34.9103 16.6689 34.8119 16.1836 34.5647C15.4311 34.1812 14.819 33.5691 14.4356 32.8166C14.1883 32.3313 14.0899 31.8142 14.0439 31.2522C13.999 30.7018 14 30.0239 14 29.2004V19.2004C14 18.6569 13.9989 18.1886 14.0303 17.8049C14.0626 17.4096 14.1344 17.0162 14.3272 16.6379C14.6147 16.0737 15.0735 15.6149 15.6377 15.3274C16.016 15.1346 16.4094 15.0628 16.8047 15.0305C17.1884 14.9991 17.6566 15.0002 18.2002 15.0002H22.0225C22.6678 15.0002 23.229 14.9873 23.7422 15.1643C24.1625 15.3093 24.5456 15.5455 24.8633 15.8567C25.2511 16.2365 25.4907 16.7443 25.7793 17.3215L26.6182 19.0002H30.2002C31.0237 19.0002 31.7016 18.9992 32.252 19.0442C32.814 19.0901 33.3311 19.1885 33.8164 19.4358C34.5689 19.8192 35.181 20.4313 35.5645 21.1838C35.8117 21.6691 35.9101 22.1862 35.9561 22.7483C36.001 23.2986 36 23.9765 36 24.8V25.9201C36 26.4724 35.5523 26.9201 35 26.9201C34.4477 26.9201 34 26.4724 34 25.9201ZM18.2002 17.0002C17.6236 17.0002 17.2511 17.0015 16.9678 17.0246C16.6962 17.0468 16.5953 17.0844 16.5459 17.1096C16.3579 17.2054 16.2052 17.3581 16.1094 17.5461C16.0842 17.5955 16.0466 17.6964 16.0244 17.968C16.0041 18.2171 16.0014 18.5351 16.001 19.0002H24.3818L23.9902 18.216C23.6368 17.5092 23.555 17.3746 23.4639 17.2854C23.358 17.1817 23.2299 17.1032 23.0898 17.0549C22.9692 17.0133 22.8124 17.0002 22.0225 17.0002H18.2002Z" fill="currentColor"/>
<path d="M34.999 28C35.5512 28.0001 35.999 28.4478 35.999 29C35.999 29.5522 35.5512 29.9999 34.999 30H28.1953C27.643 30 27.1953 29.5523 27.1953 29C27.1953 28.4477 27.643 28 28.1953 28H34.999Z" fill="currentColor"/>
<path d="M34.999 31C35.5512 31.0001 35.999 31.4478 35.999 32C35.999 32.5522 35.5512 32.9999 34.999 33H28.1953C27.643 33 27.1953 32.5523 27.1953 32C27.1953 31.4477 27.643 31 28.1953 31H34.999Z" fill="currentColor"/>
<path d="M34.999 34C35.5512 34.0001 35.999 34.4478 35.999 35C35.999 35.5522 35.5512 35.9999 34.999 36H28.1953C27.643 36 27.1953 35.5523 27.1953 35C27.1953 34.4477 27.643 34 28.1953 34H34.999Z" fill="currentColor"/>
</svg>
