<svg width="12" height="12" viewBox="0 0 12 12" fill="none" xmlns="http://www.w3.org/2000/svg">
<path fill-rule="evenodd" clip-rule="evenodd" d="M6 -5.24537e-07C2.6868 -2.34888e-07 2.34888e-07 2.6868 5.24537e-07 6C8.14186e-07 9.3132 2.6868 12 6 12C9.3132 12 12 9.3132 12 6C12 2.6868 9.3132 -8.14186e-07 6 -5.24537e-07ZM6.27342 3.54778C6.27342 3.1956 5.98792 2.9101 5.63573 2.9101C5.28355 2.9101 4.99805 3.1956 4.99805 3.54778L4.99805 6.5253L5.00116 6.59068C5.03171 6.89067 5.27036 7.12932 5.57035 7.15987L5.63573 7.16298L8.52436 7.16298C8.87655 7.16298 9.16205 6.87748 9.16205 6.5253C9.16205 6.17311 8.87655 5.88761 8.52436 5.88761L6.27342 5.88761L6.27342 3.54778Z" fill="#7B7B7B"/>
</svg>
