<svg width="22" height="22" viewBox="0 0 22 22" fill="none" xmlns="http://www.w3.org/2000/svg">
<path d="M17.7071 0.292893C17.3166 -0.0976311 16.6834 -0.0976311 16.2929 0.292893C15.9024 0.683418 15.9024 1.31658 16.2929 1.70711L20.2929 5.70711C20.6834 6.09763 21.3166 6.09763 21.7071 5.70711C22.0976 5.31658 22.0976 4.68342 21.7071 4.29289L17.7071 0.292893Z" fill="currentColor"/>
<path d="M13.5365 3.28045C13.8378 3.18256 14.1623 3.18256 14.4635 3.28045C14.6962 3.35603 14.8648 3.48158 14.9759 3.57587C15.0717 3.65724 15.1723 3.75787 15.2564 3.84212L18.1578 6.74349C18.2421 6.82769 18.3427 6.92824 18.4241 7.02409C18.5184 7.13517 18.6439 7.30376 18.7195 7.5364C18.8174 7.83766 18.8174 8.16219 18.7195 8.46345C18.6439 8.69608 18.5184 8.86468 18.4241 8.97576C18.3427 9.07162 18.242 9.17219 18.1578 9.25639L7.7703 19.6439C7.58362 19.8308 7.41887 19.9958 7.22797 20.1348C7.05998 20.2572 6.87973 20.3618 6.69012 20.447C6.47465 20.5437 6.24969 20.6049 5.99479 20.6743L1.26314 21.9647C0.916928 22.0591 0.546667 21.9608 0.292916 21.707C0.0391662 21.4533 -0.0591621 21.083 0.0352593 20.7368L1.32569 16.0052C1.39504 15.7503 1.45624 15.5253 1.55298 15.3098C1.63811 15.1202 1.74272 14.94 1.86511 14.772C2.00419 14.5811 2.16915 14.4163 2.35606 14.2296L12.7436 3.84215C12.8278 3.75789 12.9283 3.65725 13.0242 3.57587C13.1353 3.48158 13.3039 3.35603 13.5365 3.28045Z" fill="currentColor"/>
</svg>
