<svg width="21" height="20" viewBox="0 0 21 20" fill="none" xmlns="http://www.w3.org/2000/svg">
<path d="M1.94926e-06 14.2002V5.79981C1.82678e-06 4.97632 -0.00102054 4.29843 0.0439473 3.74805C0.0898762 3.18599 0.188274 2.6689 0.435549 2.1836C0.819018 1.43109 1.43109 0.819018 2.1836 0.435549C2.6689 0.188274 3.18599 0.0898762 3.74805 0.0439473C4.29843 -0.00102053 4.97632 1.82648e-06 5.79981 1.94926e-06H14C14.5523 1.94926e-06 15 0.447717 15 1C15 1.55229 14.5523 2 14 2H5.79981C4.94342 2 4.36117 2.00035 3.91113 2.03711C3.47272 2.07293 3.2482 2.13809 3.0918 2.21778C2.71555 2.40951 2.40951 2.71555 2.21778 3.0918C2.13809 3.2482 2.07293 3.47272 2.03711 3.91113C2.00035 4.36117 2 4.94342 2 5.79981V14.2002C2 15.0566 2.00035 15.6388 2.03711 16.0889C2.07293 16.5273 2.13809 16.7518 2.21778 16.9082C2.40951 17.2845 2.71554 17.5905 3.0918 17.7822C3.2482 17.8619 3.47272 17.9271 3.91113 17.9629C4.36117 17.9997 4.94342 18 5.79981 18H14.2002C15.0566 18 15.6388 17.9997 16.0889 17.9629C16.5273 17.9271 16.7518 17.8619 16.9082 17.7822C17.2845 17.5905 17.5905 17.2845 17.7822 16.9082C17.8619 16.7518 17.9271 16.5273 17.9629 16.0889C17.9997 15.6388 18 15.0566 18 14.2002V10C18 9.44772 18.4477 9 19 9C19.5523 9 20 9.44772 20 10V14.2002C20 15.0237 20.001 15.7016 19.9561 16.252C19.9101 16.814 19.8117 17.3311 19.5645 17.8164C19.181 18.5689 18.5689 19.181 17.8164 19.5645C17.3311 19.8117 16.814 19.9101 16.252 19.9561C15.7016 20.001 15.0237 20 14.2002 20H5.79981C4.97632 20 4.29843 20.001 3.74805 19.9561C3.18599 19.9101 2.6689 19.8117 2.1836 19.5645C1.43109 19.181 0.819018 18.5689 0.435549 17.8164C0.188273 17.3311 0.0898762 16.814 0.0439473 16.252C-0.00102053 15.7016 1.82648e-06 15.0237 1.94926e-06 14.2002ZM19.293 1.29297C19.6835 0.902447 20.3165 0.902447 20.707 1.29297C21.0976 1.68349 21.0976 2.31651 20.707 2.70703L10.707 12.707C10.3165 13.0976 9.68349 13.0976 9.29297 12.707L6.29297 9.70703C5.90245 9.31651 5.90245 8.68349 6.29297 8.29297C6.68349 7.90245 7.31651 7.90245 7.70703 8.29297L10 10.5859L19.293 1.29297Z" fill="currentColor"/>
</svg>
