 <svg width="36" height="36" viewBox="0 0 36 36" fill="none" xmlns="http://www.w3.org/2000/svg">
          <g clip-path="url(#clip0_18955_45009)">
            <path
              d="M0.849937 12.5219C0.298547 14.2493 -7.03001e-05 16.0896 1.2414e-08 18C-7.03001e-05 19.9103 0.298617 21.7508 0.850008 23.4782L18 24.2609L35.15 23.4784C35.7013 21.7508 36.0001 19.9103 36.0001 18.0001C36 16.0897 35.7014 14.2493 35.15 12.5218L18 11.7393L0.849937 12.5219Z"
              fill="#F0F0F0" />
            <path
              d="M35.1518 12.5218L18.0018 11.7393L0.851703 12.5218C0.688297 13.034 0.547602 13.5562 0.429688 14.0871H35.5736C35.4558 13.5561 35.3152 13.0339 35.1518 12.5218Z"
              fill="#D80027" />
            <path
              d="M0.429688 21.9131C0.547461 22.4439 0.688156 22.9661 0.851563 23.4782L0.85325 23.4783L18.0015 24.2609L35.1515 23.4783C35.3149 22.9662 35.4556 22.4439 35.5734 21.9131H0.429688Z"
              fill="#D80027" />
            <path
              d="M18.0015 36.0003C26.0323 36.0003 32.8336 30.7407 35.1515 23.4785H0.851562C3.16941 30.7406 9.97088 36.0003 18.0015 36.0003Z"
              fill="#6DA544" />
            <path
              d="M18.0016 7.04959e-10C9.97088 7.03132e-05 3.16955 5.25966 0.851562 12.5217L35.1515 12.5218C32.8338 5.25959 26.0324 -7.03118e-05 18.0016 7.04959e-10Z"
              fill="#338AF3" />
            <path
              d="M8.22417 7.43476C8.22417 5.74887 9.40901 4.34052 10.9913 3.995C10.7481 3.94184 10.4958 3.91309 10.2366 3.91309C8.2916 3.91309 6.71484 5.48977 6.71484 7.43483C6.71484 9.37988 8.29146 10.9566 10.2366 10.9566C10.4958 10.9566 10.748 10.9277 10.9913 10.8747C9.40908 10.529 8.22417 9.12064 8.22417 7.43476Z"
              fill="#F0F0F0" />
            <path
              d="M13.0725 9.03613L13.3108 9.76984H14.0823L13.4582 10.2234L13.6966 10.9571L13.0725 10.5036L12.4482 10.9571L12.6867 10.2234L12.0625 9.76984H12.834L13.0725 9.03613Z"
              fill="#F0F0F0" />
            <path
              d="M15.5333 9.03613L15.7717 9.76984H16.5432L15.919 10.2234L16.1574 10.9571L15.5333 10.5036L14.9091 10.9571L15.1475 10.2234L14.5234 9.76984H15.2948L15.5333 9.03613Z"
              fill="#F0F0F0" />
            <path
              d="M17.9982 9.03613L18.2366 9.76984H19.0081L18.384 10.2234L18.6223 10.9571L17.9982 10.5036L17.374 10.9571L17.6125 10.2234L16.9883 9.76984H17.7598L17.9982 9.03613Z"
              fill="#F0F0F0" />
            <path
              d="M20.4592 9.03613L20.6976 9.76984H21.469L20.8449 10.2234L21.0834 10.9571L20.4592 10.5036L19.835 10.9571L20.0735 10.2234L19.4492 9.76984H20.2207L20.4592 9.03613Z"
              fill="#F0F0F0" />
            <path
              d="M22.9239 9.03613L23.1623 9.76984H23.9338L23.3097 10.2234L23.5481 10.9571L22.9239 10.5036L22.2997 10.9571L22.5382 10.2234L21.9141 9.76984H22.6855L22.9239 9.03613Z"
              fill="#F0F0F0" />
            <path
              d="M15.5333 6.47461L15.7717 7.20825H16.5432L15.919 7.66184L16.1574 8.39548L15.5333 7.94203L14.9091 8.39548L15.1475 7.66184L14.5234 7.20825H15.2948L15.5333 6.47461Z"
              fill="#F0F0F0" />
            <path
              d="M17.9982 6.47461L18.2366 7.20825H19.0081L18.384 7.66184L18.6223 8.39548L17.9982 7.94203L17.374 8.39548L17.6125 7.66184L16.9883 7.20825H17.7598L17.9982 6.47461Z"
              fill="#F0F0F0" />
            <path
              d="M20.4592 6.47461L20.6976 7.20825H21.469L20.8449 7.66184L21.0834 8.39548L20.4592 7.94203L19.835 8.39548L20.0735 7.66184L19.4492 7.20825H20.2207L20.4592 6.47461Z"
              fill="#F0F0F0" />
            <path
              d="M22.9239 6.47461L23.1623 7.20825H23.9338L23.3097 7.66184L23.5481 8.39548L22.9239 7.94203L22.2997 8.39548L22.5382 7.66184L21.9141 7.20825H22.6855L22.9239 6.47461Z"
              fill="#F0F0F0" />
            <path
              d="M17.9982 3.91309L18.2366 4.64687H19.0081L18.384 5.10031L18.6223 5.83409L17.9982 5.38065L17.374 5.83409L17.6125 5.10031L16.9883 4.64687H17.7598L17.9982 3.91309Z"
              fill="#F0F0F0" />
            <path
              d="M20.4592 3.91309L20.6976 4.64687H21.469L20.8449 5.10031L21.0834 5.83409L20.4592 5.38065L19.835 5.83409L20.0735 5.10031L19.4492 4.64687H20.2207L20.4592 3.91309Z"
              fill="#F0F0F0" />
            <path
              d="M22.9239 3.91309L23.1623 4.64687H23.9338L23.3097 5.10031L23.5481 5.83409L22.9239 5.38065L22.2997 5.83409L22.5382 5.10031L21.9141 4.64687H22.6855L22.9239 3.91309Z"
              fill="#F0F0F0" />
          </g>
          <defs>
            <clipPath id="clip0_18955_45009">
              <rect width="36" height="36" fill="white" />
            </clipPath>
          </defs>
        </svg>