<svg width="12" height="12" viewBox="0 0 12 12" fill="none" xmlns="http://www.w3.org/2000/svg">
<path fill-rule="evenodd" clip-rule="evenodd" d="M6 0C2.68629 0 0 2.68629 0 6C0 9.31371 2.68629 12 6 12C9.31371 12 12 9.31371 12 6C12 2.68629 9.31371 0 6 0ZM6 3.27273C6.30125 3.27273 6.54545 3.51694 6.54545 3.81818V6.86497L7.79612 5.61431C8.00914 5.40129 8.3545 5.40129 8.56751 5.61431C8.78053 5.82732 8.78053 6.17268 8.56751 6.38569L6.38569 8.56751C6.17268 8.78053 5.82732 8.78053 5.61431 8.56751L3.43249 6.38569C3.21947 6.17268 3.21947 5.82732 3.43249 5.61431C3.6455 5.40129 3.99086 5.40129 4.20388 5.61431L5.45455 6.86497V3.81818C5.45455 3.51694 5.69875 3.27273 6 3.27273Z" fill="#7D52F4"/>
</svg>
