<svg width="12" height="12" viewBox="0 0 12 12" fill="none" xmlns="http://www.w3.org/2000/svg">
<path fill-rule="evenodd" clip-rule="evenodd" d="M10.2426 1.75736C7.89949 -0.585787 4.10051 -0.585787 1.75736 1.75736C-0.585787 4.10051 -0.585787 7.89949 1.75736 10.2426C4.10051 12.5858 7.89949 12.5858 10.2426 10.2426C12.5858 7.89949 12.5858 4.10051 10.2426 1.75736ZM7.92847 4.07153C8.14149 4.28454 8.14149 4.6299 7.92847 4.84292L5.77407 6.99732H7.54278C7.84403 6.99732 8.08823 7.24153 8.08823 7.54278C8.08823 7.84403 7.84403 8.08823 7.54278 8.08823H4.45722C4.15598 8.08823 3.91177 7.84403 3.91177 7.54278V4.45722C3.91177 4.15598 4.15598 3.91177 4.45722 3.91177C4.75847 3.91177 5.00268 4.15598 5.00268 4.45722V6.22593L7.15708 4.07153C7.3701 3.85851 7.71546 3.85851 7.92847 4.07153Z" fill="#171717"/>
</svg>
