<svg width="12" height="12" viewBox="0 0 12 12" fill="none" xmlns="http://www.w3.org/2000/svg">
<path fill-rule="evenodd" clip-rule="evenodd" d="M6 0C2.68629 0 0 2.68629 0 6C0 9.31371 2.68629 12 6 12C9.31371 12 12 9.31371 12 6C12 2.68629 9.31371 0 6 0ZM8.02206 3.97794C8.23507 4.19096 8.23507 4.53632 8.02206 4.74933L6.77139 6L8.02206 7.25067C8.23507 7.46368 8.23507 7.80905 8.02206 8.02206C7.80905 8.23507 7.46368 8.23507 7.25067 8.02206L6 6.77139L4.74933 8.02206C4.53632 8.23507 4.19096 8.23507 3.97794 8.02206C3.76493 7.80905 3.76493 7.46368 3.97794 7.25067L5.22861 6L3.97794 4.74933C3.76493 4.53632 3.76493 4.19096 3.97794 3.97794C4.19096 3.76493 4.53632 3.76493 4.74933 3.97794L6 5.22861L7.25067 3.97794C7.46368 3.76493 7.80905 3.76493 8.02206 3.97794Z" fill="#D1D1D1"/>
</svg>
