<svg width="132" height="21" viewBox="0 0 132 21" fill="none" xmlns="http://www.w3.org/2000/svg">
  <circle cx="2" cy="10.5" r="2" fill="#FFFFFF"/>
  <circle cx="8" cy="10.5" r="2" fill="#FFFFFF"/>
  <circle cx="16" cy="10.5" r="2" fill="#FFFFFF"/>
  <circle cx="22" cy="10.5" r="2" fill="#FFFFFF"/>
  <circle cx="28" cy="10.5" r="2" fill="#FFFFFF"/>
  <circle cx="36" cy="10.5" r="2" fill="#FFFFFF"/>
  <circle cx="42" cy="10.5" r="2" fill="#FFFFFF"/>
  <circle cx="48" cy="10.5" r="2" fill="#FFFFFF"/>
  <circle cx="56" cy="10.5" r="2" fill="#FFFFFF"/>
  <circle cx="62" cy="10.5" r="2" fill="#FFFFFF"/>
  <circle cx="70" cy="10.5" r="2" fill="#FFFFFF"/>
  <circle cx="76" cy="10.5" r="2" fill="#FFFFFF"/>
  <circle cx="82" cy="10.5" r="2" fill="#FFFFFF"/>
  <circle cx="90" cy="10.5" r="2" fill="#FFFFFF"/>
  <circle cx="96" cy="10.5" r="2" fill="#FFFFFF"/>
  <circle cx="104" cy="10.5" r="2" fill="#FFFFFF"/>
  <circle cx="110" cy="10.5" r="2" fill="#FFFFFF"/>
  <circle cx="116" cy="10.5" r="2" fill="#FFFFFF"/>
  <circle cx="124" cy="10.5" r="2" fill="#FFFFFF"/>
  <circle cx="130" cy="10.5" r="2" fill="#FFFFFF"/>
</svg>
