<svg width="36" height="36" viewBox="0 0 36 36" fill="none" xmlns="http://www.w3.org/2000/svg">
<g clip-path="url(#clip0_18989_58676)">
<rect width="38.0556" height="38.0556" transform="translate(-1.5 -1.5)" fill="#17A755"/>
<path d="M20.4124 9.60085C16.0347 8.0075 11.1942 10.2647 9.60085 14.6423C8.59099 17.4169 9.12787 20.3773 10.771 22.5792L11.4688 20.6622C10.6238 19.0281 10.4384 17.0592 11.1172 15.1943C12.4058 11.654 16.3202 9.82869 19.8604 11.1172C20.0697 11.1934 20.273 11.2787 20.47 11.3726L18.5262 16.7132H17.1211L18.337 13.3728L15.5295 13.3657L11.7699 23.6951C12.575 24.4473 13.5416 25.0532 14.6423 25.4538C19.02 27.0472 23.8605 24.79 25.4538 20.4124C26.4637 17.6378 25.9268 14.6773 24.2837 12.4755L23.5859 14.3925C24.4309 16.0266 24.6163 17.9955 23.9375 19.8604C22.6489 23.4007 18.7345 25.226 15.1943 23.9375C14.985 23.8613 14.7817 23.776 14.5847 23.6821L16.5338 18.3269H17.9388L16.7177 21.6819L19.5252 21.689L23.2848 11.3596C22.4797 10.6074 21.5131 10.0015 20.4124 9.60085Z" fill="white"/>
</g>
<defs>
<clipPath id="clip0_18989_58676">
<rect width="36" height="36" rx="9" fill="white"/>
</clipPath>
</defs>
</svg>
