<svg width="132" height="21" viewBox="0 0 132 21" fill="none" xmlns="http://www.w3.org/2000/svg">
<circle cx="2" cy="10.5" r="2" fill="#171717"/>
<circle cx="8" cy="10.5" r="2" fill="#171717"/>
<circle cx="16" cy="10.5" r="2" fill="#171717"/>
<circle cx="22" cy="10.5" r="2" fill="#171717"/>
<circle cx="28" cy="10.5" r="2" fill="#171717"/>
<circle cx="36" cy="10.5" r="2" fill="#171717"/>
<circle cx="42" cy="10.5" r="2" fill="#171717"/>
<circle cx="48" cy="10.5" r="2" fill="#171717"/>
<circle cx="56" cy="10.5" r="2" fill="#171717"/>
<circle cx="62" cy="10.5" r="2" fill="#171717"/>
<circle cx="70" cy="10.5" r="2" fill="#171717"/>
<circle cx="76" cy="10.5" r="2" fill="#171717"/>
<circle cx="82" cy="10.5" r="2" fill="#171717"/>
<circle cx="90" cy="10.5" r="2" fill="#171717"/>
<circle cx="96" cy="10.5" r="2" fill="#171717"/>
<circle cx="104" cy="10.5" r="2" fill="#171717"/>
<circle cx="110" cy="10.5" r="2" fill="#171717"/>
<circle cx="116" cy="10.5" r="2" fill="#171717"/>
<circle cx="124" cy="10.5" r="2" fill="#171717"/>
<circle cx="130" cy="10.5" r="2" fill="#171717"/>
</svg>
