<svg width="34" height="30" viewBox="0 0 34 30" fill="none" xmlns="http://www.w3.org/2000/svg">
<path d="M15.6765 0.259344C16.3554 -0.0424478 17.1182 -0.0812718 17.8181 0.145086L18.114 0.259344L18.3294 0.367742C18.8088 0.641327 19.1368 1.04245 19.3738 1.37702C19.649 1.7656 19.9443 2.27873 20.2703 2.84186L32.6072 24.1524C32.9345 24.7178 33.2343 25.2307 33.4348 25.6641C33.632 26.0903 33.8458 26.6641 33.7776 27.3179C33.6893 28.1639 33.2453 28.933 32.5574 29.4332C32.0257 29.8196 31.4224 29.9206 30.9548 29.9634C30.4793 30.0071 29.8854 30.0059 29.2322 30.0059H4.55689C3.90385 30.0059 3.30963 30.0071 2.83424 29.9634C2.36668 29.9205 1.76323 29.8196 1.2317 29.4332C0.543898 28.933 0.101302 28.1638 0.0129489 27.3179C-0.0552244 26.664 0.158547 26.0903 0.355722 25.6641C0.556192 25.2308 0.85469 24.7176 1.18189 24.1524L13.5203 2.84186C13.8463 2.27879 14.1416 1.76554 14.4168 1.37702C14.6877 0.994595 15.0773 0.525773 15.6765 0.259344ZM16.8645 3.11139C16.6877 3.361 16.4715 3.73077 16.116 4.34479L3.77906 25.6553C3.42219 26.2717 3.20788 26.6451 3.07887 26.9239C3.07153 26.9397 3.06597 26.9554 3.05982 26.9693C3.0749 26.9709 3.09082 26.975 3.10816 26.9766C3.41401 27.0047 3.84483 27.0059 4.55689 27.0059H29.2322C29.9446 27.0059 30.375 27.0047 30.6809 26.9766C30.6982 26.975 30.7142 26.9709 30.7293 26.9693C30.7231 26.9555 30.719 26.9396 30.7117 26.9239C30.5827 26.6451 30.3684 26.2718 30.0115 25.6553L17.6731 4.34479C17.3176 3.73079 17.1013 3.36096 16.9246 3.11139C16.9145 3.09716 16.9028 3.08555 16.8938 3.07331C16.885 3.08529 16.8743 3.09751 16.8645 3.11139ZM16.9099 21.7559C17.7382 21.7559 18.4097 22.4277 18.4099 23.2559C18.4099 24.0843 17.7383 24.7559 16.9099 24.7559H16.8953C16.0668 24.7559 15.3953 24.0844 15.3953 23.2559C15.3955 22.4277 16.067 21.7559 16.8953 21.7559H16.9099ZM15.3953 17.2559V11.2559C15.3955 10.4277 16.067 9.75593 16.8953 9.75593C17.7234 9.75612 18.3951 10.4278 18.3953 11.2559V17.2559C18.3953 18.0842 17.7235 18.7557 16.8953 18.7559C16.0668 18.7559 15.3953 18.0844 15.3953 17.2559Z" fill="#171717"/>
</svg>
