<svg width="25" height="25" viewBox="0 0 25 25" fill="none" xmlns="http://www.w3.org/2000/svg">
<path d="M12.5564 9.75389V13.7539M12.5564 17.7539H12.5664M11.1717 4.64562L2.94683 18.8522C2.49062 19.6402 2.26252 20.0342 2.29623 20.3576C2.32564 20.6396 2.47341 20.8959 2.70277 21.0627C2.96572 21.2539 3.42099 21.2539 4.33151 21.2539H20.7813C21.6918 21.2539 22.1471 21.2539 22.41 21.0627C22.6394 20.8959 22.7872 20.6396 22.8166 20.3576C22.8503 20.0342 22.6222 19.6402 22.166 18.8522L13.9411 4.64561C13.4865 3.86045 13.2592 3.46787 12.9627 3.33602C12.704 3.221 12.4088 3.221 12.1501 3.33602C11.8536 3.46787 11.6263 3.86045 11.1717 4.64562Z" stroke="#FA7319" stroke-width="2" stroke-linecap="round" stroke-linejoin="round"/>
</svg>
