<svg width="20" height="20" viewBox="0 0 20 20" fill="none" xmlns="http://www.w3.org/2000/svg">
<path d="M7 18C7.55229 18 8 18.4477 8 19C8 19.5523 7.55229 20 7 20H4C3.44772 20 3 19.5523 3 19C3 18.4477 3.44772 18 4 18H7ZM16 18C16.5523 18 17 18.4477 17 19C17 19.5523 16.5523 20 16 20H13C12.4477 20 12 19.5523 12 19C12 18.4477 12.4477 18 13 18H16ZM18 4.2002C18 3.62365 17.9987 3.25112 17.9756 2.96778C17.9534 2.69619 17.9158 2.59534 17.8906 2.5459C17.7948 2.35793 17.6421 2.20522 17.4541 2.10938C17.4047 2.08419 17.3038 2.04662 17.0322 2.02442C16.7489 2.00127 16.3764 2 15.7998 2H4.2002C3.62365 2 3.25112 2.00127 2.96778 2.02442C2.69619 2.04662 2.59534 2.08419 2.5459 2.10938C2.35793 2.20522 2.20522 2.35793 2.10938 2.5459C2.08419 2.59534 2.04662 2.69619 2.02442 2.96778C2.00127 3.25112 2 3.62365 2 4.2002V12.7998C2 13.3764 2.00127 13.7489 2.02442 14.0322C2.04662 14.3038 2.08419 14.4047 2.10938 14.4541C2.20522 14.6421 2.35793 14.7948 2.5459 14.8906C2.59534 14.9158 2.69619 14.9534 2.96778 14.9756C3.25112 14.9987 3.62365 15 4.2002 15H15.7998C16.3764 15 16.7489 14.9987 17.0322 14.9756C17.3038 14.9534 17.4047 14.9158 17.4541 14.8906C17.6421 14.7948 17.7948 14.6421 17.8906 14.4541C17.9158 14.4047 17.9534 14.3038 17.9756 14.0322C17.9987 13.7489 18 13.3764 18 12.7998V4.2002ZM14.5 12.5V4.5C14.5 3.94772 14.9477 3.5 15.5 3.5C16.0523 3.5 16.5 3.94772 16.5 4.5V12.5C16.5 13.0523 16.0523 13.5 15.5 13.5C14.9477 13.5 14.5 13.0523 14.5 12.5ZM8.5 8.5C8.5 7.67158 7.82843 7 7 7C6.17158 7 5.5 7.67158 5.5 8.5C5.5 9.32843 6.17158 10 7 10C7.82843 10 8.5 9.32843 8.5 8.5ZM10.5 8.5C10.5 10.433 8.933 12 7 12C5.06701 12 3.5 10.433 3.5 8.5C3.5 6.56701 5.06701 5 7 5C8.933 5 10.5 6.56701 10.5 8.5ZM20 12.7998C20 13.3434 20.0011 13.8116 19.9697 14.1953C19.9374 14.5906 19.8656 14.984 19.6729 15.3623C19.3853 15.9265 18.9265 16.3853 18.3623 16.6729C17.984 16.8656 17.5906 16.9374 17.1953 16.9697C16.8116 17.0011 16.3434 17 15.7998 17H4.2002C3.65665 17 3.18836 17.0011 2.80469 16.9697C2.40943 16.9374 2.016 16.8656 1.6377 16.6729C1.07348 16.3853 0.614727 15.9265 0.327153 15.3623C0.134401 14.984 0.0625889 14.5906 0.0302779 14.1953C-0.0010693 13.8116 4.40558e-06 13.3434 4.41508e-06 12.7998V4.2002C4.42459e-06 3.65665 -0.00106933 3.18836 0.0302779 2.80469C0.0625888 2.40943 0.134401 2.016 0.327153 1.6377C0.614727 1.07348 1.07348 0.614727 1.6377 0.327153C2.016 0.134401 2.40943 0.0625888 2.80469 0.0302779C3.18836 -0.00106927 3.65665 4.36379e-06 4.2002 4.42319e-06H15.7998C16.3434 4.48259e-06 16.8116 -0.00106934 17.1953 0.0302779C17.5906 0.0625888 17.984 0.134401 18.3623 0.327153C18.9265 0.614727 19.3853 1.07348 19.6729 1.6377C19.8656 2.016 19.9374 2.40943 19.9697 2.80469C20.0011 3.18836 20 3.65665 20 4.2002V12.7998Z" fill="#00A38D"/>
</svg>
