<svg width="20" height="21" viewBox="0 0 20 21" fill="none" xmlns="http://www.w3.org/2000/svg">
<path d="M19 18.9998C19.5522 18.9998 19.9999 19.4476 20 19.9998C20 20.5521 19.5523 20.9998 19 20.9998H1C0.447715 20.9998 0 20.5521 0 19.9998C0.000118524 19.4476 0.447788 18.9998 1 18.9998H19ZM3 16.9998V8.99978C3.00012 8.44759 3.44779 7.99978 4 7.99978C4.55221 7.99978 4.99988 8.44759 5 8.99978V16.9998C5 17.5521 4.55228 17.9998 4 17.9998C3.44772 17.9998 3 17.5521 3 16.9998ZM7 16.9998V8.99978C7.00012 8.44759 7.44779 7.99978 8 7.99978C8.55221 7.99978 8.99988 8.44759 9 8.99978V16.9998C9 17.5521 8.55228 17.9998 8 17.9998C7.44772 17.9998 7 17.5521 7 16.9998ZM11 16.9998V8.99978C11.0001 8.44759 11.4478 7.99978 12 7.99978C12.5522 7.99978 12.9999 8.44759 13 8.99978V16.9998C13 17.5521 12.5523 17.9998 12 17.9998C11.4477 17.9998 11 17.5521 11 16.9998ZM15 16.9998V8.99978C15.0001 8.44759 15.4478 7.99978 16 7.99978C16.5522 7.99978 16.9999 8.44759 17 8.99978V16.9998C17 17.5521 16.5523 17.9998 16 17.9998C15.4477 17.9998 15 17.5521 15 16.9998ZM10.167 0.0993871L10.332 0.126731L10.4375 0.156028C10.6775 0.232554 10.8739 0.366652 10.9541 0.41677L18.5303 5.15212C18.9084 5.38861 19.0839 5.84742 18.9609 6.27614C18.8378 6.70469 18.4459 6.99978 18 6.99978H2C1.55407 6.99978 1.16221 6.70469 1.03906 6.27614C0.916105 5.84742 1.0916 5.38861 1.46973 5.15212L9.0459 0.41677C9.13753 0.359498 9.38114 0.191908 9.66797 0.126731L9.83301 0.0993871C9.94402 0.0869475 10.056 0.0869475 10.167 0.0993871ZM5.48828 4.99978H14.5117L10 2.17947L5.48828 4.99978Z" fill="#00A38D"/>
</svg>
