<svg width="20" height="23" viewBox="0 0 20 23" fill="none" xmlns="http://www.w3.org/2000/svg">
<path d="M7.27516 20.5C8.00136 21.1224 8.95526 21.5 10 21.5C11.0447 21.5 11.9986 21.1224 12.7248 20.5M16.1792 7.5C16.1792 5.9087 15.5282 4.38258 14.3693 3.25736C13.2105 2.13214 11.6388 1.5 10 1.5C8.36118 1.5 6.78948 2.13214 5.63066 3.25736C4.47184 4.38258 3.82083 5.9087 3.82083 7.5C3.82083 10.5902 3.01802 12.706 2.12121 14.1054C1.36474 15.2859 0.986499 15.8761 1.00037 16.0408C1.01572 16.2231 1.0555 16.2926 1.2068 16.4016C1.34345 16.5 1.95944 16.5 3.19143 16.5H16.8086C18.0406 16.5 18.6565 16.5 18.7932 16.4016C18.9445 16.2926 18.9843 16.2231 18.9996 16.0408C19.0135 15.8761 18.6353 15.2859 17.8788 14.1054C16.982 12.706 16.1792 10.5902 16.1792 7.5Z" stroke="#101010" stroke-width="2" stroke-linecap="round" stroke-linejoin="round"/>
</svg>
