<svg width="24" height="24" viewBox="0 0 24 24" fill="none" xmlns="http://www.w3.org/2000/svg">
  <path
    d="M18.15 24H5.85C3.86177 24 2.25 22.3882 2.25 20.4V3.6C2.25 1.61178 3.86178 0 5.85 0H12.3533C13.2984 0 14.2056 0.371664 14.8791 1.03476L20.6758 6.7423C21.363 7.41897 21.75 8.34309 21.75 9.30755V20.4C21.75 22.3882 20.1382 24 18.15 24Z"
    fill="white"/>
  <path
    d="M2.25 20.4001V3.59985C2.25008 1.61174 3.86174 7.94326e-05 5.84985 0H12.353C13.2981 0 14.2057 0.371817 14.8792 1.03491L20.6755 6.74194C21.3628 7.41861 21.75 8.34316 21.75 9.30762V20.4001L21.7456 20.5854C21.6522 22.4261 20.1761 23.9022 18.3354 23.9956L18.1501 24V23.0999C19.6412 23.0998 20.8498 21.8912 20.8499 20.4001V9.30762C20.8499 8.58428 20.5596 7.89104 20.0442 7.38354L14.2478 1.67578C13.7427 1.17849 13.0618 0.900146 12.353 0.900146H5.84985C4.3588 0.900226 3.15023 2.1088 3.15015 3.59985V20.4001C3.15023 21.8912 4.3588 23.0998 5.84985 23.0999V24C3.92389 23.9999 2.3509 22.4874 2.25439 20.5854L2.25 20.4001ZM18.1501 23.0999V24H5.84985V23.0999H18.1501Z"
    fill="#D1D1D1"/>
  <path
    d="M13.0508 5.84985V0.75H13.9502V5.84985C13.9502 6.92681 14.8237 7.80029 15.9006 7.80029H21.0005V8.69971H15.9006C14.3266 8.69971 13.0508 7.42386 13.0508 5.84985Z"
    fill="#D1D1D1"/>
</svg>
