<svg width="68" height="68" viewBox="0 0 68 68" fill="none" xmlns="http://www.w3.org/2000/svg">
<rect width="68" height="68" rx="34" fill="#F5F5F5"/>
<path d="M41.5 31V28C41.5 23.8579 38.1421 20.5 34 20.5C29.8579 20.5 26.5 23.8579 26.5 28V31M34 37.75V40.75M29.2 47.5H38.8C41.3202 47.5 42.5804 47.5 43.543 47.0095C44.3897 46.5781 45.0781 45.8897 45.5095 45.043C46 44.0804 46 42.8202 46 40.3V38.2C46 35.6798 46 34.4196 45.5095 33.457C45.0781 32.6103 44.3897 31.9219 43.543 31.4905C42.5804 31 41.3202 31 38.8 31H29.2C26.6798 31 25.4196 31 24.457 31.4905C23.6103 31.9219 22.9219 32.6103 22.4905 33.457C22 34.4196 22 35.6798 22 38.2V40.3C22 42.8202 22 44.0804 22.4905 45.043C22.9219 45.8897 23.6103 46.5781 24.457 47.0095C25.4196 47.5 26.6798 47.5 29.2 47.5Z" stroke="#00A38D" stroke-width="3" stroke-linecap="round" stroke-linejoin="round"/>
</svg>
