<svg xmlns="http://www.w3.org/2000/svg" width="24" height="24" viewBox="0 0 24 24" fill="none">
  <rect width="24" height="24" rx="9" fill="#F5F5F5"/>
  <path fill-rule="evenodd" clip-rule="evenodd" d="M12 7C10.3431 7 9 8.34315 9 10V11.0136C8.95663 11.016 8.91466 11.0188 8.87409 11.0221C8.59304 11.0451 8.33469 11.0943 8.09202 11.218C7.7157 11.4097 7.40973 11.7157 7.21799 12.092C7.09434 12.3347 7.04506 12.593 7.0221 12.8741C6.99999 13.1447 6.99999 13.4769 7 13.8793V14.1207C6.99999 14.5231 6.99999 14.8553 7.0221 15.1259C7.04506 15.407 7.09434 15.6653 7.21799 15.908C7.40973 16.2843 7.7157 16.5903 8.09202 16.782C8.33469 16.9057 8.59304 16.9549 8.87409 16.9779C9.14469 17 9.47687 17 9.87936 17H14.1206C14.5231 17 14.8553 17 15.1259 16.9779C15.407 16.9549 15.6653 16.9057 15.908 16.782C16.2843 16.5903 16.5903 16.2843 16.782 15.908C16.9057 15.6653 16.9549 15.407 16.9779 15.1259C17 14.8553 17 14.5231 17 14.1207V13.8793C17 13.4769 17 13.1447 16.9779 12.8741C16.9549 12.593 16.9057 12.3347 16.782 12.092C16.5903 11.7157 16.2843 11.4097 15.908 11.218C15.6653 11.0943 15.407 11.0451 15.1259 11.0221C15.0853 11.0188 15.0434 11.016 15 11.0136V10C15 8.34315 13.6569 7 12 7ZM14 11V10C14 8.89543 13.1046 8 12 8C10.8954 8 10 8.89543 10 10V11H14Z" fill="#FF4433"/>
</svg>
