<svg width="68" height="68" viewBox="0 0 68 68" fill="none" xmlns="http://www.w3.org/2000/svg">
<rect width="68" height="68" rx="34" fill="#F7F7F7"/>
<path d="M47.5 34C47.5 26.5442 41.4558 20.5 34 20.5C26.5442 20.5 20.5 26.5442 20.5 34C20.5 41.4558 26.5442 47.5 34 47.5C41.4558 47.5 47.5 41.4558 47.5 34ZM40 32.5C40.8284 32.5 41.5 33.1716 41.5 34C41.5 34.8284 40.8284 35.5 40 35.5H28C27.1716 35.5 26.5 34.8284 26.5 34C26.5 33.1716 27.1716 32.5 28 32.5H40ZM50.5 34C50.5 43.1127 43.1127 50.5 34 50.5C24.8873 50.5 17.5 43.1127 17.5 34C17.5 24.8873 24.8873 17.5 34 17.5C43.1127 17.5 50.5 24.8873 50.5 34Z" fill="#171717"/>
</svg>
