<svg width="15" height="12" viewBox="0 0 15 12" fill="none" xmlns="http://www.w3.org/2000/svg">
<path d="M1.17423 6.45847C1.08431 6.31985 1.03935 6.25053 1.01418 6.14362C0.995274 6.06332 0.995274 5.93668 1.01418 5.85638C1.03935 5.74947 1.08431 5.68015 1.17423 5.54153C1.91733 4.39597 4.12921 1.5 7.5 1.5C10.8708 1.5 13.0827 4.39597 13.8258 5.54153C13.9157 5.68015 13.9607 5.74947 13.9858 5.85638C14.0047 5.93668 14.0047 6.06332 13.9858 6.14362C13.9607 6.25053 13.9157 6.31985 13.8258 6.45847C13.0827 7.60403 10.8708 10.5 7.5 10.5C4.12922 10.5 1.91733 7.60403 1.17423 6.45847Z" stroke="white" stroke-width="1.5" stroke-linecap="round" stroke-linejoin="round"/>
<path d="M7.5 7.92857C8.594 7.92857 9.48087 7.06512 9.48087 6C9.48087 4.93488 8.594 4.07143 7.5 4.07143C6.40599 4.07143 5.51913 4.93488 5.51913 6C5.51913 7.06512 6.40599 7.92857 7.5 7.92857Z" stroke="white" stroke-width="1.5" stroke-linecap="round" stroke-linejoin="round"/>
</svg>
