<svg width="20" height="16" viewBox="0 0 20 16" fill="none" xmlns="http://www.w3.org/2000/svg">
<path d="M17.4997 12.9165C17.4997 12.6696 17.4987 12.5343 17.4907 12.4372C17.4904 12.4334 17.4894 12.43 17.4891 12.4266C17.486 12.4263 17.4827 12.4261 17.4793 12.4258C17.3822 12.4179 17.2469 12.4168 17 12.4168H13.8327C13.5858 12.4168 13.4505 12.4179 13.3534 12.4258C13.3496 12.4261 13.3461 12.4263 13.3428 12.4266C13.3425 12.4299 13.3423 12.4335 13.342 12.4372C13.334 12.5343 13.333 12.6696 13.333 12.9165V13.5838C13.333 13.8307 13.334 13.966 13.342 14.0632C13.3422 14.0666 13.3425 14.0698 13.3428 14.0729C13.3461 14.0732 13.3496 14.0742 13.3534 14.0745C13.4505 14.0825 13.5858 14.0835 13.8327 14.0835H17C17.2469 14.0835 17.3822 14.0825 17.4793 14.0745C17.4828 14.0743 17.486 14.0732 17.4891 14.0729C17.4894 14.0698 17.4904 14.0666 17.4907 14.0632C17.4987 13.966 17.4997 13.8307 17.4997 13.5838V12.9165ZM17.4997 3.83366C17.4997 3.3532 17.4986 3.04276 17.4793 2.80664C17.4608 2.58032 17.4295 2.49628 17.4085 2.45508C17.3287 2.29844 17.2014 2.17118 17.0448 2.09131C17.0036 2.07032 16.9195 2.03901 16.6932 2.02051C16.4571 2.00122 16.1466 2.00017 15.6662 2.00017H4.33317C3.85271 2.00017 3.54227 2.00122 3.30616 2.02051C3.07983 2.03901 2.99579 2.07032 2.95459 2.09131C2.79795 2.17118 2.67069 2.29844 2.59082 2.45508C2.56983 2.49628 2.53852 2.58032 2.52002 2.80664C2.50073 3.04276 2.49968 3.3532 2.49968 3.83366V4.50017H17.4997V3.83366ZM16.0413 10.1252C16.0413 9.77999 15.7615 9.50017 15.4163 9.50017C15.0712 9.50017 14.7913 9.77999 14.7913 10.1252V10.7502H16.0413V10.1252ZM17.708 10.7746C17.8767 10.7945 18.0663 10.8347 18.2565 10.9316C18.5309 11.0715 18.7605 11.2842 18.9206 11.5453L18.9849 11.66L19.0573 11.8293C19.1169 11.9966 19.1408 12.1585 19.1525 12.3013C19.1673 12.482 19.1663 12.697 19.1663 12.9165V13.5838C19.1663 13.8033 19.1673 14.0184 19.1525 14.1991C19.1369 14.3895 19.1 14.6143 18.9849 14.8403C18.8251 15.1539 18.5701 15.4089 18.2565 15.5687C18.0305 15.6839 17.8057 15.7208 17.6152 15.7363C17.4346 15.7511 17.2195 15.7502 17 15.7502H13.8327C13.6132 15.7502 13.3981 15.7511 13.2175 15.7363C13.027 15.7208 12.8022 15.6839 12.5762 15.5687C12.2626 15.4089 12.0076 15.1539 11.8478 14.8403C11.7326 14.6143 11.6958 14.3895 11.6802 14.1991C11.6654 14.0184 11.6663 13.8033 11.6663 13.5838V12.9165C11.6663 12.697 11.6654 12.482 11.6802 12.3013C11.6958 12.1109 11.7326 11.886 11.8478 11.66C12.0076 11.3465 12.2626 11.0914 12.5762 10.9316C12.7664 10.8347 12.956 10.7945 13.1247 10.7746V10.1252C13.1247 8.85951 14.1507 7.8335 15.4163 7.8335C16.682 7.8335 17.708 8.85951 17.708 10.1252V10.7746ZM19.1663 6.16683C19.1663 6.62707 18.7932 7.00017 18.333 7.00017C17.8728 7.00017 17.4997 6.62707 17.4997 6.16683H2.49968V10.1667L2.50212 10.7721C2.50469 10.9391 2.51038 11.0757 2.52002 11.1937C2.53852 11.42 2.56983 11.5041 2.59082 11.5453C2.67069 11.7019 2.79795 11.8292 2.95459 11.909C2.99579 11.93 3.07983 11.9613 3.30616 11.9798C3.54227 11.9991 3.85271 12.0002 4.33317 12.0002H9.16634C9.62658 12.0002 9.99968 12.3733 9.99968 12.8335C9.99968 13.2937 9.62658 13.6668 9.16634 13.6668H4.33317C3.88021 13.6668 3.48998 13.6677 3.17025 13.6416C2.84087 13.6147 2.51301 13.5548 2.19776 13.3942C1.72757 13.1546 1.34528 12.7723 1.10564 12.3021C0.945009 11.9868 0.885165 11.659 0.858239 11.3296C0.845181 11.1698 0.839371 10.9922 0.836267 10.7982L0.833011 10.1667V3.83366C0.833011 3.3807 0.832117 2.99047 0.858239 2.67074C0.885165 2.34136 0.945008 2.01349 1.10564 1.69825C1.34528 1.22806 1.72757 0.845769 2.19776 0.606123C2.51301 0.445497 2.84087 0.385653 3.17025 0.358728C3.48998 0.332605 3.88021 0.3335 4.33317 0.3335H15.6662C16.1191 0.3335 16.5094 0.332605 16.8291 0.358728C17.1585 0.385654 17.4863 0.445495 17.8016 0.606123C18.2718 0.845768 18.6541 1.22806 18.8937 1.69825C19.0543 2.01349 19.1142 2.34136 19.1411 2.67074C19.1672 2.99047 19.1663 3.3807 19.1663 3.83366V6.16683Z" fill="#00A38D"/>
</svg>
