<svg width="36" height="36" viewBox="0 0 36 36" fill="none" xmlns="http://www.w3.org/2000/svg">
<path d="M31.5 18C31.5 10.5442 25.4558 4.5 18 4.5C10.5442 4.5 4.5 10.5442 4.5 18C4.5 25.4558 10.5442 31.5 18 31.5C25.4558 31.5 31.5 25.4558 31.5 18ZM16.5 9C16.5 8.17157 17.1716 7.5 18 7.5C18.8284 7.5 19.5 8.17157 19.5 9V17.0728L24.6709 19.6582C25.4119 20.0287 25.7123 20.9299 25.3418 21.6709C24.9713 22.4119 24.0701 22.7123 23.3291 22.3418L17.3291 19.3418C16.8209 19.0877 16.5 18.5682 16.5 18V9ZM34.5 18C34.5 27.1127 27.1127 34.5 18 34.5C8.8873 34.5 1.5 27.1127 1.5 18C1.5 8.8873 8.8873 1.5 18 1.5C27.1127 1.5 34.5 8.8873 34.5 18Z" fill="#171717"/>
</svg>
