<svg width="13" height="13" viewBox="0 0 13 13" fill="none" xmlns="http://www.w3.org/2000/svg">
<path fill-rule="evenodd" clip-rule="evenodd" d="M0 6.41667C0 2.87284 2.87284 0 6.41667 0C9.96049 0 12.8333 2.87284 12.8333 6.41667C12.8333 9.96049 9.96049 12.8333 6.41667 12.8333C2.87284 12.8333 0 9.96049 0 6.41667ZM7 2.91667C7 2.5945 6.73883 2.33333 6.41667 2.33333C6.0945 2.33333 5.83333 2.5945 5.83333 2.91667V6.41667C5.83333 6.63762 5.95817 6.8396 6.15579 6.93842L8.48913 8.10508C8.77728 8.24916 9.12767 8.13236 9.27175 7.84421C9.41583 7.55605 9.29903 7.20566 9.01088 7.06158L7 6.05615V2.91667Z" fill="#FB3748"/>
</svg>
