<svg width="32" height="32" viewBox="0 0 32 32" fill="none" xmlns="http://www.w3.org/2000/svg">
<path d="M0 16C0 7.16344 7.16344 0 16 0C24.8366 0 32 7.16344 32 16C32 24.8366 24.8366 32 16 32C7.16344 32 0 24.8366 0 16Z" fill="#F5F5F5"/>
<path d="M20.293 10.293C20.6835 9.90244 21.3165 9.90244 21.707 10.293C22.0975 10.6835 22.0975 11.3165 21.707 11.707L17.4141 16L21.707 20.293C22.0975 20.6835 22.0975 21.3165 21.707 21.707C21.3165 22.0975 20.6835 22.0975 20.293 21.707L16 17.4141L11.707 21.707C11.3165 22.0975 10.6835 22.0975 10.293 21.707C9.90244 21.3165 9.90244 20.6835 10.293 20.293L14.5859 16L10.293 11.707C9.90244 11.3165 9.90244 10.6835 10.293 10.293C10.6835 9.90244 11.3165 9.90244 11.707 10.293L16 14.5859L20.293 10.293Z" fill="#A4A4A4"/>
</svg>
