<svg width="32" height="32" viewBox="0 0 32 32" fill="none" xmlns="http://www.w3.org/2000/svg">
<path d="M5.86737 16.0007C6.21856 16.0007 6.56266 15.9992 6.85174 16.0228C7.15642 16.0477 7.5161 16.1067 7.87779 16.291C8.31677 16.5147 8.68409 16.8551 8.94029 17.2728L9.04315 17.4564L9.15904 17.7272C9.19976 17.8416 9.22748 17.9549 9.25018 18.0645L11.3947 17.1686C11.4146 17.1597 11.4421 17.1482 11.4754 17.1335C11.5481 17.1015 11.6516 17.0565 11.7788 17.0033C12.0325 16.897 12.3855 16.7542 12.784 16.6113C13.5213 16.3471 14.6244 16.0007 15.5249 16.0007C16.1636 16.0007 16.7992 16.0768 17.4195 16.2272L20.6004 17.0007L20.8778 17.0801C22.1934 17.5176 23.1346 18.7088 23.2033 20.1152L25.1838 18.6712V18.6699C26.5425 17.6792 28.4392 17.8072 29.6473 18.9824C31.0062 20.3044 31.0065 22.4626 29.646 23.7845L26.7697 26.584C25.807 27.5203 24.5839 28.1553 23.2593 28.4134L19.1929 29.2051C18.3231 29.374 17.4287 29.3768 16.5588 29.2142L16.1877 29.1348L12.5106 28.2415L12.508 28.2402C12.1733 28.1581 11.8285 28.1165 11.4807 28.1165H9.31398C9.31244 28.1396 9.31321 28.1631 9.31138 28.1856C9.28645 28.4902 9.22744 28.8499 9.04315 29.2116C8.7875 29.7133 8.37946 30.1213 7.87779 30.377C7.51611 30.5612 7.15642 30.6203 6.85174 30.6452C6.70695 30.657 6.54792 30.662 6.38169 30.6647L5.86737 30.6673H4.79966C4.44847 30.6673 4.10437 30.6688 3.81529 30.6452C3.51061 30.6203 3.15092 30.5612 2.78924 30.377C2.28757 30.1213 1.87953 29.7133 1.62388 29.2116C1.43959 28.8499 1.38058 28.4902 1.35565 28.1856C1.33203 27.8965 1.33351 27.5524 1.33351 27.2012V19.4668C1.33351 19.1156 1.33203 18.7715 1.35565 18.4824C1.38058 18.1778 1.43959 17.8181 1.62388 17.4564C1.87952 16.9547 2.28757 16.5467 2.78924 16.291C3.15093 16.1067 3.51061 16.0477 3.81529 16.0228C4.10437 15.9992 4.44847 16.0007 4.79966 16.0007H5.86737ZM15.5249 18.6673C15.139 18.6673 14.4324 18.8534 13.6838 19.1217C13.3401 19.2449 13.0317 19.3695 12.8088 19.4629C12.6977 19.5094 12.6081 19.5473 12.5484 19.5736C12.5187 19.5866 12.4963 19.5971 12.482 19.6035C12.4748 19.6067 12.4694 19.6087 12.4663 19.61L12.4637 19.6113C12.4505 19.6174 12.4368 19.6239 12.4234 19.6296L9.33352 20.9212V25.4499H11.4807C12.0403 25.4499 12.5984 25.5166 13.1434 25.6504H13.1421L16.8179 26.5436L17.0484 26.5931C17.5876 26.6939 18.1427 26.6917 18.6838 26.5866L22.7489 25.7962C23.5719 25.6359 24.3245 25.2422 24.9103 24.6725L27.7879 21.8744V21.873C28.0697 21.5994 28.0716 21.17 27.7879 20.8939C27.5508 20.6632 27.1791 20.6073 26.8791 20.7507L26.7554 20.8249L23.4025 23.2715C22.691 23.7911 21.8309 24.067 20.952 24.0671H17.7137C16.9776 24.0668 16.3804 23.4699 16.3804 22.7337C16.3804 21.9975 16.9776 21.4006 17.7137 21.4004H19.7749C20.235 21.4004 20.5445 21.0472 20.5445 20.6882V20.2793C20.5444 19.9787 20.3305 19.6788 19.9715 19.5918H19.9702L16.7905 18.8184C16.376 18.7178 15.9516 18.6674 15.5249 18.6673ZM25.3335 8.66732C25.3335 6.82637 23.8411 5.33398 22.0002 5.33398C20.1592 5.33398 18.6669 6.82637 18.6669 8.66732C18.6669 10.5083 20.1592 12.0007 22.0002 12.0007C23.8411 12.0007 25.3335 10.5083 25.3335 8.66732ZM4.00018 27.2012C4.00018 27.5962 4.00181 27.8127 4.0145 27.9681C4.01495 27.9736 4.01535 27.9788 4.01581 27.9837C4.02118 27.9842 4.02675 27.9858 4.03273 27.9863C4.18811 27.999 4.40462 28.0007 4.79966 28.0007H5.86737C6.26241 28.0007 6.47892 27.999 6.6343 27.9863C6.63981 27.9859 6.64493 27.9842 6.64992 27.9837C6.65038 27.9787 6.65207 27.9736 6.65253 27.9681C6.66522 27.8127 6.66685 27.5962 6.66685 27.2012V19.4668C6.66685 19.0718 6.66522 18.8553 6.65253 18.6999C6.65204 18.6939 6.65042 18.6883 6.64992 18.6829C6.64497 18.6825 6.63976 18.6821 6.6343 18.6816C6.47892 18.6689 6.26241 18.6673 5.86737 18.6673H4.79966C4.40462 18.6673 4.18811 18.6689 4.03273 18.6816C4.02679 18.6821 4.02114 18.6825 4.01581 18.6829C4.01532 18.6883 4.01499 18.6939 4.0145 18.6999C4.00181 18.8553 4.00018 19.0718 4.00018 19.4668V27.2012ZM28.0002 8.66732C28.0002 11.981 25.3139 14.6673 22.0002 14.6673C20.3115 14.6673 18.7871 13.9684 17.6968 12.8457C16.9705 13.1574 16.1722 13.334 15.3335 13.334C12.0198 13.334 9.33352 10.6477 9.33352 7.33399C9.33352 4.02028 12.0198 1.33398 15.3335 1.33398C17.0208 1.33398 18.5427 2.03292 19.6317 3.15169C20.3582 2.83931 21.1592 2.66732 22.0002 2.66732C25.3139 2.66732 28.0002 5.35361 28.0002 8.66732ZM12.0002 7.33399C12.0002 9.17493 13.4926 10.6673 15.3335 10.6673C15.6685 10.6673 15.9904 10.6155 16.2945 10.5241C16.1043 9.93931 16.0002 9.31553 16.0002 8.66732C16.0002 7.17388 16.5466 5.80855 17.4494 4.75846C16.8731 4.28435 16.1363 4.00065 15.3335 4.00065C13.4926 4.00065 12.0002 5.49304 12.0002 7.33399Z" fill="#00A38D"/>
</svg>
