<svg width="20" height="19" viewBox="0 0 20 19" fill="none" xmlns="http://www.w3.org/2000/svg">
<path d="M12.9167 0.833333C10.8456 0.833333 9.16667 2.51227 9.16667 4.58333C9.16667 6.6544 10.8456 8.33333 12.9167 8.33333C14.9877 8.33333 16.6667 6.6544 16.6667 4.58333C16.6667 2.51227 14.9877 0.833333 12.9167 0.833333Z" fill="#00A38D"/>
<path d="M9.19317 0.649382C8.15045 1.63665 7.5 3.03403 7.5 4.58333C7.5 5.58091 7.76967 6.5155 8.2401 7.31819C7.87576 7.43622 7.48699 7.5 7.08333 7.5C5.01227 7.5 3.33333 5.82107 3.33333 3.75C3.33333 1.67893 5.01227 0 7.08333 0C7.86569 0 8.59209 0.239582 9.19317 0.649382Z" fill="#00A38D"/>
<path d="M13.9241 12.4111C13.9241 13.0705 13.4879 13.6282 12.8867 13.8146L13.2733 13.7967C13.6958 13.7967 14.1066 13.6638 14.4442 13.417L16.8016 11.6971C17.3899 11.2681 18.2135 11.3251 18.7335 11.831C19.3112 12.3929 19.3112 13.3031 18.7335 13.8641L16.7108 15.8317C16.1664 16.3614 15.4716 16.723 14.7164 16.8701L11.8575 17.4263C11.2906 17.5364 10.7061 17.5231 10.145 17.3865L7.55933 16.7581C7.25002 16.6822 6.9329 16.6442 6.61383 16.6442C6.27508 16.6442 6.10571 16.6442 5.96982 16.5957C5.73445 16.5117 5.54921 16.3264 5.46518 16.0911C5.41667 15.9552 5.41667 15.7858 5.41667 15.447V12.5894C5.41667 12.3512 5.41667 12.2321 5.44725 12.1224C5.47435 12.0252 5.51888 11.9337 5.57867 11.8524C5.64617 11.7606 5.7399 11.6871 5.92734 11.5401L6.91534 10.7655C6.91534 10.7655 8.55263 9.99999 9.45714 9.99999C9.83183 9.99999 10.2046 10.0456 10.5685 10.1358L12.8049 10.6918C13.4626 10.8548 13.9241 11.4428 13.9241 12.1171V12.4111Z" fill="#00A38D"/>
<path fill-rule="evenodd" clip-rule="evenodd" d="M2.06128 9.99999C2.06862 9.99999 2.07598 9.99999 2.08334 9.99999C2.0907 9.99999 2.09805 9.99999 2.1054 9.99999C2.28044 9.99997 2.45096 9.99996 2.59603 10.0099C2.75467 10.0207 2.94277 10.0461 3.13781 10.1269C3.54619 10.296 3.87065 10.6205 4.0398 11.0289C4.12059 11.2239 4.14598 11.412 4.15681 11.5706C4.16671 11.7157 4.16669 11.8862 4.16667 12.0613C4.16667 12.0686 4.16667 12.076 4.16667 12.0833L4.16667 16.2721C4.16669 16.4471 4.16671 16.6176 4.15681 16.7627C4.14598 16.9213 4.12059 17.1094 4.0398 17.3045C3.87065 17.7128 3.54619 18.0373 3.13781 18.2065C2.94277 18.2872 2.75467 18.3126 2.59602 18.3235C2.45096 18.3334 2.28044 18.3333 2.1054 18.3333H2.06127C1.88623 18.3333 1.71572 18.3334 1.57065 18.3235C1.412 18.3126 1.2239 18.2872 1.02886 18.2065C0.620483 18.0373 0.296027 17.7128 0.12687 17.3045C0.0460839 17.1094 0.0206891 16.9213 0.00986499 16.7627C-3.30053e-05 16.6176 -1.60182e-05 16.4471 1.46582e-06 16.2721L2.90626e-06 12.0833C2.90626e-06 12.076 2.1612e-06 12.0686 1.46582e-06 12.0613C-1.60182e-05 11.8862 -3.30053e-05 11.7157 0.00986504 11.5706C0.0206892 11.412 0.046084 11.2239 0.12687 11.0289C0.296027 10.6205 0.620484 10.296 1.02886 10.1269C1.2239 10.0461 1.412 10.0207 1.57065 10.0099C1.71572 9.99996 1.88624 9.99997 2.06128 9.99999Z" fill="#00A38D"/>
</svg>
