<svg width="20" height="20" viewBox="0 0 20 20" fill="none" xmlns="http://www.w3.org/2000/svg">
<path d="M17.4999 9.33366C17.4999 8.8532 17.4989 8.54276 17.4796 8.30664C17.4611 8.08032 17.4298 7.99628 17.4088 7.95508C17.3289 7.79844 17.2016 7.67118 17.045 7.59131C17.0038 7.57032 16.9198 7.53901 16.6934 7.52051C16.4573 7.50122 16.1469 7.50017 15.6664 7.50017H14.1666V10.6667C14.1666 11.1196 14.1675 11.5099 14.1414 11.8296C14.1144 12.159 14.0546 12.4868 13.894 12.8021C13.6543 13.2723 13.272 13.6546 12.8018 13.8942C12.4866 14.0548 12.1587 14.1147 11.8294 14.1416C11.5096 14.1677 11.1194 14.1668 10.6664 14.1668H7.49992V15.6667C7.49992 16.1471 7.50098 16.4576 7.52027 16.6937C7.53877 16.92 7.57008 17.0041 7.59107 17.0453C7.67093 17.2019 7.7982 17.3292 7.95484 17.409C7.99604 17.43 8.08008 17.4613 8.3064 17.4798C8.54252 17.4991 8.85296 17.5002 9.33342 17.5002H15.6664C16.1469 17.5002 16.4573 17.4991 16.6934 17.4798C16.9198 17.4613 17.0038 17.43 17.045 17.409C17.2017 17.3292 17.3289 17.2019 17.4088 17.0453C17.4298 17.0041 17.4611 16.92 17.4796 16.6937C17.4989 16.4576 17.4999 16.1471 17.4999 15.6667V9.33366ZM12.4999 4.33366C12.4999 3.8532 12.4989 3.54276 12.4796 3.30664C12.4611 3.08032 12.4298 2.99628 12.4088 2.95508C12.3289 2.79844 12.2016 2.67118 12.045 2.59131C12.0038 2.57032 11.9198 2.53901 11.6934 2.52051C11.4573 2.50122 11.1469 2.50017 10.6664 2.50017H4.33342C3.85296 2.50017 3.54251 2.50122 3.3064 2.52051C3.08008 2.53901 2.99604 2.57032 2.95484 2.59131C2.7982 2.67118 2.67094 2.79844 2.59107 2.95508C2.57008 2.99628 2.53876 3.08032 2.52027 3.30664C2.50098 3.54276 2.49992 3.8532 2.49992 4.33366V10.6667C2.49992 11.1471 2.50098 11.4576 2.52027 11.6937C2.53876 11.92 2.57008 12.0041 2.59107 12.0453C2.67094 12.2019 2.7982 12.3292 2.95484 12.409C2.99604 12.43 3.08008 12.4613 3.3064 12.4798C3.54251 12.4991 3.85296 12.5002 4.33342 12.5002H10.6664C11.1469 12.5002 11.4573 12.4991 11.6934 12.4798C11.9198 12.4613 12.0038 12.43 12.045 12.409C12.2016 12.3292 12.3289 12.2019 12.4088 12.0453C12.4298 12.0041 12.4611 11.92 12.4796 11.6937C12.4989 11.4576 12.4999 11.1471 12.4999 10.6667V4.33366ZM14.1666 5.8335H15.6664C16.1194 5.8335 16.5096 5.8326 16.8293 5.85873C17.1587 5.88565 17.4866 5.9455 17.8018 6.10612C18.272 6.34577 18.6543 6.72806 18.894 7.19825C19.0546 7.51349 19.1144 7.84136 19.1414 8.17074C19.1675 8.49047 19.1666 8.8807 19.1666 9.33366V15.6667C19.1666 16.1196 19.1675 16.5099 19.1414 16.8296C19.1144 17.159 19.0546 17.4868 18.894 17.8021C18.6543 18.2723 18.272 18.6546 17.8018 18.8942C17.4866 19.0548 17.1587 19.1147 16.8293 19.1416C16.5096 19.1677 16.1194 19.1668 15.6664 19.1668H9.33342C8.88046 19.1668 8.49022 19.1677 8.1705 19.1416C7.84111 19.1147 7.51325 19.0548 7.198 18.8942C6.72782 18.6546 6.34553 18.2723 6.10588 17.8021C5.94525 17.4868 5.88541 17.159 5.85848 16.8296C5.83236 16.5099 5.83326 16.1196 5.83326 15.6667V14.1668H4.33342C3.88046 14.1668 3.49022 14.1677 3.1705 14.1416C2.84111 14.1147 2.51325 14.0548 2.198 13.8942C1.72782 13.6546 1.34552 13.2723 1.10588 12.8021C0.945253 12.4868 0.885409 12.159 0.858483 11.8296C0.832361 11.5099 0.833256 11.1196 0.833256 10.6667V4.33366C0.833256 3.8807 0.832361 3.49047 0.858483 3.17074C0.885409 2.84136 0.945253 2.51349 1.10588 2.19825C1.34552 1.72806 1.72782 1.34577 2.198 1.10612C2.51325 0.945497 2.84111 0.885653 3.1705 0.858728C3.49022 0.832605 3.88046 0.8335 4.33342 0.8335H10.6664C11.1194 0.8335 11.5096 0.832605 11.8294 0.858728C12.1587 0.885653 12.4866 0.945497 12.8018 1.10612C13.272 1.34577 13.6543 1.72806 13.894 2.19825C14.0546 2.51349 14.1144 2.84136 14.1414 3.17074C14.1675 3.49047 14.1666 3.8807 14.1666 4.33366V5.8335Z" fill="#A4A4A4"/>
</svg>
