<svg width="24" height="24" viewBox="0 0 24 24" fill="none" xmlns="http://www.w3.org/2000/svg">
<path d="M5.05713 17.784C5.05713 19.1434 6.11827 20.2748 7.45713 20.5148C8.83199 20.7634 10.3131 21.0514 13.7486 21.0514C17.184 21.0514 18.6617 20.7634 20.04 20.5148C21.3771 20.2748 22.4366 19.1434 22.4366 17.784V9.87767C22.4366 8.69482 21.6308 7.67482 20.4617 7.49824C18.2384 7.17239 15.9939 7.01195 13.7468 7.01824C10.3131 7.01824 8.83199 7.30624 7.45541 7.55482C6.11827 7.79482 5.05713 8.92624 5.05713 10.2857V17.784Z" stroke="#00A38D" stroke-width="2" stroke-linecap="round" stroke-linejoin="round"/>
<path d="M2.39313 15.6377C2.13329 15.3888 1.92598 15.0904 1.78347 14.76C1.64096 14.4296 1.56613 14.0741 1.56342 13.7143V6.21598C1.56342 4.85484 2.62456 3.72512 3.96342 3.48512C5.33827 3.23655 6.81941 2.94684 10.2548 2.94684C13.1246 2.94684 15.4491 3.19884 16.9663 3.42855C17.6966 3.53827 18.2863 3.97712 18.624 4.57712" stroke="#00A38D" stroke-width="2" stroke-linecap="round" stroke-linejoin="round"/>
<path d="M15.9994 17.2491H18.9428M22.4366 11.9982H5.05713V9.82796C5.05713 8.72568 5.9177 7.81882 7.00627 7.63368L7.59941 7.52911C8.93656 7.28739 10.4314 7.01825 13.7468 7.01825C16.8668 7.01825 19.3371 7.31482 20.8354 7.55654C21.7817 7.71082 22.4366 8.53882 22.4366 9.49711V11.9982Z" stroke="#00A38D" stroke-width="2" stroke-linecap="round" stroke-linejoin="round"/>
</svg>
