<svg width="20" height="20" viewBox="0 0 20 20" fill="none" xmlns="http://www.w3.org/2000/svg">
  <g clip-path="url(#clip0_4518_353621)">
    <path d="M0 0H20V20L0 20V0Z" fill="#1EB53A"/>
    <path d="M0 0H20V10H0V0Z" fill="#0099B5"/>
    <path d="M0 6.36328H20V13.636H0V6.36328Z" fill="#CE1126"/>
    <path d="M0 6.81836H20V13.182L0 13.182V6.81836Z" fill="white"/>
    <path
      d="M5.2271 5.45419C6.35677 5.45419 7.27255 4.53841 7.27255 3.40874C7.27255 2.27906 6.35677 1.36328 5.2271 1.36328C4.09742 1.36328 3.18164 2.27906 3.18164 3.40874C3.18164 4.53841 4.09742 5.45419 5.2271 5.45419Z"
      fill="white"/>
    <path
      d="M6.13627 5.45419C7.26595 5.45419 8.18173 4.53841 8.18173 3.40874C8.18173 2.27906 7.26595 1.36328 6.13627 1.36328C5.0066 1.36328 4.09082 2.27906 4.09082 3.40874C4.09082 4.53841 5.0066 5.45419 6.13627 5.45419Z"
      fill="#0099B5"/>
    <path d="M9.97808 4.75195L9.84717 5.15486L10.0486 5.22032L9.97808 4.75195Z" fill="white"/>
    <path d="M9.97777 4.75195L10.1087 5.15486L9.90723 5.22031L9.97777 4.75195Z" fill="white"/>
    <path d="M10.3807 5.04492H9.95703V5.25674L10.3807 5.04492Z" fill="white"/>
    <path d="M10.3808 5.04492L10.0381 5.29393L9.91357 5.12256L10.3808 5.04492Z" fill="white"/>
    <path d="M9.5752 5.04492L9.91792 5.29393L10.0424 5.12256L9.5752 5.04492Z" fill="white"/>
    <path d="M9.5752 5.04492H9.99883V5.25674L9.5752 5.04492Z" fill="white"/>
    <path d="M10.2269 5.51814L10.096 5.11523L9.89453 5.18068L10.2269 5.51814Z" fill="white"/>
    <path d="M10.227 5.51804L9.88428 5.26903L10.0088 5.09766L10.227 5.51804Z" fill="white"/>
    <path d="M9.729 5.51804L10.0717 5.26903L9.94723 5.09766L9.729 5.51804Z" fill="white"/>
    <path d="M9.729 5.51814L9.85991 5.11523L10.0614 5.18068L9.729 5.51814Z" fill="white"/>
    <path d="M9.97808 3.05762L9.84717 3.46052L10.0486 3.52598L9.97808 3.05762Z" fill="white"/>
    <path d="M9.97777 3.05762L10.1087 3.46052L9.90723 3.52598L9.97777 3.05762Z" fill="white"/>
    <path d="M10.3807 3.35059H9.95703V3.5624L10.3807 3.35059Z" fill="white"/>
    <path d="M10.3808 3.35059L10.0381 3.59959L9.91357 3.42823L10.3808 3.35059Z" fill="white"/>
    <path d="M9.5752 3.35059L9.91792 3.59959L10.0424 3.42823L9.5752 3.35059Z" fill="white"/>
    <path d="M9.5752 3.35059H9.99883V3.5624L9.5752 3.35059Z" fill="white"/>
    <path d="M10.2269 3.8238L10.096 3.4209L9.89453 3.48635L10.2269 3.8238Z" fill="white"/>
    <path d="M10.227 3.8237L9.88428 3.5747L10.0088 3.40332L10.227 3.8237Z" fill="white"/>
    <path d="M9.729 3.8237L10.0717 3.5747L9.94723 3.40332L9.729 3.8237Z" fill="white"/>
    <path d="M9.729 3.8238L9.85991 3.4209L10.0614 3.48635L9.729 3.8238Z" fill="white"/>
    <path d="M9.97808 1.36328L9.84717 1.76618L10.0486 1.83164L9.97808 1.36328Z" fill="white"/>
    <path d="M9.97777 1.36328L10.1087 1.76618L9.90723 1.83164L9.97777 1.36328Z" fill="white"/>
    <path d="M10.3807 1.65625H9.95703V1.86807L10.3807 1.65625Z" fill="white"/>
    <path d="M10.3808 1.65625L10.0381 1.90526L9.91357 1.73389L10.3808 1.65625Z" fill="white"/>
    <path d="M9.5752 1.65625L9.91792 1.90526L10.0424 1.73389L9.5752 1.65625Z" fill="white"/>
    <path d="M9.5752 1.65625H9.99883V1.86807L9.5752 1.65625Z" fill="white"/>
    <path d="M10.2269 2.12946L10.096 1.72656L9.89453 1.79201L10.2269 2.12946Z" fill="white"/>
    <path d="M10.227 2.12937L9.88428 1.88036L10.0088 1.70898L10.227 2.12937Z" fill="white"/>
    <path d="M9.729 2.12937L10.0717 1.88036L9.94723 1.70898L9.729 2.12937Z" fill="white"/>
    <path d="M9.729 2.12946L9.85991 1.72656L10.0614 1.79201L9.729 2.12946Z" fill="white"/>
    <path d="M11.6724 4.75195L11.5415 5.15486L11.743 5.22032L11.6724 4.75195Z" fill="white"/>
    <path d="M11.6726 4.75195L11.8035 5.15486L11.6021 5.22031L11.6726 4.75195Z" fill="white"/>
    <path d="M12.0755 5.04492H11.6519V5.25674L12.0755 5.04492Z" fill="white"/>
    <path d="M12.0756 5.04492L11.7329 5.29393L11.6084 5.12256L12.0756 5.04492Z" fill="white"/>
    <path d="M11.2695 5.04492L11.6123 5.29393L11.7368 5.12256L11.2695 5.04492Z" fill="white"/>
    <path d="M11.2695 5.04492H11.6932V5.25674L11.2695 5.04492Z" fill="white"/>
    <path d="M11.9212 5.51814L11.7903 5.11523L11.5889 5.18068L11.9212 5.51814Z" fill="white"/>
    <path d="M11.9213 5.51804L11.5786 5.26903L11.7031 5.09766L11.9213 5.51804Z" fill="white"/>
    <path d="M11.4233 5.51804L11.7661 5.26903L11.6416 5.09766L11.4233 5.51804Z" fill="white"/>
    <path d="M11.4233 5.51814L11.5542 5.11523L11.7557 5.18068L11.4233 5.51814Z" fill="white"/>
    <path d="M11.6724 3.05762L11.5415 3.46052L11.743 3.52598L11.6724 3.05762Z" fill="white"/>
    <path d="M11.6726 3.05762L11.8035 3.46052L11.6021 3.52598L11.6726 3.05762Z" fill="white"/>
    <path d="M12.0755 3.35059H11.6519V3.5624L12.0755 3.35059Z" fill="white"/>
    <path d="M12.0756 3.35059L11.7329 3.59959L11.6084 3.42823L12.0756 3.35059Z" fill="white"/>
    <path d="M11.2695 3.35059L11.6123 3.59959L11.7368 3.42823L11.2695 3.35059Z" fill="white"/>
    <path d="M11.2695 3.35059H11.6932V3.5624L11.2695 3.35059Z" fill="white"/>
    <path d="M11.9212 3.8238L11.7903 3.4209L11.5889 3.48635L11.9212 3.8238Z" fill="white"/>
    <path d="M11.9213 3.8237L11.5786 3.5747L11.7031 3.40332L11.9213 3.8237Z" fill="white"/>
    <path d="M11.4233 3.8237L11.7661 3.5747L11.6416 3.40332L11.4233 3.8237Z" fill="white"/>
    <path d="M11.4233 3.8238L11.5542 3.4209L11.7557 3.48635L11.4233 3.8238Z" fill="white"/>
    <path d="M11.6724 1.36328L11.5415 1.76618L11.743 1.83164L11.6724 1.36328Z" fill="white"/>
    <path d="M11.6726 1.36328L11.8035 1.76618L11.6021 1.83164L11.6726 1.36328Z" fill="white"/>
    <path d="M12.0755 1.65625H11.6519V1.86807L12.0755 1.65625Z" fill="white"/>
    <path d="M12.0756 1.65625L11.7329 1.90526L11.6084 1.73389L12.0756 1.65625Z" fill="white"/>
    <path d="M11.2695 1.65625L11.6123 1.90526L11.7368 1.73389L11.2695 1.65625Z" fill="white"/>
    <path d="M11.2695 1.65625H11.6932V1.86807L11.2695 1.65625Z" fill="white"/>
    <path d="M11.9212 2.12946L11.7903 1.72656L11.5889 1.79201L11.9212 2.12946Z" fill="white"/>
    <path d="M11.9213 2.12937L11.5786 1.88036L11.7031 1.70898L11.9213 2.12937Z" fill="white"/>
    <path d="M11.4233 2.12937L11.7661 1.88036L11.6416 1.70898L11.4233 2.12937Z" fill="white"/>
    <path d="M11.4233 2.12946L11.5542 1.72656L11.7557 1.79201L11.4233 2.12946Z" fill="white"/>
    <path d="M13.3672 4.75195L13.2363 5.15486L13.4378 5.22032L13.3672 4.75195Z" fill="white"/>
    <path d="M13.3674 4.75195L13.4983 5.15486L13.2969 5.22031L13.3674 4.75195Z" fill="white"/>
    <path d="M13.7698 5.04492H13.3462V5.25674L13.7698 5.04492Z" fill="white"/>
    <path d="M13.77 5.04492L13.4272 5.29393L13.3027 5.12256L13.77 5.04492Z" fill="white"/>
    <path d="M12.9644 5.04492L13.3071 5.29393L13.4316 5.12256L12.9644 5.04492Z" fill="white"/>
    <path d="M12.9644 5.04492H13.388V5.25674L12.9644 5.04492Z" fill="white"/>
    <path d="M13.616 5.51814L13.4851 5.11523L13.2837 5.18068L13.616 5.51814Z" fill="white"/>
    <path d="M13.6162 5.51804L13.2734 5.26903L13.3979 5.09766L13.6162 5.51804Z" fill="white"/>
    <path d="M13.1182 5.51804L13.4609 5.26903L13.3364 5.09766L13.1182 5.51804Z" fill="white"/>
    <path d="M13.1182 5.51814L13.2491 5.11523L13.4505 5.18068L13.1182 5.51814Z" fill="white"/>
    <path d="M13.3672 3.05762L13.2363 3.46052L13.4378 3.52598L13.3672 3.05762Z" fill="white"/>
    <path d="M13.3674 3.05762L13.4983 3.46052L13.2969 3.52598L13.3674 3.05762Z" fill="white"/>
    <path d="M13.7698 3.35059H13.3462V3.5624L13.7698 3.35059Z" fill="white"/>
    <path d="M13.77 3.35059L13.4272 3.59959L13.3027 3.42823L13.77 3.35059Z" fill="white"/>
    <path d="M12.9644 3.35059L13.3071 3.59959L13.4316 3.42823L12.9644 3.35059Z" fill="white"/>
    <path d="M12.9644 3.35059H13.388V3.5624L12.9644 3.35059Z" fill="white"/>
    <path d="M13.616 3.8238L13.4851 3.4209L13.2837 3.48635L13.616 3.8238Z" fill="white"/>
    <path d="M13.6162 3.8237L13.2734 3.5747L13.3979 3.40332L13.6162 3.8237Z" fill="white"/>
    <path d="M13.1182 3.8237L13.4609 3.5747L13.3364 3.40332L13.1182 3.8237Z" fill="white"/>
    <path d="M13.1182 3.8238L13.2491 3.4209L13.4505 3.48635L13.1182 3.8238Z" fill="white"/>
    <path d="M13.3672 1.36328L13.2363 1.76618L13.4378 1.83164L13.3672 1.36328Z" fill="white"/>
    <path d="M13.3674 1.36328L13.4983 1.76618L13.2969 1.83164L13.3674 1.36328Z" fill="white"/>
    <path d="M13.7698 1.65625H13.3462V1.86807L13.7698 1.65625Z" fill="white"/>
    <path d="M13.77 1.65625L13.4272 1.90526L13.3027 1.73389L13.77 1.65625Z" fill="white"/>
    <path d="M12.9644 1.65625L13.3071 1.90526L13.4316 1.73389L12.9644 1.65625Z" fill="white"/>
    <path d="M12.9644 1.65625H13.388V1.86807L12.9644 1.65625Z" fill="white"/>
    <path d="M13.616 2.12946L13.4851 1.72656L13.2837 1.79201L13.616 2.12946Z" fill="white"/>
    <path d="M13.6162 2.12937L13.2734 1.88036L13.3979 1.70898L13.6162 2.12937Z" fill="white"/>
    <path d="M13.1182 2.12937L13.4609 1.88036L13.3364 1.70898L13.1182 2.12937Z" fill="white"/>
    <path d="M13.1182 2.12946L13.2491 1.72656L13.4505 1.79201L13.1182 2.12946Z" fill="white"/>
    <path d="M6.58891 4.75195L6.45801 5.15486L6.65946 5.22032L6.58891 4.75195Z" fill="white"/>
    <path d="M6.5891 4.75195L6.72001 5.15486L6.51855 5.22032L6.5891 4.75195Z" fill="white"/>
    <path d="M6.99151 5.04492H6.56787V5.25674L6.99151 5.04492Z" fill="white"/>
    <path d="M6.99164 5.04492L6.64892 5.29393L6.52441 5.12256L6.99164 5.04492Z" fill="white"/>
    <path d="M6.18604 5.04492L6.52876 5.29393L6.65326 5.12256L6.18604 5.04492Z" fill="white"/>
    <path d="M6.18604 5.04492H6.60967V5.25674L6.18604 5.04492Z" fill="white"/>
    <path d="M6.83773 5.51814L6.70682 5.11523L6.50537 5.18068L6.83773 5.51814Z" fill="white"/>
    <path d="M6.83784 5.51804L6.49512 5.26903L6.61962 5.09766L6.83784 5.51804Z" fill="white"/>
    <path d="M6.33984 5.51804L6.68257 5.26903L6.55807 5.09766L6.33984 5.51804Z" fill="white"/>
    <path d="M6.33984 5.51814L6.47075 5.11523L6.6722 5.18068L6.33984 5.51814Z" fill="white"/>
    <path d="M8.28325 4.75195L8.15234 5.15486L8.3538 5.22032L8.28325 4.75195Z" fill="white"/>
    <path d="M8.28343 4.75195L8.41434 5.15486L8.21289 5.22032L8.28343 4.75195Z" fill="white"/>
    <path d="M8.68584 5.04492H8.26221V5.25674L8.68584 5.04492Z" fill="white"/>
    <path d="M8.68598 5.04492L8.34325 5.29393L8.21875 5.12256L8.68598 5.04492Z" fill="white"/>
    <path d="M7.88037 5.04492L8.2231 5.29393L8.3476 5.12256L7.88037 5.04492Z" fill="white"/>
    <path d="M7.88037 5.04492H8.30401V5.25674L7.88037 5.04492Z" fill="white"/>
    <path d="M8.53207 5.51814L8.40116 5.11523L8.19971 5.18068L8.53207 5.51814Z" fill="white"/>
    <path d="M8.53218 5.51804L8.18945 5.26903L8.31396 5.09766L8.53218 5.51804Z" fill="white"/>
    <path d="M8.03418 5.51804L8.37691 5.26903L8.2524 5.09766L8.03418 5.51804Z" fill="white"/>
    <path d="M8.03418 5.51814L8.16509 5.11523L8.36654 5.18068L8.03418 5.51814Z" fill="white"/>
    <path d="M8.28325 3.05762L8.15234 3.46052L8.3538 3.52598L8.28325 3.05762Z" fill="white"/>
    <path d="M8.28343 3.05762L8.41434 3.46052L8.21289 3.52598L8.28343 3.05762Z" fill="white"/>
    <path d="M8.68584 3.35059H8.26221V3.5624L8.68584 3.35059Z" fill="white"/>
    <path d="M8.68598 3.35059L8.34325 3.59959L8.21875 3.42823L8.68598 3.35059Z" fill="white"/>
    <path d="M7.88037 3.35059L8.2231 3.59959L8.3476 3.42823L7.88037 3.35059Z" fill="white"/>
    <path d="M7.88037 3.35059H8.30401V3.5624L7.88037 3.35059Z" fill="white"/>
    <path d="M8.53207 3.8238L8.40116 3.4209L8.19971 3.48635L8.53207 3.8238Z" fill="white"/>
    <path d="M8.53218 3.8237L8.18945 3.5747L8.31396 3.40332L8.53218 3.8237Z" fill="white"/>
    <path d="M8.03418 3.8237L8.37691 3.5747L8.2524 3.40332L8.03418 3.8237Z" fill="white"/>
    <path d="M8.03418 3.8238L8.16509 3.4209L8.36654 3.48635L8.03418 3.8238Z" fill="white"/>
  </g>
  <rect x="0.25" y="0.25" width="19.5" height="19.5" rx="9.75" stroke="#EBEBEB" stroke-width="0.5"/>
  <defs>
    <clipPath id="clip0_4518_353621">
      <rect width="20" height="20" rx="10" fill="white"/>
    </clipPath>
  </defs>
</svg>
