<svg width="20" height="20" viewBox="0 0 20 20" fill="none" xmlns="http://www.w3.org/2000/svg">
  <g clip-path="url(#clip0_4518_353624)">
    <path fill-rule="evenodd" clip-rule="evenodd"
          d="M-5 0H33.0004V1.53848H-5V0ZM-5 3.07695H33.0004V4.61543H-5V3.07695ZM-5 6.1539H33.0004V7.69238H-5V6.1539ZM-5 9.23086H33.0004V10.7693H-5V9.23086ZM-5 12.3078H33.0004V13.8463H-5V12.3078ZM-5 15.3848H33.0004V16.9232H-5V15.3848ZM-5 18.4617H33.0004V20.0002H-5V18.4617Z"
          fill="#FC121F"/>
    <path fill-rule="evenodd" clip-rule="evenodd"
          d="M-5 1.53809H33.0004V3.07656H-5V1.53809ZM-5 4.61504H33.0004V6.15352H-5V4.61504ZM-5 7.69199H33.0004V9.23047H-5V7.69199ZM-5 10.7689H33.0004V12.3074H-5V10.7689ZM-5 13.8459H33.0004V15.3844H-5V13.8459ZM-5 16.9229H33.0004V18.4613H-5V16.9229Z"
          fill="white"/>
    <path fill-rule="evenodd" clip-rule="evenodd" d="M-5 0H10.2001V10.7693H-5V0Z" fill="#192F5D"/>
    <path fill-rule="evenodd" clip-rule="evenodd"
          d="M-3.73838 0.461914L-3.58453 0.892687H-3.15376L-3.50761 1.15423L-3.36915 1.56962L-3.73838 1.30808L-4.07685 1.56962L-3.93838 1.15423L-4.30762 0.892687H-3.84607L-3.73838 0.461914ZM-1.19989 0.461914L-1.06143 0.892687H-0.615274L-0.984508 1.15423L-0.830661 1.56962L-1.19989 1.30808L-1.56913 1.56962L-1.41528 1.15423L-1.78452 0.892687H-1.33836L-1.19989 0.461914ZM1.33859 0.461914L1.47705 0.892687H1.92321L1.55398 1.15423L1.70783 1.56962L1.33859 1.30808L0.969357 1.56962L1.1232 1.15423L0.75397 0.892687H1.20013L1.33859 0.461914ZM3.86169 0.461914L4.01554 0.892687H4.44631L4.09246 1.15423L4.23093 1.56962L3.86169 1.30808L3.50784 1.56962L3.64631 1.15423L3.27707 0.892687H3.73861L3.86169 0.461914ZM6.40018 0.461914L6.53864 0.892687H6.9848L6.61557 1.15423L6.76941 1.56962L6.38479 1.30808L6.03094 1.56962L6.16941 1.15423L5.80017 0.892687H6.24633L6.40018 0.461914ZM8.93866 0.461914L9.07713 0.892687H9.52329L9.15405 1.15423L9.3079 1.56962L8.93866 1.30808L8.56943 1.56962L8.72328 1.15423L8.35404 0.892687H8.8002L8.93866 0.461914ZM-2.46145 1.53885L-2.32298 1.96962H-1.87682L-2.24606 2.23116L-2.09221 2.64655L-2.46145 2.38501L-2.83068 2.64655L-2.67683 2.23116L-3.04607 1.96962H-2.59991L-2.46145 1.53885ZM0.061656 1.53885L0.215504 1.96962H0.646277L0.292428 2.23116L0.43089 2.64655L0.061656 2.38501L-0.292194 2.64655L-0.153731 2.23116L-0.522965 1.96962H-0.0614228L0.061656 1.53885ZM2.60014 1.53885L2.7386 1.96962H3.18476L2.81553 2.23116L2.96938 2.64655L2.60014 2.38501L2.23091 2.64655L2.38476 2.23116L2.01552 1.96962H2.46168L2.60014 1.53885ZM5.13863 1.53885L5.27709 1.96962H5.72325L5.35401 2.23116L5.50786 2.64655L5.13863 2.38501L4.76939 2.64655L4.92324 2.23116L4.55401 1.96962H5.00016L5.13863 1.53885ZM7.66173 1.53885L7.81558 1.96962H8.23096L7.87712 2.23116L8.01558 2.64655L7.64634 2.38501L7.29249 2.64655L7.43096 2.23116L7.06172 1.96962H7.52327L7.66173 1.53885ZM-3.723 2.61578L-3.59992 3.04655H-3.13838L-3.50761 3.30809L-3.36915 3.72348L-3.73838 3.46194L-4.07685 3.72348L-3.93838 3.30809L-4.30762 3.04655H-3.84607L-3.723 2.61578ZM-1.19989 2.61578L-1.06143 3.04655H-0.615274L-0.969123 3.30809L-0.830661 3.72348L-1.19989 3.46194L-1.55374 3.72348L-1.41528 3.30809L-1.78452 3.04655H-1.33836L-1.19989 2.61578ZM1.33859 2.61578L1.47705 3.04655H1.92321L1.55398 3.30809L1.70783 3.72348L1.33859 3.46194L0.969357 3.72348L1.1232 3.30809L0.75397 3.04655H1.20013L1.33859 2.61578ZM3.86169 2.61578L4.01554 3.04655H4.44631L4.09246 3.30809L4.23093 3.72348L3.86169 3.46194L3.50784 3.72348L3.64631 3.30809L3.27707 3.04655H3.73861L3.86169 2.61578ZM6.40018 2.61578L6.53864 3.04655H6.9848L6.63095 3.30809L6.76941 3.72348L6.40018 3.46194L6.04633 3.72348L6.18479 3.30809L5.81556 3.04655H6.26171L6.40018 2.61578ZM8.93866 2.61578L9.07713 3.04655H9.52329L9.15405 3.30809L9.3079 3.72348L8.93866 3.46194L8.56943 3.72348L8.72328 3.30809L8.35404 3.04655H8.8002L8.93866 2.61578ZM-2.46145 3.69271L-2.32298 4.12349H-1.87682L-2.24606 4.38503L-2.09221 4.80042L-2.46145 4.53888L-2.83068 4.80042L-2.67683 4.38503L-3.04607 4.12349H-2.59991L-2.46145 3.69271ZM0.061656 3.69271L0.215504 4.12349H0.646277L0.292428 4.38503L0.43089 4.80042L0.061656 4.53888L-0.292194 4.80042L-0.153731 4.38503L-0.522965 4.12349H-0.0614228L0.061656 3.69271ZM2.60014 3.69271L2.7386 4.12349H3.18476L2.83091 4.38503L2.96938 4.80042L2.60014 4.53888L2.24629 4.80042L2.38476 4.38503L2.01552 4.12349H2.46168L2.60014 3.69271ZM5.13863 3.69271L5.27709 4.12349H5.72325L5.35401 4.38503L5.50786 4.80042L5.13863 4.53888L4.76939 4.80042L4.92324 4.38503L4.55401 4.12349H5.00016L5.13863 3.69271ZM7.66173 3.69271L7.81558 4.12349H8.23096L7.87712 4.38503L8.01558 4.80042L7.64634 4.53888L7.29249 4.80042L7.43096 4.38503L7.06172 4.12349H7.52327L7.66173 3.69271ZM-3.723 4.76965L-3.59992 5.20042H-3.13838L-3.50761 5.46196L-3.36915 5.87735L-3.73838 5.61581L-4.07685 5.87735L-3.93838 5.46196L-4.30762 5.20042H-3.84607L-3.723 4.76965ZM-1.19989 4.76965L-1.06143 5.20042H-0.615274L-0.969123 5.46196L-0.830661 5.87735L-1.19989 5.61581L-1.55374 5.87735L-1.41528 5.46196L-1.78452 5.20042H-1.33836L-1.19989 4.76965ZM1.33859 4.76965L1.47705 5.20042H1.92321L1.55398 5.46196L1.70783 5.87735L1.33859 5.61581L0.969357 5.87735L1.1232 5.46196L0.75397 5.20042H1.20013L1.33859 4.76965ZM3.86169 4.76965L4.01554 5.20042H4.44631L4.09246 5.46196L4.23093 5.87735L3.86169 5.61581L3.50784 5.87735L3.64631 5.46196L3.27707 5.20042H3.73861L3.86169 4.76965ZM6.40018 4.76965L6.53864 5.20042H6.9848L6.63095 5.46196L6.76941 5.87735L6.40018 5.61581L6.04633 5.87735L6.18479 5.46196L5.81556 5.20042H6.26171L6.40018 4.76965ZM8.93866 4.76965L9.07713 5.20042H9.52329L9.15405 5.46196L9.3079 5.87735L8.93866 5.61581L8.56943 5.87735L8.72328 5.46196L8.35404 5.20042H8.8002L8.93866 4.76965ZM-2.46145 5.84658L-2.32298 6.27735H-1.87682L-2.24606 6.53889L-2.09221 6.95428L-2.46145 6.69274L-2.83068 6.95428L-2.67683 6.53889L-3.04607 6.27735H-2.59991L-2.46145 5.84658ZM0.061656 5.84658L0.215504 6.27735H0.646277L0.292428 6.53889L0.43089 6.95428L0.061656 6.69274L-0.292194 6.95428L-0.153731 6.53889L-0.522965 6.27735H-0.0614228L0.061656 5.84658ZM2.60014 5.84658L2.7386 6.27735H3.18476L2.83091 6.53889L2.96938 6.95428L2.60014 6.69274L2.24629 6.95428L2.38476 6.53889L2.01552 6.27735H2.46168L2.60014 5.84658ZM5.13863 5.84658L5.27709 6.27735H5.72325L5.35401 6.53889L5.50786 6.95428L5.13863 6.69274L4.76939 6.95428L4.92324 6.53889L4.55401 6.27735H5.00016L5.13863 5.84658ZM7.66173 5.84658L7.81558 6.27735H8.23096L7.87712 6.53889L8.01558 6.95428L7.64634 6.69274L7.29249 6.95428L7.43096 6.53889L7.06172 6.27735H7.52327L7.66173 5.84658ZM-3.723 6.92351L-3.59992 7.35429H-3.13838L-3.50761 7.61583L-3.36915 8.03122L-3.73838 7.76967L-4.07685 8.03122L-3.93838 7.61583L-4.30762 7.35429H-3.84607L-3.723 6.92351ZM-1.19989 6.92351L-1.06143 7.35429H-0.615274L-0.969123 7.61583L-0.830661 8.03122L-1.19989 7.76967L-1.55374 8.03122L-1.41528 7.61583L-1.78452 7.35429H-1.33836L-1.19989 6.92351ZM1.33859 6.92351L1.47705 7.35429H1.92321L1.55398 7.61583L1.70783 8.03122L1.33859 7.76967L0.969357 8.03122L1.1232 7.61583L0.75397 7.35429H1.20013L1.33859 6.92351ZM3.86169 6.92351L4.01554 7.35429H4.44631L4.09246 7.61583L4.23093 8.03122L3.86169 7.76967L3.50784 8.03122L3.64631 7.61583L3.27707 7.35429H3.73861L3.86169 6.92351ZM6.40018 6.92351L6.53864 7.35429H6.9848L6.63095 7.61583L6.76941 8.03122L6.40018 7.76967L6.04633 8.03122L6.18479 7.61583L5.81556 7.35429H6.26171L6.40018 6.92351ZM8.93866 6.92351L9.07713 7.35429H9.52329L9.15405 7.61583L9.3079 8.03122L8.93866 7.76967L8.56943 8.03122L8.72328 7.61583L8.35404 7.35429H8.8002L8.93866 6.92351ZM-2.46145 8.00045L-2.32298 8.43122H-1.87682L-2.24606 8.69276L-2.09221 9.10815L-2.46145 8.84661L-2.83068 9.10815L-2.67683 8.69276L-3.04607 8.43122H-2.59991L-2.46145 8.00045ZM0.061656 8.00045L0.215504 8.43122H0.646277L0.292428 8.69276L0.43089 9.10815L0.061656 8.84661L-0.292194 9.10815L-0.153731 8.69276L-0.522965 8.43122H-0.0614228L0.061656 8.00045ZM2.60014 8.00045L2.7386 8.43122H3.18476L2.83091 8.69276L2.96938 9.10815L2.60014 8.84661L2.24629 9.10815L2.38476 8.69276L2.01552 8.43122H2.46168L2.60014 8.00045ZM5.13863 8.00045L5.27709 8.43122H5.72325L5.35401 8.69276L5.50786 9.10815L5.13863 8.84661L4.76939 9.10815L4.92324 8.69276L4.55401 8.43122H5.00016L5.13863 8.00045ZM7.66173 8.00045L7.81558 8.43122H8.23096L7.87712 8.69276L8.01558 9.10815L7.64634 8.84661L7.29249 9.10815L7.43096 8.69276L7.06172 8.43122H7.52327L7.66173 8.00045ZM-3.723 9.07738L-3.59992 9.50815H-3.13838L-3.50761 9.76969L-3.36915 10.1851L-3.73838 9.92354L-4.07685 10.1851L-3.93838 9.76969L-4.30762 9.50815H-3.84607L-3.723 9.07738ZM-1.19989 9.07738L-1.06143 9.50815H-0.615274L-0.969123 9.76969L-0.830661 10.1851L-1.19989 9.92354L-1.55374 10.1851L-1.41528 9.76969L-1.78452 9.50815H-1.33836L-1.19989 9.07738ZM1.33859 9.07738L1.47705 9.50815H1.92321L1.55398 9.76969L1.70783 10.1851L1.33859 9.92354L0.969357 10.1851L1.1232 9.76969L0.75397 9.50815H1.20013L1.33859 9.07738ZM3.86169 9.07738L4.01554 9.50815H4.44631L4.09246 9.76969L4.23093 10.1851L3.86169 9.92354L3.50784 10.1851L3.64631 9.76969L3.27707 9.50815H3.73861L3.86169 9.07738ZM6.40018 9.07738L6.53864 9.50815H6.9848L6.63095 9.76969L6.76941 10.1851L6.40018 9.92354L6.04633 10.1851L6.18479 9.76969L5.81556 9.50815H6.26171L6.40018 9.07738ZM8.93866 9.07738L9.07713 9.50815H9.52329L9.15405 9.76969L9.3079 10.1851L8.93866 9.92354L8.56943 10.1851L8.72328 9.76969L8.35404 9.50815H8.8002L8.93866 9.07738Z"
          fill="white"/>
  </g>
  <rect x="0.25" y="0.25" width="19.5" height="19.5" rx="9.75" stroke="#EBEBEB" stroke-width="0.5"/>
  <defs>
    <clipPath id="clip0_4518_353624">
      <rect width="20" height="20" rx="10" fill="white"/>
    </clipPath>
  </defs>
</svg>
