<svg width="30" height="33" viewBox="0 0 30 33" fill="none" xmlns="http://www.w3.org/2000/svg">
<path d="M24 9.00001H6V24.3003C6 25.5849 6.00052 26.4583 6.05566 27.1333C6.10939 27.7909 6.20713 28.1277 6.32666 28.3623C6.61426 28.9267 7.07332 29.3857 7.6377 29.6733C7.87229 29.7929 8.20908 29.8906 8.8667 29.9443C9.54175 29.9995 10.4151 30 11.6997 30H18.3003C19.5849 30 20.4582 29.9995 21.1333 29.9443C21.7909 29.8906 22.1277 29.7929 22.3623 29.6733C22.9267 29.3857 23.3857 28.9267 23.6733 28.3623C23.7929 28.1277 23.8906 27.7909 23.9443 27.1333C23.9995 26.4583 24 25.5849 24 24.3003V9.00001ZM10.5 23.25V15.75C10.5 14.9216 11.1716 14.25 12 14.25C12.8284 14.25 13.5 14.9216 13.5 15.75V23.25C13.5 24.0784 12.8284 24.75 12 24.75C11.1716 24.75 10.5 24.0784 10.5 23.25ZM16.5 23.25V15.75C16.5 14.9216 17.1716 14.25 18 14.25C18.8284 14.25 19.5 14.9216 19.5 15.75V23.25C19.5 24.0784 18.8284 24.75 18 24.75C17.1716 24.75 16.5 24.0784 16.5 23.25ZM13.8003 3.00001C12.9355 3.00001 12.3767 3.0019 11.9517 3.03663C11.5443 3.06992 11.393 3.12628 11.3188 3.16407C11.0369 3.30783 10.8078 3.5369 10.6641 3.81885C10.6263 3.89301 10.5699 4.04429 10.5366 4.45167C10.5061 4.82539 10.5021 5.30235 10.5015 6.00001H19.4985C19.4979 5.30235 19.4939 4.82539 19.4634 4.45167C19.4301 4.04429 19.3737 3.89301 19.3359 3.81885C19.1922 3.5369 18.9631 3.30783 18.6812 3.16407C18.607 3.12628 18.4557 3.06992 18.0483 3.03663C17.6233 3.0019 17.0645 3.00001 16.1997 3.00001H13.8003ZM27 24.3003C27 25.5355 27.0015 26.5524 26.9341 27.3779C26.8652 28.221 26.7176 28.9967 26.3467 29.7246C25.7715 30.8534 24.8534 31.7715 23.7246 32.3467C22.9967 32.7176 22.221 32.8652 21.3779 32.9341C20.5524 33.0015 19.5355 33 18.3003 33H11.6997C10.4645 33 9.44764 33.0015 8.62207 32.9341C7.77899 32.8652 7.00335 32.7176 6.27539 32.3467C5.14663 31.7715 4.22852 30.8534 3.65332 29.7246C3.28241 28.9967 3.13481 28.221 3.06592 27.3779C2.99847 26.5524 3 25.5355 3 24.3003V9.00001H1.5C0.671573 9.00001 0 8.32843 0 7.50001C0 6.67158 0.671573 6.00001 1.5 6.00001H7.50146C7.50188 5.31146 7.50426 4.7107 7.54541 4.20704C7.59388 3.61415 7.70159 3.024 7.99072 2.45655C8.42208 1.61021 9.11021 0.922091 9.95654 0.490729C10.524 0.201601 11.1141 0.0938832 11.707 0.0454168C12.2825 -0.00160404 12.985 6.62126e-06 13.8003 6.62126e-06H16.1997C17.015 6.62126e-06 17.7175 -0.00160396 18.293 0.0454168C18.8859 0.0938832 19.476 0.201601 20.0435 0.490729C20.8898 0.922091 21.5779 1.61021 22.0093 2.45655C22.2984 3.024 22.4061 3.61415 22.4546 4.20704C22.4957 4.7107 22.4981 5.31146 22.4985 6.00001H28.5C29.3284 6.00001 30 6.67158 30 7.50001C30 8.32843 29.3284 9.00001 28.5 9.00001H27V24.3003Z" fill="currentColor"/>
</svg>
