<svg width="54" height="54" viewBox="0 0 54 54" fill="none" xmlns="http://www.w3.org/2000/svg">
<g filter="url(#filter0_d_16456_16225)">
<path d="M2 26C2 12.1929 13.1929 1 27 1C40.8071 1 52 12.1929 52 26C52 39.8071 40.8071 51 27 51C13.1929 51 2 39.8071 2 26Z" fill="#FFEBEC" shape-rendering="crispEdges"/>
<path d="M27 1.5C40.531 1.5 51.5 12.469 51.5 26C51.5 39.531 40.531 50.5 27 50.5C13.469 50.5 2.5 39.531 2.5 26C2.5 12.469 13.469 1.5 27 1.5Z" stroke="#FFC0C5" shape-rendering="crispEdges"/>
<path d="M33 21H21V31.2002C21 32.0566 21.0003 32.6388 21.0371 33.0889C21.0729 33.5273 21.1381 33.7518 21.2178 33.9082C21.4095 34.2845 21.7155 34.5905 22.0918 34.7822C22.2482 34.8619 22.4727 34.9271 22.9111 34.9629C23.3612 34.9997 23.9434 35 24.7998 35H29.2002C30.0566 35 30.6388 34.9997 31.0889 34.9629C31.5273 34.9271 31.7518 34.8619 31.9082 34.7822C32.2845 34.5905 32.5905 34.2845 32.7822 33.9082C32.8619 33.7518 32.9271 33.5273 32.9629 33.0889C32.9997 32.6388 33 32.0566 33 31.2002V21ZM24 30.5V25.5C24 24.9477 24.4477 24.5 25 24.5C25.5523 24.5 26 24.9477 26 25.5V30.5C26 31.0523 25.5523 31.5 25 31.5C24.4477 31.5 24 31.0523 24 30.5ZM28 30.5V25.5C28 24.9477 28.4477 24.5 29 24.5C29.5523 24.5 30 24.9477 30 25.5V30.5C30 31.0523 29.5523 31.5 29 31.5C28.4477 31.5 28 31.0523 28 30.5ZM26.2002 17C25.6236 17 25.2511 17.0013 24.9678 17.0244C24.6962 17.0466 24.5953 17.0842 24.5459 17.1094C24.3579 17.2052 24.2052 17.3579 24.1094 17.5459C24.0842 17.5953 24.0466 17.6962 24.0244 17.9678C24.0041 18.2169 24.0014 18.5349 24.001 19H29.999C29.9986 18.5349 29.9959 18.2169 29.9756 17.9678C29.9534 17.6962 29.9158 17.5953 29.8906 17.5459C29.7948 17.3579 29.6421 17.2052 29.4541 17.1094C29.4047 17.0842 29.3038 17.0466 29.0322 17.0244C28.7489 17.0013 28.3764 17 27.7998 17H26.2002ZM35 31.2002C35 32.0237 35.001 32.7016 34.9561 33.252C34.9101 33.814 34.8117 34.3311 34.5645 34.8164C34.181 35.5689 33.5689 36.181 32.8164 36.5645C32.3311 36.8117 31.814 36.9101 31.252 36.9561C30.7016 37.001 30.0237 37 29.2002 37H24.7998C23.9763 37 23.2984 37.001 22.748 36.9561C22.186 36.9101 21.6689 36.8117 21.1836 36.5645C20.4311 36.181 19.819 35.5689 19.4355 34.8164C19.1883 34.3311 19.0899 33.814 19.0439 33.252C18.999 32.7016 19 32.0237 19 31.2002V21H18C17.4477 21 17 20.5523 17 20C17 19.4477 17.4477 19 18 19H22.001C22.0013 18.541 22.0028 18.1405 22.0303 17.8047C22.0626 17.4094 22.1344 17.016 22.3271 16.6377C22.6147 16.0735 23.0735 15.6147 23.6377 15.3272C24.016 15.1344 24.4094 15.0626 24.8047 15.0303C25.1884 14.9989 25.6566 15 26.2002 15H27.7998C28.3434 15 28.8116 14.9989 29.1953 15.0303C29.5906 15.0626 29.984 15.1344 30.3623 15.3272C30.9265 15.6147 31.3853 16.0735 31.6729 16.6377C31.8656 17.016 31.9374 17.4094 31.9697 17.8047C31.9972 18.1405 31.9987 18.541 31.999 19H36C36.5523 19 37 19.4477 37 20C37 20.5523 36.5523 21 36 21H35V31.2002Z" fill="#FB3748"/>
</g>
<defs>
<filter id="filter0_d_16456_16225" x="0" y="0" width="54" height="54" filterUnits="userSpaceOnUse" color-interpolation-filters="sRGB">
<feFlood flood-opacity="0" result="BackgroundImageFix"/>
<feColorMatrix in="SourceAlpha" type="matrix" values="0 0 0 0 0 0 0 0 0 0 0 0 0 0 0 0 0 0 127 0" result="hardAlpha"/>
<feOffset dy="1"/>
<feGaussianBlur stdDeviation="1"/>
<feComposite in2="hardAlpha" operator="out"/>
<feColorMatrix type="matrix" values="0 0 0 0 0.0392157 0 0 0 0 0.0509804 0 0 0 0 0.0784314 0 0 0 0.03 0"/>
<feBlend mode="normal" in2="BackgroundImageFix" result="effect1_dropShadow_16456_16225"/>
<feBlend mode="normal" in="SourceGraphic" in2="effect1_dropShadow_16456_16225" result="shape"/>
</filter>
</defs>
</svg>
