<svg width="40" height="40" viewBox="0 0 40 40" fill="none" xmlns="http://www.w3.org/2000/svg">
  <g clip-path="url(#clip0_175356_5103)">
    <path
      d="M10 0.75H20.5146C21.907 0.75 23.242 1.30354 24.2266 2.28809L33.7119 11.7734C34.6965 12.758 35.25 14.093 35.25 15.4854V34C35.25 36.8995 32.8995 39.25 30 39.25H10C7.10051 39.25 4.75 36.8995 4.75 34V6C4.75 3.10051 7.10051 0.75 10 0.75Z"
      fill="white" stroke="#D1D1D1" stroke-width="1.5"/>
    <path d="M23 1V9C23 11.2091 24.7909 13 27 13H35" stroke="#D1D1D1" stroke-width="1.5"/>
    <path
      d="M0 22C0 19.7909 1.79086 18 4 18H37C39.2091 18 41 19.7909 41 22V30C41 32.2091 39.2091 34 37 34H4C1.79086 34 0 32.2091 0 30V22Z"
      fill="#D1D1D1"/>
    <path
      d="M5.47266 30L3.21484 22H4.77344L6.21484 27.8789H6.28906L7.82813 22H9.24609L10.7891 27.8828H10.8594L12.3008 22H13.8594L11.6016 30H10.1719L8.57031 24.3867H8.50781L6.90234 30H5.47266ZM21.803 26C21.803 26.862 21.6415 27.6003 21.3186 28.2148C20.9983 28.8268 20.5608 29.2956 20.0061 29.6211C19.454 29.9466 18.8277 30.1094 18.1272 30.1094C17.4267 30.1094 16.7991 29.9466 16.2444 29.6211C15.6923 29.293 15.2548 28.8229 14.9319 28.2109C14.6116 27.5964 14.4514 26.8594 14.4514 26C14.4514 25.138 14.6116 24.401 14.9319 23.7891C15.2548 23.1745 15.6923 22.7044 16.2444 22.3789C16.7991 22.0534 17.4267 21.8906 18.1272 21.8906C18.8277 21.8906 19.454 22.0534 20.0061 22.3789C20.5608 22.7044 20.9983 23.1745 21.3186 23.7891C21.6415 24.401 21.803 25.138 21.803 26ZM20.346 26C20.346 25.3932 20.2509 24.8815 20.0608 24.4648C19.8733 24.0456 19.6129 23.7292 19.2796 23.5156C18.9462 23.2995 18.5621 23.1914 18.1272 23.1914C17.6923 23.1914 17.3082 23.2995 16.9749 23.5156C16.6415 23.7292 16.3798 24.0456 16.1897 24.4648C16.0022 24.8815 15.9085 25.3932 15.9085 26C15.9085 26.6068 16.0022 27.1198 16.1897 27.5391C16.3798 27.9557 16.6415 28.2721 16.9749 28.4883C17.3082 28.7018 17.6923 28.8086 18.1272 28.8086C18.5621 28.8086 18.9462 28.7018 19.2796 28.4883C19.6129 28.2721 19.8733 27.9557 20.0608 27.5391C20.2509 27.1198 20.346 26.6068 20.346 26ZM23.3931 30V22H26.3931C27.0077 22 27.5233 22.1068 27.94 22.3203C28.3593 22.5339 28.6757 22.8333 28.8892 23.2187C29.1054 23.6016 29.2134 24.0482 29.2134 24.5586C29.2134 25.0716 29.1041 25.5169 28.8853 25.8945C28.6692 26.2695 28.3502 26.5599 27.9283 26.7656C27.5064 26.9687 26.9882 27.0703 26.3736 27.0703H24.2369V25.8672H26.1783C26.5377 25.8672 26.8319 25.8177 27.0611 25.7187C27.2903 25.6172 27.4595 25.4701 27.5689 25.2773C27.6809 25.082 27.7369 24.8424 27.7369 24.5586C27.7369 24.2747 27.6809 24.0326 27.5689 23.832C27.4569 23.6289 27.2864 23.4753 27.0572 23.3711C26.828 23.2643 26.5324 23.2109 26.1705 23.2109H24.8423V30H23.3931ZM27.5259 26.375L29.5064 30H27.8892L25.9439 26.375H27.5259ZM33.4784 30H30.7674V22H33.533C34.3273 22 35.0096 22.1602 35.5799 22.4805C36.1528 22.7982 36.5929 23.2552 36.9002 23.8516C37.2075 24.4479 37.3612 25.1615 37.3612 25.9922C37.3612 26.8255 37.2062 27.5417 36.8963 28.1406C36.589 28.7396 36.145 29.1992 35.5643 29.5195C34.9862 29.8398 34.2909 30 33.4784 30ZM32.2166 28.7461H33.408C33.9653 28.7461 34.4302 28.6445 34.8026 28.4414C35.175 28.2357 35.4549 27.9297 35.6424 27.5234C35.8299 27.1146 35.9237 26.6042 35.9237 25.9922C35.9237 25.3802 35.8299 24.8724 35.6424 24.4687C35.4549 24.0625 35.1776 23.7591 34.8104 23.5586C34.4458 23.3555 33.9927 23.2539 33.451 23.2539H32.2166V28.7461Z"
      fill="#171717"/>
  </g>
  <defs>
    <clipPath id="clip0_175356_5103">
      <rect width="40" height="40" fill="white"/>
    </clipPath>
  </defs>
</svg>
