<svg width="20" height="20" viewBox="0 0 20 20" fill="none" xmlns="http://www.w3.org/2000/svg">
<rect width="20" height="20" rx="6" fill="#F5F5F5"/>
<path fill-rule="evenodd" clip-rule="evenodd" d="M10 4C6.68629 4 4 6.68629 4 10C4 13.3137 6.68629 16 10 16C13.3137 16 16 13.3137 16 10C16 6.68629 13.3137 4 10 4ZM12.8402 8.74933C13.0533 8.53632 13.0533 8.19096 12.8402 7.97794C12.6272 7.76493 12.2819 7.76493 12.0689 7.97794L9.18182 10.865L7.93115 9.61431C7.71814 9.40129 7.37277 9.40129 7.15976 9.61431C6.94675 9.82732 6.94675 10.1727 7.15976 10.3857L8.79612 12.0221C9.00914 12.2351 9.3545 12.2351 9.56751 12.0221L12.8402 8.74933Z" fill="#1FC16B"/>
</svg>
