<svg width="17" height="17" viewBox="0 0 17 17" fill="none" xmlns="http://www.w3.org/2000/svg">
<path d="M9.33366 1.00001C9.33366 0.539768 8.96056 0.166672 8.50033 0.166672C8.04009 0.166672 7.66699 0.539768 7.66699 1.00001V8.98816L4.92291 6.24408C4.59748 5.91865 4.06984 5.91865 3.7444 6.24408C3.41897 6.56952 3.41897 7.09716 3.7444 7.42259L7.91107 11.5893C8.23651 11.9147 8.76414 11.9147 9.08958 11.5893L13.2562 7.42259C13.5817 7.09716 13.5817 6.56952 13.2562 6.24408C12.9308 5.91865 12.4032 5.91865 12.0777 6.24408L9.33366 8.98816V1.00001Z" fill="white"/>
<path d="M1.00033 10.1667C1.46056 10.1667 1.83366 10.5398 1.83366 11V12C1.83366 12.7138 1.83431 13.1991 1.86495 13.5741C1.8948 13.9395 1.94891 14.1263 2.01532 14.2567C2.1751 14.5703 2.43007 14.8252 2.74368 14.985C2.87401 15.0514 3.06085 15.1055 3.42619 15.1354C3.80127 15.166 4.28651 15.1667 5.00033 15.1667H12.0003C12.7141 15.1667 13.1994 15.166 13.5745 15.1354C13.9398 15.1055 14.1266 15.0514 14.257 14.985C14.5706 14.8252 14.8255 14.5703 14.9853 14.2567C15.0517 14.1263 15.1058 13.9395 15.1357 13.5741C15.1663 13.1991 15.167 12.7138 15.167 12V11C15.167 10.5398 15.5401 10.1667 16.0003 10.1667C16.4606 10.1667 16.8337 10.5398 16.8337 11V12.0344C16.8337 12.7052 16.8337 13.2589 16.7968 13.7099C16.7586 14.1783 16.6764 14.6089 16.4703 15.0133C16.1508 15.6405 15.6408 16.1504 15.0136 16.47C14.6092 16.6761 14.1786 16.7582 13.7102 16.7965C13.2592 16.8334 12.7056 16.8334 12.0347 16.8333H4.96591C4.2951 16.8334 3.74147 16.8334 3.29047 16.7965C2.82206 16.7582 2.39147 16.6761 1.98703 16.47C1.35982 16.1504 0.849883 15.6405 0.530305 15.0133C0.324229 14.6089 0.242092 14.1783 0.203821 13.7099C0.166974 13.2589 0.166982 12.7052 0.166993 12.0344V11C0.166993 10.5398 0.540089 10.1667 1.00033 10.1667Z" fill="white"/>
</svg>
