<svg width="20" height="20" viewBox="0 0 20 20" fill="none" xmlns="http://www.w3.org/2000/svg">
<path d="M17.4999 10.0002C17.4999 5.85803 14.1421 2.50016 9.99992 2.50016C5.85778 2.50016 2.49992 5.85803 2.49992 10.0002C2.49992 14.1423 5.85778 17.5002 9.99992 17.5002C14.1421 17.5002 17.4999 14.1423 17.4999 10.0002ZM9.16658 6.66683C9.16658 6.20659 9.53968 5.8335 9.99992 5.8335C10.4602 5.8335 10.8333 6.20659 10.8333 6.66683V11.3218L12.7441 9.41097C13.0695 9.08553 13.597 9.08553 13.9224 9.41097C14.2479 9.73641 14.2479 10.2639 13.9224 10.5894L10.5891 13.9227C10.2637 14.2481 9.73616 14.2481 9.41072 13.9227L6.07739 10.5894C5.75196 10.2639 5.75196 9.73641 6.07739 9.41097C6.40283 9.08553 6.93034 9.08553 7.25578 9.41097L9.16658 11.3218V6.66683ZM19.1666 10.0002C19.1666 15.0628 15.0625 19.1668 9.99992 19.1668C4.93731 19.1668 0.833252 15.0628 0.833252 10.0002C0.833252 4.93755 4.93731 0.833496 9.99992 0.833496C15.0625 0.833496 19.1666 4.93755 19.1666 10.0002Z" fill="#00A38D"/>
</svg>
