<svg width="50" height="50" viewBox="0 0 50 50" fill="none" xmlns="http://www.w3.org/2000/svg">
<rect x="0.5" y="0.5" width="49" height="49" rx="24.5" fill="white"/>
<rect x="0.5" y="0.5" width="49" height="49" rx="24.5" stroke="#EBEBEB"/>
<path d="M14 30.2V21.7996C14 20.9762 13.999 20.2982 14.0439 19.7478C14.0899 19.186 14.1885 18.6695 14.4355 18.1844C14.819 17.4319 15.4312 16.8198 16.1836 16.4363C16.6689 16.189 17.186 16.0897 17.748 16.0437C18.2984 15.9988 18.9763 15.9998 19.7998 15.9998H24C24.5522 15.9998 24.9999 16.4476 25 16.9998C25 17.5521 24.5523 17.9998 24 17.9998H19.7998C18.9434 17.9998 18.3612 18.0011 17.9111 18.0379C17.4727 18.0737 17.2482 18.1379 17.0918 18.2176C16.7156 18.4093 16.4095 18.7154 16.2178 19.0916C16.1381 19.248 16.0729 19.4726 16.0371 19.9109C16.0003 20.3609 16 20.9432 16 21.7996V30.2C16 31.0563 16.0004 31.6386 16.0371 32.0887C16.0729 32.527 16.1381 32.7516 16.2178 32.908C16.4095 33.2843 16.7156 33.5903 17.0918 33.782C17.2482 33.8617 17.4727 33.9269 17.9111 33.9627C18.3612 33.9994 18.9434 33.9998 19.7998 33.9998H28.2002C29.0566 33.9998 29.6388 33.9994 30.0889 33.9627C30.5273 33.9269 30.7518 33.8617 30.9082 33.782C31.2844 33.5903 31.5905 33.2843 31.7822 32.908C31.8619 32.7516 31.9271 32.527 31.9629 32.0887C31.9996 31.6386 32 31.0563 32 30.2V25.9998C32.0001 25.4476 32.4478 24.9998 33 24.9998C33.5522 24.9998 33.9999 25.4476 34 25.9998V30.2C34 31.0235 34.001 31.7013 33.9561 32.2517C33.9101 32.8138 33.8117 33.3309 33.5645 33.8162C33.181 34.5688 32.5689 35.1807 31.8164 35.5642C31.3311 35.8115 30.814 35.9099 30.252 35.9558C29.7016 36.0008 29.0237 35.9998 28.2002 35.9998H19.7998C18.9763 35.9998 18.2984 36.0008 17.748 35.9558C17.186 35.9099 16.6689 35.8115 16.1836 35.5642C15.4311 35.1807 14.819 34.5688 14.4355 33.8162C14.1883 33.3309 14.0899 32.8138 14.0439 32.2517C13.999 31.7013 14 31.0235 14 30.2ZM30.793 14.7928C32.0119 13.574 33.9881 13.574 35.207 14.7928C36.4259 16.0117 36.4259 17.9879 35.207 19.2068L25.6445 28.7703C25.3323 29.0825 25.0654 29.3585 24.7393 29.5584C24.4709 29.7228 24.1781 29.8433 23.8721 29.9168C23.5001 30.0061 23.1163 29.9998 22.6748 29.9998H21C20.4477 29.9998 20 29.5521 20 28.9998V27.326C20 26.8844 19.9937 26.4998 20.083 26.1277C20.1565 25.8218 20.278 25.5288 20.4424 25.2605C20.6423 24.9345 20.9184 24.6674 21.2305 24.3553L30.793 14.7928ZM22 27.9998H22.6748C23.2113 27.9998 23.317 27.9936 23.4053 27.9724C23.5072 27.9479 23.6049 27.9071 23.6943 27.8523C23.7717 27.8049 23.8515 27.7343 24.2305 27.3553L33.793 17.7928C34.2308 17.3548 34.2308 16.6447 33.793 16.2068C33.3551 15.7691 32.6449 15.7691 32.207 16.2068L22.6445 25.7703C22.2651 26.1498 22.1949 26.229 22.1475 26.3064C22.0928 26.3957 22.0518 26.4927 22.0273 26.5945C22.0061 26.6828 22 26.7892 22 27.326V27.9998Z" fill="#00A38D"/>
</svg>
