<svg width="19" height="19" viewBox="0 0 19 19" fill="none" xmlns="http://www.w3.org/2000/svg">
<path d="M12.5777 1.91057C13.8236 0.664814 15.8435 0.664829 17.0894 1.91057C18.3353 3.15644 18.3352 5.17636 17.0894 6.42228L6.08435 17.4281C5.86284 17.6497 5.67295 17.8448 5.4447 17.9954C5.25667 18.1193 5.05269 18.2173 4.83842 18.2867C4.57834 18.3709 4.30742 18.397 3.99613 18.4316L1.1755 18.7449C0.923912 18.7728 0.673335 18.6846 0.494344 18.5056C0.315423 18.3266 0.227136 18.076 0.255086 17.8245L0.5684 15.0046C0.603 14.6932 0.629037 14.4217 0.713256 14.1615C0.782631 13.9473 0.881432 13.7433 1.00541 13.5553C1.15592 13.3271 1.35119 13.137 1.57263 12.9156L12.5777 1.91057ZM2.75102 14.0948C2.48235 14.3635 2.43202 14.4189 2.3962 14.4732C2.35496 14.5358 2.32245 14.6037 2.29936 14.6751C2.27931 14.737 2.26727 14.8108 2.2253 15.1886L2.02673 16.9732L3.81221 16.7755C4.18953 16.7335 4.26302 16.7206 4.32491 16.7006C4.39635 16.6775 4.46487 16.6451 4.52755 16.6038C4.58179 16.5679 4.63765 16.5173 4.90596 16.2489L12.8218 8.33309L10.6669 6.17814L2.75102 14.0948ZM15.911 3.08895C15.316 2.49409 14.3511 2.49407 13.7561 3.08895L11.8453 4.99976L14.0002 7.15471L15.911 5.2439C16.5059 4.64885 16.506 3.68395 15.911 3.08895Z" fill="#73757B"/>
</svg>
