<svg xmlns="http://www.w3.org/2000/svg" viewBox="0 0 22 22" fill="none">
  <path
    d="M15.2932 1.29268C16.7883 -0.202223 19.2122 -0.202205 20.7073 1.29268C22.2023 2.78773 22.2022 5.21164 20.7073 6.70674L7.50122 19.9138C7.23541 20.1796 7.00754 20.4138 6.73364 20.5944C6.50801 20.7432 6.26323 20.8608 6.0061 20.944C5.69401 21.0451 5.3689 21.0764 4.99536 21.1179L1.6106 21.4939C1.30869 21.5274 1.008 21.4215 0.793212 21.2067C0.578507 20.9919 0.472564 20.6912 0.506103 20.3894L0.88208 17.0056C0.9236 16.6319 0.954845 16.306 1.05591 15.9938C1.13916 15.7367 1.25772 15.4919 1.40649 15.2663C1.5871 14.9926 1.82143 14.7645 2.08716 14.4987L15.2932 1.29268ZM3.50122 15.9138C3.17882 16.2362 3.11843 16.3027 3.07544 16.3679C3.02595 16.443 2.98694 16.5245 2.95923 16.6101C2.93518 16.6844 2.92073 16.773 2.87036 17.2263L2.63208 19.3679L4.77466 19.1306C5.22744 19.0803 5.31563 19.0648 5.38989 19.0407C5.47562 19.013 5.55784 18.9741 5.63306 18.9245C5.69815 18.8815 5.76518 18.8207 6.08716 18.4987L15.5862 8.99971L13.0002 6.41377L3.50122 15.9138ZM19.2932 2.70674C18.5792 1.9929 17.4213 1.99289 16.7073 2.70674L14.4143 4.99971L17.0002 7.58565L19.2932 5.29268C20.0071 4.57862 20.0072 3.42074 19.2932 2.70674Z"
    fill="currentColor"/>
</svg>
