<svg width="68" height="68" viewBox="0 0 68 68" fill="none" xmlns="http://www.w3.org/2000/svg">
<rect width="68" height="68" rx="34" fill="#F7F7F7"/>
<path d="M46.0007 33.9997C46.0007 27.3723 40.6281 21.9997 34.0007 21.9997C27.3732 21.9997 22.0007 27.3723 22.0007 33.9997C22.0007 40.6271 27.3732 45.9997 34.0007 45.9997C40.6281 45.9997 46.0007 40.6271 46.0007 33.9997ZM32.6673 25.9997C32.6673 25.2633 33.2643 24.6663 34.0007 24.6663C34.737 24.6663 35.334 25.2633 35.334 25.9997V33.1755L39.9303 35.4736C40.589 35.803 40.856 36.6041 40.5267 37.2627C40.1974 37.9213 39.3963 38.1884 38.7376 37.8591L33.4043 35.1924C32.9526 34.9665 32.6673 34.5047 32.6673 33.9997V25.9997ZM48.6673 33.9997C48.6673 42.0999 42.1008 48.6663 34.0007 48.6663C25.9005 48.6663 19.334 42.0999 19.334 33.9997C19.334 25.8995 25.9005 19.333 34.0007 19.333C42.1008 19.333 48.6673 25.8995 48.6673 33.9997Z" fill="#00A38D"/>
</svg>
