<svg width="20" height="20" viewBox="0 0 20 20" fill="none" xmlns="http://www.w3.org/2000/svg">
<rect width="20" height="20" rx="6" fill="#F5F5F5"/>
<path d="M10 4C6.68629 4 4 6.68629 4 10C4 13.3137 6.68629 16 10 16C13.3137 16 16 13.3137 16 10C16 6.68629 13.3137 4 10 4Z" fill="#FF4433"/>
<path fill-rule="evenodd" clip-rule="evenodd" d="M10.6543 7.38135C10.6543 7.01986 10.3613 6.72681 9.99976 6.72681C9.63826 6.72681 9.34521 7.01986 9.34521 7.38135V9.99953C9.34521 10.361 9.63826 10.6541 9.99976 10.6541C10.3613 10.6541 10.6543 10.361 10.6543 9.99953V7.38135ZM9.99976 11.9632C9.63826 11.9632 9.34521 12.2562 9.34521 12.6177C9.34521 12.9792 9.63826 13.2723 9.99976 13.2723H10.0063C10.3678 13.2723 10.6609 12.9792 10.6609 12.6177C10.6609 12.2562 10.3678 11.9632 10.0063 11.9632H9.99976Z" fill="white"/>
</svg>
