<svg width="19" height="19" viewBox="0 0 19 19" fill="none" xmlns="http://www.w3.org/2000/svg">
<path fill-rule="evenodd" clip-rule="evenodd" d="M9.16667 0C4.10406 0 0 4.10406 0 9.16667C0 14.2293 4.10406 18.3333 9.16667 18.3333C14.2293 18.3333 18.3333 14.2293 18.3333 9.16667C18.3333 4.10406 14.2293 0 9.16667 0ZM10 5.83333C10 5.3731 9.6269 5 9.16667 5C8.70643 5 8.33333 5.3731 8.33333 5.83333V9.16667C8.33333 9.6269 8.70643 10 9.16667 10C9.6269 10 10 9.6269 10 9.16667V5.83333ZM9.16667 11.6667C8.70643 11.6667 8.33333 12.0398 8.33333 12.5C8.33333 12.9602 8.70643 13.3333 9.16667 13.3333H9.175C9.63524 13.3333 10.0083 12.9602 10.0083 12.5C10.0083 12.0398 9.63524 11.6667 9.175 11.6667H9.16667Z" fill="#FB3748"/>
</svg>
