<svg width="16" height="12" viewBox="0 0 16 12" fill="none" xmlns="http://www.w3.org/2000/svg">
<path d="M1.84122 6.45847C1.7513 6.31985 1.70634 6.25053 1.68117 6.14362C1.66227 6.06332 1.66227 5.93668 1.68117 5.85638C1.70634 5.74947 1.7513 5.68015 1.84122 5.54153C2.58432 4.39597 4.79621 1.5 8.16699 1.5C11.5378 1.5 13.7497 4.39597 14.4928 5.54153C14.5827 5.68015 14.6276 5.74947 14.6528 5.85638C14.6717 5.93668 14.6717 6.06332 14.6528 6.14362C14.6276 6.25053 14.5827 6.31985 14.4928 6.45847C13.7497 7.60403 11.5378 10.5 8.16699 10.5C4.79621 10.5 2.58432 7.60403 1.84122 6.45847Z" stroke="#515151" stroke-width="1.5" stroke-linecap="round" stroke-linejoin="round"/>
<path d="M8.16699 7.92857C9.261 7.92857 10.1479 7.06512 10.1479 6C10.1479 4.93488 9.261 4.07143 8.16699 4.07143C7.07299 4.07143 6.18612 4.93488 6.18612 6C6.18612 7.06512 7.07299 7.92857 8.16699 7.92857Z" stroke="#515151" stroke-width="1.5" stroke-linecap="round" stroke-linejoin="round"/>
</svg>
