<svg width="20" height="20" viewBox="0 0 20 20" fill="none" xmlns="http://www.w3.org/2000/svg">
<path d="M10 3.16699C12.4363 3.16699 14.4177 4.24403 15.877 5.46191C17.3335 6.6777 18.3302 8.08206 18.8291 8.87207C18.9143 9.00691 19.0464 9.20143 19.1289 9.4707L19.1602 9.59082L19.1934 9.78906C19.2149 9.9959 19.2033 10.2218 19.1602 10.4102C19.0839 10.7424 18.9264 10.9749 18.8291 11.1289C18.33 11.9191 17.3334 13.3235 15.877 14.5391C14.4178 15.7569 12.4361 16.834 10 16.834C7.56403 16.8339 5.58315 15.7568 4.12402 14.5391C2.6673 13.3233 1.66991 11.919 1.1709 11.1289C1.07363 10.9749 0.916123 10.7425 0.839844 10.4102C0.782316 10.1592 0.782386 9.84188 0.839844 9.59082L0.87207 9.4707C0.954559 9.20164 1.08573 9.00689 1.1709 8.87207C1.66983 8.08206 2.66731 6.67778 4.12402 5.46191C5.58316 4.2441 7.56393 3.16711 10 3.16699ZM10 5.16699C8.18226 5.16711 6.63974 5.96677 5.40527 6.99707C4.16852 8.02936 3.30115 9.24556 2.8623 9.94043C2.84763 9.96366 2.83482 9.98308 2.82422 10C2.83493 10.0171 2.84741 10.037 2.8623 10.0605C3.30117 10.7554 4.16871 11.9708 5.40527 13.0029C6.63972 14.0332 8.18232 14.8339 10 14.834C11.8178 14.834 13.3602 14.0332 14.5947 13.0029C15.8315 11.9707 16.6997 10.7555 17.1387 10.0605C17.1534 10.0372 17.1651 10.017 17.1758 10C17.1652 9.98316 17.1532 9.96349 17.1387 9.94043C16.6998 9.24553 15.8316 8.02939 14.5947 6.99707C13.3602 5.96681 11.8178 5.16699 10 5.16699ZM10 6.5C11.9329 6.5 13.4998 8.06715 13.5 10C13.4998 11.9328 11.9329 13.5 10 13.5C8.0673 13.4998 6.50018 11.9327 6.5 10C6.50018 8.06729 8.0673 6.50022 10 6.5ZM10 8.5C9.17187 8.50022 8.50018 9.17186 8.5 10C8.50018 10.8281 9.17187 11.4998 10 11.5C10.8283 11.5 11.4998 10.8283 11.5 10C11.4998 9.17172 10.8283 8.5 10 8.5Z" fill="#5C5C5C"/>
</svg>
