<svg width="68" height="68" viewBox="0 0 68 68" fill="none" xmlns="http://www.w3.org/2000/svg">
<rect width="68" height="68" rx="34" fill="#F7F7F7"/>
<path d="M47.5 35.3802V33.7C47.5 32.4154 47.4995 31.5421 47.4443 30.867C47.3906 30.2094 47.2929 29.8726 47.1733 29.638C46.8857 29.0736 46.4267 28.6146 45.8623 28.327C45.6277 28.2074 45.2909 28.1097 44.6333 28.056C43.9583 28.0008 43.0849 28.0003 41.8003 28.0003H20.5V40.3006C20.5 41.5852 20.5005 42.4586 20.5557 43.1336C20.6094 43.7912 20.7071 44.128 20.8267 44.3626C21.1143 44.927 21.5733 45.3861 22.1377 45.6737C22.3723 45.7932 22.7091 45.8909 23.3667 45.9447C24.0418 45.9998 24.9151 46.0003 26.1997 46.0003H34.8745C35.7028 46.0005 36.3745 46.672 36.3745 47.5003C36.3745 48.3287 35.7028 49.0002 34.8745 49.0003H26.1997C24.9645 49.0003 23.9476 49.0019 23.1221 48.9344C22.279 48.8655 21.5034 48.7179 20.7754 48.347C19.6466 47.7718 18.7285 46.8537 18.1533 45.7249C17.7824 44.997 17.6348 44.2213 17.5659 43.3782C17.4985 42.5527 17.5 41.5358 17.5 40.3006V25.3006C17.5 24.4853 17.4984 23.7829 17.5454 23.2073C17.5939 22.6145 17.7016 22.0243 17.9907 21.4569C18.4221 20.6105 19.1102 19.9224 19.9565 19.491C20.524 19.2019 21.1142 19.0942 21.707 19.0457C22.2825 18.9987 22.985 19.0003 23.8003 19.0003H29.5337C30.5017 19.0003 31.3436 18.9809 32.1133 19.2464C32.7438 19.4639 33.3184 19.8183 33.7949 20.285C34.3766 20.8547 34.7361 21.6164 35.169 22.4823L36.4273 25.0003H41.8003C43.0355 25.0003 44.0524 24.9988 44.8779 25.0662C45.721 25.1351 46.4967 25.2827 47.2246 25.6536C48.3534 26.2288 49.2715 27.1469 49.8467 28.2757C50.2176 29.0037 50.3652 29.7793 50.4341 30.6224C50.5015 31.448 50.5 32.4648 50.5 33.7V35.3802C50.5 36.2086 49.8284 36.8802 49 36.8802C48.1716 36.8802 47.5 36.2086 47.5 35.3802ZM23.8003 22.0003C22.9355 22.0003 22.3767 22.0022 21.9517 22.0369C21.5443 22.0702 21.393 22.1266 21.3189 22.1644C21.0369 22.3081 20.8078 22.5372 20.6641 22.8192C20.6263 22.8933 20.5699 23.0446 20.5366 23.452C20.5061 23.8257 20.5021 24.3027 20.5015 25.0003H33.0728L32.4854 23.824C31.9553 22.7638 31.8325 22.562 31.6958 22.4281C31.537 22.2725 31.3449 22.1548 31.1348 22.0823C30.9539 22.02 30.7187 22.0003 29.5337 22.0003H23.8003Z" fill="#171717"/>
<path d="M49.0005 38.5C49.8288 38.5001 50.5005 39.1717 50.5005 40C50.5005 40.8283 49.8288 41.4999 49.0005 41.5H38.7949C37.9665 41.5 37.2949 40.8284 37.2949 40C37.2949 39.1716 37.9665 38.5 38.7949 38.5H49.0005Z" fill="#171717"/>
<path d="M49.0005 43C49.8288 43.0001 50.5005 43.6717 50.5005 44.5C50.5005 45.3283 49.8288 45.9999 49.0005 46H38.7949C37.9665 46 37.2949 45.3284 37.2949 44.5C37.2949 43.6716 37.9665 43 38.7949 43H49.0005Z" fill="#171717"/>
<path d="M49.0005 47.5C49.8288 47.5001 50.5005 48.1717 50.5005 49C50.5005 49.8283 49.8288 50.4999 49.0005 50.5H38.7949C37.9665 50.5 37.2949 49.8284 37.2949 49C37.2949 48.1716 37.9665 47.5 38.7949 47.5H49.0005Z" fill="#171717"/>
</svg>
