<svg width="31" height="31" viewBox="0 0 31 31" fill="none" xmlns="http://www.w3.org/2000/svg">
<path opacity="0.12" d="M22.1213 10.6214L17.8787 6.37875C17.6222 6.12223 17.324 5.91696 17 5.76953V9.90007C17 10.4601 17 10.7401 17.109 10.9541C17.2049 11.1422 17.3578 11.2952 17.546 11.3911C17.7599 11.5001 18.0399 11.5001 18.6 11.5001H22.7305C22.5831 11.1761 22.3778 10.8779 22.1213 10.6214Z" fill="#008C79"/>
<path d="M18.25 4.30996V9.06008C18.25 9.70414 18.25 10.0262 18.3726 10.2722C18.4805 10.4886 18.6526 10.6645 18.8643 10.7747C19.1049 10.9001 19.4199 10.9001 20.05 10.9001H24.6969M18.25 21.25H11.5M20.5 16.65H11.5M25 13.1865V21.48C25 23.4122 25 24.3783 24.6321 25.1163C24.3086 25.7654 23.7923 26.2932 23.1572 26.624C22.4353 27 21.4902 27 19.6 27H12.4C10.5098 27 9.56473 27 8.84278 26.624C8.20774 26.2932 7.69143 25.7654 7.36785 25.1163C7 24.3783 7 23.4122 7 21.48V9.52C7 7.58782 7 6.62173 7.36785 5.88373C7.69143 5.23457 8.20774 4.70679 8.84278 4.37603C9.56473 4 10.5098 4 12.4 4H16.0132C16.8387 4 17.2515 4 17.6399 4.09532C17.9843 4.17984 18.3135 4.31923 18.6155 4.50839C18.9561 4.72175 19.2479 5.02009 19.8316 5.61677L23.4184 9.28323C24.0021 9.87991 24.2939 10.1783 24.5027 10.5264C24.6877 10.8351 24.8241 11.1716 24.9067 11.5237C25 11.9207 25 12.3426 25 13.1865Z" stroke="#008C79" stroke-width="3" stroke-linecap="round" stroke-linejoin="round"/>
</svg>
