<svg width="24" height="24" viewBox="0 0 24 24" fill="none" xmlns="http://www.w3.org/2000/svg">
<g clip-path="url(#clip0_3164_142493)">
<path d="M20.9412 10.925V7.04C20.9412 5.27583 20.9412 4.39375 20.595 3.71993C20.2904 3.12722 19.8045 2.64533 19.2068 2.34333C18.5273 2 17.6378 2 15.8588 2H9.08235C7.30336 2 6.41387 2 5.73438 2.34333C5.13669 2.64533 4.65075 3.12722 4.34621 3.71993C4 4.39375 4 5.27583 4 7.04V17.96C4 19.7242 4 20.6062 4.34621 21.2801C4.65075 21.8728 5.13669 22.3547 5.73438 22.6567C6.41387 23 7.30336 23 9.08235 23H12.4706M14.5882 11.45H8.23529M10.3529 15.65H8.23529M16.7059 7.25H8.23529M18.8235 21.95V15.65M15.6471 18.8H22" stroke="#00A38D" stroke-width="2.5" stroke-linecap="round" stroke-linejoin="round"/>
</g>
<defs>
<clipPath id="clip0_3164_142493">
<rect width="24" height="24" fill="white"/>
</clipPath>
</defs>
</svg>
