<svg width="24" height="28" viewBox="0 0 24 28" fill="none" xmlns="http://www.w3.org/2000/svg">
<path d="M17.5 26.2499C17.5 26.9403 18.0596 27.4999 18.75 27.4999C19.4404 27.4999 20 26.9403 20 26.2499V21.7675L21.6162 23.3837C22.1044 23.8719 22.8956 23.8719 23.3838 23.3837C23.8719 22.8955 23.8719 22.1043 23.3838 21.6161L19.6338 17.8661C19.1456 17.378 18.3544 17.378 17.8662 17.8661L14.1162 21.6161C13.6281 22.1043 13.6281 22.8955 14.1162 23.3837C14.6044 23.8719 15.3956 23.8719 15.8838 23.3837L17.5 21.7675V26.2499ZM8.75 16.25C9.44036 16.25 10 16.8096 10 17.5C10 18.1904 9.44036 18.75 8.75 18.75H6.25C5.55965 18.75 5 18.1904 5 17.5C5 16.8096 5.55965 16.25 6.25 16.25H8.75ZM20 14.375V7.24976C20 6.17927 19.9996 5.45146 19.9536 4.88892C19.9088 4.3409 19.8274 4.06025 19.7278 3.86475C19.4881 3.39443 19.1056 3.01189 18.6353 2.77222C18.4398 2.67261 18.1591 2.59116 17.6111 2.54639C17.0485 2.50044 16.3207 2.5 15.2502 2.5H7.24976C6.17927 2.5 5.45146 2.50044 4.88892 2.54639C4.3409 2.59116 4.06025 2.67261 3.86475 2.77222C3.39443 3.01189 3.01189 3.39443 2.77222 3.86475C2.67261 4.06025 2.59116 4.3409 2.54639 4.88892C2.50044 5.45146 2.5 6.17927 2.5 7.24976V20.2502C2.5 21.3207 2.50044 22.0485 2.54639 22.6111C2.59116 23.1591 2.67261 23.4398 2.77222 23.6353C3.01189 24.1056 3.39443 24.4881 3.86475 24.7278C4.06026 24.8274 4.34094 24.9088 4.88892 24.9536C5.45146 24.9996 6.17926 25 7.24976 25H11.875C12.5654 25 13.125 25.5596 13.125 26.25C13.125 26.9404 12.5654 27.5 11.875 27.5H7.24976C6.22038 27.5 5.37305 27.5013 4.68506 27.4451C3.98249 27.3877 3.33613 27.2647 2.72949 26.9556C1.78886 26.4762 1.02377 25.7111 0.544436 24.7705C0.235342 24.1639 0.112345 23.5175 0.0549341 22.8149C-0.00127566 22.127 2.2831e-06 21.2796 2.43657e-06 20.2502V7.24976C2.2831e-06 6.2204 -0.00127566 5.37304 0.0549341 4.68506C0.112345 3.98249 0.235342 3.33613 0.544436 2.72949C1.02377 1.78886 1.78886 1.02377 2.72949 0.544436C3.33613 0.235342 3.98249 0.112345 4.68506 0.0549341C5.37304 -0.00127566 6.2204 2.2831e-06 7.24976 2.43657e-06H15.2502C16.2796 2.2831e-06 17.127 -0.00127566 17.8149 0.0549341C18.5175 0.112345 19.1639 0.235342 19.7705 0.544436C20.7111 1.02377 21.4762 1.78886 21.9556 2.72949C22.2647 3.33613 22.3877 3.98249 22.4451 4.68506C22.5013 5.37304 22.5 6.2204 22.5 7.24976V14.375C22.5 15.0654 21.9404 15.625 21.25 15.625C20.5596 15.625 20 15.0654 20 14.375ZM13.75 11.25C14.4404 11.25 15 11.8096 15 12.5C15 13.1904 14.4404 13.75 13.75 13.75H6.25C5.55965 13.75 5 13.1904 5 12.5C5 11.8096 5.55965 11.25 6.25 11.25H13.75ZM16.25 6.25C16.9404 6.25 17.5 6.80965 17.5 7.5C17.5 8.19036 16.9404 8.75 16.25 8.75H6.25C5.55965 8.75 5 8.19036 5 7.5C5 6.80965 5.55965 6.25 6.25 6.25H16.25Z" fill="#00A38D"/>
</svg>
