<svg width="18" height="15" viewBox="0 0 18 15" fill="none" xmlns="http://www.w3.org/2000/svg">
<path d="M1.5 4.07143L11.5 4.07143M11.5 4.07143C11.5 5.49159 12.6193 6.64286 14 6.64286C15.3807 6.64286 16.5 5.49159 16.5 4.07143C16.5 2.65127 15.3807 1.5 14 1.5C12.6193 1.5 11.5 2.65127 11.5 4.07143ZM6.5 10.9286L16.5 10.9286M6.5 10.9286C6.5 12.3487 5.38071 13.5 4 13.5C2.61929 13.5 1.5 12.3487 1.5 10.9286C1.5 9.50841 2.61929 8.35714 4 8.35714C5.38071 8.35714 6.5 9.50841 6.5 10.9286Z" stroke="#2D2D2D" stroke-width="2" stroke-linecap="round" stroke-linejoin="round"/>
</svg>
