<svg width="21" height="20" viewBox="0 0 21 20" fill="none" xmlns="http://www.w3.org/2000/svg">
<path d="M10.501 0.666992C15.6554 0.667168 19.8348 4.8456 19.835 10C19.8348 15.1544 15.6554 19.3338 10.501 19.334C5.34658 19.3338 1.16814 15.1544 1.16797 10C1.16814 4.8456 5.34658 0.667168 10.501 0.666992ZM3.23828 11C3.62166 13.8106 5.59534 16.1136 8.22461 16.9717C7.10861 15.1688 6.423 13.1252 6.22656 11H3.23828ZM14.7754 11C14.579 13.125 13.8932 15.168 12.7773 16.9707C15.4067 16.1126 17.3813 13.8107 17.7646 11H14.7754ZM8.23438 11C8.46075 13.0897 9.24451 15.0797 10.501 16.7627C11.7576 15.0796 12.5422 13.0899 12.7686 11H8.23438ZM8.22461 3.02832C5.59533 3.88635 3.62176 6.1895 3.23828 9H6.22656C6.42305 6.87475 7.10853 4.83116 8.22461 3.02832ZM10.501 3.23633C9.24413 4.91949 8.46083 6.90995 8.23438 9H12.7686C12.5421 6.90994 11.7578 4.9195 10.501 3.23633ZM12.7773 3.0293C13.8932 4.83195 14.5789 6.87505 14.7754 9H17.7646C17.3812 6.18951 15.4066 3.88735 12.7773 3.0293Z" fill="#5C5C5C"/>
</svg>
