<svg width="33" height="30" viewBox="0 0 33 30" fill="none" xmlns="http://www.w3.org/2000/svg">
      <path
        d="M30 14.7C30 13.4154 29.9995 12.5421 29.9443 11.867C29.8906 11.2094 29.7929 10.8726 29.6733 10.638C29.3857 10.0736 28.9267 9.61458 28.3623 9.32698C28.1277 9.20744 27.7909 9.10971 27.1333 9.05598C26.4582 9.00084 25.5849 9.00032 24.3003 9.00032H3.00001V21.3006C3.00001 22.5852 3.00053 23.4586 3.05567 24.1336C3.1094 24.7912 3.20713 25.128 3.32667 25.3626C3.61427 25.927 4.07332 26.3861 4.6377 26.6737C4.8723 26.7932 5.20908 26.8909 5.86671 26.9447C6.54176 26.9998 7.41513 27.0003 8.69971 27.0003H24.3003C25.5849 27.0003 26.4582 26.9998 27.1333 26.9447C27.7909 26.8909 28.1277 26.7932 28.3623 26.6737C28.9267 26.3861 29.3857 25.927 29.6733 25.3626C29.7929 25.128 29.8906 24.7912 29.9443 24.1336C29.9995 23.4586 30 22.5852 30 21.3006V14.7ZM6.3003 3.00032C5.43547 3.00032 4.87667 3.00221 4.45167 3.03694C4.04429 3.07023 3.89301 3.12659 3.81885 3.16438C3.5369 3.30814 3.30783 3.53721 3.16407 3.81916C3.12628 3.89332 3.06992 4.0446 3.03663 4.45198C3.00609 4.8257 3.00213 5.30266 3.00147 6.00032H15.5728L14.9854 4.82405C14.4553 3.76384 14.3325 3.56197 14.1958 3.42805C14.037 3.27255 13.8449 3.15482 13.6348 3.08235C13.4539 3.02 13.2187 3.00032 12.0337 3.00032H6.3003ZM33 21.3006C33 22.5358 33.0015 23.5527 32.9341 24.3782C32.8652 25.2213 32.7176 25.997 32.3467 26.7249C31.7715 27.8537 30.8534 28.7718 29.7246 29.347C28.9967 29.7179 28.221 29.8655 27.3779 29.9344C26.5524 30.0019 25.5355 30.0003 24.3003 30.0003H8.69971C7.46448 30.0003 6.44765 30.0019 5.62208 29.9344C4.77899 29.8655 4.00335 29.7179 3.2754 29.347C2.14664 28.7718 1.22853 27.8537 0.653327 26.7249C0.282414 25.997 0.134818 25.2213 0.0659246 24.3782C-0.00152709 23.5527 6.43606e-06 22.5358 6.62022e-06 21.3006V6.30061C6.62022e-06 5.48528 -0.00160396 4.78285 0.0454168 4.20735C0.0938832 3.61446 0.201601 3.02431 0.490729 2.45686C0.922091 1.61052 1.61021 0.922401 2.45655 0.491039C3.024 0.201911 3.61415 0.0941931 4.20704 0.0457266C4.78254 -0.00129415 5.48497 0.000316428 6.3003 0.000316428H12.0337C13.0017 0.000312999 13.8436 -0.019084 14.6133 0.24641C15.2438 0.463896 15.8184 0.818323 16.2949 1.28498C16.8766 1.8547 17.2361 2.61644 17.669 3.48225L18.9273 6.00032H24.3003C25.5355 6.00032 26.5524 5.99878 27.3779 6.06623C28.221 6.13513 28.9967 6.28272 29.7246 6.65364C30.8534 7.22884 31.7715 8.14695 32.3467 9.27571C32.7176 10.0037 32.8652 10.7793 32.9341 11.6224C33.0015 12.448 33 13.4648 33 14.7V21.3006Z"
        fill="#00A38D" />
    </svg>