<svg width="10" height="10" viewBox="0 0 10 10" fill="none" xmlns="http://www.w3.org/2000/svg">
<path d="M0.833333 0C0.373096 0 1.24176e-08 0.373096 1.24176e-08 0.833333C1.24176e-08 1.29357 0.373096 1.66667 0.833333 1.66667L7.15482 1.66667L0.244078 8.57741C-0.0813592 8.90285 -0.0813592 9.43049 0.244078 9.75592C0.569515 10.0814 1.09715 10.0814 1.42259 9.75592L8.33333 2.84518L8.33333 9.16667C8.33333 9.6269 8.70643 10 9.16667 10C9.6269 10 10 9.6269 10 9.16667L10 0.833333C10 0.373096 9.6269 0 9.16667 0L0.833333 0Z" fill="#00A38D"/>
</svg>
