<svg width="15" height="19" viewBox="0 0 15 19" fill="none" xmlns="http://www.w3.org/2000/svg">
<path d="M1.62438e-06 13.5002V4.83317C1.52206e-06 4.14693 -0.00085044 3.58202 0.0366227 3.12337C0.0748968 2.65499 0.156895 2.22408 0.362957 1.81966C0.682515 1.19257 1.19257 0.682515 1.81966 0.362957C2.22408 0.156895 2.65499 0.0748968 3.12337 0.0366227C3.58202 -0.00085044 4.14693 1.52206e-06 4.83317 1.62438e-06H9.16667C9.38768 1.62438e-06 9.59958 0.0878619 9.75586 0.244142L14.7559 5.24414C14.9121 5.40042 15 5.61232 15 5.83333V13.5002C15 14.1864 15.0009 14.7513 14.9634 15.21C14.9251 15.6783 14.8431 16.1093 14.637 16.5137C14.3175 17.1408 13.8074 17.6508 13.1803 17.9704C12.7759 18.1764 12.345 18.2584 11.8766 18.2967C11.418 18.3342 10.8531 18.3333 10.1668 18.3333H4.83317C4.14693 18.3333 3.58202 18.3342 3.12337 18.2967C2.65499 18.2584 2.22408 18.1764 1.81966 17.9704C1.19257 17.6508 0.682515 17.1408 0.362957 16.5137C0.156895 16.1093 0.0748969 15.6783 0.0366227 15.21C-0.00085044 14.7513 1.52206e-06 14.1864 1.62438e-06 13.5002ZM10.8333 12.5C11.2936 12.5 11.6667 12.8731 11.6667 13.3333C11.6667 13.7936 11.2936 14.1667 10.8333 14.1667H4.16667C3.70643 14.1667 3.33334 13.7936 3.33334 13.3333C3.33334 12.8731 3.70643 12.5 4.16667 12.5H10.8333ZM10.8333 9.16667C11.2936 9.16667 11.6667 9.53976 11.6667 10C11.6667 10.4602 11.2936 10.8333 10.8333 10.8333H4.16667C3.70643 10.8333 3.33334 10.4602 3.33334 10C3.33334 9.53976 3.70643 9.16667 4.16667 9.16667H10.8333ZM5.83334 5.83333C6.29357 5.83333 6.66667 6.20643 6.66667 6.66667C6.66667 7.12691 6.29357 7.5 5.83334 7.5H4.16667C3.70643 7.5 3.33334 7.12691 3.33334 6.66667C3.33334 6.20643 3.70643 5.83333 4.16667 5.83333H5.83334ZM1.66667 13.5002C1.66667 14.2138 1.66696 14.699 1.69759 15.0741C1.72744 15.4394 1.78174 15.6265 1.84815 15.7568C2.00793 16.0704 2.26296 16.3254 2.5765 16.4852C2.70683 16.5516 2.89393 16.6059 3.25928 16.6357C3.63431 16.6664 4.11951 16.6667 4.83317 16.6667H10.1668C10.8805 16.6667 11.3657 16.6664 11.7407 16.6357C12.1061 16.6059 12.2932 16.5516 12.4235 16.4852C12.737 16.3254 12.9921 16.0704 13.1519 15.7568C13.2183 15.6265 13.2726 15.4394 13.3024 15.0741C13.333 14.699 13.3333 14.2138 13.3333 13.5002V6.66667H10.4997C10.2802 6.66667 10.0651 6.6676 9.88444 6.65283C9.69402 6.63725 9.46922 6.60037 9.24317 6.48519C8.92962 6.3254 8.67459 6.0704 8.51481 5.75684C8.39962 5.53076 8.36275 5.306 8.34717 5.11556C8.33241 4.93487 8.33333 4.71984 8.33334 4.50033V1.66667H4.83317C4.11951 1.66667 3.63431 1.66696 3.25928 1.69759C2.89393 1.72744 2.70683 1.78174 2.5765 1.84815C2.26295 2.00792 2.00792 2.26295 1.84815 2.5765C1.78174 2.70683 1.72744 2.89393 1.69759 3.25928C1.66696 3.63431 1.66667 4.11951 1.66667 4.83317V13.5002ZM10 4.50033C10 4.74726 10.001 4.88254 10.009 4.97966C10.0093 4.98337 10.0095 4.9869 10.0098 4.99024C10.0131 4.99054 10.0166 4.99156 10.0203 4.99186C10.1175 4.9998 10.2528 5 10.4997 5H12.155L10 2.84505V4.50033Z" fill="#00A38D"/>
</svg>
