<svg width="24" height="24" viewBox="0 0 24 24" fill="none" xmlns="http://www.w3.org/2000/svg">
<path d="M0 6C0 2.68629 2.68629 0 6 0H18C21.3137 0 24 2.68629 24 6V18C24 21.3137 21.3137 24 18 24H6C2.68629 24 0 21.3137 0 18V6Z" fill="#F7F7F7"/>
<path fill-rule="evenodd" clip-rule="evenodd" d="M15.2926 9.29338C15.6831 8.90286 16.3161 8.90286 16.7066 9.29338C17.097 9.68392 17.0971 10.317 16.7066 10.7074L12.7066 14.7074C12.5191 14.8948 12.2647 15.0004 11.9996 15.0004C11.7345 15.0004 11.4801 14.8949 11.2926 14.7074L7.29257 10.7074C6.90214 10.317 6.90234 9.68393 7.29257 9.29338C7.68309 8.90286 8.31611 8.90286 8.70663 9.29338L11.9996 12.5864L15.2926 9.29338Z" fill="#A4A4A4"/>
</svg>
