<svg width="21" height="20" viewBox="0 0 21 20" fill="none" xmlns="http://www.w3.org/2000/svg">
<path d="M10.501 0.666992C15.6554 0.667168 19.8348 4.8456 19.835 10C19.8348 15.1544 15.6554 19.3338 10.501 19.334C5.34658 19.3338 1.16814 15.1544 1.16797 10C1.16814 4.8456 5.34658 0.667168 10.501 0.666992ZM10.501 2.66699C6.45115 2.66717 3.16814 5.95017 3.16797 10C3.16814 14.0498 6.45115 17.3338 10.501 17.334C14.5508 17.3338 17.8348 14.0498 17.835 10C17.8348 5.95017 14.5508 2.66717 10.501 2.66699ZM10.5098 13.167C11.0618 13.1672 11.5098 13.6149 11.5098 14.167C11.5096 14.719 11.0617 15.1667 10.5098 15.167H10.501C9.94895 15.1668 9.50115 14.719 9.50098 14.167C9.50098 13.6148 9.94884 13.1672 10.501 13.167H10.5098ZM8.66113 5.3125C9.3737 4.89375 10.2118 4.74017 11.0264 4.87988C11.8409 5.01968 12.5801 5.44393 13.1123 6.07617C13.6441 6.70813 13.9355 7.50807 13.9346 8.33398L13.9229 8.58398C13.8092 9.80675 12.8817 10.6127 12.2393 11.041C11.8664 11.2896 11.5002 11.4714 11.2314 11.5908C11.0958 11.6511 10.9814 11.6979 10.8984 11.7295C10.8571 11.7452 10.8227 11.7568 10.7979 11.7656C10.7858 11.7699 10.7753 11.7737 10.7676 11.7764C10.7637 11.7777 10.7596 11.7793 10.7568 11.7803C10.7558 11.7806 10.7547 11.781 10.7539 11.7812L10.752 11.7822H10.751C10.2272 11.9568 9.66113 11.6731 9.48633 11.1494C9.31191 10.6256 9.59443 10.0594 10.1182 9.88477C10.1202 9.88408 10.1238 9.8833 10.1279 9.88184C10.1397 9.87765 10.16 9.87046 10.1865 9.86035C10.2403 9.83987 10.3208 9.8073 10.4189 9.76367C10.6188 9.67483 10.8781 9.54476 11.1299 9.37695C11.694 9.00084 11.9342 8.63631 11.9346 8.33398V8.33203C11.9351 7.97805 11.8099 7.63515 11.582 7.36426C11.354 7.09342 11.0374 6.91156 10.6885 6.85156C10.3394 6.79168 9.98018 6.85767 9.6748 7.03711C9.36944 7.21658 9.13709 7.49791 9.01953 7.83203C8.83623 8.35277 8.26496 8.62633 7.74414 8.44336C7.22361 8.26002 6.95004 7.68963 7.13281 7.16895C7.40709 6.38926 7.94858 5.73131 8.66113 5.3125Z" fill="#5C5C5C"/>
</svg>
