<svg width="24" height="25" viewBox="0 0 24 25" fill="none" xmlns="http://www.w3.org/2000/svg">
<rect y="0.5" width="24" height="24" rx="9" fill="#F5F5F5"/>
<path fill-rule="evenodd" clip-rule="evenodd" d="M16.2426 8.25736C13.8995 5.91421 10.1005 5.91421 7.75736 8.25736C5.41421 10.6005 5.41421 14.3995 7.75736 16.7426C10.1005 19.0858 13.8995 19.0858 16.2426 16.7426C18.5858 14.3995 18.5858 10.6005 16.2426 8.25736ZM13.9285 10.5715C14.1415 10.7845 14.1415 11.1299 13.9285 11.3429L11.7741 13.4973H13.5428C13.844 13.4973 14.0882 13.7415 14.0882 14.0428C14.0882 14.344 13.844 14.5882 13.5428 14.5882H10.4572C10.156 14.5882 9.91177 14.344 9.91177 14.0428V10.9572C9.91177 10.656 10.156 10.4118 10.4572 10.4118C10.7585 10.4118 11.0027 10.656 11.0027 10.9572V12.7259L13.1571 10.5715C13.3701 10.3585 13.7155 10.3585 13.9285 10.5715Z" fill="#1FC16B"/>
</svg>
