<svg xmlns="http://www.w3.org/2000/svg" width="20" height="20" viewBox="0 0 20 20" fill="none">
  <g clip-path="url(#clip0_22498_62275)">
    <path d="M17.5006 10.0007C17.5006 5.85851 14.1428 2.50065 10.0007 2.50065C5.85851 2.50065 2.50065 5.85851 2.50065 10.0007C2.50065 14.1428 5.85851 17.5006 10.0007 17.5006C14.1428 17.5006 17.5006 14.1428 17.5006 10.0007ZM9.16732 13.334V10.0007C9.16732 9.54041 9.54041 9.16732 10.0007 9.16732C10.4609 9.16732 10.834 9.54041 10.834 10.0007V13.334C10.834 13.7942 10.4609 14.1673 10.0007 14.1673C9.54041 14.1673 9.16732 13.7942 9.16732 13.334ZM10.0088 5.83398C10.469 5.83398 10.8421 6.20708 10.8421 6.66732C10.8421 7.12755 10.469 7.50065 10.0088 7.50065H10.0007C9.54041 7.50065 9.16732 7.12755 9.16732 6.66732C9.16732 6.20708 9.54041 5.83398 10.0007 5.83398H10.0088ZM19.1673 10.0007C19.1673 15.0633 15.0633 19.1673 10.0007 19.1673C4.93804 19.1673 0.833984 15.0633 0.833984 10.0007C0.833984 4.93804 4.93804 0.833984 10.0007 0.833984C15.0633 0.833984 19.1673 4.93804 19.1673 10.0007Z" fill="#00A38D"/>
  </g>
  <defs>
    <clipPath id="clip0_22498_62275">
      <rect width="20" height="20" fill="white"/>
    </clipPath>
  </defs>
</svg>
