<svg width="25" height="25" viewBox="0 0 25 25" fill="none" xmlns="http://www.w3.org/2000/svg">
<path d="M12.5625 18.75C12.8611 18.75 13.1094 18.651 13.3073 18.4531C13.5052 18.2552 13.6042 18.0069 13.6042 17.7083V12.2604C13.6042 11.9757 13.5017 11.7361 13.2969 11.5417C13.092 11.3472 12.8472 11.25 12.5625 11.25C12.2639 11.25 12.0156 11.349 11.8177 11.5469C11.6198 11.7448 11.5208 11.9931 11.5208 12.2917V17.7396C11.5208 18.0243 11.6233 18.2639 11.8281 18.4583C12.033 18.6528 12.2778 18.75 12.5625 18.75ZM12.5 8.875C12.8125 8.875 13.0747 8.77257 13.2865 8.56772C13.4983 8.36286 13.6042 8.10419 13.6042 7.79169C13.6042 7.47919 13.4983 7.21356 13.2865 6.99481C13.0747 6.77606 12.8125 6.66669 12.5 6.66669C12.1875 6.66669 11.9253 6.77606 11.7135 6.99481C11.5017 7.21356 11.3958 7.47919 11.3958 7.79169C11.3958 8.10419 11.5017 8.36286 11.7135 8.56772C11.9253 8.77257 12.1875 8.875 12.5 8.875ZM12.5 25C10.7431 25 9.10418 24.6788 7.58334 24.0365C6.06251 23.3941 4.73959 22.5104 3.61459 21.3854C2.48959 20.2604 1.60591 18.9375 0.963531 17.4167C0.321177 15.8958 0 14.2569 0 12.5C0 10.7569 0.321177 9.12499 0.963531 7.60416C1.60591 6.08332 2.48959 4.76041 3.61459 3.63541C4.73959 2.51041 6.06251 1.62326 7.58334 0.973969C9.10418 0.324656 10.7431 0 12.5 0C14.2431 0 15.875 0.324656 17.3958 0.973969C18.9167 1.62326 20.2396 2.51041 21.3646 3.63541C22.4896 4.76041 23.3767 6.08332 24.026 7.60416C24.6753 9.12499 25 10.7569 25 12.5C25 14.2569 24.6753 15.8958 24.026 17.4167C23.3767 18.9375 22.4896 20.2604 21.3646 21.3854C20.2396 22.5104 18.9167 23.3941 17.3958 24.0365C15.875 24.6788 14.2431 25 12.5 25ZM12.5 22.9167C15.3681 22.9167 17.8212 21.8976 19.8594 19.8594C21.8976 17.8212 22.9167 15.3681 22.9167 12.5C22.9167 9.63194 21.8976 7.17881 19.8594 5.14062C17.8212 3.10242 15.3681 2.08331 12.5 2.08331C9.63194 2.08331 7.17881 3.10242 5.14062 5.14062C3.10242 7.17881 2.08331 9.63194 2.08331 12.5C2.08331 15.3681 3.10242 17.8212 5.14062 19.8594C7.17881 21.8976 9.63194 22.9167 12.5 22.9167Z" fill="#00A38D"/>
</svg>
