<svg width="12" height="12" viewBox="0 0 12 12" fill="none" xmlns="http://www.w3.org/2000/svg">
  <path fill-rule="evenodd" clip-rule="evenodd"
        d="M1.75736 10.2426C4.10051 12.5858 7.89949 12.5858 10.2426 10.2426C12.5858 7.89949 12.5858 4.10051 10.2426 1.75736C7.89949 -0.585787 4.10051 -0.585787 1.75736 1.75736C-0.585787 4.10051 -0.585787 7.89949 1.75736 10.2426ZM4.07153 7.92847C3.85851 7.71546 3.85851 7.3701 4.07153 7.15708L6.22593 5.00268H4.45722C4.15597 5.00268 3.91177 4.75847 3.91177 4.45722C3.91177 4.15597 4.15597 3.91177 4.45722 3.91177H7.54278C7.84402 3.91177 8.08823 4.15597 8.08823 4.45722V7.54278C8.08823 7.84402 7.84402 8.08823 7.54278 8.08823C7.24153 8.08823 6.99732 7.84402 6.99732 7.54278V5.77406L4.84292 7.92847C4.6299 8.14149 4.28454 8.14149 4.07153 7.92847Z"
        fill="#171717"/>
</svg>
