<svg width="68" height="68" viewBox="0 0 68 68" fill="none" xmlns="http://www.w3.org/2000/svg">
<rect width="68" height="68" rx="34" fill="#F7F7F7"/>
<path d="M45.9997 35.2266V33.7331C45.9997 32.5912 45.9992 31.8149 45.9502 31.2148C45.9024 30.6303 45.8156 30.3309 45.7093 30.1224C45.4537 29.6207 45.0456 29.2127 44.544 28.957C44.3354 28.8508 44.0361 28.7639 43.4515 28.7161C42.8515 28.6671 42.0751 28.6667 40.9333 28.6667H21.9997V39.6003C21.9997 40.7421 22.0001 41.5184 22.0492 42.1185C22.0969 42.703 22.1838 43.0024 22.29 43.2109C22.5457 43.7126 22.9537 44.1207 23.4554 44.3763C23.6639 44.4826 23.9633 44.5694 24.5479 44.6172C25.1479 44.6662 25.9242 44.6667 27.0661 44.6667H34.777C35.5133 44.6668 36.1104 45.2637 36.1104 46C36.1104 46.7363 35.5133 47.3332 34.777 47.3333H27.0661C25.9681 47.3333 25.0642 47.3347 24.3304 47.2747C23.581 47.2135 22.8915 47.0823 22.2445 46.7526C21.2411 46.2413 20.425 45.4252 19.9137 44.4219C19.584 43.7748 19.4528 43.0853 19.3916 42.3359C19.3317 41.6021 19.333 40.6982 19.333 39.6003V26.2669C19.333 25.5422 19.3316 24.9178 19.3734 24.4062C19.4165 23.8792 19.5122 23.3547 19.7692 22.8503C20.1526 22.098 20.7643 21.4863 21.5166 21.1029C22.021 20.8459 22.5456 20.7501 23.0726 20.707C23.5842 20.6652 24.2085 20.6667 24.9333 20.6667H30.0296C30.8901 20.6667 31.6384 20.6494 32.3226 20.8854C32.883 21.0787 33.3938 21.3938 33.8174 21.8086C34.3344 22.315 34.6539 22.9921 35.0387 23.7617L36.1572 26H40.9333C42.0313 26 42.9351 25.9986 43.669 26.0586C44.4184 26.1198 45.1078 26.251 45.7549 26.5807C46.7582 27.092 47.5743 27.9081 48.0856 28.9115C48.4153 29.5585 48.5465 30.248 48.6078 30.9974C48.6677 31.7312 48.6663 32.6351 48.6663 33.7331V35.2266C48.6663 35.9629 48.0694 36.5599 47.333 36.5599C46.5967 36.5599 45.9997 35.9629 45.9997 35.2266ZM24.9333 23.3333C24.1645 23.3333 23.6678 23.335 23.29 23.3659C22.9279 23.3955 22.7935 23.4456 22.7275 23.4792C22.4769 23.607 22.2733 23.8106 22.1455 24.0612C22.1119 24.1271 22.0618 24.2616 22.0322 24.6237C22.0051 24.9559 22.0016 25.3799 22.001 26H33.1755L32.6533 24.9544C32.1821 24.012 32.073 23.8326 31.9515 23.7135C31.8103 23.5753 31.6396 23.4707 31.4528 23.4062C31.292 23.3508 31.0829 23.3333 30.0296 23.3333H24.9333Z" fill="#00A38D"/>
<path d="M47.3337 38C48.0699 38.0001 48.667 38.597 48.667 39.3333C48.667 40.0696 48.0699 40.6665 47.3337 40.6667H38.262C37.5257 40.6667 36.9287 40.0697 36.9287 39.3333C36.9287 38.597 37.5257 38 38.262 38H47.3337Z" fill="#00A38D"/>
<path d="M47.3337 42C48.0699 42.0001 48.667 42.597 48.667 43.3333C48.667 44.0696 48.0699 44.6665 47.3337 44.6667H38.262C37.5257 44.6667 36.9287 44.0697 36.9287 43.3333C36.9287 42.597 37.5257 42 38.262 42H47.3337Z" fill="#00A38D"/>
<path d="M47.3337 46C48.0699 46.0001 48.667 46.597 48.667 47.3333C48.667 48.0696 48.0699 48.6665 47.3337 48.6667H38.262C37.5257 48.6667 36.9287 48.0697 36.9287 47.3333C36.9287 46.597 37.5257 46 38.262 46H47.3337Z" fill="#00A38D"/>
</svg>
