<svg width="68" height="68" viewBox="0 0 68 68" fill="none" xmlns="http://www.w3.org/2000/svg">
<rect width="68" height="68" rx="34" fill="#F7F7F7"/>
<path d="M22 40.9336V27.0664C22 25.9684 21.9986 25.0646 22.0586 24.3307C22.1198 23.5813 22.251 22.8919 22.5807 22.2448C23.092 21.2415 23.9081 20.4254 24.9115 19.9141C25.5585 19.5844 26.248 19.4532 26.9974 19.3919C27.7312 19.332 28.6351 19.3333 29.7331 19.3333H36.6667C37.0203 19.3333 37.3593 19.4739 37.6094 19.724L45.6094 27.724C45.8594 27.974 46 28.3131 46 28.6667V40.9336C46 42.0316 46.0014 42.9354 45.9414 43.6693C45.8802 44.4187 45.749 45.1081 45.4193 45.7552C44.908 46.7586 44.0919 47.5747 43.0885 48.0859C42.4415 48.4156 41.752 48.5468 41.0026 48.6081C40.2688 48.668 39.3649 48.6667 38.2669 48.6667H29.7331C28.6351 48.6667 27.7312 48.668 26.9974 48.6081C26.248 48.5468 25.5585 48.4156 24.9115 48.0859C23.9081 47.5747 23.092 46.7586 22.5807 45.7552C22.251 45.1081 22.1198 44.4187 22.0586 43.6693C21.9986 42.9354 22 42.0316 22 40.9336ZM39.3333 39.3333C40.0697 39.3333 40.6667 39.9303 40.6667 40.6667C40.6667 41.4031 40.0697 42 39.3333 42H28.6667C27.9303 42 27.3333 41.4031 27.3333 40.6667C27.3333 39.9303 27.9303 39.3333 28.6667 39.3333H39.3333ZM39.3333 34C40.0697 34 40.6667 34.597 40.6667 35.3333C40.6667 36.0697 40.0697 36.6667 39.3333 36.6667H28.6667C27.9303 36.6667 27.3333 36.0697 27.3333 35.3333C27.3333 34.597 27.9303 34 28.6667 34H39.3333ZM31.3333 28.6667C32.0697 28.6667 32.6667 29.2636 32.6667 30C32.6667 30.7364 32.0697 31.3333 31.3333 31.3333H28.6667C27.9303 31.3333 27.3333 30.7364 27.3333 30C27.3333 29.2636 27.9303 28.6667 28.6667 28.6667H31.3333ZM24.6667 40.9336C24.6667 42.0755 24.6671 42.8518 24.7161 43.4518C24.7639 44.0364 24.8508 44.3358 24.957 44.5443C25.2127 45.046 25.6207 45.454 26.1224 45.7096C26.3309 45.8159 26.6303 45.9028 27.2148 45.9505C27.8149 45.9995 28.5912 46 29.7331 46H38.2669C39.4088 46 40.1851 45.9995 40.7852 45.9505C41.3697 45.9028 41.6691 45.8159 41.8776 45.7096C42.3793 45.454 42.7873 45.046 43.043 44.5443C43.1492 44.3358 43.2361 44.0364 43.2839 43.4518C43.3329 42.8518 43.3333 42.0755 43.3333 40.9336V30H38.7995C38.4483 30 38.1042 30.0015 37.8151 29.9779C37.5104 29.9529 37.1507 29.8939 36.7891 29.7096C36.2874 29.454 35.8793 29.046 35.6237 28.5443C35.4394 28.1826 35.3804 27.8229 35.3555 27.5182C35.3319 27.2291 35.3333 26.8851 35.3333 26.5339V22H29.7331C28.5912 22 27.8149 22.0005 27.2148 22.0495C26.6303 22.0973 26.3309 22.1841 26.1224 22.2904C25.6207 22.546 25.2127 22.9541 24.957 23.4557C24.8508 23.6643 24.7639 23.9636 24.7161 24.5482C24.6671 25.1482 24.6667 25.9246 24.6667 27.0664V40.9336ZM38 26.5339C38 26.929 38.0016 27.1454 38.0143 27.3008C38.0148 27.3067 38.0151 27.3124 38.0156 27.3177C38.021 27.3182 38.0266 27.3198 38.0326 27.3203C38.1879 27.333 38.4044 27.3333 38.7995 27.3333H41.4479L38 23.8854V26.5339Z" fill="#00A38D"/>
</svg>
