<svg width="20" height="20" viewBox="0 0 20 20" fill="none" xmlns="http://www.w3.org/2000/svg">
<path d="M13.3333 14.1662L17.5 9.99948M17.5 9.99948L13.3333 5.83282M17.5 9.99948H7.5M10 14.1662C10 14.4125 10 14.5356 9.99085 14.6423C9.89569 15.7511 9.07905 16.6635 7.98753 16.8805C7.88252 16.9014 7.76001 16.915 7.51529 16.9422L6.66412 17.0368C5.3854 17.1789 4.74601 17.2499 4.23805 17.0874C3.56078 16.8706 3.00785 16.3758 2.71765 15.7266C2.5 15.2397 2.5 14.5963 2.5 13.3097V6.68923C2.5 5.40262 2.5 4.75931 2.71765 4.27241C3.00785 3.62322 3.56078 3.12832 4.23805 2.91159C4.74601 2.74904 5.38538 2.82008 6.66412 2.96216L7.51529 3.05674C7.7601 3.08394 7.8825 3.09754 7.98753 3.11842C9.07905 3.33545 9.89569 4.24785 9.99085 5.35666C10 5.46334 10 5.5865 10 5.83282" stroke="#5C5C5C" stroke-width="2" stroke-linecap="round" stroke-linejoin="round"/>
</svg>
