<svg width="128" height="40" viewBox="0 0 128 40" fill="none" xmlns="http://www.w3.org/2000/svg">
<path d="M13.1615 38.7884C23.5383 42.5652 35.012 37.215 38.7888 26.8383C41.1826 20.2616 39.91 13.2443 36.015 8.0252L34.3612 12.5692C36.3641 16.4425 36.8035 21.1094 35.1945 25.5301C32.1401 33.9216 22.8614 38.2483 14.4697 35.1941C13.9737 35.0135 13.4918 34.8112 13.0249 34.5886L17.6325 21.9295H20.9629L18.0809 29.8476L24.7357 29.8644L33.6474 5.38009C31.739 3.59708 29.4477 2.16087 26.8386 1.21125C16.4618 -2.56554 4.98809 2.7847 1.21126 13.1613C-1.18247 19.738 0.0901249 26.7553 3.98505 31.9745L5.63894 27.4305C3.636 23.5571 3.19663 18.8902 4.80564 14.4696C7.85995 6.07803 17.1387 1.75131 25.5304 4.80559C26.0264 4.98613 26.5083 5.18843 26.9752 5.41101L22.3551 18.1045H19.0247L21.9192 10.152L15.2644 10.1352L6.35274 34.6196C8.2611 36.4026 10.5524 37.8388 13.1615 38.7884Z" fill="#17A755"/>
<path d="M48 17.4291V0H51.5841V7.31162H58.5418V0H62.1259V17.4291H58.5418V10.2511H51.5841V17.4291H48Z" fill="#174A43"/>
<path fill-rule="evenodd" clip-rule="evenodd" d="M67.6781 10.0551L71.262 9.54069V9.17325C71.262 8.11981 70.5593 7.60537 69.1303 7.60537C67.8887 7.60537 66.6939 7.77693 65.0072 8.21781V5.64547C66.8346 5.22916 68.4744 5.03316 69.8095 5.03316C72.6676 5.03316 74.6588 6.35566 74.6588 9.09968V17.4219C72.9485 17.4569 71.4164 17.4511 69.9448 17.4455H69.9417C69.4079 17.4435 68.882 17.4415 68.3585 17.4415C65.149 17.4415 63.8856 15.5085 63.8856 13.6466C63.8856 11.6868 65.174 10.4145 67.6781 10.0551ZM71.2621 11.6849L68.9898 11.9906C67.7671 12.1552 67.3265 12.7746 67.3265 13.6075C67.3265 14.3915 67.9356 15.1508 69.3177 15.1508L69.5625 15.1509C70.0917 15.151 70.4487 15.1512 71.2621 15.1414V11.6849Z" fill="#174A43"/>
<path d="M91.2913 9.90826C91.2913 8.34037 90.7057 7.60537 89.4877 7.60537C88.785 7.60537 88.0588 7.82593 87.309 8.07094C87.3793 8.46294 87.4263 8.92838 87.4263 9.41825V17.4291H84.0294V9.78582C84.0294 8.31581 83.4671 7.60537 82.3193 7.60537C81.8336 7.60537 81.348 7.6639 80.8468 7.7243C80.6228 7.7513 80.3956 7.77868 80.164 7.80137V17.429H76.7673V5.64547C78.8521 5.32703 80.8433 5.03316 82.9986 5.03316C84.4275 5.03316 85.5052 5.3516 86.2314 6.01304C87.8245 5.47404 89.2534 5.03316 90.8229 5.03316C93.4467 5.03316 94.6884 6.45392 94.6884 9.41812V17.429H91.2913V9.90826Z" fill="#174A43"/>
<path d="M96.7966 17.429V0H100.193V10.2511L104.082 5.18003H107.971L103.403 10.8147L107.971 17.429H104.082L100.193 11.4761V17.429H96.7966Z" fill="#174A43"/>
<path fill-rule="evenodd" clip-rule="evenodd" d="M113.218 17.5761C109.751 17.5761 107.409 15.7632 107.409 11.966V10.6431C107.409 6.84605 109.751 5.03329 113.218 5.03329C116.685 5.03329 119.028 6.77261 119.028 10.6431V11.966C119.028 15.7632 116.685 17.5761 113.218 17.5761ZM115.631 10.4716C115.631 8.53638 114.835 7.60537 113.218 7.60537C111.578 7.60537 110.805 8.53625 110.805 10.4716V12.113C110.805 14.0729 111.578 15.0037 113.218 15.0037C114.835 15.0037 115.631 14.0729 115.631 12.113V10.4716Z" fill="#174A43"/>
<path d="M128 5.52304V8.21793C127.414 7.94837 126.735 7.80137 125.962 7.80137C125.4 7.80137 124.814 7.87493 124.158 8.02193V17.429H120.761V5.64547C122.495 5.32703 124.228 5.0576 125.657 5.0576C126.618 5.0576 127.414 5.18003 128 5.52304Z" fill="#174A43"/>
<path fill-rule="evenodd" clip-rule="evenodd" d="M48 39.8747H55.2109C59.0382 39.8747 61.2786 38.3662 61.2786 35.2275C61.2786 32.9647 60.1583 31.5535 58.2212 30.9209C59.4348 30.2153 60.3451 29.023 60.3451 27.2711C60.3451 24.2541 58.3147 22.8429 54.8142 22.8429H48V39.8747ZM51.5703 37.0524V32.2104H55.0475C56.7512 32.2104 57.7077 33.0132 57.7077 34.619C57.7077 36.225 56.7278 37.0524 55.0243 37.0524H51.5703ZM51.5703 29.7531V25.6411H54.5341C56.0042 25.6411 56.7744 26.3223 56.7744 27.7091C56.7744 29.0961 55.9577 29.7531 54.5341 29.7531H51.5703Z" fill="#174A43"/>
<path d="M66.7452 39.663H63.203V27.0164H66.7452V39.663ZM67.078 23.3619C67.078 24.019 66.8641 24.54 66.4362 24.9246C66.0241 25.2933 65.5328 25.4776 64.9622 25.4776C64.3917 25.4776 63.8924 25.2933 63.4645 24.9246C63.0524 24.54 62.8464 24.019 62.8464 23.3619C62.8464 22.7047 63.0524 22.1917 63.4645 21.8231C63.8924 21.4384 64.3917 21.2461 64.9622 21.2461C65.5328 21.2461 66.0241 21.4384 66.4362 21.8231C66.8641 22.1917 67.078 22.7047 67.078 23.3619Z" fill="#174A43"/>
<path d="M78.7522 29.4207C78.467 29.7413 78.0786 30.174 77.5873 30.719C77.1119 31.264 76.5968 31.8651 76.0421 32.5223C75.4874 33.1794 74.9247 33.8687 74.3542 34.59C73.7994 35.3113 73.2923 36.0085 72.8327 36.6817H78.8711V39.663H68.5297V37.5473C68.8625 36.9702 69.2587 36.3531 69.7184 35.6959C70.1938 35.0227 70.6851 34.3495 71.1923 33.6763C71.7153 33.0031 72.2304 32.354 72.7376 31.7288C73.2447 31.0877 73.7123 30.5107 74.1402 29.9977H68.815V27.0164H78.7522V29.4207Z" fill="#174A43"/>
<path d="M80.5352 27.4492C81.1375 27.2729 81.9141 27.1126 82.865 26.9683C83.816 26.808 84.8144 26.7279 85.8605 26.7279C86.9223 26.7279 87.8019 26.8721 88.4993 27.1606C89.2125 27.4331 89.7751 27.8258 90.1872 28.3388C90.5993 28.8517 90.8925 29.4608 91.0668 30.166C91.2411 30.8713 91.3283 31.6567 91.3283 32.5223V39.663H87.7861V32.955C87.7861 31.801 87.6355 30.9835 87.3344 30.5026C87.0333 30.0218 86.4707 29.7813 85.6465 29.7813C85.3929 29.7813 85.1235 29.7974 84.8382 29.8294C84.5529 29.8455 84.2993 29.8695 84.0775 29.9016V39.663H80.5352V27.4492Z" fill="#174A43"/>
<path d="M93.2271 33.4359C93.2271 32.3139 93.3935 31.3361 93.7263 30.5026C94.075 29.6531 94.5266 28.9479 95.0813 28.3868C95.6361 27.8258 96.2701 27.4011 96.9832 27.1126C97.7123 26.824 98.4572 26.6798 99.2179 26.6798C100.993 26.6798 102.396 27.2328 103.426 28.3388C104.456 29.4287 104.971 31.0396 104.971 33.1714C104.971 33.3798 104.963 33.6122 104.947 33.8687C104.931 34.1091 104.916 34.3255 104.9 34.5178H96.8644C96.9436 35.2552 97.2844 35.8402 97.8866 36.273C98.4889 36.7057 99.2972 36.9221 100.312 36.9221C100.961 36.9221 101.595 36.866 102.213 36.7538C102.847 36.6256 103.362 36.4733 103.759 36.297L104.234 39.2062C104.044 39.3024 103.79 39.3986 103.473 39.4948C103.156 39.5909 102.8 39.6711 102.404 39.7352C102.023 39.8153 101.611 39.8794 101.167 39.9275C100.724 39.9756 100.28 39.9996 99.836 39.9996C98.7108 39.9996 97.7281 39.8314 96.8881 39.4948C96.064 39.1581 95.3746 38.7013 94.8199 38.1243C94.281 37.5312 93.8768 36.834 93.6074 36.0325C93.3538 35.2311 93.2271 34.3656 93.2271 33.4359ZM101.548 32.0654C101.532 31.7609 101.476 31.4644 101.381 31.1758C101.302 30.8873 101.167 30.6309 100.977 30.4065C100.803 30.1821 100.573 29.9977 100.288 29.8535C100.018 29.7092 99.6775 29.6371 99.2655 29.6371C98.8693 29.6371 98.5285 29.7092 98.2432 29.8535C97.9579 29.9817 97.7202 30.158 97.53 30.3824C97.3398 30.6068 97.1893 30.8713 97.0783 31.1758C96.9832 31.4644 96.9119 31.7609 96.8644 32.0654H101.548Z" fill="#174A43"/>
<path d="M110.581 37.0904C111.231 37.0904 111.691 37.0263 111.96 36.8981C112.23 36.7699 112.364 36.5214 112.364 36.1528C112.364 35.8642 112.19 35.6158 111.841 35.4074C111.493 35.183 110.962 34.9346 110.248 34.6621C109.694 34.4537 109.187 34.2373 108.727 34.0129C108.283 33.7885 107.903 33.524 107.586 33.2195C107.269 32.8989 107.023 32.5223 106.849 32.0895C106.674 31.6567 106.587 31.1358 106.587 30.5267C106.587 29.3406 107.023 28.4029 107.895 27.7136C108.767 27.0244 109.963 26.6798 111.485 26.6798C112.245 26.6798 112.974 26.7519 113.672 26.8962C114.369 27.0244 114.924 27.1687 115.336 27.3289L114.718 30.1179C114.306 29.9737 113.854 29.8455 113.363 29.7333C112.887 29.6211 112.348 29.565 111.746 29.565C110.637 29.565 110.082 29.8775 110.082 30.5026C110.082 30.6469 110.106 30.7751 110.153 30.8873C110.201 30.9995 110.296 31.1117 110.439 31.2239C110.581 31.3201 110.771 31.4323 111.009 31.5605C111.263 31.6727 111.58 31.801 111.96 31.9452C112.737 32.2337 113.379 32.5223 113.886 32.8108C114.393 33.0833 114.789 33.3878 115.074 33.7244C115.376 34.045 115.582 34.4056 115.692 34.8063C115.819 35.2071 115.883 35.6719 115.883 36.2008C115.883 37.4511 115.415 38.3968 114.48 39.0379C113.561 39.6791 112.253 39.9996 110.557 39.9996C109.448 39.9996 108.521 39.9035 107.776 39.7111C107.047 39.5188 106.54 39.3585 106.254 39.2303L106.849 36.3211C107.451 36.5615 108.069 36.7538 108.703 36.8981C109.337 37.0263 109.963 37.0904 110.581 37.0904Z" fill="#174A43"/>
</svg>
