<svg width="24" height="24" viewBox="0 0 24 24" fill="none" xmlns="http://www.w3.org/2000/svg">
<g clip-path="url(#clip0_4121_27671)">
<rect width="25.3704" height="25.3704" transform="translate(-1 -1)" fill="#17A755"/>
<path d="M13.6085 6.40085C10.6901 5.33862 7.46308 6.84339 6.40085 9.76184C5.72761 11.6115 6.08553 13.5852 7.18097 15.0531L7.64613 13.7751C7.0828 12.6857 6.95923 11.3731 7.41177 10.1298C8.27079 7.76964 10.8804 6.55274 13.2406 7.41177C13.3801 7.46254 13.5156 7.51944 13.6469 7.58204L12.3511 11.1424H11.4144L12.2249 8.91547L10.3533 8.91074L7.84689 15.797C8.38361 16.2985 9.02804 16.7024 9.76184 16.9695C12.6803 18.0317 15.9073 16.527 16.9695 13.6085C17.6428 11.7588 17.2848 9.78518 16.1894 8.31729L15.7242 9.59529C16.2876 10.6847 16.4111 11.9973 15.9586 13.2406C15.0996 15.6007 12.4899 16.8176 10.1298 15.9586C9.99027 15.9078 9.85475 15.8509 9.72342 15.7883L11.0228 12.2182H11.9595L11.1454 14.4549L13.0171 14.4596L15.5235 7.57335C14.9868 7.07187 14.3423 6.66793 13.6085 6.40085Z" fill="white"/>
</g>
<defs>
<clipPath id="clip0_4121_27671">
<rect width="24" height="24" rx="6" fill="white"/>
</clipPath>
</defs>
</svg>
