<svg width="48" height="48" viewBox="0 0 48 48" fill="none" xmlns="http://www.w3.org/2000/svg">
<circle cx="24" cy="24" r="24" fill="#00A38D"/>
<path d="M19.8969 35.2732C26.1229 37.5393 33.0072 34.3292 35.2732 28.1031C36.7095 24.1571 35.9459 19.9467 33.609 16.8152L32.6166 19.5416C33.8184 21.8656 34.082 24.6658 33.1166 27.3182C31.284 32.3532 25.7168 34.9492 20.6818 33.1166C20.3842 33.0083 20.0951 32.8869 19.8149 32.7534L22.5795 25.1578H24.5777L22.8485 29.9087L26.8414 29.9188L32.1884 15.2281C31.0434 14.1583 29.6686 13.2965 28.1031 12.7268C21.8771 10.4607 14.9928 13.6708 12.7268 19.8969C11.2905 23.8429 12.0541 28.0533 14.391 31.1848L15.3834 28.4584C14.1816 26.1344 13.918 23.3342 14.8834 20.6818C16.716 15.6468 22.2832 13.0508 27.3182 14.8834C27.6158 14.9917 27.9049 15.1131 28.1851 15.2466L25.413 22.8628H23.4148L25.1515 18.0913L21.1586 18.0812L15.8116 32.7719C16.9566 33.8417 18.3314 34.7035 19.8969 35.2732Z" fill="white"/>
</svg>
