<svg width="41" height="37" viewBox="0 0 41 37" fill="none" xmlns="http://www.w3.org/2000/svg">
<path d="M15.4725 33.7771C23.7739 36.7985 32.9529 32.5183 35.9743 24.2169C37.8893 18.9556 36.8713 13.3416 33.7553 9.16631L32.4322 12.8015C34.0346 15.9002 34.3861 19.6338 33.0989 23.1703C30.6554 29.8836 23.2324 33.345 16.5191 30.9016C16.1223 30.7572 15.7368 30.5953 15.3632 30.4173L19.0493 20.2899H21.7136L19.4081 26.6244L24.7319 26.6378L31.8612 7.05021C30.3345 5.62378 28.5014 4.4748 26.4142 3.7151C18.1128 0.693645 8.93382 4.97387 5.91237 13.2753C3.99738 18.5366 5.01546 24.1505 8.13139 28.3259L9.4545 24.6907C7.85215 21.5919 7.50066 17.8584 8.78786 14.3219C11.2313 7.60856 18.6543 4.14716 25.3676 6.5906C25.7644 6.73503 26.1499 6.89687 26.5235 7.07494L22.8274 17.2298H20.1631L22.4786 10.8678L17.1549 10.8543L10.0255 30.442C11.5522 31.8684 13.3853 33.0174 15.4725 33.7771Z" fill="#17A755"/>
</svg>
