<svg width="25" height="25" viewBox="0 0 25 25" fill="none" xmlns="http://www.w3.org/2000/svg">
<path d="M6.88672 12.1602C6.88672 8.20868 9.17887 4.79301 12.5059 3.16895C7.71196 3.36854 3.88672 7.3172 3.88672 12.1602C3.88672 17.0031 7.71198 20.9508 12.5059 21.1504C9.17908 19.5262 6.88672 16.1115 6.88672 12.1602ZM20.2871 5.36133C20.7285 5.02948 21.3556 5.11818 21.6875 5.55957C24.62 9.4604 24.6193 14.8635 21.6855 18.7637C21.3535 19.2047 20.7264 19.2928 20.2852 18.9609C19.8443 18.6289 19.7562 18.0027 20.0879 17.5615C22.4862 14.3733 22.486 9.95054 20.0889 6.76172C19.7571 6.32041 19.846 5.69328 20.2871 5.36133ZM8.88672 12.1602C8.88672 16.5784 12.4684 20.1602 16.8867 20.1602C17.0003 20.1602 17.1133 20.158 17.2256 20.1533C17.6985 20.1337 18.1202 20.4483 18.2363 20.9072C18.3523 21.3659 18.1311 21.8431 17.7061 22.0508C16.2496 22.7616 14.6131 23.1602 12.8867 23.1602C6.81159 23.1602 1.88672 18.2353 1.88672 12.1602C1.88672 6.08502 6.81159 1.16016 12.8867 1.16016C14.6131 1.16016 16.2496 1.55873 17.7061 2.26953C18.1311 2.47722 18.3523 2.95438 18.2363 3.41309C18.1202 3.87196 17.6985 4.18662 17.2256 4.16699C17.1133 4.16232 17.0003 4.16016 16.8867 4.16016C12.4684 4.16016 8.88672 7.74188 8.88672 12.1602Z" fill="currentColor"/>
</svg>
