<svg width="21" height="20" viewBox="0 0 21 20" fill="none" xmlns="http://www.w3.org/2000/svg">
<path d="M6.88574 0.755371C7.26484 0.584103 7.71071 0.665305 8.00488 0.959473C8.29898 1.25366 8.38027 1.69955 8.20898 2.07861C7.77144 3.04614 7.52737 4.12103 7.52734 5.25537C7.52739 9.51819 10.9833 12.9741 15.2461 12.9741C16.3803 12.974 17.4554 12.73 18.4229 12.2925C18.8019 12.1213 19.2479 12.2024 19.542 12.4966C19.8359 12.7908 19.9173 13.2368 19.7461 13.6157C18.2222 16.9853 14.8294 19.3333 10.8867 19.3335C5.51934 19.3335 1.16806 14.9821 1.16797 9.61475C1.16804 5.67191 3.51602 2.27929 6.88574 0.755371ZM5.61328 3.97803C4.10786 5.38706 3.16802 7.39184 3.16797 9.61475C3.16806 13.8775 6.62391 17.3335 10.8867 17.3335C13.1098 17.3334 15.1135 16.3919 16.5225 14.8862C16.1045 14.9412 15.6786 14.9741 15.2461 14.9741C9.87869 14.9741 5.52739 10.6228 5.52734 5.25537C5.52735 4.82259 5.55831 4.39625 5.61328 3.97803Z" fill="#5C5C5C"/>
</svg>
