<svg width="18" height="20" viewBox="0 0 18 20" fill="none" xmlns="http://www.w3.org/2000/svg">
<path d="M16 5.79981C16 4.94342 15.9997 4.36117 15.9629 3.91113C15.9271 3.47272 15.8619 3.2482 15.7822 3.0918C15.5905 2.71555 15.2845 2.40951 14.9082 2.21778C14.7518 2.13809 14.5273 2.07293 14.0889 2.03711C13.6388 2.00035 13.0566 2 12.2002 2H5.79981C4.94342 2 4.36117 2.00035 3.91113 2.03711C3.47272 2.07293 3.2482 2.13809 3.0918 2.21778C2.71555 2.40951 2.40951 2.71555 2.21778 3.0918C2.13809 3.2482 2.07293 3.47272 2.03711 3.91113C2.00035 4.36117 2 4.94342 2 5.79981V17.0361L3.16211 16.1914L3.30371 16.1045C3.64774 15.9329 4.06708 15.9724 4.375 16.2188L6.2793 17.7422L8.41211 16.1914L8.54883 16.1074C8.87938 15.9402 9.28115 15.9684 9.58789 16.1914L11.7197 17.7422L13.625 16.2188C13.9768 15.9373 14.4735 15.9265 14.8379 16.1914L16 17.0361V5.79981ZM11.793 5.29297C12.1835 4.90245 12.8165 4.90245 13.207 5.29297C13.5976 5.6835 13.5976 6.31651 13.207 6.70703L8.70703 11.207C8.31651 11.5976 7.6835 11.5976 7.29297 11.207L5.29297 9.20703C4.90245 8.81651 4.90245 8.18349 5.29297 7.79297C5.6835 7.40245 6.31651 7.40245 6.70703 7.79297L8 9.08594L11.793 5.29297ZM18 19C18 19.3761 17.7892 19.7209 17.4541 19.8916C17.119 20.0623 16.7163 20.0297 16.4121 19.8086L14.2793 18.2568L12.375 19.7813C12.0232 20.0627 11.5265 20.0735 11.1621 19.8086L9 18.2354L6.83789 19.8086C6.47351 20.0735 5.97681 20.0627 5.625 19.7813L3.71973 18.2568L1.58789 19.8086C1.28372 20.0297 0.881028 20.0623 0.5459 19.8916C0.210765 19.7209 1.9493e-06 19.3761 1.9493e-06 19V5.79981C1.82682e-06 4.97632 -0.00102054 4.29843 0.0439473 3.74805C0.0898762 3.18599 0.188274 2.6689 0.435549 2.1836C0.819018 1.43109 1.43109 0.819018 2.1836 0.435549C2.6689 0.188274 3.18599 0.0898762 3.74805 0.0439473C4.29843 -0.00102053 4.97632 1.8265e-06 5.79981 1.94928e-06H12.2002C13.0237 1.8265e-06 13.7016 -0.00102053 14.252 0.0439473C14.814 0.0898761 15.3311 0.188274 15.8164 0.435549C16.5689 0.819018 17.181 1.43109 17.5645 2.1836C17.8117 2.6689 17.9101 3.18599 17.9561 3.74805C18.001 4.29843 18 4.97632 18 5.79981V19Z" fill="#00A38D"/>
</svg>
