<svg width="20" height="20" viewBox="0 0 20 20" fill="none" xmlns="http://www.w3.org/2000/svg">
<rect width="20" height="20" rx="6" fill="#F5F5F5"/>
<path d="M7.60135 7.60135C5.82493 8.00915 4.5 9.59985 4.5 11.5C4.5 13.7091 6.29086 15.5 8.5 15.5C10.4002 15.5 11.9909 14.1751 12.3987 12.3987C12.465 12.1098 12.5 11.809 12.5 11.5C12.5 9.29086 10.7091 7.5 8.5 7.5C8.19101 7.5 7.89021 7.53504 7.60135 7.60135Z" fill="#47C2FF"/>
<path d="M8.02219 6.52254C8.17945 6.50763 8.33884 6.5 8.5 6.5C11.2614 6.5 13.5 8.73858 13.5 11.5C13.5 11.6612 13.4924 11.8205 13.4775 11.9778C14.6855 11.2895 15.5 9.98985 15.5 8.5C15.5 6.29086 13.7091 4.5 11.5 4.5C10.0102 4.5 8.71054 5.31452 8.02219 6.52254Z" fill="#47C2FF"/>
</svg>
