<svg width="22" height="20" viewBox="0 0 22 20" fill="none" xmlns="http://www.w3.org/2000/svg">
<path fill-rule="evenodd" clip-rule="evenodd" d="M6.5 0C4.89597 0 3.4 0.234781 2.26917 0.645993C2.23409 0.65875 2.19915 0.671751 2.16438 0.685001C1.64277 0.883749 1.15808 1.13843 0.780294 1.46322C0.380571 1.80688 0 2.32275 0 3V4.5C0 5.17725 0.380571 5.69312 0.780294 6.03678C1.18326 6.38322 1.70787 6.6499 2.26917 6.85401C3.4 7.26522 4.89597 7.5 6.5 7.5C6.73211 7.5 6.96196 7.49508 7.18877 7.48543C7.3287 7.47947 7.39867 7.47649 7.46138 7.45682C7.52137 7.438 7.56538 7.41518 7.61533 7.37701C7.66756 7.3371 7.72084 7.26799 7.8274 7.12978C8.04064 6.85322 8.26856 6.62538 8.47645 6.44665C9.12872 5.88587 9.89708 5.51681 10.5857 5.26641C11.1181 5.07278 11.7039 4.91568 12.3195 4.79529C12.5724 4.74583 12.6988 4.7211 12.785 4.66135C12.8635 4.60688 12.9195 4.53886 12.9579 4.45133C13 4.35533 13 4.23303 13 3.98841C13 3.65073 13 3.2617 13 3C13 2.32275 12.6194 1.80688 12.2197 1.46322C11.8167 1.11678 11.2921 0.850103 10.7308 0.645993C9.6 0.234781 8.10403 0 6.5 0Z" fill="black"/>
<path d="M6.99936 9.99243C6.99957 9.71892 6.77351 9.5 6.5 9.5C4.89597 9.5 3.4 9.26522 2.26917 8.85401C1.70787 8.6499 1.18326 8.38322 0.780294 8.03678C0.633408 7.91049 0.489108 7.76095 0.365329 7.5887C0.326254 7.53432 0.26436 7.5 0.197399 7.5C0.0883785 7.5 0 7.58838 0 7.6974V9.5C0 10.1772 0.380571 10.6931 0.780294 11.0368C1.18326 11.3832 1.70787 11.6499 2.26917 11.854C3.4 12.2652 4.89597 12.5 6.5 12.5C6.50402 12.5 6.50604 12.5 6.5122 12.4998C6.77295 12.4934 6.99342 12.2728 6.99973 12.0121C6.99988 12.0059 6.99988 12.0014 6.99987 11.9923C6.99956 11.3257 6.99884 10.659 6.99936 9.99243Z" fill="black"/>
<path d="M7 14.9924C7 14.7188 6.77366 14.5 6.5 14.5C4.89597 14.5 3.4 14.2652 2.26917 13.854C1.70787 13.6499 1.18326 13.3832 0.780294 13.0368C0.633408 12.9105 0.489108 12.761 0.365328 12.5887C0.326254 12.5343 0.26436 12.5 0.197399 12.5C0.0883784 12.5 0 12.5884 0 12.6974V15C0 15.6772 0.380571 16.1931 0.780294 16.5368C1.18326 16.8832 1.70787 17.1499 2.26917 17.354C3.4 17.7652 4.89597 18 6.5 18C6.51912 18 6.52947 18 6.52947 18C6.84952 17.999 7.05536 17.7724 7.02575 17.4537C7.02575 17.4537 7.02296 17.4247 7.01753 17.3682C7.00605 17.2488 7 17.1261 7 17V14.9924Z" fill="black"/>
<path fill-rule="evenodd" clip-rule="evenodd" d="M13.2071 6.16879C13.923 6.0587 14.698 6 15.5 6C17.104 6 18.6 6.23478 19.7308 6.64599C19.7659 6.65875 19.8008 6.67175 19.8356 6.685C20.3572 6.88375 20.8419 7.13843 21.2197 7.46322C21.6194 7.80688 22 8.32275 22 9V11C22 11.6772 21.6194 12.1931 21.2197 12.5368C20.8167 12.8832 20.2921 13.1499 19.7308 13.354C18.6 13.7652 17.104 14 15.5 14C13.896 14 12.4 13.7652 11.2692 13.354C10.7079 13.1499 10.1833 12.8832 9.78029 12.5368C9.38057 12.1931 9 11.6772 9 11C9 10.3304 9 9.65917 9 9C9 8.32275 9.38057 7.80688 9.78029 7.46322C10.1833 7.11678 10.7079 6.8501 11.2692 6.64599C11.3398 6.62029 11.4119 6.59528 11.4854 6.57097C11.9425 6.41973 12.4524 6.29571 13 6.20236C13.0685 6.19069 13.1375 6.1795 13.2071 6.16879Z" fill="black"/>
<path d="M9.1974 14C9.08838 14 9 14.0884 9 14.1974V16.5C9 17.1772 9.38057 17.6931 9.78029 18.0368C10.1833 18.3832 10.7079 18.6499 11.2692 18.854C12.4 19.2652 13.896 19.5 15.5 19.5C17.104 19.5 18.6 19.2652 19.7308 18.854C20.2921 18.6499 20.8167 18.3832 21.2197 18.0368C21.6194 17.6931 22 17.1772 22 16.5V14.1974C22 14.0884 21.9116 14 21.8026 14C21.7356 14 21.6737 14.0343 21.6347 14.0887C21.5109 14.261 21.3666 14.4105 21.2197 14.5368C20.8167 14.8832 20.2921 15.1499 19.7308 15.354C18.6 15.7652 17.104 16 15.5 16C13.896 16 12.4 15.7652 11.2692 15.354C10.7079 15.1499 10.1833 14.8832 9.78029 14.5368C9.63341 14.4105 9.48911 14.261 9.36533 14.0887C9.32625 14.0343 9.26436 14 9.1974 14Z" fill="black"/>
</svg>
