<svg width="48" height="48" viewBox="0 0 48 48" fill="none" xmlns="http://www.w3.org/2000/svg">
<rect width="48" height="48" rx="24" fill="#F5F5F5"/>
<path fill-rule="evenodd" clip-rule="evenodd" d="M17.2832 22.462C16.3542 20.7777 16 19.4199 16 18.5028C16 17.5857 16.2253 17.3226 16.454 17.1101C16.6826 16.8976 17.7137 16.262 17.8893 16.1434C18.065 16.0249 18.7355 15.7945 19.156 16.3993C19.5764 17.0042 20.3682 18.2186 20.9141 19.0253C21.7707 20.1681 21.0883 20.6697 20.8679 20.9703C20.4622 21.5236 20.2287 21.6601 20.2287 22.3394C20.2287 23.0188 22.1273 24.9488 22.5812 25.4244C23.0318 25.8963 24.9236 27.5547 25.5098 27.6434C26.1001 27.7327 26.8904 27.1077 27.0584 26.9492C27.9131 26.293 28.3956 26.7905 28.7893 27.0068C29.1831 27.223 30.9619 28.3315 31.5132 28.7052C32.032 29.0788 31.9996 29.6562 31.9996 29.6562C31.9996 29.6562 31.6305 30.7338 30.7998 31.5584C30.5956 31.7612 30.2485 32 29.373 32C28.4975 32 27.562 31.8401 25.3389 30.6174C23.5198 29.617 21.7857 28.0504 20.8778 27.1333C19.9374 26.2162 18.3444 24.386 17.2832 22.462Z" fill="#00A38D"/>
</svg>
