<svg width="24" height="24" viewBox="0 0 24 24" fill="none" xmlns="http://www.w3.org/2000/svg">
<rect width="24" height="24" rx="12" fill="#00A38D"/>
<path fill-rule="evenodd" clip-rule="evenodd" d="M6.66548 10.7791C5.92772 9.44155 5.64648 8.36328 5.64648 7.63497C5.64648 6.90667 5.82542 6.69778 6.007 6.52903C6.18857 6.36028 7.00733 5.85548 7.14684 5.76134C7.28635 5.6672 7.81879 5.48424 8.15269 5.96457C8.48659 6.44489 9.11537 7.40928 9.54888 8.04994C10.2291 8.95739 9.68719 9.35574 9.51214 9.5945C9.19002 10.0339 9.00455 10.1422 9.00455 10.6817C9.00455 11.2212 10.5123 12.7539 10.8728 13.1315C11.2305 13.5063 12.7328 14.8233 13.1983 14.8937C13.6671 14.9646 14.2947 14.4683 14.4281 14.3424C15.1069 13.8213 15.4901 14.2164 15.8027 14.3881C16.1154 14.5599 17.528 15.4401 17.9658 15.7368C18.3778 16.0336 18.352 16.4921 18.352 16.4921C18.352 16.4921 18.0589 17.3478 17.3993 18.0027C17.2371 18.1637 16.9615 18.3533 16.2662 18.3533C15.571 18.3533 14.8281 18.2264 13.0626 17.2554C11.6181 16.461 10.241 15.2169 9.52 14.4886C8.77323 13.7603 7.5082 12.3069 6.66548 10.7791Z" fill="white"/>
</svg>
