<svg width="21" height="21" viewBox="0 0 21 21" fill="none" xmlns="http://www.w3.org/2000/svg">
<path d="M12.1023 0.163488C12.3226 0.0190899 12.5912 -0.0324023 12.8494 0.019933C13.1447 0.0798372 13.4246 0.359723 13.9842 0.919347L19.1277 6.0629C19.6874 6.62253 19.9672 6.9024 20.0271 7.19767C20.0795 7.45583 20.028 7.72443 19.8836 7.94474C19.7183 8.19668 19.3542 8.3527 18.6268 8.66446L16.1316 9.7338C16.0261 9.77904 15.9732 9.80217 15.9236 9.83048C15.8797 9.85562 15.8373 9.88393 15.7977 9.91544C15.753 9.95095 15.712 9.99136 15.6307 10.0727L14.0701 11.6342C13.9432 11.7611 13.8794 11.8246 13.8289 11.8969C13.7841 11.9612 13.7462 12.0309 13.7176 12.1039C13.6853 12.1862 13.6679 12.275 13.6326 12.4516L12.8992 16.1156C12.7088 17.0677 12.614 17.5442 12.3631 17.767C12.1445 17.961 11.8518 18.0492 11.5623 18.0092C11.2299 17.9631 10.8857 17.6197 10.199 16.933L7.36406 14.0981L1.70684 19.7553C1.31649 20.1454 0.683266 20.1452 0.292774 19.7553C-0.0976707 19.3648 -0.097512 18.7318 0.292774 18.3412L5.95 12.684L3.11406 9.84806C2.42735 9.16134 2.08398 8.81723 2.03789 8.48478C1.99787 8.19527 2.0861 7.90261 2.28008 7.684C2.5029 7.43307 2.97935 7.33828 3.93145 7.14786L7.59551 6.41446C7.77207 6.37915 7.86084 6.36179 7.94316 6.3295C8.01615 6.30085 8.08588 6.26303 8.1502 6.21817C8.22249 6.16767 8.28597 6.10389 8.41289 5.97696L9.97441 4.41642C10.0557 4.33511 10.0961 4.2941 10.1316 4.24942C10.1632 4.20975 10.1915 4.16743 10.2166 4.12345C10.2449 4.0739 10.268 4.02099 10.3133 3.91544L11.3826 1.42032C11.6944 0.692866 11.8504 0.328737 12.1023 0.163488Z" fill="#008C79"/>
</svg>
