<svg width="22" height="22" viewBox="0 0 22 22" fill="none" xmlns="http://www.w3.org/2000/svg">
<path d="M7.37658 14.6164L1.71973 20.2732M10.6943 5.64188L9.13338 7.20276C9.00606 7.33009 8.9424 7.39375 8.86986 7.44433C8.80548 7.48923 8.73604 7.5264 8.66297 7.55506C8.58065 7.58735 8.49236 7.60501 8.3158 7.64032L4.65133 8.37321C3.69903 8.56367 3.22288 8.6589 3.00012 8.90996C2.80605 9.12867 2.71743 9.42136 2.75758 9.71099C2.80367 10.0434 3.14703 10.3868 3.83375 11.0735L10.9195 18.1593C11.6062 18.846 11.9496 19.1893 12.282 19.2354C12.5716 19.2756 12.8643 19.1869 13.083 18.9929C13.3341 18.7701 13.4293 18.294 13.6198 17.3417L14.3527 13.6772C14.388 13.5006 14.4056 13.4124 14.4379 13.33C14.4666 13.257 14.5038 13.1875 14.5487 13.1231C14.5992 13.0506 14.6629 12.9869 14.7902 12.8596L16.3511 11.2987C16.4325 11.2173 16.4732 11.1766 16.518 11.1411C16.5577 11.1095 16.5998 11.081 16.6439 11.0558C16.6935 11.0275 16.7464 11.0048 16.8522 10.9595L19.3466 9.89046C20.0743 9.57859 20.4381 9.42265 20.6034 9.17067C20.7479 8.95031 20.7996 8.68181 20.7473 8.42354C20.6874 8.12819 20.4075 7.84828 19.8477 7.28846L14.7045 2.14532C14.1447 1.58549 13.8648 1.30558 13.5695 1.24571C13.3112 1.19335 13.0427 1.24506 12.8223 1.38959C12.5703 1.55487 12.4144 1.91872 12.1025 2.64642L11.0335 5.14078C10.9882 5.24659 10.9655 5.2995 10.9372 5.34911C10.912 5.39319 10.8835 5.43528 10.8519 5.47503C10.8164 5.51977 10.7757 5.56047 10.6943 5.64188Z" stroke="#9799A1" stroke-width="2" stroke-linecap="round" stroke-linejoin="round"/>
</svg>
