<svg width="20" height="20" viewBox="0 0 20 20" fill="none" xmlns="http://www.w3.org/2000/svg">
<rect width="20" height="20" rx="6" fill="#F5F5F5"/>
<path fill-rule="evenodd" clip-rule="evenodd" d="M10 4C6.6868 4 4 6.6868 4 10C4 13.3132 6.6868 16 10 16C13.3132 16 16 13.3132 16 10C16 6.6868 13.3132 4 10 4ZM10.2734 7.54778C10.2734 7.1956 9.98792 6.9101 9.63573 6.9101C9.28355 6.9101 8.99805 7.1956 8.99805 7.54778L8.99805 10.5253L9.00116 10.5907C9.03171 10.8907 9.27036 11.1293 9.57035 11.1599L9.63573 11.163L12.5244 11.163C12.8765 11.163 13.162 10.8775 13.162 10.5253C13.162 10.1731 12.8765 9.88761 12.5244 9.88761L10.2734 9.88761L10.2734 7.54778Z" fill="#FF8000"/>
</svg>
