<svg width="20" height="20" viewBox="0 0 20 20" fill="none" xmlns="http://www.w3.org/2000/svg">
<path d="M10.8335 4.16732C10.8335 3.70708 10.4604 3.33398 10.0002 3.33398C9.53993 3.33398 9.16683 3.70708 9.16683 4.16732V9.16732H4.16683C3.70659 9.16732 3.3335 9.54041 3.3335 10.0007C3.3335 10.4609 3.70659 10.834 4.16683 10.834H9.16683V15.834C9.16683 16.2942 9.53993 16.6673 10.0002 16.6673C10.4604 16.6673 10.8335 16.2942 10.8335 15.834V10.834H15.8335C16.2937 10.834 16.6668 10.4609 16.6668 10.0007C16.6668 9.54041 16.2937 9.16732 15.8335 9.16732H10.8335V4.16732Z" fill="white"/>
</svg>
