<svg width="20" height="20" viewBox="0 0 20 20" fill="none" xmlns="http://www.w3.org/2000/svg">
<rect width="20" height="20" rx="9" fill="#F5F5F5"/>
<rect width="12" height="12" rx="6" transform="matrix(1 0 0 -1 4 16)" fill="#9B47FF"/>
<path d="M9.30767 12.4045C9.36862 12.3601 9.42122 12.3075 9.48082 12.2478L12.1059 9.62274L10.3773 7.89414L7.75222 10.5192C7.69254 10.5788 7.63988 10.6314 7.59547 10.6923C7.5564 10.746 7.523 10.8035 7.49582 10.864C7.46493 10.9328 7.44539 11.0047 7.42325 11.086L7.01126 12.5967C6.98111 12.7073 7.0125 12.8255 7.09352 12.9065C7.17453 12.9875 7.29275 13.0189 7.40328 12.9887L8.91395 12.5767C8.99533 12.5546 9.06716 12.5351 9.13595 12.5042C9.19649 12.477 9.25404 12.4436 9.30767 12.4045Z" fill="white"/>
<path fill-rule="evenodd" clip-rule="evenodd" d="M11.3218 7.02344C11.418 6.99219 11.5216 6.99219 11.6178 7.02344C11.692 7.04757 11.7459 7.08765 11.7813 7.11776C11.8119 7.14374 11.844 7.17587 11.8709 7.20277L12.7972 8.12908C12.8241 8.15596 12.8563 8.18807 12.8822 8.21867C12.9123 8.25413 12.9524 8.30796 12.9766 8.38223C13.0078 8.47842 13.0078 8.58203 12.9766 8.67821C12.9524 8.75249 12.9123 8.80631 12.8822 8.84178C12.8563 8.87238 12.8241 8.90449 12.7972 8.93137L12.4492 9.27942L10.7206 7.55082L11.0686 7.20278C11.0955 7.17587 11.1276 7.14374 11.1582 7.11776C11.1937 7.08765 11.2475 7.04757 11.3218 7.02344Z" fill="white"/>
</svg>
