<svg width="15" height="16" viewBox="0 0 15 16" fill="none" xmlns="http://www.w3.org/2000/svg">
<g clip-path="url(#clip0_3236_68125)">
<path d="M11.7859 5.02344V3.87594C11.7859 3.16187 11.7859 2.80484 11.647 2.5321C11.5247 2.29219 11.3297 2.09714 11.0898 1.9749C10.817 1.83594 10.46 1.83594 9.74594 1.83594H6.17594C5.46187 1.83594 5.10484 1.83594 4.8321 1.9749C4.59219 2.09714 4.39714 2.29219 4.2749 2.5321C4.13594 2.80484 4.13594 3.16187 4.13594 3.87594V5.02344M4.13594 12.0359C3.54308 12.0359 3.24665 12.0359 3.00345 11.9708C2.34346 11.7939 1.82795 11.2784 1.6511 10.6184C1.58594 10.3752 1.58594 10.0788 1.58594 9.48594V8.08344C1.58594 7.01234 1.58594 6.47679 1.79439 6.06768C1.97775 5.70782 2.27032 5.41525 2.63018 5.23189C3.03929 5.02344 3.57484 5.02344 4.64594 5.02344H11.2759C12.347 5.02344 12.8826 5.02344 13.2917 5.23189C13.6516 5.41525 13.9441 5.70782 14.1275 6.06768C14.3359 6.47679 14.3359 7.01234 14.3359 8.08344V9.48594C14.3359 10.0788 14.3359 10.3752 14.2708 10.6184C14.0939 11.2784 13.5784 11.7939 12.9184 11.9708C12.6752 12.0359 12.3788 12.0359 11.7859 12.0359M9.87344 7.25469H11.7859M6.17594 14.5859H9.74594C10.46 14.5859 10.817 14.5859 11.0898 14.447C11.3297 14.3247 11.5247 14.1297 11.647 13.8898C11.7859 13.617 11.7859 13.26 11.7859 12.5459V11.5259C11.7859 10.8119 11.7859 10.4548 11.647 10.1821C11.5247 9.94219 11.3297 9.74714 11.0898 9.6249C10.817 9.48594 10.46 9.48594 9.74594 9.48594H6.17594C5.46187 9.48594 5.10484 9.48594 4.8321 9.6249C4.59219 9.74714 4.39714 9.94219 4.2749 10.1821C4.13594 10.4548 4.13594 10.8119 4.13594 11.5259V12.5459C4.13594 13.26 4.13594 13.617 4.2749 13.8898C4.39714 14.1297 4.59219 14.3247 4.8321 14.447C5.10484 14.5859 5.46187 14.5859 6.17594 14.5859Z" stroke="black" stroke-width="1.5" stroke-linecap="round" stroke-linejoin="round"/>
</g>
<defs>
<clipPath id="clip0_3236_68125">
<rect width="15" height="15" fill="white" transform="translate(0 0.5)"/>
</clipPath>
</defs>
</svg>
