<svg width="20" height="20" viewBox="0 0 20 20" fill="none" xmlns="http://www.w3.org/2000/svg">
<rect width="20" height="20" rx="6" fill="#F5F5F5"/>
<rect width="12" height="12" rx="6" transform="matrix(1 0 0 -1 4 16)" fill="#0099B5"/>
<path fill-rule="evenodd" clip-rule="evenodd" d="M8 7.27273C8 7.1221 8.09949 7 8.22222 7H11.7778C11.9005 7 12 7.1221 12 7.27273C12 7.42335 11.9005 7.54545 11.7778 7.54545H11.5556L11.5556 8.05466C11.5557 8.24948 11.5557 8.39662 11.5251 8.53657C11.498 8.65994 11.4535 8.77651 11.3936 8.88099C11.3256 8.99951 11.2335 9.09364 11.1115 9.21828L10.3471 10L11.1115 10.7817C11.2335 10.9064 11.3256 11.0005 11.3936 11.119C11.4535 11.2235 11.498 11.3401 11.5251 11.4634C11.5557 11.6034 11.5557 11.7505 11.5556 11.9453L11.5556 12.4545H11.7778C11.9005 12.4545 12 12.5767 12 12.7273C12 12.8779 11.9005 13 11.7778 13H8.22222C8.09949 13 8 12.8779 8 12.7273C8 12.5767 8.09949 12.4545 8.22222 12.4545H8.44446L8.44445 11.9453C8.44437 11.7505 8.4443 11.6034 8.47498 11.4634C8.50203 11.3401 8.54652 11.2235 8.60643 11.119C8.67439 11.0005 8.76653 10.9064 8.88854 10.7817L9.6529 10L8.88854 9.21828C8.76653 9.09364 8.67439 8.99951 8.60643 8.88099C8.54652 8.77651 8.50203 8.65994 8.47498 8.53657C8.4443 8.39662 8.44437 8.24948 8.44445 8.05466L8.44446 7.54545H8.22222C8.09949 7.54545 8 7.42335 8 7.27273ZM8.88891 8.02322V7.54545H11.1111V8.02322C11.1111 8.26336 11.1093 8.33339 11.0959 8.39486C11.0823 8.45654 11.0601 8.51483 11.0301 8.56707C11.0003 8.61912 10.9576 8.66564 10.8073 8.81937L10 9.64499L9.19275 8.81937C9.04243 8.66564 8.99974 8.61912 8.96989 8.56707C8.93994 8.51483 8.91769 8.45654 8.90417 8.39486C8.89069 8.33339 8.88891 8.26336 8.88891 8.02322Z" fill="white"/>
</svg>
