<svg width="22" height="22" viewBox="0 0 22 22" fill="none" xmlns="http://www.w3.org/2000/svg">
<path d="M8.25066 14.2996C8.25066 14.028 8.24954 13.8791 8.24082 13.7723C8.24048 13.7682 8.23937 13.7644 8.23903 13.7607C8.23562 13.7604 8.23204 13.7601 8.22828 13.7598C8.12146 13.751 7.97261 13.7499 7.70102 13.7499H4.21697C3.94538 13.7499 3.79653 13.751 3.68971 13.7598C3.68562 13.7601 3.68174 13.7603 3.67807 13.7607C3.67773 13.7643 3.67751 13.7682 3.67718 13.7723C3.66845 13.8791 3.66733 14.028 3.66733 14.2996V17.7836C3.66733 18.0552 3.66845 18.2041 3.67718 18.3109C3.67749 18.3146 3.67776 18.3182 3.67807 18.3216C3.68177 18.322 3.68559 18.3231 3.68971 18.3234C3.79653 18.3321 3.94538 18.3333 4.21697 18.3333H7.70102C7.97261 18.3333 8.12146 18.3321 8.22828 18.3234C8.23207 18.3231 8.2356 18.3219 8.23903 18.3216C8.23934 18.3182 8.24051 18.3147 8.24082 18.3109C8.24954 18.2041 8.25066 18.0552 8.25066 17.7836V14.2996ZM11.9173 19.2499V15.1249C11.9173 14.6187 12.3277 14.2083 12.834 14.2083C13.3403 14.2083 13.7507 14.6187 13.7507 15.1249V19.2499C13.7507 19.7562 13.3403 20.1666 12.834 20.1666C12.3277 20.1666 11.9173 19.7562 11.9173 19.2499ZM18.334 15.5833C18.334 15.077 18.7444 14.6666 19.2507 14.6666C19.7569 14.6666 20.1673 15.077 20.1673 15.5833V19.2499C20.1673 19.7562 19.7569 20.1666 19.2507 20.1666H15.584C15.0777 20.1666 14.6673 19.7562 14.6673 19.2499C14.6673 18.7437 15.0777 18.3333 15.584 18.3333H18.334V15.5833ZM5.96795 15.1249C6.47421 15.1249 6.88462 15.5353 6.88462 16.0416C6.88462 16.5479 6.47421 16.9583 5.96795 16.9583H5.959C5.45274 16.9583 5.04233 16.5479 5.04233 16.0416C5.04233 15.5353 5.45274 15.1249 5.959 15.1249H5.96795ZM16.0513 15.1249C16.5575 15.1249 16.9679 15.5353 16.9679 16.0416C16.9679 16.5479 16.5575 16.9583 16.0513 16.9583H16.0423C15.5361 16.9583 15.1257 16.5479 15.1257 16.0416C15.1257 15.5353 15.5361 15.1249 16.0423 15.1249H16.0513ZM19.2507 11.9166C19.7569 11.9166 20.1673 12.327 20.1673 12.8333C20.1673 13.3395 19.7569 13.7499 19.2507 13.7499H15.1257C14.6194 13.7499 14.209 13.3395 14.209 12.8333C14.209 12.327 14.6194 11.9166 15.1257 11.9166H19.2507ZM11.9263 10.9999C12.4325 10.9999 12.8429 11.4103 12.8429 11.9166C12.8429 12.4229 12.4325 12.8333 11.9263 12.8333H11.9173C11.4111 12.8333 11.0007 12.4229 11.0007 11.9166C11.0007 11.4103 11.4111 10.9999 11.9173 10.9999H11.9263ZM8.25066 4.21624C8.25066 3.94465 8.24954 3.7958 8.24082 3.68898C8.24048 3.68486 8.23937 3.68103 8.23903 3.67734C8.23562 3.67703 8.23204 3.67675 8.22828 3.67645C8.1748 3.67208 8.11062 3.66966 8.02597 3.66839L7.70102 3.6666H4.21697C3.94538 3.6666 3.79653 3.66772 3.68971 3.67645C3.68562 3.67678 3.68174 3.677 3.67807 3.67734C3.67773 3.68101 3.67751 3.68489 3.67718 3.68898C3.66845 3.7958 3.66733 3.94465 3.66733 4.21624V7.70029C3.66733 7.97188 3.66845 8.12073 3.67718 8.22755C3.67749 8.23131 3.67776 8.23489 3.67807 8.23829C3.68177 8.23863 3.68559 8.23975 3.68971 8.24008C3.79653 8.24881 3.94538 8.24993 4.21697 8.24993H7.70102C7.97261 8.24993 8.12146 8.24881 8.22828 8.24008C8.23207 8.23977 8.2356 8.23861 8.23903 8.23829C8.23934 8.23486 8.24051 8.23134 8.24082 8.22755C8.24954 8.12073 8.25066 7.97188 8.25066 7.70029V4.21624ZM18.334 4.21624C18.334 3.94465 18.3329 3.7958 18.3241 3.68898C18.3238 3.68486 18.3227 3.68103 18.3224 3.67734C18.319 3.67703 18.3154 3.67675 18.3116 3.67645C18.2048 3.66772 18.0559 3.6666 17.7844 3.6666H14.3003C14.0287 3.6666 13.8799 3.66772 13.773 3.67645C13.769 3.67678 13.7651 3.677 13.7614 3.67734C13.7611 3.68101 13.7608 3.68489 13.7605 3.68898C13.7518 3.7958 13.7507 3.94465 13.7507 4.21624V7.70029C13.7507 7.97188 13.7518 8.12073 13.7605 8.22755C13.7608 8.23131 13.7611 8.23489 13.7614 8.23829C13.7651 8.23863 13.7689 8.23975 13.773 8.24008C13.8799 8.24881 14.0287 8.24993 14.3003 8.24993H17.7844C18.0559 8.24993 18.2048 8.24881 18.3116 8.24008C18.3154 8.23977 18.3189 8.23861 18.3224 8.23829C18.3227 8.23486 18.3238 8.23134 18.3241 8.22755C18.3329 8.12073 18.334 7.97188 18.334 7.70029V4.21624ZM5.96795 5.0416C6.47421 5.0416 6.88462 5.452 6.88462 5.95826C6.88462 6.46453 6.47421 6.87493 5.96795 6.87493H5.959C5.45274 6.87493 5.04233 6.46453 5.04233 5.95826C5.04233 5.452 5.45274 5.0416 5.959 5.0416H5.96795ZM16.0513 5.0416C16.5575 5.0416 16.9679 5.452 16.9679 5.95826C16.9679 6.46453 16.5575 6.87493 16.0513 6.87493H16.0423C15.5361 6.87493 15.1257 6.46453 15.1257 5.95826C15.1257 5.452 15.5361 5.0416 16.0423 5.0416H16.0513ZM10.084 17.7836C10.084 18.0251 10.085 18.2616 10.0688 18.4604C10.0516 18.6698 10.0111 18.9171 9.88437 19.1658C9.70861 19.5107 9.42808 19.7912 9.08318 19.967C8.83453 20.0937 8.58724 20.1342 8.37778 20.1514C8.17904 20.1676 7.94246 20.1666 7.70102 20.1666H4.21697C3.97553 20.1666 3.73896 20.1676 3.54021 20.1514C3.33075 20.1342 3.08347 20.0937 2.83481 19.967C2.48991 19.7912 2.20938 19.5107 2.03362 19.1658C1.90693 18.9171 1.86635 18.6698 1.84922 18.4604C1.83298 18.2616 1.834 18.0251 1.834 17.7836V14.2996C1.834 14.0581 1.83298 13.8216 1.84922 13.6228C1.86635 13.4134 1.90693 13.1661 2.03362 12.9174C2.20938 12.5725 2.48991 12.292 2.83481 12.1162C3.08347 11.9895 3.33075 11.949 3.54021 11.9318C3.73896 11.9156 3.97553 11.9166 4.21697 11.9166H7.70102C7.94246 11.9166 8.17904 11.9156 8.37778 11.9318C8.58724 11.949 8.83453 11.9895 9.08318 12.1162C9.38498 12.27 9.63752 12.504 9.81365 12.7912L9.88437 12.9174L9.96404 13.1036C10.0296 13.2877 10.0559 13.4658 10.0688 13.6228C10.085 13.8216 10.084 14.0581 10.084 14.2996V17.7836ZM10.084 7.70029C10.084 7.94173 10.085 8.1783 10.0688 8.37705C10.0516 8.58651 10.0111 8.83379 9.88437 9.08245C9.70861 9.42735 9.42808 9.70788 9.08318 9.88364C8.83453 10.0103 8.58724 10.0509 8.37778 10.068C8.17904 10.0843 7.94246 10.0833 7.70102 10.0833H4.21697C3.97553 10.0833 3.73896 10.0843 3.54021 10.068C3.33075 10.0509 3.08347 10.0103 2.83481 9.88364C2.48991 9.70788 2.20938 9.42735 2.03362 9.08245C1.90693 8.83379 1.86635 8.58651 1.84922 8.37705C1.83298 8.1783 1.834 7.94173 1.834 7.70029V4.21624C1.834 3.9748 1.83298 3.73823 1.84922 3.53948C1.86635 3.33002 1.90693 3.08273 2.03362 2.83408C2.20938 2.48918 2.48991 2.20865 2.83481 2.03289C3.08347 1.90619 3.33075 1.86562 3.54021 1.84848C3.73896 1.83224 3.97553 1.83326 4.21697 1.83326H7.70102L8.05462 1.83506C8.1689 1.83691 8.27824 1.84035 8.37778 1.84848C8.58724 1.86562 8.83453 1.90619 9.08318 2.03289C9.38498 2.18668 9.63752 2.42071 9.81365 2.70786L9.88437 2.83408L9.96404 3.02028C10.0296 3.20438 10.0559 3.38248 10.0688 3.53948C10.085 3.73823 10.084 3.9748 10.084 4.21624V7.70029ZM20.1673 7.70029C20.1673 7.94173 20.1683 8.1783 20.1521 8.37705C20.135 8.58651 20.0944 8.83379 19.9677 9.08245C19.7919 9.42735 19.5114 9.70788 19.1665 9.88364C18.9179 10.0103 18.6706 10.0509 18.4611 10.068C18.2624 10.0843 18.0258 10.0833 17.7844 10.0833H14.3003C14.0589 10.0833 13.8223 10.0843 13.6235 10.068C13.4141 10.0509 13.1668 10.0103 12.9181 9.88364C12.5732 9.70788 12.2927 9.42735 12.117 9.08245C11.9903 8.83379 11.9497 8.58651 11.9325 8.37705C11.9163 8.1783 11.9173 7.94173 11.9173 7.70029V4.21624C11.9173 3.9748 11.9163 3.73823 11.9325 3.53948C11.9497 3.33002 11.9903 3.08273 12.117 2.83408C12.2927 2.48918 12.5732 2.20865 12.9181 2.03289C13.1668 1.90619 13.4141 1.86562 13.6235 1.84848C13.8223 1.83224 14.0589 1.83326 14.3003 1.83326H17.7844C18.0258 1.83326 18.2624 1.83224 18.4611 1.84848C18.6706 1.86562 18.9179 1.90619 19.1665 2.03289C19.4683 2.18668 19.7209 2.42071 19.897 2.70786L19.9677 2.83408L20.0474 3.02028C20.1129 3.20438 20.1393 3.38248 20.1521 3.53948C20.1683 3.73823 20.1673 3.9748 20.1673 4.21624V7.70029Z" fill="#00A38D"/>
</svg>
