<svg width="19" height="18" viewBox="0 0 19 18" fill="none" xmlns="http://www.w3.org/2000/svg">
<path d="M8.33333 12.5C8.33333 12.4184 8.33516 12.3373 8.33903 12.2567C8.34009 12.2346 8.34257 12.2127 8.34391 12.1908C8.34479 12.1764 8.34454 12.162 8.34554 12.1476C8.2588 12.1708 8.17125 12.1936 8.08268 12.2144C7.2992 12.3976 6.38478 12.5 5.41667 12.5C4.08016 12.5 2.83359 12.3047 1.89128 11.9621C1.81522 11.9344 1.7408 11.9022 1.66667 11.8717V13.6963C1.67875 13.7113 1.69977 13.7354 1.73665 13.7671C1.86472 13.8772 2.09932 14.014 2.46094 14.1455C3.17741 14.406 4.22228 14.5833 5.41667 14.5833C6.30308 14.5833 7.11377 14.4855 7.77018 14.3254C8.09699 14.2456 8.36731 14.1541 8.58317 14.0617C8.54575 13.9478 8.51156 13.8324 8.48226 13.715C8.476 13.6899 8.47105 13.6645 8.46517 13.6393C8.45016 13.5749 8.43616 13.5102 8.42367 13.4448C8.41658 13.4078 8.4104 13.3706 8.40413 13.3333C8.39512 13.2796 8.38701 13.2257 8.37972 13.1714C8.37463 13.1335 8.36931 13.0956 8.36507 13.0575C8.35926 13.0051 8.3546 12.9524 8.35042 12.8996C8.34721 12.859 8.3429 12.8184 8.34066 12.7775C8.33563 12.6856 8.33333 12.5931 8.33333 12.5ZM8.94206 8.21208C7.99974 8.55466 6.75317 8.75 5.41667 8.75C4.08016 8.75 2.83359 8.55466 1.89128 8.21208C1.81522 8.18442 1.7408 8.15222 1.66667 8.12174V9.94629C1.67875 9.96127 1.69977 9.98538 1.73665 10.0171C1.86472 10.1272 2.09932 10.264 2.46094 10.3955C3.17741 10.656 4.22228 10.8333 5.41667 10.8333C6.27259 10.8333 7.05806 10.7424 7.70264 10.5916C8.26291 10.4606 8.67059 10.2934 8.92578 10.1367C8.9435 10.1037 8.96268 10.0716 8.98112 10.0391C9.0009 10.0041 9.02075 9.96929 9.04134 9.9349C9.05698 9.90878 9.07244 9.88257 9.08854 9.85677C9.11389 9.81614 9.1402 9.77617 9.16667 9.73633V8.12174C9.09253 8.15222 9.01812 8.18442 8.94206 8.21208ZM8.94206 4.46208C7.99974 4.80466 6.75317 5 5.41667 5C4.08016 5 2.83359 4.80466 1.89128 4.46208C1.81522 4.43442 1.7408 4.40222 1.66667 4.37174V6.19629C1.67875 6.21127 1.69977 6.23538 1.73665 6.26709C1.86472 6.37717 2.09932 6.51401 2.46094 6.64551C3.17741 6.90597 4.22228 7.08333 5.41667 7.08333C6.61106 7.08333 7.65593 6.90597 8.3724 6.64551C8.73402 6.51401 8.96862 6.37717 9.09668 6.26709C9.13356 6.23538 9.15459 6.21127 9.16667 6.19629V4.37174C9.09253 4.40222 9.01812 4.43442 8.94206 4.46208ZM5.41667 1.66667C4.22228 1.66667 3.17741 1.84403 2.46094 2.10449C2.09932 2.23599 1.86472 2.37283 1.73665 2.48291C1.73001 2.48862 1.72444 2.49482 1.71875 2.5C1.72444 2.50518 1.73001 2.51138 1.73665 2.51709C1.86472 2.62717 2.09932 2.76401 2.46094 2.89551C3.17741 3.15597 4.22228 3.33333 5.41667 3.33333C6.61106 3.33333 7.65593 3.15597 8.3724 2.89551C8.73402 2.76401 8.96862 2.62717 9.09668 2.51709C9.10315 2.51152 9.1082 2.50506 9.11377 2.5C9.1082 2.49494 9.10315 2.48848 9.09668 2.48291C8.96862 2.37283 8.73402 2.23599 8.3724 2.10449C7.65593 1.84403 6.61106 1.66667 5.41667 1.66667ZM10 12.5C10 12.652 10.0105 12.8013 10.0301 12.9476C10.0354 12.9869 10.0414 13.0259 10.048 13.0648C10.0521 13.0885 10.0565 13.1121 10.061 13.1356C10.0678 13.1705 10.0752 13.2052 10.083 13.2397C10.0891 13.2667 10.095 13.2936 10.1017 13.3203C10.1451 13.4918 10.2022 13.6578 10.271 13.8175C10.2828 13.8449 10.2951 13.872 10.3076 13.8989C10.8365 15.0409 11.9921 15.8333 13.3333 15.8333C15.1743 15.8333 16.6667 14.3409 16.6667 12.5C16.6667 10.6591 15.1743 9.16667 13.3333 9.16667C12.2427 9.16667 11.2738 9.68996 10.6657 10.4997L10.6665 10.5005C10.6098 10.5759 10.5564 10.6539 10.5062 10.734C10.4664 10.7976 10.4278 10.8622 10.3923 10.9285C10.3852 10.9417 10.3788 10.9552 10.3719 10.9684C10.344 11.0222 10.3188 11.0774 10.2938 11.1328C10.2848 11.1527 10.2747 11.1721 10.2661 11.1922C10.239 11.2556 10.2152 11.3205 10.1921 11.3859C10.1827 11.4124 10.1731 11.4389 10.1644 11.4657C10.1372 11.549 10.1126 11.6335 10.092 11.7196C10.0513 11.8892 10.0242 12.064 10.0106 12.2428C10.0041 12.3277 10 12.4134 10 12.5ZM18.3333 12.5C18.3333 15.2614 16.0948 17.5 13.3333 17.5C11.7146 17.5 10.2766 16.73 9.36279 15.5371C8.99856 15.7048 8.59038 15.841 8.16488 15.9448C7.36299 16.1405 6.41842 16.25 5.41667 16.25C4.08016 16.25 2.83359 16.0547 1.89128 15.7121C1.42358 15.542 0.986018 15.3196 0.650228 15.0309C0.317125 14.7445 0 14.3144 0 13.75V2.5C0 1.93563 0.317125 1.50545 0.650228 1.21908C0.986018 0.930424 1.42358 0.707994 1.89128 0.537923C2.83359 0.195336 4.08016 0 5.41667 0C6.75317 0 7.99974 0.195336 8.94206 0.537923C9.40975 0.707994 9.84732 0.930424 10.1831 1.21908C10.5162 1.50545 10.8333 1.93563 10.8333 2.5V8.16976C11.5689 7.7442 12.4225 7.5 13.3333 7.5C16.0948 7.5 18.3333 9.73858 18.3333 12.5Z" fill="#00A38D"/>
</svg>
