<svg width="20" height="20" viewBox="0 0 20 20" fill="none" xmlns="http://www.w3.org/2000/svg">
<path fill-rule="evenodd" clip-rule="evenodd" d="M14.2426 5.75736C11.8995 3.41421 8.10051 3.41421 5.75736 5.75736C3.41421 8.10051 3.41421 11.8995 5.75736 14.2426C8.10051 16.5858 11.8995 16.5858 14.2426 14.2426C16.5858 11.8995 16.5858 8.10051 14.2426 5.75736ZM11.9285 8.07153C12.1415 8.28454 12.1415 8.6299 11.9285 8.84292L9.77407 10.9973H11.5428C11.844 10.9973 12.0882 11.2415 12.0882 11.5428C12.0882 11.844 11.844 12.0882 11.5428 12.0882H8.45722C8.15598 12.0882 7.91177 11.844 7.91177 11.5428V8.45722C7.91177 8.15598 8.15598 7.91177 8.45722 7.91177C8.75847 7.91177 9.00268 8.15598 9.00268 8.45722V10.2259L11.1571 8.07153C11.3701 7.85851 11.7155 7.85851 11.9285 8.07153Z" fill="#1FC16B"/>
</svg>
