<svg width="21" height="20" viewBox="0 0 21 20" fill="none" xmlns="http://www.w3.org/2000/svg">
<path d="M15.6589 4.34511C14.21 2.89514 12.2105 2 10.0001 2C5.58183 2 2.0001 5.58172 2.0001 10C2.0001 14.4183 5.58183 18 10.0001 18C13.6458 18 16.7244 15.5605 17.6875 12.2227C17.8407 11.6921 18.395 11.3861 18.9256 11.5392C19.4562 11.6923 19.7623 12.2466 19.6091 12.7773C18.4056 16.9481 14.5606 20 10.0001 20C4.47726 20 0.000102997 15.5228 0.000102997 10C0.000102997 4.47715 4.47726 0 10.0001 0C12.7625 0 15.2649 1.12139 17.0736 2.93138C17.7097 3.56789 18.3942 4.35772 19 5.09434V2C19 1.44772 19.4477 1 20 1C20.5523 1 21 1.44772 21 2V8C21 8.55228 20.5523 9 20 9H14C13.4477 9 13 8.55228 13 8C13 7.44772 13.4477 7 14 7H17.9693C17.2852 6.14144 16.4232 5.10987 15.6589 4.34511Z" fill="#00A38D"/>
</svg>
