<svg width="20" height="20" viewBox="0 0 20 20" fill="none" xmlns="http://www.w3.org/2000/svg">
<rect width="20" height="20" rx="6" fill="#F5F5F5"/>
<rect width="12" height="12" rx="6" transform="matrix(1 0 0 -1 4 16)" fill="#9B47FF"/>
<path fill-rule="evenodd" clip-rule="evenodd" d="M9.02298 8.98851C9.02298 7.89029 9.91326 7 11.0115 7C11.2455 7 11.4706 7.04053 11.6798 7.11518C11.7716 7.14791 11.8401 7.22535 11.8615 7.32037C11.8829 7.41539 11.8541 7.51474 11.7852 7.58361L11.1479 8.2277C11.0575 8.31905 11.0123 8.36472 10.991 8.41532C10.9612 8.4863 10.9614 8.56636 10.9916 8.63716C11.0132 8.68764 11.0587 8.73306 11.1496 8.82389C11.2407 8.9149 11.2862 8.9604 11.3368 8.98194C11.4077 9.01216 11.4879 9.01224 11.5589 8.98217C11.6095 8.96073 11.6551 8.91532 11.7464 8.8245L12.4009 8.17314C12.4689 8.10521 12.5665 8.07621 12.6605 8.09607C12.7545 8.11593 12.8321 8.18195 12.8667 8.27156C12.9529 8.49436 13 8.73627 13 8.98851C13 10.0867 12.1097 10.977 11.0115 10.977C10.8492 10.977 10.691 10.9575 10.5394 10.9206C10.4675 10.9031 10.4221 10.8921 10.3889 10.8854C10.3827 10.8841 10.3777 10.8832 10.3737 10.8825C10.3726 10.8834 10.3714 10.8845 10.3702 10.8856C10.3525 10.9016 10.3294 10.9246 10.2885 10.9655L8.51366 12.7403C8.16739 13.0866 7.60597 13.0866 7.2597 12.7403C6.91343 12.394 6.91343 11.8326 7.2597 11.4863L9.03454 9.7115C9.07539 9.67065 9.09843 9.64749 9.11437 9.62983C9.11881 9.62492 9.11628 9.61942 9.11462 9.61114C9.10794 9.57792 9.09693 9.53247 9.07941 9.46058C9.04248 9.30897 9.02298 9.15083 9.02298 8.98851Z" fill="white"/>
</svg>
