<svg width="68" height="68" viewBox="0 0 68 68" fill="none" xmlns="http://www.w3.org/2000/svg">
<rect width="68" height="68" rx="34" fill="#F7F7F7"/>
<path fill-rule="evenodd" clip-rule="evenodd" d="M33.3327 20.667C26.3371 20.667 20.666 26.3381 20.666 33.3337C20.666 40.3293 26.3371 46.0003 33.3327 46.0003C36.3502 46.0003 39.1213 44.9452 41.2971 43.1837L45.0565 46.9431C45.5772 47.4638 46.4215 47.4638 46.9422 46.9431C47.4629 46.4224 47.4629 45.5782 46.9422 45.0575L43.1827 41.2981C44.9442 39.1223 45.9993 36.3512 45.9993 33.3337C45.9993 26.3381 40.3283 20.667 33.3327 20.667ZM23.3327 33.3337C23.3327 27.8108 27.8098 23.3337 33.3327 23.3337C38.8555 23.3337 43.3327 27.8108 43.3327 33.3337C43.3327 38.8565 38.8555 43.3337 33.3327 43.3337C27.8098 43.3337 23.3327 38.8565 23.3327 33.3337Z" fill="#00A38D"/>
</svg>
