<svg width="20" height="21" viewBox="0 0 20 21" fill="none" xmlns="http://www.w3.org/2000/svg">
<path d="M10 13.2C11.4912 13.2 12.7 11.9912 12.7 10.5C12.7 9.00883 11.4912 7.8 10 7.8C8.50883 7.8 7.3 9.00883 7.3 10.5C7.3 11.9912 8.50883 13.2 10 13.2Z" stroke="black" stroke-width="2" stroke-linecap="round" stroke-linejoin="round"/>
<path d="M16.0545 12.9545C15.9456 13.2013 15.9131 13.4751 15.9613 13.7405C16.0094 14.0059 16.1359 14.2508 16.3245 14.4436L16.3736 14.4927C16.5258 14.6447 16.6465 14.8252 16.7288 15.0238C16.8112 15.2225 16.8536 15.4354 16.8536 15.6505C16.8536 15.8655 16.8112 16.0784 16.7288 16.2771C16.6465 16.4757 16.5258 16.6562 16.3736 16.8082C16.2217 16.9603 16.0412 17.081 15.8425 17.1634C15.6439 17.2457 15.431 17.2881 15.2159 17.2881C15.0009 17.2881 14.7879 17.2457 14.5893 17.1634C14.3906 17.081 14.2102 16.9603 14.0582 16.8082L14.0091 16.7591C13.8163 16.5705 13.5714 16.4439 13.3059 16.3958C13.0405 16.3477 12.7668 16.3802 12.52 16.4891C12.278 16.5928 12.0716 16.765 11.9263 16.9845C11.7809 17.204 11.7029 17.4613 11.7018 17.7245V17.8636C11.7018 18.2976 11.5294 18.7138 11.2225 19.0207C10.9157 19.3276 10.4994 19.5 10.0655 19.5C9.63146 19.5 9.21525 19.3276 8.90837 19.0207C8.60149 18.7138 8.42909 18.2976 8.42909 17.8636V17.79C8.42276 17.5192 8.3351 17.2565 8.17751 17.0362C8.01992 16.8159 7.79969 16.648 7.54545 16.5545C7.29868 16.4456 7.02493 16.4131 6.75952 16.4613C6.4941 16.5094 6.24919 16.6359 6.05636 16.8245L6.00727 16.8736C5.8553 17.0258 5.67483 17.1465 5.47617 17.2288C5.27752 17.3112 5.06459 17.3536 4.84955 17.3536C4.6345 17.3536 4.42157 17.3112 4.22292 17.2288C4.02426 17.1465 3.84379 17.0258 3.69182 16.8736C3.53967 16.7217 3.41898 16.5412 3.33663 16.3425C3.25428 16.1439 3.21189 15.931 3.21189 15.7159C3.21189 15.5009 3.25428 15.2879 3.33663 15.0893C3.41898 14.8906 3.53967 14.7102 3.69182 14.5582L3.74091 14.5091C3.92953 14.3163 4.05606 14.0714 4.10419 13.8059C4.15231 13.5405 4.11982 13.2668 4.01091 13.02C3.90719 12.778 3.73498 12.5716 3.51547 12.4263C3.29596 12.2809 3.03873 12.2029 2.77545 12.2018H2.63636C2.20237 12.2018 1.78616 12.0294 1.47928 11.7225C1.1724 11.4157 1 10.9994 1 10.5655C1 10.1315 1.1724 9.71525 1.47928 9.40837C1.78616 9.10149 2.20237 8.92909 2.63636 8.92909H2.71C2.98081 8.92276 3.24346 8.8351 3.46379 8.67751C3.68412 8.51992 3.85195 8.29969 3.94545 8.04545C4.05437 7.79868 4.08686 7.52493 4.03873 7.25952C3.99061 6.9941 3.86408 6.74919 3.67545 6.55636L3.62636 6.50727C3.47422 6.3553 3.35352 6.17483 3.27118 5.97617C3.18883 5.77752 3.14644 5.56459 3.14644 5.34955C3.14644 5.1345 3.18883 4.92157 3.27118 4.72292C3.35352 4.52426 3.47422 4.34379 3.62636 4.19182C3.77834 4.03967 3.95881 3.91898 4.15746 3.83663C4.35611 3.75428 4.56905 3.71189 4.78409 3.71189C4.99913 3.71189 5.21207 3.75428 5.41072 3.83663C5.60937 3.91898 5.78984 4.03967 5.94182 4.19182L5.99091 4.24091C6.18374 4.42953 6.42865 4.55606 6.69406 4.60419C6.95948 4.65231 7.23322 4.61982 7.48 4.51091H7.54545C7.78745 4.40719 7.99383 4.23498 8.1392 4.01547C8.28457 3.79596 8.36259 3.53873 8.36364 3.27545V3.13636C8.36364 2.70237 8.53604 2.28616 8.84292 1.97928C9.14979 1.6724 9.56601 1.5 10 1.5C10.434 1.5 10.8502 1.6724 11.1571 1.97928C11.464 2.28616 11.6364 2.70237 11.6364 3.13636V3.21C11.6374 3.47328 11.7154 3.73051 11.8608 3.95002C12.0062 4.16953 12.2126 4.34174 12.4545 4.44545C12.7013 4.55437 12.9751 4.58686 13.2405 4.53873C13.5059 4.49061 13.7508 4.36408 13.9436 4.17545L13.9927 4.12636C14.1447 3.97422 14.3252 3.85352 14.5238 3.77118C14.7225 3.68883 14.9354 3.64644 15.1505 3.64644C15.3655 3.64644 15.5784 3.68883 15.7771 3.77118C15.9757 3.85352 16.1562 3.97422 16.3082 4.12636C16.4603 4.27834 16.581 4.45881 16.6634 4.65746C16.7457 4.85611 16.7881 5.06905 16.7881 5.28409C16.7881 5.49913 16.7457 5.71207 16.6634 5.91072C16.581 6.10937 16.4603 6.28984 16.3082 6.44182L16.2591 6.49091C16.0705 6.68374 15.9439 6.92865 15.8958 7.19406C15.8477 7.45948 15.8802 7.73322 15.9891 7.98V8.04545C16.0928 8.28745 16.265 8.49383 16.4845 8.6392C16.704 8.78457 16.9613 8.86259 17.2245 8.86364H17.3636C17.7976 8.86364 18.2138 9.03604 18.5207 9.34292C18.8276 9.64979 19 10.066 19 10.5C19 10.934 18.8276 11.3502 18.5207 11.6571C18.2138 11.964 17.7976 12.1364 17.3636 12.1364H17.29C17.0267 12.1374 16.7695 12.2154 16.55 12.3608C16.3305 12.5062 16.1583 12.7126 16.0545 12.9545Z" stroke="black" stroke-width="2" stroke-linecap="round" stroke-linejoin="round"/>
</svg>
