<svg width="20" height="20" viewBox="0 0 20 20" fill="none" xmlns="http://www.w3.org/2000/svg">
<g clip-path="url(#clip0_173213_23464)">
<path d="M10.682 3.18188C10.682 3.00106 10.6097 2.82717 10.4818 2.6993C10.354 2.57164 10.1807 2.49992 10 2.49992C9.81937 2.49992 9.6461 2.57164 9.51827 2.6993C9.3904 2.82717 9.31807 3.00106 9.31807 3.18188V3.31372C9.31645 3.71985 9.19637 4.11682 8.97221 4.45548C8.74791 4.79417 8.42922 5.06039 8.05587 5.22046C7.98902 5.24911 7.91835 5.26703 7.84672 5.27742C7.50838 5.39523 7.14478 5.42468 6.7904 5.36043C6.38082 5.28617 6.00237 5.09162 5.70479 4.80054L5.69828 4.79403L5.65352 4.74845L5.65271 4.74764C5.58944 4.68436 5.51402 4.63461 5.43136 4.60034C5.3486 4.56605 5.25971 4.54826 5.17013 4.54826C5.08069 4.54831 4.99233 4.56611 4.90971 4.60034C4.82705 4.6346 4.75162 4.68437 4.68835 4.74764L4.68754 4.74845C4.62416 4.81176 4.57374 4.88706 4.53943 4.96981C4.50512 5.05258 4.48734 5.14144 4.48734 5.23104C4.48735 5.32062 4.50512 5.40952 4.53943 5.49227C4.56521 5.55442 4.60019 5.61219 4.64278 5.66398L4.68754 5.71362L4.73962 5.76571C5.03064 6.06321 5.22603 6.44102 5.30033 6.8505C5.3746 7.26009 5.32437 7.68305 5.15629 8.06388L5.15548 8.06307C5.0081 8.43465 4.75854 8.75698 4.43282 8.98999C4.0929 9.23311 3.68769 9.36833 3.2699 9.37817C3.26351 9.37832 3.25675 9.37898 3.25037 9.37899H3.18201C3.00118 9.37899 2.82729 9.4505 2.69942 9.57837C2.57173 9.70613 2.50014 9.87951 2.50004 10.0601C2.50004 10.2409 2.57163 10.4149 2.69942 10.5427C2.82729 10.6706 3.00118 10.7421 3.18201 10.7421H3.31384C3.72005 10.7437 4.1169 10.8645 4.45561 11.0888C4.79187 11.3115 5.05609 11.6271 5.21651 11.997H5.21733C5.38529 12.3777 5.43479 12.8001 5.36055 13.2096C5.28629 13.6191 5.09174 13.9976 4.80066 14.2952L4.79415 14.3017L4.74858 14.3464L4.74776 14.3472C4.68448 14.4105 4.63473 14.4859 4.60046 14.5686C4.56617 14.6514 4.54838 14.7403 4.54838 14.8298C4.54843 14.9193 4.56623 15.0076 4.60046 15.0902C4.63473 15.1729 4.6845 15.2483 4.74776 15.3116L4.74858 15.3124C4.81188 15.3758 4.88718 15.4262 4.96993 15.4605C5.0527 15.4948 5.14156 15.5126 5.23116 15.5126C5.32074 15.5126 5.40964 15.4948 5.49239 15.4605C5.5751 15.4262 5.65046 15.3758 5.71374 15.3124L5.76583 15.2603C6.06333 14.9693 6.44114 14.7739 6.85063 14.6996C7.26021 14.6254 7.68317 14.6756 8.064 14.8437H8.06319C8.4349 14.991 8.75705 15.2413 8.99011 15.5671C9.23323 15.9071 9.36845 16.3123 9.37829 16.7301C9.37844 16.7364 9.37911 16.7432 9.37911 16.7496V16.818C9.37911 16.9988 9.45062 17.1727 9.57849 17.3005C9.70625 17.4282 9.87964 17.4998 10.0603 17.4999C10.241 17.4999 10.415 17.4283 10.5428 17.3005C10.6707 17.1727 10.7422 16.9988 10.7422 16.818V16.6861C10.7438 16.2799 10.8647 15.8831 11.0889 15.5444C11.3117 15.208 11.6271 14.943 11.9971 14.7826L12.1412 14.7257C12.4828 14.6044 12.8511 14.5744 13.2097 14.6394C13.5681 14.7044 13.9024 14.8617 14.1797 15.0951L14.2953 15.1993L14.3018 15.2058L14.3466 15.2514L14.3474 15.2522C14.4106 15.3155 14.4861 15.3652 14.5687 15.3995C14.6515 15.4338 14.7404 15.4516 14.83 15.4516C14.9194 15.4515 15.0078 15.4337 15.0904 15.3995C15.173 15.3652 15.2485 15.3155 15.3117 15.2522L15.3125 15.2514C15.3759 15.1881 15.4263 15.1128 15.4607 15.03C15.495 14.9473 15.5127 14.8584 15.5127 14.7688C15.5127 14.6792 15.495 14.5903 15.4607 14.5076C15.4349 14.4454 15.3999 14.3876 15.3573 14.3359L15.3125 14.2862L15.2605 14.2341C14.9694 13.9366 14.7741 13.5588 14.6997 13.1493C14.6348 12.791 14.6648 12.4224 14.786 12.0808L14.8438 11.936C15.0042 11.5661 15.2685 11.2504 15.6047 11.0278C15.9433 10.8035 16.3403 10.6836 16.7465 10.6819H16.8181C16.9989 10.6819 17.1728 10.6096 17.3007 10.4817C17.4283 10.3539 17.5 10.1806 17.5 9.99992C17.5 9.81925 17.4283 9.64598 17.3007 9.51815C17.1728 9.39028 16.9989 9.31795 16.8181 9.31795H16.6862C16.2801 9.31633 15.8831 9.19625 15.5445 8.97209C15.2058 8.74779 14.9396 8.4291 14.7795 8.05574C14.7508 7.98887 14.7321 7.91827 14.7217 7.8466C14.604 7.50833 14.5753 7.14457 14.6395 6.79028C14.7138 6.38069 14.9083 6.00224 15.1994 5.70467L15.2059 5.69816L15.2515 5.6534L15.2523 5.65259C15.3156 5.58931 15.3653 5.5139 15.3996 5.43123C15.4339 5.34848 15.4517 5.25958 15.4517 5.17C15.4517 5.08057 15.4338 4.99221 15.3996 4.90959C15.3654 4.82694 15.3156 4.7515 15.2523 4.68823L15.2515 4.68742C15.1882 4.62404 15.1129 4.57362 15.0302 4.53931C14.9474 4.50499 14.8585 4.48722 14.7689 4.48722C14.6793 4.48723 14.5904 4.505 14.5077 4.53931C14.4455 4.56509 14.3878 4.60007 14.336 4.64266L14.2863 4.68742L14.2343 4.7395C13.9367 5.03052 13.5589 5.22591 13.1495 5.30021C12.7399 5.37448 12.3169 5.32424 11.9361 5.15617V5.15535C11.5664 4.99492 11.2505 4.73137 11.0279 4.39526C10.8036 4.05662 10.6837 3.65965 10.682 3.2535V3.18188ZM11.6667 9.99992C11.6667 9.07944 10.9205 8.33325 10 8.33325C9.07957 8.33325 8.33337 9.07944 8.33337 9.99992C8.33337 10.9204 9.07957 11.6666 10 11.6666C10.9205 11.6666 11.6667 10.9204 11.6667 9.99992ZM13.3334 9.99992C13.3334 11.8409 11.841 13.3333 10 13.3333C8.15909 13.3333 6.66671 11.8409 6.66671 9.99992C6.66671 8.15897 8.15909 6.66658 10 6.66658C11.841 6.66658 13.3334 8.15897 13.3334 9.99992ZM12.3487 3.24699L12.3536 3.30721C12.3626 3.36689 12.3843 3.42412 12.4178 3.47485C12.4627 3.54257 12.5263 3.59583 12.601 3.62785L12.6091 3.6311C12.6852 3.66469 12.7698 3.67519 12.8516 3.6604C12.9335 3.64555 13.0094 3.60631 13.0689 3.5481L13.1079 3.50903C13.326 3.29091 13.5848 3.11769 13.8697 2.99959C14.1547 2.88143 14.4603 2.82056 14.7689 2.82056C15.0775 2.82056 15.3831 2.88145 15.6682 2.99959C15.953 3.11768 16.2119 3.29094 16.4299 3.50903L16.5853 3.67993C16.7315 3.85801 16.8507 4.05714 16.9393 4.27075C17.0575 4.55574 17.1183 4.8615 17.1184 5.17C17.1184 5.47863 17.0575 5.78496 16.9393 6.07007C16.8507 6.28367 16.7315 6.48282 16.5853 6.66089L16.4299 6.83179L16.3851 6.87736C16.3305 6.93575 16.2937 7.00851 16.2793 7.08732C16.2645 7.16915 16.2743 7.25374 16.3078 7.32983C16.3284 7.37646 16.3433 7.42536 16.355 7.47469C16.3846 7.51656 16.4209 7.5535 16.4641 7.58211C16.5318 7.62698 16.6115 7.65096 16.6927 7.65129H16.8181C17.4409 7.65129 18.0386 7.89857 18.479 8.33895C18.9195 8.77937 19.1667 9.37706 19.1667 9.99992C19.1667 10.6228 18.9195 11.2205 18.479 11.6609C18.0386 12.1013 17.4409 12.3486 16.8181 12.3486H16.753L16.6927 12.3534C16.6331 12.3625 16.5758 12.3841 16.5251 12.4177C16.4574 12.4626 16.4041 12.5262 16.3721 12.6008L16.3689 12.609C16.3353 12.6851 16.3248 12.7696 16.3396 12.8515C16.3544 12.9334 16.3936 13.0093 16.4519 13.0688L16.4901 13.107C16.7085 13.3251 16.8822 13.5844 17.0004 13.8695C17.1185 14.1546 17.1794 14.4602 17.1794 14.7688C17.1794 15.0774 17.1185 15.383 17.0004 15.668C16.8823 15.9529 16.7082 16.211 16.4901 16.429L16.4909 16.4298C16.2729 16.648 16.0141 16.821 15.7292 16.9392C15.4442 17.0573 15.1385 17.1182 14.83 17.1182C14.5213 17.1182 14.215 17.0574 13.9299 16.9392C13.7163 16.8506 13.5171 16.7314 13.3391 16.5852L13.1682 16.4298L13.1226 16.385H13.1218C13.0635 16.3306 12.9913 16.2935 12.9126 16.2792C12.8308 16.2644 12.7462 16.2742 12.6701 16.3077L12.662 16.3118V16.311C12.5873 16.343 12.5229 16.3962 12.4781 16.4639C12.4332 16.5317 12.4092 16.6114 12.4089 16.6926V16.818C12.4089 17.4408 12.1617 18.0385 11.7212 18.4789C11.2808 18.9193 10.6831 19.1666 10.0603 19.1666C9.43761 19.1665 8.84043 18.9192 8.4001 18.4789C7.95968 18.0385 7.71244 17.4408 7.71244 16.818V16.7691L7.70593 16.7073C7.69521 16.6461 7.67158 16.5873 7.63513 16.5364C7.58654 16.4685 7.51818 16.4171 7.43982 16.3883C7.42343 16.3822 7.40697 16.3758 7.39099 16.3687C7.3149 16.3351 7.23033 16.3246 7.14848 16.3394C7.06656 16.3543 6.99071 16.3935 6.93119 16.4517L6.89213 16.4908C6.67412 16.7089 6.4153 16.8821 6.13041 17.0002C5.84534 17.1184 5.53974 17.1793 5.23116 17.1793C4.92259 17.1793 4.61697 17.1184 4.33191 17.0002C4.04681 16.8821 3.78749 16.7083 3.56938 16.49V16.4892C3.35174 16.2714 3.17869 16.0135 3.06075 15.7291C2.94261 15.4441 2.88176 15.1383 2.88171 14.8298C2.88171 14.5212 2.94256 14.2149 3.06075 13.9298C3.17892 13.6449 3.35198 13.386 3.57019 13.168L3.61495 13.1225C3.66961 13.0641 3.7064 12.9913 3.72074 12.9125C3.73558 12.8307 3.72578 12.7461 3.69226 12.67L3.68819 12.6619V12.661C3.65616 12.5866 3.60357 12.5227 3.53601 12.4779C3.48514 12.4443 3.42741 12.4226 3.36755 12.4137L3.30733 12.4088H3.18201C2.55915 12.4088 1.96146 12.1615 1.52104 11.7211C1.08068 11.2807 0.833374 10.6829 0.833374 10.0601C0.833476 9.43749 1.08079 8.84031 1.52104 8.39998C1.96146 7.95956 2.55915 7.71232 3.18201 7.71232H3.23083C3.31432 7.71031 3.39566 7.68359 3.46358 7.63501C3.5315 7.58641 3.58283 7.51806 3.61169 7.4397L3.63123 7.39087C3.66481 7.31477 3.67532 7.2302 3.66052 7.14836C3.64567 7.06644 3.60643 6.99058 3.54822 6.93107L3.50916 6.89201V6.89119C3.29122 6.67327 3.11774 6.415 2.99971 6.13029C2.88155 5.84522 2.82069 5.53962 2.82068 5.23104C2.82068 4.92247 2.88157 4.61684 2.99971 4.33179C3.1179 4.04669 3.29161 3.78737 3.50997 3.56925C3.7278 3.35143 3.98632 3.17864 4.27087 3.06063C4.55586 2.94249 4.86162 2.88164 5.17013 2.88159C5.47875 2.88159 5.78509 2.94244 6.07019 3.06063C6.35509 3.1788 6.61392 3.35186 6.83191 3.57007L6.87585 3.6132C6.93452 3.66873 7.00787 3.70614 7.08744 3.72062C7.16927 3.73546 7.25386 3.72566 7.32996 3.69214L7.41134 3.66121C7.43222 3.65449 7.45349 3.64917 7.47481 3.64412C7.51652 3.61457 7.55371 3.5789 7.58223 3.53589C7.6265 3.46905 7.65046 3.39059 7.65141 3.31047V3.18188C7.65141 2.55906 7.89869 1.96133 8.33907 1.52091C8.7795 1.08049 9.37718 0.833252 10 0.833252C10.6229 0.833252 11.2206 1.08049 11.661 1.52091C12.1014 1.96133 12.3487 2.55906 12.3487 3.18188V3.24699Z" fill="#00A38D"/>
</g>
<defs>
<clipPath id="clip0_173213_23464">
<rect width="20" height="20" fill="white"/>
</clipPath>
</defs>
</svg>
