<svg width="22" height="22" viewBox="0 0 22 22" fill="none" xmlns="http://www.w3.org/2000/svg">
<path d="M20 11C20 6.02944 15.9706 2 11 2C6.02944 2 2 6.02944 2 11C2 15.9706 6.02944 20 11 20C15.9706 20 20 15.9706 20 11ZM13.5 8.33301C13.4998 7.59689 12.9031 7.00018 12.167 7H10C9.17157 7 8.5 7.67157 8.5 8.5C8.5 9.32843 9.17157 10 10 10H12C13.933 10 15.5 11.567 15.5 13.5C15.5 15.433 13.933 17 12 17V17.5C12 18.0523 11.5523 18.5 11 18.5C10.4477 18.5 10 18.0523 10 17.5V17H9.83301C7.99232 16.9998 6.50018 15.5077 6.5 13.667C6.5 13.1147 6.94772 12.667 7.5 12.667C8.05229 12.667 8.5 13.1147 8.5 13.667C8.50018 14.4031 9.09689 14.9998 9.83301 15H12C12.8284 15 13.5 14.3284 13.5 13.5C13.5 12.6716 12.8284 12 12 12H10C8.067 12 6.5 10.433 6.5 8.5C6.5 6.567 8.067 5 10 5V4.5C10 3.94772 10.4477 3.5 11 3.5C11.5523 3.5 12 3.94772 12 4.5V5H12.167C14.0077 5.00018 15.4998 6.49232 15.5 8.33301C15.5 8.88529 15.0523 9.33301 14.5 9.33301C13.9477 9.33301 13.5 8.88529 13.5 8.33301ZM22 11C22 17.0751 17.0751 22 11 22C4.92487 22 0 17.0751 0 11C0 4.92487 4.92487 0 11 0C17.0751 0 22 4.92487 22 11Z" fill="#00A38D"/>
</svg>
