<svg width="15" height="16" viewBox="0 0 15 16" fill="none" xmlns="http://www.w3.org/2000/svg">
<path d="M12.5877 9.08557C12.7383 8.95645 12.8136 8.89189 12.8412 8.81507C12.8654 8.74764 12.8654 8.67389 12.8412 8.60646C12.8136 8.52963 12.7383 8.46508 12.5877 8.33596L7.36074 3.85574C7.10143 3.63348 6.97178 3.52235 6.86201 3.51963C6.76661 3.51726 6.67549 3.55917 6.6152 3.63314C6.54583 3.71826 6.54583 3.88902 6.54583 4.23054V6.88096C5.22861 7.1114 4.02305 7.77886 3.12716 8.78102C2.15043 9.87361 1.61014 11.2876 1.60938 12.7531V13.1307C2.25688 12.3507 3.06532 11.7198 3.97934 11.2814C4.78518 10.8948 5.65629 10.6658 6.54583 10.6055V13.191C6.54583 13.5325 6.54583 13.7033 6.6152 13.7884C6.67549 13.8624 6.76661 13.9043 6.86201 13.9019C6.97178 13.8992 7.10143 13.788 7.36074 13.5658L12.5877 9.08557Z" stroke="black" stroke-width="1.5" stroke-linecap="round" stroke-linejoin="round"/>
</svg>
