<svg width="12" height="12" viewBox="0 0 12 12" fill="none" xmlns="http://www.w3.org/2000/svg">
<path d="M9.35355 0.646447C9.15829 0.451184 8.84171 0.451184 8.64645 0.646447C8.45118 0.841709 8.45118 1.15829 8.64645 1.35355L10.6464 3.35355C10.8417 3.54882 11.1583 3.54882 11.3536 3.35355C11.5488 3.15829 11.5488 2.84171 11.3536 2.64645L9.35355 0.646447Z" fill="white"/>
<path d="M7.26825 2.14022C7.41888 2.09128 7.58114 2.09128 7.73177 2.14022C7.84809 2.17802 7.93239 2.24079 7.98793 2.28794C8.03585 2.32862 8.08613 2.37893 8.12822 2.42106L9.57891 3.87175C9.62104 3.91384 9.67135 3.96412 9.71204 4.01205C9.75918 4.06758 9.82196 4.15188 9.85975 4.2682C9.90869 4.41883 9.90869 4.58109 9.85975 4.73172C9.82196 4.84804 9.75918 4.93234 9.71204 4.98788C9.67134 5.03581 9.62102 5.08609 9.57889 5.1282L4.38515 10.3219C4.29181 10.4154 4.20943 10.4979 4.11399 10.5674C4.02999 10.6286 3.93987 10.6809 3.84506 10.7235C3.73732 10.7719 3.62484 10.8025 3.49739 10.8371L1.13157 11.4823C0.958464 11.5296 0.773333 11.4804 0.646458 11.3535C0.519583 11.2266 0.470419 11.0415 0.51763 10.8684L1.16284 8.50258C1.19752 8.37513 1.22812 8.26265 1.27649 8.15491C1.31906 8.06011 1.37136 7.96998 1.43255 7.88599C1.5021 7.79054 1.58458 7.70816 1.67803 7.61482L6.87179 2.42108C6.91389 2.37895 6.96416 2.32863 7.01209 2.28794C7.06763 2.24079 7.15193 2.17802 7.26825 2.14022Z" fill="white"/>
</svg>
