<svg width="15" height="16" viewBox="0 0 15 16" fill="none" xmlns="http://www.w3.org/2000/svg">
<path d="M5.76917 14.0113C5.92154 13.9003 6.05304 13.7686 6.20204 13.6195L12.7646 7.05684L8.44316 2.73535L1.88055 9.29795C1.73136 9.44696 1.59969 9.57846 1.48868 9.73083C1.39099 9.86491 1.3075 10.0088 1.23955 10.1601C1.16233 10.3321 1.11348 10.5117 1.05813 10.7151L0.0281431 14.4918C-0.0472216 14.7681 0.0312614 15.0637 0.233798 15.2662C0.436334 15.4687 0.731868 15.5472 1.0082 15.4719L4.78488 14.4419C4.98833 14.3865 5.16789 14.3377 5.33987 14.2605C5.49122 14.1925 5.63509 14.109 5.76917 14.0113Z" fill="#008C79"/>
<path fill-rule="evenodd" clip-rule="evenodd" d="M10.8045 0.558598C11.0449 0.480467 11.304 0.480467 11.5444 0.558598C11.7301 0.61893 11.8647 0.719137 11.9533 0.7944C12.0298 0.859346 12.1101 0.939663 12.1773 1.00691L14.4931 3.32271C14.5603 3.38991 14.6406 3.47017 14.7056 3.54667C14.7809 3.63533 14.8811 3.7699 14.9414 3.95558C15.0195 4.19605 15.0195 4.45507 14.9414 4.69553C14.8811 4.88122 14.7809 5.01579 14.7056 5.10444C14.6406 5.18096 14.5603 5.26123 14.493 5.32844L13.6229 6.19855L9.30145 1.87706L10.1716 1.00694C10.2388 0.939681 10.319 0.859355 10.3956 0.7944C10.4842 0.719137 10.6188 0.61893 10.8045 0.558598Z" fill="#008C79"/>
</svg>
