<svg width="27" height="27" viewBox="0 0 27 27" fill="none" xmlns="http://www.w3.org/2000/svg">
<path d="M24.0142 24.405H14.4946M2 25L8.60338 22.4602C9.02575 22.2978 9.23693 22.2166 9.43451 22.1105C9.61001 22.0163 9.77731 21.9076 9.93467 21.7855C10.1118 21.648 10.2718 21.488 10.5918 21.168L24.0142 7.74562C25.3286 6.43123 25.3286 4.30018 24.0142 2.98579C22.6998 1.6714 20.5688 1.6714 19.2544 2.98579L5.83199 16.4082C5.51201 16.7282 5.35201 16.8882 5.21454 17.0653C5.09242 17.2227 4.9837 17.39 4.88949 17.5655C4.78343 17.7631 4.70221 17.9742 4.53976 18.3966L2 25ZM2 25L4.44907 18.6325C4.62432 18.1768 4.71195 17.949 4.86225 17.8446C4.9936 17.7534 5.15612 17.719 5.31319 17.749C5.49292 17.7833 5.66552 17.9559 6.01073 18.3011L8.69894 20.9893C9.04415 21.3345 9.21675 21.5071 9.25107 21.6868C9.28107 21.8439 9.24658 22.0064 9.15538 22.1378C9.05102 22.2881 8.82319 22.3757 8.36754 22.551L2 25Z" stroke="#008C79" stroke-width="2.875" stroke-linecap="round" stroke-linejoin="round"/>
</svg>
