<svg width="13" height="13" viewBox="0 0 13 13" fill="none" xmlns="http://www.w3.org/2000/svg">
<path fill-rule="evenodd" clip-rule="evenodd" d="M6.41667 0C2.87284 0 0 2.87284 0 6.41667C0 9.9605 2.87284 12.8333 6.41667 12.8333C9.9605 12.8333 12.8333 9.9605 12.8333 6.41667C12.8333 2.87284 9.9605 0 6.41667 0ZM9.45415 5.07915C9.68195 4.85134 9.68195 4.48199 9.45415 4.25419C9.22634 4.02638 8.85699 4.02638 8.62919 4.25419L5.54167 7.34171L4.20415 6.00419C3.97634 5.77638 3.60699 5.77638 3.37919 6.00419C3.15138 6.23199 3.15138 6.60134 3.37919 6.82915L5.12919 8.57915C5.35699 8.80695 5.72634 8.80695 5.95415 8.57915L9.45415 5.07915Z" fill="#1FC16B"/>
</svg>
