<svg width="341" height="364" viewBox="0 0 341 364" fill="none" xmlns="http://www.w3.org/2000/svg">
<path d="M159.583 410.313C285.401 456.107 424.519 391.235 470.313 265.417C499.338 185.674 483.907 100.589 436.681 37.3066L416.628 92.4021C440.914 139.368 446.241 195.953 426.732 249.555C389.698 351.303 277.194 403.765 175.445 366.732C169.431 364.542 163.588 362.09 157.927 359.391L213.793 205.898H254.175L219.231 301.905L299.919 302.109L407.973 5.23434C384.835 -16.3853 357.052 -33.7991 325.418 -45.3134C199.599 -91.1074 60.4807 -26.2355 14.6868 99.5828C-14.3375 179.326 1.09264 264.411 48.3185 327.693L68.3722 272.597C44.0863 225.632 38.759 169.046 58.2681 115.445C95.3019 13.6968 207.806 -38.7653 309.555 -1.73206C315.569 0.457493 321.412 2.91007 327.073 5.609L271.055 159.519H230.673L265.769 63.0943L185.081 62.8909L77.0265 359.765C100.165 381.385 127.948 398.799 159.583 410.313Z" fill="#008C79" fill-opacity="0.05"/>
</svg>
