<svg width="40" height="40" viewBox="0 0 40 40" fill="none" xmlns="http://www.w3.org/2000/svg">
<path d="M0 13C0 5.8203 5.8203 0 13 0H27C34.1797 0 40 5.8203 40 13V27C40 34.1797 34.1797 40 27 40H13C5.8203 40 0 34.1797 0 27V13Z" fill="#E0FAEC"/>
<path fill-rule="evenodd" clip-rule="evenodd" d="M20 8C13.3726 8 8 13.3726 8 20C8 26.6274 13.3726 32 20 32C26.6274 32 32 26.6274 32 20C32 13.3726 26.6274 8 20 8ZM25.6805 17.4987C26.1065 17.0726 26.1065 16.3819 25.6805 15.9559C25.2545 15.5299 24.5637 15.5299 24.1377 15.9559L18.3636 21.7299L15.8623 19.2286C15.4363 18.8026 14.7455 18.8026 14.3195 19.2286C13.8935 19.6546 13.8935 20.3454 14.3195 20.7714L17.5922 24.0441C18.0183 24.4701 18.709 24.4701 19.135 24.0441L25.6805 17.4987Z" fill="#1FC16B"/>
</svg>
