<svg width="20" height="20" viewBox="0 0 20 20" fill="none" xmlns="http://www.w3.org/2000/svg">
<g clip-path="url(#clip0_357_18507)">
<path d="M10.0001 1.66614V3.3328M10.0001 16.6661V18.3328M3.33341 9.99947H1.66675M5.26184 5.26123L4.08333 4.08272M14.7383 5.26123L15.9168 4.08272M5.26184 14.7411L4.08333 15.9196M14.7383 14.7411L15.9168 15.9196M18.3334 9.99947H16.6667M14.1667 9.99947C14.1667 12.3007 12.3013 14.1661 10.0001 14.1661C7.6989 14.1661 5.83341 12.3007 5.83341 9.99947C5.83341 7.69828 7.6989 5.8328 10.0001 5.8328C12.3013 5.8328 14.1667 7.69828 14.1667 9.99947Z" stroke="white" stroke-width="2" stroke-linecap="round" stroke-linejoin="round"/>
</g>
<defs>
<clipPath id="clip0_357_18507">
<rect width="20" height="20" fill="white" transform="translate(0 -0.000488281)"/>
</clipPath>
</defs>
</svg>
