<svg width="45" height="44" viewBox="0 0 45 44" fill="none" xmlns="http://www.w3.org/2000/svg">
<rect x="0.5" width="44" height="44" rx="22" fill="#00A38D"/>
<path d="M16.5002 30V16.4141L14.2072 18.707C13.8167 19.0976 13.1837 19.0976 12.7931 18.707C12.4026 18.3165 12.4026 17.6835 12.7931 17.293L16.7931 13.293L16.8693 13.2246C17.2621 12.9043 17.8411 12.9269 18.2072 13.293L22.2072 17.293C22.5977 17.6835 22.5977 18.3165 22.2072 18.707C21.8167 19.0976 21.1837 19.0976 20.7931 18.707L18.5002 16.4141V30C18.5002 30.5523 18.0525 31 17.5002 31C16.9479 31 16.5002 30.5523 16.5002 30ZM26.5002 14C26.5002 13.4477 26.9479 13 27.5002 13C28.0525 13 28.5002 13.4477 28.5002 14V27.5859L30.7931 25.293C31.1837 24.9024 31.8167 24.9024 32.2072 25.293C32.5977 25.6835 32.5977 26.3165 32.2072 26.707L28.2072 30.707C27.8167 31.0976 27.1837 31.0976 26.7931 30.707L22.7931 26.707C22.4026 26.3165 22.4026 25.6835 22.7931 25.293C23.1837 24.9024 23.8167 24.9024 24.2072 25.293L26.5002 27.5859V14Z" fill="white"/>
</svg>
