<svg width="53" height="52" viewBox="0 0 53 52" fill="none" xmlns="http://www.w3.org/2000/svg">
<rect x="0.5" y="0.5" width="52" height="51" rx="25.5" fill="white"/>
<rect x="0.5" y="0.5" width="52" height="51" rx="25.5" stroke="url(#paint0_linear_1_117243)"/>
<rect x="4.5" y="4" width="44" height="44" rx="22" fill="#00A38D"/>
<path d="M20.5002 34V20.4141L18.2072 22.707C17.8167 23.0976 17.1837 23.0976 16.7931 22.707C16.4026 22.3165 16.4026 21.6835 16.7931 21.293L20.7931 17.293L20.8693 17.2246C21.2621 16.9043 21.8411 16.9269 22.2072 17.293L26.2072 21.293C26.5977 21.6835 26.5977 22.3165 26.2072 22.707C25.8167 23.0976 25.1837 23.0976 24.7931 22.707L22.5002 20.4141V34C22.5002 34.5523 22.0525 35 21.5002 35C20.9479 35 20.5002 34.5523 20.5002 34ZM30.5002 18C30.5002 17.4477 30.9479 17 31.5002 17C32.0525 17 32.5002 17.4477 32.5002 18V31.5859L34.7931 29.293C35.1837 28.9024 35.8167 28.9024 36.2072 29.293C36.5977 29.6835 36.5977 30.3165 36.2072 30.707L32.2072 34.707C31.8167 35.0976 31.1837 35.0976 30.7931 34.707L26.7931 30.707C26.4026 30.3165 26.4026 29.6835 26.7931 29.293C27.1837 28.9024 27.8167 28.9024 28.2072 29.293L30.5002 31.5859V18Z" fill="white"/>
<defs>
<linearGradient id="paint0_linear_1_117243" x1="26.5" y1="0" x2="26.5" y2="52" gradientUnits="userSpaceOnUse">
<stop stop-color="#EBEBEB"/>
<stop offset="0.299064" stop-color="#EBEBEB"/>
<stop offset="0.310904" stop-color="white"/>
<stop offset="0.691626" stop-color="white"/>
<stop offset="0.694464" stop-color="#EBEBEB"/>
<stop offset="1" stop-color="#EBEBEB"/>
</linearGradient>
</defs>
</svg>
