<svg width="48" height="48" viewBox="0 0 48 48" fill="none" xmlns="http://www.w3.org/2000/svg">
<rect width="48" height="48" rx="24" fill="#F5F5F5"/>
<path fill-rule="evenodd" clip-rule="evenodd" d="M17.5312 23.1659C21.5577 21.4724 24.2427 20.356 25.5861 19.8166C29.4219 18.2765 30.2189 18.0089 30.7384 18.0001C30.8527 17.9982 31.1082 18.0255 31.2737 18.1551C31.4134 18.2646 31.4518 18.4124 31.4702 18.5162C31.4886 18.62 31.5115 18.8564 31.4933 19.0411C31.2855 21.1494 30.3861 26.2657 29.9285 28.6271C29.7349 29.6263 29.3536 29.9613 28.9845 29.9941C28.1824 30.0653 27.5734 29.4823 26.7965 28.9908C25.5809 28.2215 24.8941 27.7426 23.7141 26.992C22.3504 26.1245 23.2344 25.6477 24.0116 24.8685C24.215 24.6646 27.749 21.5615 27.8174 21.28C27.826 21.2448 27.8339 21.1136 27.7532 21.0443C27.6724 20.975 27.5532 20.9987 27.4672 21.0175C27.3453 21.0442 25.4033 22.2833 21.6411 24.7348C21.0899 25.1002 20.5906 25.2783 20.1433 25.2689C19.6501 25.2586 18.7015 24.9998 17.9962 24.7785C17.1312 24.507 16.4438 24.3635 16.5036 23.9026C16.5348 23.6625 16.8773 23.4169 17.5312 23.1659Z" fill="#00A38D"/>
</svg>
