<svg width="24" height="24" viewBox="0 0 24 24" fill="none" xmlns="http://www.w3.org/2000/svg">
<rect width="24" height="24" rx="12" fill="#2AABEE"/>
<path fill-rule="evenodd" clip-rule="evenodd" d="M5.81718 11.5281C8.84266 10.2599 12.502 8.45471 15.6732 7.23493C18.6008 6.15894 18.552 6.45239 18.1128 9.38152C17.7704 11.7237 17.3792 14.0655 16.9908 16.4077C16.8441 17.5297 16.2572 18.1151 15.0388 17.4348L11.2333 14.7512C10.6953 14.311 10.842 13.9686 11.2822 13.5314L14.7948 10.2135C15.7241 9.28419 15.2839 8.94477 14.208 9.67546L9.37772 12.9445C8.693 13.4336 7.96279 13.4336 7.18222 13.1891L5.52324 12.6022C4.44725 12.2109 5.27919 11.7702 5.81718 11.5281Z" fill="white"/>
</svg>
