<svg width="15" height="19" viewBox="0 0 15 19" fill="none" xmlns="http://www.w3.org/2000/svg">
<path d="M9.16634 1.39128V4.8334C9.16634 5.30011 9.16634 5.53346 9.25717 5.71172C9.33706 5.86853 9.46455 5.99601 9.62135 6.0759C9.79961 6.16673 10.033 6.16673 10.4997 6.16673H13.9418M9.16634 1.16667H4.83301C3.43288 1.16667 2.73281 1.16667 2.19803 1.43916C1.72763 1.67884 1.34517 2.06129 1.10549 2.5317C0.833008 3.06647 0.833008 3.76654 0.833008 5.16667V13.8333C0.833008 15.2335 0.833008 15.9335 1.10549 16.4683C1.34517 16.9387 1.72763 17.3212 2.19803 17.5609C2.73281 17.8333 3.43288 17.8333 4.83301 17.8333H10.1663C11.5665 17.8333 12.2665 17.8333 12.8013 17.5609C13.2717 17.3212 13.6542 16.9387 13.8939 16.4683C14.1663 15.9335 14.1663 15.2335 14.1663 13.8333V6.16667L9.16634 1.16667ZM7.49739 9.35883C6.83094 8.60134 5.71959 8.39758 4.88457 9.09121C4.04956 9.78485 3.932 10.9446 4.58774 11.765C5.24348 12.5853 7.49739 14.5 7.49739 14.5C7.49739 14.5 9.7513 12.5853 10.407 11.765C11.0628 10.9446 10.9596 9.77756 10.1102 9.09121C9.26084 8.40487 8.16384 8.60134 7.49739 9.35883Z" stroke="black" stroke-width="1.45833" stroke-linecap="round" stroke-linejoin="round"/>
</svg>
