<svg width="12" height="14" viewBox="0 0 12 14" fill="none" xmlns="http://www.w3.org/2000/svg">
<path d="M10.605 6.05C10.34 5.445 9.985 4.915 9.535 4.465C9.085 4.015 8.555 3.66 7.95 3.395C7.34 3.135 6.69 3 6 3C5.31 3 4.655 3.135 4.05 3.395C3.44 3.66 2.91 4.015 2.46 4.465C2.01 4.915 1.655 5.445 1.39 6.05C1.13 6.66 1 7.31 1 8C1 8.69 1.13 9.345 1.39 9.95C1.655 10.56 2.01 11.09 2.46 11.54C2.91 11.99 3.44 12.345 4.05 12.61C4.655 12.87 5.305 13 6 13C6.695 13 7.34 12.87 7.95 12.61C8.555 12.345 9.085 11.99 9.535 11.54C9.985 11.09 10.34 10.56 10.605 9.95C10.865 9.345 11 8.695 11 8C11 7.305 10.865 6.66 10.605 6.05ZM8 9.97C7.805 10.165 7.49 10.165 7.3 9.97L5.645 8.315C5.55 8.22 5.5 8.095 5.5 7.96V5.97C5.5 5.695 5.725 5.47 6 5.47C6.275 5.47 6.5 5.695 6.5 5.97V7.56C6.5 7.695 6.55 7.82 6.645 7.915L8 9.27C8.095 9.365 8.14 9.495 8.14 9.62C8.14 9.745 8.095 9.875 8 9.97Z" fill="#5C5C5C"/>
</svg>
