<svg width="18" height="20" viewBox="0 0 18 20" fill="none" xmlns="http://www.w3.org/2000/svg">
<path d="M13.9998 5.83332H3.99984V14.3335C3.99984 15.0471 4.00013 15.5323 4.03076 15.9074C4.06061 16.2727 4.11491 16.4598 4.18132 16.5902C4.34109 16.9037 4.59612 17.1587 4.90967 17.3185C5.04 17.3849 5.2271 17.4392 5.59245 17.4691C5.96748 17.4997 6.45268 17.5 7.16634 17.5H10.8333C11.547 17.5 12.0322 17.4997 12.4072 17.4691C12.7726 17.4392 12.9597 17.3849 13.09 17.3185C13.4036 17.1587 13.6586 16.9037 13.8184 16.5902C13.8848 16.4598 13.9391 16.2727 13.9689 15.9074C13.9995 15.5323 13.9998 15.0471 13.9998 14.3335V5.83332ZM6.49984 13.75V9.58332C6.49984 9.12308 6.87293 8.74998 7.33317 8.74998C7.79341 8.74998 8.1665 9.12308 8.1665 9.58332V13.75C8.1665 14.2102 7.79341 14.5833 7.33317 14.5833C6.87293 14.5833 6.49984 14.2102 6.49984 13.75ZM9.83317 13.75V9.58332C9.83317 9.12308 10.2063 8.74998 10.6665 8.74998C11.1267 8.74998 11.4998 9.12308 11.4998 9.58332V13.75C11.4998 14.2102 11.1267 14.5833 10.6665 14.5833C10.2063 14.5833 9.83317 14.2102 9.83317 13.75ZM8.33333 2.49998C7.85287 2.49998 7.54243 2.50104 7.30632 2.52033C7.07999 2.53883 6.99595 2.57014 6.95475 2.59113C6.79811 2.671 6.67085 2.79826 6.59098 2.9549C6.56999 2.9961 6.53868 3.08014 6.52018 3.30646C6.50322 3.51408 6.50102 3.77906 6.50065 4.16665H11.499C11.4987 3.77906 11.4965 3.51408 11.4795 3.30646C11.461 3.08014 11.4297 2.9961 11.4087 2.9549C11.3288 2.79826 11.2016 2.671 11.0449 2.59113C11.0037 2.57014 10.9197 2.53883 10.6934 2.52033C10.4572 2.50104 10.1468 2.49998 9.66634 2.49998H8.33333ZM15.6665 14.3335C15.6665 15.0197 15.6674 15.5846 15.6299 16.0433C15.5916 16.5117 15.5096 16.9426 15.3035 17.347C14.984 17.9741 14.4739 18.4841 13.8468 18.8037C13.4424 19.0098 13.0115 19.0918 12.5431 19.13C12.0845 19.1675 11.5196 19.1666 10.8333 19.1666H7.16634C6.4801 19.1666 5.91519 19.1675 5.45654 19.13C4.98816 19.0918 4.55725 19.0098 4.15283 18.8037C3.52574 18.4841 3.01568 17.9741 2.69613 17.347C2.49006 16.9426 2.40807 16.5117 2.36979 16.0433C2.33232 15.5846 2.33317 15.0197 2.33317 14.3335V5.83332H1.49984C1.0396 5.83332 0.666504 5.46022 0.666504 4.99998C0.666504 4.53975 1.0396 4.16665 1.49984 4.16665H4.83398C4.83422 3.78412 4.83554 3.45037 4.8584 3.17056C4.88532 2.84117 4.94517 2.51331 5.10579 2.19806C5.34544 1.72788 5.72773 1.34559 6.19792 1.10594C6.51316 0.945314 6.84103 0.88547 7.17041 0.858545C7.49014 0.832422 7.88037 0.833317 8.33333 0.833317H9.66634C10.1193 0.833317 10.5095 0.832422 10.8293 0.858545C11.1586 0.88547 11.4865 0.945314 11.8018 1.10594C12.2719 1.34559 12.6542 1.72788 12.8939 2.19806C13.0545 2.51331 13.1144 2.84117 13.1413 3.17056C13.1641 3.45037 13.1655 3.78412 13.1657 4.16665H16.4998C16.9601 4.16665 17.3332 4.53975 17.3332 4.99998C17.3332 5.46022 16.9601 5.83332 16.4998 5.83332H15.6665V14.3335Z" fill="#FF3B30"/>
</svg>
