<svg width="40" height="40" viewBox="0 0 40 40" fill="none" xmlns="http://www.w3.org/2000/svg">
  <path
    d="M10 0.75H20.5146C21.907 0.75 23.242 1.30354 24.2266 2.28809L33.7119 11.7734C34.6965 12.758 35.25 14.093 35.25 15.4854V34C35.25 36.8995 32.8995 39.25 30 39.25H10C7.10051 39.25 4.75 36.8995 4.75 34V6C4.75 3.10051 7.10051 0.75 10 0.75Z"
    fill="white" stroke="#D1D1D1" stroke-width="1.5"/>
  <path d="M23 1V9C23 11.2091 24.7909 13 27 13H35" stroke="#D1D1D1" stroke-width="1.5"/>
  <path
    d="M0 22C0 19.7909 1.79086 18 4 18H25C27.2091 18 29 19.7909 29 22V30C29 32.2091 27.2091 34 25 34H4C1.79086 34 0 32.2091 0 30V22Z"
    fill="#D1D1D1"/>
  <path
    d="M3.4375 23.2148V22H9.82031V23.2148H7.34766V30H5.91016V23.2148H3.4375ZM12.4817 22L14.2434 24.9297H14.3059L16.0755 22H17.7278L15.263 26L17.7669 30H16.0872L14.3059 27.0898H14.2434L12.4622 30H10.7903L13.3177 26L10.8216 22H12.4817ZM18.7339 23.2148V22H25.1168V23.2148H22.6441V30H21.2066V23.2148H18.7339Z"
    fill="#171717"/>
</svg>
