<svg width="96" height="96" viewBox="0 0 96 96" fill="none" xmlns="http://www.w3.org/2000/svg">
<path d="M0 48C0 21.4903 21.4903 0 48 0C74.5097 0 96 21.4903 96 48C96 74.5097 74.5097 96 48 96C21.4903 96 0 74.5097 0 48Z" fill="#F5F5F5"/>
<path fill-rule="evenodd" clip-rule="evenodd" d="M33.6971 58.5053C36.9854 54.1535 42.165 51.3335 48.0002 51.3335C53.8354 51.3335 59.0151 54.1535 62.3033 58.5053C62.3182 58.525 62.3331 58.5448 62.3481 58.5646C62.6308 58.9385 62.934 59.3394 63.1506 59.7261C63.4129 60.1943 63.6072 60.7358 63.5952 61.3944C63.5855 61.9239 63.4251 62.4195 63.2303 62.8108C63.0355 63.2022 62.7368 63.6289 62.3202 63.9558C61.7647 64.3918 61.1598 64.5461 60.6225 64.6105C60.1511 64.6671 59.5925 64.667 59.0308 64.6668C59.0055 64.6668 58.9802 64.6668 58.9549 64.6668H37.0456C37.0203 64.6668 36.995 64.6668 36.9697 64.6668C36.408 64.667 35.8494 64.6671 35.378 64.6105C34.8407 64.5461 34.2358 64.3918 33.6803 63.9558C33.2637 63.6289 32.965 63.2022 32.7702 62.8108C32.5754 62.4195 32.415 61.9239 32.4053 61.3944C32.3933 60.7358 32.5876 60.1943 32.8498 59.7261C33.0665 59.3394 33.3696 58.9385 33.6524 58.5646C33.6674 58.5448 33.6823 58.525 33.6971 58.5053Z" fill="#00A38D"/>
<path fill-rule="evenodd" clip-rule="evenodd" d="M38.8336 40.5002C38.8336 35.4376 42.9376 31.3335 48.0002 31.3335C53.0629 31.3335 57.1669 35.4376 57.1669 40.5002C57.1669 45.5628 53.0629 49.6668 48.0002 49.6668C42.9376 49.6668 38.8336 45.5628 38.8336 40.5002Z" fill="#00A38D"/>
</svg>
