<svg width="23" height="20" viewBox="0 0 23 20" fill="none" xmlns="http://www.w3.org/2000/svg">
<path fill-rule="evenodd" clip-rule="evenodd" d="M17.9173 12.8768C18.055 12.3419 18.6002 12.0199 19.135 12.1576C21.2914 12.7126 22.8858 14.6688 22.8858 17V19C22.8858 19.5523 22.4381 20 21.8858 20C21.3335 20 20.8858 19.5523 20.8858 19V17C20.8858 15.6035 19.9307 14.4275 18.6365 14.0945C18.1017 13.9568 17.7797 13.4116 17.9173 12.8768Z" fill="#101010"/>
<path fill-rule="evenodd" clip-rule="evenodd" d="M14.4588 0.915544C14.6661 0.40361 15.2491 0.156595 15.761 0.363821C17.5915 1.10481 18.8858 2.90006 18.8858 5C18.8858 7.09994 17.5915 8.89519 15.761 9.63618C15.2491 9.8434 14.6661 9.59639 14.4588 9.08446C14.2516 8.57252 14.4986 7.98953 15.0106 7.7823C16.1118 7.33652 16.8858 6.25744 16.8858 5C16.8858 3.74256 16.1118 2.66348 15.0106 2.2177C14.4986 2.01047 14.2516 1.42748 14.4588 0.915544Z" fill="#101010"/>
<path fill-rule="evenodd" clip-rule="evenodd" d="M7.06472 12C8.61209 12.0005 10.1595 12.0005 11.7068 12C12.7975 11.9996 13.5417 11.9994 14.1799 12.1704C15.9053 12.6327 17.2531 13.9804 17.7154 15.7059C17.9457 16.5652 17.879 17.4836 17.886 18.3641C17.8868 18.471 17.8885 18.6872 17.8347 18.8882C17.696 19.4059 17.2916 19.8102 16.774 19.9489C16.573 20.0028 16.3568 20.001 16.2499 20.0002C11.6749 19.9637 7.0967 19.9637 2.52169 20.0002C2.41478 20.001 2.19857 20.0028 1.99755 19.9489C1.47991 19.8102 1.07559 19.4059 0.93689 18.8882C0.883028 18.6872 0.884752 18.471 0.885604 18.3641C0.892606 17.4858 0.826264 16.5639 1.05615 15.7059C1.51849 13.9804 2.86622 12.6327 4.59168 12.1704C5.2299 11.9994 5.9741 11.9996 7.06472 12Z" fill="#101010"/>
<path fill-rule="evenodd" clip-rule="evenodd" d="M4.38578 5C4.38578 2.23858 6.62436 0 9.38578 0C12.1472 0 14.3858 2.23858 14.3858 5C14.3858 7.76142 12.1472 10 9.38578 10C6.62436 10 4.38578 7.76142 4.38578 5Z" fill="#101010"/>
</svg>
