<svg width="45" height="46" viewBox="0 0 45 46" fill="none" xmlns="http://www.w3.org/2000/svg">
<g clip-path="url(#clip0_3186_9768)">
<path d="M1.06242 16.1523C0.373184 18.3116 -8.78751e-05 20.6119 1.55175e-08 22.9998C-8.78751e-05 25.3878 0.373271 27.6883 1.06251 29.8476L22.5 30.826L43.9375 29.8478C44.6266 27.6884 45.0001 25.3878 45.0001 23C45 20.612 44.6267 18.3116 43.9375 16.1522L22.5 15.174L1.06242 16.1523Z" fill="#F0F0F0"/>
<path d="M43.9373 16.1525L22.4998 15.1743L1.06219 16.1525C0.85793 16.7927 0.682061 17.4455 0.534668 18.1091H44.4645C44.3173 17.4454 44.1415 16.7926 43.9373 16.1525Z" fill="#D80027"/>
<path d="M0.534912 27.8915C0.682129 28.5551 0.857998 29.2077 1.06226 29.8479L1.06437 29.848L22.4997 30.8262L43.9371 29.848C44.1414 29.2078 44.3173 28.5551 44.4646 27.8915H0.534912Z" fill="#D80027"/>
<path d="M22.4999 45.4999C32.5384 45.4999 41.0401 38.9254 43.9374 29.8477H1.0625C3.95981 38.9254 12.4616 45.4999 22.4999 45.4999Z" fill="#6DA544"/>
<path d="M22.5 0.500092C12.4616 0.500179 3.95999 7.07466 1.0625 16.1523L43.9374 16.1524C41.0403 7.07457 32.5385 0.500004 22.5 0.500092Z" fill="#338AF3"/>
<path d="M10.2822 9.79369C10.2822 7.68634 11.7632 5.92589 13.741 5.49399C13.4371 5.42755 13.1217 5.3916 12.7977 5.3916C10.3665 5.3916 8.39551 7.36246 8.39551 9.79378C8.39551 12.2251 10.3663 14.196 12.7977 14.196C13.1217 14.196 13.437 14.1599 13.741 14.0936C11.7633 13.6615 10.2822 11.901 10.2822 9.79369Z" fill="#F0F0F0"/>
<path d="M16.3428 11.7947L16.6407 12.7118H17.6051L16.825 13.2787L17.1229 14.1958L16.3428 13.629L15.5625 14.1958L15.8605 13.2787L15.0803 12.7118H16.0447L16.3428 11.7947Z" fill="#F0F0F0"/>
<path d="M19.4207 11.7947L19.7188 12.7118H20.6831L19.9029 13.2787L20.2009 14.1958L19.4207 13.629L18.6405 14.1958L18.9386 13.2787L18.1584 12.7118H19.1227L19.4207 11.7947Z" fill="#F0F0F0"/>
<path d="M22.4988 11.7947L22.7967 12.7118H23.7612L22.981 13.2787L23.2789 14.1958L22.4988 13.629L21.7185 14.1958L22.0166 13.2787L21.2363 12.7118H22.2008L22.4988 11.7947Z" fill="#F0F0F0"/>
<path d="M25.5767 11.7947L25.8747 12.7118H26.839L26.0588 13.2787L26.3569 14.1958L25.5767 13.629L24.7964 14.1958L25.0945 13.2787L24.3142 12.7118H25.2785L25.5767 11.7947Z" fill="#F0F0F0"/>
<path d="M28.6549 11.7947L28.9529 12.7118H29.9172L29.1371 13.2787L29.4352 14.1958L28.6549 13.629L27.8747 14.1958L28.1727 13.2787L27.3926 12.7118H28.3568L28.6549 11.7947Z" fill="#F0F0F0"/>
<path d="M19.4207 8.59302L19.7188 9.51007H20.6831L19.9029 10.0771L20.2009 10.9941L19.4207 10.4273L18.6405 10.9941L18.9386 10.0771L18.1584 9.51007H19.1227L19.4207 8.59302Z" fill="#F0F0F0"/>
<path d="M22.4988 8.59302L22.7967 9.51007H23.7612L22.981 10.0771L23.2789 10.9941L22.4988 10.4273L21.7185 10.9941L22.0166 10.0771L21.2363 9.51007H22.2008L22.4988 8.59302Z" fill="#F0F0F0"/>
<path d="M25.5767 8.59302L25.8747 9.51007H26.839L26.0588 10.0771L26.3569 10.9941L25.5767 10.4273L24.7964 10.9941L25.0945 10.0771L24.3142 9.51007H25.2785L25.5767 8.59302Z" fill="#F0F0F0"/>
<path d="M28.6549 8.59302L28.9529 9.51007H29.9172L29.1371 10.0771L29.4352 10.9941L28.6549 10.4273L27.8747 10.9941L28.1727 10.0771L27.3926 9.51007H28.3568L28.6549 8.59302Z" fill="#F0F0F0"/>
<path d="M22.4988 5.39139L22.7967 6.30861H23.7612L22.981 6.87542L23.2789 7.79265L22.4988 7.22584L21.7185 7.79265L22.0166 6.87542L21.2363 6.30861H22.2008L22.4988 5.39139Z" fill="#F0F0F0"/>
<path d="M25.5767 5.39139L25.8747 6.30861H26.839L26.0588 6.87542L26.3569 7.79265L25.5767 7.22584L24.7964 7.79265L25.0945 6.87542L24.3142 6.30861H25.2785L25.5767 5.39139Z" fill="#F0F0F0"/>
<path d="M28.6549 5.39139L28.9529 6.30861H29.9172L29.1371 6.87542L29.4352 7.79265L28.6549 7.22584L27.8747 7.79265L28.1727 6.87542L27.3926 6.30861H28.3568L28.6549 5.39139Z" fill="#F0F0F0"/>
</g>
<defs>
<clipPath id="clip0_3186_9768">
<rect width="45" height="45" fill="white" transform="translate(0 0.5)"/>
</clipPath>
</defs>
</svg>
