<svg width="14" height="18" viewBox="0 0 14 18" fill="none" xmlns="http://www.w3.org/2000/svg">
<path fill-rule="evenodd" clip-rule="evenodd" d="M13.6899 9.56992C13.6899 12.2161 13.1351 14.1881 12.0264 15.473C10.9177 16.7579 9.20469 17.4001 6.89525 17.4001C4.73753 17.4001 3.10056 16.7577 1.98426 15.473C0.867974 14.1883 0.309927 12.2507 0.310059 9.66031V0.96934C0.310583 0.765751 0.461848 0.600813 0.64864 0.600098H4.56107C4.74793 0.600705 4.89929 0.765679 4.89985 0.96934V9.85028C4.89985 10.908 5.07936 11.722 5.44471 12.2963C6.10245 13.2467 7.34254 13.436 8.21454 12.7191C8.34536 12.6115 8.46343 12.4867 8.56598 12.3474C8.92309 11.8085 9.10106 11.0144 9.09991 9.96513V8.30202H13.6899V9.56992Z" fill="#203E7A"/>
<path fill-rule="evenodd" clip-rule="evenodd" d="M13.6901 7.33062H9.1003V0.986824C9.10083 0.77351 9.25938 0.600706 9.45509 0.600134H10.0889C10.0903 2.76617 11.7018 4.52128 13.6891 4.52128H13.6901V7.33062Z" fill="#203E7A"/>
<path fill-rule="evenodd" clip-rule="evenodd" d="M10.9909 0.600098H13.3353C13.531 0.600706 13.6896 0.773474 13.6901 0.986789V3.54517C12.1994 3.54517 10.9909 2.22806 10.9909 0.60328V0.600098Z" fill="#F4821F"/>
</svg>
