<svg width="17" height="20" viewBox="0 0 17 20" fill="none" xmlns="http://www.w3.org/2000/svg">
<path fill-rule="evenodd" clip-rule="evenodd" d="M16.8889 10.8527C16.8889 13.9319 16.1999 16.2266 14.8231 17.7217C13.4462 19.2169 11.3188 19.9641 8.45066 19.9641C5.77097 19.9641 3.738 19.2166 2.35167 17.7217C0.965341 16.2268 0.272298 13.9721 0.272461 10.9578V0.844702C0.273113 0.607799 0.46097 0.415871 0.692948 0.415039H5.55182C5.78388 0.415746 5.97186 0.607716 5.97256 0.844702V11.1789C5.97256 12.4097 6.19549 13.3569 6.64922 14.0252C7.46607 15.1311 9.00616 15.3513 10.0891 14.5172C10.2516 14.392 10.3982 14.2467 10.5255 14.0846C10.9691 13.4576 11.1901 12.5335 11.1886 11.3125V9.37727H16.8889V10.8527Z" fill="#203E7A"/>
<path fill-rule="evenodd" clip-rule="evenodd" d="M16.8892 8.24692H11.1891V0.865048C11.1898 0.616828 11.3867 0.415747 11.6297 0.415081H12.4169C12.4187 2.93556 14.4199 4.97787 16.888 4.97787H16.8892V8.24692Z" fill="#203E7A"/>
<path fill-rule="evenodd" clip-rule="evenodd" d="M13.5371 0.41504H16.4486C16.6917 0.415747 16.8886 0.616786 16.8892 0.865007V3.84203C15.0379 3.84203 13.5371 2.3094 13.5371 0.418742V0.41504Z" fill="#F4821F"/>
</svg>
