<svg width="68" height="68" viewBox="0 0 68 68" fill="none" xmlns="http://www.w3.org/2000/svg">
<rect width="68" height="68" rx="34" fill="#F7F7F7"/>
<path d="M32.781 18.503C33.4599 18.2012 34.2227 18.1624 34.9226 18.3887L35.2185 18.503L35.4338 18.6114C35.9133 18.885 36.2413 19.2861 36.4783 19.6207C36.7535 20.0092 37.0487 20.5224 37.3748 21.0855L49.7117 42.3961C50.039 42.9614 50.3388 43.4744 50.5393 43.9078C50.7365 44.334 50.9503 44.9077 50.8821 45.5616C50.7937 46.4075 50.3498 47.1766 49.6619 47.6768C49.1302 48.0633 48.5269 48.1642 48.0593 48.2071C47.5838 48.2507 46.9899 48.2496 46.3367 48.2496H21.6614C21.0083 48.2496 20.4141 48.2507 19.9387 48.2071C19.4712 48.1642 18.8677 48.0633 18.3362 47.6768C17.6484 47.1766 17.2058 46.4074 17.1174 45.5616C17.0493 44.9077 17.263 44.334 17.4602 43.9078C17.6607 43.4745 17.9592 42.9612 18.2864 42.3961L30.6248 21.0855C30.9508 20.5224 31.2461 20.0092 31.5212 19.6207C31.7921 19.2382 32.1818 18.7694 32.781 18.503ZM33.969 21.355C33.7922 21.6047 33.576 21.9744 33.2205 22.5884L20.8836 43.899C20.5267 44.5154 20.3124 44.8887 20.1834 45.1675C20.176 45.1834 20.1705 45.199 20.1643 45.213C20.1794 45.2146 20.1953 45.2187 20.2127 45.2203C20.5185 45.2483 20.9493 45.2496 21.6614 45.2496H46.3367C47.0491 45.2496 47.4795 45.2483 47.7854 45.2203C47.8027 45.2187 47.8187 45.2146 47.8337 45.213C47.8276 45.1991 47.8234 45.1833 47.8162 45.1675C47.6872 44.8887 47.4729 44.5155 47.116 43.899L34.7776 22.5884C34.4221 21.9744 34.2058 21.6046 34.0291 21.355C34.019 21.3408 34.0073 21.3292 33.9983 21.317C33.9895 21.3289 33.9788 21.3412 33.969 21.355ZM34.0144 39.9996C34.8427 39.9996 35.5142 40.6713 35.5144 41.4996C35.5144 42.328 34.8428 42.9996 34.0144 42.9996H33.9998C33.1713 42.9996 32.4998 42.328 32.4998 41.4996C32.5 40.6713 33.1715 39.9996 33.9998 39.9996H34.0144ZM32.4998 35.4996V29.4996C32.5 28.6713 33.1715 27.9996 33.9998 27.9996C34.8279 27.9998 35.4996 28.6714 35.4998 29.4996V35.4996C35.4998 36.3279 34.828 36.9994 33.9998 36.9996C33.1713 36.9996 32.4998 36.328 32.4998 35.4996Z" fill="#171717"/>
</svg>
