<svg width="25" height="28" viewBox="0 0 25 28" fill="none" xmlns="http://www.w3.org/2000/svg">
<path d="M18.75 25.25V22.75H16.25C15.5596 22.75 15 22.1904 15 21.5C15 20.8096 15.5596 20.25 16.25 20.25H18.75V17.75C18.75 17.0596 19.3096 16.5 20 16.5C20.6904 16.5 21.25 17.0596 21.25 17.75V20.25H23.75C24.4404 20.25 25 20.8096 25 21.5C25 22.1904 24.4404 22.75 23.75 22.75H21.25V25.25C21.25 25.9404 20.6904 26.5 20 26.5C19.3096 26.5 18.75 25.9404 18.75 25.25ZM16.25 6.5V5.25H8.75V6.5C8.75 7.19036 8.19036 7.75 7.5 7.75C6.80965 7.75 6.25 7.19036 6.25 6.5V5.25366C5.69318 5.25757 5.25587 5.26641 4.88892 5.29639C4.3409 5.34116 4.06025 5.42261 3.86475 5.52222C3.39443 5.76188 3.01189 6.14443 2.77222 6.61475C2.67261 6.81025 2.59116 7.0909 2.54639 7.63892C2.50044 8.20146 2.5 8.92927 2.5 9.99976V10.25H22.5V9.99976C22.5 8.92927 22.4996 8.20146 22.4536 7.63892C22.4088 7.0909 22.3274 6.81025 22.2278 6.61475C21.9881 6.14443 21.6056 5.76188 21.1353 5.52222C20.9398 5.42261 20.6591 5.34116 20.1111 5.29639C19.7441 5.26641 19.3068 5.25757 18.75 5.25366V6.5C18.75 7.19036 18.1904 7.75 17.5 7.75C16.8096 7.75 16.25 7.19036 16.25 6.5ZM25 13.375C25 14.0654 24.4404 14.625 23.75 14.625C23.0596 14.625 22.5 14.0654 22.5 13.375V12.75H2.5V20.5002C2.5 21.5707 2.50044 22.2985 2.54639 22.8611C2.59116 23.4091 2.67261 23.6898 2.77222 23.8853C3.01189 24.3556 3.39443 24.7381 3.86475 24.9778C4.06025 25.0774 4.3409 25.1588 4.88892 25.2036C5.45147 25.2496 6.17927 25.25 7.24976 25.25H13.125C13.8154 25.25 14.375 25.8096 14.375 26.5C14.375 27.1904 13.8154 27.75 13.125 27.75H7.24976C6.2204 27.75 5.37304 27.7513 4.68506 27.6951C3.98249 27.6377 3.33613 27.5147 2.72949 27.2056C1.78886 26.7262 1.02377 25.9611 0.544436 25.0205C0.235342 24.4139 0.112345 23.7675 0.0549341 23.0649C-0.00127566 22.377 2.2831e-06 21.5296 2.43658e-06 20.5002V9.99976C2.28348e-06 8.97039 -0.00127567 8.12303 0.0549341 7.43506C0.112345 6.73249 0.235342 6.08612 0.544436 5.47949C1.02377 4.53886 1.78886 3.77377 2.72949 3.29443C3.33613 2.98534 3.98249 2.86234 4.68506 2.80493C5.13607 2.76808 5.65568 2.75775 6.25 2.75366V1.5C6.25 0.809644 6.80965 0.25 7.5 0.25C8.19036 0.25 8.75 0.809644 8.75 1.5V2.75H16.25V1.5C16.25 0.809644 16.8096 0.25 17.5 0.25C18.1904 0.25 18.75 0.809644 18.75 1.5V2.75366C19.3443 2.75775 19.8639 2.76808 20.3149 2.80493C21.0175 2.86234 21.6639 2.98534 22.2705 3.29443C23.2111 3.77377 23.9762 4.53886 24.4556 5.47949C24.7647 6.08612 24.8877 6.73249 24.9451 7.43506C25.0013 8.12303 25 8.97039 25 9.99976V13.375Z" fill="#00A38D"/>
</svg>
