<svg width="21" height="16" viewBox="0 0 21 16" fill="none" xmlns="http://www.w3.org/2000/svg">
<path d="M18 4.57217C18 4.15953 17.5284 3.92451 17.1989 4.17297L10.3708 9.32243C10.1937 9.45603 9.94967 9.4569 9.77157 9.32457L2.7982 4.14337C2.4683 3.89826 2 4.13373 2 4.54472V12.9737C2 13.2498 2.22386 13.4737 2.5 13.4737H10.5C10.7761 13.4737 11 13.6975 11 13.9737V14.6579C11 14.934 10.7761 15.1579 10.5 15.1579H1C0.734784 15.1579 0.48043 15.0692 0.292893 14.9112C0.105357 14.7533 0 14.5391 0 14.3158V0.842105C0 0.618765 0.105357 0.404572 0.292893 0.246647C0.48043 0.0887215 0.734784 0 1 0H19C19.2652 0 19.5196 0.0887215 19.7071 0.246647C19.8946 0.404572 20 0.618765 20 0.842105V6.23684C20 6.51298 19.7761 6.73684 19.5 6.73684H18.5C18.2239 6.73684 18 6.51298 18 6.23684V4.57217ZM17.501 1.68421H4.02222C3.54058 1.68421 3.33741 2.29828 3.724 2.58554L9.76061 7.07111C9.93869 7.20343 10.1827 7.20258 10.3598 7.06902L17.5012 1.68481C17.5015 1.68462 17.5013 1.68421 17.501 1.68421ZM20 11.2895C20 11.5656 20.2239 11.7895 20.5 11.7895C20.7761 11.7895 21 12.0133 21 12.2895V15.5C21 15.7761 20.7761 16 20.5 16H13.5C13.2239 16 13 15.7761 13 15.5V12.2895C13 12.0133 13.2239 11.7895 13.5 11.7895C13.7761 11.7895 14 11.5656 14 11.2895V10.9474C14 10.2773 14.3161 9.63477 14.8787 9.16099C15.4413 8.68722 16.2044 8.42105 17 8.42105C17.7956 8.42105 18.5587 8.68722 19.1213 9.16099C19.6839 9.63477 20 10.2773 20 10.9474V11.2895ZM17.5 11.7895C17.7761 11.7895 18 11.5656 18 11.2895V10.9474C18 10.724 17.8946 10.5098 17.7071 10.3519C17.5196 10.194 17.2652 10.1053 17 10.1053C16.7348 10.1053 16.4804 10.194 16.2929 10.3519C16.1054 10.5098 16 10.724 16 10.9474V11.2895C16 11.5656 16.2239 11.7895 16.5 11.7895H17.5Z" fill="#00A38D"/>
</svg>
