<svg width="21" height="17" viewBox="0 0 21 17" fill="none" xmlns="http://www.w3.org/2000/svg">
<path d="M19.25 7.125V4.675C19.25 3.69491 19.25 3.20486 19.0593 2.83052C18.8915 2.50123 18.6238 2.23352 18.2945 2.06574C17.9201 1.875 17.4301 1.875 16.45 1.875H4.55C3.56991 1.875 3.07986 1.875 2.70552 2.06574C2.37623 2.23352 2.10852 2.50123 1.94074 2.83052C1.75 3.20486 1.75 3.69491 1.75 4.675V7.825C1.75 8.80509 1.75 9.29514 1.94074 9.66948C2.10852 9.99877 2.37623 10.2665 2.70552 10.4343C3.07986 10.625 3.56991 10.625 4.55 10.625H9.625M10.5 6.25H10.5044M14.875 6.25H14.8794M6.125 6.25H6.12938M16.8438 12.375V10.8438C16.8438 9.99806 16.1582 9.3125 15.3125 9.3125C14.4668 9.3125 13.7812 9.99806 13.7812 10.8438V12.375M10.7188 6.25C10.7188 6.37081 10.6208 6.46875 10.5 6.46875C10.3792 6.46875 10.2812 6.37081 10.2812 6.25C10.2812 6.12919 10.3792 6.03125 10.5 6.03125C10.6208 6.03125 10.7188 6.12919 10.7188 6.25ZM15.0938 6.25C15.0938 6.37081 14.9958 6.46875 14.875 6.46875C14.7542 6.46875 14.6562 6.37081 14.6562 6.25C14.6562 6.12919 14.7542 6.03125 14.875 6.03125C14.9958 6.03125 15.0938 6.12919 15.0938 6.25ZM6.34375 6.25C6.34375 6.37081 6.24581 6.46875 6.125 6.46875C6.00419 6.46875 5.90625 6.37081 5.90625 6.25C5.90625 6.12919 6.00419 6.03125 6.125 6.03125C6.24581 6.03125 6.34375 6.12919 6.34375 6.25ZM13.65 15.875H16.975C17.465 15.875 17.7101 15.875 17.8972 15.7796C18.0619 15.6957 18.1957 15.5619 18.2796 15.3972C18.375 15.2101 18.375 14.965 18.375 14.475V13.775C18.375 13.285 18.375 13.0399 18.2796 12.8528C18.1957 12.6881 18.0619 12.5543 17.8972 12.4704C17.7101 12.375 17.465 12.375 16.975 12.375H13.65C13.16 12.375 12.9149 12.375 12.7278 12.4704C12.5631 12.5543 12.4293 12.6881 12.3454 12.8528C12.25 13.0399 12.25 13.285 12.25 13.775V14.475C12.25 14.965 12.25 15.2101 12.3454 15.3972C12.4293 15.5619 12.5631 15.6957 12.7278 15.7796C12.9149 15.875 13.16 15.875 13.65 15.875Z" stroke="#00A38D" stroke-width="2" stroke-linecap="round" stroke-linejoin="round"/>
</svg>
