<svg width="22" height="22" viewBox="0 0 22 22" fill="none" xmlns="http://www.w3.org/2000/svg">
<path d="M6.34137 3.10367C7.70647 2.29664 9.29899 1.8335 10.9997 1.8335C16.0623 1.8335 20.1663 5.93755 20.1663 11.0002C20.1663 11.0305 20.1662 11.0609 20.1659 11.0912M3.09905 6.34886C2.29457 7.7124 1.83301 9.30238 1.83301 11.0002C1.83301 15.2715 4.75436 18.8604 8.70801 19.878M18.9817 15.5107C17.7713 17.648 15.7272 19.2511 13.2913 19.878M12.9149 5.84279C12.3185 5.62123 11.6732 5.50016 10.9997 5.50016C7.96211 5.50016 5.49967 7.9626 5.49967 11.0002C5.49967 11.6773 5.62206 12.326 5.84592 12.9251M16.156 9.08219C16.3782 9.67937 16.4997 10.3256 16.4997 11.0002C16.4997 14.0377 14.0372 16.5002 10.9997 16.5002C10.3306 16.5002 9.6895 16.3807 9.09643 16.162M10.9997 9.16683V12.8335" stroke="#00A38D" stroke-width="2" stroke-linecap="round" stroke-linejoin="round"/>
</svg>
