<svg width="18" height="20" viewBox="0 0 18 20" fill="none" xmlns="http://www.w3.org/2000/svg">
<path d="M10 5.24985C10 5.80213 9.55228 6.24985 9 6.24985C8.44772 6.24985 8 5.80213 8 5.24985C8 4.69756 8.44772 4.24985 9 4.24985C9.55228 4.24985 10 4.69756 10 5.24985ZM10.0316 1.32416C9.41698 0.875671 8.58302 0.875671 7.96843 1.32416L0.54657 6.74011C-0.430513 7.45312 0.0738213 8.99985 1.2834 8.99985H1.5L1.5 14.7997C0.609581 15.2549 0 16.1812 0 17.2498V18.7498C0 19.1641 0.335786 19.4998 0.75 19.4998H17.25C17.6642 19.4998 18 19.1641 18 18.7498V17.2498C18 16.1812 17.3904 15.2549 16.5 14.7997V8.99985H16.7166C17.9262 8.99985 18.4305 7.45312 17.4534 6.74011L10.0316 1.32416ZM8.85263 2.53585C8.94043 2.47178 9.05957 2.47178 9.14737 2.53585L15.9499 7.49985H2.05011L8.85263 2.53585ZM15 8.99985V14.4998H13V8.99985H15ZM11.5 8.99985V14.4998H9.75V8.99985H11.5ZM8.25 8.99985V14.4998H6.5L6.5 8.99985H8.25ZM2.75 15.9998H15.25C15.9404 15.9998 16.5 16.5595 16.5 17.2498V17.9998H1.5V17.2498C1.5 16.5595 2.05964 15.9998 2.75 15.9998ZM3 14.4998L3 8.99985H5L5 14.4998H3Z" fill="#00A38D"/>
</svg>
