<svg width="19" height="22" viewBox="0 0 19 22" fill="none" xmlns="http://www.w3.org/2000/svg">
<path d="M10.1371 13.4086V14.8167C10.1371 15.1616 9.79499 15.4037 9.45858 15.3273C8.74385 15.1651 8.00366 15.1327 7.27379 15.2337C6.30988 15.3672 5.39213 15.7296 4.59762 16.2905C3.80311 16.8514 3.15502 17.5944 2.70779 18.457C2.33752 19.1712 2.11388 19.9502 2.04797 20.7484C2.02524 21.0238 1.80336 21.2481 1.52708 21.248L0.499624 21.2475C0.223628 21.2473 -0.00167005 21.0234 0.0153159 20.7479C0.0808891 19.6844 0.356293 18.6426 0.827492 17.683C1.37224 16.5735 2.16421 15.6032 3.14273 14.8465C4.12124 14.0897 5.26033 13.5666 6.4727 13.3172C7.68475 13.0679 8.93788 13.0987 10.1361 13.4074C10.1367 13.4075 10.1371 13.408 10.1371 13.4086ZM8.10969 12.1418C4.74924 12.1418 2.02742 9.4251 2.02742 6.07092C2.02742 2.71674 4.74924 0 8.10969 0C11.4701 0 14.192 2.71674 14.192 6.07092C14.192 9.4251 11.4701 12.1418 8.10969 12.1418ZM8.10969 10.1182C10.35 10.1182 12.1645 8.30704 12.1645 6.07092C12.1645 3.8348 10.35 2.02364 8.10969 2.02364C5.86939 2.02364 4.05485 3.8348 4.05485 6.07092C4.05485 8.30704 5.86939 10.1182 8.10969 10.1182ZM13.9816 19.1376C13.9819 19.1376 13.9823 19.1374 13.9825 19.1372L17.2125 15.9132C17.4076 15.7184 17.7236 15.7184 17.9188 15.9131L18.6452 16.6376C18.841 16.8329 18.8411 17.1501 18.6453 17.3455L14.3353 21.6474C14.1402 21.8423 13.8241 21.8423 13.6289 21.6474L10.7523 18.7762C10.5566 18.5808 10.5566 18.2636 10.7524 18.0683L11.4787 17.3439C11.674 17.1492 11.99 17.1492 12.1851 17.3441L13.9808 19.1372C13.981 19.1374 13.9813 19.1376 13.9816 19.1376Z" fill="#00A38D"/>
</svg>
