<svg width="21" height="22" viewBox="0 0 21 22" fill="none" xmlns="http://www.w3.org/2000/svg">
<path d="M10.5 0.5C16.2992 0.5 21 5.20085 21 11C21 16.7992 16.2992 21.5 10.5 21.5C8.7789 21.5 7.15421 21.0861 5.72067 20.3521C5.61431 20.2976 5.49247 20.2805 5.37582 20.3064L2.77741 20.8833C1.4837 21.1706 0.329818 20.0164 0.6174 18.7227L1.19462 16.1263C1.22054 16.0096 1.20343 15.8878 1.149 15.7814C0.414891 14.3469 0 12.7222 0 11C0 5.20085 4.70085 0.5 10.5 0.5ZM10.5 2.6C5.8611 2.6 2.1 6.3611 2.1 11C2.1 12.4018 2.4423 13.7489 3.087 14.9543L3.36698 15.4775C3.42345 15.583 3.4402 15.7052 3.41418 15.8221L2.93649 17.9673C2.85694 18.3245 3.17553 18.6434 3.53283 18.5641L5.68039 18.0877C5.79699 18.0618 5.91901 18.0786 6.02435 18.1349L6.54675 18.4141C7.75215 19.0588 9.09825 19.4 10.5 19.4C15.1389 19.4 18.9 15.6389 18.9 11C18.9 6.3611 15.1389 2.6 10.5 2.6ZM10.5 5.75C12.2399 5.75 13.65 7.16015 13.65 8.9V9.45C13.65 9.72614 13.8739 9.95 14.15 9.95H14.2C14.4761 9.95 14.7 10.1739 14.7 10.45V14.7C14.7 14.9761 14.4761 15.2 14.2 15.2H6.8C6.52386 15.2 6.3 14.9761 6.3 14.7V10.45C6.3 10.1739 6.52386 9.95 6.8 9.95H6.85C7.12614 9.95 7.35 9.72614 7.35 9.45V8.9C7.35 7.16015 8.76015 5.75 10.5 5.75ZM12.5792 11.52C12.5906 11.2362 12.3636 11 12.0796 11H10.5H8.9204C8.63642 11 8.40945 11.2362 8.4208 11.52L8.4808 13.02C8.49153 13.2881 8.71203 13.5 8.9804 13.5H10.5H12.0196C12.288 13.5 12.5085 13.2881 12.5192 13.02L12.5792 11.52ZM10.5 7.85C9.9204 7.85 9.45 8.3225 9.45 8.9V9.45C9.45 9.72614 9.67386 9.95 9.95 9.95H11.05C11.3261 9.95 11.55 9.72614 11.55 9.45V8.9C11.55 8.3204 11.0796 7.85 10.5 7.85Z" fill="#00A38D"/>
</svg>
