<svg width="20" height="20" viewBox="0 0 20 20" fill="none" xmlns="http://www.w3.org/2000/svg">
<g clip-path="url(#clip0_128_1204)">
<path fill-rule="evenodd" clip-rule="evenodd" d="M10.0007 0.833496C4.93804 0.833496 0.833984 4.93755 0.833984 10.0002C0.833984 15.0628 4.93804 19.1668 10.0007 19.1668C15.0633 19.1668 19.1673 15.0628 19.1673 10.0002C19.1673 4.93755 15.0633 0.833496 10.0007 0.833496ZM13.0899 6.91091C13.4153 7.23634 13.4153 7.76398 13.0899 8.08942L11.1792 10.0002L13.0899 11.9109C13.4153 12.2363 13.4153 12.764 13.0899 13.0894C12.7645 13.4149 12.2368 13.4149 11.9114 13.0894L10.0007 11.1787L8.08991 13.0894C7.76447 13.4149 7.23683 13.4149 6.9114 13.0894C6.58596 12.764 6.58596 12.2363 6.9114 11.9109L8.82214 10.0002L6.9114 8.08942C6.58596 7.76398 6.58596 7.23634 6.9114 6.91091C7.23683 6.58547 7.76447 6.58547 8.08991 6.91091L10.0007 8.82165L11.9114 6.91091C12.2368 6.58547 12.7645 6.58547 13.0899 6.91091Z" fill="#5C5C5C"/>
</g>
<defs>
<clipPath id="clip0_128_1204">
<rect width="20" height="20" fill="white"/>
</clipPath>
</defs>
</svg>
