<svg width="40" height="40" viewBox="0 0 40 40" fill="none" xmlns="http://www.w3.org/2000/svg">
  <path
    d="M10 0.75H20.5146C21.907 0.75 23.242 1.30354 24.2266 2.28809L33.7119 11.7734C34.6965 12.758 35.25 14.093 35.25 15.4854V34C35.25 36.8995 32.8995 39.25 30 39.25H10C7.10051 39.25 4.75 36.8995 4.75 34V6C4.75 3.10051 7.10051 0.75 10 0.75Z"
    fill="white" stroke="#D1D1D1" stroke-width="1.5"/>
  <path d="M23 1V9C23 11.2091 24.7909 13 27 13H35" stroke="#D1D1D1" stroke-width="1.5"/>
  <path
    d="M0 22C0 19.7909 1.79086 18 4 18H24C26.2091 18 28 19.7909 28 22V30C28 32.2091 26.2091 34 24 34H4C1.79086 34 0 32.2091 0 30V22Z"
    fill="#1FC16B"/>
  <path
    d="M5 22L6.76172 24.9297H6.82422L8.59375 22H10.2461L7.78125 26L10.2852 30H8.60547L6.82422 27.0898H6.76172L4.98047 30H3.30859L5.83594 26L3.33984 22H5ZM11.6038 30V22H13.053V28.7852H16.5764V30H11.6038ZM22.4019 24.1992C22.3655 23.8581 22.2118 23.5924 21.941 23.4023C21.6727 23.2122 21.3238 23.1172 20.8941 23.1172C20.592 23.1172 20.3329 23.1628 20.1168 23.2539C19.9006 23.3451 19.7352 23.4687 19.6207 23.625C19.5061 23.7812 19.4475 23.9596 19.4449 24.1602C19.4449 24.3268 19.4826 24.4714 19.5582 24.5937C19.6363 24.7161 19.7418 24.8203 19.8746 24.9062C20.0074 24.9896 20.1545 25.0599 20.316 25.1172C20.4774 25.1745 20.6402 25.2227 20.8043 25.2617L21.5543 25.4492C21.8563 25.5195 22.1467 25.6146 22.4254 25.7344C22.7066 25.8542 22.9579 26.0052 23.1793 26.1875C23.4032 26.3698 23.5803 26.5898 23.7105 26.8477C23.8407 27.1055 23.9058 27.4076 23.9058 27.7539C23.9058 28.2227 23.786 28.6354 23.5464 28.9922C23.3069 29.3464 22.9605 29.6237 22.5074 29.8242C22.0569 30.0221 21.5113 30.1211 20.8707 30.1211C20.2483 30.1211 19.7079 30.0247 19.2496 29.832C18.7938 29.6393 18.4371 29.3581 18.1793 28.9883C17.924 28.6185 17.786 28.168 17.7652 27.6367H19.191C19.2118 27.9154 19.2977 28.1471 19.4488 28.332C19.5998 28.5169 19.7964 28.6549 20.0386 28.7461C20.2834 28.8372 20.5569 28.8828 20.8589 28.8828C21.174 28.8828 21.4501 28.8359 21.6871 28.7422C21.9267 28.6458 22.1142 28.513 22.2496 28.3437C22.385 28.1719 22.454 27.9714 22.4566 27.7422C22.454 27.5339 22.3928 27.362 22.273 27.2266C22.1532 27.0885 21.9852 26.974 21.7691 26.8828C21.5556 26.7891 21.3056 26.7057 21.0191 26.6328L20.1089 26.3984C19.4501 26.2292 18.9293 25.9727 18.5464 25.6289C18.1662 25.2826 17.9761 24.8229 17.9761 24.25C17.9761 23.7786 18.1037 23.3659 18.3589 23.0117C18.6168 22.6576 18.967 22.3828 19.4097 22.1875C19.8524 21.9896 20.3537 21.8906 20.9136 21.8906C21.4813 21.8906 21.9787 21.9896 22.4058 22.1875C22.8355 22.3828 23.1727 22.6549 23.4175 23.0039C23.6623 23.3503 23.7886 23.7487 23.7964 24.1992H22.4019Z"
    fill="white"/>
</svg>
