<svg width="48" height="48" viewBox="0 0 48 48" fill="none" xmlns="http://www.w3.org/2000/svg">
<path d="M31.5007 29.917C31.5007 29.6701 31.4996 29.5348 31.4917 29.4377C31.4914 29.4339 31.4904 29.4304 31.4901 29.4271C31.487 29.4268 31.4837 29.4266 31.4803 29.4263C31.3832 29.4183 31.2479 29.4173 31.001 29.4173H27.8337C27.5868 29.4173 27.4514 29.4183 27.3543 29.4263C27.3506 29.4266 27.3471 29.4268 27.3438 29.4271C27.3434 29.4304 27.3432 29.434 27.3429 29.4377C27.335 29.5348 27.334 29.6701 27.334 29.917V30.5843C27.334 30.8312 27.335 30.9665 27.3429 31.0636C27.3432 31.0671 27.3435 31.0703 27.3438 31.0734C27.3471 31.0737 27.3506 31.0747 27.3543 31.075C27.4514 31.083 27.5868 31.084 27.8337 31.084H31.001C31.2479 31.084 31.3832 31.083 31.4803 31.075C31.4838 31.0748 31.487 31.0737 31.4901 31.0734C31.4904 31.0703 31.4914 31.0671 31.4917 31.0636C31.4996 30.9665 31.5007 30.8312 31.5007 30.5843V29.917ZM31.5007 20.8342C31.5007 20.3537 31.4996 20.0432 31.4803 19.8071C31.4618 19.5808 31.4305 19.4968 31.4095 19.4556C31.3296 19.2989 31.2024 19.1717 31.0457 19.0918C31.0045 19.0708 30.9205 19.0395 30.6942 19.021C30.4581 19.0017 30.1476 19.0007 29.6672 19.0007H18.3342C17.8537 19.0007 17.5432 19.0017 17.3071 19.021C17.0808 19.0395 16.9968 19.0708 16.9556 19.0918C16.7989 19.1717 16.6717 19.2989 16.5918 19.4556C16.5708 19.4968 16.5395 19.5808 16.521 19.8071C16.5017 20.0432 16.5007 20.3537 16.5007 20.8342V21.5007H31.5007V20.8342ZM30.0423 27.1257C30.0423 26.7805 29.7625 26.5007 29.4173 26.5007C29.0721 26.5007 28.7923 26.7805 28.7923 27.1257V27.7507H30.0423V27.1257ZM31.709 27.7751C31.8777 27.795 32.0672 27.8352 32.2575 27.9321C32.5319 28.0719 32.7614 28.2847 32.9216 28.5457L32.9858 28.6605L33.0583 28.8298C33.1178 28.9971 33.1418 29.159 33.1535 29.3018C33.1682 29.4824 33.1673 29.6975 33.1673 29.917V30.5843C33.1673 30.8038 33.1682 31.0189 33.1535 31.1995C33.1379 31.39 33.101 31.6148 32.9858 31.8408C32.8261 32.1544 32.571 32.4094 32.2575 32.5692C32.0314 32.6844 31.8066 32.7212 31.6162 32.7368C31.4355 32.7516 31.2205 32.7507 31.001 32.7507H27.8337C27.6142 32.7507 27.3991 32.7516 27.2184 32.7368C27.028 32.7212 26.8032 32.6844 26.5772 32.5692C26.2636 32.4094 26.0086 32.1544 25.8488 31.8408C25.7336 31.6148 25.6967 31.39 25.6812 31.1995C25.6664 31.0189 25.6673 30.8038 25.6673 30.5843V29.917C25.6673 29.6975 25.6664 29.4824 25.6812 29.3018C25.6967 29.1113 25.7336 28.8865 25.8488 28.6605C26.0086 28.3469 26.2636 28.0919 26.5772 27.9321C26.7674 27.8352 26.957 27.795 27.1257 27.7751V27.1257C27.1257 25.86 28.1517 24.834 29.4173 24.834C30.683 24.834 31.709 25.86 31.709 27.1257V27.7751ZM33.1673 23.1673C33.1673 23.6276 32.7942 24.0007 32.334 24.0007C31.8737 24.0007 31.5007 23.6276 31.5007 23.1673H16.5007V27.1672L16.5031 27.7726C16.5057 27.9396 16.5114 28.0762 16.521 28.1942C16.5395 28.4205 16.5708 28.5045 16.5918 28.5457C16.6717 28.7024 16.7989 28.8296 16.9556 28.9095C16.9968 28.9305 17.0808 28.9618 17.3071 28.9803C17.5432 28.9996 17.8537 29.0007 18.3342 29.0007H23.1673C23.6276 29.0007 24.0007 29.3738 24.0007 29.834C24.0007 30.2942 23.6276 30.6673 23.1673 30.6673H18.3342C17.8812 30.6673 17.491 30.6682 17.1712 30.6421C16.8418 30.6152 16.514 30.5553 16.1987 30.3947C15.7285 30.1551 15.3463 29.7728 15.1066 29.3026C14.946 28.9873 14.8861 28.6595 14.8592 28.3301C14.8462 28.1703 14.8403 27.9927 14.8372 27.7987L14.834 27.1672V20.8342C14.834 20.3812 14.8331 19.991 14.8592 19.6712C14.8861 19.3418 14.946 19.014 15.1066 18.6987C15.3463 18.2285 15.7285 17.8463 16.1987 17.6066C16.514 17.446 16.8418 17.3861 17.1712 17.3592C17.491 17.3331 17.8812 17.334 18.3342 17.334H29.6672C30.1201 17.334 30.5104 17.3331 30.8301 17.3592C31.1595 17.3861 31.4873 17.446 31.8026 17.6066C32.2728 17.8463 32.6551 18.2285 32.8947 18.6987C33.0553 19.014 33.1152 19.3418 33.1421 19.6712C33.1682 19.991 33.1673 20.3812 33.1673 20.8342V23.1673Z" fill="#171717"/>
</svg>
