<svg width="22" height="18" viewBox="0 0 22 18" fill="none" xmlns="http://www.w3.org/2000/svg">
<path d="M20 13.4111V2.66309C20 2.62515 19.9993 2.60079 19.999 2.58203C19.997 2.57889 19.9953 2.5755 19.9932 2.57227C19.9911 2.56912 19.9883 2.56649 19.9863 2.56348C19.4655 2.3426 18.2886 2 16 2C14.163 2 12.5382 2.45782 10.9189 2.95605C9.35114 3.43846 7.685 4 6 4C4.97289 4 4.05456 3.89113 3.2793 3.74219C2.75156 3.64079 2.39976 3.57353 2.14649 3.54004C2.09732 3.53354 2.05613 3.53146 2.02247 3.52832C2.02038 3.54972 2.01658 3.57456 2.01465 3.60352C2.00035 3.81876 2 4.11986 2 4.58887V15.417C2.00222 15.4205 2.00448 15.4241 2.00684 15.4277C2.00864 15.4305 2.01093 15.4329 2.0127 15.4355C2.53289 15.6564 3.70971 16 6 16C7.83704 16 9.46178 15.5422 11.0811 15.0439C12.6489 14.5615 14.315 14 16 14C17.0271 14 17.9454 14.1089 18.7207 14.2578C19.2484 14.3592 19.6002 14.4265 19.8535 14.46C19.9022 14.4664 19.9431 14.4676 19.9766 14.4707C19.9786 14.4495 19.9835 14.425 19.9854 14.3965C19.9997 14.1812 20 13.8801 20 13.4111ZM1.95704 15.4131C1.95559 15.4123 1.95427 15.4117 1.95313 15.4111C1.9488 15.409 1.94686 15.4086 1.9502 15.4102C1.95205 15.411 1.95418 15.4118 1.95704 15.4131ZM4 12V8C4 7.44772 4.44772 7 5 7C5.55229 7 6 7.44772 6 8V12C6 12.5523 5.55229 13 5 13C4.44772 13 4.00001 12.5523 4 12ZM12.5 9C12.5 8.17157 11.8284 7.5 11 7.5C10.1716 7.5 9.5 8.17157 9.5 9C9.5 9.82843 10.1716 10.5 11 10.5C11.8284 10.5 12.5 9.82843 12.5 9ZM16 10V6C16 5.44772 16.4477 5 17 5C17.5523 5 18 5.44772 18 6V10C18 10.5523 17.5523 11 17 11C16.4477 11 16 10.5523 16 10ZM20.0469 2.58887C20.0512 2.59101 20.0531 2.59136 20.0498 2.58984C20.0479 2.58897 20.046 2.58729 20.043 2.58594C20.0446 2.58676 20.0456 2.58825 20.0469 2.58887ZM14.5 9C14.5 10.933 12.933 12.5 11 12.5C9.06701 12.5 7.50001 10.933 7.5 9C7.5 7.067 9.06701 5.5 11 5.5C12.933 5.5 14.5 7.067 14.5 9ZM22 13.4111C22 13.8509 22.0002 14.2318 21.9805 14.5293C21.9625 14.7998 21.9222 15.178 21.7275 15.5117C21.6215 15.6935 21.4833 15.886 21.2803 16.0537C21.0774 16.2213 20.8625 16.3208 20.6641 16.3906C20.2855 16.5238 19.8713 16.4803 19.5918 16.4434C19.2665 16.4004 18.8456 16.3191 18.3438 16.2227C17.6775 16.0946 16.8858 16 16 16C14.6851 16 13.3511 16.4385 11.6689 16.9561C10.0383 17.4578 8.16288 18 6 18C3.45447 18 1.98381 17.6106 1.16407 17.249C1.12568 17.2321 1.02022 17.1884 0.904301 17.1123C0.79316 17.0394 0.700555 16.9566 0.619145 16.8789C0.493263 16.7587 0.388254 16.6058 0.332036 16.5195C0.275807 16.4333 0.178287 16.2751 0.119145 16.1113C-0.00257929 15.7742 4.28042e-06 15.5368 4.28458e-06 15.3369V4.58887C4.29373e-06 4.14911 -0.0002329 3.76823 0.0195355 3.4707C0.0375227 3.20016 0.0778072 2.82197 0.272465 2.48828L0.358403 2.35059C0.451589 2.21197 0.567419 2.07212 0.719731 1.94629C0.922659 1.77866 1.1375 1.67921 1.33594 1.60938C1.71453 1.47615 2.12874 1.51971 2.40821 1.55664C2.73352 1.59964 3.15444 1.68093 3.65625 1.77734C4.32253 1.90536 5.11417 2 6 2C7.31493 2 8.64893 1.56152 10.3311 1.04395C11.9617 0.542202 13.8371 0 16 0C18.5455 0 20.0162 0.389382 20.8359 0.750977C20.8743 0.767896 20.9798 0.811628 21.0957 0.887695C21.2068 0.960642 21.2995 1.0434 21.3809 1.12109C21.5067 1.24126 21.6118 1.39423 21.668 1.48047C21.7101 1.54517 21.7761 1.64998 21.8311 1.76758L21.8809 1.88867L21.9512 2.12305C22.0019 2.34159 22 2.51303 22 2.66309V13.4111Z" fill="#00A38D"/>
</svg>
