<svg width="100" height="100" viewBox="0 0 100 100" fill="none" xmlns="http://www.w3.org/2000/svg">
<path d="M88.7373 37.01C86.9627 35.6326 84.6772 35.1791 82.4669 35.7714L79.3042 36.6188L76.216 25.0935C74.027 16.9238 65.474 12.0898 57.153 14.3194L36.8419 19.7617C36.0638 19.9702 35.2372 19.9976 34.452 19.8445L22.4782 17.4835C21.1694 17.2272 19.7936 17.2711 18.4956 17.6189L11.7879 19.4163C5.3115 21.1516 1.43117 27.7324 3.13408 34.0878L15.4868 80.1888C17.6759 88.3585 26.2288 93.1925 34.5498 90.9629L80.0218 78.7787C86.7396 76.9787 91.4112 71.1776 91.6515 64.2663L91.3906 42.6731C91.4688 40.4427 90.4991 38.3802 88.7373 37.01ZM18.8407 79.2901L6.48797 33.1891C5.2721 28.6514 8.04183 23.9493 12.6668 22.7101L19.3746 20.9127C20.1527 20.7042 20.9793 20.6769 21.7645 20.83L33.7383 23.1909C35.0472 23.4473 36.4229 23.4034 37.7209 23.0556L58.032 17.6132C64.505 15.8788 71.1559 19.6378 72.8588 25.9931L75.947 37.5184L36.0861 48.1991C31.0888 49.5381 27.4624 53.8203 27.0584 58.9261L25.89 87.2058C22.5282 85.8478 19.8353 83.0153 18.8382 79.2943L18.8407 79.2901ZM87.9236 42.6667L88.1845 64.26C87.9984 69.5757 84.3615 74.0866 79.1361 75.4867L33.6675 87.67C32.2085 88.0609 30.7427 88.1713 29.3303 88.038L30.5214 59.0923C30.8064 55.5007 33.3956 52.4458 36.9675 51.4887L83.345 39.0619C84.4854 38.7563 85.6576 38.9858 86.5733 39.6933C87.4721 40.3913 87.9673 41.448 87.9227 42.6635L87.9236 42.6667Z" fill="#A2ACBC"/>
</svg>
