<svg width="14" height="12" viewBox="0 0 14 12" fill="none" xmlns="http://www.w3.org/2000/svg">
<path d="M2.66662 11.3333V2.27604L1.13797 3.80469C0.877621 4.06504 0.455612 4.06504 0.195262 3.80469C-0.0650874 3.54434 -0.0650874 3.12233 0.195262 2.86198L2.86193 0.195312L2.91271 0.14974C3.17456 -0.0638274 3.56056 -0.0487648 3.80464 0.195312L6.4713 2.86198C6.73165 3.12233 6.73165 3.54434 6.4713 3.80469C6.21095 4.06504 5.78895 4.06504 5.5286 3.80469L3.99995 2.27604V11.3333C3.99995 11.7015 3.70147 12 3.33328 12C2.96509 12 2.66662 11.7015 2.66662 11.3333ZM9.33328 0.666667C9.33328 0.298477 9.63176 0 9.99995 0C10.3681 0 10.6666 0.298477 10.6666 0.666667V9.72396L12.1953 8.19531C12.4556 7.93496 12.8776 7.93496 13.138 8.19531C13.3983 8.45566 13.3983 8.87767 13.138 9.13802L10.4713 11.8047C10.211 12.065 9.78895 12.065 9.5286 11.8047L6.86193 9.13802C6.60158 8.87767 6.60158 8.45566 6.86193 8.19531C7.12228 7.93496 7.54429 7.93496 7.80464 8.19531L9.33328 9.72396V0.666667Z" fill="#A4A4A4"/>
</svg>
