<svg width="19" height="22" viewBox="0 0 19 22" fill="none" xmlns="http://www.w3.org/2000/svg">
<path d="M11.3333 1.26953V5.40007C11.3333 5.96012 11.3333 6.24015 11.4422 6.45406C11.5381 6.64222 11.6911 6.7952 11.8793 6.89108C12.0932 7.00007 12.3732 7.00007 12.9333 7.00007H17.0638M5.33325 14V17M13.3333 12V17M9.33325 9.5V17M17.3333 8.98822V16.2C17.3333 17.8802 17.3333 18.7202 17.0063 19.362C16.7187 19.9265 16.2597 20.3854 15.6952 20.673C15.0535 21 14.2134 21 12.5333 21H6.13325C4.45309 21 3.61302 21 2.97128 20.673C2.40679 20.3854 1.94785 19.9265 1.66023 19.362C1.33325 18.7202 1.33325 17.8802 1.33325 16.2V5.8C1.33325 4.11984 1.33325 3.27976 1.66023 2.63803C1.94785 2.07354 2.40679 1.6146 2.97128 1.32698C3.61302 1 4.45309 1 6.13325 1H9.34503C10.0788 1 10.4457 1 10.7909 1.08289C11.0971 1.15638 11.3897 1.27759 11.6581 1.44208C11.9609 1.6276 12.2203 1.88703 12.7391 2.40589L15.9274 5.59411C16.4462 6.11297 16.7056 6.3724 16.8912 6.67515C17.0557 6.94356 17.1769 7.2362 17.2504 7.5423C17.3333 7.88757 17.3333 8.25445 17.3333 8.98822Z" stroke="#9799A1" stroke-width="2" stroke-linecap="round" stroke-linejoin="round"/>
</svg>
