<svg width="0" height="0" class="hidden">
  <symbol fill="none" xmlns="http://www.w3.org/2000/svg" viewBox="0 0 24 24" id="empty_wallet">
    <svg width="24" height="24" viewBox="0 0 24 24" fill="none" xmlns="http://www.w3.org/2000/svg">
      <path opacity="0.4" d="M2.5 12.41V7.84004C2.5 6.65004 3.23 5.59 4.34 5.17L12.28 2.17C13.52 1.7 14.85 2.62003 14.85 3.95003V7.75002" stroke="black" stroke-width="1.5" stroke-linecap="round" stroke-linejoin="round"/>
      <path d="M18.04 13.55C17.62 13.96 17.38 14.55 17.44 15.18C17.53 16.26 18.52 17.05 19.6 17.05H21.5V18.24C21.5 20.31 19.81 22 17.74 22H6.26C4.19 22 2.5 20.31 2.5 18.24V11.51C2.5 9.44001 4.19 7.75 6.26 7.75H17.74C19.81 7.75 21.5 9.44001 21.5 11.51V12.95H19.48C18.92 12.95 18.41 13.17 18.04 13.55Z" stroke="black" stroke-width="1.5" stroke-linecap="round" stroke-linejoin="round"/>
      <path d="M22.56 13.97V16.03C22.56 16.58 22.12 17.03 21.56 17.05H19.6C18.52 17.05 17.53 16.26 17.44 15.18C17.38 14.55 17.62 13.96 18.04 13.55C18.41 13.17 18.92 12.95 19.48 12.95H21.56C22.12 12.97 22.56 13.42 22.56 13.97Z" stroke="black" stroke-width="1.5" stroke-linecap="round" stroke-linejoin="round"/>
      <path opacity="0.4" d="M7 12H14" stroke="black" stroke-width="1.5" stroke-linecap="round" stroke-linejoin="round"/>
    </svg>
  </symbol>
  <symbol fill="none" xmlns="http://www.w3.org/2000/svg" viewBox="0 0 24 24" id="refresh_right_square">
    <svg width="24" height="24" viewBox="0 0 24 24" fill="none" xmlns="http://www.w3.org/2000/svg">
      <path d="M9 22H15C20 22 22 20 22 15V9C22 4 20 2 15 2H9C4 2 2 4 2 9V15C2 20 4 22 9 22Z" stroke="black" stroke-width="1.5" stroke-linecap="round" stroke-linejoin="round"/>
      <g opacity="0.4">
      <path d="M13.67 7.51001C13.17 7.36001 12.62 7.26001 12 7.26001C9.24 7.26001 7 9.50001 7 12.26C7 15.02 9.24 17.26 12 17.26C14.76 17.26 17 15.02 17 12.26C17 11.23 16.69 10.28 16.16 9.48001" stroke="black" stroke-width="1.5" stroke-linecap="round" stroke-linejoin="round"/>
      <path d="M14.3802 7.64999L12.7202 5.73999" stroke="black" stroke-width="1.5" stroke-linecap="round" stroke-linejoin="round"/>
      <path d="M14.3799 7.65002L12.4399 9.07002" stroke="black" stroke-width="1.5" stroke-linecap="round" stroke-linejoin="round"/>
      </g>
    </svg>
  </symbol>
  <symbol fill="none" xmlns="http://www.w3.org/2000/svg" viewBox="0 0 24 24" id="briefcase">
    <svg width="24" height="24" viewBox="0 0 24 24" fill="none" xmlns="http://www.w3.org/2000/svg">
      <g opacity="0.4">
      <path d="M14 13V14C14 14.01 14 14.01 14 14.02C14 15.11 13.99 16 12 16C10.02 16 10 15.12 10 14.03V13C10 12 10 12 11 12H13C14 12 14 12 14 13Z" stroke="black" stroke-width="1.5" stroke-miterlimit="10" stroke-linecap="round" stroke-linejoin="round"/>
      <path d="M21.65 11C19.34 12.68 16.7 13.68 14 14.02" stroke="black" stroke-width="1.5" stroke-miterlimit="10" stroke-linecap="round" stroke-linejoin="round"/>
      <path d="M2.61914 11.2695C4.86914 12.8095 7.40914 13.7395 9.99914 14.0295" stroke="black" stroke-width="1.5" stroke-miterlimit="10" stroke-linecap="round" stroke-linejoin="round"/>
      </g>
      <path d="M8 22H16C20.02 22 20.74 20.39 20.95 18.43L21.7 10.43C21.97 7.99 21.27 6 17 6H7C2.73 6 2.03 7.99 2.3 10.43L3.05 18.43C3.26 20.39 3.98 22 8 22Z" stroke="black" stroke-width="1.5" stroke-miterlimit="10" stroke-linecap="round" stroke-linejoin="round"/>
      <path opacity="0.4" d="M8 6V5.2C8 3.43 8 2 11.2 2H12.8C16 2 16 3.43 16 5.2V6" stroke="black" stroke-width="1.5" stroke-miterlimit="10" stroke-linecap="round" stroke-linejoin="round"/>
    </svg>
  </symbol>
  <symbol fill="none" xmlns="http://www.w3.org/2000/svg" viewBox="0 0 24 24" id="receipt_text">
    <svg width="24" height="24" viewBox="0 0 24 24" fill="none" xmlns="http://www.w3.org/2000/svg">
      <path d="M22 6V8.42C22 10 21 11 19.42 11H16V4.01C16 2.9 16.91 2 18.02 2C19.11 2.01 20.11 2.45 20.83 3.17C21.55 3.9 22 4.9 22 6Z" stroke="black" stroke-width="1.5" stroke-miterlimit="10" stroke-linecap="round" stroke-linejoin="round"/>
      <path d="M2 7V21C2 21.83 2.93998 22.3 3.59998 21.8L5.31 20.52C5.71 20.22 6.27 20.26 6.63 20.62L8.28998 22.29C8.67998 22.68 9.32002 22.68 9.71002 22.29L11.39 20.61C11.74 20.26 12.3 20.22 12.69 20.52L14.4 21.8C15.06 22.29 16 21.82 16 21V4C16 2.9 16.9 2 18 2H7H6C3 2 2 3.79 2 6V7Z" stroke="black" stroke-width="1.5" stroke-miterlimit="10" stroke-linecap="round" stroke-linejoin="round"/>
      <path opacity="0.4" d="M6 9H12" stroke="black" stroke-width="1.5" stroke-linecap="round" stroke-linejoin="round"/>
      <path opacity="0.4" d="M6.75 13H11.25" stroke="black" stroke-width="1.5" stroke-linecap="round" stroke-linejoin="round"/>
    </svg>
  </symbol>
  <symbol fill="none" xmlns="http://www.w3.org/2000/svg" viewBox="0 0 24 24" id="chart_2">
    <svg width="24" height="25" viewBox="0 0 24 25" fill="none" xmlns="http://www.w3.org/2000/svg">
      <path d="M9 22.5H15C20 22.5 22 20.5 22 15.5V9.5C22 4.5 20 2.5 15 2.5H9C4 2.5 2 4.5 2 9.5V15.5C2 20.5 4 22.5 9 22.5Z" stroke="black" stroke-width="1.5" stroke-linecap="round" stroke-linejoin="round"/>
      <path opacity="0.4" d="M15.5 19C16.6 19 17.5 18.1 17.5 17V8C17.5 6.9 16.6 6 15.5 6C14.4 6 13.5 6.9 13.5 8V17C13.5 18.1 14.39 19 15.5 19Z" stroke="black" stroke-width="1.5" stroke-linecap="round" stroke-linejoin="round"/>
      <path opacity="0.4" d="M8.5 19C9.6 19 10.5 18.1 10.5 17V13.5C10.5 12.4 9.6 11.5 8.5 11.5C7.4 11.5 6.5 12.4 6.5 13.5V17C6.5 18.1 7.39 19 8.5 19Z" stroke="black" stroke-width="1.5" stroke-linecap="round" stroke-linejoin="round"/>
    </svg>
  </symbol>
  <symbol fill="none" xmlns="http://www.w3.org/2000/svg" viewBox="0 0 24 24" id="arrow_down">
    <svg xmlns="http://www.w3.org/2000/svg" width="24" height="24" viewBox="0 0 24 24" fill="none">
      <path d="M19.92 8.94995L13.4 15.47C12.63 16.24 11.37 16.24 10.6 15.47L4.08 8.94995" stroke="black" stroke-width="1.5" stroke-miterlimit="10" stroke-linecap="round" stroke-linejoin="round"/>
    </svg>
  </symbol>
  <symbol fill="none" xmlns="http://www.w3.org/2000/svg" viewBox="0 0 24 24" id="3dots">
    <svg xmlns="http://www.w3.org/2000/svg" width="24" height="25" viewBox="0 0 24 25" fill="none">
      <path d="M5 10.5C3.9 10.5 3 11.4 3 12.5C3 13.6 3.9 14.5 5 14.5C6.1 14.5 7 13.6 7 12.5C7 11.4 6.1 10.5 5 10.5Z" stroke="black" stroke-width="1.5"/>
      <path d="M19 10.5C17.9 10.5 17 11.4 17 12.5C17 13.6 17.9 14.5 19 14.5C20.1 14.5 21 13.6 21 12.5C21 11.4 20.1 10.5 19 10.5Z" stroke="black" stroke-width="1.5"/>
      <path opacity="0.4" d="M12 10.5C10.9 10.5 10 11.4 10 12.5C10 13.6 10.9 14.5 12 14.5C13.1 14.5 14 13.6 14 12.5C14 11.4 13.1 10.5 12 10.5Z" stroke="black" stroke-width="1.5"/>
    </svg>
  </symbol>
  <symbol fill="none" xmlns="http://www.w3.org/2000/svg" viewBox="0 0 24 24" id="back_btn">
    <svg xmlns="http://www.w3.org/2000/svg" width="24" height="24" viewBox="0 0 24 24" fill="none">
      <path d="M9.57 5.93018L3.5 12.0002L9.57 18.0702" stroke="black" stroke-width="1.5" stroke-miterlimit="10" stroke-linecap="round" stroke-linejoin="round"/>
      <path opacity="0.4" d="M20.4999 12H3.66992" stroke="black" stroke-width="1.5" stroke-miterlimit="10" stroke-linecap="round" stroke-linejoin="round"/>
    </svg>
  </symbol>
  <symbol fill="none" xmlns="http://www.w3.org/2000/svg" viewBox="0 0 24 24" id="loan_history">
    <svg xmlns="http://www.w3.org/2000/svg" width="24" height="24" viewBox="0 0 24 24" fill="none">
      <path d="M16.19 2H7.81C4.17 2 2 4.17 2 7.81V16.18C2 19.83 4.17 22 7.81 22H16.18C19.82 22 21.99 19.83 21.99 16.19V7.81C22 4.17 19.83 2 16.19 2ZM8.64 12.81L13.02 8.43H10.59C10.18 8.43 9.84 8.09 9.84 7.68C9.84 7.27 10.18 6.93 10.59 6.93H14.83C14.93 6.93 15.02 6.95 15.12 6.99C15.3 7.07 15.45 7.21 15.53 7.4C15.57 7.49 15.59 7.59 15.59 7.69V11.93C15.59 12.34 15.25 12.68 14.84 12.68C14.43 12.68 14.09 12.34 14.09 11.93V9.5L9.7 13.87C9.55 14.02 9.36 14.09 9.17 14.09C8.98 14.09 8.79 14.02 8.64 13.87C8.35 13.58 8.35 13.1 8.64 12.81ZM18.24 17.22C16.23 17.89 14.12 18.23 12 18.23C9.88 18.23 7.77 17.89 5.76 17.22C5.37 17.09 5.16 16.66 5.29 16.27C5.42 15.88 5.84 15.66 6.24 15.8C9.96 17.04 14.05 17.04 17.77 15.8C18.16 15.67 18.59 15.88 18.72 16.27C18.84 16.67 18.63 17.09 18.24 17.22Z" fill="#FF3333"/>
    </svg>
  </symbol>
  <symbol fill="none" xmlns="http://www.w3.org/2000/svg" viewBox="0 0 24 24" id="deposit_topup">
    <svg xmlns="http://www.w3.org/2000/svg" width="24" height="24" viewBox="0 0 24 24" fill="none">
      <path d="M16.19 2H7.81C4.17 2 2 4.17 2 7.81V16.18C2 19.83 4.17 22 7.81 22H16.18C19.82 22 21.99 19.83 21.99 16.19V7.81C22 4.17 19.83 2 16.19 2ZM8.64 12.81L13.02 8.43H10.59C10.18 8.43 9.84 8.09 9.84 7.68C9.84 7.27 10.18 6.93 10.59 6.93H14.83C14.93 6.93 15.02 6.95 15.12 6.99C15.3 7.07 15.45 7.21 15.53 7.4C15.57 7.49 15.59 7.59 15.59 7.69V11.93C15.59 12.34 15.25 12.68 14.84 12.68C14.43 12.68 14.09 12.34 14.09 11.93V9.5L9.7 13.87C9.55 14.02 9.36 14.09 9.17 14.09C8.98 14.09 8.79 14.02 8.64 13.87C8.35 13.58 8.35 13.1 8.64 12.81ZM18.24 17.22C16.23 17.89 14.12 18.23 12 18.23C9.88 18.23 7.77 17.89 5.76 17.22C5.37 17.09 5.16 16.66 5.29 16.27C5.42 15.88 5.84 15.66 6.24 15.8C9.96 17.04 14.05 17.04 17.77 15.8C18.16 15.67 18.59 15.88 18.72 16.27C18.84 16.67 18.63 17.09 18.24 17.22Z" fill="#FF3333"/>
    </svg>
  </symbol>
  <symbol fill="none" xmlns="http://www.w3.org/2000/svg" viewBox="0 0 24 24" id="deposit_send">
    <svg xmlns="http://www.w3.org/2000/svg" width="20" height="20" viewBox="0 0 20 20" fill="none">
      <rect width="20" height="20" rx="5" fill="#05BC74"/>
      <path fill-rule="evenodd" clip-rule="evenodd" d="M11.1525 12.0703C11.5115 12.0703 11.8025 11.7793 11.8025 11.4203C11.8025 11.0613 11.5115 10.7703 11.1525 10.7703H8.4402L13.5275 6.31957C13.7769 6.10138 13.8022 5.72232 13.584 5.47293C13.3658 5.22353 12.9867 5.19823 12.7373 5.41642L7.88165 9.66455V7.3005C7.88165 6.94152 7.59064 6.6505 7.23165 6.6505C6.87267 6.6505 6.58165 6.94152 6.58165 7.3005V11.4203C6.58165 11.7793 6.87267 12.0703 7.23165 12.0703H11.1525Z" fill="white"/>
      <path d="M4 14C4 14 6.87235 15.0231 10.5 15C14.1276 14.9769 16.5 14 16.5 14" stroke="white" stroke-width="1.4" stroke-linecap="round" stroke-linejoin="round"/>
    </svg>
  </symbol>
  <symbol fill="none" xmlns="http://www.w3.org/2000/svg" viewBox="0 0 24 24" id="details">
    <svg xmlns="http://www.w3.org/2000/svg" width="24" height="24" viewBox="0 0 24 24" fill="none">
      <path d="M12 22C17.5 22 22 17.5 22 12C22 6.5 17.5 2 12 2C6.5 2 2 6.5 2 12C2 17.5 6.5 22 12 22Z" stroke="black" stroke-width="1.5" stroke-linecap="round" stroke-linejoin="round"/>
      <path d="M12 8V13" stroke="black" stroke-width="1.5" stroke-linecap="round" stroke-linejoin="round"/>
      <path d="M11.9945 16H12.0035" stroke="black" stroke-width="2" stroke-linecap="round" stroke-linejoin="round"/>
    </svg>
  </symbol>
  <symbol fill="none" xmlns="http://www.w3.org/2000/svg" viewBox="0 0 24 24" id="cloak">
    <svg xmlns="http://www.w3.org/2000/svg" width="25" height="24" viewBox="0 0 25 24" fill="none">
      <path d="M22.3333 12C22.3333 17.52 17.8533 22 12.3333 22C6.81334 22 2.33334 17.52 2.33334 12C2.33334 6.48 6.81334 2 12.3333 2C17.8533 2 22.3333 6.48 22.3333 12Z" stroke="black" stroke-width="1.5" stroke-linecap="round" stroke-linejoin="round"/>
      <path d="M16.0433 15.1798L12.9433 13.3298C12.4033 13.0098 11.9633 12.2398 11.9633 11.6098V7.50977" stroke="#151515" stroke-width="1.5" stroke-linecap="round" stroke-linejoin="round"/>
    </svg>
  </symbol>
  <symbol fill="none" xmlns="http://www.w3.org/2000/svg" viewBox="0 0 24 24" id="schedule">
    <svg xmlns="http://www.w3.org/2000/svg" width="25" height="24" viewBox="0 0 25 24" fill="none">
      <path d="M22.6667 10V15C22.6667 20 20.6667 22 15.6667 22H9.66666C4.66666 22 2.66666 20 2.66666 15V9C2.66666 4 4.66666 2 9.66666 2H14.6667" stroke="black" stroke-width="1.5" stroke-linecap="round" stroke-linejoin="round"/>
      <path d="M22.6667 10H18.6667C15.6667 10 14.6667 9 14.6667 6V2L22.6667 10Z" stroke="black" stroke-width="1.5" stroke-linecap="round" stroke-linejoin="round"/>
      <path d="M7.66666 13H13.6667" stroke="#151515" stroke-width="1.5" stroke-linecap="round" stroke-linejoin="round"/>
      <path d="M7.66666 17H11.6667" stroke="#151515" stroke-width="1.5" stroke-linecap="round" stroke-linejoin="round"/>
    </svg>
  </symbol>
  <symbol fill="none" xmlns="http://www.w3.org/2000/svg" viewBox="0 0 24 24" id="contract">
    <svg xmlns="http://www.w3.org/2000/svg" width="24" height="24" viewBox="0 0 24 24" fill="none">
      <path d="M21 7V17C21 20 19.5 22 16 22H8C4.5 22 3 20 3 17V7C3 4 4.5 2 8 2H16C19.5 2 21 4 21 7Z" stroke="black" stroke-width="1.5" stroke-miterlimit="10" stroke-linecap="round" stroke-linejoin="round"/>
      <path opacity="0.4" d="M14.5 4.5V6.5C14.5 7.6 15.4 8.5 16.5 8.5H18.5" stroke="black" stroke-width="1.5" stroke-miterlimit="10" stroke-linecap="round" stroke-linejoin="round"/>
      <path d="M8 13H12" stroke="#151515" stroke-width="1.5" stroke-miterlimit="10" stroke-linecap="round" stroke-linejoin="round"/>
      <path d="M8 17H16" stroke="#151515" stroke-width="1.5" stroke-miterlimit="10" stroke-linecap="round" stroke-linejoin="round"/>
    </svg>
  </symbol>
  <symbol fill="none" xmlns="http://www.w3.org/2000/svg" viewBox="0 0 24 24" id="deposit_down">
   <svg xmlns="http://www.w3.org/2000/svg" width="24" height="24" viewBox="0 0 24 24" fill="none">
      <path d="M9.32031 11.6797L11.8803 14.2397L14.4403 11.6797" stroke="black" stroke-width="1.5" stroke-miterlimit="10" stroke-linecap="round" stroke-linejoin="round"/>
      <path d="M11.8809 4V14.17" stroke="black" stroke-width="1.5" stroke-miterlimit="10" stroke-linecap="round" stroke-linejoin="round"/>
      <path opacity="0.4" d="M20 12.1801C20 16.6001 17 20.1801 12 20.1801C7 20.1801 4 16.6001 4 12.1801" stroke="black" stroke-width="1.5" stroke-miterlimit="10" stroke-linecap="round" stroke-linejoin="round"/>
    </svg>
  </symbol>
  <symbol fill="none" xmlns="http://www.w3.org/2000/svg" viewBox="0 0 24 24" id="deposit_up">
    <svg xmlns="http://www.w3.org/2000/svg" width="25" height="24" viewBox="0 0 25 24" fill="none">
      <path d="M9.98697 6.50043L12.547 3.94043L15.107 6.50043" stroke="black" stroke-width="1.5" stroke-miterlimit="10" stroke-linecap="round" stroke-linejoin="round"/>
      <path d="M12.5475 14.1798V4.00977" stroke="black" stroke-width="1.5" stroke-miterlimit="10" stroke-linecap="round" stroke-linejoin="round"/>
      <path opacity="0.4" d="M4.66666 12C4.66666 16.42 7.66666 20 12.6667 20C17.6667 20 20.6667 16.42 20.6667 12" stroke="black" stroke-width="1.5" stroke-miterlimit="10" stroke-linecap="round" stroke-linejoin="round"/>
    </svg>
  </symbol>
  <symbol fill="none" xmlns="http://www.w3.org/2000/svg" viewBox="0 0 24 24" id="deposit_clock">
    <svg xmlns="http://www.w3.org/2000/svg" width="25" height="24" viewBox="0 0 25 24" fill="none">
      <path opacity="0.4" d="M22.3333 12C22.3333 17.52 17.8533 22 12.3333 22C6.81334 22 2.33334 17.52 2.33334 12C2.33334 6.48 6.81334 2 12.3333 2C17.8533 2 22.3333 6.48 22.3333 12Z" stroke="black" stroke-width="1.5" stroke-linecap="round" stroke-linejoin="round"/>
      <path d="M16.0433 15.18L12.9433 13.33C12.4033 13.01 11.9633 12.24 11.9633 11.61V7.51001" stroke="black" stroke-width="1.5" stroke-linecap="round" stroke-linejoin="round"/>
    </svg>
  </symbol>
  <symbol fill="none" xmlns="http://www.w3.org/2000/svg" viewBox="0 0 24 24" id="deposit_dots">
    <svg xmlns="http://www.w3.org/2000/svg" width="24" height="24" viewBox="0 0 24 24" fill="none">
      <path opacity="0.4" d="M10 19C10 20.1 10.9 21 12 21C13.1 21 14 20.1 14 19C14 17.9 13.1 17 12 17C10.9 17 10 17.9 10 19Z" stroke="black" stroke-width="1.5"/>
      <path opacity="0.4" d="M10 5C10 6.1 10.9 7 12 7C13.1 7 14 6.1 14 5C14 3.9 13.1 3 12 3C10.9 3 10 3.9 10 5Z" stroke="black" stroke-width="1.5"/>
      <path d="M10 12C10 13.1 10.9 14 12 14C13.1 14 14 13.1 14 12C14 10.9 13.1 10 12 10C10.9 10 10 10.9 10 12Z" stroke="black" stroke-width="1.5"/>
    </svg>
  </symbol>
  <symbol fill="none" xmlns="http://www.w3.org/2000/svg" viewBox="0 0 24 24" id="deposit_cheque_save">
    <svg xmlns="http://www.w3.org/2000/svg" width="24" height="24" viewBox="0 0 24 24" fill="none">
      <path d="M16 8.98987V20.3499C16 21.7999 14.96 22.4099 13.69 21.7099L9.76001 19.5199C9.34001 19.2899 8.65999 19.2899 8.23999 19.5199L4.31 21.7099C3.04 22.4099 2 21.7999 2 20.3499V8.98987C2 7.27987 3.39999 5.87988 5.10999 5.87988H12.89C14.6 5.87988 16 7.27987 16 8.98987Z" stroke="white" stroke-width="1.5" stroke-linecap="round" stroke-linejoin="round"/>
      <path opacity="0.4" d="M22 5.10999V16.47C22 17.92 20.96 18.53 19.69 17.83L16 15.77V8.98999C16 7.27999 14.6 5.88 12.89 5.88H8V5.10999C8 3.39999 9.39999 2 11.11 2H18.89C20.6 2 22 3.39999 22 5.10999Z" stroke="white" stroke-width="1.5" stroke-linecap="round" stroke-linejoin="round"/>
      <g opacity="0.4">
        <path d="M7 12H11" stroke="white" stroke-width="1.5" stroke-linecap="round" stroke-linejoin="round"/>
        <path d="M9 14V10" stroke="white" stroke-width="1.5" stroke-linecap="round" stroke-linejoin="round"/>
      </g>
    </svg>
  </symbol>
  <symbol fill="none" xmlns="http://www.w3.org/2000/svg" viewBox="0 0 24 24" id="deposit_cheque_pdf">
    <svg xmlns="http://www.w3.org/2000/svg" width="24" height="24" viewBox="0 0 24 24" fill="none">
      <path d="M21 7V17C21 20 19.5 22 16 22H8C4.5 22 3 20 3 17V7C3 4 4.5 2 8 2H16C19.5 2 21 4 21 7Z" stroke="white" stroke-width="1.5" stroke-miterlimit="10" stroke-linecap="round" stroke-linejoin="round"/>
      <path opacity="0.4" d="M14.5 4.5V6.5C14.5 7.6 15.4 8.5 16.5 8.5H18.5" stroke="white" stroke-width="1.5" stroke-miterlimit="10" stroke-linecap="round" stroke-linejoin="round"/>
      <path opacity="0.4" d="M8 13H12" stroke="white" stroke-width="1.5" stroke-miterlimit="10" stroke-linecap="round" stroke-linejoin="round"/>
      <path opacity="0.4" d="M8 17H16" stroke="white" stroke-width="1.5" stroke-miterlimit="10" stroke-linecap="round" stroke-linejoin="round"/>
    </svg>
  </symbol>
  <symbol fill="none" xmlns="http://www.w3.org/2000/svg" viewBox="0 0 24 24" id="deposit_cheque_share">
    <svg xmlns="http://www.w3.org/2000/svg" width="17" height="20" viewBox="0 0 17 20" fill="none">
      <path d="M6 9.5C6 10.163 5.73661 10.7989 5.26777 11.2678C4.79893 11.7366 4.16304 12 3.5 12C2.83696 12 2.20107 11.7366 1.73223 11.2678C1.26339 10.7989 1 10.163 1 9.5C1 8.83696 1.26339 8.20107 1.73223 7.73223C2.20107 7.26339 2.83696 7 3.5 7C4.16304 7 4.79893 7.26339 5.26777 7.73223C5.73661 8.20107 6 8.83696 6 9.5Z" stroke="white" stroke-width="1.5"/>
      <path opacity="0.4" d="M11.32 14.8021L6 11.2901M11.42 4.84009L6.1 8.35009" stroke="white" stroke-width="1.5" stroke-linecap="round"/>
      <path d="M16 16.5C16 17.163 15.7366 17.7989 15.2678 18.2678C14.7989 18.7366 14.163 19 13.5 19C12.837 19 12.2011 18.7366 11.7322 18.2678C11.2634 17.7989 11 17.163 11 16.5C11 15.837 11.2634 15.2011 11.7322 14.7322C12.2011 14.2634 12.837 14 13.5 14C14.163 14 14.7989 14.2634 15.2678 14.7322C15.7366 15.2011 16 15.837 16 16.5ZM16 3.5C16 4.16304 15.7366 4.79893 15.2678 5.26777C14.7989 5.73661 14.163 6 13.5 6C12.837 6 12.2011 5.73661 11.7322 5.26777C11.2634 4.79893 11 4.16304 11 3.5C11 2.83696 11.2634 2.20107 11.7322 1.73223C12.2011 1.26339 12.837 1 13.5 1C14.163 1 14.7989 1.26339 15.2678 1.73223C15.7366 2.20107 16 2.83696 16 3.5Z" stroke="white" stroke-width="1.5"/>
    </svg>
  </symbol>
  <symbol fill="none" xmlns="http://www.w3.org/2000/svg" viewBox="0 0 24 24" id="payment_plus">
    <svg xmlns="http://www.w3.org/2000/svg" width="24" height="24" viewBox="0 0 24 24" fill="none">
      <path opacity="0.4" d="M6 12H18" stroke="#007AFF" stroke-width="1.5" stroke-linecap="round" stroke-linejoin="round"/>
      <path d="M12 18V6" stroke="#007AFF" stroke-width="1.5" stroke-linecap="round" stroke-linejoin="round"/>
    </svg>
  </symbol>
  <symbol fill="none" xmlns="http://www.w3.org/2000/svg" viewBox="0 0 24 24" id="payment_plus_white">
    <svg xmlns="http://www.w3.org/2000/svg" width="24" height="24" viewBox="0 0 24 24" fill="none">
      <path opacity="0.4" d="M6 12H18" stroke="white" stroke-width="1.5" stroke-linecap="round" stroke-linejoin="round"/>
      <path d="M12 18V6" stroke="white" stroke-width="1.5" stroke-linecap="round" stroke-linejoin="round"/>
    </svg>
  </symbol>
  <symbol fill="none" xmlns="http://www.w3.org/2000/svg" viewBox="0 0 24 24" id="more">
    <svg xmlns="http://www.w3.org/2000/svg" width="24" height="25" viewBox="0 0 24 25" fill="none">
      <path d="M5 10.5C3.9 10.5 3 11.4 3 12.5C3 13.6 3.9 14.5 5 14.5C6.1 14.5 7 13.6 7 12.5C7 11.4 6.1 10.5 5 10.5Z" stroke="black" stroke-width="1.5"/>
      <path d="M19 10.5C17.9 10.5 17 11.4 17 12.5C17 13.6 17.9 14.5 19 14.5C20.1 14.5 21 13.6 21 12.5C21 11.4 20.1 10.5 19 10.5Z" stroke="black" stroke-width="1.5"/>
      <path opacity="0.4" d="M12 10.5C10.9 10.5 10 11.4 10 12.5C10 13.6 10.9 14.5 12 14.5C13.1 14.5 14 13.6 14 12.5C14 11.4 13.1 10.5 12 10.5Z" stroke="black" stroke-width="1.5"/>
    </svg>
  </symbol>
  <symbol fill="none" xmlns="http://www.w3.org/2000/svg" viewBox="0 0 24 24" id="payment_close">
    <svg xmlns="http://www.w3.org/2000/svg" width="24" height="24" viewBox="0 0 24 24" fill="none">
      <path d="M12 22C17.5 22 22 17.5 22 12C22 6.5 17.5 2 12 2C6.5 2 2 6.5 2 12C2 17.5 6.5 22 12 22Z" stroke="black" stroke-width="1.5" stroke-linecap="round" stroke-linejoin="round"/>
      <g opacity="0.4">
        <path d="M9.16992 14.8299L14.8299 9.16992" stroke="black" stroke-width="1.5" stroke-linecap="round" stroke-linejoin="round"/>
        <path d="M14.8299 14.8299L9.16992 9.16992" stroke="black" stroke-width="1.5" stroke-linecap="round" stroke-linejoin="round"/>
      </g>
    </svg>
  </symbol>
  <symbol fill="none" xmlns="http://www.w3.org/2000/svg" viewBox="0 0 24 24" id="filter">
    <path opacity="0.4" d="M10.93 2.1001L6 10.0001" stroke="#007AFF" stroke-width="1.5" stroke-miterlimit="10" stroke-linecap="round" stroke-linejoin="round"></path>
    <path d="M5.40002 2.1001H18.6C19.7 2.1001 20.6 3.0001 20.6 4.1001V6.3001C20.6 7.1001 20.1 8.1001 19.6 8.6001L15.3 12.4001C14.7 12.9001 14.3 13.9001 14.3 14.7001V19.0001C14.3 19.6001 13.9 20.4001 13.4 20.7001L12 21.6001C10.7 22.4001 8.90002 21.5001 8.90002 19.9001V14.6001C8.90002 13.9001 8.50002 13.0001 8.10002 12.5001L4.30002 8.5001C3.80002 8.0001 3.40002 7.1001 3.40002 6.5001V4.2001C3.40002 3.0001 4.30002 2.1001 5.40002 2.1001Z" stroke="#007AFF" stroke-width="1.5" stroke-miterlimit="10" stroke-linecap="round" stroke-linejoin="round"></path>
  </symbol>
  <symbol fill="none" xmlns="http://www.w3.org/2000/svg" viewBox="0 0 24 24" id="salary_actions">
    <svg xmlns="http://www.w3.org/2000/svg" width="24" height="24" viewBox="0 0 24 24" fill="none">
      <path d="M5 10C3.9 10 3 10.9 3 12C3 13.1 3.9 14 5 14C6.1 14 7 13.1 7 12C7 10.9 6.1 10 5 10Z" stroke="#6F7977" stroke-width="1.5"/>
      <path d="M19 10C17.9 10 17 10.9 17 12C17 13.1 17.9 14 19 14C20.1 14 21 13.1 21 12C21 10.9 20.1 10 19 10Z" stroke="#6F7977" stroke-width="1.5"/>
      <path opacity="0.4" d="M12 10C10.9 10 10 10.9 10 12C10 13.1 10.9 14 12 14C13.1 14 14 13.1 14 12C14 10.9 13.1 10 12 10Z" stroke="black" stroke-width="1.5"/>
    </svg>
  </symbol>
  <symbol fill="none" xmlns="http://www.w3.org/2000/svg" viewBox="0 0 24 24" id="salary_close">
    <svg xmlns="http://www.w3.org/2000/svg" width="24" height="24" viewBox="0 0 24 24" fill="none">
      <path d="M12 22C17.5 22 22 17.5 22 12C22 6.5 17.5 2 12 2C6.5 2 2 6.5 2 12C2 17.5 6.5 22 12 22Z" stroke="#007AFF" stroke-width="1.5" stroke-linecap="round" stroke-linejoin="round"/>
      <g opacity="0.4">
        <path d="M9.16992 14.8299L14.8299 9.16992" stroke="#007AFF" stroke-width="1.5" stroke-linecap="round" stroke-linejoin="round"/>
        <path d="M14.8299 14.8299L9.16992 9.16992" stroke="#007AFF" stroke-width="1.5" stroke-linecap="round" stroke-linejoin="round"/>
      </g>
    </svg>
  </symbol>
  <symbol fill="none" xmlns="http://www.w3.org/2000/svg" viewBox="0 0 24 24" id="add">
    <path opacity="0.4" d="M6 12H18" stroke="black" stroke-width="1.5" stroke-linecap="round" stroke-linejoin="round"></path>
    <path d="M12 18V6" stroke="black" stroke-width="1.5" stroke-linecap="round" stroke-linejoin="round"></path>
  </symbol>
  <symbol fill="none" xmlns="http://www.w3.org/2000/svg" viewBox="0 0 24 24" id="buildings">
    <path d="M13 22H5C3 22 2 21 2 19V11C2 9 3 8 5 8H10V19C10 21 11 22 13 22Z" stroke="black" stroke-width="1.5" stroke-miterlimit="10" stroke-linecap="round" stroke-linejoin="round"></path>
    <path opacity="0.4" d="M10.11 4C10.03 4.3 10 4.63 10 5V8H5V6C5 4.9 5.9 4 7 4H10.11Z" stroke="black" stroke-width="1.5" stroke-miterlimit="10" stroke-linecap="round" stroke-linejoin="round"></path>
    <path opacity="0.4" d="M14 8V13" stroke="black" stroke-width="1.5" stroke-miterlimit="10" stroke-linecap="round" stroke-linejoin="round"></path>
    <path opacity="0.4" d="M18 8V13" stroke="black" stroke-width="1.5" stroke-miterlimit="10" stroke-linecap="round" stroke-linejoin="round"></path>
    <path d="M17 17H15C14.45 17 14 17.45 14 18V22H18V18C18 17.45 17.55 17 17 17Z" stroke="black" stroke-width="1.5" stroke-miterlimit="10" stroke-linecap="round" stroke-linejoin="round"></path>
    <path opacity="0.4" d="M6 13V17" stroke="black" stroke-width="1.5" stroke-miterlimit="10" stroke-linecap="round" stroke-linejoin="round"></path>
    <path d="M10 19V5C10 3 11 2 13 2H19C21 2 22 3 22 5V19C22 21 21 22 19 22H13C11 22 10 21 10 19Z" stroke="black" stroke-width="1.5" stroke-miterlimit="10" stroke-linecap="round" stroke-linejoin="round"></path>
  </symbol>
  <symbol fill="none" xmlns="http://www.w3.org/2000/svg" viewBox="0 0 24 24" id="more-light">
    <path d="M5 10C3.9 10 3 10.9 3 12C3 13.1 3.9 14 5 14C6.1 14 7 13.1 7 12C7 10.9 6.1 10 5 10Z" stroke="white" stroke-width="1.5"></path>
    <path d="M19 10C17.9 10 17 10.9 17 12C17 13.1 17.9 14 19 14C20.1 14 21 13.1 21 12C21 10.9 20.1 10 19 10Z" stroke="white" stroke-width="1.5"></path>
    <path opacity="0.4" d="M12 10C10.9 10 10 10.9 10 12C10 13.1 10.9 14 12 14C13.1 14 14 13.1 14 12C14 10.9 13.1 10 12 10Z" stroke="white" stroke-width="1.5"></path>
  </symbol>
  <symbol fill="none" xmlns="http://www.w3.org/2000/svg" viewBox="0 0 24 24" id="edit-2">
    <path d="M21 22H3C2.59 22 2.25 21.66 2.25 21.25C2.25 20.84 2.59 20.5 3 20.5H21C21.41 20.5 21.75 20.84 21.75 21.25C21.75 21.66 21.41 22 21 22Z" fill="black"></path>
    <path d="M19.02 3.47991C17.08 1.53991 15.18 1.48991 13.19 3.47991L11.98 4.68991C11.88 4.78991 11.84 4.94991 11.88 5.08991C12.64 7.73991 14.76 9.85991 17.41 10.6199C17.45 10.6299 17.49 10.6399 17.53 10.6399C17.64 10.6399 17.74 10.5999 17.82 10.5199L19.02 9.30991C20.01 8.32991 20.49 7.37991 20.49 6.41991C20.5 5.42991 20.02 4.46991 19.02 3.47991Z" fill="black"></path>
    <path d="M15.61 11.53C15.32 11.39 15.04 11.25 14.77 11.09C14.55 10.96 14.34 10.82 14.13 10.67C13.96 10.56 13.76 10.4 13.57 10.24C13.55 10.23 13.48 10.17 13.4 10.09C13.07 9.81005 12.7 9.45005 12.37 9.05005C12.34 9.03005 12.29 8.96005 12.22 8.87005C12.12 8.75005 11.95 8.55005 11.8 8.32005C11.68 8.17005 11.54 7.95005 11.41 7.73005C11.25 7.46005 11.11 7.19005 10.97 6.91005C10.9488 6.86465 10.9283 6.81949 10.9085 6.77458C10.7609 6.44127 10.3262 6.34382 10.0685 6.60158L4.34001 12.33C4.21001 12.46 4.09001 12.71 4.06001 12.88L3.52001 16.71C3.42001 17.39 3.61001 18.03 4.03001 18.46C4.39001 18.81 4.89001 19 5.43001 19C5.55001 19 5.67001 18.99 5.79001 18.97L9.63001 18.43C9.81001 18.4 10.06 18.28 10.18 18.15L15.9013 12.4287C16.1609 12.1692 16.063 11.7237 15.7254 11.5797C15.6874 11.5634 15.6489 11.5469 15.61 11.53Z" fill="black"></path>
  </symbol>

    <symbol fill="none" xmlns="http://www.w3.org/2000/svg" viewBox="0 0 24 24" id="trash">
      <path d="M21 5.97998C17.67 5.64998 14.32 5.47998 10.98 5.47998C9 5.47998 7.02 5.57998 5.04 5.77998L3 5.97998" stroke="black" stroke-width="1.5" stroke-linecap="round" stroke-linejoin="round"></path>
      <path opacity="0.34" d="M8.5 4.97L8.72 3.66C8.88 2.71 9 2 10.69 2H13.31C15 2 15.13 2.75 15.28 3.67L15.5 4.97" stroke="black" stroke-width="1.5" stroke-linecap="round" stroke-linejoin="round"></path>
      <path d="M18.85 9.13989L18.2 19.2099C18.09 20.7799 18 21.9999 15.21 21.9999H8.78999C5.99999 21.9999 5.90999 20.7799 5.79999 19.2099L5.14999 9.13989" stroke="black" stroke-width="1.5" stroke-linecap="round" stroke-linejoin="round"></path>
      <path opacity="0.34" d="M10.33 16.5H13.66" stroke="black" stroke-width="1.5" stroke-linecap="round" stroke-linejoin="round"></path>
      <path opacity="0.34" d="M9.5 12.5H14.5" stroke="black" stroke-width="1.5" stroke-linecap="round" stroke-linejoin="round"></path>
    </symbol>
  <symbol fill="none" xmlns="http://www.w3.org/2000/svg" id="faq_minus">
    <svg width="40" height="40" viewBox="0 0 40 40" fill="none" xmlns="http://www.w3.org/2000/svg">
      <rect width="40" height="40" rx="8" fill="#F2F3F5"/>
      <path d="M27.2 20L12.8 20" stroke="black" stroke-width="2" stroke-linecap="round"/>
    </svg>
  </symbol>
  <symbol fill="none" xmlns="http://www.w3.org/2000/svg" id="faq_plus">
    <svg width="40" height="40" viewBox="0 0 40 40" fill="none" xmlns="http://www.w3.org/2000/svg">
      <rect width="40" height="40" rx="8" fill="#F2F3F5"/>
      <path d="M20.0001 12.8L20 27.2M27.2 20L12.8 20" stroke="black" stroke-width="2" stroke-linecap="round"/>
    </svg>
  </symbol>
  <symbol fill="none" xmlns="http://www.w3.org/2000/svg" id="chat_send">
    <svg height="24" viewBox="0 0 24 24" width="24" xmlns="http://www.w3.org/2000/svg"><g fill="#007AFF" fill-rule="nonzero"><path d="m3.45559904 3.48107721 3.26013002 7.74280879c.20897233.4963093.20897233 1.0559187 0 1.552228l-3.26013002 7.7428088 18.83130296-8.5189228zm-.74951511-1.43663117 20.99999997 9.49999996c.3918881.1772827.3918881.7338253 0 .911108l-20.99999997 9.5c-.41424571.1873968-.8433362-.2305504-.66690162-.6495825l3.75491137-8.9179145c.10448617-.2481546.10448617-.5279594 0-.776114l-3.75491137-8.9179145c-.17643458-.41903214.25265591-.83697933.66690162-.64958246z"/><path d="m6 12.5v-1h16.5v1z"/></g></svg>
  </symbol>
  <symbol fill="none" xmlns="http://www.w3.org/2000/svg" id="chat_send-grey">
    <svg height="24" viewBox="0 0 24 24" width="24" xmlns="http://www.w3.org/2000/svg"><g fill="#8c8c8c" fill-rule="nonzero"><path d="m3.45559904 3.48107721 3.26013002 7.74280879c.20897233.4963093.20897233 1.0559187 0 1.552228l-3.26013002 7.7428088 18.83130296-8.5189228zm-.74951511-1.43663117 20.99999997 9.49999996c.3918881.1772827.3918881.7338253 0 .911108l-20.99999997 9.5c-.41424571.1873968-.8433362-.2305504-.66690162-.6495825l3.75491137-8.9179145c.10448617-.2481546.10448617-.5279594 0-.776114l-3.75491137-8.9179145c-.17643458-.41903214.25265591-.83697933.66690162-.64958246z"/><path d="m6 12.5v-1h16.5v1z"/></g></svg>
  </symbol>
    <symbol fill="none" xmlns="http://www.w3.org/2000/svg" viewBox="0 0 24 24" id="excel-download">
      <g opacity="0.4">
        <path d="M9 11V17" stroke="#007AFF" stroke-width="1.5" stroke-linecap="round" stroke-linejoin="round"></path>
        <path d="M9 17L11 15" stroke="#007AFF" stroke-width="1.5" stroke-linecap="round" stroke-linejoin="round"></path>
        <path d="M9 17L7 15" stroke="#007AFF" stroke-width="1.5" stroke-linecap="round" stroke-linejoin="round"></path>
      </g>
      <path d="M22 10V15C22 20 20 22 15 22H9C4 22 2 20 2 15V9C2 4 4 2 9 2H14" stroke="#007AFF" stroke-width="1.5" stroke-linecap="round" stroke-linejoin="round"></path>
      <path d="M22 10H18C15 10 14 9 14 6V2L22 10Z" stroke="#007AFF" stroke-width="1.5" stroke-linecap="round" stroke-linejoin="round"></path>
    </symbol>
    <symbol fill="none" xmlns="http://www.w3.org/2000/svg" viewBox="0 0 24 24" id="excel-upload">
      <g opacity="0.4">
        <path d="M9 17V11" stroke="#007AFF" stroke-width="1.5" stroke-linecap="round" stroke-linejoin="round"></path>
        <path d="M9 11L7 13" stroke="#007AFF" stroke-width="1.5" stroke-linecap="round" stroke-linejoin="round"></path>
        <path d="M9 11L11 13" stroke="#007AFF" stroke-width="1.5" stroke-linecap="round" stroke-linejoin="round"></path>
      </g>
      <path d="M22 10V15C22 20 20 22 15 22H9C4 22 2 20 2 15V9C2 4 4 2 9 2H14" stroke="#007AFF" stroke-width="1.5" stroke-linecap="round" stroke-linejoin="round"></path>
      <path d="M22 10H18C15 10 14 9 14 6V2L22 10Z" stroke="#007AFF" stroke-width="1.5" stroke-linecap="round" stroke-linejoin="round"></path>
    </symbol>
    <symbol fill="none" xmlns="http://www.w3.org/2000/svg" viewBox="0 0 24 24" id="more-vertical">
      <path d="M12.5 14C13.3284 14 14 13.3284 14 12.5C14 11.6716 13.3284 11 12.5 11C11.6716 11 11 11.6716 11 12.5C11 13.3284 11.6716 14 12.5 14Z" fill="#8B97A2"></path>
      <path d="M12.5 7C13.3284 7 14 6.32843 14 5.5C14 4.67157 13.3284 4 12.5 4C11.6716 4 11 4.67157 11 5.5C11 6.32843 11.6716 7 12.5 7Z" fill="#8B97A2"></path>
      <path d="M12.5 21C13.3284 21 14 20.3284 14 19.5C14 18.6716 13.3284 18 12.5 18C11.6716 18 11 18.6716 11 19.5C11 20.3284 11.6716 21 12.5 21Z" fill="#8B97A2"></path>
    </symbol>

</svg>
