<svg width="20" height="22" viewBox="0 0 20 22" fill="none" xmlns="http://www.w3.org/2000/svg">
<path d="M4 7.94519V9.63809C4 10.34 4.52258 10.8355 5.16129 10.8355H14.8387C15.4774 10.8355 16 10.34 16 9.63809V7.94519H4Z" fill="#1EB53A"/>
<path d="M14.8387 2.16455H5.16129C4.52258 2.16455 4 2.66003 4 3.36197V5.05487H16V3.36197C16 2.66003 15.4774 2.16455 14.8387 2.16455Z" fill="#0099B5"/>
<path d="M16 5.05481H4V7.94513H16V5.05481Z" fill="#F3F5F8"/>
<path d="M16 4.84839H4V5.05484H16V4.84839Z" fill="#CE1126"/>
<path d="M16 7.94519H4V8.15164H16V7.94519Z" fill="#CE1126"/>
<path d="M5.81945 2.74257C5.78074 2.74257 5.74203 2.72192 5.70332 2.72192C5.29687 2.72192 4.94849 3.07289 4.94849 3.52709C4.94849 3.98128 5.27752 4.33225 5.70332 4.33225C5.74203 4.33225 5.78074 4.33225 5.81945 4.31161C5.47107 4.24967 5.2001 3.91935 5.2001 3.52709C5.2001 3.11418 5.47107 2.8045 5.81945 2.74257Z" fill="white"/>
<path d="M6.18725 4.10506L6.14855 4.00183L6.10984 4.10506H6.01306L6.09048 4.18764L6.07113 4.29086L6.14855 4.22893L6.24532 4.29086L6.20661 4.18764L6.30338 4.10506H6.18725Z" fill="white"/>
<path d="M6.78711 4.10506L6.7484 4.00183L6.70969 4.10506H6.61292L6.69033 4.18764L6.67098 4.29086L6.7484 4.22893L6.84517 4.29086L6.80646 4.18764L6.88388 4.10506H6.78711Z" fill="white"/>
<path d="M7.38733 4.10506L7.34862 4.00183L7.30991 4.10506H7.21313L7.29055 4.18764L7.25184 4.29086L7.34862 4.22893L7.44539 4.29086L7.40668 4.18764L7.4841 4.10506H7.38733Z" fill="white"/>
<path d="M7.98718 4.10506L7.94847 4.00183L7.90976 4.10506H7.81299L7.89041 4.18764L7.8517 4.29086L7.94847 4.22893L8.04525 4.29086L8.00654 4.18764L8.08396 4.10506H7.98718Z" fill="white"/>
<path d="M8.5874 4.10506L8.54869 4.00183L8.50998 4.10506H8.41321L8.49063 4.18764L8.45192 4.29086L8.54869 4.22893L8.62611 4.29086L8.60676 4.18764L8.68418 4.10506H8.5874Z" fill="white"/>
<path d="M6.7484 3.36206L6.72904 3.46529H6.61292L6.70969 3.54787L6.67098 3.65109L6.7484 3.58916L6.84517 3.65109L6.80646 3.54787L6.90324 3.46529H6.78711L6.7484 3.36206Z" fill="white"/>
<path d="M7.34862 3.36206L7.32926 3.46529H7.21313L7.30991 3.54787L7.2712 3.65109L7.34862 3.58916L7.44539 3.65109L7.40668 3.54787L7.50346 3.46529H7.38733L7.34862 3.36206Z" fill="white"/>
<path d="M7.94847 3.36206L7.92912 3.46529H7.81299L7.90976 3.54787L7.87105 3.65109L7.94847 3.58916L8.04525 3.65109L8.00654 3.54787L8.10331 3.46529H7.98718L7.94847 3.36206Z" fill="white"/>
<path d="M8.5874 3.46529L8.54869 3.36206L8.52934 3.46529H8.41321L8.49063 3.54787L8.47127 3.65109L8.54869 3.58916L8.64547 3.65109L8.60676 3.54787L8.70353 3.46529H8.5874Z" fill="white"/>
<path d="M7.2905 2.90773L7.25179 3.01096L7.34856 2.94902L7.42598 3.01096L7.40663 2.90773L7.48405 2.82515H7.38727L7.34856 2.72192L7.30985 2.82515H7.19373L7.2905 2.90773Z" fill="white"/>
<path d="M7.89035 2.90773L7.85164 3.01096L7.94842 2.94902L8.02584 3.01096L8.00648 2.90773L8.0839 2.82515H7.98713L7.94842 2.72192L7.90971 2.82515H7.79358L7.89035 2.90773Z" fill="white"/>
<path d="M8.49057 2.90773L8.45186 3.01096L8.54864 2.94902L8.62606 3.01096L8.6067 2.90773L8.68412 2.82515H8.56799L8.54864 2.72192L8.50993 2.82515H8.3938L8.49057 2.90773Z" fill="white"/>
<path d="M7.51766 20.596C7.15499 20.596 6.82699 20.548 6.53366 20.452C6.24566 20.356 6.00032 20.212 5.79766 20.02C5.59499 19.8227 5.43766 19.5773 5.32566 19.284C5.21366 18.9907 5.15766 18.6493 5.15766 18.26V14.9H6.35766V18.148C6.35766 18.628 6.45099 18.988 6.63766 19.228C6.82432 19.468 7.11766 19.588 7.51766 19.588C7.91766 19.588 8.21099 19.468 8.39766 19.228C8.58432 18.988 8.67766 18.6307 8.67766 18.156V14.9H9.87766V18.26C9.87766 18.6493 9.82166 18.9907 9.70966 19.284C9.60299 19.5773 9.44566 19.8227 9.23766 20.02C9.03499 20.212 8.78699 20.356 8.49366 20.452C8.20566 20.548 7.88032 20.596 7.51766 20.596ZM10.7214 19.628L13.6014 15.892H10.8014V14.9H15.0414V15.772L12.1614 19.508H15.1214V20.5H10.7214V19.628Z" fill="#0099B5"/>
</svg>
