<svg width="0" height="0" class="hidden">
  <symbol fill="none" xmlns="http://www.w3.org/2000/svg" viewBox="0 0 24 24" id="usd">
    <svg width="24" height="24" viewBox="0 0 24 24" fill="none" xmlns="http://www.w3.org/2000/svg">
      <rect x="0.5" y="0.5" width="23" height="23" rx="11.5" fill="#E5E7EA"/>
      <rect x="0.5" y="0.5" width="23" height="23" rx="11.5" stroke="black"/>
      <path fill-rule="evenodd" clip-rule="evenodd" d="M12.6705 5.75001C12.6705 5.33579 12.3348 5.00001 11.9205 5.00001C11.5063 5.00001 11.1705 5.33579 11.1705 5.75001V7.13356C10.5509 7.18206 9.90718 7.32585 9.37412 7.65786C8.78356 8.0257 8.3632 8.60655 8.26819 9.40648C8.1939 10.0319 8.26209 10.5904 8.48672 11.0753C8.71226 11.5621 9.06762 11.9145 9.46727 12.1718C10.2183 12.6554 11.217 12.8514 12.0172 13.0085L12.033 13.0116L12.1038 13.0255L12.1039 13.0255C12.5046 13.104 12.8679 13.1753 13.1983 13.2646C13.5495 13.3595 13.8127 13.4622 13.9994 13.5798C14.1752 13.6906 14.2582 13.7979 14.3001 13.9094C14.3447 14.028 14.3762 14.2413 14.2837 14.6189C14.2199 14.8796 14.0427 15.0928 13.6821 15.2635C13.305 15.442 12.7798 15.5433 12.1695 15.5626C10.9307 15.6018 9.63387 15.2989 9.09988 15.0175C8.73343 14.8244 8.27982 14.9649 8.08671 15.3314C7.8936 15.6978 8.03411 16.1514 8.40055 16.3445C9.02461 16.6734 10.0782 16.9416 11.1705 17.0327V18.4293C11.1705 18.8435 11.5063 19.1793 11.9205 19.1793C12.3348 19.1793 12.6705 18.8435 12.6705 18.4293V17.0342C13.2459 16.9813 13.822 16.8568 14.3239 16.6193C14.9746 16.3113 15.5418 15.7881 15.7407 14.9757C15.8816 14.4003 15.8852 13.863 15.7042 13.3816C15.5205 12.8931 15.1803 12.5509 14.7989 12.3106C14.4283 12.0772 14.0002 11.9275 13.5897 11.8165C13.206 11.7128 12.7932 11.632 12.407 11.5563L12.3219 11.5396C11.4465 11.3678 10.7477 11.2122 10.2793 10.9106C10.0667 10.7738 9.93019 10.6227 9.84776 10.4448C9.76442 10.2649 9.70856 9.99729 9.75772 9.5834C9.79549 9.26543 9.93698 9.07446 10.1672 8.93109C10.4301 8.76731 10.8308 8.65804 11.3534 8.6243C12.3964 8.55696 13.6417 8.80688 14.4228 9.06959C14.8154 9.20164 15.2407 8.99042 15.3728 8.59782C15.5048 8.20522 15.2936 7.7799 14.901 7.64786C14.32 7.45244 13.515 7.25876 12.6705 7.16746V5.75001Z" fill="black"/>
    </svg>
  </symbol>
  <symbol fill="none" xmlns="http://www.w3.org/2000/svg" viewBox="0 0 24 24" id="eur">
    <svg width="24" height="24" viewBox="0 0 24 24" fill="none" xmlns="http://www.w3.org/2000/svg">
      <rect x="0.5" y="0.5" width="23" height="23" rx="11.5" fill="#E5E7EA"/>
      <rect x="0.5" y="0.5" width="23" height="23" rx="11.5" stroke="black"/>
      <path fill-rule="evenodd" clip-rule="evenodd" d="M14.0097 6.11149C12.9424 5.8791 11.8403 6.01245 10.8466 6.48851C9.85485 6.96366 9.02413 7.7541 8.44659 8.74504C8.2523 9.0784 8.08901 9.43031 7.95787 9.79526H6.76199C6.34778 9.79526 6.01199 10.131 6.01199 10.5453C6.01199 10.9595 6.34778 11.2953 6.76199 11.2953H7.60928C7.58038 11.5493 7.56577 11.8059 7.56577 12.0633C7.56577 12.3208 7.58038 12.5774 7.60928 12.8315H6.76199C6.34778 12.8315 6.01199 13.1672 6.01199 13.5815C6.01199 13.9957 6.34778 14.3315 6.76199 14.3315H7.95787C8.08902 14.6964 8.2523 15.0483 8.44659 15.3817C9.02413 16.3726 9.85485 17.163 10.8466 17.6382C11.8403 18.1143 12.9424 18.2476 14.0097 18.0152C15.0757 17.7831 16.0429 17.2005 16.7963 16.3588C17.0726 16.0502 17.0464 15.5761 16.7377 15.2998C16.4291 15.0235 15.955 15.0497 15.6787 15.3584C15.1212 15.9811 14.4274 16.3891 13.6906 16.5495C12.9552 16.7097 12.193 16.62 11.4947 16.2854C10.7945 15.9499 10.1808 15.3782 9.74255 14.6264C9.68654 14.5302 9.6338 14.4319 9.5844 14.3315H12.9757C13.3899 14.3315 13.7257 13.9957 13.7257 13.5815C13.7257 13.1672 13.3899 12.8315 12.9757 12.8315H9.12173C9.08471 12.5792 9.06577 12.3224 9.06577 12.0633C9.06577 11.8043 9.08471 11.5475 9.12173 11.2953H12.9757C13.3899 11.2953 13.7257 10.9595 13.7257 10.5453C13.7257 10.131 13.3899 9.79526 12.9757 9.79526H9.58439C9.63379 9.69484 9.68654 9.59645 9.74255 9.50035C10.1808 8.74845 10.7945 8.17676 11.4947 7.84128C12.193 7.50672 12.9552 7.41703 13.6906 7.57715C14.4274 7.73757 15.1212 8.14557 15.6787 8.76833C15.955 9.07696 16.4291 9.10318 16.7377 8.82691C17.0464 8.55064 17.0726 8.07649 16.7963 7.76787C16.0429 6.92617 15.0757 6.34358 14.0097 6.11149Z" fill="black"/>
    </svg>
  </symbol>
  <symbol fill="none" xmlns="http://www.w3.org/2000/svg" viewBox="0 0 24 24" id="rub">
    <svg width="24" height="24" viewBox="0 0 24 24" fill="none" xmlns="http://www.w3.org/2000/svg">
      <rect x="0.5" y="0.5" width="23" height="23" rx="11.5" fill="#E5E7EA"/>
      <rect x="0.5" y="0.5" width="23" height="23" rx="11.5" stroke="black"/>
      <path d="M9.71429 18V6H14.8571C15.5391 6 16.1932 6.27092 16.6754 6.75315C17.1577 7.23539 17.4286 7.88944 17.4286 8.57143C17.4286 9.25341 17.1577 9.90747 16.6754 10.3897C16.1932 10.8719 15.5391 11.1429 14.8571 11.1429H8" stroke="black" stroke-width="1.5" stroke-linecap="round" stroke-linejoin="round"/>
      <path d="M14.8571 14.5714H8" stroke="black" stroke-width="1.5" stroke-linecap="round" stroke-linejoin="round"/>
    </svg>
  </symbol>
  <symbol fill="none" xmlns="http://www.w3.org/2000/svg" viewBox="0 0 24 24" id="uzb">
    <svg xmlns="http://www.w3.org/2000/svg" width="24" height="24" viewBox="0 0 24 24" fill="none">
      <path d="M0 0H24V24L0 24V0Z" fill="#1EB53A"/>
      <path d="M0 0H24V12H0V0Z" fill="#0099B5"/>
      <path d="M0 7.63635H24V16.3636H0V7.63635Z" fill="#CE1126"/>
      <path d="M0 8.18182H24V15.8182L0 15.8182V8.18182Z" fill="white"/>
      <path d="M6.27266 6.54544C7.62827 6.54544 8.72721 5.44651 8.72721 4.0909C8.72721 2.73529 7.62827 1.63635 6.27266 1.63635C4.91705 1.63635 3.81812 2.73529 3.81812 4.0909C3.81812 5.44651 4.91705 6.54544 6.27266 6.54544Z" fill="white"/>
      <path d="M7.36373 6.54544C8.71933 6.54544 9.81827 5.44651 9.81827 4.0909C9.81827 2.73529 8.71933 1.63635 7.36373 1.63635C6.00812 1.63635 4.90918 2.73529 4.90918 4.0909C4.90918 5.44651 6.00812 6.54544 7.36373 6.54544Z" fill="#0099B5"/>
      <path d="M11.9737 5.70325L11.8167 6.18673L12.0584 6.26528L11.9737 5.70325Z" fill="white"/>
      <path d="M11.9736 5.70325L12.1307 6.18673L11.8889 6.26528L11.9736 5.70325Z" fill="white"/>
      <path d="M12.4571 6.0545H11.9487V6.30869L12.4571 6.0545Z" fill="white"/>
      <path d="M12.4572 6.0545L12.0459 6.35331L11.8965 6.14768L12.4572 6.0545Z" fill="white"/>
      <path d="M11.4902 6.0545L11.9015 6.35331L12.0509 6.14768L11.4902 6.0545Z" fill="white"/>
      <path d="M11.4902 6.0545H11.9986V6.30869L11.4902 6.0545Z" fill="white"/>
      <path d="M12.2724 6.62295L12.1153 6.13947L11.8735 6.218L12.2724 6.62295Z" fill="white"/>
      <path d="M12.2724 6.62293L11.8611 6.32412L12.0105 6.11847L12.2724 6.62293Z" fill="white"/>
      <path d="M11.6748 6.62293L12.0861 6.32412L11.9367 6.11847L11.6748 6.62293Z" fill="white"/>
      <path d="M11.6748 6.62295L11.8319 6.13947L12.0736 6.218L11.6748 6.62295Z" fill="white"/>
      <path d="M11.9737 3.6698L11.8167 4.15328L12.0584 4.23183L11.9737 3.6698Z" fill="white"/>
      <path d="M11.9736 3.6698L12.1307 4.15328L11.8889 4.23183L11.9736 3.6698Z" fill="white"/>
      <path d="M12.4571 4.02106H11.9487V4.27524L12.4571 4.02106Z" fill="white"/>
      <path d="M12.4572 4.02106L12.0459 4.31986L11.8965 4.11423L12.4572 4.02106Z" fill="white"/>
      <path d="M11.4902 4.02106L11.9015 4.31986L12.0509 4.11423L11.4902 4.02106Z" fill="white"/>
      <path d="M11.4902 4.02106H11.9986V4.27524L11.4902 4.02106Z" fill="white"/>
      <path d="M12.2724 4.5895L12.1153 4.10602L11.8735 4.18455L12.2724 4.5895Z" fill="white"/>
      <path d="M12.2724 4.58948L11.8611 4.29067L12.0105 4.08502L12.2724 4.58948Z" fill="white"/>
      <path d="M11.6748 4.58948L12.0861 4.29067L11.9367 4.08502L11.6748 4.58948Z" fill="white"/>
      <path d="M11.6748 4.5895L11.8319 4.10602L12.0736 4.18455L11.6748 4.5895Z" fill="white"/>
      <path d="M11.9737 1.63635L11.8167 2.11984L12.0584 2.19839L11.9737 1.63635Z" fill="white"/>
      <path d="M11.9736 1.63635L12.1307 2.11984L11.8889 2.19839L11.9736 1.63635Z" fill="white"/>
      <path d="M12.4571 1.98761H11.9487V2.24179L12.4571 1.98761Z" fill="white"/>
      <path d="M12.4572 1.98761L12.0459 2.28642L11.8965 2.08078L12.4572 1.98761Z" fill="white"/>
      <path d="M11.4902 1.98761L11.9015 2.28642L12.0509 2.08078L11.4902 1.98761Z" fill="white"/>
      <path d="M11.4902 1.98761H11.9986V2.24179L11.4902 1.98761Z" fill="white"/>
      <path d="M12.2724 2.55605L12.1153 2.07257L11.8735 2.15111L12.2724 2.55605Z" fill="white"/>
      <path d="M12.2724 2.55603L11.8611 2.25723L12.0105 2.05157L12.2724 2.55603Z" fill="white"/>
      <path d="M11.6748 2.55603L12.0861 2.25723L11.9367 2.05157L11.6748 2.55603Z" fill="white"/>
      <path d="M11.6748 2.55605L11.8319 2.07257L12.0736 2.15111L11.6748 2.55605Z" fill="white"/>
      <path d="M14.0072 5.70325L13.8501 6.18673L14.0918 6.26528L14.0072 5.70325Z" fill="white"/>
      <path d="M14.0073 5.70325L14.1643 6.18673L13.9226 6.26528L14.0073 5.70325Z" fill="white"/>
      <path d="M14.4908 6.0545H13.9824V6.30869L14.4908 6.0545Z" fill="white"/>
      <path d="M14.4908 6.0545L14.0796 6.35331L13.9302 6.14768L14.4908 6.0545Z" fill="white"/>
      <path d="M13.5237 6.0545L13.935 6.35331L14.0844 6.14768L13.5237 6.0545Z" fill="white"/>
      <path d="M13.5237 6.0545H14.032V6.30869L13.5237 6.0545Z" fill="white"/>
      <path d="M14.3061 6.62295L14.149 6.13947L13.9072 6.218L14.3061 6.62295Z" fill="white"/>
      <path d="M14.306 6.62293L13.8948 6.32412L14.0442 6.11847L14.306 6.62293Z" fill="white"/>
      <path d="M13.7085 6.62293L14.1198 6.32412L13.9704 6.11847L13.7085 6.62293Z" fill="white"/>
      <path d="M13.7085 6.62295L13.8656 6.13947L14.1073 6.218L13.7085 6.62295Z" fill="white"/>
      <path d="M14.0072 3.6698L13.8501 4.15328L14.0918 4.23183L14.0072 3.6698Z" fill="white"/>
      <path d="M14.0073 3.6698L14.1643 4.15328L13.9226 4.23183L14.0073 3.6698Z" fill="white"/>
      <path d="M14.4908 4.02106H13.9824V4.27524L14.4908 4.02106Z" fill="white"/>
      <path d="M14.4908 4.02106L14.0796 4.31986L13.9302 4.11423L14.4908 4.02106Z" fill="white"/>
      <path d="M13.5237 4.02106L13.935 4.31986L14.0844 4.11423L13.5237 4.02106Z" fill="white"/>
      <path d="M13.5237 4.02106H14.032V4.27524L13.5237 4.02106Z" fill="white"/>
      <path d="M14.3061 4.5895L14.149 4.10602L13.9072 4.18455L14.3061 4.5895Z" fill="white"/>
      <path d="M14.306 4.58948L13.8948 4.29067L14.0442 4.08502L14.306 4.58948Z" fill="white"/>
      <path d="M13.7085 4.58948L14.1198 4.29067L13.9704 4.08502L13.7085 4.58948Z" fill="white"/>
      <path d="M13.7085 4.5895L13.8656 4.10602L14.1073 4.18455L13.7085 4.5895Z" fill="white"/>
      <path d="M14.0072 1.63635L13.8501 2.11984L14.0918 2.19839L14.0072 1.63635Z" fill="white"/>
      <path d="M14.0073 1.63635L14.1643 2.11984L13.9226 2.19839L14.0073 1.63635Z" fill="white"/>
      <path d="M14.4908 1.98761H13.9824V2.24179L14.4908 1.98761Z" fill="white"/>
      <path d="M14.4908 1.98761L14.0796 2.28642L13.9302 2.08078L14.4908 1.98761Z" fill="white"/>
      <path d="M13.5237 1.98761L13.935 2.28642L14.0844 2.08078L13.5237 1.98761Z" fill="white"/>
      <path d="M13.5237 1.98761H14.032V2.24179L13.5237 1.98761Z" fill="white"/>
      <path d="M14.3061 2.55605L14.149 2.07257L13.9072 2.15111L14.3061 2.55605Z" fill="white"/>
      <path d="M14.306 2.55603L13.8948 2.25723L14.0442 2.05157L14.306 2.55603Z" fill="white"/>
      <path d="M13.7085 2.55603L14.1198 2.25723L13.9704 2.05157L13.7085 2.55603Z" fill="white"/>
      <path d="M13.7085 2.55605L13.8656 2.07257L14.1073 2.15111L13.7085 2.55605Z" fill="white"/>
      <path d="M16.0406 5.70325L15.8835 6.18673L16.1253 6.26528L16.0406 5.70325Z" fill="white"/>
      <path d="M16.0405 5.70325L16.1976 6.18673L15.9558 6.26528L16.0405 5.70325Z" fill="white"/>
      <path d="M16.524 6.0545H16.0156V6.30869L16.524 6.0545Z" fill="white"/>
      <path d="M16.5241 6.0545L16.1128 6.35331L15.9634 6.14768L16.5241 6.0545Z" fill="white"/>
      <path d="M15.5571 6.0545L15.9684 6.35331L16.1178 6.14768L15.5571 6.0545Z" fill="white"/>
      <path d="M15.5571 6.0545H16.0655V6.30869L15.5571 6.0545Z" fill="white"/>
      <path d="M16.3393 6.62295L16.1822 6.13947L15.9404 6.218L16.3393 6.62295Z" fill="white"/>
      <path d="M16.3392 6.62293L15.928 6.32412L16.0774 6.11847L16.3392 6.62293Z" fill="white"/>
      <path d="M15.7417 6.62293L16.153 6.32412L16.0036 6.11847L15.7417 6.62293Z" fill="white"/>
      <path d="M15.7417 6.62295L15.8988 6.13947L16.1405 6.218L15.7417 6.62295Z" fill="white"/>
      <path d="M16.0406 3.6698L15.8835 4.15328L16.1253 4.23183L16.0406 3.6698Z" fill="white"/>
      <path d="M16.0405 3.6698L16.1976 4.15328L15.9558 4.23183L16.0405 3.6698Z" fill="white"/>
      <path d="M16.524 4.02106H16.0156V4.27524L16.524 4.02106Z" fill="white"/>
      <path d="M16.5241 4.02106L16.1128 4.31986L15.9634 4.11423L16.5241 4.02106Z" fill="white"/>
      <path d="M15.5571 4.02106L15.9684 4.31986L16.1178 4.11423L15.5571 4.02106Z" fill="white"/>
      <path d="M15.5571 4.02106H16.0655V4.27524L15.5571 4.02106Z" fill="white"/>
      <path d="M16.3393 4.5895L16.1822 4.10602L15.9404 4.18455L16.3393 4.5895Z" fill="white"/>
      <path d="M16.3392 4.58948L15.928 4.29067L16.0774 4.08502L16.3392 4.58948Z" fill="white"/>
      <path d="M15.7417 4.58948L16.153 4.29067L16.0036 4.08502L15.7417 4.58948Z" fill="white"/>
      <path d="M15.7417 4.5895L15.8988 4.10602L16.1405 4.18455L15.7417 4.5895Z" fill="white"/>
      <path d="M16.0406 1.63635L15.8835 2.11984L16.1253 2.19839L16.0406 1.63635Z" fill="white"/>
      <path d="M16.0405 1.63635L16.1976 2.11984L15.9558 2.19839L16.0405 1.63635Z" fill="white"/>
      <path d="M16.524 1.98761H16.0156V2.24179L16.524 1.98761Z" fill="white"/>
      <path d="M16.5241 1.98761L16.1128 2.28642L15.9634 2.08078L16.5241 1.98761Z" fill="white"/>
      <path d="M15.5571 1.98761L15.9684 2.28642L16.1178 2.08078L15.5571 1.98761Z" fill="white"/>
      <path d="M15.5571 1.98761H16.0655V2.24179L15.5571 1.98761Z" fill="white"/>
      <path d="M16.3393 2.55605L16.1822 2.07257L15.9404 2.15111L16.3393 2.55605Z" fill="white"/>
      <path d="M16.3392 2.55603L15.928 2.25723L16.0774 2.05157L16.3392 2.55603Z" fill="white"/>
      <path d="M15.7417 2.55603L16.153 2.25723L16.0036 2.05157L15.7417 2.55603Z" fill="white"/>
      <path d="M15.7417 2.55605L15.8988 2.07257L16.1405 2.15111L15.7417 2.55605Z" fill="white"/>
      <path d="M7.90684 5.70325L7.74976 6.18673L7.9915 6.26528L7.90684 5.70325Z" fill="white"/>
      <path d="M7.90692 5.70325L8.06401 6.18673L7.82227 6.26528L7.90692 5.70325Z" fill="white"/>
      <path d="M8.3902 6.0545H7.88184V6.30869L8.3902 6.0545Z" fill="white"/>
      <path d="M8.39026 6.0545L7.97899 6.35331L7.82959 6.14768L8.39026 6.0545Z" fill="white"/>
      <path d="M7.42334 6.0545L7.83461 6.35331L7.98401 6.14768L7.42334 6.0545Z" fill="white"/>
      <path d="M7.42334 6.0545H7.9317V6.30869L7.42334 6.0545Z" fill="white"/>
      <path d="M8.20547 6.62295L8.04838 6.13947L7.80664 6.218L8.20547 6.62295Z" fill="white"/>
      <path d="M8.20546 6.62293L7.79419 6.32412L7.94359 6.11847L8.20546 6.62293Z" fill="white"/>
      <path d="M7.60791 6.62293L8.01918 6.32412L7.86978 6.11847L7.60791 6.62293Z" fill="white"/>
      <path d="M7.60791 6.62295L7.765 6.13947L8.00674 6.218L7.60791 6.62295Z" fill="white"/>
      <path d="M9.94029 5.70325L9.7832 6.18673L10.0249 6.26528L9.94029 5.70325Z" fill="white"/>
      <path d="M9.94037 5.70325L10.0975 6.18673L9.85571 6.26528L9.94037 5.70325Z" fill="white"/>
      <path d="M10.4239 6.0545H9.91553V6.30869L10.4239 6.0545Z" fill="white"/>
      <path d="M10.424 6.0545L10.0127 6.35331L9.86328 6.14768L10.424 6.0545Z" fill="white"/>
      <path d="M9.45679 6.0545L9.86806 6.35331L10.0175 6.14768L9.45679 6.0545Z" fill="white"/>
      <path d="M9.45679 6.0545H9.96515V6.30869L9.45679 6.0545Z" fill="white"/>
      <path d="M10.2389 6.62295L10.0818 6.13947L9.84009 6.218L10.2389 6.62295Z" fill="white"/>
      <path d="M10.2389 6.62293L9.82764 6.32412L9.97704 6.11847L10.2389 6.62293Z" fill="white"/>
      <path d="M9.64136 6.62293L10.0526 6.32412L9.90323 6.11847L9.64136 6.62293Z" fill="white"/>
      <path d="M9.64136 6.62295L9.79845 6.13947L10.0402 6.218L9.64136 6.62295Z" fill="white"/>
      <path d="M9.94029 3.6698L9.7832 4.15328L10.0249 4.23183L9.94029 3.6698Z" fill="white"/>
      <path d="M9.94037 3.6698L10.0975 4.15328L9.85571 4.23183L9.94037 3.6698Z" fill="white"/>
      <path d="M10.4239 4.02106H9.91553V4.27524L10.4239 4.02106Z" fill="white"/>
      <path d="M10.424 4.02106L10.0127 4.31986L9.86328 4.11423L10.424 4.02106Z" fill="white"/>
      <path d="M9.45679 4.02106L9.86806 4.31986L10.0175 4.11423L9.45679 4.02106Z" fill="white"/>
      <path d="M9.45679 4.02106H9.96515V4.27524L9.45679 4.02106Z" fill="white"/>
      <path d="M10.2389 4.5895L10.0818 4.10602L9.84009 4.18455L10.2389 4.5895Z" fill="white"/>
      <path d="M10.2389 4.58948L9.82764 4.29067L9.97704 4.08502L10.2389 4.58948Z" fill="white"/>
      <path d="M9.64136 4.58948L10.0526 4.29067L9.90323 4.08502L9.64136 4.58948Z" fill="white"/>
      <path d="M9.64136 4.5895L9.79845 4.10602L10.0402 4.18455L9.64136 4.5895Z" fill="white"/>
    </svg>
  </symbol>
</svg>
