<svg width="42" height="42" viewBox="0 0 32 33" fill="none" xmlns="http://www.w3.org/2000/svg">
<g opacity="0.7">
<g clip-path="url(#clip0_1588_7405)">
<path fill-rule="evenodd" clip-rule="evenodd" d="M-8 32.5003H40V0.5H-8V32.5003Z" fill="#03349A"/>
<path fill-rule="evenodd" clip-rule="evenodd" d="M14.9771 7.47235L15.9901 6.73323L17.0029 7.47235L16.6175 6.27693L17.6462 5.53781H16.3782L15.9901 4.328L15.602 5.53917L14.3345 5.53781L15.3627 6.27693L14.9771 7.47235Z" fill="#FCCB02"/>
<path fill-rule="evenodd" clip-rule="evenodd" d="M9.73544 8.88032L10.7484 8.1412L11.7605 8.88032L11.3758 7.68507L12.4039 6.94595H11.1358L10.7477 5.73462L10.3596 6.94713L9.09229 6.94595L10.1203 7.68507L9.73544 8.88032Z" fill="#FCCB02"/>
<path fill-rule="evenodd" clip-rule="evenodd" d="M6.91326 9.57874L6.52517 10.7913L5.25781 10.7901L6.28584 11.5292L5.90029 12.7244L6.91326 11.9853L7.92606 12.7244L7.54067 11.5292L8.5687 10.7901H7.30135L6.91326 9.57874Z" fill="#FCCB02"/>
<path fill-rule="evenodd" clip-rule="evenodd" d="M5.50622 17.2202L6.51851 17.9593L6.13364 16.7639L7.16184 16.0248H5.89432L5.50622 14.8136L5.11813 16.0275L3.8501 16.0248L4.87881 16.7639L4.49342 17.9593L5.50622 17.2202Z" fill="#FCCB02"/>
<path fill-rule="evenodd" clip-rule="evenodd" d="M7.30135 21.2757L6.91326 20.0643L6.52517 21.2768L5.25781 21.2757L6.28584 22.0148L5.90029 23.21L6.91326 22.4696L7.92606 23.21L7.54067 22.0148L8.5687 21.2757H7.30135Z" fill="#FCCB02"/>
<path fill-rule="evenodd" clip-rule="evenodd" d="M11.1441 25.1181L10.756 23.9081L10.3686 25.1192L9.10059 25.1181L10.1286 25.8572L9.74374 27.0524L10.7567 26.3133L11.7688 27.0524L11.3841 25.8572L12.4122 25.1181H11.1441Z" fill="#FCCB02"/>
<path fill-rule="evenodd" clip-rule="evenodd" d="M16.3787 26.5104L15.9906 25.2992L15.6032 26.5117L14.335 26.5104L15.3632 27.2495L14.9783 28.4449L15.9911 27.7058L17.0034 28.4449L16.618 27.2495L17.6467 26.5104H16.3787Z" fill="#FCCB02"/>
<path fill-rule="evenodd" clip-rule="evenodd" d="M21.6137 25.1181L21.2262 23.9081L20.8375 25.1192L19.5708 25.1181L20.5982 25.8572L20.2135 27.0524L21.2262 26.3133L22.239 27.0524L21.853 25.8572L22.8817 25.1181H21.6137Z" fill="#FCCB02"/>
<path fill-rule="evenodd" clip-rule="evenodd" d="M25.4573 21.2757L25.0685 20.0643L24.6798 21.2768L23.4131 21.2757L24.4418 22.0148L24.0557 23.21L25.0685 22.4696L26.0815 23.21L25.6953 22.0148L26.724 21.2757H25.4573Z" fill="#FCCB02"/>
<path fill-rule="evenodd" clip-rule="evenodd" d="M28.1164 16.0101H26.8484L26.4596 14.799L26.0722 16.0115L24.8042 16.0101L25.8329 16.7492L25.448 17.9447L26.4596 17.2042L27.4724 17.9447L27.0877 16.7492L28.1164 16.0101Z" fill="#FCCB02"/>
<path fill-rule="evenodd" clip-rule="evenodd" d="M24.0557 12.7083L25.0685 11.9692L26.0815 12.7083L25.6953 11.5131L26.724 10.7753H25.4573L25.0685 9.56396L24.6798 10.7765L23.4131 10.7753L24.4418 11.5131L24.0557 12.7083Z" fill="#FCCB02"/>
<path fill-rule="evenodd" clip-rule="evenodd" d="M21.2409 5.73633L20.8535 6.94884L19.5854 6.94631L20.6128 7.68678L20.2281 8.88203L21.2422 8.14156L22.2539 8.88203L21.869 7.68678L22.8977 6.94631H21.6283L21.2409 5.73633Z" fill="#FCCB02"/>
</g>
<path d="M16 1C24.5604 1 31.5 7.93959 31.5 16.5C31.5 25.0604 24.5604 32 16 32C7.43959 32 0.5 25.0604 0.5 16.5C0.5 7.93959 7.43959 1 16 1Z" stroke="#ECECED"/>
</g>
<defs>
<clipPath id="clip0_1588_7405">
<path d="M0 16.5C0 7.66344 7.16344 0.5 16 0.5C24.8366 0.5 32 7.66344 32 16.5C32 25.3366 24.8366 32.5 16 32.5C7.16344 32.5 0 25.3366 0 16.5Z" fill="white"/>
</clipPath>
</defs>
</svg>
