<svg width="48" height="48" viewBox="0 0 48 48" fill="none" xmlns="http://www.w3.org/2000/svg">
<rect width="48" height="48" rx="12" fill="#F7F7F7"/>
<path d="M26 14.2695V18.4001C26 18.9601 26 19.2401 26.109 19.4541C26.2049 19.6422 26.3578 19.7952 26.546 19.8911C26.7599 20.0001 27.0399 20.0001 27.6 20.0001H31.7305M26 14H20.8C19.1198 14 18.2798 14 17.638 14.327C17.0735 14.6146 16.6146 15.0735 16.327 15.638C16 16.2798 16 17.1198 16 18.8V29.2C16 30.8802 16 31.7202 16.327 32.362C16.6146 32.9265 17.0735 33.3854 17.638 33.673C18.2798 34 19.1198 34 20.8 34H27.2C28.8802 34 29.7202 34 30.362 33.673C30.9265 33.3854 31.3854 32.9265 31.673 32.362C32 31.7202 32 30.8802 32 29.2V20L26 14ZM23.9973 23.8306C23.1975 22.9216 21.8639 22.6771 20.8619 23.5094C19.8599 24.3418 19.7188 25.7335 20.5057 26.7179C21.2926 27.7024 23.9973 30 23.9973 30C23.9973 30 26.7019 27.7024 27.4888 26.7179C28.2757 25.7335 28.1519 24.3331 27.1326 23.5094C26.1134 22.6858 24.797 22.9216 23.9973 23.8306Z" stroke="#171717" stroke-width="2" stroke-linecap="round" stroke-linejoin="round"/>
</svg>
