<svg width="36" height="36" viewBox="0 0 36 36" fill="none" xmlns="http://www.w3.org/2000/svg">
<path d="M0 0H36V36L0 36V0Z" fill="#1EB53A"/>
<path d="M0 0H36V18H0V0Z" fill="#0099B5"/>
<path d="M0 11.4546H36V24.5455H0V11.4546Z" fill="#CE1126"/>
<path d="M0 12.2727H36V23.7272L0 23.7273V12.2727Z" fill="white"/>
<path d="M9.40899 9.81823C11.4424 9.81823 13.0908 8.16982 13.0908 6.13641C13.0908 4.103 11.4424 2.45459 9.40899 2.45459C7.37558 2.45459 5.72717 4.103 5.72717 6.13641C5.72717 8.16982 7.37558 9.81823 9.40899 9.81823Z" fill="white"/>
<path d="M11.0456 9.81823C13.079 9.81823 14.7274 8.16982 14.7274 6.13641C14.7274 4.103 13.079 2.45459 11.0456 2.45459C9.01218 2.45459 7.36377 4.103 7.36377 6.13641C7.36377 8.16982 9.01218 9.81823 11.0456 9.81823Z" fill="#0099B5"/>
<path d="M17.9604 8.55493L17.7247 9.28016L18.0873 9.39798L17.9604 8.55493Z" fill="white"/>
<path d="M17.9607 8.55493L18.1964 9.28016L17.8337 9.39798L17.9607 8.55493Z" fill="white"/>
<path d="M18.6866 9.08179H17.9241V9.46306L18.6866 9.08179Z" fill="white"/>
<path d="M18.6861 9.08179L18.0692 9.53L17.8451 9.22154L18.6861 9.08179Z" fill="white"/>
<path d="M17.2363 9.08179L17.8532 9.53L18.0773 9.22154L17.2363 9.08179Z" fill="white"/>
<path d="M17.2363 9.08179H17.9989V9.46306L17.2363 9.08179Z" fill="white"/>
<path d="M18.4089 9.93445L18.1733 9.20923L17.8107 9.32703L18.4089 9.93445Z" fill="white"/>
<path d="M18.4093 9.93442L17.7924 9.48621L18.0165 9.17773L18.4093 9.93442Z" fill="white"/>
<path d="M17.5132 9.93442L18.1301 9.48621L17.906 9.17773L17.5132 9.93442Z" fill="white"/>
<path d="M17.5133 9.93445L17.7489 9.20923L18.1116 9.32703L17.5133 9.93445Z" fill="white"/>
<path d="M17.9604 5.50464L17.7247 6.22986L18.0873 6.34769L17.9604 5.50464Z" fill="white"/>
<path d="M17.9607 5.50464L18.1964 6.22986L17.8337 6.34769L17.9607 5.50464Z" fill="white"/>
<path d="M18.6866 6.03149H17.9241V6.41277L18.6866 6.03149Z" fill="white"/>
<path d="M18.6861 6.03149L18.0692 6.4797L17.8451 6.17125L18.6861 6.03149Z" fill="white"/>
<path d="M17.2363 6.03149L17.8532 6.4797L18.0773 6.17125L17.2363 6.03149Z" fill="white"/>
<path d="M17.2363 6.03149H17.9989V6.41277L17.2363 6.03149Z" fill="white"/>
<path d="M18.4089 6.88416L18.1733 6.15894L17.8107 6.27674L18.4089 6.88416Z" fill="white"/>
<path d="M18.4093 6.88413L17.7924 6.43592L18.0165 6.12744L18.4093 6.88413Z" fill="white"/>
<path d="M17.5132 6.88413L18.1301 6.43592L17.906 6.12744L17.5132 6.88413Z" fill="white"/>
<path d="M17.5133 6.88416L17.7489 6.15894L18.1116 6.27674L17.5133 6.88416Z" fill="white"/>
<path d="M17.9602 2.45459L17.7246 3.17981L18.0872 3.29764L17.9602 2.45459Z" fill="white"/>
<path d="M17.9606 2.45459L18.1962 3.17981L17.8336 3.29764L17.9606 2.45459Z" fill="white"/>
<path d="M18.6864 2.98145H17.9238V3.36272L18.6864 2.98145Z" fill="white"/>
<path d="M18.686 2.98145L18.0691 3.42965L17.845 3.1212L18.686 2.98145Z" fill="white"/>
<path d="M17.2361 2.98145L17.853 3.42965L18.0771 3.1212L17.2361 2.98145Z" fill="white"/>
<path d="M17.2361 2.98145H17.9986V3.36272L17.2361 2.98145Z" fill="white"/>
<path d="M18.4088 3.83411L18.1732 3.10889L17.8105 3.22669L18.4088 3.83411Z" fill="white"/>
<path d="M18.4091 3.83408L17.7922 3.38587L18.0163 3.07739L18.4091 3.83408Z" fill="white"/>
<path d="M17.5129 3.83408L18.1298 3.38587L17.9057 3.07739L17.5129 3.83408Z" fill="white"/>
<path d="M17.5132 3.83411L17.7488 3.10889L18.1114 3.22669L17.5132 3.83411Z" fill="white"/>
<path d="M21.0118 8.55493L20.7761 9.28016L21.1387 9.39798L21.0118 8.55493Z" fill="white"/>
<path d="M21.0113 8.55493L21.2469 9.28016L20.8843 9.39798L21.0113 8.55493Z" fill="white"/>
<path d="M21.7367 9.08179H20.9741V9.46306L21.7367 9.08179Z" fill="white"/>
<path d="M21.7365 9.08179L21.1196 9.53L20.8955 9.22154L21.7365 9.08179Z" fill="white"/>
<path d="M20.2861 9.08179L20.903 9.53L21.1271 9.22154L20.2861 9.08179Z" fill="white"/>
<path d="M20.2861 9.08179H21.0487V9.46306L20.2861 9.08179Z" fill="white"/>
<path d="M21.4601 9.93445L21.2244 9.20923L20.8618 9.32703L21.4601 9.93445Z" fill="white"/>
<path d="M21.4591 9.93442L20.8422 9.48621L21.0663 9.17773L21.4591 9.93442Z" fill="white"/>
<path d="M20.5632 9.93442L21.1801 9.48621L20.956 9.17773L20.5632 9.93442Z" fill="white"/>
<path d="M20.5631 9.93445L20.7987 9.20923L21.1614 9.32703L20.5631 9.93445Z" fill="white"/>
<path d="M21.0118 5.50464L20.7761 6.22986L21.1387 6.34769L21.0118 5.50464Z" fill="white"/>
<path d="M21.0113 5.50464L21.2469 6.22986L20.8843 6.34769L21.0113 5.50464Z" fill="white"/>
<path d="M21.7367 6.03149H20.9741V6.41277L21.7367 6.03149Z" fill="white"/>
<path d="M21.7365 6.03149L21.1196 6.4797L20.8955 6.17125L21.7365 6.03149Z" fill="white"/>
<path d="M20.2861 6.03149L20.903 6.4797L21.1271 6.17125L20.2861 6.03149Z" fill="white"/>
<path d="M20.2861 6.03149H21.0487V6.41277L20.2861 6.03149Z" fill="white"/>
<path d="M21.4601 6.88416L21.2244 6.15894L20.8618 6.27674L21.4601 6.88416Z" fill="white"/>
<path d="M21.4591 6.88413L20.8422 6.43592L21.0663 6.12744L21.4591 6.88413Z" fill="white"/>
<path d="M20.5632 6.88413L21.1801 6.43592L20.956 6.12744L20.5632 6.88413Z" fill="white"/>
<path d="M20.5631 6.88416L20.7987 6.15894L21.1614 6.27674L20.5631 6.88416Z" fill="white"/>
<path d="M21.0115 2.45459L20.7759 3.17981L21.1385 3.29764L21.0115 2.45459Z" fill="white"/>
<path d="M21.011 2.45459L21.2466 3.17981L20.884 3.29764L21.011 2.45459Z" fill="white"/>
<path d="M21.7365 2.98145H20.974V3.36272L21.7365 2.98145Z" fill="white"/>
<path d="M21.7364 2.98145L21.1195 3.42965L20.8954 3.1212L21.7364 2.98145Z" fill="white"/>
<path d="M20.2859 2.98145L20.9028 3.42965L21.1269 3.1212L20.2859 2.98145Z" fill="white"/>
<path d="M20.2859 2.98145H21.0484V3.36272L20.2859 2.98145Z" fill="white"/>
<path d="M21.4598 3.83411L21.2242 3.10889L20.8616 3.22669L21.4598 3.83411Z" fill="white"/>
<path d="M21.4589 3.83408L20.842 3.38587L21.0661 3.07739L21.4589 3.83408Z" fill="white"/>
<path d="M20.5631 3.83408L21.18 3.38587L20.9559 3.07739L20.5631 3.83408Z" fill="white"/>
<path d="M20.563 3.83411L20.7986 3.10889L21.1612 3.22669L20.563 3.83411Z" fill="white"/>
<path d="M24.061 8.55493L23.8253 9.28016L24.1879 9.39798L24.061 8.55493Z" fill="white"/>
<path d="M24.0607 8.55493L24.2963 9.28016L23.9337 9.39798L24.0607 8.55493Z" fill="white"/>
<path d="M24.7859 9.08179H24.0233V9.46306L24.7859 9.08179Z" fill="white"/>
<path d="M24.7857 9.08179L24.1688 9.53L23.9447 9.22154L24.7857 9.08179Z" fill="white"/>
<path d="M23.3356 9.08179L23.9525 9.53L24.1766 9.22154L23.3356 9.08179Z" fill="white"/>
<path d="M23.3356 9.08179H24.0981V9.46306L23.3356 9.08179Z" fill="white"/>
<path d="M24.5089 9.93445L24.2733 9.20923L23.9106 9.32703L24.5089 9.93445Z" fill="white"/>
<path d="M24.5085 9.93442L23.8916 9.48621L24.1157 9.17773L24.5085 9.93442Z" fill="white"/>
<path d="M23.6124 9.93442L24.2293 9.48621L24.0052 9.17773L23.6124 9.93442Z" fill="white"/>
<path d="M23.6123 9.93445L23.8479 9.20923L24.2105 9.32703L23.6123 9.93445Z" fill="white"/>
<path d="M24.061 5.50464L23.8253 6.22986L24.1879 6.34769L24.061 5.50464Z" fill="white"/>
<path d="M24.0607 5.50464L24.2963 6.22986L23.9337 6.34769L24.0607 5.50464Z" fill="white"/>
<path d="M24.7859 6.03149H24.0233V6.41277L24.7859 6.03149Z" fill="white"/>
<path d="M24.7857 6.03149L24.1688 6.4797L23.9447 6.17125L24.7857 6.03149Z" fill="white"/>
<path d="M23.3356 6.03149L23.9525 6.4797L24.1766 6.17125L23.3356 6.03149Z" fill="white"/>
<path d="M23.3356 6.03149H24.0981V6.41277L23.3356 6.03149Z" fill="white"/>
<path d="M24.5089 6.88416L24.2733 6.15894L23.9106 6.27674L24.5089 6.88416Z" fill="white"/>
<path d="M24.5085 6.88413L23.8916 6.43592L24.1157 6.12744L24.5085 6.88413Z" fill="white"/>
<path d="M23.6124 6.88413L24.2293 6.43592L24.0052 6.12744L23.6124 6.88413Z" fill="white"/>
<path d="M23.6123 6.88416L23.8479 6.15894L24.2105 6.27674L23.6123 6.88416Z" fill="white"/>
<path d="M24.0611 2.45459L23.8254 3.17981L24.1881 3.29764L24.0611 2.45459Z" fill="white"/>
<path d="M24.0608 2.45459L24.2965 3.17981L23.9338 3.29764L24.0608 2.45459Z" fill="white"/>
<path d="M24.786 2.98145H24.0234V3.36272L24.786 2.98145Z" fill="white"/>
<path d="M24.7858 2.98145L24.1689 3.42965L23.9448 3.1212L24.7858 2.98145Z" fill="white"/>
<path d="M23.3357 2.98145L23.9526 3.42965L24.1767 3.1212L23.3357 2.98145Z" fill="white"/>
<path d="M23.3357 2.98145H24.0982V3.36272L23.3357 2.98145Z" fill="white"/>
<path d="M24.509 3.83411L24.2734 3.10889L23.9108 3.22669L24.509 3.83411Z" fill="white"/>
<path d="M24.5088 3.83408L23.8918 3.38587L24.116 3.07739L24.5088 3.83408Z" fill="white"/>
<path d="M23.6125 3.83408L24.2295 3.38587L24.0053 3.07739L23.6125 3.83408Z" fill="white"/>
<path d="M23.6124 3.83411L23.8481 3.10889L24.2107 3.22669L23.6124 3.83411Z" fill="white"/>
<path d="M11.8599 8.55493L11.6243 9.28016L11.9869 9.39798L11.8599 8.55493Z" fill="white"/>
<path d="M11.8599 8.55493L12.0955 9.28016L11.7329 9.39798L11.8599 8.55493Z" fill="white"/>
<path d="M12.5849 9.08179H11.8224V9.46306L12.5849 9.08179Z" fill="white"/>
<path d="M12.5858 9.08179L11.9689 9.53L11.7448 9.22154L12.5858 9.08179Z" fill="white"/>
<path d="M11.1346 9.08179L11.7515 9.53L11.9757 9.22154L11.1346 9.08179Z" fill="white"/>
<path d="M11.1346 9.08179H11.8972V9.46306L11.1346 9.08179Z" fill="white"/>
<path d="M12.308 9.93445L12.0723 9.20923L11.7097 9.32703L12.308 9.93445Z" fill="white"/>
<path d="M12.3073 9.93442L11.6904 9.48621L11.9145 9.17773L12.3073 9.93442Z" fill="white"/>
<path d="M11.4115 9.93442L12.0284 9.48621L11.8043 9.17773L11.4115 9.93442Z" fill="white"/>
<path d="M11.4114 9.93445L11.647 9.20923L12.0096 9.32703L11.4114 9.93445Z" fill="white"/>
<path d="M14.9097 8.55493L14.6741 9.28016L15.0367 9.39798L14.9097 8.55493Z" fill="white"/>
<path d="M14.9097 8.55493L15.1453 9.28016L14.7827 9.39798L14.9097 8.55493Z" fill="white"/>
<path d="M15.6347 9.08179H14.8722V9.46306L15.6347 9.08179Z" fill="white"/>
<path d="M15.6356 9.08179L15.0187 9.53L14.7946 9.22154L15.6356 9.08179Z" fill="white"/>
<path d="M14.1844 9.08179L14.8014 9.53L15.0255 9.22154L14.1844 9.08179Z" fill="white"/>
<path d="M14.1844 9.08179H14.947V9.46306L14.1844 9.08179Z" fill="white"/>
<path d="M15.3579 9.93445L15.1223 9.20923L14.7596 9.32703L15.3579 9.93445Z" fill="white"/>
<path d="M15.3579 9.93442L14.741 9.48621L14.9651 9.17773L15.3579 9.93442Z" fill="white"/>
<path d="M14.4613 9.93442L15.0782 9.48621L14.8541 9.17773L14.4613 9.93442Z" fill="white"/>
<path d="M14.4612 9.93445L14.6968 9.20923L15.0594 9.32703L14.4612 9.93445Z" fill="white"/>
<path d="M14.9097 5.50464L14.6741 6.22986L15.0367 6.34769L14.9097 5.50464Z" fill="white"/>
<path d="M14.9097 5.50464L15.1453 6.22986L14.7827 6.34769L14.9097 5.50464Z" fill="white"/>
<path d="M15.6347 6.03149H14.8722V6.41277L15.6347 6.03149Z" fill="white"/>
<path d="M15.6356 6.03149L15.0187 6.4797L14.7946 6.17125L15.6356 6.03149Z" fill="white"/>
<path d="M14.1844 6.03149L14.8014 6.4797L15.0255 6.17125L14.1844 6.03149Z" fill="white"/>
<path d="M14.1844 6.03149H14.947V6.41277L14.1844 6.03149Z" fill="white"/>
<path d="M15.3579 6.88416L15.1223 6.15894L14.7596 6.27674L15.3579 6.88416Z" fill="white"/>
<path d="M15.3579 6.88413L14.741 6.43592L14.9651 6.12744L15.3579 6.88413Z" fill="white"/>
<path d="M14.4613 6.88413L15.0782 6.43592L14.8541 6.12744L14.4613 6.88413Z" fill="white"/>
<path d="M14.4612 6.88416L14.6968 6.15894L15.0594 6.27674L14.4612 6.88416Z" fill="white"/>
</svg>
