<svg width="0" height="0" class="hidden">
  <symbol fill="none" xmlns="http://www.w3.org/2000/svg" viewBox="0 0 24 24" id="usd">
    <svg width="24" height="24" viewBox="0 0 24 24" fill="none" xmlns="http://www.w3.org/2000/svg">
      <g clip-path="url(#clip0_1345_942)">
        <path fill-rule="evenodd" clip-rule="evenodd"
              d="M-6 0H39.6004V1.84617H-6V0ZM-6 3.69234H39.6004V5.53851H-6V3.69234ZM-6 7.38469H39.6004V9.23086H-6V7.38469ZM-6 11.077H39.6004V12.9232H-6V11.077ZM-6 14.7694H39.6004V16.6155H-6V14.7694ZM-6 18.4617H39.6004V20.3079H-6V18.4617ZM-6 22.1541H39.6004V24.0002H-6V22.1541Z"
              fill="#FC121F"/>
        <path fill-rule="evenodd" clip-rule="evenodd"
              d="M-6 1.84619H39.6004V3.69236H-6V1.84619ZM-6 5.53853H39.6004V7.38471H-6V5.53853ZM-6 9.23088H39.6004V11.0771H-6V9.23088ZM-6 12.9232H39.6004V14.7694H-6V12.9232ZM-6 16.6156H39.6004V18.4617H-6V16.6156ZM-6 20.3079H39.6004V22.1541H-6V20.3079Z"
              fill="white"/>
        <path fill-rule="evenodd" clip-rule="evenodd" d="M-6 0H12.2402V12.9232H-6V0Z" fill="#192F5D"/>
        <path fill-rule="evenodd" clip-rule="evenodd"
              d="M-4.48617 0.553787L-4.30155 1.07072H-3.78462L-4.20924 1.38456L-4.04309 1.88303L-4.48617 1.56918L-4.89232 1.88303L-4.72617 1.38456L-5.16925 1.07072H-4.6154L-4.48617 0.553787ZM-1.43998 0.553787L-1.27383 1.07072H-0.738438L-1.18152 1.38456L-0.996902 1.88303L-1.43998 1.56918L-1.88306 1.88303L-1.69845 1.38456L-2.14153 1.07072H-1.60614L-1.43998 0.553787ZM1.6062 0.553787L1.77236 1.07072H2.30774L1.86466 1.38456L2.04928 1.88303L1.6062 1.56918L1.16312 1.88303L1.34774 1.38456L0.904655 1.07072H1.44004L1.6062 0.553787ZM4.63392 0.553787L4.81854 1.07072H5.33547L4.91085 1.38456L5.077 1.88303L4.63392 1.56918L4.2093 1.88303L4.37546 1.38456L3.93238 1.07072H4.48623L4.63392 0.553787ZM7.6801 0.553787L7.84626 1.07072H8.38165L7.93857 1.38456L8.12319 1.88303L7.66164 1.56918L7.23702 1.88303L7.40318 1.38456L6.9601 1.07072H7.49549L7.6801 0.553787ZM10.7263 0.553787L10.8924 1.07072H11.4278L10.9848 1.38456L11.1694 1.88303L10.7263 1.56918L10.2832 1.88303L10.4678 1.38456L10.0247 1.07072H10.5601L10.7263 0.553787ZM-2.95384 1.84611L-2.78769 2.36303H-2.2523L-2.69538 2.67688L-2.51076 3.17535L-2.95384 2.8615L-3.39693 3.17535L-3.21231 2.67688L-3.65539 2.36303H-3.12L-2.95384 1.84611ZM0.0738778 1.84611L0.258495 2.36303H0.775423L0.350803 2.67688L0.516958 3.17535L0.0738778 2.8615L-0.350742 3.17535L-0.184587 2.67688L-0.627668 2.36303H-0.0738168L0.0738778 1.84611ZM3.12006 1.84611L3.28622 2.36303H3.82161L3.37852 2.67688L3.56314 3.17535L3.12006 2.8615L2.67698 3.17535L2.8616 2.67688L2.41852 2.36303H2.95391L3.12006 1.84611ZM6.16624 1.84611L6.3324 2.36303H6.86779L6.42471 2.67688L6.60933 3.17535L6.16624 2.8615L5.72316 3.17535L5.90778 2.67688L5.4647 2.36303H6.00009L6.16624 1.84611ZM9.19397 1.84611L9.37858 2.36303H9.87705L9.45243 2.67688L9.61858 3.17535L9.1755 2.8615L8.75089 3.17535L8.91704 2.67688L8.47396 2.36303H9.02781L9.19397 1.84611ZM-4.46771 3.13843L-4.32001 3.65535H-3.76616L-4.20924 3.9692L-4.04309 4.46767L-4.48617 4.15382L-4.89232 4.46767L-4.72617 3.9692L-5.16925 3.65535H-4.6154L-4.46771 3.13843ZM-1.43998 3.13843L-1.27383 3.65535H-0.738438L-1.16306 3.9692L-0.996902 4.46767L-1.43998 4.15382L-1.8646 4.46767L-1.69845 3.9692L-2.14153 3.65535H-1.60614L-1.43998 3.13843ZM1.6062 3.13843L1.77236 3.65535H2.30774L1.86466 3.9692L2.04928 4.46767L1.6062 4.15382L1.16312 4.46767L1.34774 3.9692L0.904655 3.65535H1.44004L1.6062 3.13843ZM4.63392 3.13843L4.81854 3.65535H5.33547L4.91085 3.9692L5.077 4.46767L4.63392 4.15382L4.2093 4.46767L4.37546 3.9692L3.93238 3.65535H4.48623L4.63392 3.13843ZM7.6801 3.13843L7.84626 3.65535H8.38165L7.95703 3.9692L8.12319 4.46767L7.6801 4.15382L7.25549 4.46767L7.42164 3.9692L6.97856 3.65535H7.51395L7.6801 3.13843ZM10.7263 3.13843L10.8924 3.65535H11.4278L10.9848 3.9692L11.1694 4.46767L10.7263 4.15382L10.2832 4.46767L10.4678 3.9692L10.0247 3.65535H10.5601L10.7263 3.13843ZM-2.95384 4.43075L-2.78769 4.94767H-2.2523L-2.69538 5.26152L-2.51076 5.75999L-2.95384 5.44614L-3.39693 5.75999L-3.21231 5.26152L-3.65539 4.94767H-3.12L-2.95384 4.43075ZM0.0738778 4.43075L0.258495 4.94767H0.775423L0.350803 5.26152L0.516958 5.75999L0.0738778 5.44614L-0.350742 5.75999L-0.184587 5.26152L-0.627668 4.94767H-0.0738168L0.0738778 4.43075ZM3.12006 4.43075L3.28622 4.94767H3.82161L3.39699 5.26152L3.56314 5.75999L3.12006 5.44614L2.69544 5.75999L2.8616 5.26152L2.41852 4.94767H2.95391L3.12006 4.43075ZM6.16624 4.43075L6.3324 4.94767H6.86779L6.42471 5.26152L6.60933 5.75999L6.16624 5.44614L5.72316 5.75999L5.90778 5.26152L5.4647 4.94767H6.00009L6.16624 4.43075ZM9.19397 4.43075L9.37858 4.94767H9.87705L9.45243 5.26152L9.61858 5.75999L9.1755 5.44614L8.75089 5.75999L8.91704 5.26152L8.47396 4.94767H9.02781L9.19397 4.43075ZM-4.46771 5.72307L-4.32001 6.23999H-3.76616L-4.20924 6.55384L-4.04309 7.05231L-4.48617 6.73846L-4.89232 7.05231L-4.72617 6.55384L-5.16925 6.23999H-4.6154L-4.46771 5.72307ZM-1.43998 5.72307L-1.27383 6.23999H-0.738438L-1.16306 6.55384L-0.996902 7.05231L-1.43998 6.73846L-1.8646 7.05231L-1.69845 6.55384L-2.14153 6.23999H-1.60614L-1.43998 5.72307ZM1.6062 5.72307L1.77236 6.23999H2.30774L1.86466 6.55384L2.04928 7.05231L1.6062 6.73846L1.16312 7.05231L1.34774 6.55384L0.904655 6.23999H1.44004L1.6062 5.72307ZM4.63392 5.72307L4.81854 6.23999H5.33547L4.91085 6.55384L5.077 7.05231L4.63392 6.73846L4.2093 7.05231L4.37546 6.55384L3.93238 6.23999H4.48623L4.63392 5.72307ZM7.6801 5.72307L7.84626 6.23999H8.38165L7.95703 6.55384L8.12319 7.05231L7.6801 6.73846L7.25549 7.05231L7.42164 6.55384L6.97856 6.23999H7.51395L7.6801 5.72307ZM10.7263 5.72307L10.8924 6.23999H11.4278L10.9848 6.55384L11.1694 7.05231L10.7263 6.73846L10.2832 7.05231L10.4678 6.55384L10.0247 6.23999H10.5601L10.7263 5.72307ZM-2.95384 7.01539L-2.78769 7.53231H-2.2523L-2.69538 7.84616L-2.51076 8.34463L-2.95384 8.03078L-3.39693 8.34463L-3.21231 7.84616L-3.65539 7.53231H-3.12L-2.95384 7.01539ZM0.0738778 7.01539L0.258495 7.53231H0.775423L0.350803 7.84616L0.516958 8.34463L0.0738778 8.03078L-0.350742 8.34463L-0.184587 7.84616L-0.627668 7.53231H-0.0738168L0.0738778 7.01539ZM3.12006 7.01539L3.28622 7.53231H3.82161L3.39699 7.84616L3.56314 8.34463L3.12006 8.03078L2.69544 8.34463L2.8616 7.84616L2.41852 7.53231H2.95391L3.12006 7.01539ZM6.16624 7.01539L6.3324 7.53231H6.86779L6.42471 7.84616L6.60933 8.34463L6.16624 8.03078L5.72316 8.34463L5.90778 7.84616L5.4647 7.53231H6.00009L6.16624 7.01539ZM9.19397 7.01539L9.37858 7.53231H9.87705L9.45243 7.84616L9.61858 8.34463L9.1755 8.03078L8.75089 8.34463L8.91704 7.84616L8.47396 7.53231H9.02781L9.19397 7.01539ZM-4.46771 8.30771L-4.32001 8.82463H-3.76616L-4.20924 9.13848L-4.04309 9.63695L-4.48617 9.3231L-4.89232 9.63695L-4.72617 9.13848L-5.16925 8.82463H-4.6154L-4.46771 8.30771ZM-1.43998 8.30771L-1.27383 8.82463H-0.738438L-1.16306 9.13848L-0.996902 9.63695L-1.43998 9.3231L-1.8646 9.63695L-1.69845 9.13848L-2.14153 8.82463H-1.60614L-1.43998 8.30771ZM1.6062 8.30771L1.77236 8.82463H2.30774L1.86466 9.13848L2.04928 9.63695L1.6062 9.3231L1.16312 9.63695L1.34774 9.13848L0.904655 8.82463H1.44004L1.6062 8.30771ZM4.63392 8.30771L4.81854 8.82463H5.33547L4.91085 9.13848L5.077 9.63695L4.63392 9.3231L4.2093 9.63695L4.37546 9.13848L3.93238 8.82463H4.48623L4.63392 8.30771ZM7.6801 8.30771L7.84626 8.82463H8.38165L7.95703 9.13848L8.12319 9.63695L7.6801 9.3231L7.25549 9.63695L7.42164 9.13848L6.97856 8.82463H7.51395L7.6801 8.30771ZM10.7263 8.30771L10.8924 8.82463H11.4278L10.9848 9.13848L11.1694 9.63695L10.7263 9.3231L10.2832 9.63695L10.4678 9.13848L10.0247 8.82463H10.5601L10.7263 8.30771ZM-2.95384 9.60003L-2.78769 10.117H-2.2523L-2.69538 10.4308L-2.51076 10.9293L-2.95384 10.6154L-3.39693 10.9293L-3.21231 10.4308L-3.65539 10.117H-3.12L-2.95384 9.60003ZM0.0738778 9.60003L0.258495 10.117H0.775423L0.350803 10.4308L0.516958 10.9293L0.0738778 10.6154L-0.350742 10.9293L-0.184587 10.4308L-0.627668 10.117H-0.0738168L0.0738778 9.60003ZM3.12006 9.60003L3.28622 10.117H3.82161L3.39699 10.4308L3.56314 10.9293L3.12006 10.6154L2.69544 10.9293L2.8616 10.4308L2.41852 10.117H2.95391L3.12006 9.60003ZM6.16624 9.60003L6.3324 10.117H6.86779L6.42471 10.4308L6.60933 10.9293L6.16624 10.6154L5.72316 10.9293L5.90778 10.4308L5.4647 10.117H6.00009L6.16624 9.60003ZM9.19397 9.60003L9.37858 10.117H9.87705L9.45243 10.4308L9.61858 10.9293L9.1755 10.6154L8.75089 10.9293L8.91704 10.4308L8.47396 10.117H9.02781L9.19397 9.60003ZM-4.46771 10.8923L-4.32001 11.4093H-3.76616L-4.20924 11.7231L-4.04309 12.2216L-4.48617 11.9077L-4.89232 12.2216L-4.72617 11.7231L-5.16925 11.4093H-4.6154L-4.46771 10.8923ZM-1.43998 10.8923L-1.27383 11.4093H-0.738438L-1.16306 11.7231L-0.996902 12.2216L-1.43998 11.9077L-1.8646 12.2216L-1.69845 11.7231L-2.14153 11.4093H-1.60614L-1.43998 10.8923ZM1.6062 10.8923L1.77236 11.4093H2.30774L1.86466 11.7231L2.04928 12.2216L1.6062 11.9077L1.16312 12.2216L1.34774 11.7231L0.904655 11.4093H1.44004L1.6062 10.8923ZM4.63392 10.8923L4.81854 11.4093H5.33547L4.91085 11.7231L5.077 12.2216L4.63392 11.9077L4.2093 12.2216L4.37546 11.7231L3.93238 11.4093H4.48623L4.63392 10.8923ZM7.6801 10.8923L7.84626 11.4093H8.38165L7.95703 11.7231L8.12319 12.2216L7.6801 11.9077L7.25549 12.2216L7.42164 11.7231L6.97856 11.4093H7.51395L7.6801 10.8923ZM10.7263 10.8923L10.8924 11.4093H11.4278L10.9848 11.7231L11.1694 12.2216L10.7263 11.9077L10.2832 12.2216L10.4678 11.7231L10.0247 11.4093H10.5601L10.7263 10.8923Z"
              fill="white"/>
      </g>
      <rect x="0.5" y="0.5" width="23" height="23" rx="11.5" stroke="#F1F2F6"/>
      <defs>
        <clipPath id="clip0_1345_942">
          <rect width="24" height="24" rx="12" fill="white"/>
        </clipPath>
      </defs>
    </svg>
  </symbol>
  <symbol fill="none" xmlns="http://www.w3.org/2000/svg" viewBox="0 0 24 24" id="eur">
    <svg width="24" height="24" viewBox="0 0 24 24" fill="none" xmlns="http://www.w3.org/2000/svg">
      <g clip-path="url(#clip0_1345_952)">
        <path fill-rule="evenodd" clip-rule="evenodd" d="M-6 24.0003H30V0H-6V24.0003Z" fill="#03349A"/>
        <path fill-rule="evenodd" clip-rule="evenodd"
              d="M11.2328 5.22928L11.9925 4.67494L12.7521 5.22928L12.4631 4.33271L13.2346 3.77837H12.2836L11.9925 2.87102L11.7015 3.77939L10.7508 3.77837L11.522 4.33271L11.2328 5.22928Z"
              fill="#FCCB02"/>
        <path fill-rule="evenodd" clip-rule="evenodd"
              d="M7.30158 6.28523L8.06131 5.73089L8.8204 6.28523L8.53187 5.38879L9.30289 4.83445H8.35187L8.0608 3.92595L7.76973 4.83534L6.81921 4.83445L7.59024 5.38879L7.30158 6.28523Z"
              fill="#FCCB02"/>
        <path fill-rule="evenodd" clip-rule="evenodd"
              d="M5.18491 6.80901L4.89384 7.71839L3.94333 7.7175L4.71435 8.27185L4.42519 9.16828L5.18491 8.61394L5.94451 9.16828L5.65547 8.27185L6.4265 7.7175H5.47598L5.18491 6.80901Z"
              fill="#FCCB02"/>
        <path fill-rule="evenodd" clip-rule="evenodd"
              d="M4.12973 12.5402L4.88895 13.0945L4.60029 12.1979L5.37144 11.6436H4.4208L4.12973 10.7352L3.83866 11.6456L2.88763 11.6436L3.65917 12.1979L3.37013 13.0945L4.12973 12.5402Z"
              fill="#FCCB02"/>
        <path fill-rule="evenodd" clip-rule="evenodd"
              d="M5.47598 15.5817L5.18491 14.6732L4.89384 15.5826L3.94333 15.5817L4.71435 16.1361L4.42519 17.0325L5.18491 16.4771L5.94451 17.0325L5.65547 16.1361L6.4265 15.5817H5.47598Z"
              fill="#FCCB02"/>
        <path fill-rule="evenodd" clip-rule="evenodd"
              d="M8.35791 18.4635L8.06684 17.556L7.77628 18.4644L6.82526 18.4635L7.59628 19.0179L7.30762 19.9143L8.06735 19.36L8.82644 19.9143L8.53791 19.0179L9.30893 18.4635H8.35791Z"
              fill="#FCCB02"/>
        <path fill-rule="evenodd" clip-rule="evenodd"
              d="M12.2841 19.5078L11.993 18.5994L11.7025 19.5088L10.7513 19.5078L11.5225 20.0621L11.2338 20.9587L11.9934 20.4043L12.7526 20.9587L12.4636 20.0621L13.2351 19.5078H12.2841Z"
              fill="#FCCB02"/>
        <path fill-rule="evenodd" clip-rule="evenodd"
              d="M16.2102 18.4635L15.9196 17.556L15.628 18.4644L14.678 18.4635L15.4486 19.0179L15.16 19.9143L15.9196 19.36L16.6792 19.9143L16.3897 19.0179L17.1612 18.4635H16.2102Z"
              fill="#FCCB02"/>
        <path fill-rule="evenodd" clip-rule="evenodd"
              d="M19.0931 15.5817L18.8016 14.6732L18.51 15.5826L17.56 15.5817L18.3315 16.1361L18.042 17.0325L18.8016 16.4771L19.5613 17.0325L19.2716 16.1361L20.0431 15.5817H19.0931Z"
              fill="#FCCB02"/>
        <path fill-rule="evenodd" clip-rule="evenodd"
              d="M21.0874 11.6325H20.1364L19.8448 10.7242L19.5542 11.6336L18.6032 11.6325L19.3747 12.1869L19.0861 13.0834L19.8448 12.5281L20.6044 13.0834L20.3159 12.1869L21.0874 11.6325Z"
              fill="#FCCB02"/>
        <path fill-rule="evenodd" clip-rule="evenodd"
              d="M18.042 9.15622L18.8016 8.60188L19.5613 9.15622L19.2716 8.25978L20.0431 7.70646H19.0931L18.8016 6.79796L18.51 7.70735L17.56 7.70646L18.3315 8.25978L18.042 9.15622Z"
              fill="#FCCB02"/>
        <path fill-rule="evenodd" clip-rule="evenodd"
              d="M15.9306 3.9272L15.64 4.83659L14.689 4.83468L15.4595 5.39004L15.171 6.28648L15.9316 5.73112L16.6903 6.28648L16.4016 5.39004L17.1732 4.83468H16.2211L15.9306 3.9272Z"
              fill="#FCCB02"/>
      </g>
      <rect x="0.5" y="0.5" width="23" height="23" rx="11.5" stroke="#F4EFF4"/>
      <defs>
        <clipPath id="clip0_1345_952">
          <rect width="24" height="24" rx="12" fill="white"/>
        </clipPath>
      </defs>
    </svg>
  </symbol>
  <symbol fill="none" xmlns="http://www.w3.org/2000/svg" viewBox="0 0 24 24" id="rub">
    <svg width="24" height="24" viewBox="0 0 24 24" fill="none" xmlns="http://www.w3.org/2000/svg">
      <g clip-path="url(#clip0_1345_962)">
        <path fill-rule="evenodd" clip-rule="evenodd" d="M0 0H24V24H0V0Z" fill="white"/>
        <path fill-rule="evenodd" clip-rule="evenodd" d="M0 8.00156H24V24H0V8.00156Z" fill="#0039A6"/>
        <path fill-rule="evenodd" clip-rule="evenodd" d="M0 15.9984H24V24H0V15.9984Z" fill="#D52B1E"/>
      </g>
      <rect x="0.5" y="0.5" width="23" height="23" rx="11.5" stroke="#F4EFF4"/>
      <defs>
        <clipPath id="clip0_1345_962">
          <rect width="24" height="24" rx="12" fill="white"/>
        </clipPath>
      </defs>
    </svg>
  </symbol>
  <symbol fill="none" xmlns="http://www.w3.org/2000/svg" viewBox="0 0 24 24" id="chf">
    <svg width="26" height="26" viewBox="0 0 26 26" fill="none" xmlns="http://www.w3.org/2000/svg">
      <rect x="1" y="1" width="24" height="24" rx="12" fill="#FF0000"/>
      <rect x="1" y="1" width="24" height="24" rx="12" stroke="#F4EFF4"/>
      <path fill-rule="evenodd" clip-rule="evenodd"
            d="M11.2857 14.7143H8.19048C8.00639 14.7143 7.85715 14.565 7.85715 14.3809V11.619C7.85715 11.4349 8.00639 11.2857 8.19048 11.2857H11.2857V8.19047C11.2857 8.00638 11.435 7.85714 11.6191 7.85714H14.381C14.5651 7.85714 14.7143 8.00638 14.7143 8.19047V11.2857H17.8095C17.9936 11.2857 18.1429 11.4349 18.1429 11.619V14.3809C18.1429 14.565 17.9936 14.7143 17.8095 14.7143H14.7143V17.8095C14.7143 17.9936 14.5651 18.1429 14.381 18.1429H11.6191C11.435 18.1429 11.2857 17.9936 11.2857 17.8095V14.7143Z"
            fill="white"/>
    </svg>
  </symbol>
  <symbol fill="none" xmlns="http://www.w3.org/2000/svg" viewBox="0 0 24 24" id="uzb">
    <svg xmlns="http://www.w3.org/2000/svg" width="24" height="24" viewBox="0 0 24 24" fill="none">
      <path d="M0 0H24V24L0 24V0Z" fill="#1EB53A"/>
      <path d="M0 0H24V12H0V0Z" fill="#0099B5"/>
      <path d="M0 7.63672H24V16.364H0V7.63672Z" fill="#CE1126"/>
      <path d="M0 8.18164H24V15.818L0 15.818V8.18164Z" fill="white"/>
      <path
        d="M6.2729 6.54581C7.62851 6.54581 8.72745 5.44687 8.72745 4.09126C8.72745 2.73566 7.62851 1.63672 6.2729 1.63672C4.9173 1.63672 3.81836 2.73566 3.81836 4.09126C3.81836 5.44687 4.9173 6.54581 6.2729 6.54581Z"
        fill="white"/>
      <path
        d="M7.36373 6.54581C8.71933 6.54581 9.81827 5.44687 9.81827 4.09126C9.81827 2.73566 8.71933 1.63672 7.36373 1.63672C6.00812 1.63672 4.90918 2.73566 4.90918 4.09126C4.90918 5.44687 6.00812 6.54581 7.36373 6.54581Z"
        fill="#0099B5"/>
      <path d="M11.9735 5.7041L11.8164 6.18758L12.0581 6.26614L11.9735 5.7041Z" fill="white"/>
      <path d="M11.9733 5.7041L12.1304 6.18758L11.8887 6.26614L11.9733 5.7041Z" fill="white"/>
      <path d="M12.4571 6.05566H11.9487V6.30985L12.4571 6.05566Z" fill="white"/>
      <path d="M12.4572 6.05566L12.0459 6.35447L11.8965 6.14883L12.4572 6.05566Z" fill="white"/>
      <path d="M11.4902 6.05566L11.9015 6.35447L12.0509 6.14883L11.4902 6.05566Z" fill="white"/>
      <path d="M11.4902 6.05566H11.9986V6.30985L11.4902 6.05566Z" fill="white"/>
      <path d="M12.2729 6.62313L12.1158 6.13965L11.874 6.21818L12.2729 6.62313Z" fill="white"/>
      <path d="M12.2726 6.6236L11.8613 6.32479L12.0107 6.11914L12.2726 6.6236Z" fill="white"/>
      <path d="M11.6748 6.6236L12.0861 6.32479L11.9367 6.11914L11.6748 6.6236Z" fill="white"/>
      <path d="M11.6748 6.62313L11.8319 6.13965L12.0736 6.21818L11.6748 6.62313Z" fill="white"/>
      <path d="M11.9735 3.66992L11.8164 4.1534L12.0581 4.23196L11.9735 3.66992Z" fill="white"/>
      <path d="M11.9733 3.66992L12.1304 4.1534L11.8887 4.23196L11.9733 3.66992Z" fill="white"/>
      <path d="M12.4571 4.02148H11.9487V4.27567L12.4571 4.02148Z" fill="white"/>
      <path d="M12.4572 4.02148L12.0459 4.32029L11.8965 4.11466L12.4572 4.02148Z" fill="white"/>
      <path d="M11.4902 4.02148L11.9015 4.32029L12.0509 4.11466L11.4902 4.02148Z" fill="white"/>
      <path d="M11.4902 4.02148H11.9986V4.27567L11.4902 4.02148Z" fill="white"/>
      <path d="M12.2729 4.58895L12.1158 4.10547L11.874 4.18401L12.2729 4.58895Z" fill="white"/>
      <path d="M12.2726 4.58942L11.8613 4.29061L12.0107 4.08496L12.2726 4.58942Z" fill="white"/>
      <path d="M11.6748 4.58942L12.0861 4.29061L11.9367 4.08496L11.6748 4.58942Z" fill="white"/>
      <path d="M11.6748 4.58895L11.8319 4.10547L12.0736 4.18401L11.6748 4.58895Z" fill="white"/>
      <path d="M11.9735 1.63672L11.8164 2.1202L12.0581 2.19875L11.9735 1.63672Z" fill="white"/>
      <path d="M11.9733 1.63672L12.1304 2.1202L11.8887 2.19875L11.9733 1.63672Z" fill="white"/>
      <path d="M12.4571 1.98828H11.9487V2.24246L12.4571 1.98828Z" fill="white"/>
      <path d="M12.4572 1.98828L12.0459 2.28709L11.8965 2.08145L12.4572 1.98828Z" fill="white"/>
      <path d="M11.4902 1.98828L11.9015 2.28709L12.0509 2.08145L11.4902 1.98828Z" fill="white"/>
      <path d="M11.4902 1.98828H11.9986V2.24246L11.4902 1.98828Z" fill="white"/>
      <path d="M12.2729 2.55575L12.1158 2.07227L11.874 2.1508L12.2729 2.55575Z" fill="white"/>
      <path d="M12.2726 2.55622L11.8613 2.25741L12.0107 2.05176L12.2726 2.55622Z" fill="white"/>
      <path d="M11.6748 2.55622L12.0861 2.25741L11.9367 2.05176L11.6748 2.55622Z" fill="white"/>
      <path d="M11.6748 2.55575L11.8319 2.07227L12.0736 2.1508L11.6748 2.55575Z" fill="white"/>
      <path d="M14.0072 5.7041L13.8501 6.18758L14.0918 6.26614L14.0072 5.7041Z" fill="white"/>
      <path d="M14.007 5.7041L14.1641 6.18758L13.9224 6.26614L14.007 5.7041Z" fill="white"/>
      <path d="M14.4908 6.05566H13.9824V6.30985L14.4908 6.05566Z" fill="white"/>
      <path d="M14.4908 6.05566L14.0796 6.35447L13.9302 6.14883L14.4908 6.05566Z" fill="white"/>
      <path d="M13.5234 6.05566L13.9347 6.35447L14.0841 6.14883L13.5234 6.05566Z" fill="white"/>
      <path d="M13.5234 6.05566H14.0318V6.30985L13.5234 6.05566Z" fill="white"/>
      <path d="M14.3056 6.62313L14.1485 6.13965L13.9067 6.21818L14.3056 6.62313Z" fill="white"/>
      <path d="M14.3058 6.6236L13.8945 6.32479L14.0439 6.11914L14.3058 6.6236Z" fill="white"/>
      <path d="M13.708 6.6236L14.1193 6.32479L13.9699 6.11914L13.708 6.6236Z" fill="white"/>
      <path d="M13.708 6.62313L13.8651 6.13965L14.1068 6.21818L13.708 6.62313Z" fill="white"/>
      <path d="M14.0072 3.66992L13.8501 4.1534L14.0918 4.23196L14.0072 3.66992Z" fill="white"/>
      <path d="M14.007 3.66992L14.1641 4.1534L13.9224 4.23196L14.007 3.66992Z" fill="white"/>
      <path d="M14.4908 4.02148H13.9824V4.27567L14.4908 4.02148Z" fill="white"/>
      <path d="M14.4908 4.02148L14.0796 4.32029L13.9302 4.11466L14.4908 4.02148Z" fill="white"/>
      <path d="M13.5234 4.02148L13.9347 4.32029L14.0841 4.11466L13.5234 4.02148Z" fill="white"/>
      <path d="M13.5234 4.02148H14.0318V4.27567L13.5234 4.02148Z" fill="white"/>
      <path d="M14.3056 4.58895L14.1485 4.10547L13.9067 4.18401L14.3056 4.58895Z" fill="white"/>
      <path d="M14.3058 4.58942L13.8945 4.29061L14.0439 4.08496L14.3058 4.58942Z" fill="white"/>
      <path d="M13.708 4.58942L14.1193 4.29061L13.9699 4.08496L13.708 4.58942Z" fill="white"/>
      <path d="M13.708 4.58895L13.8651 4.10547L14.1068 4.18401L13.708 4.58895Z" fill="white"/>
      <path d="M14.0072 1.63672L13.8501 2.1202L14.0918 2.19875L14.0072 1.63672Z" fill="white"/>
      <path d="M14.007 1.63672L14.1641 2.1202L13.9224 2.19875L14.007 1.63672Z" fill="white"/>
      <path d="M14.4908 1.98828H13.9824V2.24246L14.4908 1.98828Z" fill="white"/>
      <path d="M14.4908 1.98828L14.0796 2.28709L13.9302 2.08145L14.4908 1.98828Z" fill="white"/>
      <path d="M13.5234 1.98828L13.9347 2.28709L14.0841 2.08145L13.5234 1.98828Z" fill="white"/>
      <path d="M13.5234 1.98828H14.0318V2.24246L13.5234 1.98828Z" fill="white"/>
      <path d="M14.3056 2.55575L14.1485 2.07227L13.9067 2.1508L14.3056 2.55575Z" fill="white"/>
      <path d="M14.3058 2.55622L13.8945 2.25741L14.0439 2.05176L14.3058 2.55622Z" fill="white"/>
      <path d="M13.708 2.55622L14.1193 2.25741L13.9699 2.05176L13.708 2.55622Z" fill="white"/>
      <path d="M13.708 2.55575L13.8651 2.07227L14.1068 2.1508L13.708 2.55575Z" fill="white"/>
      <path d="M16.0404 5.7041L15.8833 6.18758L16.125 6.26614L16.0404 5.7041Z" fill="white"/>
      <path d="M16.0402 5.7041L16.1973 6.18758L15.9556 6.26614L16.0402 5.7041Z" fill="white"/>
      <path d="M16.524 6.05566H16.0156V6.30985L16.524 6.05566Z" fill="white"/>
      <path d="M16.5241 6.05566L16.1128 6.35447L15.9634 6.14883L16.5241 6.05566Z" fill="white"/>
      <path d="M15.5571 6.05566L15.9684 6.35447L16.1178 6.14883L15.5571 6.05566Z" fill="white"/>
      <path d="M15.5571 6.05566H16.0655V6.30985L15.5571 6.05566Z" fill="white"/>
      <path d="M16.3397 6.62313L16.1827 6.13965L15.9409 6.21818L16.3397 6.62313Z" fill="white"/>
      <path d="M16.3395 6.6236L15.9282 6.32479L16.0776 6.11914L16.3395 6.6236Z" fill="white"/>
      <path d="M15.7417 6.6236L16.153 6.32479L16.0036 6.11914L15.7417 6.6236Z" fill="white"/>
      <path d="M15.7417 6.62313L15.8988 6.13965L16.1405 6.21818L15.7417 6.62313Z" fill="white"/>
      <path d="M16.0404 3.66992L15.8833 4.1534L16.125 4.23196L16.0404 3.66992Z" fill="white"/>
      <path d="M16.0402 3.66992L16.1973 4.1534L15.9556 4.23196L16.0402 3.66992Z" fill="white"/>
      <path d="M16.524 4.02148H16.0156V4.27567L16.524 4.02148Z" fill="white"/>
      <path d="M16.5241 4.02148L16.1128 4.32029L15.9634 4.11466L16.5241 4.02148Z" fill="white"/>
      <path d="M15.5571 4.02148L15.9684 4.32029L16.1178 4.11466L15.5571 4.02148Z" fill="white"/>
      <path d="M15.5571 4.02148H16.0655V4.27567L15.5571 4.02148Z" fill="white"/>
      <path d="M16.3397 4.58895L16.1827 4.10547L15.9409 4.18401L16.3397 4.58895Z" fill="white"/>
      <path d="M16.3395 4.58942L15.9282 4.29061L16.0776 4.08496L16.3395 4.58942Z" fill="white"/>
      <path d="M15.7417 4.58942L16.153 4.29061L16.0036 4.08496L15.7417 4.58942Z" fill="white"/>
      <path d="M15.7417 4.58895L15.8988 4.10547L16.1405 4.18401L15.7417 4.58895Z" fill="white"/>
      <path d="M16.0404 1.63672L15.8833 2.1202L16.125 2.19875L16.0404 1.63672Z" fill="white"/>
      <path d="M16.0402 1.63672L16.1973 2.1202L15.9556 2.19875L16.0402 1.63672Z" fill="white"/>
      <path d="M16.524 1.98828H16.0156V2.24246L16.524 1.98828Z" fill="white"/>
      <path d="M16.5241 1.98828L16.1128 2.28709L15.9634 2.08145L16.5241 1.98828Z" fill="white"/>
      <path d="M15.5571 1.98828L15.9684 2.28709L16.1178 2.08145L15.5571 1.98828Z" fill="white"/>
      <path d="M15.5571 1.98828H16.0655V2.24246L15.5571 1.98828Z" fill="white"/>
      <path d="M16.3397 2.55575L16.1827 2.07227L15.9409 2.1508L16.3397 2.55575Z" fill="white"/>
      <path d="M16.3395 2.55622L15.9282 2.25741L16.0776 2.05176L16.3395 2.55622Z" fill="white"/>
      <path d="M15.7417 2.55622L16.153 2.25741L16.0036 2.05176L15.7417 2.55622Z" fill="white"/>
      <path d="M15.7417 2.55575L15.8988 2.07227L16.1405 2.1508L15.7417 2.55575Z" fill="white"/>
      <path d="M7.9066 5.7041L7.74951 6.18758L7.99125 6.26614L7.9066 5.7041Z" fill="white"/>
      <path d="M7.90643 5.7041L8.06352 6.18758L7.82178 6.26614L7.90643 5.7041Z" fill="white"/>
      <path d="M8.3902 6.05566H7.88184V6.30985L8.3902 6.05566Z" fill="white"/>
      <path d="M8.39026 6.05566L7.97899 6.35447L7.82959 6.14883L8.39026 6.05566Z" fill="white"/>
      <path d="M7.42334 6.05566L7.83461 6.35447L7.98401 6.14883L7.42334 6.05566Z" fill="white"/>
      <path d="M7.42334 6.05566H7.9317V6.30985L7.42334 6.05566Z" fill="white"/>
      <path d="M8.20547 6.62313L8.04838 6.13965L7.80664 6.21818L8.20547 6.62313Z" fill="white"/>
      <path d="M8.20522 6.6236L7.79395 6.32479L7.94335 6.11914L8.20522 6.6236Z" fill="white"/>
      <path d="M7.60791 6.6236L8.01918 6.32479L7.86978 6.11914L7.60791 6.6236Z" fill="white"/>
      <path d="M7.60791 6.62313L7.765 6.13965L8.00674 6.21818L7.60791 6.62313Z" fill="white"/>
      <path d="M9.9398 5.7041L9.78271 6.18758L10.0245 6.26614L9.9398 5.7041Z" fill="white"/>
      <path d="M9.93963 5.7041L10.0967 6.18758L9.85498 6.26614L9.93963 5.7041Z" fill="white"/>
      <path d="M10.4234 6.05566H9.91504V6.30985L10.4234 6.05566Z" fill="white"/>
      <path d="M10.4235 6.05566L10.0122 6.35447L9.86279 6.14883L10.4235 6.05566Z" fill="white"/>
      <path d="M9.45654 6.05566L9.86781 6.35447L10.0172 6.14883L9.45654 6.05566Z" fill="white"/>
      <path d="M9.45654 6.05566H9.96491V6.30985L9.45654 6.05566Z" fill="white"/>
      <path d="M10.2392 6.62313L10.0821 6.13965L9.84033 6.21818L10.2392 6.62313Z" fill="white"/>
      <path d="M10.2389 6.6236L9.82764 6.32479L9.97704 6.11914L10.2389 6.6236Z" fill="white"/>
      <path d="M9.64111 6.6236L10.0524 6.32479L9.90298 6.11914L9.64111 6.6236Z" fill="white"/>
      <path d="M9.64111 6.62313L9.7982 6.13965L10.0399 6.21818L9.64111 6.62313Z" fill="white"/>
      <path d="M9.9398 3.66992L9.78271 4.1534L10.0245 4.23196L9.9398 3.66992Z" fill="white"/>
      <path d="M9.93963 3.66992L10.0967 4.1534L9.85498 4.23196L9.93963 3.66992Z" fill="white"/>
      <path d="M10.4234 4.02148H9.91504V4.27567L10.4234 4.02148Z" fill="white"/>
      <path d="M10.4235 4.02148L10.0122 4.32029L9.86279 4.11466L10.4235 4.02148Z" fill="white"/>
      <path d="M9.45654 4.02148L9.86781 4.32029L10.0172 4.11466L9.45654 4.02148Z" fill="white"/>
      <path d="M9.45654 4.02148H9.96491V4.27567L9.45654 4.02148Z" fill="white"/>
      <path d="M10.2392 4.58895L10.0821 4.10547L9.84033 4.18401L10.2392 4.58895Z" fill="white"/>
      <path d="M10.2389 4.58942L9.82764 4.29061L9.97704 4.08496L10.2389 4.58942Z" fill="white"/>
      <path d="M9.64111 4.58942L10.0524 4.29061L9.90298 4.08496L9.64111 4.58942Z" fill="white"/>
      <path d="M9.64111 4.58895L9.7982 4.10547L10.0399 4.18401L9.64111 4.58895Z" fill="white"/>
    </svg>
  </symbol>
  <symbol fill="none" xmlns="http://www.w3.org/2000/svg" viewBox="0 0 25 24" id="KZT">
    <g clip-path="url(#clip0_3021_887)">
      <rect x="0.25" width="24" height="24" rx="12" fill="#6FDCFF"></rect>
      <path fill-rule="evenodd" clip-rule="evenodd"
            d="M0.853698 23.7265C1.02015 23.8834 0.963083 24.1545 1.4244 24.1212C2.12352 24.1212 2.14254 23.6932 2.14254 23.3936C2.14254 23.094 1.09625 22.6802 1.04869 22.2379C1.00113 21.7956 1.29124 21.6767 1.53379 21.6767C1.77158 21.6767 1.94279 21.8194 1.94279 21.9383C1.94279 22.0572 1.8239 22.0952 1.65744 22.0952C1.49099 22.0952 1.72878 22.0096 1.58135 21.9383C1.43392 21.8669 1.34355 22.0429 1.34355 22.1523C1.34355 22.2569 1.705 22.2902 1.94279 22.2141C1.99035 22.4519 2.01889 22.4662 1.67647 22.8704C1.91901 22.7135 1.94279 22.6802 2.20912 22.7658C1.94279 22.5375 2.14254 22.0714 2.15205 21.9525C2.16157 21.8336 2.10449 21.691 1.99511 21.6196C1.80012 21.4484 1.37684 21.4389 1.12478 21.553C0.753824 21.7147 0.734801 22.1998 0.834674 22.3615L1.85719 23.4078C1.92853 23.5315 1.95231 23.8739 1.51952 23.8929C1.0582 23.9262 0.901257 23.3032 0.820407 23.094C0.711021 23.3222 0.592124 23.95 0.130804 23.912C-0.301981 23.8977 -0.387587 23.5553 -0.316249 23.4316L0.734801 22.3615C0.829919 22.1998 0.815651 21.7147 0.449448 21.553C0.192631 21.4389 -0.230643 21.4484 -0.425634 21.6244C-0.530263 21.691 -0.59209 21.8336 -0.582578 21.9525C-0.573066 22.0714 -0.373319 22.5375 -0.639648 22.761C-0.373319 22.6754 -0.354296 22.7135 -0.111746 22.8704C-0.444657 22.4662 -0.425634 22.4472 -0.373319 22.2094C-0.135525 22.2902 0.230678 22.2569 0.230678 22.1523C0.230678 22.0429 0.13556 21.8669 -0.0118724 21.9383C-0.154549 22.0096 0.0832453 22.0952 -0.0832105 22.0952C-0.254422 22.0952 -0.373319 22.0619 -0.373319 21.9383C-0.373319 21.8146 -0.206863 21.6767 0.0356864 21.6767C0.278236 21.6767 0.568345 21.8004 0.51603 22.2379C0.468472 22.6754 -0.601601 23.1558 -0.601601 23.4554C-0.601601 23.755 -0.525507 24.1212 0.173607 24.1212C0.634927 24.1545 0.687242 23.8834 0.853698 23.7217V23.7265Z"
            fill="#FFE400"></path>
      <path fill-rule="evenodd" clip-rule="evenodd"
            d="M0.796911 17.4487C0.963367 17.287 1.09653 16.8067 1.55785 16.8447C2.25697 16.8447 2.52329 17.23 2.52329 17.5296C2.52329 17.8292 1.09653 20.2737 1.04897 20.716C1.00141 21.1536 1.29152 21.2772 1.53407 21.2772C1.77187 21.2772 1.94308 21.1345 1.94308 21.0109C1.94308 20.8872 1.82418 20.8539 1.65772 20.8539C1.49127 20.8539 1.72431 20.9395 1.58163 21.0109C1.43895 21.0822 1.34384 20.9062 1.34384 20.8016C1.34384 20.6922 1.70053 20.6589 1.94308 20.7398C1.99064 20.502 2.01442 20.483 1.67675 20.0787C1.9193 20.2357 1.94308 20.269 2.20941 20.1834C1.94308 20.4116 2.14282 20.8777 2.15234 20.9966C2.16185 21.1155 2.10478 21.2582 1.99064 21.3295C1.8004 21.5055 1.37237 21.5102 1.12507 21.3961C0.754108 21.2344 0.735085 20.7493 0.834958 20.5876L2.20941 17.6152C2.28074 17.4915 2.09051 17.092 1.65297 17.073C1.1964 17.035 1.0347 17.5153 0.958611 17.7246L1.58163 17.677C1.58163 17.677 1.60541 17.7721 1.58163 17.8387C1.25823 17.8577 0.958611 17.9196 0.958611 17.9196L0.934832 18.2334H1.24396L1.21543 18.3761C1.21543 18.3761 0.958611 18.3571 0.930076 18.3761C0.906296 18.3951 0.882517 18.6948 0.882517 18.6948C0.882517 18.6948 0.834958 18.709 0.787399 18.709C0.730329 18.709 0.68277 18.6948 0.68277 18.6948C0.68277 18.6948 0.658991 18.3951 0.635211 18.3761C0.611432 18.3571 0.349859 18.3761 0.349859 18.3761L0.326079 18.2334H0.635211L0.611432 17.9196C0.611432 17.9196 0.307056 17.8577 -0.016344 17.8387C-0.0401233 17.7769 -0.016344 17.6818 -0.016344 17.6818L0.611432 17.7293C0.530582 17.5153 0.373638 17.035 -0.0876821 17.073C-0.520467 17.0873 -0.715458 17.4915 -0.64412 17.6152L0.735085 20.5876C0.830202 20.7493 0.811179 21.2344 0.444976 21.3961C0.192915 21.5102 -0.230358 21.5055 -0.425349 21.3295C-0.534735 21.2582 -0.591805 21.1155 -0.582293 20.9966C-0.572782 20.8777 -0.377791 20.4116 -0.64412 20.1881C-0.377791 20.2737 -0.354011 20.2357 -0.111462 20.0787C-0.444373 20.483 -0.425349 20.502 -0.377791 20.7398C-0.135241 20.6589 0.226206 20.6922 0.226206 20.8016C0.226206 20.9062 0.131088 21.0822 -0.0115882 21.0109C-0.15902 20.9395 0.0835295 20.8539 -0.0876821 20.8539C-0.254138 20.8539 -0.373035 20.8872 -0.373035 21.0109C-0.373035 21.1345 -0.206579 21.2772 0.0359706 21.2772C0.27852 21.2772 0.563873 21.1536 0.516314 20.7113C0.468756 20.2737 -0.958008 17.8292 -0.958008 17.5248C-0.958008 17.23 -0.691679 16.8447 0.00743544 16.8447C0.468756 16.8067 0.630455 17.287 0.796911 17.4487Z"
            fill="#FFE400"></path>
      <path fill-rule="evenodd" clip-rule="evenodd"
            d="M0.796784 16.236C0.963239 16.3977 1.0964 16.878 1.55772 16.84C2.25684 16.84 2.52317 16.4547 2.52317 16.1551C2.52317 15.8555 1.0964 13.411 1.04885 12.9687C1.00129 12.5311 1.29139 12.4075 1.53394 12.4075C1.77174 12.4075 1.94295 12.5502 1.94295 12.6738C1.94295 12.7975 1.82405 12.8308 1.6576 12.8308C1.49114 12.8308 1.72894 12.7451 1.5815 12.6738C1.43407 12.6025 1.34371 12.7784 1.34371 12.8831C1.34371 12.9925 1.7004 13.0257 1.94295 12.9449C1.99051 13.1827 2.01429 13.2017 1.67662 13.606C1.91917 13.449 1.94295 13.4157 2.20928 13.5013C1.94295 13.273 2.1427 12.807 2.15221 12.6881C2.16172 12.5692 2.10465 12.4265 1.99051 12.3552C1.80027 12.1792 1.37224 12.1744 1.12494 12.2886C0.753981 12.4503 0.734957 12.9354 0.834831 13.0971L2.20928 16.0695C2.28062 16.1932 2.09038 16.5926 1.65284 16.6117C1.19628 16.6497 1.03458 16.1694 0.958484 15.9601L1.5815 16.0077C1.5815 16.0077 1.60528 15.9126 1.5815 15.846C1.2581 15.8222 0.958484 15.7651 0.958484 15.7651L0.934704 15.4512H1.23432L1.21055 15.3086C1.21055 15.3086 0.953728 15.3276 0.925192 15.3086C0.906169 15.2895 0.877634 14.9899 0.877634 14.9899C0.877634 14.9899 0.830075 14.9757 0.782516 14.9757C0.725446 14.9757 0.677887 14.9899 0.677887 14.9899C0.677887 14.9899 0.654107 15.2895 0.630328 15.3086C0.606549 15.3276 0.344975 15.3086 0.344975 15.3086L0.321196 15.4512H0.630328L0.606549 15.7651C0.606549 15.7651 0.302173 15.8222 -0.0212271 15.846C-0.0450065 15.9078 -0.0212271 16.0029 -0.0212271 16.0029L0.606549 15.9554C0.525699 16.1694 0.368755 16.6497 -0.0925652 16.6117C-0.52535 16.5974 -0.720341 16.1932 -0.644247 16.0695L0.730202 13.0971C0.825319 12.9354 0.806296 12.4503 0.440093 12.2886C0.188032 12.1744 -0.235242 12.1792 -0.430232 12.3552C-0.539618 12.4265 -0.596688 12.5692 -0.587176 12.6881C-0.577665 12.807 -0.382674 13.273 -0.649003 13.4966C-0.382674 13.411 -0.358894 13.449 -0.116345 13.606C-0.454012 13.2017 -0.430232 13.1827 -0.382674 12.9449C-0.140124 13.0257 0.221323 12.9925 0.221323 12.8831C0.221323 12.7737 0.126205 12.6025 -0.0164711 12.6738C-0.159147 12.7451 0.0786463 12.8308 -0.0925652 12.8308C-0.259021 12.8308 -0.377918 12.7975 -0.377918 12.6738C-0.377918 12.5502 -0.211462 12.4122 0.0310876 12.4122C0.273637 12.4122 0.55899 12.5311 0.511431 12.9734C0.463872 13.411 -0.962891 15.8555 -0.962891 16.1599C-0.962891 16.4547 -0.696562 16.84 0.00255227 16.84C0.463872 16.878 0.625572 16.3977 0.792028 16.236H0.796784Z"
            fill="#FFE400"></path>
      <path fill-rule="evenodd" clip-rule="evenodd"
            d="M0.796911 8.18425C0.963367 8.02255 1.09653 7.54221 1.55785 7.5755C2.25697 7.5755 2.52329 7.96548 2.52329 8.2651C2.52329 8.55997 1.09653 11.0045 1.04897 11.4468C1.00141 11.8843 1.29152 12.008 1.53407 12.008C1.77187 12.008 1.94308 11.8653 1.94308 11.7464C1.94308 11.6275 1.82418 11.5847 1.65772 11.5847C1.49127 11.5847 1.72431 11.6751 1.58163 11.7464C1.43895 11.8177 1.34384 11.6418 1.34384 11.5324C1.34384 11.4278 1.70053 11.3897 1.94308 11.4706C1.99064 11.2328 2.01442 11.2185 1.67675 10.8143C1.9193 10.9712 1.94308 11.0045 2.20941 10.9189C1.94308 11.1472 2.14282 11.6132 2.15234 11.7274C2.16185 11.8415 2.10478 11.989 1.99064 12.0603C1.8004 12.2363 1.37237 12.2458 1.12507 12.1316C0.754108 11.9652 0.735085 11.4801 0.834958 11.3231L2.20941 8.35071C2.28074 8.22706 2.09051 7.82281 1.65297 7.80378C1.1964 7.77049 1.0347 8.25083 0.958611 8.46009L1.58163 8.41253C1.58163 8.41253 1.60541 8.50765 1.58163 8.57423C1.25823 8.59326 0.958611 8.65033 0.958611 8.65033L0.934832 8.96897H1.24396L1.21543 9.11165C1.21543 9.11165 0.958611 9.09262 0.930076 9.11165C0.906296 9.12592 0.882517 9.42554 0.882517 9.42554C0.882517 9.42554 0.834958 9.44456 0.787399 9.44456C0.730329 9.44456 0.68277 9.42554 0.68277 9.42554C0.68277 9.42554 0.658991 9.12592 0.635211 9.11165C0.611432 9.09262 0.349859 9.11165 0.349859 9.11165L0.326079 8.96897H0.635211L0.611432 8.65033C0.611432 8.65033 0.307056 8.59326 -0.016344 8.57423C-0.0401233 8.51241 -0.016344 8.41253 -0.016344 8.41253L0.611432 8.46009C0.530582 8.25083 0.373638 7.77049 -0.0876821 7.80378C-0.520467 7.82281 -0.715458 8.22706 -0.64412 8.35071L0.735085 11.3231C0.830202 11.4801 0.811179 11.9652 0.444976 12.1316C0.192915 12.2458 -0.230358 12.2363 -0.425349 12.0603C-0.534735 11.9937 -0.591805 11.851 -0.582293 11.7274C-0.572782 11.6037 -0.377791 11.1472 -0.64412 10.9189C-0.377791 11.0045 -0.354011 10.9712 -0.111462 10.8143C-0.444373 11.2185 -0.425349 11.2375 -0.377791 11.4706C-0.135241 11.3945 0.226206 11.4278 0.226206 11.5324C0.226206 11.637 0.131088 11.8177 -0.0115882 11.7464C-0.15902 11.6751 0.0835295 11.5847 -0.0876821 11.5847C-0.254138 11.5847 -0.373035 11.6228 -0.373035 11.7464C-0.373035 11.8701 -0.206579 12.008 0.0359706 12.008C0.27852 12.008 0.563873 11.8843 0.516314 11.4468C0.468756 11.0045 -0.958008 8.55997 -0.958008 8.26035C-0.958008 7.96548 -0.691679 7.5755 0.00743544 7.5755C0.468756 7.54221 0.630455 8.02255 0.796911 8.18425Z"
            fill="#FFE400"></path>
      <path fill-rule="evenodd" clip-rule="evenodd"
            d="M0.796911 6.97151C0.963367 7.13321 1.09653 7.6088 1.55785 7.5755C2.25697 7.5755 2.52329 7.19028 2.52329 6.89066C2.52329 6.59104 1.09653 4.14651 1.04897 3.70422C1.00141 3.26668 1.29152 3.14302 1.53407 3.14302C1.77187 3.14302 1.94308 3.2857 1.94308 3.4046C1.94308 3.52349 1.82418 3.5663 1.65772 3.5663C1.49127 3.5663 1.72906 3.47594 1.58163 3.4046C1.4342 3.33326 1.34384 3.51398 1.34384 3.61861C1.34384 3.72324 1.70053 3.76129 1.94308 3.68044C1.99064 3.91823 2.01442 3.9325 1.67675 4.33675C1.9193 4.17981 1.94308 4.14651 2.20941 4.23212C1.94308 4.00384 2.14282 3.53776 2.15234 3.42362C2.16185 3.30948 2.10478 3.16205 1.99064 3.09071C1.8004 2.91474 1.37237 2.90523 1.12507 3.01937C0.754108 3.18583 0.735085 3.67093 0.834958 3.82787L2.20941 6.8003C2.28074 6.92395 2.09051 7.3282 1.65297 7.34722C1.1964 7.38051 1.0347 6.90017 0.958611 6.69091L1.58163 6.73847C1.58163 6.73847 1.60541 6.64335 1.58163 6.57677C1.37269 6.56315 1.16469 6.53774 0.958611 6.50068L0.934832 6.18203H1.23445L1.21067 6.03935C1.21067 6.03935 0.953855 6.05838 0.92532 6.03935C0.906296 6.02509 0.877761 5.72547 0.877761 5.72547C0.877761 5.72547 0.830202 5.70644 0.782643 5.70644C0.725573 5.70644 0.678014 5.72547 0.678014 5.72547C0.678014 5.72547 0.654235 6.02509 0.630455 6.04411C0.606676 6.05838 0.345103 6.04411 0.345103 6.04411L0.321323 6.18679H0.630455L0.606676 6.50068C0.606676 6.50068 0.3023 6.55775 -0.0210999 6.57677C-0.0343888 6.62985 -0.0343888 6.68539 -0.0210999 6.73847L0.606676 6.69091C0.525826 6.90017 0.368882 7.38051 -0.092438 7.34722C-0.525223 7.3282 -0.720214 6.92395 -0.64412 6.8003L0.730329 3.82787C0.825446 3.67093 0.806423 3.18583 0.44022 3.01937C0.188159 2.90523 -0.235114 2.91474 -0.430105 3.09071C-0.539491 3.16205 -0.596561 3.29997 -0.587049 3.42362C-0.577538 3.54727 -0.382547 4.00384 -0.648876 4.23212C-0.382547 4.14651 -0.358767 4.18456 -0.116217 4.33675C-0.453885 3.9325 -0.430105 3.91823 -0.382547 3.68044C-0.139997 3.75653 0.22145 3.728 0.22145 3.61861C0.22145 3.50923 0.126332 3.33326 -0.016344 3.4046C-0.15902 3.47594 0.0787736 3.5663 -0.092438 3.5663C-0.258894 3.5663 -0.377791 3.52825 -0.377791 3.4046C-0.377791 3.28094 -0.211335 3.14302 0.0312148 3.14302C0.273765 3.14302 0.563873 3.26668 0.516314 3.70422C0.468756 4.14651 -0.958008 6.59104 -0.958008 6.89066C-0.958008 7.19028 -0.691679 7.5755 0.00743544 7.5755C0.468756 7.6088 0.630455 7.13321 0.796911 6.97151Z"
            fill="#FFE400"></path>
      <path fill-rule="evenodd" clip-rule="evenodd"
            d="M0.853698 0.69377C1.02015 0.53207 0.963083 0.265741 1.4244 0.294276C2.12352 0.294276 2.14254 0.722305 2.14254 1.02193C2.14254 1.32155 1.09625 1.74006 1.04869 2.1776C1.00113 2.6199 1.29124 2.74355 1.53379 2.74355C1.77158 2.74355 1.94279 2.60088 1.94279 2.47722C1.94279 2.35357 1.8239 2.32504 1.6622 2.32504C1.5005 2.32504 1.73354 2.4154 1.5861 2.48198C1.43867 2.54856 1.34831 2.37735 1.34831 2.27272C1.34831 2.16809 1.70976 2.13005 1.94755 2.2109C1.99511 1.9731 2.02364 1.95408 1.68122 1.54983C1.91902 1.70677 1.94755 1.74006 2.20912 1.65921C1.94279 1.8875 2.14254 2.35357 2.15205 2.46771C2.16157 2.58185 2.10449 2.72929 1.99511 2.80062C1.80012 2.97659 1.37684 2.9861 1.12478 2.87196C0.753824 2.70551 0.734801 2.22041 0.834674 2.06346L1.85719 1.01717C1.92853 0.888761 1.95231 0.546338 1.51952 0.527314C1.0582 0.494023 0.901257 1.1218 0.820407 1.3263C0.711021 1.09802 0.592124 0.470244 0.130804 0.503535C-0.301981 0.522558 -0.387587 0.864981 -0.316249 0.988634L0.734801 2.05871C0.829919 2.21565 0.815651 2.70075 0.449448 2.86721C0.192631 2.98135 -0.230643 2.97184 -0.425634 2.79587C-0.530263 2.72453 -0.59209 2.58661 -0.582578 2.46296C-0.573066 2.3393 -0.373319 1.88274 -0.639648 1.65446C-0.373319 1.74006 -0.354296 1.70202 -0.111746 1.54507C-0.444657 1.94932 -0.425634 1.9731 -0.373319 2.20614C-0.135525 2.12529 0.230678 2.15858 0.230678 2.26797C0.230678 2.3726 0.13556 2.55332 -0.0118724 2.47722C-0.154549 2.41064 0.0832453 2.32028 -0.0832105 2.32028C-0.254422 2.32028 -0.373319 2.35833 -0.373319 2.47722C-0.373319 2.59612 -0.206863 2.74355 0.0356864 2.74355C0.278236 2.74355 0.568345 2.6199 0.51603 2.1776C0.468472 1.74006 -0.601601 1.25972 -0.601601 0.960099C-0.601601 0.660479 -0.525507 0.294276 0.173607 0.294276C0.634927 0.260985 0.687242 0.53207 0.853698 0.69377Z"
            fill="#FFE400"></path>
      <path
        d="M16.3299 10.3211C16.3299 8.20274 14.5178 6.48547 12.2826 6.48547C10.0474 6.48547 8.23535 8.20274 8.23535 10.3211C8.23535 12.4394 10.0474 14.1567 12.2826 14.1567C14.5178 14.1567 16.3299 12.4394 16.3299 10.3211Z"
        fill="#FFE400"></path>
      <path fill-rule="evenodd" clip-rule="evenodd"
            d="M12.0924 4.1979C12.0543 4.1979 11.8736 5.47248 11.807 5.75783C11.7404 6.39987 12.6631 6.3761 12.5109 5.73405L12.0924 4.19315V4.1979ZM12.4158 16.5537C12.4491 16.5537 12.7249 15.2934 12.8153 15.0128C12.9246 14.3802 12.002 14.347 12.1019 14.9938L12.4158 16.5537ZM5.9668 10.2949C5.9668 10.3282 7.29369 10.5946 7.58855 10.6802C8.25437 10.7896 8.30193 9.91923 7.61709 10.0143L5.9668 10.2997V10.2949ZM18.8885 10.4471C18.8885 10.4138 17.5474 10.1951 17.2477 10.119C16.5772 10.0381 16.5724 10.9084 17.2477 10.7896L18.8885 10.4471ZM7.32698 6.25244C7.3032 6.27622 8.17828 7.26544 8.35425 7.50799C8.81081 7.98358 9.41481 7.31776 8.81081 6.99436L7.32698 6.2572V6.25244ZM17.3666 14.385C17.3904 14.3612 16.4297 13.4481 16.23 13.2246C15.7306 12.787 15.1932 13.4956 15.821 13.7715L17.3666 14.3898V14.385ZM9.3292 4.87324C9.30067 4.8875 9.70967 6.11452 9.77625 6.40463C10.0045 7.00863 10.8321 6.61389 10.404 6.0955L9.33396 4.87324H9.3292ZM15.1837 15.9259C15.217 15.9116 14.8983 14.6608 14.8555 14.3707C14.67 13.7525 13.8188 14.0854 14.204 14.6371L15.1884 15.9211L15.1837 15.9259ZM16.6247 5.7293C16.5962 5.70552 15.5404 6.51877 15.2836 6.68047C14.7747 7.1085 15.4643 7.68872 15.8162 7.12277L16.6247 5.7293ZM7.92146 14.9414C7.94524 14.9652 9.06287 14.2281 9.3292 14.0806C9.86662 13.6906 9.22457 13.0629 8.82983 13.605L7.92622 14.9414H7.92146ZM6.2569 8.08821C6.24264 8.11675 7.39832 8.78733 7.65038 8.96329C8.24486 9.27243 8.59204 8.46393 7.91195 8.33552L6.2569 8.08821ZM18.3226 12.768C18.3368 12.7395 17.2287 11.9928 16.9909 11.8026C16.4202 11.4506 16.016 12.2353 16.6865 12.4066L18.3226 12.768ZM14.4893 4.54508C14.456 4.53557 13.795 5.65796 13.619 5.90051C13.6193 5.97796 13.6439 6.05337 13.6892 6.11616C13.7346 6.17895 13.7985 6.22597 13.8719 6.25062C13.9453 6.27527 14.0246 6.27632 14.0987 6.25362C14.1727 6.23091 14.2378 6.1856 14.2848 6.12403L14.4893 4.54508ZM10.0236 16.1637C10.0569 16.178 10.7988 15.0984 10.989 14.8653C11.3362 14.3137 10.4944 13.9617 10.3374 14.599L10.0236 16.1637ZM6.33775 12.8679C6.35202 12.8964 7.6694 12.5825 7.97853 12.535C8.62533 12.3542 8.26388 11.5552 7.69318 11.9262L6.33775 12.8679ZM18.3273 7.98358C18.3178 7.95505 16.9814 8.17857 16.6723 8.20711C16.0065 8.34503 16.3156 9.1678 16.9101 8.83489L18.3273 7.98358Z"
            fill="#FFE400"></path>
      <path fill-rule="evenodd" clip-rule="evenodd"
            d="M13.4041 4.27874C13.3708 4.27399 12.9237 5.48674 12.7906 5.75306C12.5956 6.37133 13.5039 6.52352 13.4897 5.86721L13.4088 4.27399L13.4041 4.27874ZM11.0975 16.449C11.1308 16.4585 11.6682 15.2743 11.8204 15.0128C12.0581 14.4135 11.164 14.2043 11.1308 14.8558L11.0927 16.449H11.0975ZM10.6361 4.39764C10.6028 4.40715 10.7265 5.69124 10.7265 5.9861C10.8169 6.61863 11.7062 6.39986 11.4113 5.81014L10.6361 4.39764ZM13.8701 16.3777C13.9034 16.3729 13.8701 15.0841 13.8939 14.7892C13.8511 14.1472 12.9427 14.3089 13.1996 14.9176L13.8654 16.3777H13.8701ZM8.34381 5.46296C8.31527 5.48198 8.9478 6.61863 9.0667 6.88972C9.40912 7.44616 10.1463 6.92301 9.6279 6.48071L8.34381 5.46296ZM16.1815 15.3504C16.21 15.3314 15.6583 14.1519 15.5632 13.8761C15.2636 13.3006 14.4932 13.7762 14.9735 14.2471L16.1815 15.3504ZM6.66974 7.06093C6.65072 7.08947 7.67323 7.93601 7.88724 8.15478C8.41515 8.55428 8.905 7.81236 8.2582 7.57932L6.66974 7.06093ZM17.808 13.7049C17.827 13.6764 16.8711 12.7632 16.6713 12.5349C16.1767 12.1022 15.6346 12.8108 16.2623 13.0866L17.808 13.7049ZM5.93733 9.05364C5.92782 9.08694 7.18813 9.56728 7.46397 9.7052C8.10126 9.91921 8.30576 9.06791 7.6114 9.04889L5.93733 9.05364ZM18.6546 11.8025C18.6688 11.774 17.4466 11.2128 17.1802 11.0559C16.562 10.7991 16.2909 11.6361 16.9805 11.7027L18.6546 11.8025ZM5.89453 11.5029C5.89929 11.5315 7.25947 11.5124 7.5686 11.5362C8.24393 11.5029 8.08223 10.6421 7.43544 10.8751L5.89453 11.5029ZM18.7449 9.36278C18.7449 9.32949 17.3847 9.25815 17.0804 9.21534C16.4003 9.20583 16.5001 10.0762 17.1612 9.88117L18.7449 9.35802V9.36278ZM7.05972 14.0426C7.07874 14.0711 8.29625 13.4909 8.5816 13.3815C9.17133 13.0724 8.62916 12.3637 8.15833 12.8441L7.05972 14.0426ZM17.632 6.79936C17.613 6.77082 16.3622 7.27019 16.0626 7.36055C15.4491 7.63164 15.9389 8.37355 16.4431 7.9265L17.632 6.79936ZM9.03817 15.7261C9.0667 15.7404 9.93703 14.7512 10.1558 14.5419C10.5696 14.033 9.77533 13.5908 9.54229 14.209L9.03817 15.7261ZM15.6821 5.08249C15.6583 5.06346 14.7167 5.99086 14.4836 6.18585C14.0366 6.66619 14.7975 7.1608 15.0734 6.56156L15.6774 5.08249H15.6821Z"
            fill="#FFE400"></path>
      <path fill-rule="evenodd" clip-rule="evenodd"
            d="M6.09386 12.8723C6.16651 13.1175 6.17689 14.4911 7.64036 15.8155C9.09345 17.1302 11.5845 17.4245 11.5845 17.4245C11.5845 17.4245 11.5948 17.6109 11.4184 17.6207C11.242 17.6404 10.3909 17.4736 9.96531 17.346C9.55014 17.2283 9.17649 17.0125 9.13497 17.0223C9.08307 17.0419 9.00004 17.1793 8.87549 17.1596C8.75094 17.14 8.14894 16.5514 7.87908 16.3944C7.33932 15.9534 6.86146 15.4489 6.45713 14.8933C6.16651 14.4518 6.09386 14.1575 6.00045 14.1575C5.90703 14.1575 5.56452 14.3733 5.56452 14.3733C5.56452 14.3733 5.25314 13.9319 4.98328 13.2255C4.70304 12.5191 4.73418 12.107 4.79645 12.0776C4.86911 12.0482 4.86911 12.5976 5.07669 13.0979C5.28428 13.6081 5.5749 13.7651 5.5749 13.7651C5.5749 13.7651 5.38807 13.5002 5.24276 12.8428C5.09745 12.1855 5.03517 11.5478 5.13897 11.3516C5.24276 11.1554 5.33617 11.0965 5.34655 11.1063C5.36731 11.1259 5.17011 11.4104 5.30504 12.1659C5.43997 12.9213 5.80324 13.559 5.88627 13.5296C5.96931 13.5002 5.83438 13.3432 5.78248 12.9017C5.73058 12.4602 5.83438 12.1855 5.94855 12.1463C6.00045 12.107 6.08348 12.6368 6.09386 12.8723ZM5.07669 14.1281C4.79645 13.8828 4.36053 13.0292 4.26711 13.0685C4.16332 13.1175 4.9729 14.3439 4.99366 14.442C5.01442 14.5597 5.19086 14.8933 5.05593 14.8443C4.921 14.7952 3.95574 13.8337 4.06991 14.0201C4.18408 14.2066 4.91062 15.0503 4.86911 15.0993C4.82759 15.1484 4.26711 14.6284 4.24635 14.6971C4.23597 14.756 4.79645 15.2661 4.78607 15.325C4.77569 15.3839 4.4228 15.0012 4.4228 15.0797C4.4228 15.1582 4.78607 15.5408 4.78607 15.5997C4.78607 15.6586 4.4747 15.325 4.57849 15.5016C4.6719 15.6978 4.94176 15.8646 4.93138 15.9235C4.921 15.9823 4.70304 15.845 4.70304 15.8744C4.70304 15.9038 5.10783 16.0412 5.20124 16.1491C5.30504 16.257 5.96931 16.983 6.46751 17.346C6.96571 17.709 8.39804 18.3468 8.50184 18.3468C8.59525 18.3468 8.74056 18.1505 8.70942 18.0721C8.67828 17.9936 7.27709 17.5423 6.89306 17.2087C6.49865 16.8751 5.54376 16.0706 5.46072 16.0314C5.38807 15.9823 5.17011 16.002 5.17011 15.9529C5.17011 15.9038 5.45035 15.9823 5.42959 15.9529C5.41921 15.9235 5.04556 15.7665 5.05593 15.7371C5.07669 15.7076 5.31542 15.7959 5.31542 15.7665C5.31542 15.7371 4.87949 15.5114 4.90025 15.4624C4.91063 15.4133 5.222 15.5997 5.222 15.5605C5.222 15.5408 4.80683 15.2661 4.81721 15.2171C4.82759 15.168 5.13897 15.4329 5.12859 15.3741C5.11821 15.3152 4.87949 14.9816 4.87949 14.9424C4.87949 14.8933 5.25314 15.2759 5.29466 15.1975C5.31541 15.1288 5.15973 14.4911 5.17011 14.4813C5.18049 14.4714 5.45034 14.6186 5.49186 14.5303C5.54376 14.4322 5.30503 14.3047 5.07669 14.1281ZM9.86152 18.955C9.66431 18.9845 9.5709 18.9158 9.68507 18.7588C9.84076 18.7588 10.2559 18.6313 10.4012 18.5724C10.5465 18.5135 10.7022 18.4351 10.8268 18.3271C10.9513 18.1996 11.0344 18.3958 10.9617 18.5037C10.9098 18.5724 10.6711 18.7 10.4946 18.7686C10.2352 18.8471 10.0068 18.9648 9.86152 18.955ZM11.1589 18.4547C11.024 18.3173 11.1382 18.2192 11.3354 18.1113C11.626 17.9641 11.543 17.7581 11.9166 17.5913C12.0827 17.4932 14.4076 16.6102 15.1653 16.1393C15.923 15.6684 18.0507 14.1477 18.6216 13.0979C19.1821 12.058 18.9122 11.9795 18.9952 11.9402C19.0679 11.8912 19.1509 12.0874 19.1405 12.3229C19.1198 12.5485 18.933 13.2353 18.9952 13.304C19.0575 13.3726 19.8463 12.7644 20.1785 12.0285C20.5106 11.2927 20.7597 10.5275 20.9154 10.5275C21.0815 10.5275 20.6455 11.7833 20.3653 12.2738C20.0954 12.7644 19.7737 13.0096 19.8463 13.1175C19.9294 13.2157 20.7389 12.5779 21.0192 12.107C21.289 11.6263 21.5485 11.2044 21.6004 11.2927C21.5178 11.8674 21.2781 12.4119 20.905 12.8723C20.4691 13.3432 19.9501 13.6866 20.0332 13.7553C20.1058 13.8337 20.6974 13.9122 21.3098 13.5198C21.9326 13.1175 21.9948 12.5387 22.0675 12.5681C22.1505 12.5976 21.9948 13.3923 21.4032 13.8828C20.8116 14.3733 20.0332 14.4224 20.0539 14.5303C20.0954 14.6284 21.7457 14.079 21.7146 14.2066C21.6835 14.3243 19.5765 15.1092 19.5557 15.1876C19.5557 15.2465 19.919 15.2661 20.4898 15.1386C21.0503 15.0209 21.59 14.599 21.6627 14.6971C21.6835 14.8345 21.2579 15.168 20.6144 15.325C19.9605 15.482 19.6387 15.688 19.618 15.7371C19.6076 15.7861 20.7805 15.5997 20.7805 15.6586C20.7805 15.7174 19.2443 16.002 19.234 16.0804C19.2132 16.1491 20.687 15.7959 20.6663 15.8842C20.6248 15.9529 18.6631 16.5023 18.6839 16.5317C18.6942 16.571 20.3238 16.1982 20.2926 16.257C20.2511 16.3257 17.5525 17.0419 17.5318 17.091C17.511 17.1302 19.919 16.5808 19.8982 16.6299C19.8775 16.6789 18.6527 16.9634 18.6527 16.9929C18.6527 17.0223 19.6387 16.8457 19.618 16.8947C19.6076 16.934 17.127 17.5325 17.0751 17.6207C17.0232 17.7189 18.3621 17.3755 18.3413 17.5521C18.3206 17.7287 15.4663 18.6313 15.4559 18.4645C15.4352 18.2977 17.1892 17.8758 17.1789 17.8268C17.1581 17.7777 16.1721 17.9249 16.1513 17.8366C16.1409 17.7385 16.8052 17.5423 16.7533 17.503C16.7014 17.454 16.2032 17.6404 16.2447 17.5325C16.2966 17.4245 17.2411 17.0125 17.2204 16.983C17.21 16.9536 16.8779 17.0812 16.909 16.983C16.9505 16.8751 18.9537 16.3257 18.9226 16.257C18.8914 16.1982 17.9988 16.3944 17.9158 16.414C17.8847 16.3551 19.1613 15.9038 19.1405 15.8254C19.099 15.7567 18.4555 16.0902 18.414 16.002C18.3932 15.9038 19.5453 15.482 19.4727 15.4133C19.4 15.3446 18.8811 15.5899 18.8084 15.5212C18.7358 15.4525 19.8982 14.6971 19.7218 14.6775C19.5453 14.6677 19.3274 14.9129 19.3066 14.756C19.3274 14.5597 20.2096 14.236 20.0124 14.079C19.701 13.9907 18.6527 14.1477 18.2168 14.393C17.7809 14.6382 16.3278 16.002 15.9749 16.2178C15.622 16.4238 14.418 16.9046 14.1897 17.0027C13.8368 17.1204 13.7745 17.297 13.4112 17.4736C12.7573 17.6404 12.7677 17.8268 12.4563 17.9347C12.3422 17.9641 11.1693 18.4939 11.1589 18.4547ZM9.519 19.1414C9.3218 19.2395 9.14535 19.475 9.25952 19.5731C9.3218 19.6909 9.519 19.3082 9.67469 19.3279L10.505 19.3671C10.9513 19.3965 11.1693 19.2788 11.4184 19.2984C11.6675 19.318 12.2176 19.1709 12.4771 19.1709C12.7366 19.1709 12.7885 19.2003 12.8092 19.0924C12.8404 18.9943 11.9996 19.063 11.626 19.0531C11.2523 19.0335 10.7853 19.1218 10.505 19.1218C10.2455 19.112 9.79924 19.0335 9.519 19.1414Z"
            fill="#FFE400"></path>
      <path
        d="M10.765 19.0237C10.765 18.9424 10.686 18.8766 10.5886 18.8766C10.4911 18.8766 10.4121 18.9424 10.4121 19.0237C10.4121 19.105 10.4911 19.1709 10.5886 19.1709C10.686 19.1709 10.765 19.105 10.765 19.0237Z"
        fill="#FFE400"></path>
      <path fill-rule="evenodd" clip-rule="evenodd"
            d="M14.9062 18.7392C15.0826 18.7098 15.5601 18.8667 15.8922 18.9354C16.4942 19.1611 17.6152 19.0531 17.6152 19.1611C17.6152 19.269 17.5425 19.3965 17.283 19.4162C17.0235 19.4358 16.3697 19.318 16.3904 19.318C16.4112 19.318 16.9094 19.5437 16.7641 19.6026C16.6188 19.6614 16.1932 19.475 16.1206 19.5241C16.0479 19.5731 16.515 19.6614 16.4319 19.6909C16.3697 19.7203 16.0479 19.6516 15.9441 19.6614C15.8403 19.681 16.0271 19.789 15.9026 19.8282C15.778 19.8773 15.5705 19.7693 15.4874 19.7988C15.394 19.8282 15.6742 19.995 15.5497 20.0146C15.4251 20.0342 15.1345 19.9361 14.9685 19.9165C14.8024 19.9165 15.1241 20.0735 15.0204 20.0931C14.9166 20.1029 14.6259 19.9656 14.5533 19.9656C14.4806 19.9656 14.5533 20.1618 14.4495 20.1618C14.3457 20.1618 14.2212 19.995 14.1589 19.995C14.0966 19.995 14.1589 20.1912 14.0551 20.1912C13.9513 20.1912 13.9098 19.9852 13.8267 19.995C13.723 20.0146 13.8267 20.2599 13.6814 20.2403C13.5465 20.2305 13.5257 19.9852 13.4116 19.995C13.3078 20.0146 13.4323 20.2403 13.3285 20.2403C13.2248 20.2403 13.204 20.0146 13.1002 19.995C12.9964 19.9852 13.0379 20.2108 12.9756 20.2108C12.9134 20.2108 12.8511 19.995 12.8096 19.995C12.7784 19.995 12.8096 20.2108 12.685 20.1912C12.5605 20.1716 12.5605 19.9558 12.5293 19.9656C12.4878 19.9852 12.4878 20.1422 12.4048 20.1422C12.3218 20.1422 12.3114 19.9852 12.2802 20.0048C12.2387 20.0146 12.1142 20.2108 12.0311 20.1814C11.9377 20.152 12.0519 19.995 12.0104 19.995C11.9689 19.995 11.8651 20.1029 11.8028 20.0931C11.7405 20.0833 11.8028 19.9558 11.782 19.9558C11.7613 19.9558 11.6056 20.0342 11.5329 20.0342C11.4603 20.0342 11.2631 20.1323 11.2112 20.044C11.1593 19.9459 11.3461 19.9459 11.3876 19.8576C11.4188 19.7693 11.2838 19.5044 11.4291 19.4162C11.5641 19.318 12.0104 19.5437 12.6747 19.3867C13.8786 19.0826 14.8128 18.7294 14.9062 18.7392Z"
            fill="#FFE400"></path>
    </g>
    <rect x="0.75" y="0.5" width="23" height="23" rx="11.5" stroke="#DBDBDB"></rect>
    <defs>
      <clipPath id="clip0_3021_887">
        <rect x="0.25" width="24" height="24" rx="12" fill="white"></rect>
      </clipPath>
    </defs>
  </symbol>
  <symbol fill="none" xmlns="http://www.w3.org/2000/svg" viewBox="0 0 26 26" id="GBP">
    <g clip-path="url(#clip0_3021_4379)">
      <path d="M-12.125 0.5H37.875V25.5H-12.125V0.5Z" fill="#012169"></path>
      <path
        d="M-12.125 0.5V3.295L32.285 25.5H37.875V22.705L-6.535 0.505H-12.125V0.5ZM37.875 0.5V3.295L-6.535 25.5H-12.125V22.705L32.285 0.5H37.875Z"
        fill="white"></path>
      <path d="M8.71 0.5V25.5H17.04V0.5H8.71ZM-12.125 8.835V17.165H37.875V8.835H-12.125Z" fill="white"></path>
      <path
        d="M-12.125 10.5V15.5H37.875V10.5H-12.125ZM10.375 0.5V25.5H15.375V0.5H10.375ZM-12.125 25.5L4.54 17.165H8.275L-8.4 25.5H-12.125ZM-12.125 0.5L4.54 8.835H0.815001L-12.125 2.365V0.5ZM17.48 8.835L34.15 0.5H37.875L21.21 8.835H17.475H17.48ZM37.88 25.5L21.205 17.165H24.93L37.875 23.635V25.5H37.88Z"
        fill="#C8102E"></path>
    </g>
    <rect x="0.875" y="1" width="24" height="24" rx="11.5" stroke="#DBDBDB"></rect>
    <defs>
      <clipPath id="clip0_3021_4379">
        <rect x="0.375" y="0.5" width="25" height="25" rx="12" fill="white"></rect>
      </clipPath>
    </defs>
  </symbol>
  <symbol xmlns="http://www.w3.org/2000/svg" viewBox="0 0 900 600" id="JPY">
    <rect fill="#fff" height="600" width="900"></rect>
    <circle fill="#bc002d" cx="450" cy="300" r="180"></circle>
  </symbol>
  <symbol fill="none" xmlns="http://www.w3.org/2000/svg" viewBox="0 0 25 24" id="carNumber_flag">
    <svg width="20" height="22" viewBox="0 0 20 22" fill="none" xmlns="http://www.w3.org/2000/svg">
      <path
        d="M4 7.94519V9.63809C4 10.34 4.52258 10.8355 5.16129 10.8355H14.8387C15.4774 10.8355 16 10.34 16 9.63809V7.94519H4Z"
        fill="#1EB53A"/>
      <path
        d="M14.8387 2.16455H5.16129C4.52258 2.16455 4 2.66003 4 3.36197V5.05487H16V3.36197C16 2.66003 15.4774 2.16455 14.8387 2.16455Z"
        fill="#0099B5"/>
      <path d="M16 5.05481H4V7.94513H16V5.05481Z" fill="#F3F5F8"/>
      <path d="M16 4.84839H4V5.05484H16V4.84839Z" fill="#CE1126"/>
      <path d="M16 7.94519H4V8.15164H16V7.94519Z" fill="#CE1126"/>
      <path
        d="M5.81945 2.74257C5.78074 2.74257 5.74203 2.72192 5.70332 2.72192C5.29687 2.72192 4.94849 3.07289 4.94849 3.52709C4.94849 3.98128 5.27752 4.33225 5.70332 4.33225C5.74203 4.33225 5.78074 4.33225 5.81945 4.31161C5.47107 4.24967 5.2001 3.91935 5.2001 3.52709C5.2001 3.11418 5.47107 2.8045 5.81945 2.74257Z"
        fill="white"/>
      <path
        d="M6.18725 4.10506L6.14855 4.00183L6.10984 4.10506H6.01306L6.09048 4.18764L6.07113 4.29086L6.14855 4.22893L6.24532 4.29086L6.20661 4.18764L6.30338 4.10506H6.18725Z"
        fill="white"/>
      <path
        d="M6.78711 4.10506L6.7484 4.00183L6.70969 4.10506H6.61292L6.69033 4.18764L6.67098 4.29086L6.7484 4.22893L6.84517 4.29086L6.80646 4.18764L6.88388 4.10506H6.78711Z"
        fill="white"/>
      <path
        d="M7.38733 4.10506L7.34862 4.00183L7.30991 4.10506H7.21313L7.29055 4.18764L7.25184 4.29086L7.34862 4.22893L7.44539 4.29086L7.40668 4.18764L7.4841 4.10506H7.38733Z"
        fill="white"/>
      <path
        d="M7.98718 4.10506L7.94847 4.00183L7.90976 4.10506H7.81299L7.89041 4.18764L7.8517 4.29086L7.94847 4.22893L8.04525 4.29086L8.00654 4.18764L8.08396 4.10506H7.98718Z"
        fill="white"/>
      <path
        d="M8.5874 4.10506L8.54869 4.00183L8.50998 4.10506H8.41321L8.49063 4.18764L8.45192 4.29086L8.54869 4.22893L8.62611 4.29086L8.60676 4.18764L8.68418 4.10506H8.5874Z"
        fill="white"/>
      <path
        d="M6.7484 3.36206L6.72904 3.46529H6.61292L6.70969 3.54787L6.67098 3.65109L6.7484 3.58916L6.84517 3.65109L6.80646 3.54787L6.90324 3.46529H6.78711L6.7484 3.36206Z"
        fill="white"/>
      <path
        d="M7.34862 3.36206L7.32926 3.46529H7.21313L7.30991 3.54787L7.2712 3.65109L7.34862 3.58916L7.44539 3.65109L7.40668 3.54787L7.50346 3.46529H7.38733L7.34862 3.36206Z"
        fill="white"/>
      <path
        d="M7.94847 3.36206L7.92912 3.46529H7.81299L7.90976 3.54787L7.87105 3.65109L7.94847 3.58916L8.04525 3.65109L8.00654 3.54787L8.10331 3.46529H7.98718L7.94847 3.36206Z"
        fill="white"/>
      <path
        d="M8.5874 3.46529L8.54869 3.36206L8.52934 3.46529H8.41321L8.49063 3.54787L8.47127 3.65109L8.54869 3.58916L8.64547 3.65109L8.60676 3.54787L8.70353 3.46529H8.5874Z"
        fill="white"/>
      <path
        d="M7.2905 2.90773L7.25179 3.01096L7.34856 2.94902L7.42598 3.01096L7.40663 2.90773L7.48405 2.82515H7.38727L7.34856 2.72192L7.30985 2.82515H7.19373L7.2905 2.90773Z"
        fill="white"/>
      <path
        d="M7.89035 2.90773L7.85164 3.01096L7.94842 2.94902L8.02584 3.01096L8.00648 2.90773L8.0839 2.82515H7.98713L7.94842 2.72192L7.90971 2.82515H7.79358L7.89035 2.90773Z"
        fill="white"/>
      <path
        d="M8.49057 2.90773L8.45186 3.01096L8.54864 2.94902L8.62606 3.01096L8.6067 2.90773L8.68412 2.82515H8.56799L8.54864 2.72192L8.50993 2.82515H8.3938L8.49057 2.90773Z"
        fill="white"/>
      <path
        d="M7.51766 20.596C7.15499 20.596 6.82699 20.548 6.53366 20.452C6.24566 20.356 6.00032 20.212 5.79766 20.02C5.59499 19.8227 5.43766 19.5773 5.32566 19.284C5.21366 18.9907 5.15766 18.6493 5.15766 18.26V14.9H6.35766V18.148C6.35766 18.628 6.45099 18.988 6.63766 19.228C6.82432 19.468 7.11766 19.588 7.51766 19.588C7.91766 19.588 8.21099 19.468 8.39766 19.228C8.58432 18.988 8.67766 18.6307 8.67766 18.156V14.9H9.87766V18.26C9.87766 18.6493 9.82166 18.9907 9.70966 19.284C9.60299 19.5773 9.44566 19.8227 9.23766 20.02C9.03499 20.212 8.78699 20.356 8.49366 20.452C8.20566 20.548 7.88032 20.596 7.51766 20.596ZM10.7214 19.628L13.6014 15.892H10.8014V14.9H15.0414V15.772L12.1614 19.508H15.1214V20.5H10.7214V19.628Z"
        fill="#0099B5"/>
    </svg>
  </symbol>


  <symbol fill="none" xmlns="http://www.w3.org/2000/svg" viewBox="0 0 24 24" id="RUB">
    <g clip-path="url(#clip0_26_6377)">
      <path fill-rule="evenodd" clip-rule="evenodd" d="M0 0H24V24H0V0Z" fill="white"></path>
      <path fill-rule="evenodd" clip-rule="evenodd" d="M0 8.00156H24V24H0V8.00156Z" fill="#0039A6"></path>
      <path fill-rule="evenodd" clip-rule="evenodd" d="M0 15.9984H24V24H0V15.9984Z" fill="#D52B1E"></path>
    </g>
    <rect x="0.5" y="0.5" width="23" height="23" rx="11.5" stroke="#F4EFF4"></rect>
    <defs>
      <clipPath id="clip0_26_6377">
        <rect width="24" height="24" rx="12" fill="white"></rect>
      </clipPath>
    </defs>
  </symbol>
  <symbol fill="none" xmlns="http://www.w3.org/2000/svg" viewBox="0 0 26 26" id="CHF">
    <rect x="1" y="1" width="24" height="24" rx="12" fill="#FF0000"></rect>
    <rect x="1" y="1" width="24" height="24" rx="12" stroke="#F4EFF4"></rect>
    <path fill-rule="evenodd" clip-rule="evenodd"
          d="M11.286 14.7143H8.19075C8.00666 14.7143 7.85742 14.5651 7.85742 14.381V11.6191C7.85742 11.435 8.00666 11.2857 8.19076 11.2857H11.286V8.19048C11.286 8.00639 11.4352 7.85715 11.6193 7.85715H14.3812C14.5653 7.85715 14.7146 8.00639 14.7146 8.19048V11.2857H17.8098C17.9939 11.2857 18.1431 11.435 18.1431 11.6191V14.381C18.1431 14.5651 17.9939 14.7143 17.8098 14.7143H14.7146V17.8095C14.7146 17.9936 14.5653 18.1429 14.3812 18.1429H11.6193C11.4352 18.1429 11.286 17.9936 11.286 17.8095V14.7143Z"
          fill="white"></path>
  </symbol>

  <symbol  xmlns="http://www.w3.org/2000/svg" preserveAspectRatio="xMidYMid meet"
          viewBox="0 0 24.000000 24.000000" id="AED">
    <g transform="translate(0.000000,24.000000) scale(0.100000,-0.100000)" fill="#000000" stroke="none">
      <path d="M0 120 l0 -91 118 3 117 3 3 28 3 27 -93 0 -93 0 -2 30 -2 30 89 0
c83 0 90 1 90 20 0 23 -15 27 -24 5 -4 -11 -22 -15 -76 -15 -68 0 -70 1 -70
25 0 21 -5 25 -30 25 l-30 0 0 -90z"></path>
    </g>
  </symbol>

</svg>
