<svg width="0" height="0" class="hidden">
  <symbol fill="none" xmlns="http://www.w3.org/2000/svg" viewBox="0 0 24 24" id="blue">
    <svg xmlns="http://www.w3.org/2000/svg" width="58" height="39" viewBox="0 0 58 39" fill="none">
      <path d="M6.27052 17.1356C4.19682 18.1184 1 29.7179 1 29.7179V38.0645H57V21.9941C57 21.9941 53.2933 12.525 52.1289 11.1559C50.9645 9.78685 48.8726 9.7856 46.8003 9.91017C44.728 10.0347 43.0496 3.43218 41.3102 3.3076C39.5708 3.18303 37.4743 12.9 35.8201 13.1492C34.1659 13.3983 31.3044 4.9271 29.2535 4.17964C27.2026 3.43218 24.9115 8.04152 22.7677 8.1661C20.6239 8.29067 19.4602 1.81268 17.2507 1.93726C15.0412 2.06183 14.2008 14.9021 11.8144 17.7585C9.70775 20.2802 8.42654 16.1138 6.27052 17.1356Z" fill="url(#paint0_linear_1345_840)"/>
      <path d="M1 30.7411C1 30.7411 4.19682 18.7144 6.27052 17.6954C8.42654 16.636 9.70775 20.9558 11.8144 18.3413C14.2008 15.3796 15.0412 2.06649 17.2507 1.93732C19.4602 1.80816 20.6239 8.52473 22.7677 8.39556C24.9115 8.2664 27.2026 3.4873 29.2535 4.26229C31.3044 5.03728 34.1659 13.8205 35.8201 13.5622C37.4743 13.3038 39.5708 3.22897 41.3102 3.35814C43.0496 3.4873 44.728 10.333 46.8003 10.2039C48.8726 10.0747 51.2211 10.3821 52.1289 11.4955C53.0367 12.609 57 22.7328 57 22.7328" stroke="#165DFF" stroke-width="2" stroke-linecap="round"/>
      <defs>
        <linearGradient id="paint0_linear_1345_840" x1="29" y1="1.93548" x2="29" y2="38.0645" gradientUnits="userSpaceOnUse">
          <stop stop-color="#165DFF" stop-opacity="0.2"/>
          <stop offset="1" stop-color="#165DFF" stop-opacity="0"/>
        </linearGradient>
      </defs>
    </svg>
  </symbol>
  <symbol fill="none" xmlns="http://www.w3.org/2000/svg" viewBox="0 0 24 24" id="green">
    <svg xmlns="http://www.w3.org/2000/svg" width="58" height="39" viewBox="0 0 58 39" fill="none">
      <path d="M51.7295 17.1356C53.8032 18.1184 57 29.7179 57 29.7179V38.0645H1.00001V21.9941C1.00001 21.9941 4.70673 12.525 5.87112 11.1559C7.0355 9.78685 9.12744 9.7856 11.1997 9.91017C13.272 10.0347 14.9504 3.43218 16.6898 3.3076C18.4292 3.18303 20.5257 12.9 22.1799 13.1492C23.8341 13.3983 26.6956 4.9271 28.7465 4.17964C30.7974 3.43218 33.0885 8.04152 35.2323 8.1661C37.3761 8.29067 38.5398 1.81268 40.7493 1.93726C42.9588 2.06183 43.7992 14.9021 46.1856 17.7585C48.2923 20.2802 49.5735 16.1138 51.7295 17.1356Z" fill="url(#paint0_linear_1345_845)"/>
      <path d="M57 30.7411C57 30.7411 53.8032 18.7144 51.7295 17.6954C49.5735 16.636 48.2923 20.9558 46.1856 18.3413C43.7992 15.3796 42.9588 2.06649 40.7493 1.93732C38.5398 1.80816 37.3761 8.52473 35.2323 8.39556C33.0885 8.2664 30.7974 3.4873 28.7465 4.26229C26.6956 5.03728 23.8341 13.8205 22.1799 13.5622C20.5257 13.3038 18.4292 3.22897 16.6898 3.35814C14.9504 3.4873 13.272 10.333 11.1997 10.2039C9.12744 10.0747 6.77888 10.3821 5.87111 11.4955C4.96334 12.609 1 22.7328 1 22.7328" stroke="#20C997" stroke-width="2" stroke-linecap="round"/>
      <defs>
        <linearGradient id="paint0_linear_1345_845" x1="29" y1="1.93548" x2="29" y2="38.0645" gradientUnits="userSpaceOnUse">
          <stop stop-color="#D2F4EA"/>
          <stop offset="1" stop-color="#D2F4EA" stop-opacity="0"/>
        </linearGradient>
      </defs>
    </svg>
  </symbol>
  <symbol fill="none" xmlns="http://www.w3.org/2000/svg" viewBox="0 0 24 24" id="violet">
    <svg xmlns="http://www.w3.org/2000/svg" width="58" height="39" viewBox="0 0 58 39" fill="none">
      <path d="M6.27052 17.1356C4.19682 18.1184 1 29.7179 1 29.7179V38.0645H57V21.9941C57 21.9941 53.2933 12.525 52.1289 11.1559C50.9645 9.78686 48.8726 9.7856 46.8003 9.91017C44.728 10.0348 43.0496 3.43218 41.3102 3.3076C39.5708 3.18303 37.4743 12.9 35.8201 13.1492C34.1659 13.3983 31.3044 4.9271 29.2535 4.17964C27.2026 3.43218 24.9115 8.04152 22.7677 8.1661C20.6239 8.29068 19.4602 1.81268 17.2507 1.93726C15.0412 2.06184 14.2008 14.9021 11.8144 17.7585C9.70775 20.2802 8.42654 16.1138 6.27052 17.1356Z" fill="url(#paint0_linear_1345_850)"/>
      <path d="M1 30.7411C1 30.7411 4.19682 18.7144 6.27052 17.6954C8.42654 16.636 9.70775 20.9558 11.8144 18.3413C14.2008 15.3796 15.0412 2.06649 17.2507 1.93733C19.4602 1.80816 20.6239 8.52473 22.7677 8.39556C24.9115 8.2664 27.2026 3.4873 29.2535 4.26229C31.3044 5.03728 34.1659 13.8205 35.8201 13.5622C37.4743 13.3038 39.5708 3.22897 41.3102 3.35814C43.0496 3.4873 44.728 10.333 46.8003 10.2039C48.8726 10.0747 51.2211 10.3821 52.1289 11.4955C53.0367 12.609 57 22.7328 57 22.7328" stroke="#6610F2" stroke-width="2" stroke-linecap="round"/>
      <defs>
        <linearGradient id="paint0_linear_1345_850" x1="29" y1="1.93549" x2="29" y2="38.0645" gradientUnits="userSpaceOnUse">
          <stop stop-color="#E0CFFC"/>
          <stop offset="1" stop-color="#E0CFFC" stop-opacity="0"/>
        </linearGradient>
      </defs>
    </svg>
  </symbol>
  <symbol fill="none" xmlns="http://www.w3.org/2000/svg" viewBox="0 0 24 24" id="success-triangle">
    <svg xmlns="http://www.w3.org/2000/svg" viewBox="0 0 17 16" fill="none">
      <path d="M8.49992 1.3335C4.82659 1.3335 1.83325 4.32683 1.83325 8.00016C1.83325 11.6735 4.82659 14.6668 8.49992 14.6668C12.1733 14.6668 15.1666 11.6735 15.1666 8.00016C15.1666 4.32683 12.1733 1.3335 8.49992 1.3335ZM11.6866 6.46683L7.90659 10.2468C7.81325 10.3402 7.68659 10.3935 7.55325 10.3935C7.41992 10.3935 7.29325 10.3402 7.19992 10.2468L5.31325 8.36016C5.11992 8.16683 5.11992 7.84683 5.31325 7.6535C5.50659 7.46016 5.82659 7.46016 6.01992 7.6535L7.55325 9.18683L10.9799 5.76016C11.1733 5.56683 11.4933 5.56683 11.6866 5.76016C11.8799 5.9535 11.8799 6.26683 11.6866 6.46683Z" fill="#05BC74"/>
    </svg>
  </symbol>
  <symbol fill="none" xmlns="http://www.w3.org/2000/svg" viewBox="0 0 24 24" id="failure-triangle">
    <svg xmlns="http://www.w3.org/2000/svg" viewBox="0 0 17 16" fill="none">
      <path d="M8.49992 1.33301C4.82659 1.33301 1.83325 4.32634 1.83325 7.99967C1.83325 11.673 4.82659 14.6663 8.49992 14.6663C12.1733 14.6663 15.1666 11.673 15.1666 7.99967C15.1666 4.32634 12.1733 1.33301 8.49992 1.33301ZM10.7399 9.53301C10.9333 9.72634 10.9333 10.0463 10.7399 10.2397C10.6399 10.3397 10.5133 10.3863 10.3866 10.3863C10.2599 10.3863 10.1333 10.3397 10.0333 10.2397L8.49992 8.70634L6.96658 10.2397C6.86658 10.3397 6.73992 10.3863 6.61325 10.3863C6.48659 10.3863 6.35992 10.3397 6.25992 10.2397C6.06659 10.0463 6.06659 9.72634 6.25992 9.53301L7.79325 7.99967L6.25992 6.46634C6.06659 6.27301 6.06659 5.95301 6.25992 5.75967C6.45325 5.56634 6.77325 5.56634 6.96658 5.75967L8.49992 7.29301L10.0333 5.75967C10.2266 5.56634 10.5466 5.56634 10.7399 5.75967C10.9333 5.95301 10.9333 6.27301 10.7399 6.46634L9.20658 7.99967L10.7399 9.53301Z" fill="#FF3333"/>
    </svg>
  </symbol>
  <symbol fill="none" xmlns="http://www.w3.org/2000/svg" viewBox="0 0 24 24" id="warning-triangle">
    <svg xmlns="http://www.w3.org/2000/svg" viewBox="0 0 17 16" fill="none">
      <path d="M15.0067 10.6135L10.74 2.9335C10.1667 1.90016 9.37332 1.3335 8.49998 1.3335C7.62665 1.3335 6.83332 1.90016 6.25998 2.9335L1.99332 10.6135C1.45332 11.5935 1.39332 12.5335 1.82665 13.2735C2.25999 14.0135 3.11332 14.4202 4.23332 14.4202H12.7667C13.8867 14.4202 14.74 14.0135 15.1733 13.2735C15.6067 12.5335 15.5467 11.5868 15.0067 10.6135ZM7.99998 6.00016C7.99998 5.72683 8.22665 5.50016 8.49998 5.50016C8.77332 5.50016 8.99998 5.72683 8.99998 6.00016V9.3335C8.99998 9.60683 8.77332 9.8335 8.49998 9.8335C8.22665 9.8335 7.99998 9.60683 7.99998 9.3335V6.00016ZM8.97332 11.8068C8.93998 11.8335 8.90665 11.8602 8.87332 11.8868C8.83332 11.9135 8.79332 11.9335 8.75332 11.9468C8.71332 11.9668 8.67332 11.9802 8.62665 11.9868C8.58665 11.9935 8.53998 12.0002 8.49998 12.0002C8.45998 12.0002 8.41332 11.9935 8.36665 11.9868C8.32665 11.9802 8.28665 11.9668 8.24665 11.9468C8.20665 11.9335 8.16665 11.9135 8.12665 11.8868C8.09332 11.8602 8.05998 11.8335 8.02665 11.8068C7.90665 11.6802 7.83332 11.5068 7.83332 11.3335C7.83332 11.1602 7.90665 10.9868 8.02665 10.8602C8.05998 10.8335 8.09332 10.8068 8.12665 10.7802C8.16665 10.7535 8.20665 10.7335 8.24665 10.7202C8.28665 10.7002 8.32665 10.6868 8.36665 10.6802C8.45332 10.6602 8.54665 10.6602 8.62665 10.6802C8.67332 10.6868 8.71332 10.7002 8.75332 10.7202C8.79332 10.7335 8.83332 10.7535 8.87332 10.7802C8.90665 10.8068 8.93998 10.8335 8.97332 10.8602C9.09332 10.9868 9.16665 11.1602 9.16665 11.3335C9.16665 11.5068 9.09332 11.6802 8.97332 11.8068Z" fill="#FCCB02"/>
    </svg>
  </symbol>
  <symbol fill="none" xmlns="http://www.w3.org/2000/svg" viewBox="0 0 24 24" id="warning-circle">
    <svg xmlns="http://www.w3.org/2000/svg" width="24" height="24" viewBox="0 0 24 24" fill="none">
      <path d="M12 2C6.49 2 2 6.49 2 12C2 17.51 6.49 22 12 22C17.51 22 22 17.51 22 12C22 6.49 17.51 2 12 2ZM11.25 8C11.25 7.59 11.59 7.25 12 7.25C12.41 7.25 12.75 7.59 12.75 8V13C12.75 13.41 12.41 13.75 12 13.75C11.59 13.75 11.25 13.41 11.25 13V8ZM12.92 16.38C12.87 16.51 12.8 16.61 12.71 16.71C12.61 16.8 12.5 16.87 12.38 16.92C12.26 16.97 12.13 17 12 17C11.87 17 11.74 16.97 11.62 16.92C11.5 16.87 11.39 16.8 11.29 16.71C11.2 16.61 11.13 16.51 11.08 16.38C11.03 16.26 11 16.13 11 16C11 15.87 11.03 15.74 11.08 15.62C11.13 15.5 11.2 15.39 11.29 15.29C11.39 15.2 11.5 15.13 11.62 15.08C11.86 14.98 12.14 14.98 12.38 15.08C12.5 15.13 12.61 15.2 12.71 15.29C12.8 15.39 12.87 15.5 12.92 15.62C12.97 15.74 13 15.87 13 16C13 16.13 12.97 16.26 12.92 16.38Z" fill="#FCCB02"/>
    </svg>
  </symbol>
  <symbol fill="none" xmlns="http://www.w3.org/2000/svg" viewBox="0 0 64 64" id="deposit-cheque">
    <svg xmlns="http://www.w3.org/2000/svg" width="64" height="64" viewBox="0 0 64 64" fill="none">
      <path d="M31.9997 5.3335C17.3063 5.3335 5.33301 17.3068 5.33301 32.0002C5.33301 46.6935 17.3063 58.6668 31.9997 58.6668C46.693 58.6668 58.6663 46.6935 58.6663 32.0002C58.6663 17.3068 46.693 5.3335 31.9997 5.3335ZM44.7463 25.8668L29.6263 40.9868C29.253 41.3602 28.7463 41.5735 28.213 41.5735C27.6797 41.5735 27.173 41.3602 26.7997 40.9868L19.253 33.4402C18.4797 32.6668 18.4797 31.3868 19.253 30.6135C20.0263 29.8402 21.3063 29.8402 22.0797 30.6135L28.213 36.7468L41.9197 23.0402C42.693 22.2668 43.973 22.2668 44.7463 23.0402C45.5197 23.8135 45.5197 25.0668 44.7463 25.8668Z" fill="#0EB100"/>
    </svg>
  </symbol>
  <symbol fill="none" xmlns="http://www.w3.org/2000/svg" id="payment-info">
    <svg xmlns="http://www.w3.org/2000/svg" width="20" height="20" viewBox="0 0 20 20" fill="none">
      <path d="M9.99935 18.3334C14.5827 18.3334 18.3327 14.5834 18.3327 10.0001C18.3327 5.41675 14.5827 1.66675 9.99935 1.66675C5.41602 1.66675 1.66602 5.41675 1.66602 10.0001C1.66602 14.5834 5.41602 18.3334 9.99935 18.3334Z" stroke="#7C8897" stroke-width="1.5" stroke-linecap="round" stroke-linejoin="round"/>
      <path d="M10 6.66675V10.8334" stroke="black" stroke-width="1.5" stroke-linecap="round" stroke-linejoin="round"/>
      <path d="M9.99609 13.3333H10.0036" stroke="black" stroke-width="2" stroke-linecap="round" stroke-linejoin="round"/>
    </svg>
  </symbol>
</svg>
