<svg width="0" height="0" class="hidden">
  <symbol fill="none" xmlns="http://www.w3.org/2000/svg" viewBox="0 0 20 20" id="star">
    <g clip-path="url(#clip0_536_23738)">
      <path d="M11.209 1.10255C10.7138 0.0991322 9.28301 0.0991154 8.7878 1.10251L6.42988 5.88019L1.15735 6.64633C0.0500454 6.80723 -0.392086 8.168 0.409159 8.94902L4.2244 12.668L3.32374 17.9192C3.13459 19.022 4.29213 19.863 5.28252 19.3423L10.3474 16.6795C10.7141 16.4868 10.855 16.0333 10.6623 15.6667C10.4695 15.3001 10.016 15.1591 9.64941 15.3518L4.85353 17.8732L5.71614 12.8438C5.79125 12.4059 5.64606 11.959 5.32788 11.6489L1.67382 8.08704L6.72361 7.35326C7.16332 7.28937 7.54344 7.0132 7.74008 6.61476L9.99839 2.03892L12.487 7.08187C12.6134 7.33788 12.8741 7.49996 13.1596 7.49996H19.2496C19.6638 7.49996 19.9996 7.16418 19.9996 6.74996C19.9996 6.33575 19.6638 5.99996 19.2496 5.99996H13.6258L11.209 1.10255ZM12.5 10.75C12.5 10.3358 12.8358 10 13.25 10H19.25C19.6642 10 20 10.3358 20 10.75C20 11.1642 19.6642 11.5 19.25 11.5H13.25C12.8358 11.5 12.5 11.1642 12.5 10.75ZM12.5 14.75C12.5 14.3358 12.8358 14 13.25 14H19.25C19.6642 14 20 14.3358 20 14.75C20 15.1642 19.6642 15.5 19.25 15.5H13.25C12.8358 15.5 12.5 15.1642 12.5 14.75Z" fill="#9799A1"></path>
    </g>
    <defs>
      <clipPath id="clip0_536_23738">
        <rect width="20" height="20" fill="white"></rect>
      </clipPath>
    </defs>
  </symbol>
  <symbol fill="none" xmlns="http://www.w3.org/2000/svg" viewBox="0 0 20 20" id="star-active">
    <g clip-path="url(#clip0_536_23738)">
      <path d="M11.209 1.10255C10.7138 0.0991322 9.28301 0.0991154 8.7878 1.10251L6.42988 5.88019L1.15735 6.64633C0.0500454 6.80723 -0.392086 8.168 0.409159 8.94902L4.2244 12.668L3.32374 17.9192C3.13459 19.022 4.29213 19.863 5.28252 19.3423L10.3474 16.6795C10.7141 16.4868 10.855 16.0333 10.6623 15.6667C10.4695 15.3001 10.016 15.1591 9.64941 15.3518L4.85353 17.8732L5.71614 12.8438C5.79125 12.4059 5.64606 11.959 5.32788 11.6489L1.67382 8.08704L6.72361 7.35326C7.16332 7.28937 7.54344 7.0132 7.74008 6.61476L9.99839 2.03892L12.487 7.08187C12.6134 7.33788 12.8741 7.49996 13.1596 7.49996H19.2496C19.6638 7.49996 19.9996 7.16418 19.9996 6.74996C19.9996 6.33575 19.6638 5.99996 19.2496 5.99996H13.6258L11.209 1.10255ZM12.5 10.75C12.5 10.3358 12.8358 10 13.25 10H19.25C19.6642 10 20 10.3358 20 10.75C20 11.1642 19.6642 11.5 19.25 11.5H13.25C12.8358 11.5 12.5 11.1642 12.5 10.75ZM12.5 14.75C12.5 14.3358 12.8358 14 13.25 14H19.25C19.6642 14 20 14.3358 20 14.75C20 15.1642 19.6642 15.5 19.25 15.5H13.25C12.8358 15.5 12.5 15.1642 12.5 14.75Z" fill="#008C79"></path>
    </g>
    <defs>
      <clipPath id="clip0_536_23738">
        <rect width="20" height="20" fill="#008C79"></rect>
      </clipPath>
    </defs>
  </symbol>
  <symbol fill="none" xmlns="http://www.w3.org/2000/svg" viewBox="0 0 20 20" id="home">
    <path d="M10.8186 2.30345C10.5258 2.07574 10.3794 1.96189 10.2178 1.91812C10.0752 1.87951 9.92484 1.87951 9.78221 1.91812C9.62057 1.96189 9.47418 2.07574 9.18141 2.30345L3.52949 6.69939C3.15168 6.99324 2.96278 7.14017 2.82669 7.32417C2.70614 7.48716 2.61633 7.67077 2.56169 7.866C2.5 8.08639 2.5 8.3257 2.5 8.80433V14.8334C2.5 15.7669 2.5 16.2336 2.68166 16.5901C2.84144 16.9037 3.09641 17.1587 3.41002 17.3185C3.76654 17.5001 4.23325 17.5001 5.16667 17.5001H6.83333C7.06669 17.5001 7.18337 17.5001 7.2725 17.4547C7.3509 17.4147 7.41464 17.351 7.45459 17.2726C7.5 17.1835 7.5 17.0668 7.5 16.8334V11.3334C7.5 10.8667 7.5 10.6334 7.59083 10.4551C7.67072 10.2983 7.79821 10.1708 7.95501 10.0909C8.13327 10.0001 8.36662 10.0001 8.83333 10.0001H11.1667C11.6334 10.0001 11.8667 10.0001 12.045 10.0909C12.2018 10.1708 12.3293 10.2983 12.4092 10.4551C12.5 10.6334 12.5 10.8667 12.5 11.3334V16.8334C12.5 17.0668 12.5 17.1835 12.5454 17.2726C12.5854 17.351 12.6491 17.4147 12.7275 17.4547C12.8166 17.5001 12.9333 17.5001 13.1667 17.5001H14.8333C15.7668 17.5001 16.2335 17.5001 16.59 17.3185C16.9036 17.1587 17.1586 16.9037 17.3183 16.5901C17.5 16.2336 17.5 15.7669 17.5 14.8334V8.80433C17.5 8.3257 17.5 8.08639 17.4383 7.866C17.3837 7.67077 17.2939 7.48716 17.1733 7.32417C17.0372 7.14017 16.8483 6.99324 16.4705 6.69939L10.8186 2.30345Z" stroke="#9799A1" stroke-width="1.5" stroke-linecap="round" stroke-linejoin="round"></path>
  </symbol>
  <symbol fill="none" xmlns="http://www.w3.org/2000/svg" viewBox="0 0 20 20" id="home-active">
    <path d="M10.8186 2.30345C10.5258 2.07574 10.3794 1.96189 10.2178 1.91812C10.0752 1.87951 9.92484 1.87951 9.78221 1.91812C9.62057 1.96189 9.47418 2.07574 9.18141 2.30345L3.52949 6.69939C3.15168 6.99324 2.96278 7.14017 2.82669 7.32417C2.70614 7.48716 2.61633 7.67077 2.56169 7.866C2.5 8.08639 2.5 8.3257 2.5 8.80433V14.8334C2.5 15.7669 2.5 16.2336 2.68166 16.5901C2.84144 16.9037 3.09641 17.1587 3.41002 17.3185C3.76654 17.5001 4.23325 17.5001 5.16667 17.5001H6.83333C7.06669 17.5001 7.18337 17.5001 7.2725 17.4547C7.3509 17.4147 7.41464 17.351 7.45459 17.2726C7.5 17.1835 7.5 17.0668 7.5 16.8334V11.3334C7.5 10.8667 7.5 10.6334 7.59083 10.4551C7.67072 10.2983 7.79821 10.1708 7.95501 10.0909C8.13327 10.0001 8.36662 10.0001 8.83333 10.0001H11.1667C11.6334 10.0001 11.8667 10.0001 12.045 10.0909C12.2018 10.1708 12.3293 10.2983 12.4092 10.4551C12.5 10.6334 12.5 10.8667 12.5 11.3334V16.8334C12.5 17.0668 12.5 17.1835 12.5454 17.2726C12.5854 17.351 12.6491 17.4147 12.7275 17.4547C12.8166 17.5001 12.9333 17.5001 13.1667 17.5001H14.8333C15.7668 17.5001 16.2335 17.5001 16.59 17.3185C16.9036 17.1587 17.1586 16.9037 17.3183 16.5901C17.5 16.2336 17.5 15.7669 17.5 14.8334V8.80433C17.5 8.3257 17.5 8.08639 17.4383 7.866C17.3837 7.67077 17.2939 7.48716 17.1733 7.32417C17.0372 7.14017 16.8483 6.99324 16.4705 6.69939L10.8186 2.30345Z" stroke="#008C79" stroke-width="1.5" stroke-linecap="round" stroke-linejoin="round"></path>
  </symbol>
  <symbol fill="none" xmlns="http://www.w3.org/2000/svg" viewBox="0 0 20 20" id="clock">
    <path d="M18.9166 9.58333L17.2505 11.25L15.5833 9.58333M17.4542 10.8333C17.4845 10.5597 17.5 10.2817 17.5 10C17.5 5.85786 14.1421 2.5 10 2.5C5.85786 2.5 2.5 5.85786 2.5 10C2.5 14.1421 5.85786 17.5 10 17.5C12.3561 17.5 14.4584 16.4136 15.8333 14.7144M10 5.83333V10L12.5 11.6667" stroke="#9799A1" stroke-width="1.5" stroke-linecap="round" stroke-linejoin="round"></path>
  </symbol>
  <symbol fill="none" xmlns="http://www.w3.org/2000/svg" viewBox="0 0 20 20" id="clock-active">
    <path d="M18.9166 9.58333L17.2505 11.25L15.5833 9.58333M17.4542 10.8333C17.4845 10.5597 17.5 10.2817 17.5 10C17.5 5.85786 14.1421 2.5 10 2.5C5.85786 2.5 2.5 5.85786 2.5 10C2.5 14.1421 5.85786 17.5 10 17.5C12.3561 17.5 14.4584 16.4136 15.8333 14.7144M10 5.83333V10L12.5 11.6667" stroke="#008C79" stroke-width="1.5" stroke-linecap="round" stroke-linejoin="round"></path>
  </symbol>
  <symbol fill="none" xmlns="http://www.w3.org/2000/svg" viewBox="0 0 20 20" id="wallet">
    <path d="M16.6667 7.91667V6C16.6667 5.06658 16.6667 4.59987 16.4851 4.24335C16.3253 3.92975 16.0703 3.67478 15.7567 3.51499C15.4002 3.33334 14.9335 3.33334 14.0001 3.33334H4.33342C3.39999 3.33334 2.93328 3.33334 2.57676 3.51499C2.26316 3.67478 2.00819 3.92975 1.8484 4.24335C1.66675 4.59987 1.66675 5.06658 1.66675 6V14C1.66675 14.9334 1.66675 15.4001 1.8484 15.7567C2.00819 16.0703 2.26316 16.3252 2.57676 16.485C2.93328 16.6667 3.39999 16.6667 4.33341 16.6667L14.0001 16.6667C14.9335 16.6667 15.4002 16.6667 15.7567 16.485C16.0703 16.3252 16.3253 16.0703 16.4851 15.7567C16.6667 15.4001 16.6667 14.9334 16.6667 14V12.0833M12.5001 10C12.5001 9.61279 12.5001 9.41918 12.5321 9.25819C12.6636 8.59703 13.1804 8.0802 13.8416 7.94869C14.0026 7.91667 14.1962 7.91667 14.5834 7.91667H16.2501C16.6373 7.91667 16.8309 7.91667 16.9919 7.94869C17.6531 8.08021 18.1699 8.59703 18.3014 9.25819C18.3334 9.41918 18.3334 9.61279 18.3334 10C18.3334 10.3872 18.3334 10.5808 18.3014 10.7418C18.1699 11.403 17.6531 11.9198 16.9919 12.0513C16.8309 12.0833 16.6373 12.0833 16.2501 12.0833H14.5834C14.1962 12.0833 14.0026 12.0833 13.8416 12.0513C13.1804 11.9198 12.6636 11.403 12.5321 10.7418C12.5001 10.5808 12.5001 10.3872 12.5001 10Z" stroke="#9799A1" stroke-width="1.5" stroke-linecap="round" stroke-linejoin="round"></path>
  </symbol>
  <symbol fill="none" xmlns="http://www.w3.org/2000/svg" viewBox="0 0 20 20" id="wallet-active">
    <path d="M16.6667 7.91667V6C16.6667 5.06658 16.6667 4.59987 16.4851 4.24335C16.3253 3.92975 16.0703 3.67478 15.7567 3.51499C15.4002 3.33334 14.9335 3.33334 14.0001 3.33334H4.33342C3.39999 3.33334 2.93328 3.33334 2.57676 3.51499C2.26316 3.67478 2.00819 3.92975 1.8484 4.24335C1.66675 4.59987 1.66675 5.06658 1.66675 6V14C1.66675 14.9334 1.66675 15.4001 1.8484 15.7567C2.00819 16.0703 2.26316 16.3252 2.57676 16.485C2.93328 16.6667 3.39999 16.6667 4.33341 16.6667L14.0001 16.6667C14.9335 16.6667 15.4002 16.6667 15.7567 16.485C16.0703 16.3252 16.3253 16.0703 16.4851 15.7567C16.6667 15.4001 16.6667 14.9334 16.6667 14V12.0833M12.5001 10C12.5001 9.61279 12.5001 9.41918 12.5321 9.25819C12.6636 8.59703 13.1804 8.0802 13.8416 7.94869C14.0026 7.91667 14.1962 7.91667 14.5834 7.91667H16.2501C16.6373 7.91667 16.8309 7.91667 16.9919 7.94869C17.6531 8.08021 18.1699 8.59703 18.3014 9.25819C18.3334 9.41918 18.3334 9.61279 18.3334 10C18.3334 10.3872 18.3334 10.5808 18.3014 10.7418C18.1699 11.403 17.6531 11.9198 16.9919 12.0513C16.8309 12.0833 16.6373 12.0833 16.2501 12.0833H14.5834C14.1962 12.0833 14.0026 12.0833 13.8416 12.0513C13.1804 11.9198 12.6636 11.403 12.5321 10.7418C12.5001 10.5808 12.5001 10.3872 12.5001 10Z" stroke="#008C79" stroke-width="1.5" stroke-linecap="round" stroke-linejoin="round"></path>
  </symbol>
  <symbol fill="none" xmlns="http://www.w3.org/2000/svg" viewBox="0 0 20 20" id="grid">
    <path d="M7 2.5H3.83333C3.36662 2.5 3.13327 2.5 2.95501 2.59083C2.79821 2.67072 2.67072 2.79821 2.59083 2.95501C2.5 3.13327 2.5 3.36662 2.5 3.83333V7C2.5 7.46671 2.5 7.70007 2.59083 7.87833C2.67072 8.03513 2.79821 8.16261 2.95501 8.24251C3.13327 8.33333 3.36662 8.33333 3.83333 8.33333H7C7.46671 8.33333 7.70007 8.33333 7.87833 8.24251C8.03513 8.16261 8.16261 8.03513 8.24251 7.87833C8.33333 7.70007 8.33333 7.46671 8.33333 7V3.83333C8.33333 3.36662 8.33333 3.13327 8.24251 2.95501C8.16261 2.79821 8.03513 2.67072 7.87833 2.59083C7.70007 2.5 7.46671 2.5 7 2.5Z" stroke="#9799A1" stroke-width="1.5" stroke-linecap="round" stroke-linejoin="round"></path>
    <path d="M16.1667 2.5H13C12.5333 2.5 12.2999 2.5 12.1217 2.59083C11.9649 2.67072 11.8374 2.79821 11.7575 2.95501C11.6667 3.13327 11.6667 3.36662 11.6667 3.83333V7C11.6667 7.46671 11.6667 7.70007 11.7575 7.87833C11.8374 8.03513 11.9649 8.16261 12.1217 8.24251C12.2999 8.33333 12.5333 8.33333 13 8.33333H16.1667C16.6334 8.33333 16.8667 8.33333 17.045 8.24251C17.2018 8.16261 17.3293 8.03513 17.4092 7.87833C17.5 7.70007 17.5 7.46671 17.5 7V3.83333C17.5 3.36662 17.5 3.13327 17.4092 2.95501C17.3293 2.79821 17.2018 2.67072 17.045 2.59083C16.8667 2.5 16.6334 2.5 16.1667 2.5Z" stroke="#9799A1" stroke-width="1.5" stroke-linecap="round" stroke-linejoin="round"></path>
    <path d="M16.1667 11.6667H13C12.5333 11.6667 12.2999 11.6667 12.1217 11.7575C11.9649 11.8374 11.8374 11.9649 11.7575 12.1217C11.6667 12.2999 11.6667 12.5333 11.6667 13V16.1667C11.6667 16.6334 11.6667 16.8667 11.7575 17.045C11.8374 17.2018 11.9649 17.3293 12.1217 17.4092C12.2999 17.5 12.5333 17.5 13 17.5H16.1667C16.6334 17.5 16.8667 17.5 17.045 17.4092C17.2018 17.3293 17.3293 17.2018 17.4092 17.045C17.5 16.8667 17.5 16.6334 17.5 16.1667V13C17.5 12.5333 17.5 12.2999 17.4092 12.1217C17.3293 11.9649 17.2018 11.8374 17.045 11.7575C16.8667 11.6667 16.6334 11.6667 16.1667 11.6667Z" stroke="#9799A1" stroke-width="1.5" stroke-linecap="round" stroke-linejoin="round"></path>
    <path d="M7 11.6667H3.83333C3.36662 11.6667 3.13327 11.6667 2.95501 11.7575C2.79821 11.8374 2.67072 11.9649 2.59083 12.1217C2.5 12.2999 2.5 12.5333 2.5 13V16.1667C2.5 16.6334 2.5 16.8667 2.59083 17.045C2.67072 17.2018 2.79821 17.3293 2.95501 17.4092C3.13327 17.5 3.36662 17.5 3.83333 17.5H7C7.46671 17.5 7.70007 17.5 7.87833 17.4092C8.03513 17.3293 8.16261 17.2018 8.24251 17.045C8.33333 16.8667 8.33333 16.6334 8.33333 16.1667V13C8.33333 12.5333 8.33333 12.2999 8.24251 12.1217C8.16261 11.9649 8.03513 11.8374 7.87833 11.7575C7.70007 11.6667 7.46671 11.6667 7 11.6667Z" stroke="#9799A1" stroke-width="1.5" stroke-linecap="round" stroke-linejoin="round"></path>
  </symbol>
  <symbol fill="none" xmlns="http://www.w3.org/2000/svg" viewBox="0 0 20 20" id="grid-active">
    <path d="M7 2.5H3.83333C3.36662 2.5 3.13327 2.5 2.95501 2.59083C2.79821 2.67072 2.67072 2.79821 2.59083 2.95501C2.5 3.13327 2.5 3.36662 2.5 3.83333V7C2.5 7.46671 2.5 7.70007 2.59083 7.87833C2.67072 8.03513 2.79821 8.16261 2.95501 8.24251C3.13327 8.33333 3.36662 8.33333 3.83333 8.33333H7C7.46671 8.33333 7.70007 8.33333 7.87833 8.24251C8.03513 8.16261 8.16261 8.03513 8.24251 7.87833C8.33333 7.70007 8.33333 7.46671 8.33333 7V3.83333C8.33333 3.36662 8.33333 3.13327 8.24251 2.95501C8.16261 2.79821 8.03513 2.67072 7.87833 2.59083C7.70007 2.5 7.46671 2.5 7 2.5Z" stroke="#008C79" stroke-width="1.5" stroke-linecap="round" stroke-linejoin="round"></path>
    <path d="M16.1667 2.5H13C12.5333 2.5 12.2999 2.5 12.1217 2.59083C11.9649 2.67072 11.8374 2.79821 11.7575 2.95501C11.6667 3.13327 11.6667 3.36662 11.6667 3.83333V7C11.6667 7.46671 11.6667 7.70007 11.7575 7.87833C11.8374 8.03513 11.9649 8.16261 12.1217 8.24251C12.2999 8.33333 12.5333 8.33333 13 8.33333H16.1667C16.6334 8.33333 16.8667 8.33333 17.045 8.24251C17.2018 8.16261 17.3293 8.03513 17.4092 7.87833C17.5 7.70007 17.5 7.46671 17.5 7V3.83333C17.5 3.36662 17.5 3.13327 17.4092 2.95501C17.3293 2.79821 17.2018 2.67072 17.045 2.59083C16.8667 2.5 16.6334 2.5 16.1667 2.5Z" stroke="#008C79" stroke-width="1.5" stroke-linecap="round" stroke-linejoin="round"></path>
    <path d="M16.1667 11.6667H13C12.5333 11.6667 12.2999 11.6667 12.1217 11.7575C11.9649 11.8374 11.8374 11.9649 11.7575 12.1217C11.6667 12.2999 11.6667 12.5333 11.6667 13V16.1667C11.6667 16.6334 11.6667 16.8667 11.7575 17.045C11.8374 17.2018 11.9649 17.3293 12.1217 17.4092C12.2999 17.5 12.5333 17.5 13 17.5H16.1667C16.6334 17.5 16.8667 17.5 17.045 17.4092C17.2018 17.3293 17.3293 17.2018 17.4092 17.045C17.5 16.8667 17.5 16.6334 17.5 16.1667V13C17.5 12.5333 17.5 12.2999 17.4092 12.1217C17.3293 11.9649 17.2018 11.8374 17.045 11.7575C16.8667 11.6667 16.6334 11.6667 16.1667 11.6667Z" stroke="#008C79" stroke-width="1.5" stroke-linecap="round" stroke-linejoin="round"></path>
    <path d="M7 11.6667H3.83333C3.36662 11.6667 3.13327 11.6667 2.95501 11.7575C2.79821 11.8374 2.67072 11.9649 2.59083 12.1217C2.5 12.2999 2.5 12.5333 2.5 13V16.1667C2.5 16.6334 2.5 16.8667 2.59083 17.045C2.67072 17.2018 2.79821 17.3293 2.95501 17.4092C3.13327 17.5 3.36662 17.5 3.83333 17.5H7C7.46671 17.5 7.70007 17.5 7.87833 17.4092C8.03513 17.3293 8.16261 17.2018 8.24251 17.045C8.33333 16.8667 8.33333 16.6334 8.33333 16.1667V13C8.33333 12.5333 8.33333 12.2999 8.24251 12.1217C8.16261 11.9649 8.03513 11.8374 7.87833 11.7575C7.70007 11.6667 7.46671 11.6667 7 11.6667Z" stroke="#008C79" stroke-width="1.5" stroke-linecap="round" stroke-linejoin="round"></path>
  </symbol>
  <symbol fill="none" xmlns="http://www.w3.org/2000/svg" viewBox="0 0 20 20" id="receipt">
    <path d="M3.33325 6.5C3.33325 5.09987 3.33325 4.3998 3.60574 3.86502C3.84542 3.39462 4.22787 3.01217 4.69828 2.77248C5.23306 2.5 5.93312 2.5 7.33325 2.5H12.6666C14.0667 2.5 14.7668 2.5 15.3016 2.77248C15.772 3.01217 16.1544 3.39462 16.3941 3.86502C16.6666 4.3998 16.6666 5.09987 16.6666 6.5V17.5L14.3749 15.8333L12.2916 17.5L9.99992 15.8333L7.70825 17.5L5.62492 15.8333L3.33325 17.5V6.5Z" stroke="#9799A1" stroke-width="1.5" stroke-linecap="round" stroke-linejoin="round"></path>
  </symbol>
  <symbol fill="none" xmlns="http://www.w3.org/2000/svg" viewBox="0 0 20 20" id="receipt-active">
    <path d="M3.33325 6.5C3.33325 5.09987 3.33325 4.3998 3.60574 3.86502C3.84542 3.39462 4.22787 3.01217 4.69828 2.77248C5.23306 2.5 5.93312 2.5 7.33325 2.5H12.6666C14.0667 2.5 14.7668 2.5 15.3016 2.77248C15.772 3.01217 16.1544 3.39462 16.3941 3.86502C16.6666 4.3998 16.6666 5.09987 16.6666 6.5V17.5L14.3749 15.8333L12.2916 17.5L9.99992 15.8333L7.70825 17.5L5.62492 15.8333L3.33325 17.5V6.5Z" stroke="#008C79" stroke-width="1.5" stroke-linecap="round" stroke-linejoin="round"></path>
  </symbol>
  <symbol fill="none" xmlns="http://www.w3.org/2000/svg" viewBox="0 0 20 20" id="safe">
    <path d="M5 17.5H7.5M12.5 17.5H15M14.5833 5.41667V12.0833M2.5 5.16667L2.5 12.3333C2.5 13.2668 2.5 13.7335 2.68166 14.09C2.84144 14.4036 3.09641 14.6586 3.41002 14.8183C3.76654 15 4.23325 15 5.16667 15L14.8333 15C15.7668 15 16.2335 15 16.59 14.8183C16.9036 14.6586 17.1586 14.4036 17.3183 14.09C17.5 13.7335 17.5 13.2668 17.5 12.3333V5.16667C17.5 4.23325 17.5 3.76654 17.3183 3.41002C17.1586 3.09641 16.9036 2.84145 16.59 2.68166C16.2335 2.5 15.7668 2.5 14.8333 2.5L5.16667 2.5C4.23325 2.5 3.76654 2.5 3.41002 2.68166C3.09641 2.84144 2.84144 3.09641 2.68166 3.41002C2.5 3.76654 2.5 4.23325 2.5 5.16667ZM9.58333 8.75C9.58333 9.90059 8.65059 10.8333 7.5 10.8333C6.34941 10.8333 5.41667 9.90059 5.41667 8.75C5.41667 7.59941 6.34941 6.66667 7.5 6.66667C8.65059 6.66667 9.58333 7.59941 9.58333 8.75Z" stroke="#9799A1" stroke-width="1.5" stroke-linecap="round" stroke-linejoin="round"></path>
  </symbol>
  <symbol fill="none" xmlns="http://www.w3.org/2000/svg" viewBox="0 0 20 20" id="safe-active">
    <path d="M5 17.5H7.5M12.5 17.5H15M14.5833 5.41667V12.0833M2.5 5.16667L2.5 12.3333C2.5 13.2668 2.5 13.7335 2.68166 14.09C2.84144 14.4036 3.09641 14.6586 3.41002 14.8183C3.76654 15 4.23325 15 5.16667 15L14.8333 15C15.7668 15 16.2335 15 16.59 14.8183C16.9036 14.6586 17.1586 14.4036 17.3183 14.09C17.5 13.7335 17.5 13.2668 17.5 12.3333V5.16667C17.5 4.23325 17.5 3.76654 17.3183 3.41002C17.1586 3.09641 16.9036 2.84145 16.59 2.68166C16.2335 2.5 15.7668 2.5 14.8333 2.5L5.16667 2.5C4.23325 2.5 3.76654 2.5 3.41002 2.68166C3.09641 2.84144 2.84144 3.09641 2.68166 3.41002C2.5 3.76654 2.5 4.23325 2.5 5.16667ZM9.58333 8.75C9.58333 9.90059 8.65059 10.8333 7.5 10.8333C6.34941 10.8333 5.41667 9.90059 5.41667 8.75C5.41667 7.59941 6.34941 6.66667 7.5 6.66667C8.65059 6.66667 9.58333 7.59941 9.58333 8.75Z" stroke="#008C79" stroke-width="1.5" stroke-linecap="round" stroke-linejoin="round"></path>
  </symbol>
  <symbol fill="none" xmlns="http://www.w3.org/2000/svg" viewBox="0 0 20 20" id="credit-card">
    <path d="M18.3334 8.33332H1.66675M9.16675 11.6667H5.00008M1.66675 6.83332L1.66675 13.1667C1.66675 14.1001 1.66675 14.5668 1.8484 14.9233C2.00819 15.2369 2.26316 15.4919 2.57676 15.6517C2.93328 15.8333 3.39999 15.8333 4.33341 15.8333L15.6667 15.8333C16.6002 15.8333 17.0669 15.8333 17.4234 15.6517C17.737 15.4919 17.992 15.2369 18.1518 14.9233C18.3334 14.5668 18.3334 14.1001 18.3334 13.1667V6.83332C18.3334 5.8999 18.3334 5.43319 18.1518 5.07667C17.992 4.76307 17.737 4.5081 17.4234 4.34831C17.0669 4.16666 16.6002 4.16666 15.6667 4.16666L4.33342 4.16666C3.39999 4.16666 2.93328 4.16666 2.57676 4.34831C2.26316 4.5081 2.00819 4.76307 1.8484 5.07667C1.66675 5.43319 1.66675 5.8999 1.66675 6.83332Z" stroke="#9799A1" stroke-width="1.5" stroke-linecap="round" stroke-linejoin="round"></path>
  </symbol>
  <symbol fill="none" xmlns="http://www.w3.org/2000/svg" viewBox="0 0 20 20" id="credit-card-active">
    <path d="M18.3334 8.33332H1.66675M9.16675 11.6667H5.00008M1.66675 6.83332L1.66675 13.1667C1.66675 14.1001 1.66675 14.5668 1.8484 14.9233C2.00819 15.2369 2.26316 15.4919 2.57676 15.6517C2.93328 15.8333 3.39999 15.8333 4.33341 15.8333L15.6667 15.8333C16.6002 15.8333 17.0669 15.8333 17.4234 15.6517C17.737 15.4919 17.992 15.2369 18.1518 14.9233C18.3334 14.5668 18.3334 14.1001 18.3334 13.1667V6.83332C18.3334 5.8999 18.3334 5.43319 18.1518 5.07667C17.992 4.76307 17.737 4.5081 17.4234 4.34831C17.0669 4.16666 16.6002 4.16666 15.6667 4.16666L4.33342 4.16666C3.39999 4.16666 2.93328 4.16666 2.57676 4.34831C2.26316 4.5081 2.00819 4.76307 1.8484 5.07667C1.66675 5.43319 1.66675 5.8999 1.66675 6.83332Z" stroke="#008C79" stroke-width="1.5" stroke-linecap="round" stroke-linejoin="round"></path>
  </symbol>
  <symbol fill="none" xmlns="http://www.w3.org/2000/svg" viewBox="0 0 20 20" id="bank-note">
    <path d="M5.00008 9.16668V12.5M15.0001 7.50001V10.8333M14.1667 3.33334C16.2073 3.33334 17.311 3.64564 17.8602 3.88788C17.9333 3.92014 17.9699 3.93627 18.0754 4.03699C18.1387 4.09736 18.2542 4.2745 18.2839 4.35675C18.3334 4.49396 18.3334 4.56896 18.3334 4.71896V13.676C18.3334 14.4333 18.3334 14.8119 18.2199 15.0066C18.1043 15.2045 17.9929 15.2966 17.7767 15.3727C17.5641 15.4475 17.1351 15.365 16.2769 15.2001C15.6762 15.0847 14.9638 15 14.1667 15C11.6667 15 9.16675 16.6667 5.83341 16.6667C3.79283 16.6667 2.68914 16.3544 2.13998 16.1121C2.06685 16.0799 2.03028 16.0638 1.92475 15.963C1.86149 15.9027 1.74601 15.7255 1.71631 15.6433C1.66675 15.5061 1.66675 15.4311 1.66675 15.2811L1.66675 6.32405C1.66675 5.56675 1.66675 5.1881 1.78031 4.99346C1.89583 4.79548 2.00724 4.70344 2.22346 4.62735C2.43603 4.55255 2.86511 4.635 3.72327 4.79988C4.32393 4.91529 5.03631 5.00001 5.83341 5.00001C8.33342 5.00001 10.8334 3.33334 14.1667 3.33334ZM12.0834 10C12.0834 11.1506 11.1507 12.0833 10.0001 12.0833C8.84949 12.0833 7.91675 11.1506 7.91675 10C7.91675 8.84942 8.84949 7.91668 10.0001 7.91668C11.1507 7.91668 12.0834 8.84942 12.0834 10Z" stroke="#9799A1" stroke-width="1.5" stroke-linecap="round" stroke-linejoin="round"></path>
  </symbol>
  <symbol fill="none" xmlns="http://www.w3.org/2000/svg" viewBox="0 0 20 20" id="bank-note-active">
    <path d="M5.00008 9.16668V12.5M15.0001 7.50001V10.8333M14.1667 3.33334C16.2073 3.33334 17.311 3.64564 17.8602 3.88788C17.9333 3.92014 17.9699 3.93627 18.0754 4.03699C18.1387 4.09736 18.2542 4.2745 18.2839 4.35675C18.3334 4.49396 18.3334 4.56896 18.3334 4.71896V13.676C18.3334 14.4333 18.3334 14.8119 18.2199 15.0066C18.1043 15.2045 17.9929 15.2966 17.7767 15.3727C17.5641 15.4475 17.1351 15.365 16.2769 15.2001C15.6762 15.0847 14.9638 15 14.1667 15C11.6667 15 9.16675 16.6667 5.83341 16.6667C3.79283 16.6667 2.68914 16.3544 2.13998 16.1121C2.06685 16.0799 2.03028 16.0638 1.92475 15.963C1.86149 15.9027 1.74601 15.7255 1.71631 15.6433C1.66675 15.5061 1.66675 15.4311 1.66675 15.2811L1.66675 6.32405C1.66675 5.56675 1.66675 5.1881 1.78031 4.99346C1.89583 4.79548 2.00724 4.70344 2.22346 4.62735C2.43603 4.55255 2.86511 4.635 3.72327 4.79988C4.32393 4.91529 5.03631 5.00001 5.83341 5.00001C8.33342 5.00001 10.8334 3.33334 14.1667 3.33334ZM12.0834 10C12.0834 11.1506 11.1507 12.0833 10.0001 12.0833C8.84949 12.0833 7.91675 11.1506 7.91675 10C7.91675 8.84942 8.84949 7.91668 10.0001 7.91668C11.1507 7.91668 12.0834 8.84942 12.0834 10Z" stroke="#008C79" stroke-width="1.5" stroke-linecap="round" stroke-linejoin="round"></path>
  </symbol>
  <symbol fill="none" xmlns="http://www.w3.org/2000/svg" viewBox="0 0 20 20" id="inbox">
    <path d="M2.08341 9.99998H4.90172C5.47272 9.99998 5.99472 10.3226 6.25008 10.8333C6.50544 11.344 7.02744 11.6666 7.59844 11.6666H12.4017C12.9727 11.6666 13.4947 11.344 13.7501 10.8333C14.0054 10.3226 14.5274 9.99998 15.0984 9.99998H17.9167M7.47222 3.33331H12.5279C13.4253 3.33331 13.874 3.33331 14.2702 3.46995C14.6205 3.59078 14.9396 3.78798 15.2043 4.04727C15.5037 4.34048 15.7043 4.74181 16.1057 5.54446L17.9111 9.1554C18.0686 9.47039 18.1474 9.62788 18.2029 9.79294C18.2522 9.93952 18.2878 10.0904 18.3093 10.2435C18.3334 10.416 18.3334 10.5921 18.3334 10.9443V12.6666C18.3334 14.0668 18.3334 14.7668 18.0609 15.3016C17.8212 15.772 17.4388 16.1545 16.9684 16.3942C16.4336 16.6666 15.7335 16.6666 14.3334 16.6666H5.66675C4.26662 16.6666 3.56655 16.6666 3.03177 16.3942C2.56137 16.1545 2.17892 15.772 1.93923 15.3016C1.66675 14.7668 1.66675 14.0668 1.66675 12.6666V10.9443C1.66675 10.5921 1.66675 10.416 1.69089 10.2435C1.71234 10.0904 1.74795 9.93952 1.79726 9.79294C1.8528 9.62788 1.93155 9.47038 2.08904 9.1554L3.89451 5.54446C4.29583 4.74181 4.4965 4.34048 4.79587 4.04727C5.06061 3.78798 5.37968 3.59078 5.72999 3.46995C6.12613 3.33331 6.57482 3.33331 7.47222 3.33331Z" stroke="#9799A1" stroke-width="1.5" stroke-linecap="round" stroke-linejoin="round"></path>
  </symbol>
  <symbol fill="none" xmlns="http://www.w3.org/2000/svg" viewBox="0 0 20 20" id="inbox-active">
    <path d="M2.08341 9.99998H4.90172C5.47272 9.99998 5.99472 10.3226 6.25008 10.8333C6.50544 11.344 7.02744 11.6666 7.59844 11.6666H12.4017C12.9727 11.6666 13.4947 11.344 13.7501 10.8333C14.0054 10.3226 14.5274 9.99998 15.0984 9.99998H17.9167M7.47222 3.33331H12.5279C13.4253 3.33331 13.874 3.33331 14.2702 3.46995C14.6205 3.59078 14.9396 3.78798 15.2043 4.04727C15.5037 4.34048 15.7043 4.74181 16.1057 5.54446L17.9111 9.1554C18.0686 9.47039 18.1474 9.62788 18.2029 9.79294C18.2522 9.93952 18.2878 10.0904 18.3093 10.2435C18.3334 10.416 18.3334 10.5921 18.3334 10.9443V12.6666C18.3334 14.0668 18.3334 14.7668 18.0609 15.3016C17.8212 15.772 17.4388 16.1545 16.9684 16.3942C16.4336 16.6666 15.7335 16.6666 14.3334 16.6666H5.66675C4.26662 16.6666 3.56655 16.6666 3.03177 16.3942C2.56137 16.1545 2.17892 15.772 1.93923 15.3016C1.66675 14.7668 1.66675 14.0668 1.66675 12.6666V10.9443C1.66675 10.5921 1.66675 10.416 1.69089 10.2435C1.71234 10.0904 1.74795 9.93952 1.79726 9.79294C1.8528 9.62788 1.93155 9.47038 2.08904 9.1554L3.89451 5.54446C4.29583 4.74181 4.4965 4.34048 4.79587 4.04727C5.06061 3.78798 5.37968 3.59078 5.72999 3.46995C6.12613 3.33331 6.57482 3.33331 7.47222 3.33331Z" stroke="#008C79" stroke-width="1.5" stroke-linecap="round" stroke-linejoin="round"></path>
  </symbol>
  <symbol fill="none" xmlns="http://www.w3.org/2000/svg" viewBox="0 0 20 20" id="bar-chart-square">
    <path d="M6.66667 10.8333V14.1667M13.3333 9.16667V14.1667M10 5.83333V14.1667M6.5 17.5H13.5C14.9001 17.5 15.6002 17.5 16.135 17.2275C16.6054 16.9878 16.9878 16.6054 17.2275 16.135C17.5 15.6002 17.5 14.9001 17.5 13.5V6.5C17.5 5.09987 17.5 4.3998 17.2275 3.86502C16.9878 3.39462 16.6054 3.01217 16.135 2.77248C15.6002 2.5 14.9001 2.5 13.5 2.5H6.5C5.09987 2.5 4.3998 2.5 3.86502 2.77248C3.39462 3.01217 3.01217 3.39462 2.77248 3.86502C2.5 4.3998 2.5 5.09987 2.5 6.5V13.5C2.5 14.9001 2.5 15.6002 2.77248 16.135C3.01217 16.6054 3.39462 16.9878 3.86502 17.2275C4.3998 17.5 5.09987 17.5 6.5 17.5Z" stroke="#9799A1" stroke-width="1.5" stroke-linecap="round" stroke-linejoin="round"></path>
  </symbol>
  <symbol fill="none" xmlns="http://www.w3.org/2000/svg" viewBox="0 0 20 20" id="bar-chart-square-active">
    <path d="M6.66667 10.8333V14.1667M13.3333 9.16667V14.1667M10 5.83333V14.1667M6.5 17.5H13.5C14.9001 17.5 15.6002 17.5 16.135 17.2275C16.6054 16.9878 16.9878 16.6054 17.2275 16.135C17.5 15.6002 17.5 14.9001 17.5 13.5V6.5C17.5 5.09987 17.5 4.3998 17.2275 3.86502C16.9878 3.39462 16.6054 3.01217 16.135 2.77248C15.6002 2.5 14.9001 2.5 13.5 2.5H6.5C5.09987 2.5 4.3998 2.5 3.86502 2.77248C3.39462 3.01217 3.01217 3.39462 2.77248 3.86502C2.5 4.3998 2.5 5.09987 2.5 6.5V13.5C2.5 14.9001 2.5 15.6002 2.77248 16.135C3.01217 16.6054 3.39462 16.9878 3.86502 17.2275C4.3998 17.5 5.09987 17.5 6.5 17.5Z" stroke="#008C79" stroke-width="1.5" stroke-linecap="round" stroke-linejoin="round"></path>
  </symbol>
  <symbol fill="none" xmlns="http://www.w3.org/2000/svg" viewBox="0 0 20 20" id="coins-swap">
    <g clip-path="url(#clip0_536_23774)">
      <path d="M5.00008 5.00002L6.66675 3.33335M6.66675 3.33335L5.00008 1.66669M6.66675 3.33335H5.00008C3.15913 3.33335 1.66675 4.82574 1.66675 6.66669M15.0001 15L13.3334 16.6667M13.3334 16.6667L15.0001 18.3334M13.3334 16.6667H15.0001C16.841 16.6667 18.3334 15.1743 18.3334 13.3334M11.1811 11.181C11.8329 11.4924 12.5628 11.6667 13.3334 11.6667C16.0948 11.6667 18.3334 9.42811 18.3334 6.66669C18.3334 3.90526 16.0948 1.66669 13.3334 1.66669C10.572 1.66669 8.33342 3.90526 8.33342 6.66669C8.33342 7.43728 8.50774 8.16716 8.81911 8.81905M11.6667 13.3334C11.6667 16.0948 9.42817 18.3334 6.66675 18.3334C3.90532 18.3334 1.66675 16.0948 1.66675 13.3334C1.66675 10.5719 3.90532 8.33335 6.66675 8.33335C9.42817 8.33335 11.6667 10.5719 11.6667 13.3334Z" stroke="#008C79" stroke-width="1.5" stroke-linecap="round" stroke-linejoin="round"></path>
    </g>
    <defs>
      <clipPath id="clip0_536_23774">
        <rect width="20" height="20" fill="white"></rect>
      </clipPath>
    </defs>
  </symbol>
  <symbol fill="none" xmlns="http://www.w3.org/2000/svg" viewBox="0 0 20 20" id="bank">
    <path d="M4.16667 7.5V14.1667M7.91667 7.5V14.1667M12.0833 7.5V14.1667M15.8333 7.5V14.1667M2.5 15.5L2.5 16.1667C2.5 16.6334 2.5 16.8667 2.59083 17.045C2.67072 17.2018 2.79821 17.3293 2.95501 17.4092C3.13327 17.5 3.36662 17.5 3.83333 17.5H16.1667C16.6334 17.5 16.8667 17.5 17.045 17.4092C17.2018 17.3293 17.3293 17.2018 17.4092 17.045C17.5 16.8667 17.5 16.6334 17.5 16.1667V15.5C17.5 15.0333 17.5 14.7999 17.4092 14.6217C17.3293 14.4649 17.2018 14.3374 17.045 14.2575C16.8667 14.1667 16.6334 14.1667 16.1667 14.1667H3.83333C3.36662 14.1667 3.13327 14.1667 2.95501 14.2575C2.79821 14.3374 2.67072 14.4649 2.59083 14.6217C2.5 14.7999 2.5 15.0333 2.5 15.5ZM9.71076 2.56427L3.54409 3.93464C3.17154 4.01743 2.98527 4.05883 2.84622 4.159C2.72358 4.24736 2.62727 4.36741 2.56762 4.5063C2.5 4.66377 2.5 4.85459 2.5 5.23623L2.5 6.16666C2.5 6.63337 2.5 6.86673 2.59083 7.04499C2.67072 7.20179 2.79821 7.32927 2.95501 7.40917C3.13327 7.5 3.36662 7.5 3.83333 7.5H16.1667C16.6334 7.5 16.8667 7.5 17.045 7.40917C17.2018 7.32927 17.3293 7.20179 17.4092 7.04499C17.5 6.86673 17.5 6.63337 17.5 6.16666V5.23623C17.5 4.85459 17.5 4.66377 17.4324 4.5063C17.3727 4.36741 17.2764 4.24736 17.1538 4.159C17.0147 4.05883 16.8285 4.01743 16.4559 3.93464L10.2892 2.56427C10.1813 2.54029 10.1273 2.52829 10.0728 2.52351C10.0244 2.51926 9.97564 2.51926 9.9272 2.52351C9.87267 2.52829 9.8187 2.54029 9.71076 2.56427Z" stroke="#9799A1" stroke-width="1.5" stroke-linecap="round" stroke-linejoin="round"></path>
  </symbol>
  <symbol fill="none" xmlns="http://www.w3.org/2000/svg" viewBox="0 0 20 20" id="bank-active">
    <path d="M4.16667 7.5V14.1667M7.91667 7.5V14.1667M12.0833 7.5V14.1667M15.8333 7.5V14.1667M2.5 15.5L2.5 16.1667C2.5 16.6334 2.5 16.8667 2.59083 17.045C2.67072 17.2018 2.79821 17.3293 2.95501 17.4092C3.13327 17.5 3.36662 17.5 3.83333 17.5H16.1667C16.6334 17.5 16.8667 17.5 17.045 17.4092C17.2018 17.3293 17.3293 17.2018 17.4092 17.045C17.5 16.8667 17.5 16.6334 17.5 16.1667V15.5C17.5 15.0333 17.5 14.7999 17.4092 14.6217C17.3293 14.4649 17.2018 14.3374 17.045 14.2575C16.8667 14.1667 16.6334 14.1667 16.1667 14.1667H3.83333C3.36662 14.1667 3.13327 14.1667 2.95501 14.2575C2.79821 14.3374 2.67072 14.4649 2.59083 14.6217C2.5 14.7999 2.5 15.0333 2.5 15.5ZM9.71076 2.56427L3.54409 3.93464C3.17154 4.01743 2.98527 4.05883 2.84622 4.159C2.72358 4.24736 2.62727 4.36741 2.56762 4.5063C2.5 4.66377 2.5 4.85459 2.5 5.23623L2.5 6.16666C2.5 6.63337 2.5 6.86673 2.59083 7.04499C2.67072 7.20179 2.79821 7.32927 2.95501 7.40917C3.13327 7.5 3.36662 7.5 3.83333 7.5H16.1667C16.6334 7.5 16.8667 7.5 17.045 7.40917C17.2018 7.32927 17.3293 7.20179 17.4092 7.04499C17.5 6.86673 17.5 6.63337 17.5 6.16666V5.23623C17.5 4.85459 17.5 4.66377 17.4324 4.5063C17.3727 4.36741 17.2764 4.24736 17.1538 4.159C17.0147 4.05883 16.8285 4.01743 16.4559 3.93464L10.2892 2.56427C10.1813 2.54029 10.1273 2.52829 10.0728 2.52351C10.0244 2.51926 9.97564 2.51926 9.9272 2.52351C9.87267 2.52829 9.8187 2.54029 9.71076 2.56427Z" stroke="#008C79" stroke-width="1.5" stroke-linecap="round" stroke-linejoin="round"></path>
  </symbol>
  <symbol fill="none" xmlns="http://www.w3.org/2000/svg" viewBox="0 0 20 20" id="file">
    <path d="M11.6666 1.8913V5.33341C11.6666 5.80012 11.6666 6.03348 11.7574 6.21174C11.8373 6.36854 11.9648 6.49602 12.1216 6.57592C12.2999 6.66675 12.5332 6.66675 12.9999 6.66675H16.442M11.6666 14.1667H6.66659M13.3333 10.8334H6.66659M16.6666 8.32354V14.3334C16.6666 15.7335 16.6666 16.4336 16.3941 16.9683C16.1544 17.4387 15.772 17.8212 15.3016 18.0609C14.7668 18.3334 14.0667 18.3334 12.6666 18.3334H7.33325C5.93312 18.3334 5.23306 18.3334 4.69828 18.0609C4.22787 17.8212 3.84542 17.4387 3.60574 16.9683C3.33325 16.4336 3.33325 15.7335 3.33325 14.3334V5.66669C3.33325 4.26656 3.33325 3.56649 3.60574 3.03171C3.84542 2.56131 4.22787 2.17885 4.69828 1.93917C5.23306 1.66669 5.93312 1.66669 7.33325 1.66669H10.0097C10.6212 1.66669 10.9269 1.66669 11.2147 1.73576C11.4698 1.797 11.7136 1.89801 11.9373 2.03509C12.1896 2.18969 12.4058 2.40588 12.8382 2.83826L15.495 5.49511C15.9274 5.92749 16.1436 6.14368 16.2982 6.39597C16.4353 6.61966 16.5363 6.86352 16.5975 7.11861C16.6666 7.40633 16.6666 7.71206 16.6666 8.32354Z" stroke="#9799A1" stroke-width="1.5" stroke-linecap="round" stroke-linejoin="round"></path>
  </symbol>
  <symbol fill="none" xmlns="http://www.w3.org/2000/svg" viewBox="0 0 20 20" id="file-active">
    <path d="M11.6666 1.8913V5.33341C11.6666 5.80012 11.6666 6.03348 11.7574 6.21174C11.8373 6.36854 11.9648 6.49602 12.1216 6.57592C12.2999 6.66675 12.5332 6.66675 12.9999 6.66675H16.442M11.6666 14.1667H6.66659M13.3333 10.8334H6.66659M16.6666 8.32354V14.3334C16.6666 15.7335 16.6666 16.4336 16.3941 16.9683C16.1544 17.4387 15.772 17.8212 15.3016 18.0609C14.7668 18.3334 14.0667 18.3334 12.6666 18.3334H7.33325C5.93312 18.3334 5.23306 18.3334 4.69828 18.0609C4.22787 17.8212 3.84542 17.4387 3.60574 16.9683C3.33325 16.4336 3.33325 15.7335 3.33325 14.3334V5.66669C3.33325 4.26656 3.33325 3.56649 3.60574 3.03171C3.84542 2.56131 4.22787 2.17885 4.69828 1.93917C5.23306 1.66669 5.93312 1.66669 7.33325 1.66669H10.0097C10.6212 1.66669 10.9269 1.66669 11.2147 1.73576C11.4698 1.797 11.7136 1.89801 11.9373 2.03509C12.1896 2.18969 12.4058 2.40588 12.8382 2.83826L15.495 5.49511C15.9274 5.92749 16.1436 6.14368 16.2982 6.39597C16.4353 6.61966 16.5363 6.86352 16.5975 7.11861C16.6666 7.40633 16.6666 7.71206 16.6666 8.32354Z" stroke="#008C79" stroke-width="1.5" stroke-linecap="round" stroke-linejoin="round"></path>
  </symbol>
  <symbol fill="none" xmlns="http://www.w3.org/2000/svg" viewBox="0 0 20 20" id="file-2">
    <path d="M11.6666 9.16669H6.66659M8.33325 12.5H6.66659M13.3333 5.83335H6.66659M16.6666 5.66669V14.3334C16.6666 15.7335 16.6666 16.4336 16.3941 16.9683C16.1544 17.4387 15.772 17.8212 15.3016 18.0609C14.7668 18.3334 14.0667 18.3334 12.6666 18.3334H7.33325C5.93312 18.3334 5.23306 18.3334 4.69828 18.0609C4.22787 17.8212 3.84542 17.4387 3.60574 16.9683C3.33325 16.4336 3.33325 15.7335 3.33325 14.3334V5.66669C3.33325 4.26656 3.33325 3.56649 3.60574 3.03171C3.84542 2.56131 4.22787 2.17885 4.69828 1.93917C5.23306 1.66669 5.93312 1.66669 7.33325 1.66669H12.6666C14.0667 1.66669 14.7668 1.66669 15.3016 1.93917C15.772 2.17885 16.1544 2.56131 16.3941 3.03171C16.6666 3.56649 16.6666 4.26656 16.6666 5.66669Z" stroke="#9799A1" stroke-width="1.5" stroke-linecap="round" stroke-linejoin="round"></path>
  </symbol>
  <symbol fill="none" xmlns="http://www.w3.org/2000/svg" viewBox="0 0 20 20" id="file-2-active">
    <path d="M11.6666 9.16669H6.66659M8.33325 12.5H6.66659M13.3333 5.83335H6.66659M16.6666 5.66669V14.3334C16.6666 15.7335 16.6666 16.4336 16.3941 16.9683C16.1544 17.4387 15.772 17.8212 15.3016 18.0609C14.7668 18.3334 14.0667 18.3334 12.6666 18.3334H7.33325C5.93312 18.3334 5.23306 18.3334 4.69828 18.0609C4.22787 17.8212 3.84542 17.4387 3.60574 16.9683C3.33325 16.4336 3.33325 15.7335 3.33325 14.3334V5.66669C3.33325 4.26656 3.33325 3.56649 3.60574 3.03171C3.84542 2.56131 4.22787 2.17885 4.69828 1.93917C5.23306 1.66669 5.93312 1.66669 7.33325 1.66669H12.6666C14.0667 1.66669 14.7668 1.66669 15.3016 1.93917C15.772 2.17885 16.1544 2.56131 16.3941 3.03171C16.6666 3.56649 16.6666 4.26656 16.6666 5.66669Z" stroke="#008C79" stroke-width="1.5" stroke-linecap="round" stroke-linejoin="round"></path>
  </symbol>
  <symbol fill="none" xmlns="http://www.w3.org/2000/svg" viewBox="0 0 24 24" id="task-square-active" stroke="#008C79"
          stroke-width="1.5" stroke-linecap="round" stroke-linejoin="round">
    <path opacity="0.4" d="M12.37 8.88H17.62"/>
    <path opacity="0.4" d="M6.38 8.88L7.13 9.63L9.38 7.38"/>
    <path opacity="0.4" d="M12.37 15.88H17.62"/>
    <path opacity="0.4" d="M6.38 15.88L7.13 16.63L9.38 14.38"/>
    <path d="M9 22H15C20 22 22 20 22 15V9C22 4 20 2 15 2H9C4 2 2 4 2 9V15C2 20 4 22 9 22Z"/>
  </symbol>
  <symbol fill="none" xmlns="http://www.w3.org/2000/svg" viewBox="0 0 24 24" id="task-square" stroke="black"
          stroke-width="1.5" stroke-linecap="round" stroke-linejoin="round">
    <path opacity="0.4" d="M12.37 8.88H17.62"/>
    <path opacity="0.4" d="M6.38 8.88L7.13 9.63L9.38 7.38"/>
    <path opacity="0.4" d="M12.37 15.88H17.62"/>
    <path opacity="0.4" d="M6.38 15.88L7.13 16.63L9.38 14.38"/>
    <path d="M9 22H15C20 22 22 20 22 15V9C22 4 20 2 15 2H9C4 2 2 4 2 9V15C2 20 4 22 9 22Z"/>
  </symbol>
  <symbol fill="none" xmlns="http://www.w3.org/2000/svg" viewBox="0 0 24 24" id="cards">
    <path opacity="0.4"
          d="M22 6.73V13.72C22 16.42 21.37 17.29 19 17.43V10.28C19 7.3 18.24 6.55 15.22 6.55H5.78003C5.50003 6.55 5.24 6.56 5 6.57C5.03 3.72 5.81003 3 8.78003 3H18.22C21.24 3 22 3.75 22 6.73Z"
          stroke="black" stroke-width="1.5" stroke-linecap="round" stroke-linejoin="round"></path>
    <path d="M2 12.61H19" stroke="black" stroke-width="1.5" stroke-miterlimit="10" stroke-linecap="round"
          stroke-linejoin="round"></path>
    <path
      d="M19 10.28V17.43C18.97 20.28 18.19 21 15.22 21H5.78003C2.76003 21 2 20.25 2 17.27V10.28C2 7.58 2.63 6.71 5 6.57C5.24 6.56 5.50003 6.55 5.78003 6.55H15.22C18.24 6.55 19 7.3 19 10.28Z"
      stroke="black" stroke-width="1.5" stroke-linecap="round" stroke-linejoin="round"></path>
    <path opacity="0.4" d="M5.25 17.81H6.96997" stroke="black" stroke-width="1.5" stroke-miterlimit="10"
          stroke-linecap="round" stroke-linejoin="round"></path>
    <path opacity="0.4" d="M9.10999 17.81H12.55" stroke="black" stroke-width="1.5" stroke-miterlimit="10"
          stroke-linecap="round" stroke-linejoin="round"></path>
  </symbol>
  <symbol fill="none" xmlns="http://www.w3.org/2000/svg" viewBox="0 0 24 24" id="cards-active">
    <path opacity="0.4"
          d="M22 6.73V13.72C22 16.42 21.37 17.29 19 17.43V10.28C19 7.3 18.24 6.55 15.22 6.55H5.78003C5.50003 6.55 5.24 6.56 5 6.57C5.03 3.72 5.81003 3 8.78003 3H18.22C21.24 3 22 3.75 22 6.73Z"
          stroke="black" stroke-width="1.5" stroke-linecap="round" stroke-linejoin="round"></path>
    <path d="M2 12.61H19" stroke="#008C79" stroke-width="1.5" stroke-miterlimit="10" stroke-linecap="round"
          stroke-linejoin="round"></path>
    <path
      d="M19 10.28V17.43C18.97 20.28 18.19 21 15.22 21H5.78003C2.76003 21 2 20.25 2 17.27V10.28C2 7.58 2.63 6.71 5 6.57C5.24 6.56 5.50003 6.55 5.78003 6.55H15.22C18.24 6.55 19 7.3 19 10.28Z"
      stroke="#008C79" stroke-width="1.5" stroke-linecap="round" stroke-linejoin="round"></path>
    <path opacity="0.4" d="M5.25 17.81H6.96997" stroke="#008C79" stroke-width="1.5" stroke-miterlimit="10"
          stroke-linecap="round" stroke-linejoin="round"></path>
    <path opacity="0.4" d="M9.10999 17.81H12.55" stroke="#008C79" stroke-width="1.5" stroke-miterlimit="10"
          stroke-linecap="round" stroke-linejoin="round"></path>
  </symbol>
</svg>
