<svg width="24" height="24" viewBox="0 0 24 24" fill="none" xmlns="http://www.w3.org/2000/svg">
<rect width="24" height="24" rx="9" fill="#F5F5F5"/>
<rect width="12" height="12" rx="6" transform="matrix(1 0 0 -1 6 18)" fill="#9B47FF"/>
<path d="M11.3077 14.404C11.3686 14.3596 11.4212 14.307 11.4808 14.2473L14.1059 11.6222L12.3773 9.89365L9.75222 12.5187C9.69254 12.5783 9.63988 12.6309 9.59547 12.6918C9.5564 12.7455 9.523 12.803 9.49582 12.8636C9.46493 12.9324 9.44539 13.0042 9.42325 13.0856L9.01126 14.5962C8.98111 14.7068 9.0125 14.825 9.09352 14.906C9.17453 14.987 9.29275 15.0184 9.40328 14.9883L10.914 14.5763C10.9953 14.5541 11.0672 14.5346 11.1359 14.5037C11.1965 14.4765 11.254 14.4431 11.3077 14.404Z" fill="white"/>
<path fill-rule="evenodd" clip-rule="evenodd" d="M13.3218 9.02295C13.418 8.9917 13.5216 8.9917 13.6178 9.02295C13.692 9.04708 13.7459 9.08717 13.7813 9.11727C13.8119 9.14325 13.844 9.17538 13.8709 9.20228L14.7972 10.1286C14.8241 10.1555 14.8563 10.1876 14.8822 10.2182C14.9123 10.2536 14.9524 10.3075 14.9766 10.3817C15.0078 10.4779 15.0078 10.5815 14.9766 10.6777C14.9524 10.752 14.9123 10.8058 14.8822 10.8413C14.8563 10.8719 14.8241 10.904 14.7972 10.9309L14.4492 11.2789L12.7206 9.55034L13.0686 9.20229C13.0955 9.17538 13.1276 9.14325 13.1582 9.11727C13.1937 9.08717 13.2475 9.04708 13.3218 9.02295Z" fill="white"/>
</svg>
