<svg width="24" height="25" viewBox="0 0 24 25" fill="none" xmlns="http://www.w3.org/2000/svg">
<path d="M21.7605 16.42L15.3605 4.9C14.5005 3.35 13.3105 2.5 12.0005 2.5C10.6905 2.5 9.50047 3.35 8.64047 4.9L2.24047 16.42C1.43047 17.89 1.34047 19.3 1.99047 20.41C2.64047 21.52 3.92047 22.13 5.60047 22.13H18.4005C20.0805 22.13 21.3605 21.52 22.0105 20.41C22.6605 19.3 22.5705 17.88 21.7605 16.42ZM11.2505 9.5C11.2505 9.09 11.5905 8.75 12.0005 8.75C12.4105 8.75 12.7505 9.09 12.7505 9.5V14.5C12.7505 14.91 12.4105 15.25 12.0005 15.25C11.5905 15.25 11.2505 14.91 11.2505 14.5V9.5ZM12.7105 18.21C12.6605 18.25 12.6105 18.29 12.5605 18.33C12.5005 18.37 12.4405 18.4 12.3805 18.42C12.3205 18.45 12.2605 18.47 12.1905 18.48C12.1305 18.49 12.0605 18.5 12.0005 18.5C11.9405 18.5 11.8705 18.49 11.8005 18.48C11.7405 18.47 11.6805 18.45 11.6205 18.42C11.5605 18.4 11.5005 18.37 11.4405 18.33C11.3905 18.29 11.3405 18.25 11.2905 18.21C11.1105 18.02 11.0005 17.76 11.0005 17.5C11.0005 17.24 11.1105 16.98 11.2905 16.79C11.3405 16.75 11.3905 16.71 11.4405 16.67C11.5005 16.63 11.5605 16.6 11.6205 16.58C11.6805 16.55 11.7405 16.53 11.8005 16.52C11.9305 16.49 12.0705 16.49 12.1905 16.52C12.2605 16.53 12.3205 16.55 12.3805 16.58C12.4405 16.6 12.5005 16.63 12.5605 16.67C12.6105 16.71 12.6605 16.75 12.7105 16.79C12.8905 16.98 13.0005 17.24 13.0005 17.5C13.0005 17.76 12.8905 18.02 12.7105 18.21Z" fill="white"/>
</svg>
