<svg width="42" height="42" viewBox="0 0 32 33" fill="none" xmlns="http://www.w3.org/2000/svg">
<g opacity="0.7">
<g clip-path="url(#clip0_1588_11509)">
<path fill-rule="evenodd" clip-rule="evenodd" d="M-8 0.5H52.8006V2.96156H-8V0.5ZM-8 5.42312H52.8006V7.88469H-8V5.42312ZM-8 10.3462H52.8006V12.8078H-8V10.3462ZM-8 15.2694H52.8006V17.7309H-8V15.2694ZM-8 20.1925H52.8006V22.6541H-8V20.1925ZM-8 25.1156H52.8006V27.5772H-8V25.1156ZM-8 30.0387H52.8006V32.5003H-8V30.0387Z" fill="#FC121F"/>
<path fill-rule="evenodd" clip-rule="evenodd" d="M-8 2.96155H52.8006V5.42311H-8V2.96155ZM-8 7.88467H52.8006V10.3462H-8V7.88467ZM-8 12.8078H52.8006V15.2694H-8V12.8078ZM-8 17.7309H52.8006V20.1925H-8V17.7309ZM-8 22.654H52.8006V25.1156H-8V22.654ZM-8 27.5772H52.8006V30.0387H-8V27.5772Z" fill="white"/>
<path fill-rule="evenodd" clip-rule="evenodd" d="M-8 0.5H16.3202V17.7309H-8V0.5Z" fill="#192F5D"/>
<path fill-rule="evenodd" clip-rule="evenodd" d="M-5.98131 1.2384L-5.73516 1.92764H-5.04592L-5.61208 2.34611L-5.39054 3.01073L-5.98131 2.59226L-6.52286 3.01073L-6.30131 2.34611L-6.89209 1.92764H-6.15362L-5.98131 1.2384ZM-1.91973 1.2384L-1.69819 1.92764H-0.984341L-1.57512 2.34611L-1.32896 3.01073L-1.91973 2.59226L-2.51051 3.01073L-2.26435 2.34611L-2.85513 1.92764H-2.14127L-1.91973 1.2384ZM2.14184 1.2384L2.36338 1.92764H3.07724L2.48646 2.34611L2.73262 3.01073L2.14184 2.59226L1.55107 3.01073L1.79722 2.34611L1.20645 1.92764H1.9203L2.14184 1.2384ZM6.1788 1.2384L6.42496 1.92764H7.1142L6.54804 2.34611L6.76958 3.01073L6.1788 2.59226L5.61265 3.01073L5.83419 2.34611L5.24341 1.92764H5.98188L6.1788 1.2384ZM10.2404 1.2384L10.4619 1.92764H11.1758L10.585 2.34611L10.8312 3.01073L10.2158 2.59226L9.64961 3.01073L9.87115 2.34611L9.28037 1.92764H9.99423L10.2404 1.2384ZM14.302 1.2384L14.5235 1.92764H15.2374L14.6466 2.34611L14.8927 3.01073L14.302 2.59226L13.7112 3.01073L13.9573 2.34611L13.3666 1.92764H14.0804L14.302 1.2384ZM-3.93822 2.9615L-3.71667 3.65073H-3.00282L-3.5936 4.0692L-3.34744 4.73382L-3.93822 4.31536L-4.52899 4.73382L-4.28283 4.0692L-4.87361 3.65073H-4.15976L-3.93822 2.9615ZM0.0987473 2.9615L0.344903 3.65073H1.03414L0.467981 4.0692L0.689521 4.73382L0.0987473 4.31536L-0.467412 4.73382L-0.245872 4.0692L-0.836647 3.65073H-0.0981789L0.0987473 2.9615ZM4.16033 2.9615L4.38186 3.65073H5.09572L4.50494 4.0692L4.7511 4.73382L4.16033 4.31536L3.56955 4.73382L3.81571 4.0692L3.22493 3.65073H3.93878L4.16033 2.9615ZM8.2219 2.9615L8.44344 3.65073H9.1573L8.56652 4.0692L8.81268 4.73382L8.2219 4.31536L7.63113 4.73382L7.87728 4.0692L7.28651 3.65073H8.00036L8.2219 2.9615ZM12.2589 2.9615L12.505 3.65073H13.1696L12.6035 4.0692L12.825 4.73382L12.2342 4.31536L11.6681 4.73382L11.8896 4.0692L11.2989 3.65073H12.0373L12.2589 2.9615ZM-5.9567 4.68459L-5.75977 5.37383H-5.0213L-5.61208 5.79229L-5.39054 6.45691L-5.98131 6.03845L-6.52286 6.45691L-6.30131 5.79229L-6.89209 5.37383H-6.15362L-5.9567 4.68459ZM-1.91973 4.68459L-1.69819 5.37383H-0.984341L-1.5505 5.79229L-1.32896 6.45691L-1.91973 6.03845L-2.48589 6.45691L-2.26435 5.79229L-2.85513 5.37383H-2.14127L-1.91973 4.68459ZM2.14184 4.68459L2.36338 5.37383H3.07724L2.48646 5.79229L2.73262 6.45691L2.14184 6.03845L1.55107 6.45691L1.79722 5.79229L1.20645 5.37383H1.9203L2.14184 4.68459ZM6.1788 4.68459L6.42496 5.37383H7.1142L6.54804 5.79229L6.76958 6.45691L6.1788 6.03845L5.61265 6.45691L5.83419 5.79229L5.24341 5.37383H5.98188L6.1788 4.68459ZM10.2404 4.68459L10.4619 5.37383H11.1758L10.6096 5.79229L10.8312 6.45691L10.2404 6.03845L9.67422 6.45691L9.89576 5.79229L9.30499 5.37383H10.0188L10.2404 4.68459ZM14.302 4.68459L14.5235 5.37383H15.2374L14.6466 5.79229L14.8927 6.45691L14.302 6.03845L13.7112 6.45691L13.9573 5.79229L13.3666 5.37383H14.0804L14.302 4.68459ZM-3.93822 6.40768L-3.71667 7.09692H-3.00282L-3.5936 7.51539L-3.34744 8.18001L-3.93822 7.76154L-4.52899 8.18001L-4.28283 7.51539L-4.87361 7.09692H-4.15976L-3.93822 6.40768ZM0.0987473 6.40768L0.344903 7.09692H1.03414L0.467981 7.51539L0.689521 8.18001L0.0987473 7.76154L-0.467412 8.18001L-0.245872 7.51539L-0.836647 7.09692H-0.0981789L0.0987473 6.40768ZM4.16033 6.40768L4.38186 7.09692H5.09572L4.52956 7.51539L4.7511 8.18001L4.16033 7.76154L3.59416 8.18001L3.81571 7.51539L3.22493 7.09692H3.93878L4.16033 6.40768ZM8.2219 6.40768L8.44344 7.09692H9.1573L8.56652 7.51539L8.81268 8.18001L8.2219 7.76154L7.63113 8.18001L7.87728 7.51539L7.28651 7.09692H8.00036L8.2219 6.40768ZM12.2589 6.40768L12.505 7.09692H13.1696L12.6035 7.51539L12.825 8.18001L12.2342 7.76154L11.6681 8.18001L11.8896 7.51539L11.2989 7.09692H12.0373L12.2589 6.40768ZM-5.9567 8.13078L-5.75977 8.82001H-5.0213L-5.61208 9.23848L-5.39054 9.9031L-5.98131 9.48463L-6.52286 9.9031L-6.30131 9.23848L-6.89209 8.82001H-6.15362L-5.9567 8.13078ZM-1.91973 8.13078L-1.69819 8.82001H-0.984341L-1.5505 9.23848L-1.32896 9.9031L-1.91973 9.48463L-2.48589 9.9031L-2.26435 9.23848L-2.85513 8.82001H-2.14127L-1.91973 8.13078ZM2.14184 8.13078L2.36338 8.82001H3.07724L2.48646 9.23848L2.73262 9.9031L2.14184 9.48463L1.55107 9.9031L1.79722 9.23848L1.20645 8.82001H1.9203L2.14184 8.13078ZM6.1788 8.13078L6.42496 8.82001H7.1142L6.54804 9.23848L6.76958 9.9031L6.1788 9.48463L5.61265 9.9031L5.83419 9.23848L5.24341 8.82001H5.98188L6.1788 8.13078ZM10.2404 8.13078L10.4619 8.82001H11.1758L10.6096 9.23848L10.8312 9.9031L10.2404 9.48463L9.67422 9.9031L9.89576 9.23848L9.30499 8.82001H10.0188L10.2404 8.13078ZM14.302 8.13078L14.5235 8.82001H15.2374L14.6466 9.23848L14.8927 9.9031L14.302 9.48463L13.7112 9.9031L13.9573 9.23848L13.3666 8.82001H14.0804L14.302 8.13078ZM-3.93822 9.85387L-3.71667 10.5431H-3.00282L-3.5936 10.9616L-3.34744 11.6262L-3.93822 11.2077L-4.52899 11.6262L-4.28283 10.9616L-4.87361 10.5431H-4.15976L-3.93822 9.85387ZM0.0987473 9.85387L0.344903 10.5431H1.03414L0.467981 10.9616L0.689521 11.6262L0.0987473 11.2077L-0.467412 11.6262L-0.245872 10.9616L-0.836647 10.5431H-0.0981789L0.0987473 9.85387ZM4.16033 9.85387L4.38186 10.5431H5.09572L4.52956 10.9616L4.7511 11.6262L4.16033 11.2077L3.59416 11.6262L3.81571 10.9616L3.22493 10.5431H3.93878L4.16033 9.85387ZM8.2219 9.85387L8.44344 10.5431H9.1573L8.56652 10.9616L8.81268 11.6262L8.2219 11.2077L7.63113 11.6262L7.87728 10.9616L7.28651 10.5431H8.00036L8.2219 9.85387ZM12.2589 9.85387L12.505 10.5431H13.1696L12.6035 10.9616L12.825 11.6262L12.2342 11.2077L11.6681 11.6262L11.8896 10.9616L11.2989 10.5431H12.0373L12.2589 9.85387ZM-5.9567 11.577L-5.75977 12.2662H-5.0213L-5.61208 12.6847L-5.39054 13.3493L-5.98131 12.9308L-6.52286 13.3493L-6.30131 12.6847L-6.89209 12.2662H-6.15362L-5.9567 11.577ZM-1.91973 11.577L-1.69819 12.2662H-0.984341L-1.5505 12.6847L-1.32896 13.3493L-1.91973 12.9308L-2.48589 13.3493L-2.26435 12.6847L-2.85513 12.2662H-2.14127L-1.91973 11.577ZM2.14184 11.577L2.36338 12.2662H3.07724L2.48646 12.6847L2.73262 13.3493L2.14184 12.9308L1.55107 13.3493L1.79722 12.6847L1.20645 12.2662H1.9203L2.14184 11.577ZM6.1788 11.577L6.42496 12.2662H7.1142L6.54804 12.6847L6.76958 13.3493L6.1788 12.9308L5.61265 13.3493L5.83419 12.6847L5.24341 12.2662H5.98188L6.1788 11.577ZM10.2404 11.577L10.4619 12.2662H11.1758L10.6096 12.6847L10.8312 13.3493L10.2404 12.9308L9.67422 13.3493L9.89576 12.6847L9.30499 12.2662H10.0188L10.2404 11.577ZM14.302 11.577L14.5235 12.2662H15.2374L14.6466 12.6847L14.8927 13.3493L14.302 12.9308L13.7112 13.3493L13.9573 12.6847L13.3666 12.2662H14.0804L14.302 11.577ZM-3.93822 13.3001L-3.71667 13.9893H-3.00282L-3.5936 14.4078L-3.34744 15.0724L-3.93822 14.6539L-4.52899 15.0724L-4.28283 14.4078L-4.87361 13.9893H-4.15976L-3.93822 13.3001ZM0.0987473 13.3001L0.344903 13.9893H1.03414L0.467981 14.4078L0.689521 15.0724L0.0987473 14.6539L-0.467412 15.0724L-0.245872 14.4078L-0.836647 13.9893H-0.0981789L0.0987473 13.3001ZM4.16033 13.3001L4.38186 13.9893H5.09572L4.52956 14.4078L4.7511 15.0724L4.16033 14.6539L3.59416 15.0724L3.81571 14.4078L3.22493 13.9893H3.93878L4.16033 13.3001ZM8.2219 13.3001L8.44344 13.9893H9.1573L8.56652 14.4078L8.81268 15.0724L8.2219 14.6539L7.63113 15.0724L7.87728 14.4078L7.28651 13.9893H8.00036L8.2219 13.3001ZM12.2589 13.3001L12.505 13.9893H13.1696L12.6035 14.4078L12.825 15.0724L12.2342 14.6539L11.6681 15.0724L11.8896 14.4078L11.2989 13.9893H12.0373L12.2589 13.3001ZM-5.9567 15.0231L-5.75977 15.7124H-5.0213L-5.61208 16.1308L-5.39054 16.7955L-5.98131 16.377L-6.52286 16.7955L-6.30131 16.1308L-6.89209 15.7124H-6.15362L-5.9567 15.0231ZM-1.91973 15.0231L-1.69819 15.7124H-0.984341L-1.5505 16.1308L-1.32896 16.7955L-1.91973 16.377L-2.48589 16.7955L-2.26435 16.1308L-2.85513 15.7124H-2.14127L-1.91973 15.0231ZM2.14184 15.0231L2.36338 15.7124H3.07724L2.48646 16.1308L2.73262 16.7955L2.14184 16.377L1.55107 16.7955L1.79722 16.1308L1.20645 15.7124H1.9203L2.14184 15.0231ZM6.1788 15.0231L6.42496 15.7124H7.1142L6.54804 16.1308L6.76958 16.7955L6.1788 16.377L5.61265 16.7955L5.83419 16.1308L5.24341 15.7124H5.98188L6.1788 15.0231ZM10.2404 15.0231L10.4619 15.7124H11.1758L10.6096 16.1308L10.8312 16.7955L10.2404 16.377L9.67422 16.7955L9.89576 16.1308L9.30499 15.7124H10.0188L10.2404 15.0231ZM14.302 15.0231L14.5235 15.7124H15.2374L14.6466 16.1308L14.8927 16.7955L14.302 16.377L13.7112 16.7955L13.9573 16.1308L13.3666 15.7124H14.0804L14.302 15.0231Z" fill="white"/>
</g>
<path d="M16 1C24.5604 1 31.5 7.93959 31.5 16.5C31.5 25.0604 24.5604 32 16 32C7.43959 32 0.5 25.0604 0.5 16.5C0.5 7.93959 7.43959 1 16 1Z" stroke="#ECECED"/>
</g>
<defs>
<clipPath id="clip0_1588_11509">
<path d="M0 16.5C0 7.66344 7.16344 0.5 16 0.5C24.8366 0.5 32 7.66344 32 16.5C32 25.3366 24.8366 32.5 16 32.5C7.16344 32.5 0 25.3366 0 16.5Z" fill="white"/>
</clipPath>
</defs>
</svg>
