<svg width="20" height="20" viewBox="0 0 20 20" fill="none" xmlns="http://www.w3.org/2000/svg">
<g clip-path="url(#clip0_22641_7960)">
<path d="M17 9.33333H3.66667V14.5002C3.66667 15.2138 3.66696 15.699 3.69759 16.0741C3.72744 16.4394 3.78174 16.6265 3.84815 16.7568C4.00793 17.0704 4.26296 17.3254 4.5765 17.4852C4.70683 17.5516 4.89393 17.6059 5.25928 17.6357C5.63431 17.6664 6.11951 17.6667 6.83317 17.6667H13.8335C14.5472 17.6667 15.0324 17.6664 15.4074 17.6357C15.7727 17.6059 15.9598 17.5516 16.0902 17.4852C16.4037 17.3254 16.6587 17.0704 16.8185 16.7568C16.8849 16.6265 16.9392 16.4394 16.9691 16.0741C16.9997 15.699 17 15.2138 17 14.5002V9.33333ZM12.8333 5.16667V4.33333H7.83333V5.16667C7.83333 5.6269 7.46024 6 7 6C6.53976 6 6.16667 5.6269 6.16667 5.16667V4.33577C5.79545 4.33838 5.50391 4.34428 5.25928 4.36426C4.89393 4.39411 4.70683 4.4484 4.5765 4.51481C4.26295 4.67459 4.00792 4.92962 3.84815 5.24316C3.78174 5.3735 3.72744 5.5606 3.69759 5.92594C3.66696 6.30098 3.66667 6.78618 3.66667 7.49984V7.66667H17V7.49984C17 6.78618 16.9997 6.30098 16.9691 5.92594C16.9392 5.5606 16.8849 5.3735 16.8185 5.24316C16.6587 4.92962 16.4037 4.67459 16.0902 4.51481C15.9598 4.4484 15.7727 4.39411 15.4074 4.36426C15.1628 4.34428 14.8712 4.33838 14.5 4.33577V5.16667C14.5 5.6269 14.1269 6 13.6667 6C13.2064 6 12.8333 5.6269 12.8333 5.16667ZM18.6667 14.5002C18.6667 15.1864 18.6675 15.7513 18.63 16.21C18.5918 16.6783 18.5098 17.1093 18.3037 17.5137C17.9842 18.1408 17.4741 18.6508 16.847 18.9704C16.4426 19.1764 16.0117 19.2584 15.5433 19.2967C15.0846 19.3342 14.5197 19.3333 13.8335 19.3333H6.83317C6.14693 19.3333 5.58202 19.3342 5.12337 19.2967C4.65499 19.2584 4.22408 19.1764 3.81966 18.9704C3.19257 18.6508 2.68251 18.1408 2.36296 17.5137C2.15689 17.1093 2.0749 16.6783 2.03662 16.21C1.99915 15.7513 2 15.1864 2 14.5002V7.49984C2 6.8136 1.99915 6.24869 2.03662 5.79004C2.0749 5.32166 2.15689 4.89075 2.36296 4.48633C2.68251 3.85924 3.19257 3.34918 3.81966 3.02962C4.22408 2.82356 4.65499 2.74156 5.12337 2.70329C5.42405 2.67872 5.77045 2.67183 6.16667 2.66911V1.83333C6.16667 1.3731 6.53976 1 7 1C7.46024 1 7.83333 1.3731 7.83333 1.83333V2.66667H12.8333V1.83333C12.8333 1.3731 13.2064 1 13.6667 1C14.1269 1 14.5 1.3731 14.5 1.83333V2.66911C14.8962 2.67183 15.2426 2.67872 15.5433 2.70329C16.0117 2.74156 16.4426 2.82356 16.847 3.02962C17.4741 3.34918 17.9842 3.85924 18.3037 4.48633C18.5098 4.89075 18.5918 5.32166 18.63 5.79004C18.6675 6.24869 18.6667 6.8136 18.6667 7.49984V14.5002Z" fill="#171717"/>
</g>
<defs>
<clipPath id="clip0_22641_7960">
<rect width="20" height="20" fill="white"/>
</clipPath>
</defs>
</svg>
