<svg width="16" height="16" viewBox="0 0 16 16" fill="none" xmlns="http://www.w3.org/2000/svg">
<path d="M12.6667 4.53255C12.6667 3.96163 12.6664 3.57346 12.6419 3.27344C12.618 2.98116 12.5746 2.83148 12.5215 2.72721C12.3937 2.47638 12.1896 2.27236 11.9388 2.14453C11.8345 2.09141 11.6849 2.04797 11.3926 2.02409C11.0926 1.99958 10.7044 1.99935 10.1335 1.99935H5.86654C5.29561 1.99935 4.90745 1.99958 4.60742 2.02409C4.31515 2.04797 4.16547 2.09141 4.0612 2.14453C3.81036 2.27236 3.60634 2.47638 3.47852 2.72721C3.42539 2.83148 3.38195 2.98116 3.35807 3.27344C3.33357 3.57346 3.33333 3.96163 3.33333 4.53255V11.4661C3.33333 12.0371 3.33357 12.4252 3.35807 12.7253C3.38195 13.0175 3.42539 13.1672 3.47852 13.2715C3.60634 13.5223 3.81036 13.7263 4.0612 13.8542C4.16547 13.9073 4.31515 13.9507 4.60742 13.9746C4.90745 13.9991 5.29561 13.9994 5.86654 13.9994H10.1335C10.7044 13.9994 11.0926 13.9991 11.3926 13.9746C11.6849 13.9507 11.8345 13.9073 11.9388 13.8542C12.1896 13.7263 12.3937 13.5223 12.5215 13.2715C12.5746 13.1672 12.618 13.0175 12.6419 12.7253C12.6664 12.4252 12.6667 12.0371 12.6667 11.4661V4.53255ZM6.66667 9.33268C7.03486 9.33268 7.33333 9.63116 7.33333 9.99935C7.33333 10.3675 7.03486 10.666 6.66667 10.666H5.33333C4.96514 10.666 4.66667 10.3675 4.66667 9.99935C4.66667 9.63116 4.96514 9.33268 5.33333 9.33268H6.66667ZM9.33333 6.66602C9.70152 6.66602 10 6.96449 10 7.33268C10 7.70087 9.70152 7.99935 9.33333 7.99935H5.33333C4.96514 7.99935 4.66667 7.70087 4.66667 7.33268C4.66667 6.96449 4.96514 6.66602 5.33333 6.66602H9.33333ZM10.6667 3.99935C11.0349 3.99935 11.3333 4.29783 11.3333 4.66602C11.3333 5.03421 11.0349 5.33268 10.6667 5.33268H5.33333C4.96514 5.33268 4.66667 5.03421 4.66667 4.66602C4.66667 4.29783 4.96514 3.99935 5.33333 3.99935H10.6667ZM14 11.4661C14 12.0151 14.0007 12.4671 13.9707 12.834C13.9401 13.2087 13.8745 13.5534 13.7096 13.877C13.454 14.3786 13.0459 14.7867 12.5443 15.0423C12.2207 15.2072 11.876 15.2728 11.5013 15.3034C11.1344 15.3334 10.6825 15.3327 10.1335 15.3327H5.86654C5.31754 15.3327 4.86562 15.3334 4.4987 15.3034C4.124 15.2728 3.77927 15.2072 3.45573 15.0423C2.95406 14.7867 2.54601 14.3786 2.29037 13.877C2.12552 13.5534 2.05992 13.2087 2.0293 12.834C1.99932 12.4671 2 12.0151 2 11.4661V4.53255C2 3.98356 1.99932 3.53163 2.0293 3.16471C2.05992 2.79001 2.12552 2.44528 2.29037 2.12175C2.54601 1.62008 2.95406 1.21203 3.45573 0.956381C3.77927 0.791531 4.124 0.725933 4.4987 0.695314C4.86562 0.665335 5.31754 0.666017 5.86654 0.666017H10.1335C10.6825 0.666017 11.1344 0.665335 11.5013 0.695314C11.876 0.725933 12.2207 0.791531 12.5443 0.956381C13.0459 1.21203 13.454 1.62008 13.7096 2.12175C13.8745 2.44528 13.9401 2.79001 13.9707 3.16471C14.0007 3.53163 14 3.98356 14 4.53255V11.4661Z" fill="#171717"/>
</svg>
