<svg width="16" height="16" viewBox="0 0 16 16" fill="none" xmlns="http://www.w3.org/2000/svg">
<path d="M8.15449 0.905522C8.34396 0.678252 8.66105 0.603451 8.93248 0.721278C9.20378 0.839197 9.36501 1.12173 9.32832 1.41529L8.7554 5.99927H12.8615C13.0297 5.99927 13.2019 5.99839 13.3413 6.01099C13.467 6.02237 13.7081 6.05265 13.9169 6.22128C14.1559 6.41443 14.2932 6.70697 14.2886 7.01425C14.2846 7.28268 14.1533 7.48719 14.0816 7.59107C14.002 7.7063 13.8911 7.83813 13.7834 7.96737L7.8459 15.093C7.65643 15.3204 7.33937 15.3951 7.0679 15.2773C6.79651 15.1594 6.63537 14.8769 6.67207 14.5833L7.24498 9.99927H3.13887C2.97054 9.99927 2.79794 10.0002 2.6584 9.98755C2.53267 9.97616 2.29219 9.94575 2.08353 9.77727C1.8445 9.58411 1.70718 9.29157 1.71178 8.9843L1.71894 8.88664C1.7477 8.66628 1.85603 8.49838 1.91881 8.40748C1.99842 8.29224 2.10929 8.16042 2.21699 8.03117L8.15449 0.905522ZM3.42337 8.66594H8.00019C8.19138 8.66597 8.37366 8.74787 8.50019 8.8912C8.62672 9.03455 8.68536 9.22556 8.66165 9.41529L8.27689 12.4915L12.577 7.33261H8.00019C7.809 7.33261 7.62674 7.25067 7.50019 7.10735C7.37364 6.96399 7.31502 6.773 7.33873 6.58326L7.72285 3.50643L3.42337 8.66594Z" fill="#171717"/>
</svg>
