<svg width="20" height="20" viewBox="0 0 20 20" fill="none" xmlns="http://www.w3.org/2000/svg">
<path d="M17.5 13.6759V4.71924C17.5 4.68763 17.4994 4.66732 17.4992 4.65169C17.4975 4.64907 17.496 4.64625 17.4943 4.64355C17.4926 4.64093 17.4903 4.63875 17.4886 4.63623C17.0546 4.45217 16.0738 4.16667 14.1666 4.16667C12.6358 4.16667 11.2818 4.54818 9.93244 4.96338C8.62593 5.36538 7.23748 5.83333 5.83332 5.83333C4.97739 5.83333 4.21211 5.74261 3.56606 5.61849C3.12628 5.53399 2.83312 5.47794 2.62205 5.45003C2.58108 5.44462 2.54676 5.44288 2.5187 5.44027C2.51696 5.4581 2.51379 5.4788 2.51219 5.50293C2.50027 5.6823 2.49998 5.93321 2.49998 6.32406V15.3475C2.50183 15.3504 2.50371 15.3534 2.50568 15.3564C2.50718 15.3587 2.50909 15.3607 2.51056 15.363C2.94406 15.547 3.92474 15.8333 5.83332 15.8333C7.36418 15.8333 8.71813 15.4518 10.0675 15.0366C11.374 14.6346 12.7625 14.1667 14.1666 14.1667C15.0226 14.1667 15.7879 14.2574 16.4339 14.3815C16.8737 14.466 17.1668 14.5221 17.3779 14.55C17.4185 14.5553 17.4526 14.5563 17.4805 14.5589C17.4822 14.5412 17.4862 14.5209 17.4878 14.4971C17.4997 14.3177 17.5 14.0668 17.5 13.6759ZM2.46418 15.3442C2.46297 15.3436 2.46187 15.3431 2.46092 15.3426C2.45732 15.3408 2.4557 15.3405 2.45848 15.3418C2.46002 15.3425 2.4618 15.3432 2.46418 15.3442ZM4.16665 12.5V9.16667C4.16665 8.70643 4.53975 8.33333 4.99998 8.33333C5.46022 8.33333 5.83332 8.70643 5.83332 9.16667V12.5C5.83332 12.9602 5.46022 13.3333 4.99998 13.3333C4.53975 13.3333 4.16665 12.9602 4.16665 12.5ZM11.25 10C11.25 9.30964 10.6903 8.75 9.99998 8.75C9.30963 8.75 8.74998 9.30964 8.74998 10C8.74998 10.6904 9.30963 11.25 9.99998 11.25C10.6903 11.25 11.25 10.6904 11.25 10ZM14.1666 10.8333V7.5C14.1666 7.03976 14.5397 6.66667 15 6.66667C15.4602 6.66667 15.8333 7.03976 15.8333 7.5V10.8333C15.8333 11.2936 15.4602 11.6667 15 11.6667C14.5397 11.6667 14.1666 11.2936 14.1666 10.8333ZM17.539 4.65739C17.5426 4.65918 17.5443 4.65947 17.5415 4.6582C17.5399 4.65747 17.5383 4.65607 17.5358 4.65495C17.5371 4.65563 17.538 4.65687 17.539 4.65739ZM12.9166 10C12.9166 11.6108 11.6108 12.9167 9.99998 12.9167C8.38915 12.9167 7.08332 11.6108 7.08332 10C7.08332 8.38917 8.38915 7.08333 9.99998 7.08333C11.6108 7.08333 12.9166 8.38917 12.9166 10ZM19.1666 13.6759C19.1666 14.0424 19.1668 14.3598 19.1504 14.6077C19.1354 14.8332 19.1018 15.1484 18.9396 15.4264C18.8512 15.5779 18.736 15.7383 18.5669 15.8781C18.3978 16.0178 18.2187 16.1007 18.0534 16.1589C17.7379 16.2699 17.3927 16.2336 17.1598 16.2028C16.8887 16.167 16.5379 16.0992 16.1198 16.0189C15.5645 15.9122 14.9048 15.8333 14.1666 15.8333C13.0709 15.8333 11.9592 16.1987 10.5574 16.63C9.19854 17.0482 7.63571 17.5 5.83332 17.5C3.71203 17.5 2.48649 17.1755 1.80337 16.8742C1.77138 16.8601 1.6835 16.8236 1.5869 16.7603C1.49428 16.6995 1.41711 16.6305 1.34927 16.5658C1.24437 16.4656 1.15686 16.3381 1.11001 16.2663C1.06315 16.1944 0.981885 16.0626 0.9326 15.9261C0.831164 15.6452 0.833317 15.4474 0.833317 15.2808V6.32406C0.833317 5.95759 0.833119 5.6402 0.849593 5.39225C0.864582 5.1668 0.898152 4.85164 1.06037 4.57357L1.13198 4.45882C1.20964 4.34331 1.30616 4.22677 1.43309 4.12191C1.6022 3.98221 1.78123 3.89934 1.9466 3.84115C2.26208 3.73013 2.60726 3.76642 2.84015 3.7972C3.11124 3.83304 3.46202 3.90077 3.88019 3.98112C4.43542 4.0878 5.09512 4.16667 5.83332 4.16667C6.92909 4.16667 8.04075 3.80127 9.44253 3.36995C10.8014 2.95184 12.3643 2.5 14.1666 2.5C16.2879 2.5 17.5135 2.82448 18.1966 3.12581C18.2286 3.13991 18.3165 3.17636 18.4131 3.23975C18.5057 3.30054 18.5829 3.3695 18.6507 3.43424C18.7556 3.53438 18.8431 3.66186 18.89 3.73372C18.9251 3.78764 18.98 3.87499 19.0259 3.97298L19.0674 4.07389L19.126 4.26921C19.1682 4.45132 19.1666 4.59419 19.1666 4.71924V13.6759Z" fill="#171717"/>
</svg>
