<svg width="20" height="20" viewBox="0 0 20 20" fill="none" xmlns="http://www.w3.org/2000/svg">
<g clip-path="url(#clip0_22813_51130)">
<path d="M15.4601 2.48051C16.679 1.2617 18.6552 1.26171 19.8741 2.48051C21.093 3.69942 21.093 5.67561 19.8741 6.89457L7.31162 19.458C6.99944 19.7702 6.73252 20.0463 6.40635 20.2461C6.13801 20.4106 5.84516 20.531 5.53916 20.6045C5.1672 20.6938 4.78337 20.6875 4.34189 20.6875H2.66709C2.1148 20.6875 1.66709 20.2398 1.66709 19.6875V18.0137C1.66709 17.5721 1.66078 17.1875 1.7501 16.8155C1.8236 16.5095 1.94506 16.2166 2.10947 15.9483C2.30936 15.6223 2.58545 15.3551 2.89756 15.043L15.4601 2.48051ZM20.6671 18.6875C21.2193 18.6875 21.667 19.1354 21.6671 19.6875C21.6671 20.2398 21.2194 20.6875 20.6671 20.6875H11.6671C11.1148 20.6875 10.6671 20.2398 10.6671 19.6875C10.6672 19.1354 11.1149 18.6875 11.6671 18.6875H20.6671ZM3.66709 18.6875H4.34189C4.87845 18.6875 4.98406 18.6814 5.07236 18.6602C5.17432 18.6357 5.27201 18.5949 5.36142 18.5401C5.43877 18.4926 5.51852 18.422 5.89756 18.043L18.4601 5.48051C18.8979 5.04259 18.8979 4.33244 18.4601 3.89457C18.0222 3.45683 17.312 3.45681 16.8741 3.89457L4.31162 16.458C3.93217 16.8375 3.862 16.9167 3.81455 16.9942C3.75989 17.0835 3.71891 17.1805 3.69443 17.2823C3.67323 17.3706 3.66709 17.4769 3.66709 18.0137V18.6875Z" fill="#00A38D"/>
</g>
<defs>
<clipPath id="clip0_22813_51130">
<rect width="20" height="20" fill="white"/>
</clipPath>
</defs>
</svg>
