<svg width="12" height="12" viewBox="0 0 12 12" fill="none" xmlns="http://www.w3.org/2000/svg">
<path d="M6 0C9.31371 0 12 2.68629 12 6C12 9.31371 9.31371 12 6 12C2.68629 12 0 9.31371 0 6C0 2.68629 2.68629 0 6 0ZM3.75195 6.51953C3.69243 6.57898 3.64002 6.63157 3.5957 6.69238C3.55663 6.74602 3.52327 6.80372 3.49609 6.86426C3.46523 6.93303 3.44499 7.00458 3.42285 7.08594L3.01172 8.59668C2.98157 8.70721 3.01274 8.82524 3.09375 8.90625C3.17476 8.98726 3.29279 9.01843 3.40332 8.98828L4.91406 8.57715C4.99542 8.55502 5.06697 8.53477 5.13574 8.50391C5.19628 8.47673 5.25398 8.44337 5.30762 8.4043C5.36843 8.35998 5.42102 8.30757 5.48047 8.24805L8.10547 5.62305L6.37695 3.89453L3.75195 6.51953ZM7.61816 3.02344C7.52212 2.99223 7.41833 2.99233 7.32227 3.02344C7.24799 3.04757 7.19367 3.08806 7.1582 3.11816C7.12766 3.14411 7.09518 3.17628 7.06836 3.20312L6.7207 3.55078L8.44922 5.2793L8.79688 4.93164C8.82372 4.90482 8.85588 4.87234 8.88184 4.8418C8.91194 4.80633 8.95243 4.75201 8.97656 4.67773C9.00767 4.58167 9.00777 4.47788 8.97656 4.38184C8.95242 4.30775 8.91189 4.25416 8.88184 4.21875C8.85588 4.18819 8.82373 4.15574 8.79688 4.12891L7.87109 3.20312C7.84426 3.17627 7.8118 3.14412 7.78125 3.11816C7.74584 3.08811 7.69225 3.04758 7.61816 3.02344Z" fill="#7D52F4"/>
</svg>
