<svg width="20" height="20" viewBox="0 0 20 20" fill="none" xmlns="http://www.w3.org/2000/svg">
<path fill-rule="evenodd" clip-rule="evenodd" d="M17.0893 4.24408C17.4147 4.56951 17.4147 5.09715 17.0893 5.42259L5.42259 17.0893C5.09715 17.4147 4.56951 17.4147 4.24408 17.0893C3.91864 16.7638 3.91864 16.2362 4.24408 15.9107L15.9107 4.24408C16.2362 3.91864 16.7638 3.91864 17.0893 4.24408Z" fill="#171717"/>
<path fill-rule="evenodd" clip-rule="evenodd" d="M4.41667 6.08333C4.41667 5.16286 5.16286 4.41667 6.08333 4.41667C7.00381 4.41667 7.75 5.16286 7.75 6.08333C7.75 7.00381 7.00381 7.75 6.08333 7.75C5.16286 7.75 4.41667 7.00381 4.41667 6.08333Z" fill="#171717"/>
<path fill-rule="evenodd" clip-rule="evenodd" d="M13.5833 15.25C13.5833 14.3295 14.3295 13.5833 15.25 13.5833C16.1705 13.5833 16.9167 14.3295 16.9167 15.25C16.9167 16.1705 16.1705 16.9167 15.25 16.9167C14.3295 16.9167 13.5833 16.1705 13.5833 15.25Z" fill="#171717"/>
</svg>
