<svg width="20" height="20" viewBox="0 0 20 20" fill="none" xmlns="http://www.w3.org/2000/svg">
<path d="M15.8333 6.01532C15.8333 5.28099 15.8201 5.13436 15.7788 5.02573C15.7306 4.89938 15.6524 4.78636 15.5509 4.69696C15.4637 4.62018 15.3308 4.55672 14.6435 4.29901L10.1758 2.62339C10.0829 2.58858 10.0365 2.57107 10.0024 2.55991C10.0016 2.55964 10.0008 2.55935 9.99997 2.5591C9.99919 2.55935 9.99838 2.55964 9.99753 2.55991C9.96349 2.57107 9.91703 2.58858 9.82419 2.62339L5.35642 4.29901C4.66918 4.55672 4.53623 4.62018 4.44903 4.69696C4.34758 4.78636 4.2693 4.89938 4.22116 5.02573C4.17983 5.13436 4.16664 5.28099 4.16664 6.01532V10.0005C4.16664 11.7354 5.11612 13.3049 6.36797 14.6091C7.61053 15.9035 9.05809 16.8388 9.83802 17.2938C9.88569 17.3216 9.92043 17.3413 9.95033 17.3581C9.9737 17.3712 9.98929 17.3795 9.99997 17.3849C10.0107 17.3795 10.0262 17.3712 10.0496 17.3581C10.0795 17.3413 10.1143 17.3216 10.1619 17.2938C10.9419 16.8388 12.3894 15.9035 13.632 14.6091C14.8838 13.3049 15.8333 11.7354 15.8333 10.0005V6.01532ZM12.3274 6.91131C12.6528 6.58608 13.1804 6.58608 13.5058 6.91131C13.8312 7.2367 13.8311 7.76425 13.5058 8.0897L9.75583 11.8397C9.43039 12.1651 8.90288 12.1651 8.57745 11.8397L6.91078 10.173C6.58549 9.84758 6.58539 9.32003 6.91078 8.99465C7.23618 8.66941 7.76376 8.66941 8.08916 8.99465L9.16664 10.0721L12.3274 6.91131ZM17.5 10.0005C17.5 12.356 16.2188 14.3204 14.834 15.763C13.4401 17.2151 11.8452 18.2405 11.0018 18.7326C10.8436 18.8249 10.6334 18.9565 10.3491 19.0174C10.1331 19.0637 9.86689 19.0637 9.65085 19.0174C9.36657 18.9565 9.15639 18.8249 8.99818 18.7326C8.15471 18.2405 6.55985 17.2151 5.16599 15.763C3.78118 14.3204 2.49997 12.356 2.49997 10.0005V6.01532C2.49997 5.41733 2.48697 4.89732 2.66355 4.43329C2.80794 4.05387 3.04257 3.71537 3.34714 3.44696C3.71966 3.11867 4.21132 2.94812 4.77129 2.73814L9.23907 1.06252C9.3788 1.01012 9.56269 0.93664 9.76153 0.907896C9.88016 0.890753 10.0003 0.886289 10.1196 0.894875L10.2384 0.907896L10.3841 0.937193C10.5262 0.972494 10.6561 1.02321 10.7609 1.06252L15.2287 2.73814C15.7886 2.94812 16.2803 3.11867 16.6528 3.44696C16.9574 3.71537 17.192 4.05387 17.3364 4.43329C17.513 4.89732 17.5 5.41733 17.5 6.01532V10.0005Z" fill="#171717"/>
</svg>
