<svg width="25" height="24" viewBox="0 0 25 24" fill="none" xmlns="http://www.w3.org/2000/svg">
<path d="M12.667 6.5C11.8386 6.5 11.167 5.82843 11.167 5C11.167 4.17157 11.8386 3.5 12.667 3.5C13.4954 3.5 14.167 4.17157 14.167 5C14.167 5.82843 13.4954 6.5 12.667 6.5Z" fill="#6D7885"/>
<path d="M12.667 13.5C11.8386 13.5 11.167 12.8284 11.167 12C11.167 11.1716 11.8386 10.5 12.667 10.5C13.4954 10.5 14.167 11.1716 14.167 12C14.167 12.8284 13.4954 13.5 12.667 13.5Z" fill="#6D7885"/>
<path d="M12.667 20.5C11.8386 20.5 11.167 19.8284 11.167 19C11.167 18.1716 11.8386 17.5 12.667 17.5C13.4954 17.5 14.167 18.1716 14.167 19C14.167 19.8284 13.4954 20.5 12.667 20.5Z" fill="#6D7885"/>
</svg>
