<svg width="64" height="64" viewBox="0 0 64 64" fill="none" xmlns="http://www.w3.org/2000/svg">
<path d="M31.9994 24V34.6667M31.9994 45.3333H32.0261M28.3069 10.3779L6.37387 48.2623C5.15733 50.3636 4.54905 51.4142 4.63896 52.2765C4.71737 53.0287 5.11142 53.7121 5.72304 54.1568C6.42426 54.6667 7.6383 54.6667 10.0664 54.6667H53.9324C56.3605 54.6667 57.5745 54.6667 58.2757 54.1568C58.8874 53.7121 59.2814 53.0287 59.3598 52.2765C59.4497 51.4142 58.8414 50.3636 57.6249 48.2622L35.6919 10.3779C34.4797 8.28416 33.8736 7.23727 33.0829 6.88567C32.3931 6.57896 31.6057 6.57896 30.9159 6.88567C30.1252 7.23727 29.5191 8.28416 28.3069 10.3779Z" stroke="#FFA340" stroke-width="4" stroke-linecap="round" stroke-linejoin="round"/>
</svg>
