<svg width="156" height="52" viewBox="0 0 156 52" fill="none" xmlns="http://www.w3.org/2000/svg">
<path d="M143.175 4.69297e-05H12.3951C11.9184 4.69297e-05 11.4474 4.69298e-05 10.9719 0.00264693C10.5739 0.00524693 10.1791 0.0127999 9.7773 0.0191569C8.90437 0.0294293 8.03349 0.106226 7.17223 0.24888C6.31218 0.394639 5.47907 0.669437 4.70109 1.06398C3.92405 1.46186 3.21405 1.97886 2.59684 2.59624C1.97639 3.21187 1.4592 3.92347 1.06516 4.70365C0.67002 5.48229 0.396033 6.31667 0.252655 7.17797C0.107914 8.03819 0.0300279 8.90832 0.019695 9.78057C0.007631 10.1792 0.006357 10.5791 0 10.9777V41.0262C0.006357 41.4299 0.007631 41.8209 0.019695 42.2247C0.0300311 43.0969 0.107917 43.967 0.252655 44.8272C0.395637 45.689 0.669641 46.5238 1.06516 47.3028C1.45902 48.0804 1.97629 48.7891 2.59684 49.4013C3.21171 50.0215 3.92217 50.5388 4.70109 50.9337C5.47907 51.3293 6.31209 51.6057 7.17223 51.7537C8.03364 51.8952 8.90442 51.972 9.7773 51.9835C10.1791 51.9924 10.5739 51.9974 10.9719 51.9974C11.4474 52 11.9184 52 12.3951 52H143.175C143.642 52 144.117 52 144.584 51.9974C144.981 51.9974 145.387 51.9924 145.783 51.9835C146.654 51.9726 147.523 51.8958 148.383 51.7537C149.246 51.6046 150.082 51.3283 150.864 50.9337C151.642 50.5386 152.352 50.0212 152.966 49.4013C153.585 48.7867 154.103 48.0785 154.502 47.3028C154.895 46.5233 155.166 45.6885 155.307 44.8272C155.452 43.9669 155.532 43.097 155.548 42.2247C155.553 41.8209 155.553 41.4299 155.553 41.0262C155.563 40.5539 155.563 40.0842 155.563 39.6043V12.397C155.563 11.9209 155.563 11.4487 155.553 10.9777C155.553 10.5791 155.553 10.1792 155.548 9.78052C155.532 8.9082 155.452 8.03825 155.307 7.17792C155.166 6.31711 154.894 5.4828 154.502 4.7036C153.7 3.1398 152.427 1.86688 150.864 1.06386C150.082 0.670284 149.246 0.395559 148.383 0.248763C147.523 0.105481 146.654 0.028657 145.783 0.0189749C145.387 0.0126309 144.981 0.00501293 144.584 0.00247793C144.117 -0.00012207 143.642 -0.00012207 143.175 -0.00012207V4.69297e-05Z" fill="#A6A6A6"/>
<path d="M10.9781 50.8625C10.582 50.8625 10.1955 50.8574 9.80255 50.8486C8.98847 50.838 8.17629 50.7671 7.37267 50.6366C6.62334 50.5075 5.89744 50.2675 5.21891 49.9243C4.5466 49.584 3.93341 49.1378 3.40281 48.6027C2.86453 48.074 2.41639 47.4607 2.07615 46.7873C1.73215 46.1094 1.49409 45.3829 1.37025 44.6329C1.23651 43.8271 1.16415 43.0122 1.1538 42.1954C1.14556 41.9212 1.13477 41.0084 1.13477 41.0084V10.9777C1.13477 10.9777 1.14626 10.0788 1.15386 9.81475C1.16378 8.99924 1.23571 8.18566 1.36905 7.38106C1.49312 6.62904 1.73137 5.90039 2.07555 5.22033C2.41454 4.54734 2.8602 3.93363 3.39523 3.403C3.92967 2.86732 4.54482 2.4188 5.21827 2.07379C5.89524 1.73173 6.61977 1.49336 7.36759 1.36666C8.17385 1.2348 8.98885 1.16351 9.80575 1.15339L10.9788 1.13751H144.578L145.765 1.15402C146.574 1.16364 147.382 1.2343 148.181 1.36539C148.936 1.49368 149.668 1.73371 150.353 2.07759C151.702 2.77289 152.8 3.87292 153.493 5.2235C153.831 5.89886 154.066 6.62157 154.188 7.3671C154.323 8.1783 154.399 8.99827 154.414 9.82047C154.418 10.1886 154.418 10.5841 154.418 10.9777C154.428 11.4652 154.428 11.9292 154.428 12.397V39.6043C154.428 40.0765 154.428 40.5374 154.418 41.002C154.418 41.4248 154.418 41.812 154.413 42.2106C154.398 43.0182 154.323 43.8235 154.191 44.6202C154.069 45.3755 153.833 46.1078 153.489 46.7912C153.146 47.4573 152.701 48.0653 152.168 48.5926C151.637 49.1305 151.023 49.5793 150.349 49.9218C149.666 50.2676 148.935 50.5086 148.181 50.6366C147.377 50.7678 146.565 50.8387 145.751 50.8486C145.37 50.8574 144.971 50.8625 144.584 50.8625L143.175 50.8651L10.9781 50.8625Z" fill="black"/>
<path d="M32.1994 26.3909C32.2134 25.3058 32.5016 24.2419 33.0372 23.2982C33.5729 22.3545 34.3385 21.5615 35.2629 20.9932C34.6757 20.1545 33.9009 19.4643 33.0003 18.9774C32.0996 18.4904 31.0978 18.2202 30.0744 18.1882C27.8914 17.9591 25.7751 19.4945 24.6626 19.4945C23.5287 19.4945 21.8159 18.211 19.9716 18.2489C18.7786 18.2875 17.616 18.6344 16.5969 19.2559C15.5779 19.8773 14.7372 20.7522 14.1568 21.7952C11.6426 26.1481 13.518 32.5455 15.9264 36.0641C17.1313 37.787 18.5396 39.7116 20.3823 39.6434C22.1855 39.5686 22.8589 38.4935 25.0355 38.4935C27.1919 38.4935 27.8237 39.6434 29.7038 39.6C31.6387 39.5685 32.8578 37.8693 34.0205 36.1301C34.8862 34.9024 35.5524 33.5456 35.9944 32.1098C34.8703 31.6344 33.911 30.8385 33.2361 29.8215C32.5613 28.8046 32.2007 27.6114 32.1994 26.3909Z" fill="white"/>
<path d="M28.6483 15.8742C29.7032 14.6077 30.223 12.9799 30.0971 11.3364C28.4854 11.5057 26.9965 12.276 25.9273 13.4939C25.4045 14.0888 25.0041 14.781 24.749 15.5308C24.4939 16.2806 24.389 17.0733 24.4405 17.8637C25.2466 17.872 26.0442 17.6972 26.7731 17.3526C27.5019 17.008 28.1431 16.5025 28.6483 15.8742Z" fill="white"/>
<path d="M54.9929 35.2815H48.8395L47.3617 39.6449H44.7554L50.5838 23.5015H53.2917L59.1201 39.6449H56.4693L54.9929 35.2815ZM49.4768 33.2681H54.3544L51.9499 26.1866H51.8826L49.4768 33.2681Z" fill="white"/>
<path d="M71.7075 33.7606C71.7075 37.4182 69.7498 39.768 66.7956 39.768C66.0473 39.8072 65.303 39.6348 64.6481 39.2706C63.9932 38.9064 63.454 38.3652 63.0924 37.7088H63.0365V43.5385H60.6206V27.8751H62.9591V29.8327H63.0036C63.3818 29.1795 63.93 28.641 64.59 28.2746C65.2499 27.9082 65.9968 27.7276 66.7512 27.7519C69.7384 27.7519 71.7075 30.1133 71.7075 33.7606ZM69.2243 33.7606C69.2243 31.3777 67.9928 29.8111 66.1139 29.8111C64.268 29.8111 63.0264 31.4107 63.0264 33.7606C63.0264 36.1321 64.268 37.7203 66.1139 37.7203C67.9928 37.7203 69.2243 36.1651 69.2243 33.7606Z" fill="white"/>
<path d="M84.662 33.7607C84.662 37.4182 82.7044 39.7681 79.7502 39.7681C79.0019 39.8072 78.2576 39.6349 77.6027 39.2707C76.9478 38.9065 76.4086 38.3652 76.047 37.7089H75.9911V43.5386H73.5752V27.8751H75.9137V29.8327H75.9581C76.3363 29.1795 76.8846 28.6411 77.5445 28.2747C78.2044 27.9083 78.9513 27.7277 79.7058 27.752C82.693 27.752 84.662 30.1133 84.662 33.7607ZM82.1788 33.7607C82.1788 31.3778 80.9474 29.8112 79.0685 29.8112C77.2226 29.8112 75.981 31.4108 75.981 33.7607C75.981 36.1322 77.2226 37.7203 79.0685 37.7203C80.9474 37.7203 82.1789 36.1652 82.1789 33.7607H82.1788Z" fill="white"/>
<path d="M93.2236 35.147C93.4026 36.7479 94.9578 37.799 97.083 37.799C99.1193 37.799 100.584 36.7478 100.584 35.3043C100.584 34.0513 99.7007 33.301 97.6085 32.7869L95.5164 32.2829C92.552 31.5668 91.1758 30.1805 91.1758 27.9309C91.1758 25.1455 93.6032 23.2324 97.0499 23.2324C100.461 23.2324 102.8 25.1455 102.878 27.9309H100.44C100.294 26.3199 98.9618 25.3474 97.0156 25.3474C95.0694 25.3474 93.7377 26.3313 93.7377 27.7633C93.7377 28.9046 94.5883 29.5762 96.6691 30.0903L98.4477 30.5271C101.76 31.3104 103.136 32.6409 103.136 35.0021C103.136 38.0224 100.73 39.914 96.9039 39.914C93.3238 39.914 90.9066 38.0668 90.7505 35.1469L93.2236 35.147Z" fill="white"/>
<path d="M108.35 25.0897V27.8751H110.588V29.7883H108.35V36.2768C108.35 37.2848 108.798 37.7546 109.782 37.7546C110.048 37.7499 110.313 37.7313 110.577 37.6987V39.6004C110.134 39.6831 109.685 39.7205 109.235 39.7121C106.852 39.7121 105.923 38.8171 105.923 36.5345V29.7883H104.211V27.8751H105.923V25.0897H108.35Z" fill="white"/>
<path d="M111.884 33.7607C111.884 30.0575 114.065 27.7304 117.466 27.7304C120.879 27.7304 123.05 30.0574 123.05 33.7607C123.05 37.4741 120.89 39.7909 117.466 39.7909C114.044 39.7909 111.884 37.4741 111.884 33.7607ZM120.588 33.7607C120.588 31.2203 119.424 29.721 117.466 29.721C115.509 29.721 114.346 31.2318 114.346 33.7607C114.346 36.3112 115.509 37.7991 117.466 37.7991C119.424 37.7991 120.588 36.3112 120.588 33.7607H120.588Z" fill="white"/>
<path d="M125.042 27.8751H127.346V29.8784H127.402C127.558 29.2527 127.925 28.6998 128.44 28.3125C128.956 27.9253 129.589 27.7273 130.233 27.7519C130.512 27.751 130.789 27.7812 131.061 27.8421V30.1018C130.709 29.9944 130.343 29.9451 129.975 29.9558C129.624 29.9416 129.275 30.0035 128.95 30.1372C128.625 30.271 128.333 30.4734 128.094 30.7307C127.855 30.988 127.674 31.2939 127.564 31.6276C127.454 31.9613 127.418 32.3147 127.458 32.6637V39.6449H125.042L125.042 27.8751Z" fill="white"/>
<path d="M142.2 36.188C141.875 38.3246 139.794 39.7909 137.132 39.7909C133.708 39.7909 131.583 37.4968 131.583 33.8165C131.583 30.1247 133.719 27.7303 137.03 27.7303C140.286 27.7303 142.334 29.9673 142.334 33.5359V34.3636H134.021V34.5096C133.983 34.9428 134.037 35.3792 134.18 35.7898C134.324 36.2003 134.553 36.5758 134.852 36.8911C135.152 37.2064 135.515 37.4544 135.917 37.6186C136.32 37.7828 136.753 37.8594 137.188 37.8434C137.758 37.8969 138.331 37.7647 138.821 37.4664C139.311 37.1681 139.691 36.7198 139.906 36.188L142.2 36.188ZM134.033 32.6752H139.917C139.939 32.2857 139.88 31.8959 139.744 31.5304C139.607 31.1648 139.397 30.8313 139.126 30.5508C138.855 30.2703 138.529 30.0489 138.168 29.9004C137.808 29.7519 137.42 29.6796 137.03 29.688C136.637 29.6856 136.247 29.7612 135.883 29.9104C135.519 30.0595 135.188 30.2793 134.909 30.557C134.63 30.8348 134.409 31.1649 134.259 31.5285C134.109 31.892 134.032 32.2818 134.033 32.6752V32.6752Z" fill="white"/>
<path d="M49.1739 11.3503C49.6804 11.3139 50.1887 11.3905 50.662 11.5743C51.1354 11.7582 51.562 12.0448 51.9112 12.4135C52.2603 12.7822 52.5233 13.2238 52.6811 13.7065C52.839 14.1892 52.8877 14.7008 52.8238 15.2046C52.8238 17.6827 51.4845 19.1072 49.1739 19.1072H46.3721V11.3503H49.1739ZM47.5768 18.0102H49.0393C49.4013 18.0318 49.7635 17.9725 50.0996 17.8365C50.4357 17.7005 50.7372 17.4913 50.9823 17.224C51.2273 16.9568 51.4097 16.6383 51.5161 16.2917C51.6225 15.9451 51.6503 15.5791 51.5974 15.2204C51.6465 14.8631 51.6159 14.4994 51.5078 14.1553C51.3997 13.8113 51.2169 13.4954 50.9724 13.2303C50.728 12.9652 50.4279 12.7574 50.0937 12.6219C49.7595 12.4864 49.3994 12.4265 49.0393 12.4465H47.5768V18.0102Z" fill="white"/>
<path d="M54.1849 16.1776C54.1481 15.7929 54.1921 15.4048 54.3141 15.0381C54.4361 14.6714 54.6334 14.3343 54.8933 14.0483C55.1533 13.7623 55.4701 13.5338 55.8235 13.3774C56.1769 13.2211 56.5591 13.1403 56.9455 13.1403C57.332 13.1403 57.7142 13.2211 58.0676 13.3774C58.421 13.5338 58.7378 13.7623 58.9977 14.0483C59.2577 14.3343 59.4549 14.6714 59.5769 15.0381C59.6989 15.4048 59.7429 15.7929 59.7061 16.1776C59.7436 16.5627 59.7001 16.9514 59.5785 17.3187C59.4568 17.6859 59.2596 18.0237 58.9996 18.3102C58.7397 18.5968 58.4226 18.8258 58.0688 18.9825C57.7151 19.1391 57.3324 19.2201 56.9455 19.2201C56.5586 19.2201 56.176 19.1391 55.8222 18.9825C55.4685 18.8258 55.1514 18.5968 54.8914 18.3102C54.6314 18.0237 54.4343 17.6859 54.3126 17.3187C54.1909 16.9514 54.1474 16.5627 54.1849 16.1776ZM58.5178 16.1776C58.5178 14.9087 57.9478 14.1667 56.9474 14.1667C55.9432 14.1667 55.3783 14.9087 55.3783 16.1776C55.3783 17.4567 55.9433 18.193 56.9474 18.193C57.9478 18.193 58.5178 17.4516 58.5178 16.1776H58.5178Z" fill="white"/>
<path d="M67.0451 19.107H65.8467L64.6368 14.7957H64.5454L63.3406 19.107H62.1536L60.54 13.2532H61.7118L62.7605 17.72H62.8468L64.0503 13.2532H65.1586L66.3621 17.72H66.4535L67.4971 13.2532H68.6523L67.0451 19.107Z" fill="white"/>
<path d="M70.0093 13.2532H71.1214V14.1831H71.2077C71.3542 13.8492 71.6012 13.5692 71.9143 13.3822C72.2274 13.1953 72.5911 13.1107 72.9546 13.1402C73.2394 13.1188 73.5254 13.1618 73.7914 13.2659C74.0574 13.37 74.2965 13.5326 74.4911 13.7417C74.6857 13.9508 74.8307 14.201 74.9155 14.4738C75.0003 14.7466 75.0226 15.0349 74.9808 15.3175V19.107H73.8255V15.6076C73.8255 14.6669 73.4167 14.199 72.5623 14.199C72.3689 14.19 72.1759 14.2229 71.9964 14.2955C71.8169 14.3681 71.6553 14.4786 71.5225 14.6195C71.3897 14.7604 71.289 14.9284 71.2272 15.1118C71.1654 15.2953 71.1441 15.49 71.1645 15.6825V19.107H70.0093L70.0093 13.2532Z" fill="white"/>
<path d="M76.8218 10.9681H77.9771V19.107H76.8218V10.9681Z" fill="white"/>
<path d="M79.5829 16.1776C79.5461 15.7929 79.5901 15.4047 79.7121 15.038C79.8342 14.6713 80.0315 14.3342 80.2914 14.0482C80.5514 13.7622 80.8682 13.5337 81.2217 13.3773C81.5751 13.221 81.9573 13.1402 82.3438 13.1402C82.7302 13.1402 83.1125 13.221 83.4659 13.3773C83.8193 13.5337 84.1362 13.7622 84.3961 14.0482C84.6561 14.3342 84.8534 14.6713 84.9754 15.038C85.0974 15.4047 85.1414 15.7929 85.1047 16.1776C85.1421 16.5627 85.0986 16.9514 84.9769 17.3187C84.8552 17.6859 84.658 18.0237 84.398 18.3102C84.138 18.5968 83.8209 18.8257 83.4671 18.9824C83.1133 19.1391 82.7307 19.22 82.3438 19.22C81.9568 19.22 81.5742 19.1391 81.2204 18.9824C80.8667 18.8257 80.5496 18.5968 80.2896 18.3102C80.0295 18.0237 79.8323 17.6859 79.7106 17.3187C79.5889 16.9514 79.5454 16.5627 79.5829 16.1776ZM83.9158 16.1776C83.9158 14.9087 83.3457 14.1667 82.3454 14.1667C81.3412 14.1667 80.7763 14.9087 80.7763 16.1776C80.7763 17.4567 81.3412 18.193 82.3454 18.193C83.3457 18.193 83.9158 17.4516 83.9158 16.1776H83.9158Z" fill="white"/>
<path d="M86.3213 17.4516C86.3213 16.3979 87.1059 15.7904 88.4985 15.7041L90.0842 15.6127V15.1074C90.0842 14.4891 89.6754 14.14 88.8857 14.14C88.2408 14.14 87.794 14.3768 87.6657 14.7906H86.5473C86.6653 13.7852 87.6111 13.1403 88.9391 13.1403C90.4066 13.1403 91.2344 13.8709 91.2344 15.1074V19.1071H90.1223V18.2844H90.0309C89.8453 18.5795 89.5848 18.8201 89.2759 18.9815C88.967 19.143 88.6208 19.2196 88.2726 19.2035C88.0268 19.2291 87.7784 19.2028 87.5435 19.1265C87.3085 19.0502 87.0921 18.9255 86.9082 18.7605C86.7244 18.5954 86.5772 18.3936 86.4761 18.1682C86.375 17.9428 86.3223 17.6986 86.3213 17.4516ZM90.0842 16.9514V16.462L88.6547 16.5534C87.8485 16.6073 87.4829 16.8816 87.4829 17.3976C87.4829 17.9245 87.9399 18.2311 88.5684 18.2311C88.7525 18.2497 88.9385 18.2311 89.1153 18.1764C89.2922 18.1217 89.4562 18.0319 89.5976 17.9126C89.739 17.7932 89.855 17.6465 89.9386 17.4814C90.0221 17.3163 90.0717 17.136 90.0842 16.9514Z" fill="white"/>
<path d="M92.7524 16.1776C92.7524 14.3279 93.7033 13.1561 95.1823 13.1561C95.5482 13.1393 95.9112 13.2269 96.2291 13.4088C96.547 13.5906 96.8066 13.8592 96.9774 14.1831H97.0638V10.9681H98.219V19.107H97.112V18.1822H97.0206C96.8365 18.5039 96.5679 18.7692 96.2439 18.9492C95.9199 19.1292 95.5528 19.2172 95.1823 19.2035C93.6932 19.2036 92.7524 18.0318 92.7524 16.1776ZM93.9458 16.1776C93.9458 17.4192 94.5311 18.1663 95.5099 18.1663C96.4836 18.1663 97.0854 17.4084 97.0854 16.1827C97.0854 14.9627 96.4773 14.194 95.5099 14.194C94.5374 14.194 93.9458 14.9462 93.9458 16.1776H93.9458Z" fill="white"/>
<path d="M102.999 16.1776C102.962 15.7929 103.006 15.4048 103.128 15.0381C103.25 14.6714 103.447 14.3343 103.707 14.0483C103.967 13.7623 104.284 13.5338 104.637 13.3774C104.991 13.2211 105.373 13.1403 105.759 13.1403C106.146 13.1403 106.528 13.2211 106.882 13.3774C107.235 13.5338 107.552 13.7623 107.812 14.0483C108.072 14.3343 108.269 14.6714 108.391 15.0381C108.513 15.4048 108.557 15.7929 108.52 16.1776C108.558 16.5627 108.514 16.9514 108.392 17.3187C108.271 17.6859 108.074 18.0237 107.814 18.3102C107.554 18.5968 107.237 18.8258 106.883 18.9825C106.529 19.1391 106.146 19.2201 105.759 19.2201C105.373 19.2201 104.99 19.1391 104.636 18.9825C104.282 18.8258 103.965 18.5968 103.705 18.3102C103.445 18.0237 103.248 17.6859 103.127 17.3187C103.005 16.9514 102.961 16.5627 102.999 16.1776ZM107.332 16.1776C107.332 14.9087 106.762 14.1667 105.761 14.1667C104.757 14.1667 104.192 14.9087 104.192 16.1776C104.192 17.4567 104.757 18.193 105.761 18.193C106.762 18.193 107.332 17.4516 107.332 16.1776Z" fill="white"/>
<path d="M110.07 13.2532H111.182V14.1831H111.269C111.415 13.8492 111.662 13.5692 111.975 13.3822C112.288 13.1953 112.652 13.1107 113.016 13.1402C113.3 13.1188 113.586 13.1618 113.852 13.2659C114.118 13.37 114.358 13.5326 114.552 13.7417C114.747 13.9508 114.892 14.201 114.977 14.4738C115.061 14.7466 115.084 15.0349 115.042 15.3175V19.107H113.887V15.6076C113.887 14.6669 113.478 14.199 112.623 14.199C112.43 14.19 112.237 14.2229 112.057 14.2955C111.878 14.3681 111.716 14.4786 111.584 14.6195C111.451 14.7604 111.35 14.9284 111.288 15.1118C111.226 15.2953 111.205 15.49 111.226 15.6825V19.107H110.07V13.2532Z" fill="white"/>
<path d="M121.57 11.7958V13.2799H122.838V14.253H121.57V17.2631C121.57 17.8763 121.822 18.1448 122.397 18.1448C122.545 18.1443 122.692 18.1354 122.838 18.1181V19.0804C122.631 19.1175 122.42 19.1373 122.21 19.1394C120.925 19.1394 120.413 18.6875 120.413 17.5589V14.253H119.484V13.2799H120.413V11.7958H121.57Z" fill="white"/>
<path d="M124.416 10.9681H125.561V14.194H125.653C125.806 13.8568 126.06 13.5753 126.379 13.3876C126.699 13.2 127.068 13.1154 127.437 13.1453C127.721 13.1299 128.004 13.1772 128.267 13.2839C128.53 13.3905 128.766 13.5539 128.959 13.7623C129.151 13.9708 129.295 14.2191 129.381 14.4897C129.466 14.7603 129.491 15.0464 129.453 15.3277V19.1071H128.297V15.6127C128.297 14.6776 127.862 14.2041 127.045 14.2041C126.847 14.1878 126.647 14.2151 126.46 14.2841C126.273 14.3531 126.104 14.462 125.963 14.6034C125.823 14.7447 125.715 14.9151 125.647 15.1025C125.58 15.2898 125.554 15.4897 125.571 15.6882V19.107H124.416L124.416 10.9681Z" fill="white"/>
<path d="M136.189 17.5265C136.032 18.0615 135.692 18.5242 135.229 18.8338C134.765 19.1434 134.207 19.2801 133.653 19.22C133.267 19.2302 132.884 19.1563 132.53 19.0035C132.175 18.8507 131.859 18.6227 131.601 18.3352C131.344 18.0477 131.153 17.7077 131.04 17.3388C130.927 16.9698 130.896 16.5807 130.949 16.1985C130.897 15.8152 130.929 15.4253 131.041 15.0552C131.154 14.6851 131.345 14.3435 131.6 14.0535C131.856 13.7635 132.172 13.5319 132.525 13.3743C132.878 13.2168 133.261 13.1369 133.648 13.1402C135.277 13.1402 136.259 14.253 136.259 16.0912V16.4944H132.126V16.5591C132.108 16.7739 132.135 16.9901 132.205 17.1939C132.275 17.3977 132.387 17.5845 132.534 17.7424C132.681 17.9003 132.859 18.0258 133.057 18.1108C133.255 18.1958 133.469 18.2385 133.685 18.2361C133.961 18.2693 134.241 18.2195 134.489 18.0931C134.737 17.9668 134.942 17.7695 135.077 17.5264L136.189 17.5265ZM132.126 15.6399H135.082C135.097 15.4435 135.07 15.2461 135.004 15.0606C134.938 14.8751 134.833 14.7054 134.698 14.5626C134.562 14.4198 134.398 14.307 134.216 14.2313C134.034 14.1557 133.838 14.119 133.641 14.1235C133.442 14.121 133.243 14.1585 133.058 14.2338C132.873 14.3092 132.705 14.4208 132.564 14.5621C132.423 14.7034 132.311 14.8716 132.236 15.0567C132.16 15.2418 132.123 15.4401 132.126 15.6399H132.126Z" fill="white"/>
</svg>
