<svg width="327" height="67" viewBox="0 0 327 67" fill="none" xmlns="http://www.w3.org/2000/svg">
<path d="M26.3851 60.7969C41.4607 66.284 58.1301 58.5109 63.6172 43.4353C67.0949 33.8804 65.246 23.6853 59.5874 16.1027L57.1845 22.7044C60.0945 28.3318 60.7328 35.1121 58.3952 41.5346C53.9578 53.7262 40.4773 60.0123 28.2857 55.5749C27.565 55.3126 26.865 55.0187 26.1866 54.6953L32.8806 36.3036H37.7192L33.5322 47.8073L43.2004 47.8317L56.1475 12.2598C53.375 9.66935 50.0461 7.58276 46.2556 6.20311C31.1799 0.716021 14.5105 8.48909 9.02343 23.5647C5.54574 33.1196 7.39461 43.3147 13.0533 50.8973L15.4561 44.2956C12.5462 38.6682 11.9078 31.8879 14.2454 25.4654C18.6828 13.2738 32.1633 6.98774 44.3549 11.4251C45.0756 11.6874 45.7756 11.9813 46.454 12.3047L39.7418 30.7464H34.9033L39.1085 19.1927L29.4402 19.1683L16.4931 54.7402C19.2656 57.3307 22.5945 59.4172 26.3851 60.7969Z" fill="white"/>
<g clip-path="url(#clip0_146_5511)">
<path d="M80.4131 46.1636V20.8418H85.6202V31.4644H95.7285V20.8418H100.936V46.1636H95.7285V35.7351H85.6202V46.1636H80.4131Z" fill="white"/>
<path fill-rule="evenodd" clip-rule="evenodd" d="M109.002 35.4503L114.209 34.7029V34.1691C114.209 32.6386 113.188 31.8912 111.112 31.8912C109.308 31.8912 107.572 32.1405 105.122 32.781V29.0438C107.776 28.439 110.159 28.1542 112.099 28.1542C116.251 28.1542 119.144 30.0756 119.144 34.0622V46.1532C116.659 46.204 114.433 46.1955 112.295 46.1874H112.291C111.515 46.1845 110.751 46.1816 109.99 46.1816C105.328 46.1816 103.492 43.3732 103.492 40.6681C103.492 37.8209 105.364 35.9724 109.002 35.4503ZM114.209 37.8181L110.908 38.2623C109.131 38.5014 108.491 39.4013 108.491 40.6113C108.491 41.7504 109.376 42.8536 111.384 42.8536L111.74 42.8536C112.509 42.8539 113.027 42.8541 114.209 42.8399V37.8181Z" fill="white"/>
<path d="M143.308 35.237C143.308 32.9591 142.457 31.8912 140.688 31.8912C139.667 31.8912 138.612 32.2117 137.522 32.5676C137.624 33.1371 137.693 33.8133 137.693 34.5251V46.1636H132.758V35.0591C132.758 32.9234 131.941 31.8912 130.273 31.8912C129.567 31.8912 128.862 31.9763 128.134 32.064C127.808 32.1032 127.478 32.143 127.142 32.176V46.1634H122.207V29.0438C125.236 28.5812 128.129 28.1542 131.26 28.1542C133.336 28.1542 134.902 28.6168 135.957 29.5778C138.271 28.7947 140.347 28.1542 142.627 28.1542C146.439 28.1542 148.243 30.2183 148.243 34.5249V46.1634H143.308V35.237Z" fill="white"/>
<path d="M151.306 46.1634V20.8418H156.241V35.7351L161.891 28.3676H167.54L160.904 36.5539L167.54 46.1634H161.891L156.241 37.5149V46.1634H151.306Z" fill="white"/>
<path fill-rule="evenodd" clip-rule="evenodd" d="M175.164 46.3772C170.127 46.3772 166.724 43.7433 166.724 38.2266V36.3046C166.724 30.788 170.127 28.1544 175.164 28.1544C180.201 28.1544 183.605 30.6814 183.605 36.3046V38.2266C183.605 43.7433 180.201 46.3772 175.164 46.3772ZM178.67 36.0554C178.67 33.2438 177.512 31.8912 175.164 31.8912C172.782 31.8912 171.659 33.2436 171.659 36.0554V38.4401C171.659 41.2876 172.782 42.6398 175.164 42.6398C177.512 42.6398 178.67 41.2876 178.67 38.4401V36.0554Z" fill="white"/>
<path d="M196.64 28.8659V32.7812C195.789 32.3895 194.802 32.176 193.678 32.176C192.862 32.176 192.011 32.2829 191.058 32.4964V46.1634H186.123V29.0438C188.641 28.5812 191.16 28.1897 193.236 28.1897C194.631 28.1897 195.789 28.3676 196.64 28.8659Z" fill="white"/>
<path fill-rule="evenodd" clip-rule="evenodd" d="M80.4131 78.7736H90.8892C96.4497 78.7736 99.7046 76.5819 99.7046 72.022C99.7046 68.7344 98.0771 66.6841 95.2627 65.7651C97.0258 64.7399 98.3484 63.0077 98.3484 60.4625C98.3484 56.0792 95.3986 54.0289 90.3129 54.0289H80.4131V78.7736ZM85.6002 74.6732V67.6385H90.6519C93.127 67.6385 94.5168 68.8049 94.5168 71.1379C94.5168 73.4712 93.0931 74.6732 90.6182 74.6732H85.6002ZM85.6002 64.0685V58.0943H89.906C92.0419 58.0943 93.1608 59.084 93.1608 61.0988C93.1608 63.1139 91.9742 64.0685 89.906 64.0685H85.6002Z" fill="white"/>
<path d="M107.647 78.4661H102.5V60.0924H107.647V78.4661ZM108.13 54.7829C108.13 55.7377 107.819 56.4946 107.198 57.0534C106.599 57.5891 105.885 57.8569 105.056 57.8569C104.227 57.8569 103.502 57.5891 102.88 57.0534C102.282 56.4946 101.982 55.7377 101.982 54.7829C101.982 53.8282 102.282 53.083 102.88 52.5474C103.502 51.9885 104.227 51.709 105.056 51.709C105.885 51.709 106.599 51.9885 107.198 52.5474C107.819 53.083 108.13 53.8282 108.13 54.7829Z" fill="white"/>
<path d="M125.091 63.5855C124.676 64.0513 124.112 64.68 123.398 65.4718C122.708 66.2635 121.959 67.1368 121.153 68.0916C120.347 69.0464 119.53 70.0477 118.701 71.0956C117.895 72.1436 117.158 73.1566 116.491 74.1346H125.264V78.4661H110.239V75.3921C110.723 74.5538 111.298 73.6572 111.966 72.7025C112.657 71.7244 113.371 70.7463 114.108 69.7683C114.867 68.7902 115.616 67.8471 116.353 66.9389C117.089 66.0074 117.769 65.169 118.39 64.4239H110.654V60.0924H125.091V63.5855Z" fill="white"/>
<path d="M127.681 60.7212C128.556 60.465 129.684 60.2322 131.066 60.0226C132.448 59.7897 133.898 59.6733 135.418 59.6733C136.961 59.6733 138.238 59.8828 139.252 60.302C140.288 60.6979 141.105 61.2684 141.704 62.0136C142.303 62.7588 142.728 63.6437 142.982 64.6684C143.235 65.693 143.362 66.8341 143.362 68.0916V78.4661H138.215V68.7203C138.215 67.0437 137.997 65.856 137.559 65.1574C137.122 64.4588 136.304 64.1095 135.107 64.1095C134.739 64.1095 134.347 64.1328 133.933 64.1793C133.518 64.2026 133.15 64.2376 132.827 64.2841V78.4661H127.681V60.7212Z" fill="white"/>
<path d="M146.12 69.419C146.12 67.7889 146.362 66.3683 146.846 65.1574C147.352 63.9232 148.008 62.8985 148.814 62.0835C149.62 61.2684 150.541 60.6513 151.577 60.2321C152.637 59.813 153.719 59.6034 154.824 59.6034C157.403 59.6034 159.441 60.4068 160.937 62.0136C162.434 63.5972 163.182 65.9375 163.182 69.0347C163.182 69.3375 163.171 69.6751 163.148 70.0477C163.125 70.397 163.102 70.7114 163.079 70.9909H151.405C151.52 72.0621 152.015 72.912 152.89 73.5408C153.765 74.1696 154.939 74.4839 156.413 74.4839C157.357 74.4839 158.278 74.4024 159.176 74.2394C160.097 74.0531 160.845 73.8319 161.421 73.5757L162.112 77.8024C161.835 77.9421 161.467 78.0818 161.006 78.2215C160.546 78.3613 160.028 78.4777 159.452 78.5709C158.9 78.6873 158.301 78.7804 157.656 78.8503C157.011 78.9202 156.367 78.9551 155.722 78.9551C154.087 78.9551 152.66 78.7106 151.439 78.2215C150.242 77.7325 149.24 77.0688 148.434 76.2305C147.651 75.3689 147.064 74.3559 146.673 73.1915C146.304 72.0271 146.12 70.7696 146.12 69.419ZM158.209 67.4279C158.186 66.9855 158.105 66.5546 157.967 66.1355C157.852 65.7163 157.656 65.3437 157.38 65.0177C157.127 64.6917 156.793 64.4239 156.378 64.2143C155.987 64.0047 155.492 63.8999 154.893 63.8999C154.317 63.8999 153.822 64.0047 153.408 64.2143C152.993 64.4006 152.648 64.6567 152.372 64.9827C152.095 65.3088 151.877 65.693 151.715 66.1355C151.577 66.5546 151.474 66.9855 151.405 67.4279H158.209Z" fill="white"/>
<path d="M171.333 74.7285C172.277 74.7285 172.945 74.6353 173.336 74.449C173.728 74.2627 173.923 73.9018 173.923 73.3661C173.923 72.947 173.67 72.586 173.163 72.2833C172.657 71.9573 171.885 71.5963 170.849 71.2004C170.043 70.8977 169.307 70.5833 168.639 70.2573C167.994 69.9313 167.442 69.547 166.981 69.1046C166.52 68.6388 166.164 68.0916 165.91 67.4628C165.657 66.8341 165.53 66.0772 165.53 65.1923C165.53 63.4691 166.164 62.1068 167.43 61.1054C168.696 60.1041 170.435 59.6034 172.645 59.6034C173.751 59.6034 174.81 59.7082 175.823 59.9178C176.836 60.1041 177.642 60.3137 178.241 60.5465L177.343 64.5985C176.744 64.3889 176.088 64.2026 175.374 64.0396C174.683 63.8766 173.9 63.7951 173.025 63.7951C171.413 63.7951 170.608 64.2492 170.608 65.1574C170.608 65.367 170.642 65.5533 170.711 65.7163C170.78 65.8793 170.918 66.0423 171.126 66.2053C171.333 66.345 171.609 66.5081 171.955 66.6944C172.323 66.8574 172.784 67.0437 173.336 67.2533C174.464 67.6724 175.397 68.0916 176.134 68.5108C176.871 68.9066 177.446 69.3491 177.861 69.8381C178.298 70.3039 178.597 70.8278 178.759 71.41C178.943 71.9922 179.035 72.6675 179.035 73.436C179.035 75.2524 178.356 76.6264 176.997 77.5579C175.662 78.4893 173.762 78.9551 171.298 78.9551C169.687 78.9551 168.34 78.8154 167.257 78.5359C166.198 78.2565 165.461 78.0236 165.047 77.8373L165.91 73.6107C166.785 73.96 167.683 74.2394 168.604 74.449C169.525 74.6353 170.435 74.7285 171.333 74.7285Z" fill="white"/>
</g>
<g clip-path="url(#clip1_146_5511)">
<path d="M203.588 13.7907V-11.5311H208.795V-0.908455H218.903V-11.5311H224.11V13.7907H218.903V3.3622H208.795V13.7907H203.588Z" fill="white"/>
<path fill-rule="evenodd" clip-rule="evenodd" d="M232.177 3.07744L237.384 2.33004V1.79621C237.384 0.265715 236.363 -0.481687 234.287 -0.481687C232.483 -0.481687 230.747 -0.23243 228.296 0.408094V-3.32911C230.951 -3.93394 233.334 -4.2187 235.273 -4.2187C239.426 -4.2187 242.319 -2.29732 242.319 1.68933V13.7802C239.834 13.8311 237.608 13.8226 235.47 13.8145H235.465C234.69 13.8116 233.926 13.8087 233.165 13.8087C228.502 13.8087 226.667 11.0003 226.667 8.29524C226.667 5.44801 228.539 3.5995 232.177 3.07744ZM237.384 5.44522L234.082 5.88936C232.306 6.12852 231.666 7.0284 231.666 8.23845C231.666 9.37749 232.551 10.4807 234.559 10.4807L234.915 10.4807C235.683 10.481 236.202 10.4812 237.384 10.467V5.44522Z" fill="white"/>
<path d="M266.483 2.86406C266.483 0.586162 265.632 -0.481687 263.862 -0.481687C262.841 -0.481687 261.786 -0.161238 260.697 0.194714C260.799 0.764235 260.868 1.44044 260.868 2.15216V13.7907H255.932V2.68618C255.932 0.550479 255.116 -0.481687 253.448 -0.481687C252.742 -0.481687 252.037 -0.39665 251.309 -0.308896C250.983 -0.269673 250.653 -0.229882 250.317 -0.196927V13.7905H245.382V-3.32911C248.411 -3.79175 251.304 -4.2187 254.435 -4.2187C256.511 -4.2187 258.076 -3.75606 259.132 -2.79509C261.446 -3.57818 263.522 -4.2187 265.802 -4.2187C269.614 -4.2187 271.418 -2.15457 271.418 2.15197V13.7905H266.483V2.86406Z" fill="white"/>
<path d="M274.481 13.7905V-11.5311H279.416V3.3622L285.066 -4.00532H290.715L284.078 4.18098L290.715 13.7905H285.066L279.416 5.14196V13.7905H274.481Z" fill="white"/>
<path fill-rule="evenodd" clip-rule="evenodd" d="M298.339 14.0043C293.302 14.0043 289.898 11.3704 289.898 5.85367V3.93173C289.898 -1.58485 293.302 -4.21852 298.339 -4.21852C303.376 -4.21852 306.779 -1.69155 306.779 3.93173V5.85367C306.779 11.3704 303.376 14.0043 298.339 14.0043ZM301.845 3.68247C301.845 0.870926 300.687 -0.481687 298.339 -0.481687C295.956 -0.481687 294.833 0.870737 294.833 3.68247V6.06724C294.833 8.91466 295.957 10.2669 298.339 10.2669C300.687 10.2669 301.845 8.91466 301.845 6.06724V3.68247Z" fill="white"/>
<path d="M319.814 -3.50699V0.408278C318.964 0.0166397 317.976 -0.196927 316.853 -0.196927C316.036 -0.196927 315.186 -0.0900469 314.233 0.123522V13.7905H309.298V-3.32911C311.816 -3.79175 314.335 -4.1832 316.411 -4.1832C317.806 -4.1832 318.964 -4.00532 319.814 -3.50699Z" fill="white"/>
<path fill-rule="evenodd" clip-rule="evenodd" d="M203.588 46.4007H214.064C219.624 46.4007 222.879 44.209 222.879 39.6491C222.879 36.3615 221.252 34.3112 218.438 33.3922C220.201 32.367 221.523 30.6348 221.523 28.0896C221.523 23.7063 218.573 21.656 213.488 21.656H203.588V46.4007ZM208.775 42.3003V35.2656H213.827C216.302 35.2656 217.692 36.432 217.692 38.7649C217.692 41.0983 216.268 42.3003 213.793 42.3003H208.775ZM208.775 31.6956V25.7214H213.081C215.217 25.7214 216.336 26.7111 216.336 28.7259C216.336 30.741 215.149 31.6956 213.081 31.6956H208.775Z" fill="white"/>
<path d="M230.821 46.0932H225.675V27.7195H230.821V46.0932ZM231.305 22.41C231.305 23.3648 230.994 24.1217 230.372 24.6805C229.774 25.2162 229.06 25.484 228.231 25.484C227.402 25.484 226.677 25.2162 226.055 24.6805C225.456 24.1217 225.157 23.3648 225.157 22.41C225.157 21.4553 225.456 20.7101 226.055 20.1745C226.677 19.6156 227.402 19.3361 228.231 19.3361C229.06 19.3361 229.774 19.6156 230.372 20.1745C230.994 20.7101 231.305 21.4553 231.305 22.41Z" fill="white"/>
<path d="M248.266 31.2126C247.851 31.6784 247.287 32.3071 246.573 33.0989C245.882 33.8906 245.134 34.7639 244.328 35.7187C243.522 36.6735 242.705 37.6748 241.876 38.7227C241.07 39.7707 240.333 40.7837 239.666 41.7617H248.438V46.0932H233.414V43.0192C233.898 42.1809 234.473 41.2843 235.141 40.3296C235.832 39.3515 236.546 38.3734 237.282 37.3954C238.042 36.4173 238.791 35.4742 239.527 34.566C240.264 33.6345 240.943 32.7961 241.565 32.0509H233.828V27.7195H248.266V31.2126Z" fill="white"/>
<path d="M250.856 28.3483C251.731 28.0921 252.859 27.8592 254.241 27.6497C255.622 27.4168 257.073 27.3004 258.593 27.3004C260.135 27.3004 261.413 27.5099 262.426 27.9291C263.463 28.325 264.28 28.8955 264.879 29.6407C265.477 30.3859 265.903 31.2708 266.157 32.2955C266.41 33.3201 266.537 34.4612 266.537 35.7187V46.0932H261.39V36.3474C261.39 34.6708 261.172 33.4831 260.734 32.7845C260.297 32.0859 259.479 31.7366 258.282 31.7366C257.913 31.7366 257.522 31.7599 257.107 31.8064C256.693 31.8297 256.325 31.8647 256.002 31.9112V46.0932H250.856V28.3483Z" fill="white"/>
<path d="M269.295 37.0461C269.295 35.416 269.537 33.9954 270.02 32.7845C270.527 31.5503 271.183 30.5256 271.989 29.7106C272.795 28.8955 273.716 28.2784 274.752 27.8592C275.811 27.4401 276.894 27.2305 277.999 27.2305C280.578 27.2305 282.615 28.0339 284.112 29.6407C285.609 31.2243 286.357 33.5646 286.357 36.6618C286.357 36.9646 286.346 37.3022 286.323 37.6748C286.3 38.0241 286.277 38.3385 286.253 38.618H274.579C274.695 39.6892 275.19 40.5391 276.065 41.1679C276.94 41.7967 278.114 42.111 279.588 42.111C280.532 42.111 281.453 42.0295 282.351 41.8665C283.272 41.6802 284.02 41.459 284.596 41.2028L285.286 45.4295C285.01 45.5692 284.642 45.7089 284.181 45.8486C283.721 45.9884 283.203 46.1048 282.627 46.198C282.074 46.3144 281.476 46.4075 280.831 46.4774C280.186 46.5472 279.541 46.5822 278.897 46.5822C277.262 46.5822 275.834 46.3377 274.614 45.8486C273.417 45.3596 272.415 44.6959 271.609 43.8576C270.826 42.996 270.239 41.983 269.848 40.8186C269.479 39.6542 269.295 38.3967 269.295 37.0461ZM281.384 35.055C281.361 34.6125 281.28 34.1817 281.142 33.7626C281.027 33.3434 280.831 32.9708 280.555 32.6448C280.301 32.3188 279.967 32.051 279.553 31.8414C279.162 31.6318 278.667 31.527 278.068 31.527C277.492 31.527 276.997 31.6318 276.583 31.8414C276.168 32.0277 275.823 32.2838 275.547 32.6098C275.27 32.9359 275.051 33.3201 274.89 33.7626C274.752 34.1817 274.648 34.6125 274.579 35.055H281.384Z" fill="white"/>
<path d="M294.508 42.3556C295.452 42.3556 296.119 42.2624 296.511 42.0761C296.902 41.8898 297.098 41.5289 297.098 40.9932C297.098 40.5741 296.845 40.2131 296.338 39.9104C295.832 39.5844 295.06 39.2234 294.024 38.8275C293.218 38.5248 292.481 38.2104 291.814 37.8844C291.169 37.5584 290.616 37.1741 290.156 36.7317C289.695 36.2659 289.338 35.7187 289.085 35.0899C288.832 34.4612 288.705 33.7043 288.705 32.8194C288.705 31.0962 289.338 29.7339 290.605 28.7325C291.871 27.7312 293.61 27.2305 295.82 27.2305C296.925 27.2305 297.985 27.3353 298.998 27.5449C300.011 27.7312 300.817 27.9408 301.415 28.1736L300.517 32.2256C299.919 32.016 299.263 31.8297 298.549 31.6667C297.858 31.5037 297.075 31.4222 296.2 31.4222C294.588 31.4222 293.782 31.8763 293.782 32.7845C293.782 32.9941 293.817 33.1804 293.886 33.3434C293.955 33.5064 294.093 33.6694 294.3 33.8324C294.508 33.9721 294.784 34.1352 295.129 34.3215C295.498 34.4845 295.958 34.6708 296.511 34.8804C297.639 35.2995 298.572 35.7187 299.309 36.1379C300.045 36.5337 300.621 36.9762 301.035 37.4652C301.473 37.931 301.772 38.4549 301.933 39.0371C302.118 39.6193 302.21 40.2946 302.21 41.0631C302.21 42.8795 301.531 44.2535 300.172 45.185C298.837 46.1164 296.937 46.5822 294.473 46.5822C292.861 46.5822 291.514 46.4425 290.432 46.163C289.373 45.8836 288.636 45.6507 288.222 45.4644L289.085 41.2378C289.96 41.5871 290.858 41.8665 291.779 42.0761C292.7 42.2624 293.61 42.3556 294.508 42.3556Z" fill="white"/>
</g>
<defs>
<clipPath id="clip0_146_5511">
<rect width="115.595" height="32.215" fill="white" transform="translate(80.2217 17.3925)"/>
</clipPath>
<clipPath id="clip1_146_5511">
<rect width="123.175" height="32.215" fill="white" transform="translate(203.396 17.3925)"/>
</clipPath>
</defs>
</svg>
