<svg width="130" height="130" viewBox="0 0 130 130" fill="none" xmlns="http://www.w3.org/2000/svg">
<ellipse opacity="0.1" cx="65" cy="118.3" rx="65" ry="3.9" fill="#008C79"/>
<path fill-rule="evenodd" clip-rule="evenodd" d="M50.3191 18.2C51.168 15.199 53.9272 13 57.2 13H83.5703C81.372 14.3246 79.4765 16.1008 78.0122 18.2H50.3191ZM76.5014 20.8H38.35C34.0422 20.8 30.55 24.2922 30.55 28.6V76.7H70.85H71.5C72.218 76.7 72.8 77.2821 72.8 78V84.825C72.8 90.3893 77.3107 94.9 82.875 94.9C88.4393 94.9 92.95 90.3893 92.95 84.825V46.8C82.8984 46.8 74.75 38.6516 74.75 28.6C74.75 25.8087 75.3784 23.1641 76.5014 20.8ZM95.55 46.6157V83.0922C99.239 82.4733 102.05 79.2649 102.05 75.4V44.3652C100.086 45.5014 97.8897 46.281 95.55 46.6157ZM104.65 42.5415V75.4C104.65 80.7143 100.664 85.0976 95.5187 85.7234C95.0578 92.3044 89.5732 97.5 82.875 97.5C82.7616 97.5 82.6485 97.4985 82.5358 97.4956L82.55 97.5H35.75C28.5703 97.5 22.75 91.6797 22.75 84.5V81.9C22.75 79.0281 25.0781 76.7 27.95 76.7V28.6C27.95 22.8563 32.6062 18.2 38.35 18.2H47.645C48.5484 13.7497 52.483 10.4 57.2 10.4H91.65V10.4457C92.0794 10.4154 92.5129 10.4 92.95 10.4C103.002 10.4 111.15 18.5484 111.15 28.6C111.15 34.1965 108.624 39.2029 104.65 42.5415ZM15.6 89.375C15.6 88.8365 16.0365 88.4 16.575 88.4C17.1135 88.4 17.55 88.8365 17.55 89.375V89.7C17.55 96.8797 23.3703 102.7 30.55 102.7H33.54C34.0426 102.7 34.45 103.107 34.45 103.61C34.45 104.113 34.0426 104.52 33.54 104.52H30.55C21.9205 104.52 15.6 98.3019 15.6 89.7V89.375ZM16.575 85.8C14.6006 85.8 13 87.4006 13 89.375V89.7C13 99.7654 20.5123 107.12 30.55 107.12H33.54C35.4785 107.12 37.05 105.549 37.05 103.61C37.05 101.672 35.4785 100.1 33.54 100.1H30.55C24.8062 100.1 20.15 95.4438 20.15 89.7V89.375C20.15 87.4006 18.5494 85.8 16.575 85.8ZM37.05 55.25C37.05 53.4551 38.5051 52 40.3 52H59.8C61.5949 52 63.05 53.4551 63.05 55.25C63.05 57.0449 61.5949 58.5 59.8 58.5H40.3C38.5051 58.5 37.05 57.0449 37.05 55.25ZM40.3 54.6C39.941 54.6 39.65 54.891 39.65 55.25C39.65 55.609 39.941 55.9 40.3 55.9H59.8C60.159 55.9 60.45 55.609 60.45 55.25C60.45 54.891 60.159 54.6 59.8 54.6H40.3ZM48.0403 47.0044C48.1394 47.1034 48.2955 47.153 48.5088 47.153C48.6916 47.153 48.8249 47.1034 48.9087 47.0044C49.0001 46.9054 49.0458 46.7492 49.0458 46.536V45.6105C49.7542 45.5343 50.3979 45.3324 50.9768 45.0049C51.5557 44.6698 52.0203 44.1823 52.3707 43.5424C52.7287 42.8949 52.9077 42.0951 52.9077 41.143C52.9077 40.3203 52.7211 39.6424 52.3479 39.1092C51.9746 38.5684 51.5404 38.1532 51.0453 37.8638C50.5502 37.5743 49.8837 37.2468 49.0458 36.8812V33.7962C49.4267 33.8114 49.7466 33.8533 50.0056 33.9219C50.2722 33.9905 50.5426 34.0781 50.8168 34.1847C51.0072 34.2609 51.1329 34.299 51.1939 34.299C51.3462 34.299 51.5062 34.1923 51.6737 33.979C51.8489 33.7657 51.9975 33.5182 52.1193 33.2364C52.2412 32.9469 52.3022 32.7108 52.3022 32.528C52.3022 32.3223 52.1612 32.1166 51.8794 31.911C51.6052 31.7053 51.2167 31.5301 50.714 31.3854C50.2188 31.2406 49.6628 31.1569 49.0458 31.134V30.5056C49.0458 30.2847 49.0001 30.1285 48.9087 30.0371C48.8173 29.9457 48.6611 29.9 48.4402 29.9C48.2574 29.9 48.1203 29.9495 48.0289 30.0486C47.9375 30.14 47.8918 30.2923 47.8918 30.5056V31.1454C47.1529 31.2292 46.475 31.4311 45.858 31.751C45.2486 32.0709 44.7573 32.528 44.3841 33.1221C44.0185 33.7086 43.8356 34.4284 43.8356 35.2816C43.8356 36.1804 44.0299 36.9116 44.4184 37.4753C44.8145 38.0314 45.2753 38.4541 45.8009 38.7436C46.3341 39.0254 47.0311 39.3263 47.8918 39.6462V42.994C47.4195 42.994 46.9854 42.9292 46.5893 42.7997C46.2008 42.6702 45.8009 42.5027 45.3896 42.297C45.1001 42.1447 44.9097 42.0685 44.8183 42.0685C44.6812 42.0685 44.5098 42.1751 44.3041 42.3884C44.0984 42.5941 43.9194 42.8416 43.7671 43.1311C43.6224 43.4205 43.55 43.6643 43.55 43.8623C43.55 44.0985 43.7214 44.3498 44.0642 44.6164C44.4146 44.883 44.9173 45.1154 45.5724 45.3134C46.2351 45.5038 47.0082 45.6143 47.8918 45.6447V46.536C47.8918 46.7492 47.9413 46.9054 48.0403 47.0044ZM47.0691 34.3675C47.2215 34.1618 47.4957 34.0095 47.8918 33.9105V36.3556C47.549 36.1575 47.2862 35.9519 47.1034 35.7386C46.9282 35.5253 46.8406 35.2739 46.8406 34.9845C46.8406 34.7712 46.9168 34.5656 47.0691 34.3675ZM49.6856 42.297C49.5257 42.5027 49.3124 42.6588 49.0458 42.7655V40.1947C49.6323 40.5298 49.9256 40.9716 49.9256 41.52C49.9256 41.8323 49.8456 42.0913 49.6856 42.297ZM37.05 65.65C37.05 63.8551 38.5051 62.4 40.3 62.4H79.3C81.0949 62.4 82.55 63.8551 82.55 65.65C82.55 67.4449 81.0949 68.9 79.3 68.9H40.3C38.5051 68.9 37.05 67.4449 37.05 65.65ZM40.3 65C39.941 65 39.65 65.291 39.65 65.65C39.65 66.009 39.941 66.3 40.3 66.3H79.3C79.659 66.3 79.95 66.009 79.95 65.65C79.95 65.291 79.659 65 79.3 65H40.3ZM77.35 28.6C77.35 19.9844 84.3344 13 92.95 13C101.566 13 108.55 19.9844 108.55 28.6C108.55 37.2157 101.566 44.2 92.95 44.2C84.3344 44.2 77.35 37.2157 77.35 28.6Z" fill="#008C79"/>
<path d="M92.6191 32.8331C93.3387 32.8332 93.9975 33.0753 94.5352 33.5626L94.5361 33.5616C95.13 34.0915 95.3954 34.802 95.3955 35.5655C95.3955 36.071 95.2688 36.5603 94.9941 36.9991L94.9951 37.0001C94.7451 37.4032 94.4016 37.7189 93.9854 37.9395L93.9863 37.9405C93.98 37.944 93.9732 37.9468 93.9668 37.9503C93.9621 37.9527 93.9578 37.9557 93.9531 37.9581L93.9521 37.9571C93.5366 38.181 93.0854 38.2881 92.6191 38.2881C91.8974 38.2881 91.2382 38.0409 90.7021 37.5508C90.1253 37.0234 89.8525 36.3262 89.8525 35.5655C89.8526 35.0702 89.9668 34.5821 90.2354 34.1436C90.4851 33.729 90.83 33.3958 91.2617 33.168V33.169C91.6843 32.9424 92.1437 32.8331 92.6191 32.8331Z" stroke="#008C79" stroke-width="2.22222"/>
<path d="M92.6504 18.3887C93.6773 18.3887 94.6353 18.5629 95.5059 18.9327L95.5068 18.9317C96.389 19.2991 97.1232 19.8509 97.666 20.5997H97.665C98.2357 21.3694 98.5029 22.2727 98.5029 23.2549C98.5029 23.8269 98.4015 24.3798 98.1943 24.9053L98.1953 24.9063C97.9811 25.4611 97.6284 25.9668 97.1875 26.4278C96.7487 26.8866 96.1801 27.3455 95.5059 27.8067L95.499 27.8116C95.0998 28.0804 94.8781 28.2928 94.7695 28.4376L94.7617 28.4483C94.7018 28.5261 94.6442 28.6467 94.6289 28.8614V28.8633C94.6248 28.9204 94.6221 28.9874 94.6221 29.0645C94.622 30.2263 93.7516 31.461 92.334 31.461H92.3057C91.2988 31.4608 90.3129 30.758 90.1562 29.6329C90.09 29.157 90.0658 28.7043 90.1006 28.2881L90.1016 28.2745C90.1687 27.5761 90.4024 26.9291 90.8369 26.3829C91.2159 25.9066 91.7234 25.4792 92.3164 25.0899C93.0293 24.6212 93.3651 24.3079 93.4785 24.1505C93.5844 24.0034 93.6289 23.8595 93.6289 23.6895C93.6288 23.3296 93.5246 23.2171 93.4248 23.1456L93.415 23.1387C93.2295 23.0029 92.8682 22.8643 92.1943 22.8643C91.7207 22.8643 91.3263 22.9315 90.998 23.0489C90.9924 23.0509 90.9871 23.0537 90.9814 23.0557C90.4023 23.266 89.7578 23.2584 89.1963 23.046C88.6243 22.8295 88.0761 22.3699 87.8535 21.6495C87.6242 20.907 87.7987 19.8948 88.6865 19.376C88.8407 19.2859 89.0035 19.2011 89.1738 19.1212C89.6535 18.8885 90.1859 18.7155 90.7598 18.5919V18.5909C91.3591 18.4543 91.9906 18.3887 92.6504 18.3887Z" stroke="#008C79" stroke-width="2.22222"/>
</svg>
