<svg width="51" height="50" viewBox="0 0 51 50" fill="none" xmlns="http://www.w3.org/2000/svg">
<path d="M0.333374 15C0.333374 6.71573 7.0491 0 15.3334 0H35.3334C43.6176 0 50.3334 6.71573 50.3334 15V35C50.3334 43.2843 43.6176 50 35.3334 50H15.3334C7.0491 50 0.333374 43.2843 0.333374 35V15Z" fill="#DBF6CB"/>
<path d="M34.4135 17.3333H36.2268C35.9735 16.9733 35.7068 16.64 35.4268 16.3066L34.4135 17.3333Z" fill="#05BC74"/>
<path d="M34.0267 14.8933C33.6933 14.6133 33.36 14.3466 33 14.0933V15.9066L34.0267 14.8933Z" fill="#05BC74"/>
<path d="M35.4401 16.3066L39.3734 12.3733C39.7601 11.9866 39.7601 11.3466 39.3734 10.9599C38.9867 10.5733 38.3467 10.5733 37.9601 10.9599L34.0267 14.8933C34.5334 15.3333 35.0001 15.8133 35.4401 16.3066Z" fill="#05BC74"/>
<path d="M33.0001 13C33.0001 12.4533 32.5468 12 32.0001 12C31.4668 12 31.0401 12.4267 31.0134 12.9467C31.7068 13.28 32.3734 13.6533 33.0001 14.0933V13Z" fill="#05BC74"/>
<path d="M38.3335 18.3335C38.3335 17.7868 37.8801 17.3335 37.3335 17.3335H36.2268C36.6668 17.9602 37.0535 18.6268 37.3735 19.3202C37.9068 19.2935 38.3335 18.8668 38.3335 18.3335Z" fill="#05BC74"/>
<path d="M26.3334 28.6666H26.7334C27.2534 28.6666 27.6667 28.1999 27.6667 27.6266C27.6667 26.9066 27.4667 26.7999 27.0134 26.6399L26.3334 26.3999V28.6666Z" fill="#05BC74"/>
<path d="M37.3867 19.3198C37.3733 19.3198 37.36 19.3332 37.3333 19.3332H32C31.8667 19.3332 31.7467 19.3065 31.6133 19.2532C31.3733 19.1465 31.1733 18.9598 31.0667 18.7065C31.0267 18.5865 31 18.4665 31 18.3332V12.9998C31 12.9865 31.0133 12.9732 31.0133 12.9465C29.28 12.1332 27.36 11.6665 25.3333 11.6665C17.9733 11.6665 12 17.6398 12 24.9998C12 32.3598 17.9733 38.3332 25.3333 38.3332C32.6933 38.3332 38.6667 32.3598 38.6667 24.9998C38.6667 22.9732 38.2 21.0532 37.3867 19.3198ZM27.6667 24.7598C28.52 25.0532 29.6667 25.6798 29.6667 27.6398C29.6667 29.3065 28.3467 30.6798 26.7333 30.6798H26.3333V31.0132C26.3333 31.5598 25.88 32.0132 25.3333 32.0132C24.7867 32.0132 24.3333 31.5598 24.3333 31.0132V30.6798H24.2267C22.4533 30.6798 21 29.1865 21 27.3465C21 26.7865 21.4533 26.3332 22 26.3332C22.5467 26.3332 23 26.7865 23 27.3332C23 28.0665 23.5467 28.6665 24.2267 28.6665H24.3333V25.7065L23 25.2398C22.1467 24.9465 21 24.3198 21 22.3598C21 20.6932 22.32 19.3198 23.9333 19.3198H24.3333V18.9998C24.3333 18.4532 24.7867 17.9998 25.3333 17.9998C25.88 17.9998 26.3333 18.4532 26.3333 18.9998V19.3332H26.44C28.2133 19.3332 29.6667 20.8265 29.6667 22.6665C29.6667 23.2132 29.2133 23.6665 28.6667 23.6665C28.12 23.6665 27.6667 23.2132 27.6667 22.6665C27.6667 21.9332 27.12 21.3332 26.44 21.3332H26.3333V24.2932L27.6667 24.7598Z" fill="#05BC74"/>
<path d="M23 22.3735C23 23.0935 23.2 23.2002 23.6533 23.3602L24.3333 23.6002V21.3335H23.9333C23.4267 21.3335 23 21.8002 23 22.3735Z" fill="#05BC74"/>
</svg>
