<svg width="25" height="25" viewBox="0 0 25 25" fill="none" xmlns="http://www.w3.org/2000/svg">
<g id="icons/24px/fi-rr-calendar-1">
<path id="Vector" d="M18.5 4.1675H17.667V3.3335C17.667 3.11244 17.5792 2.90044 17.4229 2.74413C17.2666 2.58781 17.0546 2.5 16.8335 2.5C16.6124 2.5 16.4004 2.58781 16.2441 2.74413C16.0878 2.90044 16 3.11244 16 3.3335V4.1665H9.33399V3.3335C9.33399 3.11244 9.24618 2.90044 9.08987 2.74413C8.93355 2.58781 8.72155 2.5 8.50049 2.5C8.27943 2.5 8.06743 2.58781 7.91112 2.74413C7.75481 2.90044 7.66699 3.11244 7.66699 3.3335V4.1665H6.83399C5.72924 4.16782 4.67012 4.60727 3.88894 5.38845C3.10776 6.16963 2.66832 7.22875 2.66699 8.3335V18.3335C2.66832 19.4383 3.10776 20.4974 3.88894 21.2786C4.67012 22.0597 5.72924 22.4992 6.83399 22.5005H18.5C19.6047 22.4992 20.6639 22.0597 21.445 21.2786C22.2262 20.4974 22.6657 19.4383 22.667 18.3335V8.3335C22.6654 7.22892 22.2258 6.17005 21.4447 5.38909C20.6635 4.60813 19.6046 4.16882 18.5 4.1675ZM4.33399 8.3335C4.33399 7.67046 4.59738 7.03457 5.06623 6.56573C5.53507 6.09689 6.17095 5.8335 6.83399 5.8335H18.5C19.163 5.8335 19.7989 6.09689 20.2678 6.56573C20.7366 7.03457 21 7.67046 21 8.3335V9.1665H4.33399V8.3335ZM18.501 20.8335H6.83399C6.17095 20.8335 5.53507 20.5701 5.06623 20.1013C4.59738 19.6324 4.33399 18.9965 4.33399 18.3335V10.8335H21V18.3335C21 18.9965 20.7366 19.6324 20.2678 20.1013C19.7989 20.5701 19.163 20.8335 18.5 20.8335H18.501Z" fill="black"/>
<path id="Vector_2" d="M12.667 16.4297C13.4954 16.4297 14.167 15.7581 14.167 14.9297C14.167 14.1013 13.4954 13.4297 12.667 13.4297C11.8386 13.4297 11.167 14.1013 11.167 14.9297C11.167 15.7581 11.8386 16.4297 12.667 16.4297Z" fill="black"/>
<path id="Vector_3" d="M8.61914 16.4297C9.44757 16.4297 10.1191 15.7581 10.1191 14.9297C10.1191 14.1013 9.44757 13.4297 8.61914 13.4297C7.79071 13.4297 7.11914 14.1013 7.11914 14.9297C7.11914 15.7581 7.79071 16.4297 8.61914 16.4297Z" fill="black"/>
<path id="Vector_4" d="M16.7148 16.4297C17.5433 16.4297 18.2148 15.7581 18.2148 14.9297C18.2148 14.1013 17.5433 13.4297 16.7148 13.4297C15.8864 13.4297 15.2148 14.1013 15.2148 14.9297C15.2148 15.7581 15.8864 16.4297 16.7148 16.4297Z" fill="black"/>
</g>
</svg>
