<svg width="16" height="16" viewBox="0 0 16 16" fill="none" xmlns="http://www.w3.org/2000/svg">
<path d="M2.14532 4.06134L2.81358 4.40183L2.14532 4.06134ZM2.72786 3.47864L3.06836 4.14689L2.72786 3.47864ZM2.72786 12.5213L3.06836 11.853L2.72786 12.5213ZM2.14532 11.9387L1.47707 12.2792H1.47707L2.14532 11.9387ZM13.8548 11.9387L13.1866 11.5982L13.8548 11.9387ZM13.2719 12.5213L12.9314 11.853L13.2719 12.5213ZM13.8548 4.06134L13.1866 4.40183V4.40183L13.8548 4.06134ZM13.2719 3.47864L13.6124 2.81038V2.81038L13.2719 3.47864ZM4.66667 9.24998C4.25245 9.24998 3.91667 9.58577 3.91667 9.99998C3.91667 10.4142 4.25245 10.75 4.66667 10.75V9.24998ZM7.33333 10.75C7.74755 10.75 8.08333 10.4142 8.08333 9.99998C8.08333 9.58577 7.74755 9.24998 7.33333 9.24998V10.75ZM2 6.58331C1.58579 6.58331 1.25 6.9191 1.25 7.33331C1.25 7.74753 1.58579 8.08331 2 8.08331V6.58331ZM14 8.08331C14.4142 8.08331 14.75 7.74753 14.75 7.33331C14.75 6.9191 14.4142 6.58331 14 6.58331V8.08331ZM2 5.24998C1.58579 5.24998 1.25 5.58577 1.25 5.99998C1.25 6.41419 1.58579 6.74998 2 6.74998V5.24998ZM14 6.74998C14.4142 6.74998 14.75 6.41419 14.75 5.99998C14.75 5.58577 14.4142 5.24998 14 5.24998V6.74998ZM13.25 5.46661V10.5333H14.75V5.46661H13.25ZM11.8668 11.9166H4.13346V13.4166H11.8668V11.9166ZM2.75 10.5333V5.46661H1.25V10.5333H2.75ZM4.13346 4.08331H11.8668V2.58331H4.13346V4.08331ZM2.75 5.46661C2.75 5.08087 2.75058 4.83668 2.76567 4.65198C2.78005 4.47605 2.80376 4.4211 2.81358 4.40183L1.47707 3.72085C1.34156 3.9868 1.29261 4.26111 1.27066 4.52983C1.24942 4.78978 1.25 5.10562 1.25 5.46661H2.75ZM4.13346 2.58331C3.77246 2.58331 3.45656 2.58273 3.19654 2.60397C2.92781 2.62592 2.65337 2.67485 2.38737 2.81038L3.06836 4.14689C3.08757 4.1371 3.14256 4.11337 3.31865 4.09899C3.50344 4.0839 3.74773 4.08331 4.13346 4.08331V2.58331ZM2.81358 4.40183C2.8696 4.29188 2.95879 4.20272 3.06836 4.14689L2.38737 2.81038C1.99517 3.01022 1.67671 3.32904 1.47707 3.72085L2.81358 4.40183ZM4.13346 11.9166C3.74774 11.9166 3.50345 11.9161 3.31867 11.901C3.14259 11.8866 3.08758 11.8628 3.06836 11.853L2.38737 13.1896C2.65336 13.3251 2.92779 13.374 3.19652 13.396C3.45655 13.4172 3.77245 13.4166 4.13346 13.4166V11.9166ZM1.25 10.5333C1.25 10.8943 1.24942 11.2101 1.27066 11.4701C1.29261 11.7388 1.34155 12.0132 1.47707 12.2792L2.81358 11.5982C2.80377 11.5789 2.78005 11.524 2.76568 11.348C2.75058 11.1632 2.75 10.919 2.75 10.5333H1.25ZM3.06836 11.853C2.95871 11.7972 2.86956 11.708 2.81358 11.5982L1.47707 12.2792C1.67675 12.6711 1.99525 12.9898 2.38737 13.1896L3.06836 11.853ZM13.25 10.5333C13.25 10.9191 13.2495 11.1633 13.2344 11.3481C13.22 11.5241 13.1963 11.579 13.1866 11.5982L14.5231 12.2792C14.6586 12.0131 14.7075 11.7387 14.7294 11.47C14.7506 11.2101 14.75 10.8942 14.75 10.5333H13.25ZM11.8668 13.4166C12.2278 13.4166 12.5436 13.4172 12.8035 13.396C13.0722 13.374 13.3464 13.325 13.6124 13.1896L12.9314 11.853C12.9121 11.8629 12.8571 11.8866 12.6813 11.901C12.4967 11.9161 12.2525 11.9166 11.8668 11.9166V13.4166ZM13.1866 11.5982C13.1308 11.7075 13.0415 11.7969 12.9314 11.853L13.6124 13.1896C14.004 12.99 14.3231 12.6715 14.5231 12.2792L13.1866 11.5982ZM14.75 5.46661C14.75 5.1057 14.7506 4.78985 14.7294 4.52995C14.7075 4.26127 14.6586 3.98688 14.5231 3.72085L13.1866 4.40183C13.1963 4.42101 13.22 4.47589 13.2344 4.65187C13.2495 4.83661 13.25 5.08079 13.25 5.46661H14.75ZM11.8668 4.08331C12.2525 4.08331 12.4967 4.0839 12.6813 4.09899C12.8571 4.11336 12.9121 4.13706 12.9314 4.14689L13.6124 2.81038C13.3464 2.67489 13.0722 2.62593 12.8035 2.60397C12.5436 2.58273 12.2278 2.58331 11.8668 2.58331V4.08331ZM14.5231 3.72085C14.3232 3.32854 14.0041 3.00996 13.6124 2.81038L12.9314 4.14689C13.0414 4.20297 13.1308 4.29238 13.1866 4.40183L14.5231 3.72085ZM4.66667 10.75H7.33333V9.24998H4.66667V10.75ZM2 8.08331H14V6.58331H2V8.08331ZM2 6.74998H14V5.24998H2V6.74998Z" fill="#B0B8C1"/>
</svg>
