<svg width="16" height="16" viewBox="0 0 16 16" fill="none" xmlns="http://www.w3.org/2000/svg">
<g id="Interface / Credit_Card_01">
<path id="Vector" d="M2.14532 4.06201L2.85813 4.4252L2.14532 4.06201ZM2.72786 3.47931L3.09106 4.19211L2.72786 3.47931ZM2.72786 12.522L3.09106 11.8092H3.09106L2.72786 12.522ZM2.14532 11.9393L1.43252 12.3025L2.14532 11.9393ZM13.8548 11.9393L13.142 11.5761L13.8548 11.9393ZM13.2719 12.522L12.9087 11.8092L13.2719 12.522ZM13.8548 4.06201L13.142 4.4252V4.4252L13.8548 4.06201ZM13.2719 3.47931L13.6351 2.7665L13.2719 3.47931ZM4.66667 9.20065C4.22484 9.20065 3.86667 9.55882 3.86667 10.0007C3.86667 10.4425 4.22484 10.8007 4.66667 10.8007V9.20065ZM7.33333 10.8007C7.77516 10.8007 8.13333 10.4425 8.13333 10.0007C8.13333 9.55882 7.77516 9.20065 7.33333 9.20065V10.8007ZM2 6.53398C1.55817 6.53398 1.2 6.89216 1.2 7.33398C1.2 7.77581 1.55817 8.13398 2 8.13398V6.53398ZM14 8.13398C14.4418 8.13398 14.8 7.77581 14.8 7.33398C14.8 6.89216 14.4418 6.53398 14 6.53398V8.13398ZM2 5.20065C1.55817 5.20065 1.2 5.55882 1.2 6.00065C1.2 6.44248 1.55817 6.80065 2 6.80065V5.20065ZM14 6.80065C14.4418 6.80065 14.8 6.44248 14.8 6.00065C14.8 5.55882 14.4418 5.20065 14 5.20065V6.80065ZM13.2 5.46728V10.534H14.8V5.46728H13.2ZM11.8668 11.8673H4.13346V13.4673H11.8668V11.8673ZM2.8 10.534V5.46728H1.2V10.534H2.8ZM4.13346 4.13398H11.8668V2.53398H4.13346V4.13398ZM2.8 5.46728C2.8 5.08071 2.80062 4.83892 2.81551 4.65673C2.82963 4.48389 2.8525 4.43625 2.85813 4.4252L1.43252 3.69882C1.29282 3.97299 1.24303 4.25462 1.22082 4.52643C1.19938 4.78889 1.2 5.10712 1.2 5.46728H2.8ZM4.13346 2.53398C3.77329 2.53398 3.45499 2.53336 3.19247 2.55481C2.92066 2.57701 2.6389 2.62678 2.36467 2.7665L3.09106 4.19211C3.10204 4.18652 3.14972 4.16362 3.32272 4.14949C3.505 4.13461 3.7469 4.13398 4.13346 4.13398V2.53398ZM2.85813 4.4252C2.90937 4.32464 2.99091 4.24314 3.09106 4.19211L2.36467 2.7665C1.96305 2.97114 1.63694 3.29761 1.43252 3.69882L2.85813 4.4252ZM4.13346 11.8673C3.74691 11.8673 3.50502 11.8667 3.32274 11.8518C3.14975 11.8377 3.10206 11.8148 3.09106 11.8092L2.36467 13.2348C2.63889 13.3745 2.92063 13.4243 3.19245 13.4465C3.45498 13.4679 3.77328 13.4673 4.13346 13.4673V11.8673ZM1.2 10.534C1.2 10.8941 1.19938 11.2124 1.22082 11.4749C1.24303 11.7467 1.29281 12.0283 1.43252 12.3025L2.85813 11.5761C2.85251 11.5651 2.82963 11.5175 2.81551 11.3446C2.80062 11.1624 2.8 10.9205 2.8 10.534H1.2ZM3.09106 11.8092C2.99082 11.7581 2.90932 11.6766 2.85813 11.5761L1.43252 12.3025C1.63699 12.7038 1.96314 13.0302 2.36467 13.2348L3.09106 11.8092ZM13.2 10.534C13.2 10.9206 13.1994 11.1624 13.1846 11.3447C13.1705 11.5176 13.1476 11.5652 13.142 11.5761L14.5676 12.3025C14.7074 12.0282 14.7571 11.7465 14.7793 11.4747C14.8007 11.2123 14.8 10.894 14.8 10.534H13.2ZM11.8668 13.4673C12.227 13.4673 12.5452 13.4679 12.8076 13.4465C13.0794 13.4243 13.3609 13.3745 13.6351 13.2348L12.9087 11.8092C12.8976 11.8148 12.8499 11.8377 12.6772 11.8518C12.4951 11.8667 12.2534 11.8673 11.8668 11.8673V13.4673ZM13.142 11.5761C13.0911 11.6761 13.0094 11.7578 12.9087 11.8092L13.6351 13.2348C14.0361 13.0305 14.3629 12.7044 14.5676 12.3025L13.142 11.5761ZM14.8 5.46728C14.8 5.1072 14.8007 4.78896 14.7793 4.52656C14.7571 4.25479 14.7074 3.97308 14.5676 3.69882L13.142 4.4252C13.1476 4.43616 13.1705 4.48372 13.1846 4.6566C13.1994 4.83884 13.2 5.08063 13.2 5.46728H14.8ZM11.8668 4.13398C12.2534 4.13398 12.4951 4.13461 12.6772 4.14949C12.85 4.16361 12.8976 4.18647 12.9087 4.19211L13.6351 2.7665C13.3609 2.62682 13.0794 2.57702 12.8076 2.55481C12.5451 2.53336 12.227 2.53398 11.8668 2.53398V4.13398ZM14.5676 3.69882C14.3629 3.29708 14.0361 2.97087 13.6351 2.7665L12.9087 4.19211C13.0093 4.24341 13.091 4.32518 13.142 4.4252L14.5676 3.69882ZM4.66667 10.8007H7.33333V9.20065H4.66667V10.8007ZM2 8.13398H14V6.53398H2V8.13398ZM2 6.80065H14V5.20065H2V6.80065Z" fill="#264796"/>
</g>
</svg>
