<svg width="28" height="28" viewBox="0 0 28 28" fill="none" xmlns="http://www.w3.org/2000/svg">
<rect width="28" height="28" rx="14" fill="#FF0000"/>
<path fill-rule="evenodd" clip-rule="evenodd" d="M12 16H8.38889C8.17411 16 8 15.8259 8 15.6111V12.3889C8 12.1741 8.17411 12 8.38889 12H12V8.3889C12 8.17412 12.1741 8.00001 12.3889 8.00001H15.6111C15.8259 8.00001 16 8.17412 16 8.3889V12H19.6111C19.8259 12 20 12.1741 20 12.3889V15.6111C20 15.8259 19.8259 16 19.6111 16H16V19.6111C16 19.8259 15.8259 20 15.6111 20H12.3889C12.1741 20 12 19.8259 12 19.6111V16Z" fill="white"/>
</svg>
