<svg width="50" height="50" viewBox="0 0 50 50" fill="none" xmlns="http://www.w3.org/2000/svg">
<path d="M0 15C0 6.71573 6.71573 0 15 0H35C43.2843 0 50 6.71573 50 15V35C50 43.2843 43.2843 50 35 50H15C6.71573 50 0 43.2843 0 35V15Z" fill="#FFF4D1"/>
<path d="M38.3333 29C38.3333 34.16 34.16 38.3333 29 38.3333L30.4 36" stroke="#D59E6B" stroke-width="2" stroke-linecap="round" stroke-linejoin="round"/>
<path d="M11.6666 20.9998C11.6666 15.8398 15.84 11.6665 21 11.6665L19.6 13.9998" stroke="#D59E6B" stroke-width="2" stroke-linecap="round" stroke-linejoin="round"/>
<path d="M38.3333 14.5998V14.7465C38.3333 15.1198 38.04 15.4132 37.6667 15.4132H25.6667C25.2933 15.4132 25 15.1198 25 14.7465V14.5998C25 12.2532 25.5867 11.6665 27.96 11.6665H35.3733C37.7467 11.6665 38.3333 12.2532 38.3333 14.5998Z" fill="#D59E6B"/>
<path d="M25.6667 16.7466C25.2933 16.7466 25 17.0399 25 17.4132V18.7466V20.0666C25 22.4132 25.5867 22.9999 27.96 22.9999H35.3733C37.7467 22.9999 38.3333 22.4132 38.3333 20.0666V18.7466V17.4132C38.3333 17.0399 38.04 16.7466 37.6667 16.7466H25.6667Z" fill="#D59E6B"/>
<path d="M25 29.9333V30.08C25 30.4533 24.7066 30.7467 24.3333 30.7467H12.3333C11.96 30.7467 11.6666 30.4533 11.6666 30.08V29.9333C11.6666 27.5867 12.2533 27 14.6266 27H22.04C24.4133 27 25 27.5867 25 29.9333Z" fill="#D59E6B"/>
<path d="M12.3333 32.0801C11.96 32.0801 11.6666 32.3734 11.6666 32.7467V34.0801V35.4001C11.6666 37.7467 12.2533 38.3334 14.6266 38.3334H22.04C24.4133 38.3334 25 37.7467 25 35.4001V34.0801V32.7467C25 32.3734 24.7066 32.0801 24.3333 32.0801H12.3333Z" fill="#D59E6B"/>
</svg>
