<svg width="15" height="16" viewBox="0 0 15 16" fill="none" xmlns="http://www.w3.org/2000/svg">
<g id="copy">
<path id="Vector" d="M12.5 6.125H6.875C6.18464 6.125 5.625 6.68464 5.625 7.375V13C5.625 13.6904 6.18464 14.25 6.875 14.25H12.5C13.1904 14.25 13.75 13.6904 13.75 13V7.375C13.75 6.68464 13.1904 6.125 12.5 6.125Z" stroke="#C3CBD4" stroke-width="1.25" stroke-linecap="round" stroke-linejoin="round"/>
<path id="Vector_2" d="M3.125 9.875H2.5C2.16848 9.875 1.85054 9.7433 1.61612 9.50888C1.3817 9.27446 1.25 8.95652 1.25 8.625V3C1.25 2.66848 1.3817 2.35054 1.61612 2.11612C1.85054 1.8817 2.16848 1.75 2.5 1.75H8.125C8.45652 1.75 8.77446 1.8817 9.00888 2.11612C9.2433 2.35054 9.375 2.66848 9.375 3V3.625" stroke="#C3CBD4" stroke-width="1.25" stroke-linecap="round" stroke-linejoin="round"/>
</g>
</svg>
