<svg width="48" height="48" viewBox="0 0 48 48" fill="none" xmlns="http://www.w3.org/2000/svg">
<rect width="48" height="48" rx="24" fill="#F4F7FA"/>
<path opacity="0.4" d="M35 27.9697C35 31.8397 31.87 34.9697 28 34.9697L29.05 33.2197" stroke="#909090" stroke-width="1.5" stroke-linecap="round" stroke-linejoin="round"/>
<path opacity="0.4" d="M13 19.9697C13 16.0997 16.13 12.9697 20 12.9697L18.95 14.7197" stroke="#909090" stroke-width="1.5" stroke-linecap="round" stroke-linejoin="round"/>
<path d="M26.85 27.3302C26.85 30.7402 24.09 33.5002 20.68 33.5002C17.27 33.5002 14.51 30.7402 14.51 27.3302C14.51 23.9202 17.27 21.1602 20.68 21.1602C20.84 21.1602 20.99 21.1702 21.16 21.1802C24.19 21.4102 26.61 23.8302 26.84 26.8602C26.84 27.0102 26.85 27.1602 26.85 27.3302Z" stroke="#909090" stroke-width="1.5" stroke-miterlimit="10" stroke-linecap="round" stroke-linejoin="round"/>
<path d="M33.5 20.67C33.5 24.08 30.74 26.84 27.33 26.84H26.84C26.61 23.81 24.19 21.39 21.16 21.16V20.67C21.16 17.26 23.92 14.5 27.33 14.5C30.74 14.5 33.5 17.26 33.5 20.67Z" stroke="#909090" stroke-width="1.5" stroke-miterlimit="10" stroke-linecap="round" stroke-linejoin="round"/>
</svg>
