<svg width="48" height="48" viewBox="0 0 48 48" fill="none" xmlns="http://www.w3.org/2000/svg">
<rect width="48" height="48" rx="24" fill="#F4F7FA"/>
<g opacity="0.4">
<path d="M21.5 25.7502C21.5 26.7202 22.25 27.5002 23.17 27.5002H25.05C25.85 27.5002 26.5 26.8202 26.5 25.9702C26.5 25.0602 26.1 24.7302 25.51 24.5202L22.5 23.4702C21.91 23.2602 21.51 22.9402 21.51 22.0202C21.51 21.1802 22.16 20.4902 22.96 20.4902H24.84C25.76 20.4902 26.51 21.2702 26.51 22.2402" stroke="#0B6F3E" stroke-width="1.5" stroke-linecap="round" stroke-linejoin="round"/>
<path d="M24 19.5V28.5" stroke="#0B6F3E" stroke-width="1.5" stroke-linecap="round" stroke-linejoin="round"/>
</g>
<path d="M34 24C34 29.52 29.52 34 24 34C18.48 34 14 29.52 14 24C14 18.48 18.48 14 24 14" stroke="#0B6F3E" stroke-width="1.5" stroke-linecap="round" stroke-linejoin="round"/>
<path d="M29 15V19H33" stroke="#0B6F3E" stroke-width="1.5" stroke-linecap="round" stroke-linejoin="round"/>
<path d="M34 14L29 19" stroke="#0B6F3E" stroke-width="1.5" stroke-linecap="round" stroke-linejoin="round"/>
</svg>
