<svg width="51" height="50" viewBox="0 0 51 50" fill="none" xmlns="http://www.w3.org/2000/svg">
<path d="M0.666626 15C0.666626 6.71573 7.38236 0 15.6666 0H35.6666C43.9509 0 50.6666 6.71573 50.6666 15V35C50.6666 43.2843 43.9509 50 35.6666 50H15.6666C7.38236 50 0.666626 43.2843 0.666626 35V15Z" fill="#D1FFFA"/>
<path d="M31 11.6665H20.3333C15.6666 11.6665 13.6666 14.3332 13.6666 18.3332V31.6665C13.6666 35.6665 15.6666 38.3332 20.3333 38.3332H31C35.6666 38.3332 37.6666 35.6665 37.6666 31.6665V18.3332C37.6666 14.3332 35.6666 11.6665 31 11.6665ZM20.3333 25.3332H25.6666C26.2133 25.3332 26.6666 25.7865 26.6666 26.3332C26.6666 26.8798 26.2133 27.3332 25.6666 27.3332H20.3333C19.7866 27.3332 19.3333 26.8798 19.3333 26.3332C19.3333 25.7865 19.7866 25.3332 20.3333 25.3332ZM31 32.6665H20.3333C19.7866 32.6665 19.3333 32.2132 19.3333 31.6665C19.3333 31.1198 19.7866 30.6665 20.3333 30.6665H31C31.5466 30.6665 32 31.1198 32 31.6665C32 32.2132 31.5466 32.6665 31 32.6665ZM34.3333 21.3332H31.6666C29.64 21.3332 28 19.6932 28 17.6665V14.9998C28 14.4532 28.4533 13.9998 29 13.9998C29.5466 13.9998 30 14.4532 30 14.9998V17.6665C30 18.5865 30.7466 19.3332 31.6666 19.3332H34.3333C34.88 19.3332 35.3333 19.7865 35.3333 20.3332C35.3333 20.8798 34.88 21.3332 34.3333 21.3332Z" fill="#1BA6A8"/>
</svg>
