<svg width="130" height="130" viewBox="0 0 130 130" fill="none" xmlns="http://www.w3.org/2000/svg">
<ellipse opacity="0.1" cx="65" cy="119.6" rx="65" ry="3.9" fill="#008C79"/>
<path fill-rule="evenodd" clip-rule="evenodd" d="M18.6875 25.5249C18.6875 23.6334 20.2209 22.1 22.1125 22.1C24.004 22.1 25.5374 23.6334 25.5374 25.5249V32.5707C25.5374 34.4623 24.004 35.9957 22.1125 35.9957C20.2209 35.9957 18.6875 34.4623 18.6875 32.5707V25.5249ZM22.1125 24.7C21.6568 24.7 21.2875 25.0693 21.2875 25.5249V32.5707C21.2875 33.0263 21.6568 33.3957 22.1125 33.3957C22.5681 33.3957 22.9374 33.0263 22.9374 32.5707V25.5249C22.9374 25.0693 22.5681 24.7 22.1125 24.7ZM34.2875 39C34.2875 35.4101 37.1976 32.5 40.7875 32.5H84.046C82.1869 34.713 80.8449 37.375 80.2063 40.3H34.2875V39ZM79.8332 42.9H29.0875C25.4976 42.9 22.5875 45.8101 22.5875 49.4V55.9L84.046 55.9C81.3883 52.7364 79.7875 48.6551 79.7875 44.2C79.7875 43.7629 79.8029 43.3294 79.8332 42.9ZM100.587 62.2157V88.4H103.188C106.777 88.4 109.688 85.4898 109.688 81.9V58.1415C107.151 60.2726 104.024 61.7241 100.587 62.2157ZM112.287 55.4595V81.9C112.287 86.9258 108.213 91 103.188 91H100.587V92.3C100.587 97.3258 96.5133 101.4 91.4875 101.4H29.0875C24.0617 101.4 19.9875 97.3258 19.9875 92.3V49.4C19.9875 44.3742 24.0617 40.3 29.0875 40.3H31.6875V39C31.6875 33.9742 35.7617 29.9 40.7875 29.9H86.2875V30.2585C89.4511 27.6007 93.5324 26 97.9875 26C108.039 26 116.188 34.1484 116.188 44.2C116.188 48.4511 114.73 52.3617 112.287 55.4595ZM22.5875 63.7L97.9875 63.7V88.4V91V92.3C97.9875 95.8898 95.0773 98.8 91.4875 98.8H29.0875C25.4977 98.8 22.5875 95.8898 22.5875 92.3V63.7ZM109.212 94.9C107.321 94.9 105.787 96.4334 105.787 98.3249V105.371C105.787 107.262 107.321 108.796 109.212 108.796C111.104 108.796 112.637 107.262 112.637 105.371V98.3249C112.637 96.4334 111.104 94.9 109.212 94.9ZM108.387 98.3249C108.387 97.8693 108.757 97.5 109.212 97.5C109.668 97.5 110.037 97.8693 110.037 98.3249V105.371C110.037 105.826 109.668 106.196 109.212 106.196C108.757 106.196 108.387 105.826 108.387 105.371V98.3249ZM82.3875 44.2C82.3875 35.5843 89.3719 28.6 97.9875 28.6C106.603 28.6 113.587 35.5843 113.587 44.2C113.587 52.8156 106.603 59.8 97.9875 59.8C89.3719 59.8 82.3875 52.8156 82.3875 44.2ZM53.1375 75.4C51.3426 75.4 49.8875 76.855 49.8875 78.65C49.8875 80.4449 51.3426 81.9 53.1375 81.9H88.2375C90.0324 81.9 91.4875 80.4449 91.4875 78.65C91.4875 76.855 90.0324 75.4 88.2375 75.4H53.1375ZM52.4875 78.65C52.4875 78.291 52.7785 78 53.1375 78H88.2375C88.5965 78 88.8875 78.291 88.8875 78.65C88.8875 79.009 88.5965 79.3 88.2375 79.3H53.1375C52.7785 79.3 52.4875 79.009 52.4875 78.65ZM36.2375 84.5C39.4684 84.5 42.0875 81.8808 42.0875 78.65C42.0875 75.4191 39.4684 72.8 36.2375 72.8C33.0066 72.8 30.3875 75.4191 30.3875 78.65C30.3875 81.8808 33.0066 84.5 36.2375 84.5Z" fill="#008C79"/>
<path d="M97.9639 48.6137C98.6834 48.6138 99.3422 48.856 99.8799 49.3432L99.8809 49.3422C100.475 49.8721 100.74 50.5827 100.74 51.3461C100.74 51.8516 100.614 52.3409 100.339 52.7797L100.34 52.7807C100.09 53.1838 99.7464 53.4995 99.3301 53.7202L99.3311 53.7211C99.3247 53.7247 99.3179 53.7274 99.3115 53.7309C99.3069 53.7333 99.3025 53.7363 99.2979 53.7387L99.2969 53.7377C98.8813 53.9616 98.4301 54.0687 97.9639 54.0688C97.2421 54.0688 96.5829 53.8215 96.0469 53.3315C95.47 52.804 95.1973 52.1068 95.1973 51.3461C95.1973 50.8508 95.3115 50.3628 95.5801 49.9243C95.8298 49.5097 96.1748 49.1765 96.6064 48.9487V48.9496C97.029 48.723 97.4884 48.6137 97.9639 48.6137Z" stroke="#008C79" stroke-width="2.22222"/>
<path d="M97.9951 34.1693C99.022 34.1693 99.98 34.3435 100.851 34.7133L100.852 34.7123C101.734 35.0797 102.468 35.6315 103.011 36.3802H103.01C103.58 37.15 103.848 38.0532 103.848 39.0355C103.848 39.6075 103.746 40.1604 103.539 40.6859L103.54 40.6869C103.326 41.2416 102.973 41.7474 102.532 42.2084C102.093 42.6672 101.525 43.1261 100.851 43.5873L100.844 43.5922C100.445 43.8609 100.223 44.0734 100.114 44.2181L100.106 44.2289C100.047 44.3067 99.9889 44.4273 99.9736 44.642V44.6439C99.9695 44.7009 99.9668 44.768 99.9668 44.8451C99.9667 46.0068 99.0963 47.2416 97.6787 47.2416H97.6504C96.6435 47.2414 95.6577 46.5385 95.501 45.4135C95.4347 44.9376 95.4106 44.4849 95.4453 44.0687L95.4463 44.0551C95.5134 43.3566 95.7471 42.7097 96.1816 42.1635C96.5606 41.6871 97.0682 41.2598 97.6611 40.8705C98.374 40.4018 98.7098 40.0885 98.8232 39.931C98.9291 39.784 98.9736 39.6401 98.9736 39.4701C98.9736 39.1102 98.8693 38.9976 98.7695 38.9261L98.7598 38.9193C98.5743 38.7834 98.2129 38.6449 97.5391 38.6449C97.0655 38.6449 96.671 38.7121 96.3428 38.8295C96.3372 38.8315 96.3318 38.8343 96.3262 38.8363C95.747 39.0465 95.1026 39.039 94.541 38.8265C93.969 38.6101 93.4208 38.1505 93.1982 37.4301C92.9689 36.6876 93.1434 35.6754 94.0312 35.1566C94.1855 35.0665 94.3482 34.9817 94.5186 34.9017C94.9983 34.6691 95.5306 34.4961 96.1045 34.3724V34.3715C96.7038 34.2349 97.3353 34.1693 97.9951 34.1693Z" stroke="#008C79" stroke-width="2.22222"/>
</svg>
