<svg width="28" height="28" viewBox="0 0 28 28" fill="none" xmlns="http://www.w3.org/2000/svg">
<g clip-path="url(#clip0_1655_78838)">
<path fill-rule="evenodd" clip-rule="evenodd" d="M-7 28.0003H35V0H-7V28.0003Z" fill="#03349A"/>
<path fill-rule="evenodd" clip-rule="evenodd" d="M13.105 6.10082L13.9914 5.45409L14.8776 6.10082L14.5404 5.05483L15.4405 4.4081H14.331L13.9914 3.34952L13.6518 4.40928L12.5427 4.4081L13.4424 5.05483L13.105 6.10082Z" fill="#FCCB02"/>
<path fill-rule="evenodd" clip-rule="evenodd" d="M8.51857 7.33277L9.40492 6.68604L10.2905 7.33277L9.95391 6.28692L10.8534 5.64019H9.74391L9.40433 4.58028L9.06474 5.64123L7.95581 5.64019L8.85534 6.28692L8.51857 7.33277Z" fill="#FCCB02"/>
<path fill-rule="evenodd" clip-rule="evenodd" d="M6.0491 7.94385L5.70952 9.0048L4.60059 9.00376L5.50011 9.65049L5.16275 10.6963L6.0491 10.0496L6.9353 10.6963L6.59809 9.65049L7.49762 9.00376H6.38868L6.0491 7.94385Z" fill="#FCCB02"/>
<path fill-rule="evenodd" clip-rule="evenodd" d="M4.81801 14.6302L5.70376 15.2769L5.36699 14.2309L6.26667 13.5842H5.15759L4.81801 12.5244L4.47842 13.5865L3.3689 13.5842L4.26902 14.2309L3.93181 15.2769L4.81801 14.6302Z" fill="#FCCB02"/>
<path fill-rule="evenodd" clip-rule="evenodd" d="M6.38868 18.1787L6.0491 17.1188L5.70952 18.1797L4.60059 18.1787L5.50011 18.8254L5.16275 19.8712L6.0491 19.2233L6.9353 19.8712L6.59809 18.8254L7.49762 18.1787H6.38868Z" fill="#FCCB02"/>
<path fill-rule="evenodd" clip-rule="evenodd" d="M9.75086 21.5408L9.41128 20.482L9.07229 21.5418L7.96277 21.5408L8.8623 22.1875L8.52553 23.2333L9.41188 22.5866L10.2975 23.2333L9.96086 22.1875L10.8604 21.5408H9.75086Z" fill="#FCCB02"/>
<path fill-rule="evenodd" clip-rule="evenodd" d="M14.3315 22.7591L13.9919 21.6993L13.6529 22.7603L12.5432 22.7591L13.4429 23.4058L13.1061 24.4518L13.9923 23.8051L14.8781 24.4518L14.5409 23.4058L15.441 22.7591H14.3315Z" fill="#FCCB02"/>
<path fill-rule="evenodd" clip-rule="evenodd" d="M18.9119 21.5408L18.5729 20.482L18.2327 21.5418L17.1244 21.5408L18.0233 22.1875L17.6867 23.2333L18.5729 22.5866L19.4591 23.2333L19.1213 22.1875L20.0214 21.5408H18.9119Z" fill="#FCCB02"/>
<path fill-rule="evenodd" clip-rule="evenodd" d="M22.2753 18.1787L21.9351 17.1188L21.5949 18.1797L20.4866 18.1787L21.3867 18.8254L21.0489 19.8712L21.9351 19.2233L22.8214 19.8712L22.4835 18.8254L23.3836 18.1787H22.2753Z" fill="#FCCB02"/>
<path fill-rule="evenodd" clip-rule="evenodd" d="M24.6019 13.5713H23.4924L23.1522 12.5115L22.8133 13.5725L21.7037 13.5713L22.6039 14.218L22.2671 15.264L23.1522 14.6161L24.0384 15.264L23.7018 14.218L24.6019 13.5713Z" fill="#FCCB02"/>
<path fill-rule="evenodd" clip-rule="evenodd" d="M21.0489 10.6823L21.9351 10.0355L22.8214 10.6823L22.4835 9.63641L23.3836 8.99087H22.2753L21.9351 7.93095L21.5949 8.99191L20.4866 8.99087L21.3867 9.63641L21.0489 10.6823Z" fill="#FCCB02"/>
<path fill-rule="evenodd" clip-rule="evenodd" d="M18.5857 4.58174L18.2467 5.64269L17.1372 5.64047L18.0361 6.28839L17.6995 7.33423L18.5869 6.68632L19.4721 7.33423L19.1353 6.28839L20.0354 5.64047H18.9247L18.5857 4.58174Z" fill="#FCCB02"/>
</g>
<defs>
<clipPath id="clip0_1655_78838">
<rect width="28" height="28" rx="14" fill="white"/>
</clipPath>
</defs>
</svg>
