<svg width="51" height="50" viewBox="0 0 51 50" fill="none" xmlns="http://www.w3.org/2000/svg">
<path d="M0.333374 15C0.333374 6.71573 7.0491 0 15.3334 0H35.3334C43.6176 0 50.3334 6.71573 50.3334 15V35C50.3334 43.2843 43.6176 50 35.3334 50H15.3334C7.0491 50 0.333374 43.2843 0.333374 35V15Z" fill="#D1D8FF"/>
<path d="M30.6667 11.6665H20C15.3334 11.6665 13.3334 14.3332 13.3334 18.3332V31.6665C13.3334 35.6665 15.3334 38.3332 20 38.3332H30.6667C35.3334 38.3332 37.3334 35.6665 37.3334 31.6665V18.3332C37.3334 14.3332 35.3334 11.6665 30.6667 11.6665ZM20 25.3332H25.3334C25.88 25.3332 26.3334 25.7865 26.3334 26.3332C26.3334 26.8798 25.88 27.3332 25.3334 27.3332H20C19.4534 27.3332 19 26.8798 19 26.3332C19 25.7865 19.4534 25.3332 20 25.3332ZM30.6667 32.6665H20C19.4534 32.6665 19 32.2132 19 31.6665C19 31.1198 19.4534 30.6665 20 30.6665H30.6667C31.2134 30.6665 31.6667 31.1198 31.6667 31.6665C31.6667 32.2132 31.2134 32.6665 30.6667 32.6665ZM34 21.3332H31.3334C29.3067 21.3332 27.6667 19.6932 27.6667 17.6665V14.9998C27.6667 14.4532 28.12 13.9998 28.6667 13.9998C29.2134 13.9998 29.6667 14.4532 29.6667 14.9998V17.6665C29.6667 18.5865 30.4134 19.3332 31.3334 19.3332H34C34.5467 19.3332 35 19.7865 35 20.3332C35 20.8798 34.5467 21.3332 34 21.3332Z" fill="#2C1BA8"/>
</svg>
