<svg width="15" height="16" viewBox="0 0 15 16" fill="none" xmlns="http://www.w3.org/2000/svg">
<g id="Group">
<path id="Vector" d="M2.66669 5.00016V2.00016C2.66669 1.82335 2.73693 1.65378 2.86195 1.52876C2.98697 1.40373 3.15654 1.3335 3.33335 1.3335H12.6667C12.8435 1.3335 13.0131 1.40373 13.1381 1.52876C13.2631 1.65378 13.3334 1.82335 13.3334 2.00016V14.0002C13.3334 14.177 13.2631 14.3465 13.1381 14.4716C13.0131 14.5966 12.8435 14.6668 12.6667 14.6668H3.33335C3.15654 14.6668 2.98697 14.5966 2.86195 14.4716C2.73693 14.3465 2.66669 14.177 2.66669 14.0002V11.0002" stroke="#B0B8C1" stroke-width="1.5" stroke-linecap="round" stroke-linejoin="round"/>
<path id="Vector_2" d="M10.3333 5H11.3333M9.33334 7.66667H11.3333M9.33334 10.3333H11.3333" stroke="#B0B8C1" stroke-width="1.5" stroke-linecap="round"/>
<path id="Vector_3" d="M3.33334 7L5.33334 9M5.33334 7L3.33334 9M1.33334 5H7.33334V11H1.33334V5Z" stroke="#B0B8C1" stroke-width="1.5" stroke-linecap="round" stroke-linejoin="round"/>
</g>
</svg>
