<svg width="24" height="24" viewBox="0 0 15 16" fill="none" xmlns="http://www.w3.org/2000/svg">
<g id="Group">
<path id="Vector" d="M2.66669 4.99967V1.99967C2.66669 1.82286 2.73693 1.65329 2.86195 1.52827C2.98697 1.40325 3.15654 1.33301 3.33335 1.33301H12.6667C12.8435 1.33301 13.0131 1.40325 13.1381 1.52827C13.2631 1.65329 13.3334 1.82286 13.3334 1.99967V13.9997C13.3334 14.1765 13.2631 14.3461 13.1381 14.4711C13.0131 14.5961 12.8435 14.6663 12.6667 14.6663H3.33335C3.15654 14.6663 2.98697 14.5961 2.86195 14.4711C2.73693 14.3461 2.66669 14.1765 2.66669 13.9997V10.9997" stroke="#008C79" stroke-width="1.5" stroke-linecap="round" stroke-linejoin="round"/>
<path id="Vector_2" d="M10.3333 5H11.3333M9.33334 7.66667H11.3333M9.33334 10.3333H11.3333" stroke="#008C79" stroke-width="1.5" stroke-linecap="round"/>
<path id="Vector_3" d="M3.33334 7L5.33334 9M5.33334 7L3.33334 9M1.33334 5H7.33334V11H1.33334V5Z" stroke="#008C79" stroke-width="1.5" stroke-linecap="round" stroke-linejoin="round"/>
</g>
</svg>
