<svg width="12" height="14" viewBox="0 0 12 14" fill="none" xmlns="http://www.w3.org/2000/svg">
<path d="M4.00004 10.3333H8.00004M4.00004 8.33333H8.00004M10.6664 5H7.73311C7.35974 5 7.17325 4.99999 7.03064 4.92733C6.9052 4.86341 6.80328 4.76145 6.73937 4.63601C6.66671 4.4934 6.66671 4.3067 6.66671 3.93333V1M10.6667 10.8667V5.43599C10.6667 5.12699 10.6668 4.97248 10.6335 4.82621C10.6039 4.6965 10.5553 4.57192 10.4888 4.45666C10.4139 4.32668 10.3089 4.21331 10.0989 3.98657L7.96684 1.68392C7.73351 1.43192 7.61673 1.30592 7.4779 1.21562C7.35485 1.13558 7.21914 1.07643 7.07681 1.04052C6.91623 1 6.74485 1 6.40142 1H3.46684C2.7201 1 2.34645 1 2.06124 1.14532C1.81036 1.27316 1.60653 1.47714 1.4787 1.72803C1.33337 2.01324 1.33337 2.3866 1.33337 3.13334V10.8667C1.33337 11.6134 1.33337 11.9868 1.4787 12.272C1.60653 12.5229 1.81036 12.7268 2.06124 12.8547C2.34645 13 2.7201 13 3.46684 13H8.5335C9.28024 13 9.65335 13 9.93856 12.8547C10.1894 12.7268 10.3937 12.5229 10.5215 12.272C10.6668 11.9868 10.6667 11.6134 10.6667 10.8667Z" stroke="#264796" stroke-width="1.6" stroke-linecap="round" stroke-linejoin="round"/>
</svg>
