<svg width="16" height="16" viewBox="0 0 16 16" fill="none" xmlns="http://www.w3.org/2000/svg">
<path d="M7.99998 12L7.99998 8M7.99998 8L5.99998 9.33333M7.99998 8L9.99998 9.33333M12.6668 6H10.8001C10.0534 6 9.67973 5.99998 9.39451 5.85466C9.14363 5.72682 8.9398 5.52286 8.81197 5.27198C8.66665 4.98676 8.66665 4.6134 8.66665 3.86667V2M12.6666 11.8667V6.217C12.6666 5.89088 12.6664 5.72779 12.6295 5.57434C12.5969 5.43829 12.5431 5.30825 12.47 5.18896C12.3876 5.0544 12.2726 4.9391 12.042 4.70849L9.95831 2.62484C9.72771 2.39424 9.6124 2.27895 9.47784 2.19649C9.35855 2.12339 9.22853 2.0695 9.09248 2.03684C8.93903 2 8.77591 2 8.44979 2H5.46678C4.72004 2 4.34639 2 4.06118 2.14532C3.81029 2.27316 3.60647 2.47714 3.47864 2.72803C3.33331 3.01324 3.33331 3.3866 3.33331 4.13334V11.8667C3.33331 12.6134 3.33331 12.9868 3.47864 13.272C3.60647 13.5229 3.81029 13.7268 4.06118 13.8547C4.34639 14 4.72004 14 5.46678 14H10.5334C11.2802 14 11.6533 14 11.9385 13.8547C12.1894 13.7268 12.3936 13.5229 12.5215 13.272C12.6668 12.9868 12.6666 12.6134 12.6666 11.8667Z" stroke="#264796" stroke-width="1.2" stroke-linecap="round" stroke-linejoin="round"/>
</svg>
