<svg width="16" height="16" viewBox="0 0 16 16" fill="none" xmlns="http://www.w3.org/2000/svg">
<path d="M6.00001 11.3333H10M6.00001 9.33333H10M12.6664 6H9.73308C9.35971 6 9.17322 5.99999 9.03061 5.92733C8.90517 5.86341 8.80325 5.76145 8.73934 5.63601C8.66668 5.4934 8.66668 5.3067 8.66668 4.93333V2M12.6667 11.8667V6.43599C12.6667 6.12699 12.6668 5.97248 12.6335 5.82621C12.6039 5.6965 12.5552 5.57192 12.4888 5.45666C12.4139 5.32668 12.3088 5.21331 12.0989 4.98657L9.96681 2.68392C9.73348 2.43192 9.6167 2.30592 9.47787 2.21562C9.35482 2.13558 9.21911 2.07643 9.07678 2.04052C8.9162 2 8.74482 2 8.40139 2H5.46681C4.72007 2 4.34642 2 4.06121 2.14532C3.81033 2.27316 3.6065 2.47714 3.47867 2.72803C3.33334 3.01324 3.33334 3.3866 3.33334 4.13334V11.8667C3.33334 12.6134 3.33334 12.9868 3.47867 13.272C3.6065 13.5229 3.81033 13.7268 4.06121 13.8547C4.34642 14 4.72007 14 5.46681 14H10.5335C11.2802 14 11.6533 14 11.9385 13.8547C12.1894 13.7268 12.3937 13.5229 12.5215 13.272C12.6668 12.9868 12.6667 12.6134 12.6667 11.8667Z" stroke="#B0B8C1" stroke-width="1.5" stroke-linecap="round" stroke-linejoin="round"/>
</svg>
