<svg width="16" height="16" viewBox="0 0 16 16" fill="none" xmlns="http://www.w3.org/2000/svg">
<path d="M8.00004 12V8M6.00004 10H10M12.6668 6H10.8002C10.0534 6 9.67979 5.99998 9.39457 5.85466C9.14369 5.72682 8.93986 5.52286 8.81203 5.27198C8.66671 4.98676 8.66671 4.6134 8.66671 3.86667V2M12.6667 11.8667V6.217C12.6667 5.89088 12.6664 5.72779 12.6296 5.57434C12.5969 5.43829 12.5432 5.30825 12.4701 5.18896C12.3876 5.0544 12.2726 4.9391 12.042 4.70849L9.95837 2.62484C9.72777 2.39424 9.61246 2.27895 9.47791 2.19649C9.35861 2.12339 9.22859 2.0695 9.09254 2.03684C8.93909 2 8.77597 2 8.44985 2H5.46684C4.7201 2 4.34645 2 4.06124 2.14532C3.81036 2.27316 3.60653 2.47714 3.4787 2.72803C3.33337 3.01324 3.33337 3.3866 3.33337 4.13334V11.8667C3.33337 12.6134 3.33337 12.9868 3.4787 13.272C3.60653 13.5229 3.81036 13.7268 4.06124 13.8547C4.34645 14 4.7201 14 5.46684 14H10.5335C11.2802 14 11.6534 14 11.9386 13.8547C12.1894 13.7268 12.3937 13.5229 12.5215 13.272C12.6669 12.9868 12.6667 12.6134 12.6667 11.8667Z" stroke="#264796" stroke-width="1.2" stroke-linecap="round" stroke-linejoin="round"/>
</svg>
