<svg width="21" height="20" viewBox="0 0 21 20" fill="none" xmlns="http://www.w3.org/2000/svg">
<g id="filter">
<path id="shape" d="M14.6667 10.8333C16.5076 10.8333 18 12.3257 18 14.1667C18 16.0076 16.5076 17.5 14.6667 17.5C13.1137 17.5 11.8088 16.438 11.4385 15.0006L3 15V13.3333L11.4383 13.3335C11.8083 11.8957 13.1134 10.8333 14.6667 10.8333ZM14.6667 12.5C13.7462 12.5 13 13.2462 13 14.1667C13 15.0871 13.7462 15.8333 14.6667 15.8333C15.5871 15.8333 16.3333 15.0871 16.3333 14.1667C16.3333 13.2462 15.5871 12.5 14.6667 12.5ZM6.33333 2.5C7.88661 2.5 9.19174 3.56241 9.5617 5.0002L18 5V6.66667L9.56149 6.6673C9.19123 8.10467 7.8863 9.16667 6.33333 9.16667C4.49238 9.16667 3 7.67428 3 5.83333C3 3.99238 4.49238 2.5 6.33333 2.5ZM6.33333 4.16667C5.41286 4.16667 4.66667 4.91286 4.66667 5.83333C4.66667 6.75381 5.41286 7.5 6.33333 7.5C7.25381 7.5 8 6.75381 8 5.83333C8 4.91286 7.25381 4.16667 6.33333 4.16667Z" fill="#2B2D33"/>
</g>
</svg>
