<svg width="21" height="20" viewBox="0 0 21 20" fill="none" xmlns="http://www.w3.org/2000/svg">
<g id="vuesax/twotone/filter">
<g id="filter">
<path id="Vector" opacity="0.4" d="M9.60833 1.75L5.5 8.33333" stroke="black" stroke-width="1.5" stroke-miterlimit="10" stroke-linecap="round" stroke-linejoin="round"/>
<path id="Vector_2" d="M4.99998 1.75H16C16.9166 1.75 17.6666 2.5 17.6666 3.41667V5.25C17.6666 5.91667 17.25 6.75 16.8333 7.16667L13.25 10.3333C12.75 10.75 12.4166 11.5833 12.4166 12.25V15.8333C12.4166 16.3333 12.0833 17 11.6666 17.25L10.5 18C9.41665 18.6667 7.91665 17.9167 7.91665 16.5833V12.1667C7.91665 11.5833 7.58331 10.8333 7.24998 10.4167L4.08331 7.08333C3.66665 6.66667 3.33331 5.91667 3.33331 5.41667V3.5C3.33331 2.5 4.08331 1.75 4.99998 1.75Z" stroke="black" stroke-width="1.5" stroke-miterlimit="10" stroke-linecap="round" stroke-linejoin="round"/>
</g>
</g>
</svg>
