<svg width="24" height="24" viewBox="0 0 24 24" fill="none" xmlns="http://www.w3.org/2000/svg">
<g id="fire">
<path id="shape" fill-rule="evenodd" clip-rule="evenodd" d="M12.693 2.2791C12.3059 1.90697 11.6941 1.90697 11.307 2.2791L11.3046 2.28133L11.2998 2.28602L11.2826 2.30267C11.2679 2.31696 11.2468 2.33762 11.2196 2.36436C11.1653 2.41786 11.0869 2.49577 10.9879 2.59601C10.7898 2.79644 10.5089 3.08653 10.1726 3.44963C9.50107 4.17466 8.60361 5.19651 7.70371 6.38113C6.8061 7.56273 5.89116 8.92569 5.19699 10.3324C4.5087 11.7272 4 13.2394 4 14.7C4 16.6462 4.4445 18.194 5.31017 19.3655C6.17886 20.5412 7.3938 21.2325 8.73528 21.6073C9.03241 21.6903 9.35121 21.6315 9.59919 21.4479C9.84716 21.2644 9.99656 20.9767 10.004 20.6683C10.0522 18.6783 10.5268 16.897 11.0893 15.634C11.372 14.9995 11.6624 14.5283 11.906 14.2342C11.9399 14.1933 11.9713 14.1578 12 14.1271C12.0287 14.1578 12.0601 14.1933 12.094 14.2342C12.3376 14.5283 12.628 14.9995 12.9107 15.634C13.4732 16.897 13.9478 18.6783 13.996 20.6683C14.0034 20.9767 14.1528 21.2644 14.4008 21.4479C14.6488 21.6315 14.9676 21.6903 15.2647 21.6073C16.6062 21.2325 17.8211 20.5412 18.6898 19.3655C19.5555 18.194 20 16.6462 20 14.7C20 13.2394 19.4913 11.7272 18.803 10.3324C18.1088 8.92569 17.1939 7.56273 16.2963 6.38113C15.3964 5.19651 14.4989 4.17466 13.8274 3.44963C13.4911 3.08653 13.2102 2.79644 13.0121 2.59601C12.9131 2.49577 12.8347 2.41786 12.7804 2.36436C12.7532 2.33762 12.7321 2.31696 12.7174 2.30267L12.7002 2.28602L12.6954 2.28133L12.693 2.2791ZM12 4.42523C11.89 4.54068 11.7694 4.66886 11.6399 4.80865C10.9989 5.50071 10.1464 6.47189 9.29629 7.59095C8.4439 8.71303 7.60884 9.9644 6.99051 11.2174C6.3663 12.4824 6 13.6753 6 14.7C6 16.3462 6.37402 17.4398 6.91869 18.177C7.23154 18.6004 7.62632 18.9408 8.10169 19.2081C8.29374 17.5127 8.73794 15.9976 9.2624 14.8202C9.5942 14.0753 9.97257 13.4331 10.3658 12.9583C10.5618 12.7218 10.7826 12.5011 11.0266 12.332C11.2603 12.1702 11.5958 12 12 12C12.4042 12 12.7397 12.1702 12.9734 12.332C13.2174 12.5011 13.4382 12.7218 13.6342 12.9583C14.0274 13.4331 14.4058 14.0753 14.7376 14.8202C15.2621 15.9976 15.7063 17.5127 15.8983 19.2081C16.3737 18.9408 16.7685 18.6004 17.0813 18.177C17.626 17.4398 18 16.3462 18 14.7C18 13.6753 17.6337 12.4824 17.0095 11.2174C16.3912 9.9644 15.5561 8.71303 14.7037 7.59095C13.8536 6.47189 13.0011 5.50071 12.3601 4.80865C12.2306 4.66886 12.11 4.54068 12 4.42523Z" fill="#FC9696"/>
</g>
</svg>
