<svg width="50" height="50" viewBox="0 0 50 50" fill="none" xmlns="http://www.w3.org/2000/svg">
<path d="M0 15C0 6.71573 6.71573 0 15 0H35C43.2843 0 50 6.71573 50 15V35C50 43.2843 43.2843 50 35 50H15C6.71573 50 0 43.2843 0 35V15Z" fill="#DCEFFF"/>
<path d="M18.3333 11.6665H17C13 11.6665 11.6666 14.0532 11.6666 16.9998V18.3332V36.9998C11.6666 38.1065 12.92 38.7332 13.8 38.0665L16.08 36.3598C16.6133 35.9598 17.36 36.0132 17.84 36.4932L20.0533 38.7198C20.5733 39.2398 21.4266 39.2398 21.9466 38.7198L24.1866 36.4798C24.6533 36.0132 25.4 35.9598 25.92 36.3598L28.2 38.0665C29.08 38.7198 30.3333 38.0932 30.3333 36.9998V14.3332C30.3333 12.8665 31.5333 11.6665 33 11.6665H18.3333ZM24 27.3332H18C17.4533 27.3332 17 26.8798 17 26.3332C17 25.7865 17.4533 25.3332 18 25.3332H24C24.5466 25.3332 25 25.7865 25 26.3332C25 26.8798 24.5466 27.3332 24 27.3332ZM25 21.9998H17C16.4533 21.9998 16 21.5465 16 20.9998C16 20.4532 16.4533 19.9998 17 19.9998H25C25.5466 19.9998 26 20.4532 26 20.9998C26 21.5465 25.5466 21.9998 25 21.9998Z" fill="#4C7DC4"/>
<path d="M33.0134 11.6665V13.6665C33.8934 13.6665 34.7334 14.0265 35.3467 14.6265C35.9867 15.2798 36.3334 16.1198 36.3334 16.9998V20.2265C36.3334 21.2132 35.8934 21.6665 34.8934 21.6665H32.3334V14.3465C32.3334 13.9732 32.64 13.6665 33.0134 13.6665V11.6665ZM33.0134 11.6665C31.5334 11.6665 30.3334 12.8665 30.3334 14.3465V23.6665H34.8934C37 23.6665 38.3334 22.3332 38.3334 20.2265V16.9998C38.3334 15.5332 37.7334 14.1998 36.7734 13.2265C35.8 12.2665 34.48 11.6798 33.0134 11.6665C33.0267 11.6665 33.0134 11.6665 33.0134 11.6665Z" fill="#4C7DC4"/>
</svg>
