<svg width="24" height="24" viewBox="0 0 24 24" fill="none" xmlns="http://www.w3.org/2000/svg">
<g clip-path="url(#clip0_1_15776)">
<path d="M12 24C18.6274 24 24 18.6274 24 12C24 5.37258 18.6274 0 12 0C5.37258 0 0 5.37258 0 12C0 18.6274 5.37258 24 12 24Z" fill="#F0F0F0"/>
<path d="M2.48044 4.69415C1.53783 5.92054 0.827067 7.33406 0.413208 8.86964H6.65593L2.48044 4.69415Z" fill="#0052B4"/>
<path d="M23.5867 8.86965C23.1729 7.33412 22.4621 5.9206 21.5195 4.69421L17.3441 8.86965H23.5867Z" fill="#0052B4"/>
<path d="M0.413208 15.1305C0.827114 16.666 1.53788 18.0795 2.48044 19.3059L6.65579 15.1305H0.413208Z" fill="#0052B4"/>
<path d="M19.3054 2.48066C18.0791 1.53805 16.6656 0.827282 15.13 0.413376V6.65605L19.3054 2.48066Z" fill="#0052B4"/>
<path d="M4.69409 21.5193C5.92048 22.4619 7.334 23.1727 8.86953 23.5866V17.3439L4.69409 21.5193Z" fill="#0052B4"/>
<path d="M8.86948 0.413376C7.33395 0.827282 5.92044 1.53805 4.69409 2.48061L8.86948 6.656V0.413376Z" fill="#0052B4"/>
<path d="M15.13 23.5866C16.6655 23.1727 18.0791 22.4619 19.3054 21.5193L15.13 17.3439V23.5866Z" fill="#0052B4"/>
<path d="M17.3441 15.1305L21.5195 19.3059C22.4621 18.0796 23.1729 16.666 23.5867 15.1305H17.3441Z" fill="#0052B4"/>
<path d="M23.8984 10.4348H13.5653V0.101578C13.0529 0.034875 12.5305 0 12 0C11.4694 0 10.9471 0.034875 10.4348 0.101578V10.4347H0.101578C0.034875 10.9471 0 11.4695 0 12C0 12.5306 0.034875 13.0529 0.101578 13.5652H10.4347V23.8984C10.9471 23.9651 11.4694 24 12 24C12.5305 24 13.0529 23.9652 13.5652 23.8984V13.5653H23.8984C23.9651 13.0529 24 12.5306 24 12C24 11.4695 23.9651 10.9471 23.8984 10.4348Z" fill="#E12F4F"/>
<path d="M15.1311 15.1305L20.4859 20.4853C20.7322 20.2391 20.9671 19.9817 21.1913 19.7149L16.6068 15.1304L15.1311 15.1305Z" fill="#E12F4F"/>
<path d="M8.87 15.1305L3.51514 20.4853C3.76132 20.7315 4.01871 20.9665 4.28553 21.1906L8.87 16.6061V15.1305Z" fill="#E12F4F"/>
<path d="M8.87049 8.86963L3.51568 3.51468C3.2694 3.76087 3.03446 4.01826 2.8103 4.28507L7.39482 8.86959L8.87049 8.86963Z" fill="#E12F4F"/>
<path d="M15.1311 8.86962L20.486 3.51472C20.2398 3.26843 19.9824 3.0335 19.7156 2.80939L15.1311 7.3939V8.86962Z" fill="#E12F4F"/>
</g>
<defs>
<clipPath id="clip0_1_15776">
<rect width="24" height="24" fill="white"/>
</clipPath>
</defs>
</svg>
