<svg width="20" height="20" viewBox="0 0 20 20" fill="none" xmlns="http://www.w3.org/2000/svg">
<g clip-path="url(#clip0_501_3318)">
<path d="M9.99996 1.66675C7.91556 3.94871 6.731 6.91011 6.66663 10.0001C6.731 13.0901 7.91556 16.0515 9.99996 18.3334C5.39759 18.3334 1.66663 14.6025 1.66663 10.0001C1.66663 5.39771 5.39759 1.66675 9.99996 1.66675ZM9.99996 1.66675C14.6023 1.66675 18.3333 5.39771 18.3333 10.0001M9.99996 1.66675C11.5132 3.32337 12.5521 5.33806 13.0325 7.50008M2.08331 7.50008H13.0325M17.9166 7.50008H13.0325M13.0325 7.50008C13.1067 7.83378 13.1675 8.17098 13.2148 8.51092M16.4484 13.7585L13.9484 11.2585M13.9484 11.2585L11.4484 13.7585M13.9484 11.2585L13.9484 17.0918M19.1567 13.9404C19.1567 16.8169 16.8248 19.1488 13.9484 19.1488C11.0719 19.1488 8.74002 16.8169 8.74002 13.9404C8.74002 11.064 11.0719 8.73211 13.9484 8.73211C16.8248 8.73211 19.1567 11.064 19.1567 13.9404Z" stroke="#008C79" stroke-width="2" stroke-linecap="round" stroke-linejoin="round"/>
</g>
<defs>
<clipPath id="clip0_501_3318">
<rect width="20" height="20" fill="white"/>
</clipPath>
</defs>
</svg>
