<svg width="40" height="40" viewBox="0 0 40 40" fill="none" xmlns="http://www.w3.org/2000/svg">
<rect width="40" height="40" rx="10" fill="#FFF4D1"/>
<path d="M20 32C26.6274 32 32 26.6274 32 20C32 13.3726 26.6274 8 20 8C13.3726 8 8 13.3726 8 20C8 26.6274 13.3726 32 20 32Z" fill="#D59E6B"/>
<path d="M8 20H32" stroke="#FFEBCC" stroke-width="2" stroke-linecap="round" stroke-linejoin="round"/>
<path d="M20 8C23.0015 11.286 24.7073 15.5504 24.8 20C24.7073 24.4496 23.0015 28.714 20 32C16.9985 28.714 15.2927 24.4496 15.2 20C15.2927 15.5504 16.9985 11.286 20 8Z" stroke="#FFEBCC" stroke-width="2" stroke-linecap="round" stroke-linejoin="round"/>
</svg>
