<svg width="181" height="52" viewBox="0 0 181 52" fill="none" xmlns="http://www.w3.org/2000/svg">
<path d="M173.897 52H7.2299C3.5649 52 0.563232 49.0734 0.563232 45.5V6.5C0.563232 2.92663 3.5649 2.74817e-06 7.2299 2.74817e-06H173.897C177.562 2.74817e-06 180.563 2.92663 180.563 6.5V45.5C180.563 49.0734 177.562 52 173.897 52Z" fill="black"/>
<path d="M173.897 1.04162C176.983 1.04162 179.495 3.4905 179.495 6.5V45.5C179.495 48.5095 176.983 50.9584 173.897 50.9584H7.2299C4.14323 50.9584 1.63157 48.5095 1.63157 45.5V6.5C1.63157 3.4905 4.14323 1.04162 7.2299 1.04162H173.897ZM173.897 2.74817e-06H7.2299C3.5649 2.74817e-06 0.563232 2.92663 0.563232 6.5V45.5C0.563232 49.0734 3.5649 52 7.2299 52H173.897C177.562 52 180.563 49.0734 180.563 45.5V6.5C180.563 2.92663 177.562 2.74817e-06 173.897 2.74817e-06Z" fill="#A6A6A6"/>
<path d="M63.7866 13.3169C63.7866 14.4024 63.4533 15.2718 62.7966 15.9202C62.0416 16.6888 61.0583 17.0756 59.8533 17.0756C58.7016 17.0756 57.7183 16.6823 56.9116 15.9072C56.1033 15.1207 55.7 14.1554 55.7 13.0001C55.7 11.8447 56.1033 10.8794 56.9116 10.0994C57.7183 9.31781 58.7016 8.92456 59.8533 8.92456C60.4266 8.92456 60.9733 9.03994 61.4949 9.25444C62.0149 9.47056 62.4383 9.76306 62.7449 10.1238L62.0483 10.8096C61.5133 10.1937 60.785 9.88981 59.8533 9.88981C59.0133 9.88981 58.285 10.1758 57.6666 10.7527C57.055 11.3312 56.7483 12.0803 56.7483 13.0001C56.7483 13.9198 57.055 14.6754 57.6666 15.2539C58.285 15.8243 59.0133 16.1168 59.8533 16.1168C60.745 16.1168 61.495 15.8243 62.0866 15.2474C62.4766 14.8656 62.6983 14.3391 62.7566 13.6663H59.8533V12.7271H63.7266C63.7733 12.9302 63.7866 13.1268 63.7866 13.3169Z" fill="white" stroke="white" stroke-width="0.16" stroke-miterlimit="10"/>
<path d="M69.9315 10.0604H66.2932V12.5304H69.5732V13.4696H66.2932V15.9396H69.9315V16.8968H65.2632V9.10327H69.9315V10.0604Z" fill="white" stroke="white" stroke-width="0.16" stroke-miterlimit="10"/>
<path d="M74.2683 16.8968H73.2383V10.0604H71.0066V9.10327H76.5016V10.0604H74.2683V16.8968Z" fill="white" stroke="white" stroke-width="0.16" stroke-miterlimit="10"/>
<path d="M80.4785 16.8968V9.10327H81.5069V16.8968H80.4785Z" fill="white" stroke="white" stroke-width="0.16" stroke-miterlimit="10"/>
<path d="M86.0649 16.8968H85.0432V10.0604H82.8032V9.10327H88.3049V10.0604H86.0649V16.8968Z" fill="white" stroke="white" stroke-width="0.16" stroke-miterlimit="10"/>
<path d="M98.7081 15.8942C97.9198 16.6823 96.9431 17.0756 95.7781 17.0756C94.6064 17.0756 93.6298 16.6823 92.8414 15.8942C92.0548 15.1077 91.6631 14.1424 91.6631 13.0001C91.6631 11.8577 92.0548 10.8924 92.8414 10.1059C93.6298 9.31781 94.6064 8.92456 95.7781 8.92456C96.9364 8.92456 97.9131 9.31781 98.7014 10.1124C99.4948 10.9054 99.8864 11.8642 99.8864 13.0001C99.8864 14.1424 99.4948 15.1077 98.7081 15.8942ZM93.6031 15.2409C94.1964 15.8243 94.9181 16.1168 95.7781 16.1168C96.6314 16.1168 97.3598 15.8243 97.9464 15.2409C98.5381 14.6576 98.8381 13.9084 98.8381 13.0001C98.8381 12.0917 98.5381 11.3426 97.9464 10.7592C97.3598 10.1758 96.6314 9.88331 95.7781 9.88331C94.9181 9.88331 94.1964 10.1758 93.6031 10.7592C93.0114 11.3426 92.7114 12.0917 92.7114 13.0001C92.7114 13.9084 93.0114 14.6576 93.6031 15.2409Z" fill="white" stroke="white" stroke-width="0.16" stroke-miterlimit="10"/>
<path d="M101.332 16.8968V9.10327H102.582L106.468 15.1645H106.513L106.468 13.6663V9.10327H107.497V16.8968H106.423L102.353 10.5365H102.308L102.353 12.0413V16.8968H101.332Z" fill="white" stroke="white" stroke-width="0.16" stroke-miterlimit="10"/>
<path d="M35.4391 32.9102L19.4085 41.8958L19.3584 41.9201C18.7897 42.2532 18.1207 42.4401 17.4099 42.4401C15.6288 42.4401 14.1319 41.2621 13.6971 39.6697C13.6915 39.6643 13.6887 39.6616 13.6887 39.6616L27.9381 24.9727L35.4391 32.9102Z" fill="#EA4335"/>
<path d="M44.3531 25.7526C44.3531 27.1744 43.5336 28.4174 42.3211 29.0511L35.4389 32.9102L27.6118 25.3057L35.4138 18.5625L42.3295 22.4622L42.3462 22.4703C43.542 23.104 44.3531 24.3389 44.3531 25.7526Z" fill="#FBBC04"/>
<path d="M28.423 25.3463L13.6887 39.6615C13.605 39.3528 13.5632 39.0359 13.5632 38.7028V12.7454C13.5632 12.4123 13.605 12.0873 13.6887 11.7786L28.423 25.3463Z" fill="#4285F4"/>
<path d="M13.6887 11.7785C14.1319 10.178 15.6288 9 17.4099 9C18.1375 9 18.8148 9.20311 19.4002 9.53621L35.414 18.5624L28.0384 25.72L13.6887 11.7785Z" fill="#34A853"/>
<path d="M91.4099 28.2783C88.2782 28.2783 85.7199 30.602 85.7199 33.8082C85.7199 36.9883 88.2782 39.3364 91.4099 39.3364C94.5482 39.3364 97.1065 36.9883 97.1065 33.8082C97.1065 30.602 94.5482 28.2783 91.4099 28.2783ZM91.4099 37.1589C89.6915 37.1589 88.2132 35.776 88.2132 33.8082C88.2132 31.8143 89.6915 30.4558 91.4099 30.4558C93.1282 30.4558 94.6132 31.8143 94.6132 33.8082C94.6132 35.776 93.1282 37.1589 91.4099 37.1589ZM78.9949 28.2783C75.8565 28.2783 73.3049 30.602 73.3049 33.8082C73.3049 36.9883 75.8565 39.3364 78.9949 39.3364C82.1315 39.3364 84.6849 36.9883 84.6849 33.8082C84.6849 30.602 82.1315 28.2783 78.9949 28.2783ZM78.9949 37.1589C77.2749 37.1589 75.7915 35.776 75.7915 33.8082C75.7915 31.8143 77.2749 30.4558 78.9949 30.4558C80.7132 30.4558 82.1915 31.8143 82.1915 33.8082C82.1915 35.776 80.7132 37.1589 78.9949 37.1589ZM64.2215 29.9732V32.3229H69.9765C69.8082 33.6359 69.3582 34.6012 68.6682 35.2739C67.8282 36.0864 66.5199 36.9883 64.2215 36.9883C60.6799 36.9883 57.9065 34.2014 57.9065 30.7483C57.9065 27.2952 60.6799 24.5083 64.2215 24.5083C66.1365 24.5083 67.5299 25.2379 68.5582 26.1837L70.2565 24.5278C68.8182 23.1888 66.9049 22.1602 64.2215 22.1602C59.3649 22.1602 55.2832 26.013 55.2832 30.7483C55.2832 35.4835 59.3649 39.3364 64.2215 39.3364C66.8465 39.3364 68.8182 38.4979 70.3682 36.9249C71.9565 35.3763 72.4515 33.1988 72.4515 31.4405C72.4515 30.8945 72.4049 30.3924 72.3215 29.9732H64.2215ZM124.632 31.7948C124.163 30.5582 122.718 28.2783 119.775 28.2783C116.858 28.2783 114.43 30.5192 114.43 33.8082C114.43 36.9054 116.833 39.3364 120.055 39.3364C122.66 39.3364 124.163 37.7878 124.782 36.8859L122.848 35.6298C122.203 36.5495 121.325 37.1589 120.055 37.1589C118.793 37.1589 117.888 36.595 117.308 35.4835L124.893 32.4237L124.632 31.7948ZM116.898 33.6359C116.833 31.5039 118.597 30.4119 119.86 30.4119C120.85 30.4119 121.69 30.8945 121.97 31.5852L116.898 33.6359ZM110.733 39H113.227V22.75H110.733V39ZM106.65 29.51H106.567C106.007 28.8633 104.938 28.2783 103.585 28.2783C100.745 28.2783 98.1482 30.7093 98.1482 33.826C98.1482 36.9249 100.745 39.3364 103.585 39.3364C104.938 39.3364 106.007 38.7465 106.567 38.0803H106.65V38.8733C106.65 40.9874 105.492 42.1233 103.623 42.1233C102.1 42.1233 101.155 41.0508 100.765 40.1489L98.5965 41.0313C99.2215 42.497 100.877 44.3008 103.623 44.3008C106.547 44.3008 109.013 42.6238 109.013 38.5434V28.6147H106.65V29.51ZM103.798 37.1589C102.08 37.1589 100.642 35.7565 100.642 33.826C100.642 31.8777 102.08 30.4558 103.798 30.4558C105.492 30.4558 106.827 31.8777 106.827 33.826C106.827 35.7565 105.492 37.1589 103.798 37.1589ZM136.305 22.75H130.342V39H132.828V32.8429H136.305C139.067 32.8429 141.775 30.8945 141.775 27.7957C141.775 24.6984 139.06 22.75 136.305 22.75ZM136.37 30.5825H132.828V25.0104H136.37C138.227 25.0104 139.287 26.5135 139.287 27.7957C139.287 29.0534 138.227 30.5825 136.37 30.5825ZM151.742 28.2474C149.945 28.2474 148.076 29.0209 147.308 30.7353L149.515 31.6372C149.99 30.7353 150.863 30.4428 151.786 30.4428C153.077 30.4428 154.385 31.1984 154.405 32.5325V32.7032C153.955 32.4497 152.992 32.0743 151.806 32.0743C149.43 32.0743 147.008 33.3499 147.008 35.7305C147.008 37.908 148.955 39.3104 151.143 39.3104C152.816 39.3104 153.74 38.5743 154.32 37.7179H154.405V38.974H156.807V32.7405C156.807 29.8594 154.6 28.2474 151.742 28.2474ZM151.441 37.1524C150.628 37.1524 149.495 36.7592 149.495 35.776C149.495 34.5183 150.908 34.0357 152.132 34.0357C153.227 34.0357 153.74 34.2713 154.405 34.5817C154.21 36.0864 152.881 37.1524 151.441 37.1524ZM165.556 28.6033L162.698 35.6477H162.613L159.658 28.6033H156.976L161.416 38.4475L158.883 43.9254H161.481L168.323 28.6033H165.556ZM143.141 39H145.635V22.75H143.141V39Z" fill="white"/>
</svg>
