<svg width="24" height="24" viewBox="0 0 24 24" fill="none" xmlns="http://www.w3.org/2000/svg">
<g id="Frame 101">
<g id="g1231">
<path id="path1192" fill-rule="evenodd" clip-rule="evenodd" d="M4.35509 2.05148C4.1296 2.29311 4 2.66502 4 3.14829V20.338C4 20.8213 4.1296 21.1932 4.36352 21.4264L4.42463 21.4779L14.0848 11.8461V11.6297L4.4162 2L4.35509 2.05148Z" fill="url(#paint0_linear_4586_105131)"/>
<path id="path1203" fill-rule="evenodd" clip-rule="evenodd" d="M17.2983 15.0693L14.0762 11.8556V11.6307L17.2994 8.41699L17.3689 8.46007L21.1812 10.6201C22.2728 11.2336 22.2728 12.2443 21.1812 12.8662L17.3689 15.0262C17.3679 15.0262 17.2983 15.0693 17.2983 15.0693Z" fill="url(#paint1_linear_4586_105131)"/>
<path id="path1210" fill-rule="evenodd" clip-rule="evenodd" d="M17.3671 15.0263L14.0754 11.7432L4.35413 21.4359C4.70922 21.8162 5.30666 21.8593 5.97469 21.4874L17.3671 15.0263Z" fill="url(#paint2_linear_4586_105131)"/>
<path id="path1223" fill-rule="evenodd" clip-rule="evenodd" d="M17.3671 8.46107L5.97469 2.00836C5.30771 1.62804 4.70922 1.67952 4.35413 2.05984L14.0744 11.7431L17.3671 8.46107Z" fill="url(#paint3_linear_4586_105131)"/>
<path id="path1225" opacity="0.2" fill-rule="evenodd" clip-rule="evenodd" d="M17.2987 14.9565L5.98421 21.3662C5.352 21.7286 4.78828 21.7034 4.42476 21.3746L4.36365 21.4355L4.42476 21.487C4.78828 21.8148 5.352 21.8411 5.98421 21.4786L17.3766 15.0259L17.2987 14.9565Z" fill="black"/>
<path id="path1227" opacity="0.12" fill-rule="evenodd" clip-rule="evenodd" d="M21.1802 12.7533L17.29 14.9564L17.3596 15.0258L21.1718 12.8658C21.7176 12.5548 21.9863 12.1493 21.9863 11.7427C21.9515 12.1146 21.6744 12.4686 21.1802 12.7533Z" fill="black"/>
<path id="path1229" opacity="0.25" fill-rule="evenodd" clip-rule="evenodd" d="M5.97566 2.12065L21.1803 10.7334C21.6745 11.0097 21.9516 11.3721 21.9948 11.744C21.9948 11.3385 21.7261 10.9319 21.1803 10.621L5.97566 2.00824C4.88404 1.38629 4 1.90423 4 3.14813V3.26054C4 2.01664 4.88404 1.50711 5.97566 2.12065Z" fill="white"/>
</g>
</g>
<defs>
<linearGradient id="paint0_linear_4586_105131" x1="13.2174" y1="2.96352" x2="-2.25051" y2="7.09709" gradientUnits="userSpaceOnUse">
<stop stop-color="#00A0FF"/>
<stop offset="0.007" stop-color="#00A1FF"/>
<stop offset="0.26" stop-color="#00BEFF"/>
<stop offset="0.512" stop-color="#00D2FF"/>
<stop offset="0.76" stop-color="#00DFFF"/>
<stop offset="1" stop-color="#00E3FF"/>
</linearGradient>
<linearGradient id="paint1_linear_4586_105131" x1="22.6016" y1="11.7436" x2="3.73449" y2="11.7436" gradientUnits="userSpaceOnUse">
<stop stop-color="#FFE000"/>
<stop offset="0.409" stop-color="#FFBD00"/>
<stop offset="0.775" stop-color="#FFA500"/>
<stop offset="1" stop-color="#FF9C00"/>
</linearGradient>
<linearGradient id="paint2_linear_4586_105131" x1="15.5772" y1="13.5292" x2="3.20859" y2="34.4076" gradientUnits="userSpaceOnUse">
<stop stop-color="#FF3A44"/>
<stop offset="1" stop-color="#C31162"/>
</linearGradient>
<linearGradient id="paint3_linear_4586_105131" x1="1.90704" y1="-3.66671" x2="7.42503" y2="5.65792" gradientUnits="userSpaceOnUse">
<stop stop-color="#32A071"/>
<stop offset="0.069" stop-color="#2DA771"/>
<stop offset="0.476" stop-color="#15CF74"/>
<stop offset="0.801" stop-color="#06E775"/>
<stop offset="1" stop-color="#00F076"/>
</linearGradient>
</defs>
</svg>
