<svg width="181" height="52" viewBox="0 0 181 52" fill="none" xmlns="http://www.w3.org/2000/svg">
<path d="M173.897 52H7.23014C3.56514 52 0.563477 49.0734 0.563477 45.5V6.5C0.563477 2.92663 3.56514 2.74817e-06 7.23014 2.74817e-06H173.897C177.562 2.74817e-06 180.563 2.92663 180.563 6.5V45.5C180.563 49.0734 177.562 52 173.897 52Z" fill="black"/>
<path d="M173.897 1.04162C176.983 1.04162 179.495 3.4905 179.495 6.5V45.5C179.495 48.5095 176.983 50.9584 173.897 50.9584H7.23014C4.14348 50.9584 1.63181 48.5095 1.63181 45.5V6.5C1.63181 3.4905 4.14348 1.04162 7.23014 1.04162H173.897ZM173.897 2.74817e-06H7.23014C3.56514 2.74817e-06 0.563477 2.92663 0.563477 6.5V45.5C0.563477 49.0734 3.56514 52 7.23014 52H173.897C177.562 52 180.563 49.0734 180.563 45.5V6.5C180.563 2.92663 177.562 2.74817e-06 173.897 2.74817e-06Z" fill="#A6A6A6"/>
<path d="M63.7869 13.3169C63.7869 14.4024 63.4535 15.2718 62.7969 15.9201C62.0419 16.6887 61.0585 17.0755 59.8535 17.0755C58.7019 17.0755 57.7185 16.6822 56.9119 15.9071C56.1035 15.1206 55.7002 14.1554 55.7002 13C55.7002 11.8446 56.1035 10.8794 56.9119 10.0994C57.7185 9.31775 58.7019 8.9245 59.8535 8.9245C60.4269 8.9245 60.9735 9.03987 61.4952 9.25437C62.0152 9.4705 62.4385 9.763 62.7452 10.1237L62.0485 10.8095C61.5135 10.1936 60.7852 9.88975 59.8535 9.88975C59.0135 9.88975 58.2852 10.1757 57.6669 10.7526C57.0552 11.3311 56.7485 12.0802 56.7485 13C56.7485 13.9197 57.0552 14.6754 57.6669 15.2539C58.2852 15.8242 59.0135 16.1167 59.8535 16.1167C60.7452 16.1167 61.4952 15.8242 62.0869 15.2474C62.4769 14.8655 62.6985 14.339 62.7569 13.6662H59.8535V12.727H63.7269C63.7735 12.9301 63.7869 13.1267 63.7869 13.3169Z" fill="white" stroke="white" stroke-width="0.16" stroke-miterlimit="10"/>
<path d="M69.932 10.0604H66.2937V12.5304H69.5737V13.4696H66.2937V15.9396H69.932V16.8968H65.2637V9.10327H69.932V10.0604Z" fill="white" stroke="white" stroke-width="0.16" stroke-miterlimit="10"/>
<path d="M74.2685 16.8968H73.2385V10.0604H71.0068V9.10327H76.5018V10.0604H74.2685V16.8968Z" fill="white" stroke="white" stroke-width="0.16" stroke-miterlimit="10"/>
<path d="M80.4785 16.8968V9.10327H81.5069V16.8968H80.4785Z" fill="white" stroke="white" stroke-width="0.16" stroke-miterlimit="10"/>
<path d="M86.0654 16.8968H85.0437V10.0604H82.8037V9.10327H88.3054V10.0604H86.0654V16.8968Z" fill="white" stroke="white" stroke-width="0.16" stroke-miterlimit="10"/>
<path d="M98.7086 15.8941C97.9202 16.6822 96.9436 17.0755 95.7786 17.0755C94.6069 17.0755 93.6302 16.6822 92.8419 15.8941C92.0552 15.1076 91.6636 14.1424 91.6636 13C91.6636 11.8576 92.0552 10.8924 92.8419 10.1059C93.6302 9.31775 94.6069 8.9245 95.7786 8.9245C96.9369 8.9245 97.9136 9.31775 98.7019 10.1124C99.4952 10.9054 99.8869 11.8641 99.8869 13C99.8869 14.1424 99.4952 15.1076 98.7086 15.8941ZM93.6036 15.2409C94.1969 15.8242 94.9186 16.1167 95.7786 16.1167C96.6319 16.1167 97.3602 15.8242 97.9469 15.2409C98.5386 14.6575 98.8386 13.9084 98.8386 13C98.8386 12.0916 98.5386 11.3425 97.9469 10.7591C97.3602 10.1758 96.6319 9.88325 95.7786 9.88325C94.9186 9.88325 94.1969 10.1758 93.6036 10.7591C93.0119 11.3425 92.7119 12.0916 92.7119 13C92.7119 13.9084 93.0119 14.6575 93.6036 15.2409Z" fill="white" stroke="white" stroke-width="0.16" stroke-miterlimit="10"/>
<path d="M101.332 16.8968V9.10327H102.582L106.469 15.1645H106.514L106.469 13.6663V9.10327H107.497V16.8968H106.424L102.354 10.5365H102.309L102.354 12.0413V16.8968H101.332Z" fill="white" stroke="white" stroke-width="0.16" stroke-miterlimit="10"/>
<path d="M35.4393 32.9101L19.4088 41.8956L19.3586 41.92C18.79 42.2531 18.121 42.44 17.4102 42.44C15.629 42.44 14.1322 41.2619 13.6973 39.6696C13.6918 39.6641 13.689 39.6614 13.689 39.6614L27.9383 24.9725L35.4393 32.9101Z" fill="#EA4335"/>
<path d="M44.3536 25.7525C44.3536 27.1743 43.5341 28.4173 42.3216 29.051L35.4394 32.9101L27.6123 25.3057L35.4143 18.5624L42.33 22.4621L42.3467 22.4703C43.5425 23.104 44.3536 24.3389 44.3536 25.7525Z" fill="#FBBC04"/>
<path d="M28.4233 25.3463L13.6889 39.6615C13.6053 39.3528 13.5635 39.0359 13.5635 38.7028V12.7454C13.5635 12.4123 13.6053 12.0873 13.6889 11.7786L28.4233 25.3463Z" fill="#4285F4"/>
<path d="M13.689 11.7785C14.1322 10.178 15.629 9 17.4102 9C18.1377 9 18.8151 9.20311 19.4004 9.53621L35.4142 18.5624L28.0387 25.72L13.689 11.7785Z" fill="#34A853"/>
<path d="M91.4103 28.2783C88.2787 28.2783 85.7203 30.602 85.7203 33.8082C85.7203 36.9883 88.2787 39.3364 91.4103 39.3364C94.5487 39.3364 97.107 36.9883 97.107 33.8082C97.107 30.602 94.5487 28.2783 91.4103 28.2783ZM91.4103 37.1589C89.692 37.1589 88.2137 35.776 88.2137 33.8082C88.2137 31.8143 89.692 30.4558 91.4103 30.4558C93.1287 30.4558 94.6137 31.8143 94.6137 33.8082C94.6137 35.776 93.1287 37.1589 91.4103 37.1589ZM78.9953 28.2783C75.857 28.2783 73.3054 30.602 73.3054 33.8082C73.3054 36.9883 75.857 39.3364 78.9953 39.3364C82.132 39.3364 84.6853 36.9883 84.6853 33.8082C84.6853 30.602 82.132 28.2783 78.9953 28.2783ZM78.9953 37.1589C77.2753 37.1589 75.792 35.776 75.792 33.8082C75.792 31.8143 77.2753 30.4558 78.9953 30.4558C80.7137 30.4558 82.192 31.8143 82.192 33.8082C82.192 35.776 80.7137 37.1589 78.9953 37.1589ZM64.222 29.9732V32.3229H69.977C69.8087 33.6359 69.3587 34.6012 68.6687 35.2739C67.8287 36.0864 66.5204 36.9883 64.222 36.9883C60.6804 36.9883 57.907 34.2014 57.907 30.7483C57.907 27.2952 60.6804 24.5083 64.222 24.5083C66.137 24.5083 67.5304 25.2379 68.5587 26.1837L70.257 24.5278C68.8187 23.1888 66.9054 22.1602 64.222 22.1602C59.3654 22.1602 55.2837 26.013 55.2837 30.7483C55.2837 35.4835 59.3654 39.3364 64.222 39.3364C66.847 39.3364 68.8187 38.4979 70.3687 36.9249C71.957 35.3763 72.452 33.1988 72.452 31.4405C72.452 30.8945 72.4054 30.3924 72.322 29.9732H64.222ZM124.632 31.7948C124.164 30.5582 122.719 28.2783 119.775 28.2783C116.859 28.2783 114.43 30.5192 114.43 33.8082C114.43 36.9054 116.834 39.3364 120.055 39.3364C122.66 39.3364 124.164 37.7878 124.782 36.8859L122.849 35.6298C122.204 36.5495 121.325 37.1589 120.055 37.1589C118.794 37.1589 117.889 36.595 117.309 35.4835L124.894 32.4237L124.632 31.7948ZM116.899 33.6359C116.834 31.5039 118.597 30.4119 119.86 30.4119C120.85 30.4119 121.69 30.8945 121.97 31.5852L116.899 33.6359ZM110.734 39H113.227V22.75H110.734V39ZM106.65 29.51H106.567C106.007 28.8633 104.939 28.2783 103.585 28.2783C100.745 28.2783 98.1487 30.7093 98.1487 33.826C98.1487 36.9249 100.745 39.3364 103.585 39.3364C104.939 39.3364 106.007 38.7465 106.567 38.0803H106.65V38.8733C106.65 40.9874 105.492 42.1233 103.624 42.1233C102.1 42.1233 101.155 41.0508 100.765 40.1489L98.597 41.0313C99.222 42.497 100.877 44.3008 103.624 44.3008C106.547 44.3008 109.014 42.6238 109.014 38.5434V28.6147H106.65V29.51ZM103.799 37.1589C102.08 37.1589 100.642 35.7565 100.642 33.826C100.642 31.8777 102.08 30.4558 103.799 30.4558C105.492 30.4558 106.827 31.8777 106.827 33.826C106.827 35.7565 105.492 37.1589 103.799 37.1589ZM136.305 22.75H130.342V39H132.829V32.8429H136.305C139.067 32.8429 141.775 30.8945 141.775 27.7957C141.775 24.6984 139.06 22.75 136.305 22.75ZM136.37 30.5825H132.829V25.0104H136.37C138.227 25.0104 139.287 26.5135 139.287 27.7957C139.287 29.0534 138.227 30.5825 136.37 30.5825ZM151.742 28.2474C149.945 28.2474 148.077 29.0209 147.309 30.7353L149.515 31.6372C149.99 30.7353 150.864 30.4428 151.787 30.4428C153.077 30.4428 154.385 31.1984 154.405 32.5325V32.7032C153.955 32.4497 152.992 32.0743 151.807 32.0743C149.43 32.0743 147.009 33.3499 147.009 35.7305C147.009 37.908 148.955 39.3104 151.144 39.3104C152.817 39.3104 153.74 38.5743 154.32 37.7179H154.405V38.974H156.807V32.7405C156.807 29.8594 154.6 28.2474 151.742 28.2474ZM151.442 37.1524C150.629 37.1524 149.495 36.7592 149.495 35.776C149.495 34.5183 150.909 34.0357 152.132 34.0357C153.227 34.0357 153.74 34.2713 154.405 34.5817C154.21 36.0864 152.882 37.1524 151.442 37.1524ZM165.557 28.6033L162.699 35.6477H162.614L159.659 28.6033H156.977L161.417 38.4475L158.884 43.9254H161.482L168.324 28.6033H165.557ZM143.142 39H145.635V22.75H143.142V39Z" fill="white"/>
</svg>
