<svg width="18" height="20" viewBox="0 0 18 20" fill="none" xmlns="http://www.w3.org/2000/svg">
<g id="Group">
<path id="Vector" opacity="0.4" d="M8.78999 8.67274L8.73199 8.93774C8.4804 10.1074 8.01675 11.2211 7.36399 12.2237M7.36399 12.2237C8.44427 11.7485 9.58733 11.4313 10.758 11.2817L10.853 11.2687M7.36399 12.2237C6.94666 12.4064 6.53732 12.6124 6.13599 12.8417L4.42999 13.8167C3.95499 14.0877 3.85299 14.8107 4.22799 15.2397C4.55999 15.6187 5.10799 15.5777 5.39299 15.1527L7.30299 12.3157L7.36399 12.2237ZM8.78899 8.67274L9.25599 6.53674C9.41799 5.79874 8.69999 5.22074 8.14599 5.64274C7.84899 5.86874 7.73899 6.30774 7.88599 6.67974L8.13199 7.29674C8.32266 7.77607 8.54166 8.23474 8.78899 8.67274ZM8.78899 8.67274C9.3337 9.64291 10.0306 10.5194 10.853 11.2687M10.853 11.2687L13.108 10.9827C13.74 10.9027 14.198 11.6537 13.914 12.3027C13.707 12.7767 13.193 12.9517 12.793 12.6847L11.942 12.1167C11.5587 11.8611 11.1947 11.5777 10.853 11.2687Z" stroke="#7C8897"/>
<path id="Vector_2" d="M4.79199 19.25H13.208C14.1363 19.25 15.0265 18.8813 15.6829 18.2249C16.3392 17.5685 16.708 16.6783 16.708 15.75V10.22C16.7083 9.29186 16.34 8.40159 15.684 7.745L9.71499 1.775C9.38996 1.45 9.0041 1.19221 8.57944 1.01634C8.15478 0.840469 7.69963 0.749967 7.23999 0.75H4.79199C3.86373 0.75 2.9735 1.11875 2.31712 1.77513C1.66074 2.4315 1.29199 3.32174 1.29199 4.25V15.75C1.29199 16.6783 1.66074 17.5685 2.31712 18.2249C2.9735 18.8813 3.86373 19.25 4.79199 19.25Z" stroke="#7C8897" stroke-width="1.5" stroke-linecap="round" stroke-linejoin="round"/>
</g>
</svg>
