<svg width="48" height="48" viewBox="0 0 48 48" fill="none" xmlns="http://www.w3.org/2000/svg">
<path d="M33.0675 6.29268C33.0512 6.31294 33.0324 6.33515 33.0122 6.35895C32.8835 6.51056 32.7 6.72686 32.7658 6.91666C32.8139 7.05441 33.0185 7.08489 33.2123 7.11375C33.325 7.13053 33.434 7.14677 33.5064 7.18324C33.8433 7.35376 33.9791 7.69587 33.9687 8.0592C33.9603 8.34807 33.9555 10.3326 33.9483 13.343L33.9482 13.345L33.9482 13.3541V13.3545L33.9482 13.3648C33.9449 14.7558 33.941 16.3649 33.936 18.1262C29.0879 18.0978 24.2405 18.0687 19.3928 18.0396L19.3299 18.0392C19.2352 16.8173 19.2035 15.4472 19.2899 13.9563C19.3695 12.582 19.5435 11.2136 19.8094 9.86365C19.9259 9.27272 20.0599 8.68528 20.2111 8.10236C20.2672 7.88575 20.3566 7.65254 20.4484 7.41281C20.6283 6.94307 20.8179 6.44831 20.7857 6.00452C20.7795 5.91474 20.7585 5.8225 20.7023 5.7522C20.5714 5.58864 20.3206 5.61544 20.1188 5.66764C18.879 5.98921 17.6736 6.65739 16.7238 7.5222C16.432 7.78808 15.6504 8.53772 14.9421 9.81911C13.0677 13.2102 12.921 18.0124 12.921 18.0124C12.8262 21.1177 12.705 27.4098 15.9794 33.9427C15.9794 33.9427 18.2744 38.5223 21.556 39.6505C22.2043 39.874 22.3804 39.726 22.4362 39.6533C22.6433 39.3855 22.3236 38.9612 22.108 38.6752C22.0572 38.6077 22.0121 38.5479 21.9811 38.4996C21.6821 38.0323 21.4265 37.5374 21.2063 37.0279C20.7509 35.9738 20.4495 34.8577 20.2245 33.7325C19.539 30.3077 19.0956 26.8422 19.1904 23.345H33.936V36.4899C33.936 37.3613 34.2877 38.1983 35.0835 38.6075C35.5627 38.8543 36.1049 38.9416 36.6389 39.0081C37.5735 39.1254 38.5271 39.1908 39.4513 39.0112C39.9925 38.9065 40.5323 38.7088 40.9361 38.3305C41.5861 37.7201 41.5961 36.8946 41.5961 36.0632C41.5961 32.9706 41.6096 29.8779 41.623 26.7853C41.6383 23.2756 41.6536 19.7659 41.6492 16.2563C41.6471 14.6186 41.6361 12.9812 41.6164 11.3438C41.5899 9.12064 40.9061 6.88117 38.9625 5.63389C38.123 5.09516 37.1611 4.80005 36.2207 4.80005C35.0411 4.80005 33.8957 5.26395 33.0675 6.29268Z" fill="white"/>
<path d="M7.87558 22.0786C7.96962 19.3631 8.12257 16.6318 10.0603 14.2921C10.1655 14.1651 10.2659 14.0323 10.3664 13.8993C10.7736 13.3609 11.1824 12.8203 11.9106 12.6551C10.7183 16.2372 10.6983 20.3208 11.1734 24.0337C11.3308 25.264 11.5947 26.4497 11.8717 27.6531C13.1425 33.1764 15.4637 39.5434 21.4148 41.3022C22.2839 41.5591 21.9601 42.1016 21.4706 42.4552C20.4757 43.1749 19.1336 43.2069 18.9076 43.1992C13.3682 43.0137 10.1292 40.6048 10.1292 40.6048C6.42354 37.8492 4.8754 33.7865 4.85025 31.6998C4.84405 31.1625 4.9312 30.1512 5.27604 29.0539C5.38249 28.7146 5.87615 27.1415 6.31296 27.1864C6.57193 27.2132 6.69254 27.7961 6.82803 28.4509C6.85077 28.5608 6.87394 28.6728 6.89825 28.7845C7.49904 31.5515 8.6779 33.616 9.62387 35.2725C9.97835 35.8934 10.5182 36.7659 11.2857 37.7573C11.8173 38.3604 12.6258 39.148 13.7588 39.8531C14.9828 40.6145 16.1282 40.9956 16.9367 41.1961C15.917 40.5154 14.5877 39.4873 13.2634 38.0083C12.8917 37.5931 11.6336 36.1516 10.4748 33.9626C9.95872 32.9875 7.65544 28.4525 7.87558 22.0786Z" fill="white"/>
</svg>
