<svg width="24" height="24" viewBox="0 0 24 24" fill="none" xmlns="http://www.w3.org/2000/svg">
<path d="M16.5347 3.14622C16.5266 3.15635 16.5172 3.16745 16.5071 3.17935C16.4427 3.25516 16.3509 3.36331 16.3838 3.45821C16.4079 3.52708 16.5102 3.54232 16.6071 3.55675C16.6634 3.56514 16.7179 3.57326 16.7542 3.5915C16.9226 3.67676 16.9905 3.84781 16.9853 4.02948C16.9811 4.17391 16.9787 5.16617 16.9751 6.67139L16.9751 6.67237L16.9751 6.67694V6.67713L16.9751 6.68227C16.9734 7.3778 16.9715 8.18233 16.969 9.06298C14.5449 9.04877 12.1212 9.03422 9.69735 9.01966L9.6659 9.01948C9.61854 8.40854 9.60269 7.72347 9.64592 6.97803C9.68571 6.29087 9.7727 5.60668 9.90568 4.9317C9.96389 4.63624 10.0309 4.34252 10.1065 4.05106C10.1346 3.94275 10.1792 3.82615 10.2252 3.70628C10.3151 3.47141 10.4099 3.22403 10.3938 3.00214C10.3907 2.95725 10.3802 2.91113 10.3521 2.87598C10.2867 2.7942 10.1613 2.8076 10.0603 2.8337C9.44044 2.99448 8.83775 3.32857 8.36287 3.76098C8.21698 3.89392 7.82615 4.26874 7.47201 4.90943C6.53482 6.60496 6.46145 9.00607 6.46145 9.00607C6.41408 10.5587 6.35345 13.7048 7.99064 16.9713C7.99064 16.9713 9.13814 19.261 10.779 19.8251C11.1031 19.9369 11.1911 19.8629 11.2191 19.8265C11.3226 19.6926 11.1627 19.4805 11.055 19.3375C11.0295 19.3037 11.007 19.2738 10.9915 19.2497C10.842 19.016 10.7142 18.7686 10.6041 18.5138C10.3764 17.9868 10.2257 17.4287 10.1132 16.8661C9.77046 15.1537 9.54878 13.421 9.59614 11.6724H16.969V18.2448C16.969 18.6805 17.1448 19.099 17.5427 19.3036C17.7823 19.427 18.0534 19.4707 18.3204 19.5039C18.7877 19.5626 19.2645 19.5953 19.7266 19.5055C19.9972 19.4531 20.2671 19.3543 20.469 19.1651C20.794 18.8599 20.799 18.4472 20.799 18.0315C20.799 16.4852 20.8057 14.9388 20.8125 13.3925C20.8201 11.6377 20.8277 9.88283 20.8255 8.12804C20.8245 7.30916 20.819 6.49046 20.8092 5.67175C20.7959 4.5602 20.454 3.44046 19.4822 2.81682C19.0624 2.54746 18.5815 2.3999 18.1113 2.3999C17.5215 2.3999 16.9488 2.63185 16.5347 3.14622Z" fill="url(#paint0_linear_726_2104)"/>
<path d="M3.93875 11.0392C3.98577 9.6814 4.06225 8.31579 5.03113 7.14594C5.08369 7.08244 5.13392 7.01602 5.18418 6.94954C5.38776 6.68032 5.59214 6.41003 5.95626 6.32742C5.36012 8.11847 5.35013 10.1603 5.58766 12.0167C5.66638 12.6319 5.79831 13.2247 5.9368 13.8264C6.57222 16.5881 7.73281 19.7716 10.7084 20.651C11.1429 20.7794 10.981 21.0507 10.7363 21.2275C10.2388 21.5873 9.56775 21.6033 9.45475 21.5995C6.68504 21.5067 5.06558 20.3023 5.06558 20.3023C3.21273 18.9245 2.43866 16.8931 2.42609 15.8498C2.42298 15.5811 2.46656 15.0755 2.63898 14.5268C2.6922 14.3572 2.93903 13.5706 3.15744 13.5931C3.28693 13.6065 3.34723 13.8979 3.41498 14.2253C3.42635 14.2803 3.43793 14.3363 3.45009 14.3921C3.75048 15.7756 4.33991 16.8079 4.8129 17.6361C4.99014 17.9466 5.26005 18.3828 5.64381 18.8785C5.90959 19.1801 6.31385 19.5739 6.88036 19.9264C7.49235 20.3071 8.06507 20.4977 8.46933 20.5979C7.95948 20.2576 7.29479 19.7435 6.63267 19.004C6.44682 18.7964 5.81778 18.0757 5.23834 16.9812C4.98032 16.4936 3.82868 14.2261 3.93875 11.0392Z" fill="url(#paint1_linear_726_2104)"/>
<defs>
<linearGradient id="paint0_linear_726_2104" x1="2.96159" y1="11.9974" x2="20.8169" y2="11.9974" gradientUnits="userSpaceOnUse">
<stop offset="0.33" stop-color="#9C8937"/>
<stop offset="0.56" stop-color="#F7E69E"/>
<stop offset="0.8" stop-color="#B39F4D"/>
</linearGradient>
<linearGradient id="paint1_linear_726_2104" x1="2.96159" y1="11.9974" x2="20.8169" y2="11.9974" gradientUnits="userSpaceOnUse">
<stop offset="0.33" stop-color="#9C8937"/>
<stop offset="0.56" stop-color="#F7E69E"/>
<stop offset="0.8" stop-color="#B39F4D"/>
</linearGradient>
</defs>
</svg>
