<svg width="80" height="81" viewBox="0 0 80 81" fill="none" xmlns="http://www.w3.org/2000/svg">
<path d="M72.2667 57.0331L61.8334 32.6664C58.3001 24.3998 51.8001 24.0664 47.4334 31.9331L41.1334 43.2998C37.9334 49.0664 31.9667 49.5664 27.8334 44.3998L27.1001 43.4664C22.8001 38.0664 16.7334 38.7331 13.6334 44.8998L7.90008 56.3998C3.86674 64.3998 9.70008 73.8331 18.6334 73.8331H61.1667C69.8334 73.8331 75.6667 64.9998 72.2667 57.0331Z" stroke="#264796" stroke-width="1.5" stroke-linecap="round" stroke-linejoin="round"/>
<path opacity="0.4" d="M23.2334 27.1665C28.7562 27.1665 33.2334 22.6894 33.2334 17.1665C33.2334 11.6437 28.7562 7.1665 23.2334 7.1665C17.7105 7.1665 13.2334 11.6437 13.2334 17.1665C13.2334 22.6894 17.7105 27.1665 23.2334 27.1665Z" stroke="#264796" stroke-width="1.5" stroke-linecap="round" stroke-linejoin="round"/>
</svg>
