<svg width="73" height="67" viewBox="0 0 73 67" fill="none" xmlns="http://www.w3.org/2000/svg">
<path d="M26.3856 60.7969C41.4612 66.284 58.1306 58.5109 63.6177 43.4353C67.0954 33.8804 65.2465 23.6853 59.5879 16.1027L57.185 22.7044C60.095 28.3318 60.7333 35.1121 58.3957 41.5346C53.9583 53.7262 40.4778 60.0123 28.2862 55.5749C27.5655 55.3126 26.8655 55.0187 26.1871 54.6953L32.8811 36.3036H37.7197L33.5326 47.8073L43.2009 47.8317L56.148 12.2598C53.3755 9.66935 50.0466 7.58276 46.2561 6.20311C31.1804 0.716021 14.511 8.48909 9.02392 23.5647C5.54623 33.1196 7.3951 43.3147 13.0538 50.8973L15.4566 44.2956C12.5467 38.6682 11.9083 31.8879 14.2459 25.4654C18.6833 13.2738 32.1638 6.98774 44.3554 11.4251C45.0761 11.6874 45.7761 11.9813 46.4545 12.3047L39.7423 30.7464H34.9037L39.109 19.1927L29.4407 19.1683L16.4936 54.7402C19.2661 57.3307 22.595 59.4172 26.3856 60.7969Z" fill="white"/>
</svg>
