<svg width="112" height="36" viewBox="0 0 112 36" fill="none" xmlns="http://www.w3.org/2000/svg">
<path d="M14.5292 33.031C22.8306 36.0524 32.0095 31.7722 35.031 23.4708C36.946 18.2095 35.9279 12.5956 32.812 8.42022L31.4889 12.0554C33.0912 15.1542 33.4427 18.8877 32.1555 22.4242C29.7121 29.1375 22.2891 32.5989 15.5758 30.1555C15.1789 30.0111 14.7934 29.8492 14.4199 29.6712L18.1059 19.5438H20.7703L18.4647 25.8783L23.7885 25.8917L30.9178 6.30411C29.3911 4.87769 27.5581 3.72871 25.4708 2.96901C17.1694 -0.0524492 7.99047 4.22778 4.96901 12.5292C3.05402 17.7905 4.0721 23.4044 7.18803 27.5798L8.51114 23.9446C6.9088 20.8458 6.5573 17.1123 7.8445 13.5758C10.2879 6.86246 17.7109 3.40106 24.4242 5.8445C24.8211 5.98894 25.2066 6.15078 25.5801 6.32884L21.884 16.4838H19.2197L21.5353 10.1217L16.2115 10.1083L9.08218 29.6959C10.6089 31.1223 12.4419 32.2713 14.5292 33.031Z" fill="#17A755"/>
<path d="M44 15.9434V2H46.8673V7.84935H52.4334V2H55.3007V15.9434H52.4334V10.201H46.8673V15.9434H44Z" fill="#065E58"/>
<path fill-rule="evenodd" clip-rule="evenodd" d="M59.7425 10.0442L62.6096 9.63262V9.33867C62.6096 8.4959 62.0474 8.08435 60.9042 8.08435C59.9109 8.08435 58.9551 8.2216 57.6057 8.5743V6.51642C59.0676 6.18337 60.3795 6.02657 61.4476 6.02657C63.734 6.02657 65.327 7.08457 65.327 9.27981V15.9377C63.9587 15.9657 62.7331 15.961 61.5558 15.9565H61.5533C61.1263 15.9549 60.7056 15.9533 60.2867 15.9533C57.7191 15.9533 56.7084 14.4069 56.7084 12.9174C56.7084 11.3495 57.7391 10.3316 59.7425 10.0442ZM62.6097 11.348L60.7918 11.5926C59.8137 11.7242 59.4612 12.2198 59.4612 12.8861C59.4612 13.5133 59.9484 14.1207 61.0541 14.1207L61.25 14.1208C61.6733 14.1209 61.9589 14.121 62.6097 14.1132V11.348Z" fill="#065E58"/>
<path d="M78.633 9.92668C78.633 8.67236 78.1645 8.08435 77.19 8.08435C76.6279 8.08435 76.0469 8.2608 75.4471 8.45681C75.5033 8.77041 75.5409 9.14276 75.5409 9.53467V15.9434H72.8234V9.82873C72.8234 8.65271 72.3736 8.08435 71.4554 8.08435C71.0668 8.08435 70.6783 8.13117 70.2774 8.17949C70.0982 8.20109 69.9164 8.223 69.7311 8.24115V15.9433H67.0138V6.51642C68.6816 6.26166 70.2746 6.02657 71.9988 6.02657C73.1419 6.02657 74.0041 6.28132 74.585 6.81048C75.8595 6.37927 77.0026 6.02657 78.2583 6.02657C80.3573 6.02657 81.3506 7.16318 81.3506 9.53456V15.9433H78.633V9.92668Z" fill="#065E58"/>
<path d="M83.0372 15.9433V2H85.7545V10.201L88.8656 6.14406H91.9764L88.322 10.6518L91.9764 15.9433H88.8656L85.7545 11.181V15.9433H83.0372Z" fill="#065E58"/>
<path fill-rule="evenodd" clip-rule="evenodd" d="M96.1745 16.061C93.401 16.061 91.5268 14.6107 91.5268 11.5729V10.5146C91.5268 7.47689 93.4009 6.02667 96.1745 6.02667C98.9482 6.02667 100.822 7.41814 100.822 10.5146V11.5729C100.822 14.6107 98.9481 16.061 96.1745 16.061ZM98.1049 10.3773C98.1049 8.82916 97.4675 8.08435 96.1745 8.08435C94.8625 8.08435 94.2442 8.82906 94.2442 10.3773V11.6905C94.2442 13.2584 94.8626 14.003 96.1745 14.003C97.4676 14.003 98.1049 13.2584 98.1049 11.6905V10.3773Z" fill="#065E58"/>
<path d="M108 6.41847V8.5744C107.531 8.35875 106.988 8.24115 106.369 8.24115C105.92 8.24115 105.451 8.3 104.926 8.4176V15.9433H102.209V6.51642C103.596 6.26166 104.983 6.04611 106.126 6.04611C106.894 6.04611 107.531 6.14406 108 6.41847Z" fill="#065E58"/>
<path fill-rule="evenodd" clip-rule="evenodd" d="M44 33.9001H49.7687C52.8305 33.9001 54.6229 32.6932 54.6229 30.1823C54.6229 28.372 53.7266 27.243 52.1769 26.7369C53.1478 26.1724 53.876 25.2186 53.876 23.8171C53.876 21.4034 52.2518 20.2744 49.4513 20.2744H44V33.9001ZM46.8563 31.6422V27.7686H49.638C51.0009 27.7686 51.7662 28.4108 51.7662 29.6954C51.7662 30.9803 50.9822 31.6422 49.6194 31.6422H46.8563ZM46.8563 25.8027V22.513H49.2273C50.4034 22.513 51.0195 23.058 51.0195 24.1675C51.0195 25.2771 50.3661 25.8027 49.2273 25.8027H46.8563Z" fill="#065E58"/>
<path d="M58.9961 33.7307H56.1623V23.6133H58.9961V33.7307ZM59.2624 20.6896C59.2624 21.2154 59.0912 21.6321 58.7489 21.9399C58.4192 22.2348 58.0262 22.3823 57.5697 22.3823C57.1133 22.3823 56.7139 22.2348 56.3716 21.9399C56.0419 21.6321 55.8771 21.2154 55.8771 20.6896C55.8771 20.1639 56.0419 19.7536 56.3716 19.4586C56.7139 19.1509 57.1133 18.997 57.5697 18.997C58.0262 18.997 58.4192 19.1509 58.7489 19.4586C59.0912 19.7536 59.2624 20.1639 59.2624 20.6896Z" fill="#065E58"/>
<path d="M68.6017 25.5368C68.3735 25.7932 68.0629 26.1395 67.6698 26.5754C67.2894 27.0114 66.8774 27.4923 66.4336 28.018C65.9898 28.5438 65.5397 29.0952 65.0833 29.6722C64.6395 30.2492 64.2338 30.807 63.8661 31.3456H68.6968V33.7307H60.4237V32.0381C60.69 31.5764 61.007 31.0827 61.3746 30.557C61.755 30.0184 62.1481 29.4799 62.5538 28.9413C62.9722 28.4027 63.3843 27.8834 63.79 27.3833C64.1957 26.8704 64.5698 26.4087 64.9121 25.9984H60.6519V23.6133H68.6017V25.5368Z" fill="#065E58"/>
<path d="M70.0281 23.9595C70.5099 23.8185 71.1312 23.6902 71.8919 23.5748C72.6527 23.4466 73.4515 23.3825 74.2883 23.3825C75.1378 23.3825 75.8415 23.4979 76.3994 23.7287C76.9699 23.9467 77.42 24.2609 77.7497 24.6712C78.0793 25.0815 78.3139 25.5688 78.4534 26.133C78.5928 26.6973 78.6626 27.3256 78.6626 28.018V33.7307H75.8288V28.3643C75.8288 27.441 75.7084 26.787 75.4674 26.4023C75.2265 26.0176 74.7764 25.8253 74.1171 25.8253C73.9143 25.8253 73.6987 25.8381 73.4705 25.8638C73.2423 25.8766 73.0394 25.8958 72.8619 25.9215V33.7307H70.0281V23.9595Z" fill="#065E58"/>
<path d="M80.1815 28.7489C80.1815 27.8513 80.3147 27.0691 80.5809 26.4023C80.8599 25.7227 81.2212 25.1585 81.665 24.7097C82.1087 24.2609 82.6159 23.9211 83.1865 23.6902C83.7697 23.4594 84.3656 23.344 84.9742 23.344C86.3943 23.344 87.5164 23.7864 88.3405 24.6712C89.1647 25.5432 89.5767 26.8319 89.5767 28.5374C89.5767 28.7041 89.5704 28.89 89.5577 29.0952C89.545 29.2875 89.5324 29.4606 89.5197 29.6145H83.0914C83.1548 30.2044 83.4274 30.6724 83.9092 31.0186C84.391 31.3649 85.0376 31.538 85.8491 31.538C86.3689 31.538 86.8761 31.4931 87.3706 31.4033C87.8777 31.3007 88.2898 31.1789 88.6068 31.0379L88.9872 33.3653C88.835 33.4422 88.6322 33.5191 88.3786 33.5961C88.125 33.673 87.8397 33.7371 87.5227 33.7884C87.2184 33.8525 86.8888 33.9038 86.5338 33.9423C86.1787 33.9808 85.8237 34 85.4687 34C84.5685 34 83.7824 33.8654 83.1104 33.5961C82.4511 33.3268 81.8996 32.9613 81.4558 32.4997C81.0247 32.0252 80.7014 31.4674 80.4858 30.8263C80.283 30.1851 80.1815 29.4927 80.1815 28.7489ZM86.8381 27.6526C86.8254 27.4089 86.781 27.1717 86.7049 26.9409C86.6415 26.7101 86.5338 26.5049 86.3816 26.3254C86.2421 26.1459 86.0583 25.9984 85.8301 25.883C85.6145 25.7676 85.3419 25.7099 85.0123 25.7099C84.6953 25.7099 84.4227 25.7676 84.1945 25.883C83.9662 25.9856 83.7761 26.1266 83.6239 26.3062C83.4718 26.4857 83.3513 26.6973 83.2626 26.9409C83.1865 27.1717 83.1294 27.4089 83.0914 27.6526H86.8381Z" fill="#065E58"/>
<path d="M94.0648 31.6726C94.5847 31.6726 94.9524 31.6213 95.1679 31.5187C95.3835 31.4161 95.4912 31.2174 95.4912 30.9225C95.4912 30.6916 95.3518 30.4929 95.0728 30.3262C94.7939 30.1467 94.3691 29.9479 93.7986 29.7299C93.3548 29.5632 92.9491 29.3901 92.5814 29.2106C92.2264 29.0311 91.9221 28.8195 91.6685 28.5758C91.4149 28.3194 91.2184 28.018 91.0789 27.6718C90.9394 27.3256 90.8697 26.9088 90.8697 26.4216C90.8697 25.4726 91.2184 24.7225 91.9157 24.1711C92.6131 23.6197 93.5703 23.344 94.7875 23.344C95.3961 23.344 95.9794 23.4017 96.5373 23.5171C97.0951 23.6197 97.5389 23.7351 97.8686 23.8634L97.3741 26.0946C97.0444 25.9792 96.6831 25.8766 96.29 25.7868C95.9097 25.6971 95.4786 25.6522 94.9967 25.6522C94.1092 25.6522 93.6654 25.9022 93.6654 26.4023C93.6654 26.5177 93.6845 26.6203 93.7225 26.7101C93.7605 26.7998 93.8366 26.8896 93.9507 26.9794C94.0648 27.0563 94.217 27.1461 94.4072 27.2486C94.61 27.3384 94.8636 27.441 95.1679 27.5564C95.7892 27.7872 96.3027 28.018 96.7084 28.2488C97.1142 28.4668 97.4311 28.7105 97.6594 28.9798C97.9003 29.2362 98.0651 29.5247 98.1538 29.8453C98.2553 30.1659 98.306 30.5378 98.306 30.9609C98.306 31.9611 97.932 32.7177 97.1839 33.2306C96.4485 33.7435 95.4025 34 94.0458 34C93.1583 34 92.4166 33.9231 91.8206 33.7692C91.2374 33.6153 90.8317 33.4871 90.6035 33.3845L91.0789 31.0571C91.5607 31.2494 92.0552 31.4033 92.5624 31.5187C93.0695 31.6213 93.5704 31.6726 94.0648 31.6726Z" fill="#065E58"/>
</svg>
