<svg width="36" height="36" viewBox="0 0 36 36" fill="none" xmlns="http://www.w3.org/2000/svg">
<g filter="url(#filter0_dd_710_5852)">
<rect x="3" y="2" width="30" height="30" rx="12" fill="#F8F9FA" shape-rendering="crispEdges"/>
<path d="M18 12.5C17.1716 12.5 16.5 11.8284 16.5 11C16.5 10.1716 17.1716 9.5 18 9.5C18.8284 9.5 19.5 10.1716 19.5 11C19.5 11.8284 18.8284 12.5 18 12.5Z" fill="#6D7985"/>
<path d="M18 18.5C17.1716 18.5 16.5 17.8284 16.5 17C16.5 16.1716 17.1716 15.5 18 15.5C18.8284 15.5 19.5 16.1716 19.5 17C19.5 17.8284 18.8284 18.5 18 18.5Z" fill="#6D7985"/>
<path d="M18 24.5C17.1716 24.5 16.5 23.8284 16.5 23C16.5 22.1716 17.1716 21.5 18 21.5C18.8284 21.5 19.5 22.1716 19.5 23C19.5 23.8284 18.8284 24.5 18 24.5Z" fill="#6D7985"/>
</g>
<defs>
<filter id="filter0_dd_710_5852" x="0" y="0" width="36" height="36" filterUnits="userSpaceOnUse" color-interpolation-filters="sRGB">
<feFlood flood-opacity="0" result="BackgroundImageFix"/>
<feColorMatrix in="SourceAlpha" type="matrix" values="0 0 0 0 0 0 0 0 0 0 0 0 0 0 0 0 0 0 127 0" result="hardAlpha"/>
<feOffset dy="1"/>
<feGaussianBlur stdDeviation="1.5"/>
<feComposite in2="hardAlpha" operator="out"/>
<feColorMatrix type="matrix" values="0 0 0 0 0.0627451 0 0 0 0 0.0941176 0 0 0 0 0.156863 0 0 0 0.1 0"/>
<feBlend mode="normal" in2="BackgroundImageFix" result="effect1_dropShadow_710_5852"/>
<feColorMatrix in="SourceAlpha" type="matrix" values="0 0 0 0 0 0 0 0 0 0 0 0 0 0 0 0 0 0 127 0" result="hardAlpha"/>
<feOffset dy="1"/>
<feGaussianBlur stdDeviation="1"/>
<feComposite in2="hardAlpha" operator="out"/>
<feColorMatrix type="matrix" values="0 0 0 0 0.0627451 0 0 0 0 0.0941176 0 0 0 0 0.156863 0 0 0 0.06 0"/>
<feBlend mode="normal" in2="effect1_dropShadow_710_5852" result="effect2_dropShadow_710_5852"/>
<feBlend mode="normal" in="SourceGraphic" in2="effect2_dropShadow_710_5852" result="shape"/>
</filter>
</defs>
</svg>
