<svg width="16" height="16" viewBox="0 0 16 16" fill="none" xmlns="http://www.w3.org/2000/svg">
<g id="vuesax/twotone/printer">
<g id="printer">
<path id="Vector" opacity="0.4" d="M4.83334 4.66683H11.1667V3.3335C11.1667 2.00016 10.6667 1.3335 9.16668 1.3335H6.83334C5.33334 1.3335 4.83334 2.00016 4.83334 3.3335V4.66683Z" stroke="#B0B8C1" stroke-width="1.5" stroke-miterlimit="10" stroke-linecap="round" stroke-linejoin="round"/>
<path id="Vector_2" d="M10.6667 10V12.6667C10.6667 14 10 14.6667 8.66668 14.6667H7.33334C6.00001 14.6667 5.33334 14 5.33334 12.6667V10H10.6667Z" stroke="#B0B8C1" stroke-width="1.5" stroke-miterlimit="10" stroke-linecap="round" stroke-linejoin="round"/>
<path id="Vector_3" d="M14 6.6665V9.99984C14 11.3332 13.3333 11.9998 12 11.9998H10.6667V9.99984H5.33333V11.9998H4C2.66667 11.9998 2 11.3332 2 9.99984V6.6665C2 5.33317 2.66667 4.6665 4 4.6665H12C13.3333 4.6665 14 5.33317 14 6.6665Z" stroke="#B0B8C1" stroke-width="1.5" stroke-miterlimit="10" stroke-linecap="round" stroke-linejoin="round"/>
<path id="Vector_4" d="M11.3333 10H10.5267H4.66666" stroke="#B0B8C1" stroke-width="1.5" stroke-miterlimit="10" stroke-linecap="round" stroke-linejoin="round"/>
<path id="Vector_5" opacity="0.4" d="M4.66666 7.3335H6.66666" stroke="#B0B8C1" stroke-width="1.5" stroke-miterlimit="10" stroke-linecap="round" stroke-linejoin="round"/>
</g>
</g>
</svg>
