<svg width="51" height="50" viewBox="0 0 51 50" fill="none" xmlns="http://www.w3.org/2000/svg">
<path d="M0.666626 15C0.666626 6.71573 7.38236 0 15.6666 0H35.6666C43.9509 0 50.6666 6.71573 50.6666 15V35C50.6666 43.2843 43.9509 50 35.6666 50H15.6666C7.38236 50 0.666626 43.2843 0.666626 35V15Z" fill="#FFE9E9"/>
<path d="M23.3333 22.3735C23.3333 23.0935 23.5333 23.2002 23.9866 23.3602L24.6666 23.6002V21.3335H24.2666C23.76 21.3335 23.3333 21.8002 23.3333 22.3735Z" fill="#FE665E"/>
<path d="M26.6666 28.6666H27.0666C27.5866 28.6666 28 28.1999 28 27.6266C28 26.9066 27.8 26.7999 27.3466 26.6399L26.6666 26.3999V28.6666Z" fill="#FE665E"/>
<path d="M35.7733 16.3065L33.04 19.0398C32.84 19.2398 32.5866 19.3332 32.3333 19.3332C32.08 19.3332 31.8266 19.2398 31.6266 19.0398C31.24 18.6532 31.24 18.0132 31.6266 17.6265L34.36 14.8932C32.0133 12.8932 28.9866 11.6665 25.6666 11.6665C18.3066 11.6665 12.3333 17.6398 12.3333 24.9998C12.3333 32.3598 18.3066 38.3332 25.6666 38.3332C33.0266 38.3332 39 32.3598 39 24.9998C39 21.6798 37.7733 18.6532 35.7733 16.3065ZM28 24.7598C28.8533 25.0665 30 25.6798 30 27.6398C30 29.3065 28.68 30.6798 27.0666 30.6798H26.6666V31.0132C26.6666 31.5598 26.2133 32.0132 25.6666 32.0132C25.12 32.0132 24.6666 31.5598 24.6666 31.0132V30.6798H24.56C22.7866 30.6798 21.3333 29.1865 21.3333 27.3465C21.3333 26.7865 21.7866 26.3332 22.3333 26.3332C22.88 26.3332 23.3333 26.7865 23.3333 27.3332C23.3333 28.0665 23.88 28.6665 24.56 28.6665H24.6666V25.7065L23.3333 25.2398C22.48 24.9332 21.3333 24.3198 21.3333 22.3598C21.3333 20.6932 22.6533 19.3198 24.2666 19.3198H24.6666V18.9998C24.6666 18.4532 25.12 17.9998 25.6666 17.9998C26.2133 17.9998 26.6666 18.4532 26.6666 18.9998V19.3332H26.7733C28.5466 19.3332 30 20.8265 30 22.6665C30 23.2132 29.5466 23.6665 29 23.6665C28.4533 23.6665 28 23.2132 28 22.6665C28 21.9332 27.4533 21.3332 26.7733 21.3332H26.6666V24.2932L28 24.7598Z" fill="#FE665E"/>
<path d="M39.92 11.2798C39.8133 11.0398 39.6266 10.8398 39.3733 10.7332C39.2533 10.6932 39.1333 10.6665 39 10.6665H33.6666C33.12 10.6665 32.6666 11.1198 32.6666 11.6665C32.6666 12.2132 33.12 12.6665 33.6666 12.6665H36.5866L34.36 14.8932C34.8666 15.3332 35.3333 15.7998 35.7733 16.3065L38 14.0798V16.9998C38 17.5465 38.4533 17.9998 39 17.9998C39.5466 17.9998 40 17.5465 40 16.9998V11.6665C40 11.5332 39.9733 11.4132 39.92 11.2798Z" fill="#FE665E"/>
</svg>
