<svg width="17" height="17" viewBox="0 0 17 17" fill="none" xmlns="http://www.w3.org/2000/svg">
<path fill-rule="evenodd" clip-rule="evenodd" d="M13.3794 11.1525C13.34 10.9353 13.3666 10.7112 13.4558 10.5092C13.5407 10.3112 13.6816 10.1422 13.8613 10.0232C14.041 9.90426 14.2515 9.8404 14.467 9.83954H14.5273C14.8825 9.83954 15.2232 9.69843 15.4744 9.44724C15.7256 9.19606 15.8667 8.85538 15.8667 8.50015C15.8667 8.14492 15.7256 7.80424 15.4744 7.55306C15.2232 7.30187 14.8825 7.16076 14.5273 7.16076H14.4135C14.198 7.1599 13.9874 7.09604 13.8077 6.97705C13.6281 6.85807 13.4871 6.68914 13.4022 6.49106V6.43748C13.3131 6.23549 13.2865 6.01143 13.3259 5.79418C13.3653 5.57693 13.4688 5.37647 13.6232 5.21864L13.6634 5.17845C13.7879 5.05406 13.8867 4.90634 13.9541 4.74374C14.0215 4.58114 14.0562 4.40685 14.0562 4.23083C14.0562 4.05482 14.0215 3.88052 13.9541 3.71792C13.8867 3.55532 13.7879 3.4076 13.6634 3.28321C13.539 3.15868 13.3913 3.05989 13.2287 2.99248C13.0661 2.92508 12.8918 2.89038 12.7158 2.89038C12.5398 2.89038 12.3655 2.92508 12.2029 2.99248C12.0403 3.05989 11.8925 3.15868 11.7681 3.28321L11.728 3.32339C11.5701 3.47778 11.3697 3.58135 11.1524 3.62074C10.9352 3.66013 10.7111 3.63354 10.5091 3.54439C10.311 3.4595 10.1421 3.31854 10.0231 3.13887C9.90414 2.9592 9.84028 2.74865 9.83942 2.53315V2.47288C9.83942 2.11765 9.69831 1.77697 9.44712 1.52578C9.19594 1.2746 8.85526 1.13348 8.50003 1.13348C8.1448 1.13348 7.80412 1.2746 7.55293 1.52578C7.30175 1.77697 7.16063 2.11765 7.16063 2.47288V2.58673C7.15978 2.80223 7.09592 3.01277 6.97693 3.19244C6.85794 3.37212 6.68901 3.51308 6.49094 3.59797H6.43736C6.23537 3.68712 6.0113 3.71371 5.79406 3.67432C5.57681 3.63493 5.37635 3.53136 5.21851 3.37697L5.17833 3.33679C5.05394 3.21225 4.90622 3.11346 4.74362 3.04606C4.58102 2.97865 4.40673 2.94396 4.23071 2.94396C4.05469 2.94396 3.8804 2.97865 3.7178 3.04606C3.5552 3.11346 3.40748 3.21225 3.28309 3.33679C3.15856 3.46118 3.05976 3.6089 2.99236 3.7715C2.92496 3.9341 2.89026 4.10839 2.89026 4.28441C2.89026 4.46043 2.92496 4.63472 2.99236 4.79732C3.05976 4.95992 3.15856 5.10764 3.28309 5.23203L3.32327 5.27221C3.47766 5.43004 3.58123 5.63051 3.62062 5.84776C3.66001 6.065 3.63342 6.28907 3.54427 6.49106C3.46774 6.69916 3.33037 6.87942 3.15002 7.00841C2.96967 7.1374 2.75469 7.20915 2.53303 7.21433H2.47276C2.11753 7.21433 1.77685 7.35545 1.52566 7.60663C1.27448 7.85782 1.13336 8.1985 1.13336 8.55373C1.13336 8.90896 1.27448 9.24964 1.52566 9.50082C1.77685 9.75201 2.11753 9.89312 2.47276 9.89312H2.5866C2.8021 9.89398 3.01265 9.95783 3.19232 10.0768C3.37199 10.1958 3.51295 10.3647 3.59785 10.5628C3.68699 10.7648 3.71359 10.9889 3.6742 11.2061C3.6348 11.4234 3.53124 11.6238 3.37685 11.7817L3.33666 11.8218C3.21213 11.9462 3.11334 12.094 3.04594 12.2566C2.97853 12.4192 2.94384 12.5935 2.94384 12.7695C2.94384 12.9455 2.97853 13.1198 3.04594 13.2824C3.11334 13.445 3.21213 13.5927 3.33666 13.7171C3.46106 13.8416 3.60878 13.9404 3.77138 14.0078C3.93398 14.0752 4.10827 14.1099 4.28429 14.1099C4.4603 14.1099 4.63459 14.0752 4.79719 14.0078C4.95979 13.9404 5.10751 13.8416 5.23191 13.7171L5.27209 13.6769C5.42992 13.5225 5.63039 13.419 5.84763 13.3796C6.06488 13.3402 6.28895 13.3668 6.49094 13.4559C6.69904 13.5324 6.8793 13.6698 7.00829 13.8502C7.13727 14.0305 7.20903 14.2455 7.21421 14.4672V14.5274C7.21421 14.8827 7.35532 15.2233 7.60651 15.4745C7.8577 15.7257 8.19838 15.8668 8.5536 15.8668C8.90883 15.8668 9.24951 15.7257 9.5007 15.4745C9.75188 15.2233 9.893 14.8827 9.893 14.5274V14.4136C9.89386 14.1981 9.95771 13.9875 10.0767 13.8079C10.1957 13.6282 10.3646 13.4872 10.5627 13.4023C10.7647 13.3132 10.9888 13.2866 11.206 13.326C11.4232 13.3654 11.6237 13.4689 11.7815 13.6233L11.8217 13.6635C11.9461 13.788 12.0938 13.8868 12.2564 13.9542C12.419 14.0216 12.5933 14.0563 12.7693 14.0563C12.9454 14.0563 13.1197 14.0216 13.2823 13.9542C13.4449 13.8868 13.5926 13.788 13.717 13.6635C13.8415 13.5391 13.9403 13.3914 14.0077 13.2288C14.0751 13.0662 14.1098 12.8919 14.1098 12.7159C14.1098 12.5399 14.0751 12.3656 14.0077 12.203C13.9403 12.0404 13.8415 11.8927 13.717 11.7683L13.6768 11.7281C13.5224 11.5703 13.4188 11.3698 13.3794 11.1525ZM10.7667 8.50015C10.7667 9.752 9.75187 10.7668 8.50003 10.7668C7.24818 10.7668 6.23336 9.752 6.23336 8.50015C6.23336 7.24831 7.24818 6.23348 8.50003 6.23348C9.75187 6.23348 10.7667 7.24831 10.7667 8.50015Z" fill="#BCC9CB"/>
</svg>
