<svg width="60" height="60" viewBox="0 0 60 60" fill="none" xmlns="http://www.w3.org/2000/svg">
<rect width="60" height="60" rx="30" fill="#FF3333" fill-opacity="0.1"/>
<path d="M29.9997 13.3333C20.8163 13.3333 13.333 20.8167 13.333 30C13.333 39.1833 20.8163 46.6667 29.9997 46.6667C39.183 46.6667 46.6663 39.1833 46.6663 30C46.6663 20.8167 39.183 13.3333 29.9997 13.3333ZM35.5997 33.8333C36.083 34.3167 36.083 35.1167 35.5997 35.6C35.3497 35.85 35.033 35.9667 34.7163 35.9667C34.3997 35.9667 34.083 35.85 33.833 35.6L29.9997 31.7667L26.1663 35.6C25.9163 35.85 25.5997 35.9667 25.283 35.9667C24.9663 35.9667 24.6497 35.85 24.3997 35.6C23.9163 35.1167 23.9163 34.3167 24.3997 33.8333L28.233 30L24.3997 26.1667C23.9163 25.6833 23.9163 24.8833 24.3997 24.4C24.883 23.9167 25.683 23.9167 26.1663 24.4L29.9997 28.2333L33.833 24.4C34.3163 23.9167 35.1163 23.9167 35.5997 24.4C36.083 24.8833 36.083 25.6833 35.5997 26.1667L31.7663 30L35.5997 33.8333Z" fill="#FF3333"/>
</svg>
