<svg width="60" height="60" viewBox="0 0 60 60" fill="none" xmlns="http://www.w3.org/2000/svg">
<rect width="60" height="60" rx="30" fill="#FCCB02" fill-opacity="0.1"/>
<path d="M29.9997 13.3333C20.8163 13.3333 13.333 20.8167 13.333 30C13.333 39.1833 20.8163 46.6667 29.9997 46.6667C39.183 46.6667 46.6663 39.1833 46.6663 30C46.6663 20.8167 39.183 13.3333 29.9997 13.3333ZM37.2497 35.95C37.0163 36.35 36.5997 36.5667 36.1663 36.5667C35.9497 36.5667 35.733 36.5167 35.533 36.3833L30.3663 33.3C29.083 32.5333 28.133 30.85 28.133 29.3667V22.5333C28.133 21.85 28.6997 21.2833 29.383 21.2833C30.0663 21.2833 30.633 21.85 30.633 22.5333V29.3667C30.633 29.9667 31.133 30.85 31.6497 31.15L36.8163 34.2333C37.4163 34.5833 37.6163 35.35 37.2497 35.95Z" fill="#FCCB02"/>
</svg>
