<svg xmlns="http://www.w3.org/2000/svg" width="22" height="22" viewBox="0 0 22 22" fill="none">
  <path d="M21 11C21 16.5228 16.5228 21 11 21C5.47715 21 1 16.5228 1 11M21 11C21 5.47715 16.5228 1 11 1C5.47715 1 1 5.47715 1 11M21 11H19.4884M1 11H2.51163M3.15116 17.1446C4.07527 16.5704 5.2549 16.1 6.60572 15.7749M18.8779 17.1628C17.9495 16.5803 16.7593 16.1034 15.3943 15.7749M3.15116 4.86155C4.07491 5.43554 5.25398 5.9058 6.60414 6.23095M18.8779 4.8434C17.9499 5.42563 16.7602 5.90238 15.3959 6.23095M6.34604 7.33721C6.42101 6.95648 6.50732 6.58718 6.60414 6.23095M15.654 7.33721C15.579 6.95648 15.4927 6.58718 15.3959 6.23095M15.654 14.6628C15.5786 15.0456 15.4917 15.4168 15.3943 15.7749M6.34604 14.6628C6.42141 15.0456 6.50826 15.4168 6.60572 15.7749M15.3959 6.23095C14.549 3.11504 12.898 1.02907 11 1.02907C9.10202 1.02907 7.45104 3.11504 6.60414 6.23095M15.3959 6.23095C14.0691 6.55045 12.5772 6.72984 11 6.72984C9.42279 6.72984 7.93086 6.55045 6.60414 6.23095M6.60572 15.7749C7.45309 18.8876 9.1032 20.9709 11 20.9709C12.8968 20.9709 14.5469 18.8876 15.3943 15.7749M6.60572 15.7749C7.93205 15.4556 9.42342 15.2763 11 15.2763C12.5766 15.2763 14.068 15.4556 15.3943 15.7749" stroke="#B0B8C1" stroke-width="1.5" stroke-linecap="round" stroke-linejoin="round"/>
  <path d="M17.2025 12.7435C16.976 12.7435 16.8424 12.6052 16.8424 12.3691V9.85345H16.1319C15.9363 9.85345 15.8052 9.74138 15.8052 9.55539C15.8052 9.3694 15.9339 9.25732 16.1319 9.25732H18.2755C18.471 9.25732 18.5998 9.3694 18.5998 9.55539C18.5998 9.74138 18.4687 9.85345 18.2755 9.85345H17.5626V12.3691C17.5626 12.6052 17.429 12.7435 17.2025 12.7435Z" fill="#B0B8C1"/>
  <path d="M13.6998 12.7435C13.4733 12.7435 13.3398 12.6052 13.3398 12.3691V9.63169C13.3398 9.39563 13.4733 9.25732 13.6998 9.25732H15.3094C15.5073 9.25732 15.636 9.3694 15.636 9.55539C15.636 9.74138 15.5049 9.85345 15.3094 9.85345H14.0599V10.7739H15.1925C15.3785 10.7739 15.5001 10.8812 15.5001 11.0576C15.5001 11.2365 15.3809 11.3438 15.1925 11.3438H14.0599V12.3691C14.0599 12.6052 13.9263 12.7435 13.6998 12.7435Z" fill="#B0B8C1"/>
  <path d="M12.4073 12.7433C12.1808 12.7433 12.0472 12.605 12.0472 12.3689V9.58622C12.0472 9.34777 12.1808 9.20947 12.4073 9.20947C12.6338 9.20947 12.7674 9.34777 12.7674 9.58622V12.3689C12.7674 12.605 12.6338 12.7433 12.4073 12.7433Z" fill="#B0B8C1"/>
  <path d="M8.39649 12.7433C8.16996 12.7433 8.04597 12.6336 7.97443 12.3761L7.2567 9.77221C7.23285 9.68399 7.21855 9.59815 7.21855 9.53376C7.21855 9.33347 7.35446 9.20947 7.57384 9.20947C7.76221 9.20947 7.87667 9.31439 7.91959 9.51946L8.43464 11.749H8.45372L9.03315 9.53138C9.08799 9.30724 9.20245 9.20947 9.40275 9.20947C9.59828 9.20947 9.7175 9.31439 9.76996 9.52661L10.3494 11.749H10.3685L10.8835 9.51946C10.9288 9.31201 11.0433 9.20947 11.2317 9.20947C11.451 9.20947 11.587 9.33347 11.587 9.53376C11.587 9.59576 11.5726 9.6816 11.5488 9.77221L10.8287 12.3809C10.7571 12.6336 10.6332 12.7433 10.4114 12.7433C10.1801 12.7433 10.0537 12.636 9.98457 12.3785L9.41229 10.3469H9.39083L8.82093 12.3785C8.75178 12.6312 8.62302 12.7433 8.39649 12.7433Z" fill="#B0B8C1"/>
  <path d="M5.54255 12.7554C4.83197 12.7554 4.37653 12.4717 4.23823 12.0949C4.21438 12.0329 4.20007 11.9662 4.20007 11.9018C4.20007 11.711 4.33122 11.5846 4.51721 11.5846C4.66505 11.5846 4.76282 11.6419 4.84866 11.7945C4.96073 12.0568 5.23018 12.176 5.55924 12.176C5.94553 12.176 6.20782 11.99 6.20782 11.7372C6.20782 11.5107 6.04568 11.382 5.61408 11.2937L5.24925 11.2222C4.56252 11.0863 4.2263 10.7572 4.2263 10.2445C4.2263 9.61504 4.77474 9.19775 5.54016 9.19775C6.16967 9.19775 6.64419 9.46243 6.79679 9.91072C6.81349 9.95841 6.82302 10.0085 6.82302 10.0705C6.82302 10.2422 6.69903 10.359 6.51542 10.359C6.35328 10.359 6.25313 10.2946 6.17206 10.1468C6.0576 9.88687 5.83584 9.77957 5.54016 9.77957C5.18487 9.77957 4.94881 9.94649 4.94881 10.1992C4.94881 10.4115 5.11334 10.5426 5.52109 10.6237L5.88353 10.6976C6.61319 10.8431 6.92794 11.1364 6.92794 11.6586C6.92794 12.331 6.40097 12.7554 5.54255 12.7554Z" fill="#B0B8C1"/>
</svg>
