<svg width="24" height="24" viewBox="0 0 24 24" fill="none" xmlns="http://www.w3.org/2000/svg">
<path d="M12 24C18.5647 24 24 18.5647 24 12C24 5.44706 18.5529 0 11.9882 0C5.43529 0 0 5.44706 0 12C0 18.5647 5.44706 24 12 24ZM10.3882 18.0353C9.98824 18.0353 9.67059 17.8588 9.34118 17.4588L5.94118 13.2706C5.76471 13.0471 5.65882 12.7647 5.65882 12.5059C5.65882 11.9529 6.09412 11.5294 6.62353 11.5294C6.95294 11.5294 7.24706 11.6588 7.51765 12.0235L10.3294 15.6588L15.8 6.89412C16.0235 6.52941 16.3294 6.35294 16.6471 6.35294C17.1647 6.35294 17.6588 6.69412 17.6588 7.25882C17.6588 7.51765 17.5059 7.8 17.3647 8.03529L11.3765 17.4588C11.1176 17.8471 10.7882 18.0353 10.3882 18.0353Z" fill="#007AFF"/>
</svg>
