<svg width="20" height="20" viewBox="0 0 20 20" fill="none" xmlns="http://www.w3.org/2000/svg">
<path d="M18.3333 7.08325H1.66663M1.66663 10.4166H4.62219C5.07235 10.4166 5.29743 10.4166 5.51507 10.4554C5.70825 10.4898 5.89671 10.5469 6.07655 10.6254C6.27916 10.7138 6.46644 10.8387 6.84099 11.0884L7.32559 11.4115C7.70015 11.6612 7.88743 11.786 8.09004 11.8745C8.26988 11.953 8.45833 12.01 8.65151 12.0445C8.86916 12.0833 9.09424 12.0833 9.5444 12.0833H10.4555C10.9057 12.0833 11.1308 12.0833 11.3484 12.0445C11.5416 12.01 11.73 11.953 11.9099 11.8745C12.1125 11.786 12.2998 11.6612 12.6743 11.4115L13.1589 11.0884C13.5335 10.8387 13.7208 10.7138 13.9234 10.6254C14.1032 10.5469 14.2917 10.4898 14.4848 10.4554C14.7025 10.4166 14.9276 10.4166 15.3777 10.4166H18.3333M1.66663 5.99992L1.66663 13.9999C1.66663 14.9333 1.66663 15.4 1.84828 15.7566C2.00807 16.0702 2.26304 16.3251 2.57664 16.4849C2.93316 16.6666 3.39987 16.6666 4.33329 16.6666L15.6666 16.6666C16.6 16.6666 17.0668 16.6666 17.4233 16.4849C17.7369 16.3251 17.9919 16.0702 18.1516 15.7566C18.3333 15.4 18.3333 14.9333 18.3333 13.9999V5.99992C18.3333 5.0665 18.3333 4.59979 18.1516 4.24327C17.9919 3.92967 17.7369 3.6747 17.4233 3.51491C17.0668 3.33325 16.6 3.33325 15.6666 3.33325L4.33329 3.33325C3.39987 3.33325 2.93316 3.33325 2.57664 3.51491C2.26304 3.6747 2.00807 3.92966 1.84828 4.24327C1.66663 4.59979 1.66663 5.0665 1.66663 5.99992Z" stroke="#008C79" stroke-width="2" stroke-linecap="round" stroke-linejoin="round"/>
</svg>
