<svg width="20" height="20" viewBox="0 0 20 20" fill="none" xmlns="http://www.w3.org/2000/svg">
<path d="M13.5 9.75C13.5 9.33579 13.1642 9 12.75 9C12.3358 9 12 9.33579 12 9.75V11.75C12 12.1642 12.3358 12.5 12.75 12.5C13.1642 12.5 13.5 12.1642 13.5 11.75V9.75ZM9.75 9C10.1642 9 10.5 9.33579 10.5 9.75V11.75C10.5 12.1642 10.1642 12.5 9.75 12.5C9.33579 12.5 9 12.1642 9 11.75V9.75C9 9.33579 9.33579 9 9.75 9ZM7.5 9.75C7.5 9.33579 7.16421 9 6.75 9C6.33579 9 6 9.33579 6 9.75V11.75C6 12.1642 6.33579 12.5 6.75 12.5C7.16421 12.5 7.5 12.1642 7.5 11.75V9.75ZM3.75 13.5C4.16421 13.5 4.5 13.8358 4.5 14.25V16.75C4.5 17.1642 4.16421 17.5 3.75 17.5C3.33579 17.5 3 17.1642 3 16.75V14.25C3 13.8358 3.33579 13.5 3.75 13.5ZM17 14.25C17 13.8358 16.6642 13.5 16.25 13.5C15.8358 13.5 15.5 13.8358 15.5 14.25V16.75C15.5 17.1642 15.8358 17.5 16.25 17.5C16.6642 17.5 17 17.1642 17 16.75V14.25ZM9.75 0H13.5C13.7761 0 14 0.223858 14 0.5V2.5C14 2.77614 13.7761 3 13.5 3H10.5V4.01758C14.1326 4.27396 17 7.30212 17 11H17.75C18.9926 11 20 12.0074 20 13.25V19.25C20 19.6642 19.6642 20 19.25 20H0.75C0.335786 20 0 19.6642 0 19.25V13.25C0 12.0074 1.00736 11 2.25 11H3C3 7.47353 5.60771 4.55612 9 4.07089V0.75C9 0.335786 9.33579 0 9.75 0ZM10 5.5C6.96243 5.5 4.5 7.96243 4.5 11V11.75C4.5 12.1642 4.16421 12.5 3.75 12.5H2.25C1.83579 12.5 1.5 12.8358 1.5 13.25V18.5H7.5V15.75C7.5 15.3358 7.83579 15 8.25 15H11.75C12.1642 15 12.5 15.3358 12.5 15.75V18.5H18.5V13.25C18.5 12.8358 18.1642 12.5 17.75 12.5H16.25C15.8358 12.5 15.5 12.1642 15.5 11.75V11C15.5 7.96243 13.0376 5.5 10 5.5ZM11 16.5H9V18.5H11V16.5Z" fill="#008C79"/>
</svg>
