<svg width="20" height="20" viewBox="0 0 20 20" fill="none" xmlns="http://www.w3.org/2000/svg">
<path d="M14.5846 11.524C14.8486 11.0773 15 10.5564 15 10C15 9.44364 14.8486 8.92266 14.5846 8.47602L15.7803 7.28033C16.0732 6.98744 16.0732 6.51256 15.7803 6.21967C15.4874 5.92678 15.0126 5.92678 14.7197 6.21967L13.524 7.41536C13.0773 7.15145 12.5564 7 12 7C11.4436 7 10.9227 7.15145 10.476 7.41536L9.28033 6.21967C8.98744 5.92678 8.51256 5.92678 8.21967 6.21967C7.92678 6.51256 7.92678 6.98744 8.21967 7.28033L9.41536 8.47602C9.15145 8.92266 9 9.44364 9 10C9 10.5564 9.15145 11.0773 9.41536 11.524L8.21967 12.7197C7.92678 13.0126 7.92678 13.4874 8.21967 13.7803C8.51256 14.0732 8.98744 14.0732 9.28033 13.7803L10.476 12.5846C10.9227 12.8486 11.4436 13 12 13C12.5564 13 13.0773 12.8486 13.524 12.5846L14.7197 13.7803C15.0126 14.0732 15.4874 14.0732 15.7803 13.7803C16.0732 13.4874 16.0732 13.0126 15.7803 12.7197L14.5846 11.524ZM12 11.5C11.1716 11.5 10.5 10.8284 10.5 10C10.5 9.17157 11.1716 8.5 12 8.5C12.8284 8.5 13.5 9.17157 13.5 10C13.5 10.8284 12.8284 11.5 12 11.5ZM4.5 5.75C4.5 5.33579 4.16421 5 3.75 5C3.33579 5 3 5.33579 3 5.75V14.25C3 14.6642 3.33579 15 3.75 15C4.16421 15 4.5 14.6642 4.5 14.25V5.75ZM0 5.75C0 3.67893 1.67893 2 3.75 2H16.25C18.3211 2 20 3.67893 20 5.75V14.25C20 16.3211 18.3211 18 16.25 18H3.75C1.67893 18 0 16.3211 0 14.25V5.75ZM3.75 3.5C2.50736 3.5 1.5 4.50736 1.5 5.75V14.25C1.5 15.4926 2.50736 16.5 3.75 16.5H16.25C17.4926 16.5 18.5 15.4926 18.5 14.25V5.75C18.5 4.50736 17.4926 3.5 16.25 3.5H3.75Z" fill="#008C79"/>
</svg>
