<svg width="20" height="20" viewBox="0 0 20 20" fill="none" xmlns="http://www.w3.org/2000/svg">
<g id="vuesax/twotone/trash">
<g id="trash">
<g id="Vector">
<path d="M17.5 4.98356C14.725 4.70856 11.9333 4.56689 9.15 4.56689C7.5 4.56689 5.85 4.65023 4.2 4.81689L2.5 4.98356" fill="#B0B8C1"/>
<path d="M17.5 4.98356C14.725 4.70856 11.9333 4.56689 9.15 4.56689C7.5 4.56689 5.85 4.65023 4.2 4.81689L2.5 4.98356" stroke="#B0B8C1" stroke-width="1.5" stroke-linecap="round" stroke-linejoin="round"/>
</g>
<g id="Vector_2" opacity="0.34">
<path d="M7.08337 4.1415L7.26671 3.04984C7.40004 2.25817 7.50004 1.6665 8.90837 1.6665H11.0917C12.5 1.6665 12.6084 2.2915 12.7334 3.05817L12.9167 4.1415" fill="#B0B8C1"/>
<path d="M7.08337 4.1415L7.26671 3.04984C7.40004 2.25817 7.50004 1.6665 8.90837 1.6665H11.0917C12.5 1.6665 12.6084 2.2915 12.7334 3.05817L12.9167 4.1415" stroke="#B0B8C1" stroke-width="1.5" stroke-linecap="round" stroke-linejoin="round"/>
</g>
<path id="Vector_3" d="M15.7083 7.6167L15.1666 16.0084C15.075 17.3167 15 18.3334 12.675 18.3334H7.32496C4.99996 18.3334 4.92496 17.3167 4.83329 16.0084L4.29163 7.6167" stroke="#B0B8C1" stroke-width="1.5" stroke-linecap="round" stroke-linejoin="round"/>
<path id="Vector_4" opacity="0.34" d="M8.60828 13.75H11.3833" stroke="#B0B8C1" stroke-width="1.5" stroke-linecap="round" stroke-linejoin="round"/>
<path id="Vector_5" opacity="0.34" d="M7.91663 10.4165H12.0833" stroke="#B0B8C1" stroke-width="1.5" stroke-linecap="round" stroke-linejoin="round"/>
</g>
</g>
</svg>
