<svg width="16" height="16" viewBox="0 0 16 16" fill="none" xmlns="http://www.w3.org/2000/svg">
<g id="vuesax/twotone/trash">
<g id="trash">
<g id="Vector">
<path d="M14 3.98665C11.78 3.76665 9.54667 3.65332 7.32 3.65332C6 3.65332 4.68 3.71999 3.36 3.85332L2 3.98665" fill="#008C79"/>
<path d="M14 3.98665C11.78 3.76665 9.54667 3.65332 7.32 3.65332C6 3.65332 4.68 3.71999 3.36 3.85332L2 3.98665" stroke="#008C79" stroke-width="1.5" stroke-linecap="round" stroke-linejoin="round"/>
</g>
<g id="Vector_2" opacity="0.34">
<path d="M5.66666 3.31301L5.81333 2.43967C5.92 1.80634 6 1.33301 7.12666 1.33301H8.87333C10 1.33301 10.0867 1.83301 10.1867 2.44634L10.3333 3.31301" fill="#008C79"/>
<path d="M5.66666 3.31301L5.81333 2.43967C5.92 1.80634 6 1.33301 7.12666 1.33301H8.87333C10 1.33301 10.0867 1.83301 10.1867 2.44634L10.3333 3.31301" stroke="#008C79" stroke-width="1.5" stroke-linecap="round" stroke-linejoin="round"/>
</g>
<path id="Vector_3" d="M12.5667 6.09375L12.1333 12.8071C12.06 13.8537 12 14.6671 10.14 14.6671H5.86C4 14.6671 3.94 13.8537 3.86667 12.8071L3.43333 6.09375" stroke="#008C79" stroke-width="1.5" stroke-linecap="round" stroke-linejoin="round"/>
<path id="Vector_4" opacity="0.34" d="M6.88667 11H9.10667" stroke="#008C79" stroke-width="1.5" stroke-linecap="round" stroke-linejoin="round"/>
<path id="Vector_5" opacity="0.34" d="M6.33334 8.33301H9.66667" stroke="#008C79" stroke-width="1.5" stroke-linecap="round" stroke-linejoin="round"/>
</g>
</g>
</svg>
