<svg width="16" height="16" viewBox="0 0 16 16" fill="none" xmlns="http://www.w3.org/2000/svg">
<path d="M9.33317 6.66667V11.3333M6.6665 6.66667L6.6665 11.3333M2.6665 4H13.3332M11.9998 4V11.8667C11.9998 12.6134 12 12.9868 11.8547 13.272C11.7268 13.5229 11.5226 13.7268 11.2717 13.8547C10.9865 14 10.6134 14 9.86663 14H6.1333C5.38656 14 5.01292 14 4.7277 13.8547C4.47682 13.7268 4.27299 13.5229 4.14516 13.272C3.99984 12.9868 3.99984 12.6134 3.99984 11.8667V4H11.9998ZM10.6665 4H5.33317C5.33317 3.37874 5.33317 3.06811 5.43466 2.82308C5.56999 2.49638 5.82938 2.23682 6.15609 2.10149C6.40112 2 6.71192 2 7.33317 2H8.6665C9.28776 2 9.59839 2 9.84342 2.10149C10.1701 2.23682 10.4296 2.49638 10.5649 2.82308C10.6664 3.06811 10.6665 3.37875 10.6665 4Z" stroke="#FF3333" stroke-width="1.5" stroke-linecap="round" stroke-linejoin="round"/>
</svg>
