<svg width="16" height="16" viewBox="0 0 16 16" fill="none" xmlns="http://www.w3.org/2000/svg">
<path d="M9.33329 6.66667V11.3333M6.66663 6.66667L6.66663 11.3333M2.66663 4H13.3333M12 4V11.8667C12 12.6134 12.0001 12.9868 11.8548 13.272C11.7269 13.5229 11.5227 13.7268 11.2718 13.8547C10.9866 14 10.6135 14 9.86676 14H6.13342C5.38669 14 5.01304 14 4.72782 13.8547C4.47694 13.7268 4.27312 13.5229 4.14528 13.272C3.99996 12.9868 3.99996 12.6134 3.99996 11.8667V4H12ZM10.6666 4H5.33329C5.33329 3.37874 5.33329 3.06811 5.43479 2.82308C5.57011 2.49638 5.82951 2.23682 6.15621 2.10149C6.40124 2 6.71204 2 7.33329 2H8.66663C9.28788 2 9.59851 2 9.84354 2.10149C10.1702 2.23682 10.4297 2.49638 10.5651 2.82308C10.6666 3.06811 10.6666 3.37875 10.6666 4Z" stroke="#FF3333" stroke-width="1.5" stroke-linecap="round" stroke-linejoin="round"/>
</svg>
