<svg width="20" height="20" viewBox="0 0 20 20" fill="none" xmlns="http://www.w3.org/2000/svg">
<g clip-path="url(#clip0_501_14219)">
<path d="M11 4.25009C11 4.80238 10.5523 5.25009 10 5.25009C9.44772 5.25009 9 4.80238 9 4.25009C9 3.69781 9.44772 3.25009 10 3.25009C10.5523 3.25009 11 3.69781 11 4.25009ZM11.0316 0.324403C10.417 -0.124085 9.58302 -0.124085 8.96843 0.324403L1.54657 5.74035C0.569487 6.45336 1.07382 8.00009 2.2834 8.00009H2.5L2.5 13.7999C1.60958 14.2551 1 15.1814 1 16.2501V17.7501C1 18.1643 1.33579 18.5001 1.75 18.5001H18.25C18.6642 18.5001 19 18.1643 19 17.7501V16.2501C19 15.1814 18.3904 14.2551 17.5 13.7999V8.00009H17.7166C18.9262 8.00009 19.4305 6.45337 18.4534 5.74036L11.0316 0.324403ZM9.85263 1.53609C9.94043 1.47202 10.0596 1.47202 10.1474 1.53609L16.9499 6.50009H3.05011L9.85263 1.53609ZM16 8.00009V13.5001H14V8.00009H16ZM12.5 8.00009V13.5001H10.75V8.00009H12.5ZM9.25 8.00009V13.5001H7.5L7.5 8.00009H9.25ZM3.75 15.0001H16.25C16.9404 15.0001 17.5 15.5597 17.5 16.2501V17.0001H2.5V16.2501C2.5 15.5597 3.05964 15.0001 3.75 15.0001ZM4 13.5001L4 8.00009H6L6 13.5001H4Z" fill="#008C79"/>
</g>
<defs>
<clipPath id="clip0_501_14219">
<rect width="20" height="20" fill="white"/>
</clipPath>
</defs>
</svg>
