<svg width="40" height="40" viewBox="0 0 40 40" fill="none" xmlns="http://www.w3.org/2000/svg">
<rect width="40" height="40" rx="10" fill="#CBFED3"/>
<path d="M28.0889 9.60001H11.9111C10.6347 9.60001 9.6 10.6347 9.6 11.9111V28.0889C9.6 29.3653 10.6347 30.4 11.9111 30.4H28.0889C29.3653 30.4 30.4 29.3653 30.4 28.0889V11.9111C30.4 10.6347 29.3653 9.60001 28.0889 9.60001Z" fill="#43B77B"/>
<path d="M17.4 13.6H15.4C14.8477 13.6 14.4 14.0477 14.4 14.6V25.4C14.4 25.9523 14.8477 26.4 15.4 26.4H17.4C17.9523 26.4 18.4 25.9523 18.4 25.4V14.6C18.4 14.0477 17.9523 13.6 17.4 13.6Z" fill="#CBFED3"/>
<path d="M24.6 13.6H22.6C22.0477 13.6 21.6 14.0477 21.6 14.6V19C21.6 19.5523 22.0477 20 22.6 20H24.6C25.1523 20 25.6 19.5523 25.6 19V14.6C25.6 14.0477 25.1523 13.6 24.6 13.6Z" fill="#CBFED3"/>
</svg>
