<svg width="28" height="28" viewBox="0 0 28 28" fill="none" xmlns="http://www.w3.org/2000/svg">
<g clip-path="url(#clip0_1655_78837)">
<path fill-rule="evenodd" clip-rule="evenodd" d="M-7 0H46.2005V2.15387H-7V0ZM-7 4.30773H46.2005V6.4616H-7V4.30773ZM-7 8.61547H46.2005V10.7693H-7V8.61547ZM-7 12.9232H46.2005V15.0771H-7V12.9232ZM-7 17.2309H46.2005V19.3848H-7V17.2309ZM-7 21.5387H46.2005V23.6925H-7V21.5387ZM-7 25.8464H46.2005V28.0003H-7V25.8464Z" fill="#FC121F"/>
<path fill-rule="evenodd" clip-rule="evenodd" d="M-7 2.1539H46.2005V4.30777H-7V2.1539ZM-7 6.46163H46.2005V8.6155H-7V6.46163ZM-7 10.7694H46.2005V12.9232H-7V10.7694ZM-7 15.0771H46.2005V17.231H-7V15.0771ZM-7 19.3848H46.2005V21.5387H-7V19.3848ZM-7 23.6926H46.2005V25.8464H-7V23.6926Z" fill="white"/>
<path fill-rule="evenodd" clip-rule="evenodd" d="M-7 0H14.2802V15.0771H-7V0Z" fill="#192F5D"/>
<path fill-rule="evenodd" clip-rule="evenodd" d="M-5.23383 0.646088L-5.01844 1.24917H-4.41536L-4.91075 1.61533L-4.7169 2.19687L-5.23383 1.83071L-5.70768 2.19687L-5.51383 1.61533L-6.03076 1.24917H-5.3846L-5.23383 0.646088ZM-1.67995 0.646088L-1.4861 1.24917H-0.861481L-1.37841 1.61533L-1.16302 2.19687L-1.67995 1.83071L-2.19688 2.19687L-1.98149 1.61533L-2.49842 1.24917H-1.8738L-1.67995 0.646088ZM1.87393 0.646088L2.06778 1.24917H2.6924L2.17547 1.61533L2.39086 2.19687L1.87393 1.83071L1.357 2.19687L1.57239 1.61533L1.05546 1.24917H1.68008L1.87393 0.646088ZM5.40627 0.646088L5.62166 1.24917H6.22474L5.72935 1.61533L5.9232 2.19687L5.40627 1.83071L4.91088 2.19687L5.10473 1.61533L4.5878 1.24917H5.23396L5.40627 0.646088ZM8.96015 0.646088L9.154 1.24917H9.77862L9.26169 1.61533L9.47708 2.19687L8.93861 1.83071L8.44322 2.19687L8.63707 1.61533L8.12014 1.24917H8.74476L8.96015 0.646088ZM12.514 0.646088L12.7079 1.24917H13.3325L12.8156 1.61533L13.031 2.19687L12.514 1.83071L11.9971 2.19687L12.2125 1.61533L11.6956 1.24917H12.3202L12.514 0.646088ZM-3.44612 2.15379L-3.25227 2.75688H-2.62765L-3.14458 3.12303L-2.92919 3.70458L-3.44612 3.33842L-3.96305 3.70458L-3.74766 3.12303L-4.26459 2.75688H-3.63997L-3.44612 2.15379ZM0.0862206 2.15379L0.301607 2.75688H0.90469L0.409301 3.12303L0.603148 3.70458L0.0862206 3.33842L-0.409169 3.70458L-0.215321 3.12303L-0.732249 2.75688H-0.0860894L0.0862206 2.15379ZM3.6401 2.15379L3.83395 2.75688H4.45857L3.94164 3.12303L4.15703 3.70458L3.6401 3.33842L3.12317 3.70458L3.33856 3.12303L2.82163 2.75688H3.44625L3.6401 2.15379ZM7.19398 2.15379L7.38783 2.75688H8.01245L7.49552 3.12303L7.71091 3.70458L7.19398 3.33842L6.67705 3.70458L6.89244 3.12303L6.37551 2.75688H7.00013L7.19398 2.15379ZM10.7263 2.15379L10.9417 2.75688H11.5233L11.0279 3.12303L11.2217 3.70458L10.7048 3.33842L10.2094 3.70458L10.4032 3.12303L9.88631 2.75688H10.5325L10.7263 2.15379ZM-5.21229 3.6615L-5.03998 4.26458H-4.39382L-4.91075 4.63074L-4.7169 5.21228L-5.23383 4.84613L-5.70768 5.21228L-5.51383 4.63074L-6.03076 4.26458H-5.3846L-5.21229 3.6615ZM-1.67995 3.6615L-1.4861 4.26458H-0.861481L-1.35687 4.63074L-1.16302 5.21228L-1.67995 4.84613L-2.17534 5.21228L-1.98149 4.63074L-2.49842 4.26458H-1.8738L-1.67995 3.6615ZM1.87393 3.6615L2.06778 4.26458H2.6924L2.17547 4.63074L2.39086 5.21228L1.87393 4.84613L1.357 5.21228L1.57239 4.63074L1.05546 4.26458H1.68008L1.87393 3.6615ZM5.40627 3.6615L5.62166 4.26458H6.22474L5.72935 4.63074L5.9232 5.21228L5.40627 4.84613L4.91088 5.21228L5.10473 4.63074L4.5878 4.26458H5.23396L5.40627 3.6615ZM8.96015 3.6615L9.154 4.26458H9.77862L9.28323 4.63074L9.47708 5.21228L8.96015 4.84613L8.46476 5.21228L8.65861 4.63074L8.14168 4.26458H8.7663L8.96015 3.6615ZM12.514 3.6615L12.7079 4.26458H13.3325L12.8156 4.63074L13.031 5.21228L12.514 4.84613L11.9971 5.21228L12.2125 4.63074L11.6956 4.26458H12.3202L12.514 3.6615ZM-3.44612 5.16921L-3.25227 5.77229H-2.62765L-3.14458 6.13845L-2.92919 6.71999L-3.44612 6.35383L-3.96305 6.71999L-3.74766 6.13845L-4.26459 5.77229H-3.63997L-3.44612 5.16921ZM0.0862206 5.16921L0.301607 5.77229H0.90469L0.409301 6.13845L0.603148 6.71999L0.0862206 6.35383L-0.409169 6.71999L-0.215321 6.13845L-0.732249 5.77229H-0.0860894L0.0862206 5.16921ZM3.6401 5.16921L3.83395 5.77229H4.45857L3.96318 6.13845L4.15703 6.71999L3.6401 6.35383L3.14471 6.71999L3.33856 6.13845L2.82163 5.77229H3.44625L3.6401 5.16921ZM7.19398 5.16921L7.38783 5.77229H8.01245L7.49552 6.13845L7.71091 6.71999L7.19398 6.35383L6.67705 6.71999L6.89244 6.13845L6.37551 5.77229H7.00013L7.19398 5.16921ZM10.7263 5.16921L10.9417 5.77229H11.5233L11.0279 6.13845L11.2217 6.71999L10.7048 6.35383L10.2094 6.71999L10.4032 6.13845L9.88631 5.77229H10.5325L10.7263 5.16921ZM-5.21229 6.67691L-5.03998 7.28H-4.39382L-4.91075 7.64615L-4.7169 8.2277L-5.23383 7.86154L-5.70768 8.2277L-5.51383 7.64615L-6.03076 7.28H-5.3846L-5.21229 6.67691ZM-1.67995 6.67691L-1.4861 7.28H-0.861481L-1.35687 7.64615L-1.16302 8.2277L-1.67995 7.86154L-2.17534 8.2277L-1.98149 7.64615L-2.49842 7.28H-1.8738L-1.67995 6.67691ZM1.87393 6.67691L2.06778 7.28H2.6924L2.17547 7.64615L2.39086 8.2277L1.87393 7.86154L1.357 8.2277L1.57239 7.64615L1.05546 7.28H1.68008L1.87393 6.67691ZM5.40627 6.67691L5.62166 7.28H6.22474L5.72935 7.64615L5.9232 8.2277L5.40627 7.86154L4.91088 8.2277L5.10473 7.64615L4.5878 7.28H5.23396L5.40627 6.67691ZM8.96015 6.67691L9.154 7.28H9.77862L9.28323 7.64615L9.47708 8.2277L8.96015 7.86154L8.46476 8.2277L8.65861 7.64615L8.14168 7.28H8.7663L8.96015 6.67691ZM12.514 6.67691L12.7079 7.28H13.3325L12.8156 7.64615L13.031 8.2277L12.514 7.86154L11.9971 8.2277L12.2125 7.64615L11.6956 7.28H12.3202L12.514 6.67691ZM-3.44612 8.18462L-3.25227 8.7877H-2.62765L-3.14458 9.15386L-2.92919 9.7354L-3.44612 9.36925L-3.96305 9.7354L-3.74766 9.15386L-4.26459 8.7877H-3.63997L-3.44612 8.18462ZM0.0862206 8.18462L0.301607 8.7877H0.90469L0.409301 9.15386L0.603148 9.7354L0.0862206 9.36925L-0.409169 9.7354L-0.215321 9.15386L-0.732249 8.7877H-0.0860894L0.0862206 8.18462ZM3.6401 8.18462L3.83395 8.7877H4.45857L3.96318 9.15386L4.15703 9.7354L3.6401 9.36925L3.14471 9.7354L3.33856 9.15386L2.82163 8.7877H3.44625L3.6401 8.18462ZM7.19398 8.18462L7.38783 8.7877H8.01245L7.49552 9.15386L7.71091 9.7354L7.19398 9.36925L6.67705 9.7354L6.89244 9.15386L6.37551 8.7877H7.00013L7.19398 8.18462ZM10.7263 8.18462L10.9417 8.7877H11.5233L11.0279 9.15386L11.2217 9.7354L10.7048 9.36925L10.2094 9.7354L10.4032 9.15386L9.88631 8.7877H10.5325L10.7263 8.18462ZM-5.21229 9.69233L-5.03998 10.2954H-4.39382L-4.91075 10.6616L-4.7169 11.2431L-5.23383 10.877L-5.70768 11.2431L-5.51383 10.6616L-6.03076 10.2954H-5.3846L-5.21229 9.69233ZM-1.67995 9.69233L-1.4861 10.2954H-0.861481L-1.35687 10.6616L-1.16302 11.2431L-1.67995 10.877L-2.17534 11.2431L-1.98149 10.6616L-2.49842 10.2954H-1.8738L-1.67995 9.69233ZM1.87393 9.69233L2.06778 10.2954H2.6924L2.17547 10.6616L2.39086 11.2431L1.87393 10.877L1.357 11.2431L1.57239 10.6616L1.05546 10.2954H1.68008L1.87393 9.69233ZM5.40627 9.69233L5.62166 10.2954H6.22474L5.72935 10.6616L5.9232 11.2431L5.40627 10.877L4.91088 11.2431L5.10473 10.6616L4.5878 10.2954H5.23396L5.40627 9.69233ZM8.96015 9.69233L9.154 10.2954H9.77862L9.28323 10.6616L9.47708 11.2431L8.96015 10.877L8.46476 11.2431L8.65861 10.6616L8.14168 10.2954H8.7663L8.96015 9.69233ZM12.514 9.69233L12.7079 10.2954H13.3325L12.8156 10.6616L13.031 11.2431L12.514 10.877L11.9971 11.2431L12.2125 10.6616L11.6956 10.2954H12.3202L12.514 9.69233ZM-3.44612 11.2L-3.25227 11.8031H-2.62765L-3.14458 12.1693L-2.92919 12.7508L-3.44612 12.3847L-3.96305 12.7508L-3.74766 12.1693L-4.26459 11.8031H-3.63997L-3.44612 11.2ZM0.0862206 11.2L0.301607 11.8031H0.90469L0.409301 12.1693L0.603148 12.7508L0.0862206 12.3847L-0.409169 12.7508L-0.215321 12.1693L-0.732249 11.8031H-0.0860894L0.0862206 11.2ZM3.6401 11.2L3.83395 11.8031H4.45857L3.96318 12.1693L4.15703 12.7508L3.6401 12.3847L3.14471 12.7508L3.33856 12.1693L2.82163 11.8031H3.44625L3.6401 11.2ZM7.19398 11.2L7.38783 11.8031H8.01245L7.49552 12.1693L7.71091 12.7508L7.19398 12.3847L6.67705 12.7508L6.89244 12.1693L6.37551 11.8031H7.00013L7.19398 11.2ZM10.7263 11.2L10.9417 11.8031H11.5233L11.0279 12.1693L11.2217 12.7508L10.7048 12.3847L10.2094 12.7508L10.4032 12.1693L9.88631 11.8031H10.5325L10.7263 11.2ZM-5.21229 12.7077L-5.03998 13.3108H-4.39382L-4.91075 13.677L-4.7169 14.2585L-5.23383 13.8924L-5.70768 14.2585L-5.51383 13.677L-6.03076 13.3108H-5.3846L-5.21229 12.7077ZM-1.67995 12.7077L-1.4861 13.3108H-0.861481L-1.35687 13.677L-1.16302 14.2585L-1.67995 13.8924L-2.17534 14.2585L-1.98149 13.677L-2.49842 13.3108H-1.8738L-1.67995 12.7077ZM1.87393 12.7077L2.06778 13.3108H2.6924L2.17547 13.677L2.39086 14.2585L1.87393 13.8924L1.357 14.2585L1.57239 13.677L1.05546 13.3108H1.68008L1.87393 12.7077ZM5.40627 12.7077L5.62166 13.3108H6.22474L5.72935 13.677L5.9232 14.2585L5.40627 13.8924L4.91088 14.2585L5.10473 13.677L4.5878 13.3108H5.23396L5.40627 12.7077ZM8.96015 12.7077L9.154 13.3108H9.77862L9.28323 13.677L9.47708 14.2585L8.96015 13.8924L8.46476 14.2585L8.65861 13.677L8.14168 13.3108H8.7663L8.96015 12.7077ZM12.514 12.7077L12.7079 13.3108H13.3325L12.8156 13.677L13.031 14.2585L12.514 13.8924L11.9971 14.2585L12.2125 13.677L11.6956 13.3108H12.3202L12.514 12.7077Z" fill="white"/>
</g>
<defs>
<clipPath id="clip0_1655_78837">
<rect width="28" height="28" rx="14" fill="white"/>
</clipPath>
</defs>
</svg>
