<svg width="20" height="20" viewBox="0 0 20 20" fill="none" xmlns="http://www.w3.org/2000/svg">
<g id="vscode-icons:file-type-swift">
<path id="Vector" d="M14.3615 7.92042C14.3502 6.74254 14.025 5.20965 12.9696 3.36327C13.2855 3.59725 13.6552 3.89173 14.0407 4.24142C15.124 5.22399 16.3111 6.62359 16.801 8.32376C17.2511 9.88966 17.2931 11.0359 17.2271 11.7822C17.194 12.1556 17.1338 12.43 17.0835 12.6077C17.0584 12.6966 17.0356 12.7614 17.02 12.8025C17.0121 12.823 17.006 12.8376 17.0023 12.8463L16.9985 12.8549C16.9984 12.8549 16.9985 12.8549 16.9984 12.8549C16.9984 12.8551 16.9983 12.8553 16.9982 12.8554C16.9981 12.8556 16.9982 12.8555 16.9982 12.8555C16.9981 12.8556 16.998 12.8559 16.998 12.8559L16.9249 13.0075L17.0396 13.1324C17.4873 13.6199 17.84 14.1867 18.0794 14.8037L18.0874 14.8242L18.0987 14.8429C18.3297 15.2237 18.4654 15.6545 18.4943 16.0989C18.508 16.309 18.4976 16.5193 18.4639 16.7256C18.451 16.7061 18.4375 16.6865 18.4233 16.6668C18.1211 16.2464 17.5567 15.8224 16.5283 15.6794C15.6582 15.557 15.0215 15.8731 14.3436 16.2096C14.258 16.2521 14.1719 16.2949 14.0845 16.3371C13.2995 16.7168 12.3305 17.1127 10.6874 17.0721L10.686 17.0721C8.8477 17.0373 7.04585 16.5533 5.43761 15.6622C4.15506 14.9516 3.02672 13.9993 2.11301 12.8616C3.62378 13.6925 5.53085 14.6179 7.8005 14.4369C9.17525 14.3272 10.0243 14.0598 10.538 13.8082C10.7951 13.6823 10.9679 13.5604 11.08 13.4647C11.136 13.4169 11.1766 13.3758 11.2049 13.3443C11.2189 13.3285 11.2299 13.3152 11.2381 13.3047C11.2423 13.2994 11.2457 13.2949 11.2485 13.2911L11.2521 13.2859L11.2536 13.2838L11.2543 13.2828L11.2546 13.2823C11.2548 13.2821 11.2549 13.2819 11.0481 13.1414L11.2549 13.2819L11.3855 13.0897L11.2033 12.9454C8.68137 10.9489 6.40104 8.6681 4.40689 6.14973C5.34286 6.85002 6.42169 7.61881 7.38951 8.29587C8.17366 8.84443 8.88743 9.33452 9.39758 9.68187C9.65265 9.85555 9.85695 9.99363 9.9938 10.0856C10.0622 10.1315 10.114 10.1662 10.1471 10.188C10.1632 10.1987 10.1762 10.2072 10.1845 10.2125L10.1919 10.2172L10.1976 10.2207C10.199 10.2214 10.2048 10.2249 10.2123 10.2287C10.2171 10.231 10.2317 10.2375 10.2416 10.2412C10.2708 10.2496 10.4503 10.222 10.5531 10.1084C10.5747 9.98986 10.5246 9.85477 10.509 9.83602C10.5042 9.83104 10.4973 9.8244 10.4926 9.81997C9.0751 8.43391 7.74672 6.96048 6.51515 5.4086C7.21137 5.97106 8.06402 6.65489 8.93099 7.33794C9.9586 8.14755 11.0084 8.95773 11.8422 9.56358C12.2586 9.86613 12.6246 10.1203 12.9086 10.2984C13.0501 10.3872 13.1761 10.4601 13.2804 10.511C13.3323 10.5364 13.3837 10.5587 13.4319 10.5746C13.4749 10.5887 13.5385 10.6059 13.6068 10.6015L13.752 10.5921L13.8155 10.4612C13.9538 10.1763 14.3747 9.30487 14.3615 7.92042Z" fill="#B0B8C1" stroke="#B0B8C1" stroke-width="0.5"/>
</g>
</svg>
